G04 (Genere par PCBNEW (2007-07-09)) le 26/1/2008-14:05:25*
G01*
G70*
G90*
%MOIN*%
G04 Gerber Fmt 3.4, Leading zero omitted, Abs format*
%FSLAX34Y34*%
G04 APERTURE LIST*
%ADD10C,0.015000*%
%ADD11C,0.079700*%
%ADD12R,0.062000X0.090000*%
%ADD13O,0.062000X0.090000*%
%ADD14R,0.055000X0.055000*%
%ADD15C,0.055000*%
%ADD16R,0.035000X0.055000*%
%ADD17R,0.055000X0.035000*%
%ADD18R,0.020000X0.045000*%
%ADD19O,0.056000X0.112000*%
%ADD20O,0.104000X0.052000*%
%ADD21R,0.036000X0.036000*%
%ADD22C,0.090000*%
%ADD23C,0.100000*%
%ADD24C,0.045000*%
%ADD25C,0.050000*%
%ADD26C,0.017000*%
%ADD27C,0.025000*%
%ADD28C,0.100000*%
%ADD29C,0.005000*%
%ADD30C,0.006000*%
%ADD31C,0.008000*%
%ADD32C,0.012000*%
%ADD33C,0.002600*%
%ADD34C,0.020000*%
%ADD35C,0.010000*%
%ADD36C,0.002000*%
%ADD37C,0.002500*%
%ADD38C,0.001000*%
%ADD39C,0.003500*%
G04 APERTURE END LIST*
G54D10*
X-09050Y-20750D02*
X00000Y-11700D01*
X-28200Y-20750D02*
X-36400Y-12550D01*
X-09050Y-20750D02*
X-28200Y-20750D01*
X-36400Y00000D02*
X-36400Y-12550D01*
X00000Y00000D02*
X-36400Y00000D01*
X01250Y00000D02*
X01154Y-00478D01*
X01154Y-00478D02*
X00883Y-00883D01*
X00883Y-00883D02*
X00478Y-01154D01*
X00478Y-01154D02*
X00000Y-01250D01*
X00000Y-01250D02*
X-00478Y-01154D01*
X-00478Y-01154D02*
X-00883Y-00883D01*
X-00883Y-00883D02*
X-01154Y-00478D01*
X-01154Y-00478D02*
X-01250Y00000D01*
X-01250Y00000D02*
X-01154Y00478D01*
X-01154Y00478D02*
X-00883Y00883D01*
X-00883Y00883D02*
X-00478Y01154D01*
X-00478Y01154D02*
X00000Y01250D01*
X00000Y01250D02*
X00478Y01154D01*
X00478Y01154D02*
X00883Y00883D01*
X00883Y00883D02*
X01154Y00478D01*
X01154Y00478D02*
X01250Y00000D01*
X-02500Y00000D02*
X02500Y00000D01*
X00000Y02500D02*
X00000Y-02500D01*
X00000Y-10050D02*
X00000Y-11700D01*
X00000Y00000D02*
X00000Y-10050D01*
X-67600Y17950D02*
X-43800Y17950D01*
X-43900Y17950D02*
X-67600Y17950D01*
X-67600Y17950D02*
X-43900Y17950D01*
X-03200Y-09250D02*
X-06200Y-09250D01*
X-06200Y-09250D02*
X-06200Y-05250D01*
X-06200Y-05250D02*
X-06200Y-03250D01*
X-06200Y-03250D02*
X-03200Y-03250D01*
X-03200Y-03250D02*
X-00200Y-03250D01*
X-00200Y-03250D02*
X-00200Y-09250D01*
X-00200Y-09250D02*
X-03200Y-09250D01*
X-09200Y-09250D02*
X-12200Y-09250D01*
X-12200Y-09250D02*
X-12200Y-05250D01*
X-12200Y-05250D02*
X-12200Y-03250D01*
X-12200Y-03250D02*
X-09200Y-03250D01*
X-09200Y-03250D02*
X-06200Y-03250D01*
X-06200Y-03250D02*
X-06200Y-09250D01*
X-06200Y-09250D02*
X-09200Y-09250D01*
X-15200Y-09250D02*
X-18200Y-09250D01*
X-18200Y-09250D02*
X-18200Y-05250D01*
X-18200Y-05250D02*
X-18200Y-03250D01*
X-18200Y-03250D02*
X-15200Y-03250D01*
X-15200Y-03250D02*
X-12200Y-03250D01*
X-12200Y-03250D02*
X-12200Y-09250D01*
X-12200Y-09250D02*
X-15200Y-09250D01*
X-21200Y-09250D02*
X-24200Y-09250D01*
X-24200Y-09250D02*
X-24200Y-05250D01*
X-24200Y-05250D02*
X-24200Y-03250D01*
X-24200Y-03250D02*
X-21200Y-03250D01*
X-21200Y-03250D02*
X-18200Y-03250D01*
X-18200Y-03250D02*
X-18200Y-09250D01*
X-18200Y-09250D02*
X-21200Y-09250D01*
X-27200Y-09250D02*
X-30200Y-09250D01*
X-30200Y-09250D02*
X-30200Y-05250D01*
X-30200Y-05250D02*
X-30200Y-03250D01*
X-30200Y-03250D02*
X-27200Y-03250D01*
X-27200Y-03250D02*
X-24200Y-03250D01*
X-24200Y-03250D02*
X-24200Y-09250D01*
X-24200Y-09250D02*
X-27200Y-09250D01*
X-33200Y-09250D02*
X-36200Y-09250D01*
X-36200Y-09250D02*
X-36200Y-05250D01*
X-36200Y-05250D02*
X-36200Y-03250D01*
X-36200Y-03250D02*
X-33200Y-03250D01*
X-33200Y-03250D02*
X-30200Y-03250D01*
X-30200Y-03250D02*
X-30200Y-09250D01*
X-30200Y-09250D02*
X-33200Y-09250D01*
X-17750Y-13800D02*
X-17750Y-13800D01*
X-17750Y-13800D02*
X-17250Y-13800D01*
X-17250Y-13800D02*
X-17250Y-14800D01*
X-17250Y-14800D02*
X-17750Y-14800D01*
X-17750Y-13300D02*
X-08750Y-13300D01*
X-08750Y-13300D02*
X-08750Y-15300D01*
X-08750Y-15300D02*
X-17750Y-15300D01*
X-17750Y-15300D02*
X-17750Y-13300D01*
X-19750Y-18000D02*
X-19250Y-18000D01*
X-19250Y-18000D02*
X-19250Y-19000D01*
X-19250Y-19000D02*
X-19750Y-19000D01*
X-19750Y-17500D02*
X-09750Y-17500D01*
X-09750Y-17500D02*
X-09750Y-19500D01*
X-09750Y-19500D02*
X-19750Y-19500D01*
X-19750Y-19500D02*
X-19750Y-17500D01*
G54D32*
X-09250Y-10300D02*
X-09327Y-10682D01*
X-09327Y-10682D02*
X-09543Y-11007D01*
X-09543Y-11007D02*
X-09868Y-11223D01*
X-09868Y-11223D02*
X-10250Y-11300D01*
X-10250Y-11300D02*
X-10632Y-11223D01*
X-10632Y-11223D02*
X-10957Y-11007D01*
X-10957Y-11007D02*
X-11173Y-10682D01*
X-11173Y-10682D02*
X-11250Y-10300D01*
X-11250Y-10300D02*
X-11173Y-09918D01*
X-11173Y-09918D02*
X-10957Y-09593D01*
X-10957Y-09593D02*
X-10632Y-09377D01*
X-10632Y-09377D02*
X-10250Y-09300D01*
X-10250Y-09300D02*
X-09868Y-09377D01*
X-09868Y-09377D02*
X-09543Y-09593D01*
X-09543Y-09593D02*
X-09327Y-09918D01*
X-09327Y-09918D02*
X-09250Y-10300D01*
X-11250Y-10550D02*
X-11000Y-10550D01*
X-11000Y-10550D02*
X-11000Y-10050D01*
X-11000Y-10050D02*
X-11250Y-10050D01*
X-15175Y-10250D02*
X-15252Y-10632D01*
X-15252Y-10632D02*
X-15468Y-10957D01*
X-15468Y-10957D02*
X-15793Y-11173D01*
X-15793Y-11173D02*
X-16175Y-11250D01*
X-16175Y-11250D02*
X-16557Y-11173D01*
X-16557Y-11173D02*
X-16882Y-10957D01*
X-16882Y-10957D02*
X-17098Y-10632D01*
X-17098Y-10632D02*
X-17175Y-10250D01*
X-17175Y-10250D02*
X-17098Y-09868D01*
X-17098Y-09868D02*
X-16882Y-09543D01*
X-16882Y-09543D02*
X-16557Y-09327D01*
X-16557Y-09327D02*
X-16175Y-09250D01*
X-16175Y-09250D02*
X-15793Y-09327D01*
X-15793Y-09327D02*
X-15468Y-09543D01*
X-15468Y-09543D02*
X-15252Y-09868D01*
X-15252Y-09868D02*
X-15175Y-10250D01*
X-17175Y-10500D02*
X-16925Y-10500D01*
X-16925Y-10500D02*
X-16925Y-10000D01*
X-16925Y-10000D02*
X-17175Y-10000D01*
X-21200Y-10250D02*
X-21277Y-10632D01*
X-21277Y-10632D02*
X-21493Y-10957D01*
X-21493Y-10957D02*
X-21818Y-11173D01*
X-21818Y-11173D02*
X-22200Y-11250D01*
X-22200Y-11250D02*
X-22582Y-11173D01*
X-22582Y-11173D02*
X-22907Y-10957D01*
X-22907Y-10957D02*
X-23123Y-10632D01*
X-23123Y-10632D02*
X-23200Y-10250D01*
X-23200Y-10250D02*
X-23123Y-09868D01*
X-23123Y-09868D02*
X-22907Y-09543D01*
X-22907Y-09543D02*
X-22582Y-09327D01*
X-22582Y-09327D02*
X-22200Y-09250D01*
X-22200Y-09250D02*
X-21818Y-09327D01*
X-21818Y-09327D02*
X-21493Y-09543D01*
X-21493Y-09543D02*
X-21277Y-09868D01*
X-21277Y-09868D02*
X-21200Y-10250D01*
X-23200Y-10500D02*
X-22950Y-10500D01*
X-22950Y-10500D02*
X-22950Y-10000D01*
X-22950Y-10000D02*
X-23200Y-10000D01*
X-27175Y-10325D02*
X-27252Y-10707D01*
X-27252Y-10707D02*
X-27468Y-11032D01*
X-27468Y-11032D02*
X-27793Y-11248D01*
X-27793Y-11248D02*
X-28175Y-11325D01*
X-28175Y-11325D02*
X-28557Y-11248D01*
X-28557Y-11248D02*
X-28882Y-11032D01*
X-28882Y-11032D02*
X-29098Y-10707D01*
X-29098Y-10707D02*
X-29175Y-10325D01*
X-29175Y-10325D02*
X-29098Y-09943D01*
X-29098Y-09943D02*
X-28882Y-09618D01*
X-28882Y-09618D02*
X-28557Y-09402D01*
X-28557Y-09402D02*
X-28175Y-09325D01*
X-28175Y-09325D02*
X-27793Y-09402D01*
X-27793Y-09402D02*
X-27468Y-09618D01*
X-27468Y-09618D02*
X-27252Y-09943D01*
X-27252Y-09943D02*
X-27175Y-10325D01*
X-29175Y-10575D02*
X-28925Y-10575D01*
X-28925Y-10575D02*
X-28925Y-10075D01*
X-28925Y-10075D02*
X-29175Y-10075D01*
X-33175Y-10300D02*
X-33252Y-10682D01*
X-33252Y-10682D02*
X-33468Y-11007D01*
X-33468Y-11007D02*
X-33793Y-11223D01*
X-33793Y-11223D02*
X-34175Y-11300D01*
X-34175Y-11300D02*
X-34557Y-11223D01*
X-34557Y-11223D02*
X-34882Y-11007D01*
X-34882Y-11007D02*
X-35098Y-10682D01*
X-35098Y-10682D02*
X-35175Y-10300D01*
X-35175Y-10300D02*
X-35098Y-09918D01*
X-35098Y-09918D02*
X-34882Y-09593D01*
X-34882Y-09593D02*
X-34557Y-09377D01*
X-34557Y-09377D02*
X-34175Y-09300D01*
X-34175Y-09300D02*
X-33793Y-09377D01*
X-33793Y-09377D02*
X-33468Y-09593D01*
X-33468Y-09593D02*
X-33252Y-09918D01*
X-33252Y-09918D02*
X-33175Y-10300D01*
X-35175Y-10550D02*
X-34925Y-10550D01*
X-34925Y-10550D02*
X-34925Y-10050D01*
X-34925Y-10050D02*
X-35175Y-10050D01*
G54D33*
X-33330Y-14380D02*
X-33070Y-14380D01*
X-33070Y-14380D02*
X-33070Y-14120D01*
X-33330Y-14120D02*
X-33070Y-14120D01*
X-33330Y-14380D02*
X-33330Y-14120D01*
X-32330Y-14380D02*
X-32070Y-14380D01*
X-32070Y-14380D02*
X-32070Y-14120D01*
X-32330Y-14120D02*
X-32070Y-14120D01*
X-32330Y-14380D02*
X-32330Y-14120D01*
X-31330Y-14380D02*
X-31070Y-14380D01*
X-31070Y-14380D02*
X-31070Y-14120D01*
X-31330Y-14120D02*
X-31070Y-14120D01*
X-31330Y-14380D02*
X-31330Y-14120D01*
X-30330Y-14380D02*
X-30070Y-14380D01*
X-30070Y-14380D02*
X-30070Y-14120D01*
X-30330Y-14120D02*
X-30070Y-14120D01*
X-30330Y-14380D02*
X-30330Y-14120D01*
G54D30*
X-32850Y-13550D02*
X-32800Y-13600D01*
X-32800Y-13600D02*
X-32700Y-13700D01*
X-32700Y-13700D02*
X-32600Y-13600D01*
X-32600Y-13600D02*
X-32550Y-13550D01*
X-32800Y-15100D02*
X-32800Y-15150D01*
X-32800Y-15150D02*
X-33600Y-15150D01*
X-32600Y-15100D02*
X-32800Y-15100D01*
X-32600Y-15100D02*
X-32600Y-15150D01*
X-33600Y-13250D02*
X-33600Y-13550D01*
X-33600Y-13550D02*
X-33600Y-14850D01*
X-33600Y-14950D02*
X-33600Y-15150D01*
X-33600Y-14950D02*
X-33450Y-14950D01*
X-32950Y-14950D02*
X-32950Y-14850D01*
X-33450Y-14950D02*
X-33450Y-14850D01*
X-33450Y-14750D02*
X-32950Y-14750D01*
X-32950Y-14850D02*
X-32950Y-14750D01*
X-32450Y-14950D02*
X-32450Y-14850D01*
X-32450Y-14850D02*
X-32450Y-14750D01*
X-32950Y-14850D02*
X-32800Y-14850D01*
X-32800Y-14850D02*
X-32600Y-14850D01*
X-32600Y-14850D02*
X-32450Y-14850D01*
X-33450Y-14850D02*
X-33600Y-14850D01*
X-33450Y-14850D02*
X-33450Y-14750D01*
X-33600Y-14850D02*
X-33600Y-14950D01*
X-33600Y-13250D02*
X-33300Y-13250D01*
X-33300Y-13250D02*
X-33300Y-13200D01*
X-33100Y-13250D02*
X-33100Y-13200D01*
X-33100Y-13200D02*
X-33300Y-13200D01*
X-32300Y-13250D02*
X-32300Y-13200D01*
X-32100Y-13250D02*
X-32100Y-13200D01*
X-32600Y-13300D02*
X-32600Y-13250D01*
X-32800Y-13300D02*
X-32800Y-13250D01*
X-31600Y-15100D02*
X-31800Y-15100D01*
X-31600Y-15100D02*
X-31600Y-15150D01*
X-30800Y-15150D02*
X-31600Y-15150D01*
X-30950Y-14950D02*
X-30950Y-14850D01*
X-31450Y-14750D02*
X-30950Y-14750D01*
X-31950Y-14950D02*
X-31950Y-14850D01*
X-31950Y-14850D02*
X-31950Y-14750D01*
X-31450Y-14950D02*
X-31450Y-14850D01*
X-31450Y-14850D02*
X-31450Y-14750D01*
X-31950Y-14850D02*
X-31800Y-14850D01*
X-31800Y-14850D02*
X-31600Y-14850D01*
X-31600Y-14850D02*
X-31450Y-14850D01*
X-30950Y-14850D02*
X-30950Y-14750D01*
X-31300Y-13250D02*
X-31300Y-13200D01*
X-31100Y-13250D02*
X-30800Y-13250D01*
X-31100Y-13250D02*
X-31100Y-13200D01*
X-31100Y-13200D02*
X-31300Y-13200D01*
X-31600Y-13300D02*
X-31600Y-13250D01*
X-31600Y-13250D02*
X-31300Y-13250D01*
X-31600Y-13300D02*
X-31800Y-13300D01*
X-31800Y-13300D02*
X-31800Y-13250D01*
X-32100Y-13250D02*
X-31800Y-13250D01*
X-32100Y-13200D02*
X-32300Y-13200D01*
X-32600Y-13250D02*
X-32300Y-13250D01*
X-32800Y-13300D02*
X-32600Y-13300D01*
X-32800Y-13250D02*
X-33100Y-13250D01*
X-32850Y-13550D02*
X-33600Y-13550D01*
X-32550Y-13550D02*
X-31800Y-13550D01*
X-31800Y-13550D02*
X-31600Y-13550D01*
X-32600Y-13600D02*
X-32600Y-14850D01*
X-32800Y-13600D02*
X-32800Y-14850D01*
X-31800Y-13550D02*
X-31800Y-14850D01*
X-31600Y-13550D02*
X-31600Y-14850D01*
X-32450Y-14750D02*
X-31950Y-14750D01*
X-32450Y-14950D02*
X-32950Y-14950D01*
X-32600Y-15150D02*
X-31800Y-15150D01*
X-31950Y-14950D02*
X-31450Y-14950D01*
X-31800Y-15100D02*
X-31800Y-15150D01*
X-29800Y-13550D02*
X-29800Y-14850D01*
X-29800Y-14950D02*
X-29800Y-15150D01*
X-30600Y-15100D02*
X-30800Y-15100D01*
X-30800Y-15100D02*
X-30800Y-15150D01*
X-30600Y-15100D02*
X-30600Y-15150D01*
X-29800Y-15150D02*
X-30600Y-15150D01*
X-29800Y-14950D02*
X-29950Y-14950D01*
X-29950Y-14950D02*
X-29950Y-14850D01*
X-29950Y-14850D02*
X-29950Y-14750D01*
X-29950Y-14850D02*
X-29800Y-14850D01*
X-30450Y-14750D02*
X-29950Y-14750D01*
X-30450Y-14950D02*
X-30450Y-14850D01*
X-30950Y-14850D02*
X-30800Y-14850D01*
X-30800Y-14850D02*
X-30600Y-14850D01*
X-30600Y-14850D02*
X-30450Y-14850D01*
X-30450Y-14850D02*
X-30450Y-14750D01*
X-30600Y-13600D02*
X-30600Y-14850D01*
X-30800Y-13600D02*
X-30700Y-13700D01*
X-30800Y-13600D02*
X-30800Y-14850D01*
X-30850Y-13550D02*
X-30800Y-13600D01*
X-30700Y-13700D02*
X-30550Y-13550D01*
X-30550Y-13550D02*
X-29800Y-13550D01*
X-30950Y-14950D02*
X-30450Y-14950D01*
X-29800Y-14950D02*
X-29800Y-14850D01*
X-30800Y-13300D02*
X-30800Y-13250D01*
X-30600Y-13300D02*
X-30800Y-13300D01*
X-30600Y-13250D02*
X-30300Y-13250D01*
X-30600Y-13300D02*
X-30600Y-13250D01*
X-30300Y-13250D02*
X-30300Y-13200D01*
X-30100Y-13200D02*
X-30300Y-13200D01*
X-30100Y-13250D02*
X-30100Y-13200D01*
X-30100Y-13250D02*
X-29800Y-13250D01*
X-29800Y-13250D02*
X-29800Y-13550D01*
X-31600Y-13550D02*
X-30850Y-13550D01*
G54D33*
X-22950Y-16350D02*
X-22950Y-15950D01*
X-22950Y-15950D02*
X-23100Y-15950D01*
X-23100Y-16350D02*
X-23100Y-15950D01*
X-22950Y-16350D02*
X-23100Y-16350D01*
X-22700Y-16350D02*
X-22700Y-15950D01*
X-22700Y-15950D02*
X-22850Y-15950D01*
X-22850Y-16350D02*
X-22850Y-15950D01*
X-22700Y-16350D02*
X-22850Y-16350D01*
X-22450Y-16350D02*
X-22450Y-15950D01*
X-22450Y-15950D02*
X-22600Y-15950D01*
X-22600Y-16350D02*
X-22600Y-15950D01*
X-22450Y-16350D02*
X-22600Y-16350D01*
X-22950Y-17350D02*
X-22950Y-16950D01*
X-22950Y-16950D02*
X-23100Y-16950D01*
X-23100Y-17350D02*
X-23100Y-16950D01*
X-22950Y-17350D02*
X-23100Y-17350D01*
X-22700Y-17350D02*
X-22700Y-16950D01*
X-22700Y-16950D02*
X-22850Y-16950D01*
X-22850Y-17350D02*
X-22850Y-16950D01*
X-22700Y-17350D02*
X-22850Y-17350D01*
X-22450Y-17350D02*
X-22450Y-16950D01*
X-22450Y-16950D02*
X-22600Y-16950D01*
X-22600Y-17350D02*
X-22600Y-16950D01*
X-22450Y-17350D02*
X-22600Y-17350D01*
X-22950Y-18350D02*
X-22950Y-17950D01*
X-22950Y-17950D02*
X-23100Y-17950D01*
X-23100Y-18350D02*
X-23100Y-17950D01*
X-22950Y-18350D02*
X-23100Y-18350D01*
X-22700Y-18350D02*
X-22700Y-17950D01*
X-22700Y-17950D02*
X-22850Y-17950D01*
X-22850Y-18350D02*
X-22850Y-17950D01*
X-22700Y-18350D02*
X-22850Y-18350D01*
X-22450Y-18350D02*
X-22450Y-17950D01*
X-22450Y-17950D02*
X-22600Y-17950D01*
X-22600Y-18350D02*
X-22600Y-17950D01*
X-22450Y-18350D02*
X-22600Y-18350D01*
X-22950Y-19350D02*
X-22950Y-18950D01*
X-22950Y-18950D02*
X-23100Y-18950D01*
X-23100Y-19350D02*
X-23100Y-18950D01*
X-22950Y-19350D02*
X-23100Y-19350D01*
X-22700Y-19350D02*
X-22700Y-18950D01*
X-22700Y-18950D02*
X-22850Y-18950D01*
X-22850Y-19350D02*
X-22850Y-18950D01*
X-22700Y-19350D02*
X-22850Y-19350D01*
X-22450Y-19350D02*
X-22450Y-18950D01*
X-22450Y-18950D02*
X-22600Y-18950D01*
X-22600Y-19350D02*
X-22600Y-18950D01*
X-22450Y-19350D02*
X-22600Y-19350D01*
G54D30*
X-21150Y-19950D02*
X-21150Y-15350D01*
X-25050Y-15350D02*
X-25050Y-19950D01*
X-25050Y-19950D02*
X-23750Y-19950D01*
X-22450Y-19950D02*
X-22450Y-19750D01*
X-22450Y-19750D02*
X-23750Y-19750D01*
X-23750Y-19750D02*
X-23750Y-19950D01*
X-22450Y-19950D02*
X-21150Y-19950D01*
X-23750Y-19950D02*
X-22450Y-19950D01*
X-21150Y-15350D02*
X-22450Y-15350D01*
X-23750Y-15350D02*
X-23750Y-15550D01*
X-23750Y-15550D02*
X-22450Y-15550D01*
X-22450Y-15550D02*
X-22450Y-15350D01*
X-23750Y-15350D02*
X-25050Y-15350D01*
X-22450Y-15350D02*
X-23750Y-15350D01*
X-23850Y-16450D02*
X-22350Y-16450D01*
X-23850Y-16450D02*
X-23850Y-15850D01*
X-22350Y-15850D02*
X-23850Y-15850D01*
X-22350Y-15850D02*
X-22350Y-16450D01*
X-23850Y-17450D02*
X-22350Y-17450D01*
X-23850Y-17450D02*
X-23850Y-16850D01*
X-22350Y-16850D02*
X-23850Y-16850D01*
X-22350Y-16850D02*
X-22350Y-17450D01*
X-23850Y-18450D02*
X-22350Y-18450D01*
X-23850Y-18450D02*
X-23850Y-17850D01*
X-22350Y-17850D02*
X-23850Y-17850D01*
X-22350Y-17850D02*
X-22350Y-18450D01*
X-23850Y-19450D02*
X-22350Y-19450D01*
X-23850Y-19450D02*
X-23850Y-18850D01*
X-22350Y-18850D02*
X-23850Y-18850D01*
X-22350Y-18850D02*
X-22350Y-19450D01*
G54D32*
X-03175Y-10375D02*
X-03252Y-10757D01*
X-03252Y-10757D02*
X-03468Y-11082D01*
X-03468Y-11082D02*
X-03793Y-11298D01*
X-03793Y-11298D02*
X-04175Y-11375D01*
X-04175Y-11375D02*
X-04557Y-11298D01*
X-04557Y-11298D02*
X-04882Y-11082D01*
X-04882Y-11082D02*
X-05098Y-10757D01*
X-05098Y-10757D02*
X-05175Y-10375D01*
X-05175Y-10375D02*
X-05098Y-09993D01*
X-05098Y-09993D02*
X-04882Y-09668D01*
X-04882Y-09668D02*
X-04557Y-09452D01*
X-04557Y-09452D02*
X-04175Y-09375D01*
X-04175Y-09375D02*
X-03793Y-09452D01*
X-03793Y-09452D02*
X-03468Y-09668D01*
X-03468Y-09668D02*
X-03252Y-09993D01*
X-03252Y-09993D02*
X-03175Y-10375D01*
X-05175Y-10625D02*
X-04925Y-10625D01*
X-04925Y-10625D02*
X-04925Y-10125D01*
X-04925Y-10125D02*
X-05175Y-10125D01*
G54D29*
X-08230Y-00500D02*
X-08230Y-04500D01*
X-12170Y-00500D02*
X-12170Y-04500D01*
X-12170Y-00500D02*
X-08230Y-00500D01*
X-08230Y-04500D02*
X-12170Y-04500D01*
X-10680Y-01980D02*
X-11850Y-02850D01*
X-10550Y-02150D02*
X-11730Y-03020D01*
G54D34*
X-10700Y-02150D02*
X-11700Y-02850D01*
G54D35*
X-10600Y-02140D02*
X-10690Y-02040D01*
X-11720Y-02960D02*
X-11790Y-02870D01*
G54D29*
X-09720Y-01980D02*
X-08850Y-03150D01*
X-09550Y-01850D02*
X-08680Y-03030D01*
G54D34*
X-09550Y-02000D02*
X-08850Y-03000D01*
G54D35*
X-09560Y-01900D02*
X-09660Y-01991D01*
X-08740Y-03020D02*
X-08830Y-03090D01*
G54D36*
X-11850Y-00700D02*
X-08250Y-00700D01*
X-11900Y-00900D02*
X-08250Y-00900D01*
X-12000Y-01100D02*
X-08250Y-01100D01*
X-11850Y-04300D02*
X-08250Y-04300D01*
X-11900Y-04100D02*
X-08250Y-04100D01*
X-12000Y-03900D02*
X-08250Y-03900D01*
X-08250Y-03700D02*
X-12100Y-03700D01*
X-12100Y-01300D02*
X-08250Y-01300D01*
G54D37*
X-10670Y-02500D02*
X-10682Y-02610D01*
X-10682Y-02610D02*
X-10716Y-02715D01*
X-10716Y-02715D02*
X-10772Y-02811D01*
X-10772Y-02811D02*
X-10846Y-02893D01*
X-10846Y-02893D02*
X-10935Y-02958D01*
X-10935Y-02958D02*
X-11037Y-03004D01*
X-11037Y-03004D02*
X-11145Y-03027D01*
X-11145Y-03027D02*
X-11255Y-03027D01*
X-11255Y-03027D02*
X-11363Y-03004D01*
X-11363Y-03004D02*
X-11465Y-02958D01*
X-11465Y-02958D02*
X-11554Y-02893D01*
X-11554Y-02893D02*
X-11628Y-02811D01*
X-11628Y-02811D02*
X-11684Y-02715D01*
X-11684Y-02715D02*
X-11718Y-02610D01*
X-11718Y-02610D02*
X-11730Y-02500D01*
X-11730Y-02500D02*
X-11718Y-02390D01*
X-11718Y-02390D02*
X-11684Y-02285D01*
X-11684Y-02285D02*
X-11628Y-02189D01*
X-11628Y-02189D02*
X-11554Y-02107D01*
X-11554Y-02107D02*
X-11465Y-02042D01*
X-11465Y-02042D02*
X-11363Y-01996D01*
X-11363Y-01996D02*
X-11255Y-01973D01*
X-11255Y-01973D02*
X-11145Y-01973D01*
X-11145Y-01973D02*
X-11037Y-01996D01*
X-11037Y-01996D02*
X-10935Y-02042D01*
X-10935Y-02042D02*
X-10846Y-02107D01*
X-10846Y-02107D02*
X-10772Y-02189D01*
X-10772Y-02189D02*
X-10716Y-02285D01*
X-10716Y-02285D02*
X-10682Y-02390D01*
X-10682Y-02390D02*
X-10670Y-02500D01*
X-08670Y-02500D02*
X-08682Y-02610D01*
X-08682Y-02610D02*
X-08716Y-02715D01*
X-08716Y-02715D02*
X-08772Y-02811D01*
X-08772Y-02811D02*
X-08846Y-02893D01*
X-08846Y-02893D02*
X-08935Y-02958D01*
X-08935Y-02958D02*
X-09037Y-03004D01*
X-09037Y-03004D02*
X-09145Y-03027D01*
X-09145Y-03027D02*
X-09255Y-03027D01*
X-09255Y-03027D02*
X-09363Y-03004D01*
X-09363Y-03004D02*
X-09465Y-02958D01*
X-09465Y-02958D02*
X-09554Y-02893D01*
X-09554Y-02893D02*
X-09628Y-02811D01*
X-09628Y-02811D02*
X-09684Y-02715D01*
X-09684Y-02715D02*
X-09718Y-02610D01*
X-09718Y-02610D02*
X-09730Y-02500D01*
X-09730Y-02500D02*
X-09718Y-02390D01*
X-09718Y-02390D02*
X-09684Y-02285D01*
X-09684Y-02285D02*
X-09628Y-02189D01*
X-09628Y-02189D02*
X-09554Y-02107D01*
X-09554Y-02107D02*
X-09465Y-02042D01*
X-09465Y-02042D02*
X-09363Y-01996D01*
X-09363Y-01996D02*
X-09255Y-01973D01*
X-09255Y-01973D02*
X-09145Y-01973D01*
X-09145Y-01973D02*
X-09037Y-01996D01*
X-09037Y-01996D02*
X-08935Y-02042D01*
X-08935Y-02042D02*
X-08846Y-02107D01*
X-08846Y-02107D02*
X-08772Y-02189D01*
X-08772Y-02189D02*
X-08716Y-02285D01*
X-08716Y-02285D02*
X-08682Y-02390D01*
X-08682Y-02390D02*
X-08670Y-02500D01*
G54D29*
X-14230Y-00500D02*
X-14230Y-04500D01*
X-18170Y-00500D02*
X-18170Y-04500D01*
X-18170Y-00500D02*
X-14230Y-00500D01*
X-14230Y-04500D02*
X-18170Y-04500D01*
X-16680Y-01980D02*
X-17850Y-02850D01*
X-16550Y-02150D02*
X-17730Y-03020D01*
G54D34*
X-16700Y-02150D02*
X-17700Y-02850D01*
G54D35*
X-16600Y-02140D02*
X-16690Y-02040D01*
X-17720Y-02960D02*
X-17790Y-02870D01*
G54D29*
X-15720Y-01980D02*
X-14850Y-03150D01*
X-15550Y-01850D02*
X-14680Y-03030D01*
G54D34*
X-15550Y-02000D02*
X-14850Y-03000D01*
G54D35*
X-15560Y-01900D02*
X-15660Y-01991D01*
X-14740Y-03020D02*
X-14830Y-03090D01*
G54D36*
X-17850Y-00700D02*
X-14250Y-00700D01*
X-17900Y-00900D02*
X-14250Y-00900D01*
X-18000Y-01100D02*
X-14250Y-01100D01*
X-17850Y-04300D02*
X-14250Y-04300D01*
X-17900Y-04100D02*
X-14250Y-04100D01*
X-18000Y-03900D02*
X-14250Y-03900D01*
X-14250Y-03700D02*
X-18100Y-03700D01*
X-18100Y-01300D02*
X-14250Y-01300D01*
G54D37*
X-16670Y-02500D02*
X-16682Y-02610D01*
X-16682Y-02610D02*
X-16716Y-02715D01*
X-16716Y-02715D02*
X-16772Y-02811D01*
X-16772Y-02811D02*
X-16846Y-02893D01*
X-16846Y-02893D02*
X-16935Y-02958D01*
X-16935Y-02958D02*
X-17037Y-03004D01*
X-17037Y-03004D02*
X-17145Y-03027D01*
X-17145Y-03027D02*
X-17255Y-03027D01*
X-17255Y-03027D02*
X-17363Y-03004D01*
X-17363Y-03004D02*
X-17465Y-02958D01*
X-17465Y-02958D02*
X-17554Y-02893D01*
X-17554Y-02893D02*
X-17628Y-02811D01*
X-17628Y-02811D02*
X-17684Y-02715D01*
X-17684Y-02715D02*
X-17718Y-02610D01*
X-17718Y-02610D02*
X-17730Y-02500D01*
X-17730Y-02500D02*
X-17718Y-02390D01*
X-17718Y-02390D02*
X-17684Y-02285D01*
X-17684Y-02285D02*
X-17628Y-02189D01*
X-17628Y-02189D02*
X-17554Y-02107D01*
X-17554Y-02107D02*
X-17465Y-02042D01*
X-17465Y-02042D02*
X-17363Y-01996D01*
X-17363Y-01996D02*
X-17255Y-01973D01*
X-17255Y-01973D02*
X-17145Y-01973D01*
X-17145Y-01973D02*
X-17037Y-01996D01*
X-17037Y-01996D02*
X-16935Y-02042D01*
X-16935Y-02042D02*
X-16846Y-02107D01*
X-16846Y-02107D02*
X-16772Y-02189D01*
X-16772Y-02189D02*
X-16716Y-02285D01*
X-16716Y-02285D02*
X-16682Y-02390D01*
X-16682Y-02390D02*
X-16670Y-02500D01*
X-14670Y-02500D02*
X-14682Y-02610D01*
X-14682Y-02610D02*
X-14716Y-02715D01*
X-14716Y-02715D02*
X-14772Y-02811D01*
X-14772Y-02811D02*
X-14846Y-02893D01*
X-14846Y-02893D02*
X-14935Y-02958D01*
X-14935Y-02958D02*
X-15037Y-03004D01*
X-15037Y-03004D02*
X-15145Y-03027D01*
X-15145Y-03027D02*
X-15255Y-03027D01*
X-15255Y-03027D02*
X-15363Y-03004D01*
X-15363Y-03004D02*
X-15465Y-02958D01*
X-15465Y-02958D02*
X-15554Y-02893D01*
X-15554Y-02893D02*
X-15628Y-02811D01*
X-15628Y-02811D02*
X-15684Y-02715D01*
X-15684Y-02715D02*
X-15718Y-02610D01*
X-15718Y-02610D02*
X-15730Y-02500D01*
X-15730Y-02500D02*
X-15718Y-02390D01*
X-15718Y-02390D02*
X-15684Y-02285D01*
X-15684Y-02285D02*
X-15628Y-02189D01*
X-15628Y-02189D02*
X-15554Y-02107D01*
X-15554Y-02107D02*
X-15465Y-02042D01*
X-15465Y-02042D02*
X-15363Y-01996D01*
X-15363Y-01996D02*
X-15255Y-01973D01*
X-15255Y-01973D02*
X-15145Y-01973D01*
X-15145Y-01973D02*
X-15037Y-01996D01*
X-15037Y-01996D02*
X-14935Y-02042D01*
X-14935Y-02042D02*
X-14846Y-02107D01*
X-14846Y-02107D02*
X-14772Y-02189D01*
X-14772Y-02189D02*
X-14716Y-02285D01*
X-14716Y-02285D02*
X-14682Y-02390D01*
X-14682Y-02390D02*
X-14670Y-02500D01*
G54D29*
X-20230Y-00500D02*
X-20230Y-04500D01*
X-24170Y-00500D02*
X-24170Y-04500D01*
X-24170Y-00500D02*
X-20230Y-00500D01*
X-20230Y-04500D02*
X-24170Y-04500D01*
X-22680Y-01980D02*
X-23850Y-02850D01*
X-22550Y-02150D02*
X-23730Y-03020D01*
G54D34*
X-22700Y-02150D02*
X-23700Y-02850D01*
G54D35*
X-22600Y-02140D02*
X-22690Y-02040D01*
X-23720Y-02960D02*
X-23790Y-02870D01*
G54D29*
X-21720Y-01980D02*
X-20850Y-03150D01*
X-21550Y-01850D02*
X-20680Y-03030D01*
G54D34*
X-21550Y-02000D02*
X-20850Y-03000D01*
G54D35*
X-21560Y-01900D02*
X-21660Y-01991D01*
X-20740Y-03020D02*
X-20830Y-03090D01*
G54D36*
X-23850Y-00700D02*
X-20250Y-00700D01*
X-23900Y-00900D02*
X-20250Y-00900D01*
X-24000Y-01100D02*
X-20250Y-01100D01*
X-23850Y-04300D02*
X-20250Y-04300D01*
X-23900Y-04100D02*
X-20250Y-04100D01*
X-24000Y-03900D02*
X-20250Y-03900D01*
X-20250Y-03700D02*
X-24100Y-03700D01*
X-24100Y-01300D02*
X-20250Y-01300D01*
G54D37*
X-22670Y-02500D02*
X-22682Y-02610D01*
X-22682Y-02610D02*
X-22716Y-02715D01*
X-22716Y-02715D02*
X-22772Y-02811D01*
X-22772Y-02811D02*
X-22846Y-02893D01*
X-22846Y-02893D02*
X-22935Y-02958D01*
X-22935Y-02958D02*
X-23037Y-03004D01*
X-23037Y-03004D02*
X-23145Y-03027D01*
X-23145Y-03027D02*
X-23255Y-03027D01*
X-23255Y-03027D02*
X-23363Y-03004D01*
X-23363Y-03004D02*
X-23465Y-02958D01*
X-23465Y-02958D02*
X-23554Y-02893D01*
X-23554Y-02893D02*
X-23628Y-02811D01*
X-23628Y-02811D02*
X-23684Y-02715D01*
X-23684Y-02715D02*
X-23718Y-02610D01*
X-23718Y-02610D02*
X-23730Y-02500D01*
X-23730Y-02500D02*
X-23718Y-02390D01*
X-23718Y-02390D02*
X-23684Y-02285D01*
X-23684Y-02285D02*
X-23628Y-02189D01*
X-23628Y-02189D02*
X-23554Y-02107D01*
X-23554Y-02107D02*
X-23465Y-02042D01*
X-23465Y-02042D02*
X-23363Y-01996D01*
X-23363Y-01996D02*
X-23255Y-01973D01*
X-23255Y-01973D02*
X-23145Y-01973D01*
X-23145Y-01973D02*
X-23037Y-01996D01*
X-23037Y-01996D02*
X-22935Y-02042D01*
X-22935Y-02042D02*
X-22846Y-02107D01*
X-22846Y-02107D02*
X-22772Y-02189D01*
X-22772Y-02189D02*
X-22716Y-02285D01*
X-22716Y-02285D02*
X-22682Y-02390D01*
X-22682Y-02390D02*
X-22670Y-02500D01*
X-20670Y-02500D02*
X-20682Y-02610D01*
X-20682Y-02610D02*
X-20716Y-02715D01*
X-20716Y-02715D02*
X-20772Y-02811D01*
X-20772Y-02811D02*
X-20846Y-02893D01*
X-20846Y-02893D02*
X-20935Y-02958D01*
X-20935Y-02958D02*
X-21037Y-03004D01*
X-21037Y-03004D02*
X-21145Y-03027D01*
X-21145Y-03027D02*
X-21255Y-03027D01*
X-21255Y-03027D02*
X-21363Y-03004D01*
X-21363Y-03004D02*
X-21465Y-02958D01*
X-21465Y-02958D02*
X-21554Y-02893D01*
X-21554Y-02893D02*
X-21628Y-02811D01*
X-21628Y-02811D02*
X-21684Y-02715D01*
X-21684Y-02715D02*
X-21718Y-02610D01*
X-21718Y-02610D02*
X-21730Y-02500D01*
X-21730Y-02500D02*
X-21718Y-02390D01*
X-21718Y-02390D02*
X-21684Y-02285D01*
X-21684Y-02285D02*
X-21628Y-02189D01*
X-21628Y-02189D02*
X-21554Y-02107D01*
X-21554Y-02107D02*
X-21465Y-02042D01*
X-21465Y-02042D02*
X-21363Y-01996D01*
X-21363Y-01996D02*
X-21255Y-01973D01*
X-21255Y-01973D02*
X-21145Y-01973D01*
X-21145Y-01973D02*
X-21037Y-01996D01*
X-21037Y-01996D02*
X-20935Y-02042D01*
X-20935Y-02042D02*
X-20846Y-02107D01*
X-20846Y-02107D02*
X-20772Y-02189D01*
X-20772Y-02189D02*
X-20716Y-02285D01*
X-20716Y-02285D02*
X-20682Y-02390D01*
X-20682Y-02390D02*
X-20670Y-02500D01*
G54D29*
X-26230Y-00500D02*
X-26230Y-04500D01*
X-30170Y-00500D02*
X-30170Y-04500D01*
X-30170Y-00500D02*
X-26230Y-00500D01*
X-26230Y-04500D02*
X-30170Y-04500D01*
X-28680Y-01980D02*
X-29850Y-02850D01*
X-28550Y-02150D02*
X-29730Y-03020D01*
G54D34*
X-28700Y-02150D02*
X-29700Y-02850D01*
G54D35*
X-28600Y-02140D02*
X-28690Y-02040D01*
X-29720Y-02960D02*
X-29790Y-02870D01*
G54D29*
X-27720Y-01980D02*
X-26850Y-03150D01*
X-27550Y-01850D02*
X-26680Y-03030D01*
G54D34*
X-27550Y-02000D02*
X-26850Y-03000D01*
G54D35*
X-27560Y-01900D02*
X-27660Y-01991D01*
X-26740Y-03020D02*
X-26830Y-03090D01*
G54D36*
X-29850Y-00700D02*
X-26250Y-00700D01*
X-29900Y-00900D02*
X-26250Y-00900D01*
X-30000Y-01100D02*
X-26250Y-01100D01*
X-29850Y-04300D02*
X-26250Y-04300D01*
X-29900Y-04100D02*
X-26250Y-04100D01*
X-30000Y-03900D02*
X-26250Y-03900D01*
X-26250Y-03700D02*
X-30100Y-03700D01*
X-30100Y-01300D02*
X-26250Y-01300D01*
G54D37*
X-28670Y-02500D02*
X-28682Y-02610D01*
X-28682Y-02610D02*
X-28716Y-02715D01*
X-28716Y-02715D02*
X-28772Y-02811D01*
X-28772Y-02811D02*
X-28846Y-02893D01*
X-28846Y-02893D02*
X-28935Y-02958D01*
X-28935Y-02958D02*
X-29037Y-03004D01*
X-29037Y-03004D02*
X-29145Y-03027D01*
X-29145Y-03027D02*
X-29255Y-03027D01*
X-29255Y-03027D02*
X-29363Y-03004D01*
X-29363Y-03004D02*
X-29465Y-02958D01*
X-29465Y-02958D02*
X-29554Y-02893D01*
X-29554Y-02893D02*
X-29628Y-02811D01*
X-29628Y-02811D02*
X-29684Y-02715D01*
X-29684Y-02715D02*
X-29718Y-02610D01*
X-29718Y-02610D02*
X-29730Y-02500D01*
X-29730Y-02500D02*
X-29718Y-02390D01*
X-29718Y-02390D02*
X-29684Y-02285D01*
X-29684Y-02285D02*
X-29628Y-02189D01*
X-29628Y-02189D02*
X-29554Y-02107D01*
X-29554Y-02107D02*
X-29465Y-02042D01*
X-29465Y-02042D02*
X-29363Y-01996D01*
X-29363Y-01996D02*
X-29255Y-01973D01*
X-29255Y-01973D02*
X-29145Y-01973D01*
X-29145Y-01973D02*
X-29037Y-01996D01*
X-29037Y-01996D02*
X-28935Y-02042D01*
X-28935Y-02042D02*
X-28846Y-02107D01*
X-28846Y-02107D02*
X-28772Y-02189D01*
X-28772Y-02189D02*
X-28716Y-02285D01*
X-28716Y-02285D02*
X-28682Y-02390D01*
X-28682Y-02390D02*
X-28670Y-02500D01*
X-26670Y-02500D02*
X-26682Y-02610D01*
X-26682Y-02610D02*
X-26716Y-02715D01*
X-26716Y-02715D02*
X-26772Y-02811D01*
X-26772Y-02811D02*
X-26846Y-02893D01*
X-26846Y-02893D02*
X-26935Y-02958D01*
X-26935Y-02958D02*
X-27037Y-03004D01*
X-27037Y-03004D02*
X-27145Y-03027D01*
X-27145Y-03027D02*
X-27255Y-03027D01*
X-27255Y-03027D02*
X-27363Y-03004D01*
X-27363Y-03004D02*
X-27465Y-02958D01*
X-27465Y-02958D02*
X-27554Y-02893D01*
X-27554Y-02893D02*
X-27628Y-02811D01*
X-27628Y-02811D02*
X-27684Y-02715D01*
X-27684Y-02715D02*
X-27718Y-02610D01*
X-27718Y-02610D02*
X-27730Y-02500D01*
X-27730Y-02500D02*
X-27718Y-02390D01*
X-27718Y-02390D02*
X-27684Y-02285D01*
X-27684Y-02285D02*
X-27628Y-02189D01*
X-27628Y-02189D02*
X-27554Y-02107D01*
X-27554Y-02107D02*
X-27465Y-02042D01*
X-27465Y-02042D02*
X-27363Y-01996D01*
X-27363Y-01996D02*
X-27255Y-01973D01*
X-27255Y-01973D02*
X-27145Y-01973D01*
X-27145Y-01973D02*
X-27037Y-01996D01*
X-27037Y-01996D02*
X-26935Y-02042D01*
X-26935Y-02042D02*
X-26846Y-02107D01*
X-26846Y-02107D02*
X-26772Y-02189D01*
X-26772Y-02189D02*
X-26716Y-02285D01*
X-26716Y-02285D02*
X-26682Y-02390D01*
X-26682Y-02390D02*
X-26670Y-02500D01*
G54D29*
X-32230Y-00500D02*
X-32230Y-04500D01*
X-36170Y-00500D02*
X-36170Y-04500D01*
X-36170Y-00500D02*
X-32230Y-00500D01*
X-32230Y-04500D02*
X-36170Y-04500D01*
X-34680Y-01980D02*
X-35850Y-02850D01*
X-34550Y-02150D02*
X-35730Y-03020D01*
G54D34*
X-34700Y-02150D02*
X-35700Y-02850D01*
G54D35*
X-34600Y-02140D02*
X-34690Y-02040D01*
X-35720Y-02960D02*
X-35790Y-02870D01*
G54D29*
X-33720Y-01980D02*
X-32850Y-03150D01*
X-33550Y-01850D02*
X-32680Y-03030D01*
G54D34*
X-33550Y-02000D02*
X-32850Y-03000D01*
G54D35*
X-33560Y-01900D02*
X-33660Y-01991D01*
X-32740Y-03020D02*
X-32830Y-03090D01*
G54D36*
X-35850Y-00700D02*
X-32250Y-00700D01*
X-35900Y-00900D02*
X-32250Y-00900D01*
X-36000Y-01100D02*
X-32250Y-01100D01*
X-35850Y-04300D02*
X-32250Y-04300D01*
X-35900Y-04100D02*
X-32250Y-04100D01*
X-36000Y-03900D02*
X-32250Y-03900D01*
X-32250Y-03700D02*
X-36100Y-03700D01*
X-36100Y-01300D02*
X-32250Y-01300D01*
G54D37*
X-34670Y-02500D02*
X-34682Y-02610D01*
X-34682Y-02610D02*
X-34716Y-02715D01*
X-34716Y-02715D02*
X-34772Y-02811D01*
X-34772Y-02811D02*
X-34846Y-02893D01*
X-34846Y-02893D02*
X-34935Y-02958D01*
X-34935Y-02958D02*
X-35037Y-03004D01*
X-35037Y-03004D02*
X-35145Y-03027D01*
X-35145Y-03027D02*
X-35255Y-03027D01*
X-35255Y-03027D02*
X-35363Y-03004D01*
X-35363Y-03004D02*
X-35465Y-02958D01*
X-35465Y-02958D02*
X-35554Y-02893D01*
X-35554Y-02893D02*
X-35628Y-02811D01*
X-35628Y-02811D02*
X-35684Y-02715D01*
X-35684Y-02715D02*
X-35718Y-02610D01*
X-35718Y-02610D02*
X-35730Y-02500D01*
X-35730Y-02500D02*
X-35718Y-02390D01*
X-35718Y-02390D02*
X-35684Y-02285D01*
X-35684Y-02285D02*
X-35628Y-02189D01*
X-35628Y-02189D02*
X-35554Y-02107D01*
X-35554Y-02107D02*
X-35465Y-02042D01*
X-35465Y-02042D02*
X-35363Y-01996D01*
X-35363Y-01996D02*
X-35255Y-01973D01*
X-35255Y-01973D02*
X-35145Y-01973D01*
X-35145Y-01973D02*
X-35037Y-01996D01*
X-35037Y-01996D02*
X-34935Y-02042D01*
X-34935Y-02042D02*
X-34846Y-02107D01*
X-34846Y-02107D02*
X-34772Y-02189D01*
X-34772Y-02189D02*
X-34716Y-02285D01*
X-34716Y-02285D02*
X-34682Y-02390D01*
X-34682Y-02390D02*
X-34670Y-02500D01*
X-32670Y-02500D02*
X-32682Y-02610D01*
X-32682Y-02610D02*
X-32716Y-02715D01*
X-32716Y-02715D02*
X-32772Y-02811D01*
X-32772Y-02811D02*
X-32846Y-02893D01*
X-32846Y-02893D02*
X-32935Y-02958D01*
X-32935Y-02958D02*
X-33037Y-03004D01*
X-33037Y-03004D02*
X-33145Y-03027D01*
X-33145Y-03027D02*
X-33255Y-03027D01*
X-33255Y-03027D02*
X-33363Y-03004D01*
X-33363Y-03004D02*
X-33465Y-02958D01*
X-33465Y-02958D02*
X-33554Y-02893D01*
X-33554Y-02893D02*
X-33628Y-02811D01*
X-33628Y-02811D02*
X-33684Y-02715D01*
X-33684Y-02715D02*
X-33718Y-02610D01*
X-33718Y-02610D02*
X-33730Y-02500D01*
X-33730Y-02500D02*
X-33718Y-02390D01*
X-33718Y-02390D02*
X-33684Y-02285D01*
X-33684Y-02285D02*
X-33628Y-02189D01*
X-33628Y-02189D02*
X-33554Y-02107D01*
X-33554Y-02107D02*
X-33465Y-02042D01*
X-33465Y-02042D02*
X-33363Y-01996D01*
X-33363Y-01996D02*
X-33255Y-01973D01*
X-33255Y-01973D02*
X-33145Y-01973D01*
X-33145Y-01973D02*
X-33037Y-01996D01*
X-33037Y-01996D02*
X-32935Y-02042D01*
X-32935Y-02042D02*
X-32846Y-02107D01*
X-32846Y-02107D02*
X-32772Y-02189D01*
X-32772Y-02189D02*
X-32716Y-02285D01*
X-32716Y-02285D02*
X-32682Y-02390D01*
X-32682Y-02390D02*
X-32670Y-02500D01*
G54D29*
X-02230Y-00500D02*
X-02230Y-04500D01*
X-06170Y-00500D02*
X-06170Y-04500D01*
X-06170Y-00500D02*
X-02230Y-00500D01*
X-02230Y-04500D02*
X-06170Y-04500D01*
X-04680Y-01980D02*
X-05850Y-02850D01*
X-04550Y-02150D02*
X-05730Y-03020D01*
G54D34*
X-04700Y-02150D02*
X-05700Y-02850D01*
G54D35*
X-04600Y-02140D02*
X-04690Y-02040D01*
X-05720Y-02960D02*
X-05790Y-02870D01*
G54D29*
X-03720Y-01980D02*
X-02850Y-03150D01*
X-03550Y-01850D02*
X-02680Y-03030D01*
G54D34*
X-03550Y-02000D02*
X-02850Y-03000D01*
G54D35*
X-03560Y-01900D02*
X-03660Y-01991D01*
X-02740Y-03020D02*
X-02830Y-03090D01*
G54D36*
X-05850Y-00700D02*
X-02250Y-00700D01*
X-05900Y-00900D02*
X-02250Y-00900D01*
X-06000Y-01100D02*
X-02250Y-01100D01*
X-05850Y-04300D02*
X-02250Y-04300D01*
X-05900Y-04100D02*
X-02250Y-04100D01*
X-06000Y-03900D02*
X-02250Y-03900D01*
X-02250Y-03700D02*
X-06100Y-03700D01*
X-06100Y-01300D02*
X-02250Y-01300D01*
G54D37*
X-04670Y-02500D02*
X-04682Y-02610D01*
X-04682Y-02610D02*
X-04716Y-02715D01*
X-04716Y-02715D02*
X-04772Y-02811D01*
X-04772Y-02811D02*
X-04846Y-02893D01*
X-04846Y-02893D02*
X-04935Y-02958D01*
X-04935Y-02958D02*
X-05037Y-03004D01*
X-05037Y-03004D02*
X-05145Y-03027D01*
X-05145Y-03027D02*
X-05255Y-03027D01*
X-05255Y-03027D02*
X-05363Y-03004D01*
X-05363Y-03004D02*
X-05465Y-02958D01*
X-05465Y-02958D02*
X-05554Y-02893D01*
X-05554Y-02893D02*
X-05628Y-02811D01*
X-05628Y-02811D02*
X-05684Y-02715D01*
X-05684Y-02715D02*
X-05718Y-02610D01*
X-05718Y-02610D02*
X-05730Y-02500D01*
X-05730Y-02500D02*
X-05718Y-02390D01*
X-05718Y-02390D02*
X-05684Y-02285D01*
X-05684Y-02285D02*
X-05628Y-02189D01*
X-05628Y-02189D02*
X-05554Y-02107D01*
X-05554Y-02107D02*
X-05465Y-02042D01*
X-05465Y-02042D02*
X-05363Y-01996D01*
X-05363Y-01996D02*
X-05255Y-01973D01*
X-05255Y-01973D02*
X-05145Y-01973D01*
X-05145Y-01973D02*
X-05037Y-01996D01*
X-05037Y-01996D02*
X-04935Y-02042D01*
X-04935Y-02042D02*
X-04846Y-02107D01*
X-04846Y-02107D02*
X-04772Y-02189D01*
X-04772Y-02189D02*
X-04716Y-02285D01*
X-04716Y-02285D02*
X-04682Y-02390D01*
X-04682Y-02390D02*
X-04670Y-02500D01*
X-02670Y-02500D02*
X-02682Y-02610D01*
X-02682Y-02610D02*
X-02716Y-02715D01*
X-02716Y-02715D02*
X-02772Y-02811D01*
X-02772Y-02811D02*
X-02846Y-02893D01*
X-02846Y-02893D02*
X-02935Y-02958D01*
X-02935Y-02958D02*
X-03037Y-03004D01*
X-03037Y-03004D02*
X-03145Y-03027D01*
X-03145Y-03027D02*
X-03255Y-03027D01*
X-03255Y-03027D02*
X-03363Y-03004D01*
X-03363Y-03004D02*
X-03465Y-02958D01*
X-03465Y-02958D02*
X-03554Y-02893D01*
X-03554Y-02893D02*
X-03628Y-02811D01*
X-03628Y-02811D02*
X-03684Y-02715D01*
X-03684Y-02715D02*
X-03718Y-02610D01*
X-03718Y-02610D02*
X-03730Y-02500D01*
X-03730Y-02500D02*
X-03718Y-02390D01*
X-03718Y-02390D02*
X-03684Y-02285D01*
X-03684Y-02285D02*
X-03628Y-02189D01*
X-03628Y-02189D02*
X-03554Y-02107D01*
X-03554Y-02107D02*
X-03465Y-02042D01*
X-03465Y-02042D02*
X-03363Y-01996D01*
X-03363Y-01996D02*
X-03255Y-01973D01*
X-03255Y-01973D02*
X-03145Y-01973D01*
X-03145Y-01973D02*
X-03037Y-01996D01*
X-03037Y-01996D02*
X-02935Y-02042D01*
X-02935Y-02042D02*
X-02846Y-02107D01*
X-02846Y-02107D02*
X-02772Y-02189D01*
X-02772Y-02189D02*
X-02716Y-02285D01*
X-02716Y-02285D02*
X-02682Y-02390D01*
X-02682Y-02390D02*
X-02670Y-02500D01*
G54D10*
X-19153Y-01050D02*
X-19277Y-01263D01*
X-19277Y-01263D02*
X-19523Y-01263D01*
X-19523Y-01263D02*
X-19647Y-01050D01*
X-19647Y-01050D02*
X-19523Y-00837D01*
X-19523Y-00837D02*
X-19277Y-00837D01*
X-19277Y-00837D02*
X-19153Y-01050D01*
G54D38*
X-01327Y-07250D02*
X-01336Y-07332D01*
X-01336Y-07332D02*
X-01362Y-07411D01*
X-01362Y-07411D02*
X-01404Y-07483D01*
X-01404Y-07483D02*
X-01459Y-07545D01*
X-01459Y-07545D02*
X-01526Y-07594D01*
X-01526Y-07594D02*
X-01603Y-07628D01*
X-01603Y-07628D02*
X-01684Y-07645D01*
X-01684Y-07645D02*
X-01766Y-07645D01*
X-01766Y-07645D02*
X-01847Y-07628D01*
X-01847Y-07628D02*
X-01924Y-07594D01*
X-01924Y-07594D02*
X-01991Y-07545D01*
X-01991Y-07545D02*
X-02046Y-07483D01*
X-02046Y-07483D02*
X-02088Y-07411D01*
X-02088Y-07411D02*
X-02114Y-07332D01*
X-02114Y-07332D02*
X-02123Y-07250D01*
X-02123Y-07250D02*
X-02114Y-07168D01*
X-02114Y-07168D02*
X-02088Y-07089D01*
X-02088Y-07089D02*
X-02046Y-07017D01*
X-02046Y-07017D02*
X-01991Y-06955D01*
X-01991Y-06955D02*
X-01924Y-06906D01*
X-01924Y-06906D02*
X-01847Y-06872D01*
X-01847Y-06872D02*
X-01766Y-06855D01*
X-01766Y-06855D02*
X-01684Y-06855D01*
X-01684Y-06855D02*
X-01603Y-06872D01*
X-01603Y-06872D02*
X-01526Y-06906D01*
X-01526Y-06906D02*
X-01459Y-06955D01*
X-01459Y-06955D02*
X-01404Y-07017D01*
X-01404Y-07017D02*
X-01362Y-07089D01*
X-01362Y-07089D02*
X-01336Y-07168D01*
X-01336Y-07168D02*
X-01327Y-07250D01*
X-04277Y-07225D02*
X-04286Y-07307D01*
X-04286Y-07307D02*
X-04312Y-07386D01*
X-04312Y-07386D02*
X-04354Y-07458D01*
X-04354Y-07458D02*
X-04409Y-07520D01*
X-04409Y-07520D02*
X-04476Y-07569D01*
X-04476Y-07569D02*
X-04553Y-07603D01*
X-04553Y-07603D02*
X-04634Y-07620D01*
X-04634Y-07620D02*
X-04716Y-07620D01*
X-04716Y-07620D02*
X-04797Y-07603D01*
X-04797Y-07603D02*
X-04874Y-07569D01*
X-04874Y-07569D02*
X-04941Y-07520D01*
X-04941Y-07520D02*
X-04996Y-07458D01*
X-04996Y-07458D02*
X-05038Y-07386D01*
X-05038Y-07386D02*
X-05064Y-07307D01*
X-05064Y-07307D02*
X-05073Y-07225D01*
X-05073Y-07225D02*
X-05064Y-07143D01*
X-05064Y-07143D02*
X-05038Y-07064D01*
X-05038Y-07064D02*
X-04996Y-06992D01*
X-04996Y-06992D02*
X-04941Y-06930D01*
X-04941Y-06930D02*
X-04874Y-06881D01*
X-04874Y-06881D02*
X-04797Y-06847D01*
X-04797Y-06847D02*
X-04716Y-06830D01*
X-04716Y-06830D02*
X-04634Y-06830D01*
X-04634Y-06830D02*
X-04553Y-06847D01*
X-04553Y-06847D02*
X-04476Y-06881D01*
X-04476Y-06881D02*
X-04409Y-06930D01*
X-04409Y-06930D02*
X-04354Y-06992D01*
X-04354Y-06992D02*
X-04312Y-07064D01*
X-04312Y-07064D02*
X-04286Y-07143D01*
X-04286Y-07143D02*
X-04277Y-07225D01*
X-00802Y-04750D02*
X-00811Y-04832D01*
X-00811Y-04832D02*
X-00837Y-04911D01*
X-00837Y-04911D02*
X-00879Y-04983D01*
X-00879Y-04983D02*
X-00934Y-05045D01*
X-00934Y-05045D02*
X-01001Y-05094D01*
X-01001Y-05094D02*
X-01078Y-05128D01*
X-01078Y-05128D02*
X-01159Y-05145D01*
X-01159Y-05145D02*
X-01241Y-05145D01*
X-01241Y-05145D02*
X-01322Y-05128D01*
X-01322Y-05128D02*
X-01399Y-05094D01*
X-01399Y-05094D02*
X-01466Y-05045D01*
X-01466Y-05045D02*
X-01521Y-04983D01*
X-01521Y-04983D02*
X-01563Y-04911D01*
X-01563Y-04911D02*
X-01589Y-04832D01*
X-01589Y-04832D02*
X-01598Y-04750D01*
X-01598Y-04750D02*
X-01589Y-04668D01*
X-01589Y-04668D02*
X-01563Y-04589D01*
X-01563Y-04589D02*
X-01521Y-04517D01*
X-01521Y-04517D02*
X-01466Y-04455D01*
X-01466Y-04455D02*
X-01399Y-04406D01*
X-01399Y-04406D02*
X-01322Y-04372D01*
X-01322Y-04372D02*
X-01241Y-04355D01*
X-01241Y-04355D02*
X-01159Y-04355D01*
X-01159Y-04355D02*
X-01078Y-04372D01*
X-01078Y-04372D02*
X-01001Y-04406D01*
X-01001Y-04406D02*
X-00934Y-04455D01*
X-00934Y-04455D02*
X-00879Y-04517D01*
X-00879Y-04517D02*
X-00837Y-04589D01*
X-00837Y-04589D02*
X-00811Y-04668D01*
X-00811Y-04668D02*
X-00802Y-04750D01*
X-02802Y-05250D02*
X-02811Y-05332D01*
X-02811Y-05332D02*
X-02837Y-05411D01*
X-02837Y-05411D02*
X-02879Y-05483D01*
X-02879Y-05483D02*
X-02934Y-05545D01*
X-02934Y-05545D02*
X-03001Y-05594D01*
X-03001Y-05594D02*
X-03078Y-05628D01*
X-03078Y-05628D02*
X-03159Y-05645D01*
X-03159Y-05645D02*
X-03241Y-05645D01*
X-03241Y-05645D02*
X-03322Y-05628D01*
X-03322Y-05628D02*
X-03399Y-05594D01*
X-03399Y-05594D02*
X-03466Y-05545D01*
X-03466Y-05545D02*
X-03521Y-05483D01*
X-03521Y-05483D02*
X-03563Y-05411D01*
X-03563Y-05411D02*
X-03589Y-05332D01*
X-03589Y-05332D02*
X-03598Y-05250D01*
X-03598Y-05250D02*
X-03589Y-05168D01*
X-03589Y-05168D02*
X-03563Y-05089D01*
X-03563Y-05089D02*
X-03521Y-05017D01*
X-03521Y-05017D02*
X-03466Y-04955D01*
X-03466Y-04955D02*
X-03399Y-04906D01*
X-03399Y-04906D02*
X-03322Y-04872D01*
X-03322Y-04872D02*
X-03241Y-04855D01*
X-03241Y-04855D02*
X-03159Y-04855D01*
X-03159Y-04855D02*
X-03078Y-04872D01*
X-03078Y-04872D02*
X-03001Y-04906D01*
X-03001Y-04906D02*
X-02934Y-04955D01*
X-02934Y-04955D02*
X-02879Y-05017D01*
X-02879Y-05017D02*
X-02837Y-05089D01*
X-02837Y-05089D02*
X-02811Y-05168D01*
X-02811Y-05168D02*
X-02802Y-05250D01*
X-04802Y-04750D02*
X-04811Y-04832D01*
X-04811Y-04832D02*
X-04837Y-04911D01*
X-04837Y-04911D02*
X-04879Y-04983D01*
X-04879Y-04983D02*
X-04934Y-05045D01*
X-04934Y-05045D02*
X-05001Y-05094D01*
X-05001Y-05094D02*
X-05078Y-05128D01*
X-05078Y-05128D02*
X-05159Y-05145D01*
X-05159Y-05145D02*
X-05241Y-05145D01*
X-05241Y-05145D02*
X-05322Y-05128D01*
X-05322Y-05128D02*
X-05399Y-05094D01*
X-05399Y-05094D02*
X-05466Y-05045D01*
X-05466Y-05045D02*
X-05521Y-04983D01*
X-05521Y-04983D02*
X-05563Y-04911D01*
X-05563Y-04911D02*
X-05589Y-04832D01*
X-05589Y-04832D02*
X-05598Y-04750D01*
X-05598Y-04750D02*
X-05589Y-04668D01*
X-05589Y-04668D02*
X-05563Y-04589D01*
X-05563Y-04589D02*
X-05521Y-04517D01*
X-05521Y-04517D02*
X-05466Y-04455D01*
X-05466Y-04455D02*
X-05399Y-04406D01*
X-05399Y-04406D02*
X-05322Y-04372D01*
X-05322Y-04372D02*
X-05241Y-04355D01*
X-05241Y-04355D02*
X-05159Y-04355D01*
X-05159Y-04355D02*
X-05078Y-04372D01*
X-05078Y-04372D02*
X-05001Y-04406D01*
X-05001Y-04406D02*
X-04934Y-04455D01*
X-04934Y-04455D02*
X-04879Y-04517D01*
X-04879Y-04517D02*
X-04837Y-04589D01*
X-04837Y-04589D02*
X-04811Y-04668D01*
X-04811Y-04668D02*
X-04802Y-04750D01*
X-07327Y-07250D02*
X-07336Y-07332D01*
X-07336Y-07332D02*
X-07362Y-07411D01*
X-07362Y-07411D02*
X-07404Y-07483D01*
X-07404Y-07483D02*
X-07459Y-07545D01*
X-07459Y-07545D02*
X-07526Y-07594D01*
X-07526Y-07594D02*
X-07603Y-07628D01*
X-07603Y-07628D02*
X-07684Y-07645D01*
X-07684Y-07645D02*
X-07766Y-07645D01*
X-07766Y-07645D02*
X-07847Y-07628D01*
X-07847Y-07628D02*
X-07924Y-07594D01*
X-07924Y-07594D02*
X-07991Y-07545D01*
X-07991Y-07545D02*
X-08046Y-07483D01*
X-08046Y-07483D02*
X-08088Y-07411D01*
X-08088Y-07411D02*
X-08114Y-07332D01*
X-08114Y-07332D02*
X-08123Y-07250D01*
X-08123Y-07250D02*
X-08114Y-07168D01*
X-08114Y-07168D02*
X-08088Y-07089D01*
X-08088Y-07089D02*
X-08046Y-07017D01*
X-08046Y-07017D02*
X-07991Y-06955D01*
X-07991Y-06955D02*
X-07924Y-06906D01*
X-07924Y-06906D02*
X-07847Y-06872D01*
X-07847Y-06872D02*
X-07766Y-06855D01*
X-07766Y-06855D02*
X-07684Y-06855D01*
X-07684Y-06855D02*
X-07603Y-06872D01*
X-07603Y-06872D02*
X-07526Y-06906D01*
X-07526Y-06906D02*
X-07459Y-06955D01*
X-07459Y-06955D02*
X-07404Y-07017D01*
X-07404Y-07017D02*
X-07362Y-07089D01*
X-07362Y-07089D02*
X-07336Y-07168D01*
X-07336Y-07168D02*
X-07327Y-07250D01*
X-10277Y-07225D02*
X-10286Y-07307D01*
X-10286Y-07307D02*
X-10312Y-07386D01*
X-10312Y-07386D02*
X-10354Y-07458D01*
X-10354Y-07458D02*
X-10409Y-07520D01*
X-10409Y-07520D02*
X-10476Y-07569D01*
X-10476Y-07569D02*
X-10553Y-07603D01*
X-10553Y-07603D02*
X-10634Y-07620D01*
X-10634Y-07620D02*
X-10716Y-07620D01*
X-10716Y-07620D02*
X-10797Y-07603D01*
X-10797Y-07603D02*
X-10874Y-07569D01*
X-10874Y-07569D02*
X-10941Y-07520D01*
X-10941Y-07520D02*
X-10996Y-07458D01*
X-10996Y-07458D02*
X-11038Y-07386D01*
X-11038Y-07386D02*
X-11064Y-07307D01*
X-11064Y-07307D02*
X-11073Y-07225D01*
X-11073Y-07225D02*
X-11064Y-07143D01*
X-11064Y-07143D02*
X-11038Y-07064D01*
X-11038Y-07064D02*
X-10996Y-06992D01*
X-10996Y-06992D02*
X-10941Y-06930D01*
X-10941Y-06930D02*
X-10874Y-06881D01*
X-10874Y-06881D02*
X-10797Y-06847D01*
X-10797Y-06847D02*
X-10716Y-06830D01*
X-10716Y-06830D02*
X-10634Y-06830D01*
X-10634Y-06830D02*
X-10553Y-06847D01*
X-10553Y-06847D02*
X-10476Y-06881D01*
X-10476Y-06881D02*
X-10409Y-06930D01*
X-10409Y-06930D02*
X-10354Y-06992D01*
X-10354Y-06992D02*
X-10312Y-07064D01*
X-10312Y-07064D02*
X-10286Y-07143D01*
X-10286Y-07143D02*
X-10277Y-07225D01*
X-06802Y-04750D02*
X-06811Y-04832D01*
X-06811Y-04832D02*
X-06837Y-04911D01*
X-06837Y-04911D02*
X-06879Y-04983D01*
X-06879Y-04983D02*
X-06934Y-05045D01*
X-06934Y-05045D02*
X-07001Y-05094D01*
X-07001Y-05094D02*
X-07078Y-05128D01*
X-07078Y-05128D02*
X-07159Y-05145D01*
X-07159Y-05145D02*
X-07241Y-05145D01*
X-07241Y-05145D02*
X-07322Y-05128D01*
X-07322Y-05128D02*
X-07399Y-05094D01*
X-07399Y-05094D02*
X-07466Y-05045D01*
X-07466Y-05045D02*
X-07521Y-04983D01*
X-07521Y-04983D02*
X-07563Y-04911D01*
X-07563Y-04911D02*
X-07589Y-04832D01*
X-07589Y-04832D02*
X-07598Y-04750D01*
X-07598Y-04750D02*
X-07589Y-04668D01*
X-07589Y-04668D02*
X-07563Y-04589D01*
X-07563Y-04589D02*
X-07521Y-04517D01*
X-07521Y-04517D02*
X-07466Y-04455D01*
X-07466Y-04455D02*
X-07399Y-04406D01*
X-07399Y-04406D02*
X-07322Y-04372D01*
X-07322Y-04372D02*
X-07241Y-04355D01*
X-07241Y-04355D02*
X-07159Y-04355D01*
X-07159Y-04355D02*
X-07078Y-04372D01*
X-07078Y-04372D02*
X-07001Y-04406D01*
X-07001Y-04406D02*
X-06934Y-04455D01*
X-06934Y-04455D02*
X-06879Y-04517D01*
X-06879Y-04517D02*
X-06837Y-04589D01*
X-06837Y-04589D02*
X-06811Y-04668D01*
X-06811Y-04668D02*
X-06802Y-04750D01*
X-08802Y-05250D02*
X-08811Y-05332D01*
X-08811Y-05332D02*
X-08837Y-05411D01*
X-08837Y-05411D02*
X-08879Y-05483D01*
X-08879Y-05483D02*
X-08934Y-05545D01*
X-08934Y-05545D02*
X-09001Y-05594D01*
X-09001Y-05594D02*
X-09078Y-05628D01*
X-09078Y-05628D02*
X-09159Y-05645D01*
X-09159Y-05645D02*
X-09241Y-05645D01*
X-09241Y-05645D02*
X-09322Y-05628D01*
X-09322Y-05628D02*
X-09399Y-05594D01*
X-09399Y-05594D02*
X-09466Y-05545D01*
X-09466Y-05545D02*
X-09521Y-05483D01*
X-09521Y-05483D02*
X-09563Y-05411D01*
X-09563Y-05411D02*
X-09589Y-05332D01*
X-09589Y-05332D02*
X-09598Y-05250D01*
X-09598Y-05250D02*
X-09589Y-05168D01*
X-09589Y-05168D02*
X-09563Y-05089D01*
X-09563Y-05089D02*
X-09521Y-05017D01*
X-09521Y-05017D02*
X-09466Y-04955D01*
X-09466Y-04955D02*
X-09399Y-04906D01*
X-09399Y-04906D02*
X-09322Y-04872D01*
X-09322Y-04872D02*
X-09241Y-04855D01*
X-09241Y-04855D02*
X-09159Y-04855D01*
X-09159Y-04855D02*
X-09078Y-04872D01*
X-09078Y-04872D02*
X-09001Y-04906D01*
X-09001Y-04906D02*
X-08934Y-04955D01*
X-08934Y-04955D02*
X-08879Y-05017D01*
X-08879Y-05017D02*
X-08837Y-05089D01*
X-08837Y-05089D02*
X-08811Y-05168D01*
X-08811Y-05168D02*
X-08802Y-05250D01*
X-10802Y-04750D02*
X-10811Y-04832D01*
X-10811Y-04832D02*
X-10837Y-04911D01*
X-10837Y-04911D02*
X-10879Y-04983D01*
X-10879Y-04983D02*
X-10934Y-05045D01*
X-10934Y-05045D02*
X-11001Y-05094D01*
X-11001Y-05094D02*
X-11078Y-05128D01*
X-11078Y-05128D02*
X-11159Y-05145D01*
X-11159Y-05145D02*
X-11241Y-05145D01*
X-11241Y-05145D02*
X-11322Y-05128D01*
X-11322Y-05128D02*
X-11399Y-05094D01*
X-11399Y-05094D02*
X-11466Y-05045D01*
X-11466Y-05045D02*
X-11521Y-04983D01*
X-11521Y-04983D02*
X-11563Y-04911D01*
X-11563Y-04911D02*
X-11589Y-04832D01*
X-11589Y-04832D02*
X-11598Y-04750D01*
X-11598Y-04750D02*
X-11589Y-04668D01*
X-11589Y-04668D02*
X-11563Y-04589D01*
X-11563Y-04589D02*
X-11521Y-04517D01*
X-11521Y-04517D02*
X-11466Y-04455D01*
X-11466Y-04455D02*
X-11399Y-04406D01*
X-11399Y-04406D02*
X-11322Y-04372D01*
X-11322Y-04372D02*
X-11241Y-04355D01*
X-11241Y-04355D02*
X-11159Y-04355D01*
X-11159Y-04355D02*
X-11078Y-04372D01*
X-11078Y-04372D02*
X-11001Y-04406D01*
X-11001Y-04406D02*
X-10934Y-04455D01*
X-10934Y-04455D02*
X-10879Y-04517D01*
X-10879Y-04517D02*
X-10837Y-04589D01*
X-10837Y-04589D02*
X-10811Y-04668D01*
X-10811Y-04668D02*
X-10802Y-04750D01*
X-13327Y-07250D02*
X-13336Y-07332D01*
X-13336Y-07332D02*
X-13362Y-07411D01*
X-13362Y-07411D02*
X-13404Y-07483D01*
X-13404Y-07483D02*
X-13459Y-07545D01*
X-13459Y-07545D02*
X-13526Y-07594D01*
X-13526Y-07594D02*
X-13603Y-07628D01*
X-13603Y-07628D02*
X-13684Y-07645D01*
X-13684Y-07645D02*
X-13766Y-07645D01*
X-13766Y-07645D02*
X-13847Y-07628D01*
X-13847Y-07628D02*
X-13924Y-07594D01*
X-13924Y-07594D02*
X-13991Y-07545D01*
X-13991Y-07545D02*
X-14046Y-07483D01*
X-14046Y-07483D02*
X-14088Y-07411D01*
X-14088Y-07411D02*
X-14114Y-07332D01*
X-14114Y-07332D02*
X-14123Y-07250D01*
X-14123Y-07250D02*
X-14114Y-07168D01*
X-14114Y-07168D02*
X-14088Y-07089D01*
X-14088Y-07089D02*
X-14046Y-07017D01*
X-14046Y-07017D02*
X-13991Y-06955D01*
X-13991Y-06955D02*
X-13924Y-06906D01*
X-13924Y-06906D02*
X-13847Y-06872D01*
X-13847Y-06872D02*
X-13766Y-06855D01*
X-13766Y-06855D02*
X-13684Y-06855D01*
X-13684Y-06855D02*
X-13603Y-06872D01*
X-13603Y-06872D02*
X-13526Y-06906D01*
X-13526Y-06906D02*
X-13459Y-06955D01*
X-13459Y-06955D02*
X-13404Y-07017D01*
X-13404Y-07017D02*
X-13362Y-07089D01*
X-13362Y-07089D02*
X-13336Y-07168D01*
X-13336Y-07168D02*
X-13327Y-07250D01*
X-16277Y-07225D02*
X-16286Y-07307D01*
X-16286Y-07307D02*
X-16312Y-07386D01*
X-16312Y-07386D02*
X-16354Y-07458D01*
X-16354Y-07458D02*
X-16409Y-07520D01*
X-16409Y-07520D02*
X-16476Y-07569D01*
X-16476Y-07569D02*
X-16553Y-07603D01*
X-16553Y-07603D02*
X-16634Y-07620D01*
X-16634Y-07620D02*
X-16716Y-07620D01*
X-16716Y-07620D02*
X-16797Y-07603D01*
X-16797Y-07603D02*
X-16874Y-07569D01*
X-16874Y-07569D02*
X-16941Y-07520D01*
X-16941Y-07520D02*
X-16996Y-07458D01*
X-16996Y-07458D02*
X-17038Y-07386D01*
X-17038Y-07386D02*
X-17064Y-07307D01*
X-17064Y-07307D02*
X-17073Y-07225D01*
X-17073Y-07225D02*
X-17064Y-07143D01*
X-17064Y-07143D02*
X-17038Y-07064D01*
X-17038Y-07064D02*
X-16996Y-06992D01*
X-16996Y-06992D02*
X-16941Y-06930D01*
X-16941Y-06930D02*
X-16874Y-06881D01*
X-16874Y-06881D02*
X-16797Y-06847D01*
X-16797Y-06847D02*
X-16716Y-06830D01*
X-16716Y-06830D02*
X-16634Y-06830D01*
X-16634Y-06830D02*
X-16553Y-06847D01*
X-16553Y-06847D02*
X-16476Y-06881D01*
X-16476Y-06881D02*
X-16409Y-06930D01*
X-16409Y-06930D02*
X-16354Y-06992D01*
X-16354Y-06992D02*
X-16312Y-07064D01*
X-16312Y-07064D02*
X-16286Y-07143D01*
X-16286Y-07143D02*
X-16277Y-07225D01*
X-12802Y-04750D02*
X-12811Y-04832D01*
X-12811Y-04832D02*
X-12837Y-04911D01*
X-12837Y-04911D02*
X-12879Y-04983D01*
X-12879Y-04983D02*
X-12934Y-05045D01*
X-12934Y-05045D02*
X-13001Y-05094D01*
X-13001Y-05094D02*
X-13078Y-05128D01*
X-13078Y-05128D02*
X-13159Y-05145D01*
X-13159Y-05145D02*
X-13241Y-05145D01*
X-13241Y-05145D02*
X-13322Y-05128D01*
X-13322Y-05128D02*
X-13399Y-05094D01*
X-13399Y-05094D02*
X-13466Y-05045D01*
X-13466Y-05045D02*
X-13521Y-04983D01*
X-13521Y-04983D02*
X-13563Y-04911D01*
X-13563Y-04911D02*
X-13589Y-04832D01*
X-13589Y-04832D02*
X-13598Y-04750D01*
X-13598Y-04750D02*
X-13589Y-04668D01*
X-13589Y-04668D02*
X-13563Y-04589D01*
X-13563Y-04589D02*
X-13521Y-04517D01*
X-13521Y-04517D02*
X-13466Y-04455D01*
X-13466Y-04455D02*
X-13399Y-04406D01*
X-13399Y-04406D02*
X-13322Y-04372D01*
X-13322Y-04372D02*
X-13241Y-04355D01*
X-13241Y-04355D02*
X-13159Y-04355D01*
X-13159Y-04355D02*
X-13078Y-04372D01*
X-13078Y-04372D02*
X-13001Y-04406D01*
X-13001Y-04406D02*
X-12934Y-04455D01*
X-12934Y-04455D02*
X-12879Y-04517D01*
X-12879Y-04517D02*
X-12837Y-04589D01*
X-12837Y-04589D02*
X-12811Y-04668D01*
X-12811Y-04668D02*
X-12802Y-04750D01*
X-14802Y-05250D02*
X-14811Y-05332D01*
X-14811Y-05332D02*
X-14837Y-05411D01*
X-14837Y-05411D02*
X-14879Y-05483D01*
X-14879Y-05483D02*
X-14934Y-05545D01*
X-14934Y-05545D02*
X-15001Y-05594D01*
X-15001Y-05594D02*
X-15078Y-05628D01*
X-15078Y-05628D02*
X-15159Y-05645D01*
X-15159Y-05645D02*
X-15241Y-05645D01*
X-15241Y-05645D02*
X-15322Y-05628D01*
X-15322Y-05628D02*
X-15399Y-05594D01*
X-15399Y-05594D02*
X-15466Y-05545D01*
X-15466Y-05545D02*
X-15521Y-05483D01*
X-15521Y-05483D02*
X-15563Y-05411D01*
X-15563Y-05411D02*
X-15589Y-05332D01*
X-15589Y-05332D02*
X-15598Y-05250D01*
X-15598Y-05250D02*
X-15589Y-05168D01*
X-15589Y-05168D02*
X-15563Y-05089D01*
X-15563Y-05089D02*
X-15521Y-05017D01*
X-15521Y-05017D02*
X-15466Y-04955D01*
X-15466Y-04955D02*
X-15399Y-04906D01*
X-15399Y-04906D02*
X-15322Y-04872D01*
X-15322Y-04872D02*
X-15241Y-04855D01*
X-15241Y-04855D02*
X-15159Y-04855D01*
X-15159Y-04855D02*
X-15078Y-04872D01*
X-15078Y-04872D02*
X-15001Y-04906D01*
X-15001Y-04906D02*
X-14934Y-04955D01*
X-14934Y-04955D02*
X-14879Y-05017D01*
X-14879Y-05017D02*
X-14837Y-05089D01*
X-14837Y-05089D02*
X-14811Y-05168D01*
X-14811Y-05168D02*
X-14802Y-05250D01*
X-16802Y-04750D02*
X-16811Y-04832D01*
X-16811Y-04832D02*
X-16837Y-04911D01*
X-16837Y-04911D02*
X-16879Y-04983D01*
X-16879Y-04983D02*
X-16934Y-05045D01*
X-16934Y-05045D02*
X-17001Y-05094D01*
X-17001Y-05094D02*
X-17078Y-05128D01*
X-17078Y-05128D02*
X-17159Y-05145D01*
X-17159Y-05145D02*
X-17241Y-05145D01*
X-17241Y-05145D02*
X-17322Y-05128D01*
X-17322Y-05128D02*
X-17399Y-05094D01*
X-17399Y-05094D02*
X-17466Y-05045D01*
X-17466Y-05045D02*
X-17521Y-04983D01*
X-17521Y-04983D02*
X-17563Y-04911D01*
X-17563Y-04911D02*
X-17589Y-04832D01*
X-17589Y-04832D02*
X-17598Y-04750D01*
X-17598Y-04750D02*
X-17589Y-04668D01*
X-17589Y-04668D02*
X-17563Y-04589D01*
X-17563Y-04589D02*
X-17521Y-04517D01*
X-17521Y-04517D02*
X-17466Y-04455D01*
X-17466Y-04455D02*
X-17399Y-04406D01*
X-17399Y-04406D02*
X-17322Y-04372D01*
X-17322Y-04372D02*
X-17241Y-04355D01*
X-17241Y-04355D02*
X-17159Y-04355D01*
X-17159Y-04355D02*
X-17078Y-04372D01*
X-17078Y-04372D02*
X-17001Y-04406D01*
X-17001Y-04406D02*
X-16934Y-04455D01*
X-16934Y-04455D02*
X-16879Y-04517D01*
X-16879Y-04517D02*
X-16837Y-04589D01*
X-16837Y-04589D02*
X-16811Y-04668D01*
X-16811Y-04668D02*
X-16802Y-04750D01*
X-19327Y-07250D02*
X-19336Y-07332D01*
X-19336Y-07332D02*
X-19362Y-07411D01*
X-19362Y-07411D02*
X-19404Y-07483D01*
X-19404Y-07483D02*
X-19459Y-07545D01*
X-19459Y-07545D02*
X-19526Y-07594D01*
X-19526Y-07594D02*
X-19603Y-07628D01*
X-19603Y-07628D02*
X-19684Y-07645D01*
X-19684Y-07645D02*
X-19766Y-07645D01*
X-19766Y-07645D02*
X-19847Y-07628D01*
X-19847Y-07628D02*
X-19924Y-07594D01*
X-19924Y-07594D02*
X-19991Y-07545D01*
X-19991Y-07545D02*
X-20046Y-07483D01*
X-20046Y-07483D02*
X-20088Y-07411D01*
X-20088Y-07411D02*
X-20114Y-07332D01*
X-20114Y-07332D02*
X-20123Y-07250D01*
X-20123Y-07250D02*
X-20114Y-07168D01*
X-20114Y-07168D02*
X-20088Y-07089D01*
X-20088Y-07089D02*
X-20046Y-07017D01*
X-20046Y-07017D02*
X-19991Y-06955D01*
X-19991Y-06955D02*
X-19924Y-06906D01*
X-19924Y-06906D02*
X-19847Y-06872D01*
X-19847Y-06872D02*
X-19766Y-06855D01*
X-19766Y-06855D02*
X-19684Y-06855D01*
X-19684Y-06855D02*
X-19603Y-06872D01*
X-19603Y-06872D02*
X-19526Y-06906D01*
X-19526Y-06906D02*
X-19459Y-06955D01*
X-19459Y-06955D02*
X-19404Y-07017D01*
X-19404Y-07017D02*
X-19362Y-07089D01*
X-19362Y-07089D02*
X-19336Y-07168D01*
X-19336Y-07168D02*
X-19327Y-07250D01*
X-22277Y-07225D02*
X-22286Y-07307D01*
X-22286Y-07307D02*
X-22312Y-07386D01*
X-22312Y-07386D02*
X-22354Y-07458D01*
X-22354Y-07458D02*
X-22409Y-07520D01*
X-22409Y-07520D02*
X-22476Y-07569D01*
X-22476Y-07569D02*
X-22553Y-07603D01*
X-22553Y-07603D02*
X-22634Y-07620D01*
X-22634Y-07620D02*
X-22716Y-07620D01*
X-22716Y-07620D02*
X-22797Y-07603D01*
X-22797Y-07603D02*
X-22874Y-07569D01*
X-22874Y-07569D02*
X-22941Y-07520D01*
X-22941Y-07520D02*
X-22996Y-07458D01*
X-22996Y-07458D02*
X-23038Y-07386D01*
X-23038Y-07386D02*
X-23064Y-07307D01*
X-23064Y-07307D02*
X-23073Y-07225D01*
X-23073Y-07225D02*
X-23064Y-07143D01*
X-23064Y-07143D02*
X-23038Y-07064D01*
X-23038Y-07064D02*
X-22996Y-06992D01*
X-22996Y-06992D02*
X-22941Y-06930D01*
X-22941Y-06930D02*
X-22874Y-06881D01*
X-22874Y-06881D02*
X-22797Y-06847D01*
X-22797Y-06847D02*
X-22716Y-06830D01*
X-22716Y-06830D02*
X-22634Y-06830D01*
X-22634Y-06830D02*
X-22553Y-06847D01*
X-22553Y-06847D02*
X-22476Y-06881D01*
X-22476Y-06881D02*
X-22409Y-06930D01*
X-22409Y-06930D02*
X-22354Y-06992D01*
X-22354Y-06992D02*
X-22312Y-07064D01*
X-22312Y-07064D02*
X-22286Y-07143D01*
X-22286Y-07143D02*
X-22277Y-07225D01*
X-18802Y-04750D02*
X-18811Y-04832D01*
X-18811Y-04832D02*
X-18837Y-04911D01*
X-18837Y-04911D02*
X-18879Y-04983D01*
X-18879Y-04983D02*
X-18934Y-05045D01*
X-18934Y-05045D02*
X-19001Y-05094D01*
X-19001Y-05094D02*
X-19078Y-05128D01*
X-19078Y-05128D02*
X-19159Y-05145D01*
X-19159Y-05145D02*
X-19241Y-05145D01*
X-19241Y-05145D02*
X-19322Y-05128D01*
X-19322Y-05128D02*
X-19399Y-05094D01*
X-19399Y-05094D02*
X-19466Y-05045D01*
X-19466Y-05045D02*
X-19521Y-04983D01*
X-19521Y-04983D02*
X-19563Y-04911D01*
X-19563Y-04911D02*
X-19589Y-04832D01*
X-19589Y-04832D02*
X-19598Y-04750D01*
X-19598Y-04750D02*
X-19589Y-04668D01*
X-19589Y-04668D02*
X-19563Y-04589D01*
X-19563Y-04589D02*
X-19521Y-04517D01*
X-19521Y-04517D02*
X-19466Y-04455D01*
X-19466Y-04455D02*
X-19399Y-04406D01*
X-19399Y-04406D02*
X-19322Y-04372D01*
X-19322Y-04372D02*
X-19241Y-04355D01*
X-19241Y-04355D02*
X-19159Y-04355D01*
X-19159Y-04355D02*
X-19078Y-04372D01*
X-19078Y-04372D02*
X-19001Y-04406D01*
X-19001Y-04406D02*
X-18934Y-04455D01*
X-18934Y-04455D02*
X-18879Y-04517D01*
X-18879Y-04517D02*
X-18837Y-04589D01*
X-18837Y-04589D02*
X-18811Y-04668D01*
X-18811Y-04668D02*
X-18802Y-04750D01*
X-20802Y-05250D02*
X-20811Y-05332D01*
X-20811Y-05332D02*
X-20837Y-05411D01*
X-20837Y-05411D02*
X-20879Y-05483D01*
X-20879Y-05483D02*
X-20934Y-05545D01*
X-20934Y-05545D02*
X-21001Y-05594D01*
X-21001Y-05594D02*
X-21078Y-05628D01*
X-21078Y-05628D02*
X-21159Y-05645D01*
X-21159Y-05645D02*
X-21241Y-05645D01*
X-21241Y-05645D02*
X-21322Y-05628D01*
X-21322Y-05628D02*
X-21399Y-05594D01*
X-21399Y-05594D02*
X-21466Y-05545D01*
X-21466Y-05545D02*
X-21521Y-05483D01*
X-21521Y-05483D02*
X-21563Y-05411D01*
X-21563Y-05411D02*
X-21589Y-05332D01*
X-21589Y-05332D02*
X-21598Y-05250D01*
X-21598Y-05250D02*
X-21589Y-05168D01*
X-21589Y-05168D02*
X-21563Y-05089D01*
X-21563Y-05089D02*
X-21521Y-05017D01*
X-21521Y-05017D02*
X-21466Y-04955D01*
X-21466Y-04955D02*
X-21399Y-04906D01*
X-21399Y-04906D02*
X-21322Y-04872D01*
X-21322Y-04872D02*
X-21241Y-04855D01*
X-21241Y-04855D02*
X-21159Y-04855D01*
X-21159Y-04855D02*
X-21078Y-04872D01*
X-21078Y-04872D02*
X-21001Y-04906D01*
X-21001Y-04906D02*
X-20934Y-04955D01*
X-20934Y-04955D02*
X-20879Y-05017D01*
X-20879Y-05017D02*
X-20837Y-05089D01*
X-20837Y-05089D02*
X-20811Y-05168D01*
X-20811Y-05168D02*
X-20802Y-05250D01*
X-22802Y-04750D02*
X-22811Y-04832D01*
X-22811Y-04832D02*
X-22837Y-04911D01*
X-22837Y-04911D02*
X-22879Y-04983D01*
X-22879Y-04983D02*
X-22934Y-05045D01*
X-22934Y-05045D02*
X-23001Y-05094D01*
X-23001Y-05094D02*
X-23078Y-05128D01*
X-23078Y-05128D02*
X-23159Y-05145D01*
X-23159Y-05145D02*
X-23241Y-05145D01*
X-23241Y-05145D02*
X-23322Y-05128D01*
X-23322Y-05128D02*
X-23399Y-05094D01*
X-23399Y-05094D02*
X-23466Y-05045D01*
X-23466Y-05045D02*
X-23521Y-04983D01*
X-23521Y-04983D02*
X-23563Y-04911D01*
X-23563Y-04911D02*
X-23589Y-04832D01*
X-23589Y-04832D02*
X-23598Y-04750D01*
X-23598Y-04750D02*
X-23589Y-04668D01*
X-23589Y-04668D02*
X-23563Y-04589D01*
X-23563Y-04589D02*
X-23521Y-04517D01*
X-23521Y-04517D02*
X-23466Y-04455D01*
X-23466Y-04455D02*
X-23399Y-04406D01*
X-23399Y-04406D02*
X-23322Y-04372D01*
X-23322Y-04372D02*
X-23241Y-04355D01*
X-23241Y-04355D02*
X-23159Y-04355D01*
X-23159Y-04355D02*
X-23078Y-04372D01*
X-23078Y-04372D02*
X-23001Y-04406D01*
X-23001Y-04406D02*
X-22934Y-04455D01*
X-22934Y-04455D02*
X-22879Y-04517D01*
X-22879Y-04517D02*
X-22837Y-04589D01*
X-22837Y-04589D02*
X-22811Y-04668D01*
X-22811Y-04668D02*
X-22802Y-04750D01*
X-25327Y-07250D02*
X-25336Y-07332D01*
X-25336Y-07332D02*
X-25362Y-07411D01*
X-25362Y-07411D02*
X-25404Y-07483D01*
X-25404Y-07483D02*
X-25459Y-07545D01*
X-25459Y-07545D02*
X-25526Y-07594D01*
X-25526Y-07594D02*
X-25603Y-07628D01*
X-25603Y-07628D02*
X-25684Y-07645D01*
X-25684Y-07645D02*
X-25766Y-07645D01*
X-25766Y-07645D02*
X-25847Y-07628D01*
X-25847Y-07628D02*
X-25924Y-07594D01*
X-25924Y-07594D02*
X-25991Y-07545D01*
X-25991Y-07545D02*
X-26046Y-07483D01*
X-26046Y-07483D02*
X-26088Y-07411D01*
X-26088Y-07411D02*
X-26114Y-07332D01*
X-26114Y-07332D02*
X-26123Y-07250D01*
X-26123Y-07250D02*
X-26114Y-07168D01*
X-26114Y-07168D02*
X-26088Y-07089D01*
X-26088Y-07089D02*
X-26046Y-07017D01*
X-26046Y-07017D02*
X-25991Y-06955D01*
X-25991Y-06955D02*
X-25924Y-06906D01*
X-25924Y-06906D02*
X-25847Y-06872D01*
X-25847Y-06872D02*
X-25766Y-06855D01*
X-25766Y-06855D02*
X-25684Y-06855D01*
X-25684Y-06855D02*
X-25603Y-06872D01*
X-25603Y-06872D02*
X-25526Y-06906D01*
X-25526Y-06906D02*
X-25459Y-06955D01*
X-25459Y-06955D02*
X-25404Y-07017D01*
X-25404Y-07017D02*
X-25362Y-07089D01*
X-25362Y-07089D02*
X-25336Y-07168D01*
X-25336Y-07168D02*
X-25327Y-07250D01*
X-28277Y-07225D02*
X-28286Y-07307D01*
X-28286Y-07307D02*
X-28312Y-07386D01*
X-28312Y-07386D02*
X-28354Y-07458D01*
X-28354Y-07458D02*
X-28409Y-07520D01*
X-28409Y-07520D02*
X-28476Y-07569D01*
X-28476Y-07569D02*
X-28553Y-07603D01*
X-28553Y-07603D02*
X-28634Y-07620D01*
X-28634Y-07620D02*
X-28716Y-07620D01*
X-28716Y-07620D02*
X-28797Y-07603D01*
X-28797Y-07603D02*
X-28874Y-07569D01*
X-28874Y-07569D02*
X-28941Y-07520D01*
X-28941Y-07520D02*
X-28996Y-07458D01*
X-28996Y-07458D02*
X-29038Y-07386D01*
X-29038Y-07386D02*
X-29064Y-07307D01*
X-29064Y-07307D02*
X-29073Y-07225D01*
X-29073Y-07225D02*
X-29064Y-07143D01*
X-29064Y-07143D02*
X-29038Y-07064D01*
X-29038Y-07064D02*
X-28996Y-06992D01*
X-28996Y-06992D02*
X-28941Y-06930D01*
X-28941Y-06930D02*
X-28874Y-06881D01*
X-28874Y-06881D02*
X-28797Y-06847D01*
X-28797Y-06847D02*
X-28716Y-06830D01*
X-28716Y-06830D02*
X-28634Y-06830D01*
X-28634Y-06830D02*
X-28553Y-06847D01*
X-28553Y-06847D02*
X-28476Y-06881D01*
X-28476Y-06881D02*
X-28409Y-06930D01*
X-28409Y-06930D02*
X-28354Y-06992D01*
X-28354Y-06992D02*
X-28312Y-07064D01*
X-28312Y-07064D02*
X-28286Y-07143D01*
X-28286Y-07143D02*
X-28277Y-07225D01*
X-24802Y-04750D02*
X-24811Y-04832D01*
X-24811Y-04832D02*
X-24837Y-04911D01*
X-24837Y-04911D02*
X-24879Y-04983D01*
X-24879Y-04983D02*
X-24934Y-05045D01*
X-24934Y-05045D02*
X-25001Y-05094D01*
X-25001Y-05094D02*
X-25078Y-05128D01*
X-25078Y-05128D02*
X-25159Y-05145D01*
X-25159Y-05145D02*
X-25241Y-05145D01*
X-25241Y-05145D02*
X-25322Y-05128D01*
X-25322Y-05128D02*
X-25399Y-05094D01*
X-25399Y-05094D02*
X-25466Y-05045D01*
X-25466Y-05045D02*
X-25521Y-04983D01*
X-25521Y-04983D02*
X-25563Y-04911D01*
X-25563Y-04911D02*
X-25589Y-04832D01*
X-25589Y-04832D02*
X-25598Y-04750D01*
X-25598Y-04750D02*
X-25589Y-04668D01*
X-25589Y-04668D02*
X-25563Y-04589D01*
X-25563Y-04589D02*
X-25521Y-04517D01*
X-25521Y-04517D02*
X-25466Y-04455D01*
X-25466Y-04455D02*
X-25399Y-04406D01*
X-25399Y-04406D02*
X-25322Y-04372D01*
X-25322Y-04372D02*
X-25241Y-04355D01*
X-25241Y-04355D02*
X-25159Y-04355D01*
X-25159Y-04355D02*
X-25078Y-04372D01*
X-25078Y-04372D02*
X-25001Y-04406D01*
X-25001Y-04406D02*
X-24934Y-04455D01*
X-24934Y-04455D02*
X-24879Y-04517D01*
X-24879Y-04517D02*
X-24837Y-04589D01*
X-24837Y-04589D02*
X-24811Y-04668D01*
X-24811Y-04668D02*
X-24802Y-04750D01*
X-26802Y-05250D02*
X-26811Y-05332D01*
X-26811Y-05332D02*
X-26837Y-05411D01*
X-26837Y-05411D02*
X-26879Y-05483D01*
X-26879Y-05483D02*
X-26934Y-05545D01*
X-26934Y-05545D02*
X-27001Y-05594D01*
X-27001Y-05594D02*
X-27078Y-05628D01*
X-27078Y-05628D02*
X-27159Y-05645D01*
X-27159Y-05645D02*
X-27241Y-05645D01*
X-27241Y-05645D02*
X-27322Y-05628D01*
X-27322Y-05628D02*
X-27399Y-05594D01*
X-27399Y-05594D02*
X-27466Y-05545D01*
X-27466Y-05545D02*
X-27521Y-05483D01*
X-27521Y-05483D02*
X-27563Y-05411D01*
X-27563Y-05411D02*
X-27589Y-05332D01*
X-27589Y-05332D02*
X-27598Y-05250D01*
X-27598Y-05250D02*
X-27589Y-05168D01*
X-27589Y-05168D02*
X-27563Y-05089D01*
X-27563Y-05089D02*
X-27521Y-05017D01*
X-27521Y-05017D02*
X-27466Y-04955D01*
X-27466Y-04955D02*
X-27399Y-04906D01*
X-27399Y-04906D02*
X-27322Y-04872D01*
X-27322Y-04872D02*
X-27241Y-04855D01*
X-27241Y-04855D02*
X-27159Y-04855D01*
X-27159Y-04855D02*
X-27078Y-04872D01*
X-27078Y-04872D02*
X-27001Y-04906D01*
X-27001Y-04906D02*
X-26934Y-04955D01*
X-26934Y-04955D02*
X-26879Y-05017D01*
X-26879Y-05017D02*
X-26837Y-05089D01*
X-26837Y-05089D02*
X-26811Y-05168D01*
X-26811Y-05168D02*
X-26802Y-05250D01*
X-28802Y-04750D02*
X-28811Y-04832D01*
X-28811Y-04832D02*
X-28837Y-04911D01*
X-28837Y-04911D02*
X-28879Y-04983D01*
X-28879Y-04983D02*
X-28934Y-05045D01*
X-28934Y-05045D02*
X-29001Y-05094D01*
X-29001Y-05094D02*
X-29078Y-05128D01*
X-29078Y-05128D02*
X-29159Y-05145D01*
X-29159Y-05145D02*
X-29241Y-05145D01*
X-29241Y-05145D02*
X-29322Y-05128D01*
X-29322Y-05128D02*
X-29399Y-05094D01*
X-29399Y-05094D02*
X-29466Y-05045D01*
X-29466Y-05045D02*
X-29521Y-04983D01*
X-29521Y-04983D02*
X-29563Y-04911D01*
X-29563Y-04911D02*
X-29589Y-04832D01*
X-29589Y-04832D02*
X-29598Y-04750D01*
X-29598Y-04750D02*
X-29589Y-04668D01*
X-29589Y-04668D02*
X-29563Y-04589D01*
X-29563Y-04589D02*
X-29521Y-04517D01*
X-29521Y-04517D02*
X-29466Y-04455D01*
X-29466Y-04455D02*
X-29399Y-04406D01*
X-29399Y-04406D02*
X-29322Y-04372D01*
X-29322Y-04372D02*
X-29241Y-04355D01*
X-29241Y-04355D02*
X-29159Y-04355D01*
X-29159Y-04355D02*
X-29078Y-04372D01*
X-29078Y-04372D02*
X-29001Y-04406D01*
X-29001Y-04406D02*
X-28934Y-04455D01*
X-28934Y-04455D02*
X-28879Y-04517D01*
X-28879Y-04517D02*
X-28837Y-04589D01*
X-28837Y-04589D02*
X-28811Y-04668D01*
X-28811Y-04668D02*
X-28802Y-04750D01*
X-31327Y-07250D02*
X-31336Y-07332D01*
X-31336Y-07332D02*
X-31362Y-07411D01*
X-31362Y-07411D02*
X-31404Y-07483D01*
X-31404Y-07483D02*
X-31459Y-07545D01*
X-31459Y-07545D02*
X-31526Y-07594D01*
X-31526Y-07594D02*
X-31603Y-07628D01*
X-31603Y-07628D02*
X-31684Y-07645D01*
X-31684Y-07645D02*
X-31766Y-07645D01*
X-31766Y-07645D02*
X-31847Y-07628D01*
X-31847Y-07628D02*
X-31924Y-07594D01*
X-31924Y-07594D02*
X-31991Y-07545D01*
X-31991Y-07545D02*
X-32046Y-07483D01*
X-32046Y-07483D02*
X-32088Y-07411D01*
X-32088Y-07411D02*
X-32114Y-07332D01*
X-32114Y-07332D02*
X-32123Y-07250D01*
X-32123Y-07250D02*
X-32114Y-07168D01*
X-32114Y-07168D02*
X-32088Y-07089D01*
X-32088Y-07089D02*
X-32046Y-07017D01*
X-32046Y-07017D02*
X-31991Y-06955D01*
X-31991Y-06955D02*
X-31924Y-06906D01*
X-31924Y-06906D02*
X-31847Y-06872D01*
X-31847Y-06872D02*
X-31766Y-06855D01*
X-31766Y-06855D02*
X-31684Y-06855D01*
X-31684Y-06855D02*
X-31603Y-06872D01*
X-31603Y-06872D02*
X-31526Y-06906D01*
X-31526Y-06906D02*
X-31459Y-06955D01*
X-31459Y-06955D02*
X-31404Y-07017D01*
X-31404Y-07017D02*
X-31362Y-07089D01*
X-31362Y-07089D02*
X-31336Y-07168D01*
X-31336Y-07168D02*
X-31327Y-07250D01*
X-34277Y-07225D02*
X-34286Y-07307D01*
X-34286Y-07307D02*
X-34312Y-07386D01*
X-34312Y-07386D02*
X-34354Y-07458D01*
X-34354Y-07458D02*
X-34409Y-07520D01*
X-34409Y-07520D02*
X-34476Y-07569D01*
X-34476Y-07569D02*
X-34553Y-07603D01*
X-34553Y-07603D02*
X-34634Y-07620D01*
X-34634Y-07620D02*
X-34716Y-07620D01*
X-34716Y-07620D02*
X-34797Y-07603D01*
X-34797Y-07603D02*
X-34874Y-07569D01*
X-34874Y-07569D02*
X-34941Y-07520D01*
X-34941Y-07520D02*
X-34996Y-07458D01*
X-34996Y-07458D02*
X-35038Y-07386D01*
X-35038Y-07386D02*
X-35064Y-07307D01*
X-35064Y-07307D02*
X-35073Y-07225D01*
X-35073Y-07225D02*
X-35064Y-07143D01*
X-35064Y-07143D02*
X-35038Y-07064D01*
X-35038Y-07064D02*
X-34996Y-06992D01*
X-34996Y-06992D02*
X-34941Y-06930D01*
X-34941Y-06930D02*
X-34874Y-06881D01*
X-34874Y-06881D02*
X-34797Y-06847D01*
X-34797Y-06847D02*
X-34716Y-06830D01*
X-34716Y-06830D02*
X-34634Y-06830D01*
X-34634Y-06830D02*
X-34553Y-06847D01*
X-34553Y-06847D02*
X-34476Y-06881D01*
X-34476Y-06881D02*
X-34409Y-06930D01*
X-34409Y-06930D02*
X-34354Y-06992D01*
X-34354Y-06992D02*
X-34312Y-07064D01*
X-34312Y-07064D02*
X-34286Y-07143D01*
X-34286Y-07143D02*
X-34277Y-07225D01*
X-30802Y-04750D02*
X-30811Y-04832D01*
X-30811Y-04832D02*
X-30837Y-04911D01*
X-30837Y-04911D02*
X-30879Y-04983D01*
X-30879Y-04983D02*
X-30934Y-05045D01*
X-30934Y-05045D02*
X-31001Y-05094D01*
X-31001Y-05094D02*
X-31078Y-05128D01*
X-31078Y-05128D02*
X-31159Y-05145D01*
X-31159Y-05145D02*
X-31241Y-05145D01*
X-31241Y-05145D02*
X-31322Y-05128D01*
X-31322Y-05128D02*
X-31399Y-05094D01*
X-31399Y-05094D02*
X-31466Y-05045D01*
X-31466Y-05045D02*
X-31521Y-04983D01*
X-31521Y-04983D02*
X-31563Y-04911D01*
X-31563Y-04911D02*
X-31589Y-04832D01*
X-31589Y-04832D02*
X-31598Y-04750D01*
X-31598Y-04750D02*
X-31589Y-04668D01*
X-31589Y-04668D02*
X-31563Y-04589D01*
X-31563Y-04589D02*
X-31521Y-04517D01*
X-31521Y-04517D02*
X-31466Y-04455D01*
X-31466Y-04455D02*
X-31399Y-04406D01*
X-31399Y-04406D02*
X-31322Y-04372D01*
X-31322Y-04372D02*
X-31241Y-04355D01*
X-31241Y-04355D02*
X-31159Y-04355D01*
X-31159Y-04355D02*
X-31078Y-04372D01*
X-31078Y-04372D02*
X-31001Y-04406D01*
X-31001Y-04406D02*
X-30934Y-04455D01*
X-30934Y-04455D02*
X-30879Y-04517D01*
X-30879Y-04517D02*
X-30837Y-04589D01*
X-30837Y-04589D02*
X-30811Y-04668D01*
X-30811Y-04668D02*
X-30802Y-04750D01*
X-32802Y-05250D02*
X-32811Y-05332D01*
X-32811Y-05332D02*
X-32837Y-05411D01*
X-32837Y-05411D02*
X-32879Y-05483D01*
X-32879Y-05483D02*
X-32934Y-05545D01*
X-32934Y-05545D02*
X-33001Y-05594D01*
X-33001Y-05594D02*
X-33078Y-05628D01*
X-33078Y-05628D02*
X-33159Y-05645D01*
X-33159Y-05645D02*
X-33241Y-05645D01*
X-33241Y-05645D02*
X-33322Y-05628D01*
X-33322Y-05628D02*
X-33399Y-05594D01*
X-33399Y-05594D02*
X-33466Y-05545D01*
X-33466Y-05545D02*
X-33521Y-05483D01*
X-33521Y-05483D02*
X-33563Y-05411D01*
X-33563Y-05411D02*
X-33589Y-05332D01*
X-33589Y-05332D02*
X-33598Y-05250D01*
X-33598Y-05250D02*
X-33589Y-05168D01*
X-33589Y-05168D02*
X-33563Y-05089D01*
X-33563Y-05089D02*
X-33521Y-05017D01*
X-33521Y-05017D02*
X-33466Y-04955D01*
X-33466Y-04955D02*
X-33399Y-04906D01*
X-33399Y-04906D02*
X-33322Y-04872D01*
X-33322Y-04872D02*
X-33241Y-04855D01*
X-33241Y-04855D02*
X-33159Y-04855D01*
X-33159Y-04855D02*
X-33078Y-04872D01*
X-33078Y-04872D02*
X-33001Y-04906D01*
X-33001Y-04906D02*
X-32934Y-04955D01*
X-32934Y-04955D02*
X-32879Y-05017D01*
X-32879Y-05017D02*
X-32837Y-05089D01*
X-32837Y-05089D02*
X-32811Y-05168D01*
X-32811Y-05168D02*
X-32802Y-05250D01*
X-34802Y-04750D02*
X-34811Y-04832D01*
X-34811Y-04832D02*
X-34837Y-04911D01*
X-34837Y-04911D02*
X-34879Y-04983D01*
X-34879Y-04983D02*
X-34934Y-05045D01*
X-34934Y-05045D02*
X-35001Y-05094D01*
X-35001Y-05094D02*
X-35078Y-05128D01*
X-35078Y-05128D02*
X-35159Y-05145D01*
X-35159Y-05145D02*
X-35241Y-05145D01*
X-35241Y-05145D02*
X-35322Y-05128D01*
X-35322Y-05128D02*
X-35399Y-05094D01*
X-35399Y-05094D02*
X-35466Y-05045D01*
X-35466Y-05045D02*
X-35521Y-04983D01*
X-35521Y-04983D02*
X-35563Y-04911D01*
X-35563Y-04911D02*
X-35589Y-04832D01*
X-35589Y-04832D02*
X-35598Y-04750D01*
X-35598Y-04750D02*
X-35589Y-04668D01*
X-35589Y-04668D02*
X-35563Y-04589D01*
X-35563Y-04589D02*
X-35521Y-04517D01*
X-35521Y-04517D02*
X-35466Y-04455D01*
X-35466Y-04455D02*
X-35399Y-04406D01*
X-35399Y-04406D02*
X-35322Y-04372D01*
X-35322Y-04372D02*
X-35241Y-04355D01*
X-35241Y-04355D02*
X-35159Y-04355D01*
X-35159Y-04355D02*
X-35078Y-04372D01*
X-35078Y-04372D02*
X-35001Y-04406D01*
X-35001Y-04406D02*
X-34934Y-04455D01*
X-34934Y-04455D02*
X-34879Y-04517D01*
X-34879Y-04517D02*
X-34837Y-04589D01*
X-34837Y-04589D02*
X-34811Y-04668D01*
X-34811Y-04668D02*
X-34802Y-04750D01*
X-17060Y-16250D02*
X-17060Y-15350D01*
X-17060Y-15350D02*
X-16440Y-15350D01*
X-16440Y-15350D02*
X-16440Y-16250D01*
X-16440Y-16250D02*
X-17060Y-16250D01*
X-16060Y-16250D02*
X-16060Y-15350D01*
X-16060Y-15350D02*
X-15440Y-15350D01*
X-15440Y-15350D02*
X-15440Y-16250D01*
X-15440Y-16250D02*
X-16060Y-16250D01*
X-15060Y-16250D02*
X-15060Y-15350D01*
X-15060Y-15350D02*
X-14440Y-15350D01*
X-14440Y-15350D02*
X-14440Y-16250D01*
X-14440Y-16250D02*
X-15060Y-16250D01*
X-14060Y-16250D02*
X-14060Y-15350D01*
X-14060Y-15350D02*
X-13440Y-15350D01*
X-13440Y-15350D02*
X-13440Y-16250D01*
X-13440Y-16250D02*
X-14060Y-16250D01*
X-13060Y-16250D02*
X-13060Y-15350D01*
X-13060Y-15350D02*
X-12440Y-15350D01*
X-12440Y-15350D02*
X-12440Y-16250D01*
X-12440Y-16250D02*
X-13060Y-16250D01*
X-12060Y-16250D02*
X-12060Y-15350D01*
X-12060Y-15350D02*
X-11440Y-15350D01*
X-11440Y-15350D02*
X-11440Y-16250D01*
X-11440Y-16250D02*
X-12060Y-16250D01*
X-11060Y-16250D02*
X-11060Y-15350D01*
X-11060Y-15350D02*
X-10440Y-15350D01*
X-10440Y-15350D02*
X-10440Y-16250D01*
X-10440Y-16250D02*
X-11060Y-16250D01*
X-10060Y-16250D02*
X-10060Y-15350D01*
X-10060Y-15350D02*
X-09440Y-15350D01*
X-09440Y-15350D02*
X-09440Y-16250D01*
X-09440Y-16250D02*
X-10060Y-16250D01*
X-10060Y-13250D02*
X-10060Y-12350D01*
X-10060Y-12350D02*
X-09440Y-12350D01*
X-09440Y-12350D02*
X-09440Y-13250D01*
X-09440Y-13250D02*
X-10060Y-13250D01*
X-11060Y-13250D02*
X-11060Y-12350D01*
X-11060Y-12350D02*
X-10440Y-12350D01*
X-10440Y-12350D02*
X-10440Y-13250D01*
X-10440Y-13250D02*
X-11060Y-13250D01*
X-12060Y-13250D02*
X-12060Y-12350D01*
X-12060Y-12350D02*
X-11440Y-12350D01*
X-11440Y-12350D02*
X-11440Y-13250D01*
X-11440Y-13250D02*
X-12060Y-13250D01*
X-13060Y-13250D02*
X-13060Y-12350D01*
X-13060Y-12350D02*
X-12440Y-12350D01*
X-12440Y-12350D02*
X-12440Y-13250D01*
X-12440Y-13250D02*
X-13060Y-13250D01*
X-14060Y-13250D02*
X-14060Y-12350D01*
X-14060Y-12350D02*
X-13440Y-12350D01*
X-13440Y-12350D02*
X-13440Y-13250D01*
X-13440Y-13250D02*
X-14060Y-13250D01*
X-15060Y-13250D02*
X-15060Y-12350D01*
X-15060Y-12350D02*
X-14440Y-12350D01*
X-14440Y-12350D02*
X-14440Y-13250D01*
X-14440Y-13250D02*
X-15060Y-13250D01*
X-16060Y-13250D02*
X-16060Y-12350D01*
X-16060Y-12350D02*
X-15440Y-12350D01*
X-15440Y-12350D02*
X-15440Y-13250D01*
X-15440Y-13250D02*
X-16060Y-13250D01*
X-17060Y-13250D02*
X-17060Y-12350D01*
X-17060Y-12350D02*
X-16440Y-12350D01*
X-16440Y-12350D02*
X-16440Y-13250D01*
X-16440Y-13250D02*
X-17060Y-13250D01*
X-19060Y-20450D02*
X-19060Y-19550D01*
X-19060Y-19550D02*
X-18440Y-19550D01*
X-18440Y-19550D02*
X-18440Y-20450D01*
X-18440Y-20450D02*
X-19060Y-20450D01*
X-18060Y-20450D02*
X-18060Y-19550D01*
X-18060Y-19550D02*
X-17440Y-19550D01*
X-17440Y-19550D02*
X-17440Y-20450D01*
X-17440Y-20450D02*
X-18060Y-20450D01*
X-17060Y-20450D02*
X-17060Y-19550D01*
X-17060Y-19550D02*
X-16440Y-19550D01*
X-16440Y-19550D02*
X-16440Y-20450D01*
X-16440Y-20450D02*
X-17060Y-20450D01*
X-16060Y-20450D02*
X-16060Y-19550D01*
X-16060Y-19550D02*
X-15440Y-19550D01*
X-15440Y-19550D02*
X-15440Y-20450D01*
X-15440Y-20450D02*
X-16060Y-20450D01*
X-15060Y-20450D02*
X-15060Y-19550D01*
X-15060Y-19550D02*
X-14440Y-19550D01*
X-14440Y-19550D02*
X-14440Y-20450D01*
X-14440Y-20450D02*
X-15060Y-20450D01*
X-14060Y-20450D02*
X-14060Y-19550D01*
X-14060Y-19550D02*
X-13440Y-19550D01*
X-13440Y-19550D02*
X-13440Y-20450D01*
X-13440Y-20450D02*
X-14060Y-20450D01*
X-13060Y-20450D02*
X-13060Y-19550D01*
X-13060Y-19550D02*
X-12440Y-19550D01*
X-12440Y-19550D02*
X-12440Y-20450D01*
X-12440Y-20450D02*
X-13060Y-20450D01*
X-12060Y-20450D02*
X-12060Y-19550D01*
X-12060Y-19550D02*
X-11440Y-19550D01*
X-11440Y-19550D02*
X-11440Y-20450D01*
X-11440Y-20450D02*
X-12060Y-20450D01*
X-11060Y-20450D02*
X-11060Y-19550D01*
X-11060Y-19550D02*
X-10440Y-19550D01*
X-10440Y-19550D02*
X-10440Y-20450D01*
X-10440Y-20450D02*
X-11060Y-20450D01*
X-11060Y-17450D02*
X-11060Y-16550D01*
X-11060Y-16550D02*
X-10440Y-16550D01*
X-10440Y-16550D02*
X-10440Y-17450D01*
X-10440Y-17450D02*
X-11060Y-17450D01*
X-12060Y-17450D02*
X-12060Y-16550D01*
X-12060Y-16550D02*
X-11440Y-16550D01*
X-11440Y-16550D02*
X-11440Y-17450D01*
X-11440Y-17450D02*
X-12060Y-17450D01*
X-13060Y-17450D02*
X-13060Y-16550D01*
X-13060Y-16550D02*
X-12440Y-16550D01*
X-12440Y-16550D02*
X-12440Y-17450D01*
X-12440Y-17450D02*
X-13060Y-17450D01*
X-14060Y-17450D02*
X-14060Y-16550D01*
X-14060Y-16550D02*
X-13440Y-16550D01*
X-13440Y-16550D02*
X-13440Y-17450D01*
X-13440Y-17450D02*
X-14060Y-17450D01*
X-15060Y-17450D02*
X-15060Y-16550D01*
X-15060Y-16550D02*
X-14440Y-16550D01*
X-14440Y-16550D02*
X-14440Y-17450D01*
X-14440Y-17450D02*
X-15060Y-17450D01*
X-16060Y-17450D02*
X-16060Y-16550D01*
X-16060Y-16550D02*
X-15440Y-16550D01*
X-15440Y-16550D02*
X-15440Y-17450D01*
X-15440Y-17450D02*
X-16060Y-17450D01*
X-17060Y-17450D02*
X-17060Y-16550D01*
X-17060Y-16550D02*
X-16440Y-16550D01*
X-16440Y-16550D02*
X-16440Y-17450D01*
X-16440Y-17450D02*
X-17060Y-17450D01*
X-18060Y-17450D02*
X-18060Y-16550D01*
X-18060Y-16550D02*
X-17440Y-16550D01*
X-17440Y-16550D02*
X-17440Y-17450D01*
X-17440Y-17450D02*
X-18060Y-17450D01*
X-19060Y-17450D02*
X-19060Y-16550D01*
X-19060Y-16550D02*
X-18440Y-16550D01*
X-18440Y-16550D02*
X-18440Y-17450D01*
X-18440Y-17450D02*
X-19060Y-17450D01*
X-09475Y-10025D02*
X-09475Y-10575D01*
X-09475Y-10575D02*
X-10025Y-10575D01*
X-10025Y-10575D02*
X-10025Y-10025D01*
X-10025Y-10025D02*
X-09475Y-10025D01*
X-10475Y-10300D02*
X-10482Y-10357D01*
X-10482Y-10357D02*
X-10499Y-10411D01*
X-10499Y-10411D02*
X-10528Y-10461D01*
X-10528Y-10461D02*
X-10566Y-10504D01*
X-10566Y-10504D02*
X-10613Y-10538D01*
X-10613Y-10538D02*
X-10666Y-10561D01*
X-10666Y-10561D02*
X-10722Y-10573D01*
X-10722Y-10573D02*
X-10778Y-10573D01*
X-10778Y-10573D02*
X-10834Y-10561D01*
X-10834Y-10561D02*
X-10887Y-10538D01*
X-10887Y-10538D02*
X-10934Y-10504D01*
X-10934Y-10504D02*
X-10972Y-10461D01*
X-10972Y-10461D02*
X-11001Y-10411D01*
X-11001Y-10411D02*
X-11018Y-10357D01*
X-11018Y-10357D02*
X-11025Y-10300D01*
X-11025Y-10300D02*
X-11018Y-10243D01*
X-11018Y-10243D02*
X-11001Y-10189D01*
X-11001Y-10189D02*
X-10972Y-10139D01*
X-10972Y-10139D02*
X-10934Y-10096D01*
X-10934Y-10096D02*
X-10887Y-10062D01*
X-10887Y-10062D02*
X-10834Y-10039D01*
X-10834Y-10039D02*
X-10778Y-10027D01*
X-10778Y-10027D02*
X-10722Y-10027D01*
X-10722Y-10027D02*
X-10666Y-10039D01*
X-10666Y-10039D02*
X-10613Y-10062D01*
X-10613Y-10062D02*
X-10566Y-10096D01*
X-10566Y-10096D02*
X-10528Y-10139D01*
X-10528Y-10139D02*
X-10499Y-10189D01*
X-10499Y-10189D02*
X-10482Y-10243D01*
X-10482Y-10243D02*
X-10475Y-10300D01*
X-15400Y-09975D02*
X-15400Y-10525D01*
X-15400Y-10525D02*
X-15950Y-10525D01*
X-15950Y-10525D02*
X-15950Y-09975D01*
X-15950Y-09975D02*
X-15400Y-09975D01*
X-16400Y-10250D02*
X-16407Y-10307D01*
X-16407Y-10307D02*
X-16424Y-10361D01*
X-16424Y-10361D02*
X-16453Y-10411D01*
X-16453Y-10411D02*
X-16491Y-10454D01*
X-16491Y-10454D02*
X-16538Y-10488D01*
X-16538Y-10488D02*
X-16591Y-10511D01*
X-16591Y-10511D02*
X-16647Y-10523D01*
X-16647Y-10523D02*
X-16703Y-10523D01*
X-16703Y-10523D02*
X-16759Y-10511D01*
X-16759Y-10511D02*
X-16812Y-10488D01*
X-16812Y-10488D02*
X-16859Y-10454D01*
X-16859Y-10454D02*
X-16897Y-10411D01*
X-16897Y-10411D02*
X-16926Y-10361D01*
X-16926Y-10361D02*
X-16943Y-10307D01*
X-16943Y-10307D02*
X-16950Y-10250D01*
X-16950Y-10250D02*
X-16943Y-10193D01*
X-16943Y-10193D02*
X-16926Y-10139D01*
X-16926Y-10139D02*
X-16897Y-10089D01*
X-16897Y-10089D02*
X-16859Y-10046D01*
X-16859Y-10046D02*
X-16812Y-10012D01*
X-16812Y-10012D02*
X-16759Y-09989D01*
X-16759Y-09989D02*
X-16703Y-09977D01*
X-16703Y-09977D02*
X-16647Y-09977D01*
X-16647Y-09977D02*
X-16591Y-09989D01*
X-16591Y-09989D02*
X-16538Y-10012D01*
X-16538Y-10012D02*
X-16491Y-10046D01*
X-16491Y-10046D02*
X-16453Y-10089D01*
X-16453Y-10089D02*
X-16424Y-10139D01*
X-16424Y-10139D02*
X-16407Y-10193D01*
X-16407Y-10193D02*
X-16400Y-10250D01*
X-21425Y-09975D02*
X-21425Y-10525D01*
X-21425Y-10525D02*
X-21975Y-10525D01*
X-21975Y-10525D02*
X-21975Y-09975D01*
X-21975Y-09975D02*
X-21425Y-09975D01*
X-22425Y-10250D02*
X-22432Y-10307D01*
X-22432Y-10307D02*
X-22449Y-10361D01*
X-22449Y-10361D02*
X-22478Y-10411D01*
X-22478Y-10411D02*
X-22516Y-10454D01*
X-22516Y-10454D02*
X-22563Y-10488D01*
X-22563Y-10488D02*
X-22616Y-10511D01*
X-22616Y-10511D02*
X-22672Y-10523D01*
X-22672Y-10523D02*
X-22728Y-10523D01*
X-22728Y-10523D02*
X-22784Y-10511D01*
X-22784Y-10511D02*
X-22837Y-10488D01*
X-22837Y-10488D02*
X-22884Y-10454D01*
X-22884Y-10454D02*
X-22922Y-10411D01*
X-22922Y-10411D02*
X-22951Y-10361D01*
X-22951Y-10361D02*
X-22968Y-10307D01*
X-22968Y-10307D02*
X-22975Y-10250D01*
X-22975Y-10250D02*
X-22968Y-10193D01*
X-22968Y-10193D02*
X-22951Y-10139D01*
X-22951Y-10139D02*
X-22922Y-10089D01*
X-22922Y-10089D02*
X-22884Y-10046D01*
X-22884Y-10046D02*
X-22837Y-10012D01*
X-22837Y-10012D02*
X-22784Y-09989D01*
X-22784Y-09989D02*
X-22728Y-09977D01*
X-22728Y-09977D02*
X-22672Y-09977D01*
X-22672Y-09977D02*
X-22616Y-09989D01*
X-22616Y-09989D02*
X-22563Y-10012D01*
X-22563Y-10012D02*
X-22516Y-10046D01*
X-22516Y-10046D02*
X-22478Y-10089D01*
X-22478Y-10089D02*
X-22449Y-10139D01*
X-22449Y-10139D02*
X-22432Y-10193D01*
X-22432Y-10193D02*
X-22425Y-10250D01*
X-27400Y-10050D02*
X-27400Y-10600D01*
X-27400Y-10600D02*
X-27950Y-10600D01*
X-27950Y-10600D02*
X-27950Y-10050D01*
X-27950Y-10050D02*
X-27400Y-10050D01*
X-28400Y-10325D02*
X-28407Y-10382D01*
X-28407Y-10382D02*
X-28424Y-10436D01*
X-28424Y-10436D02*
X-28453Y-10486D01*
X-28453Y-10486D02*
X-28491Y-10529D01*
X-28491Y-10529D02*
X-28538Y-10563D01*
X-28538Y-10563D02*
X-28591Y-10586D01*
X-28591Y-10586D02*
X-28647Y-10598D01*
X-28647Y-10598D02*
X-28703Y-10598D01*
X-28703Y-10598D02*
X-28759Y-10586D01*
X-28759Y-10586D02*
X-28812Y-10563D01*
X-28812Y-10563D02*
X-28859Y-10529D01*
X-28859Y-10529D02*
X-28897Y-10486D01*
X-28897Y-10486D02*
X-28926Y-10436D01*
X-28926Y-10436D02*
X-28943Y-10382D01*
X-28943Y-10382D02*
X-28950Y-10325D01*
X-28950Y-10325D02*
X-28943Y-10268D01*
X-28943Y-10268D02*
X-28926Y-10214D01*
X-28926Y-10214D02*
X-28897Y-10164D01*
X-28897Y-10164D02*
X-28859Y-10121D01*
X-28859Y-10121D02*
X-28812Y-10087D01*
X-28812Y-10087D02*
X-28759Y-10064D01*
X-28759Y-10064D02*
X-28703Y-10052D01*
X-28703Y-10052D02*
X-28647Y-10052D01*
X-28647Y-10052D02*
X-28591Y-10064D01*
X-28591Y-10064D02*
X-28538Y-10087D01*
X-28538Y-10087D02*
X-28491Y-10121D01*
X-28491Y-10121D02*
X-28453Y-10164D01*
X-28453Y-10164D02*
X-28424Y-10214D01*
X-28424Y-10214D02*
X-28407Y-10268D01*
X-28407Y-10268D02*
X-28400Y-10325D01*
X-33400Y-10025D02*
X-33400Y-10575D01*
X-33400Y-10575D02*
X-33950Y-10575D01*
X-33950Y-10575D02*
X-33950Y-10025D01*
X-33950Y-10025D02*
X-33400Y-10025D01*
X-34400Y-10300D02*
X-34407Y-10357D01*
X-34407Y-10357D02*
X-34424Y-10411D01*
X-34424Y-10411D02*
X-34453Y-10461D01*
X-34453Y-10461D02*
X-34491Y-10504D01*
X-34491Y-10504D02*
X-34538Y-10538D01*
X-34538Y-10538D02*
X-34591Y-10561D01*
X-34591Y-10561D02*
X-34647Y-10573D01*
X-34647Y-10573D02*
X-34703Y-10573D01*
X-34703Y-10573D02*
X-34759Y-10561D01*
X-34759Y-10561D02*
X-34812Y-10538D01*
X-34812Y-10538D02*
X-34859Y-10504D01*
X-34859Y-10504D02*
X-34897Y-10461D01*
X-34897Y-10461D02*
X-34926Y-10411D01*
X-34926Y-10411D02*
X-34943Y-10357D01*
X-34943Y-10357D02*
X-34950Y-10300D01*
X-34950Y-10300D02*
X-34943Y-10243D01*
X-34943Y-10243D02*
X-34926Y-10189D01*
X-34926Y-10189D02*
X-34897Y-10139D01*
X-34897Y-10139D02*
X-34859Y-10096D01*
X-34859Y-10096D02*
X-34812Y-10062D01*
X-34812Y-10062D02*
X-34759Y-10039D01*
X-34759Y-10039D02*
X-34703Y-10027D01*
X-34703Y-10027D02*
X-34647Y-10027D01*
X-34647Y-10027D02*
X-34591Y-10039D01*
X-34591Y-10039D02*
X-34538Y-10062D01*
X-34538Y-10062D02*
X-34491Y-10096D01*
X-34491Y-10096D02*
X-34453Y-10139D01*
X-34453Y-10139D02*
X-34424Y-10189D01*
X-34424Y-10189D02*
X-34407Y-10243D01*
X-34407Y-10243D02*
X-34400Y-10300D01*
X-33480Y-14810D02*
X-33480Y-13690D01*
X-33480Y-13690D02*
X-32920Y-13690D01*
X-32920Y-13690D02*
X-32920Y-14810D01*
X-32920Y-14810D02*
X-33480Y-14810D01*
X-32480Y-14810D02*
X-32480Y-13690D01*
X-32480Y-13690D02*
X-31920Y-13690D01*
X-31920Y-13690D02*
X-31920Y-14810D01*
X-31920Y-14810D02*
X-32480Y-14810D01*
X-31480Y-14810D02*
X-31480Y-13690D01*
X-31480Y-13690D02*
X-30920Y-13690D01*
X-30920Y-13690D02*
X-30920Y-14810D01*
X-30920Y-14810D02*
X-31480Y-14810D01*
X-30480Y-14810D02*
X-30480Y-13690D01*
X-30480Y-13690D02*
X-29920Y-13690D01*
X-29920Y-13690D02*
X-29920Y-14810D01*
X-29920Y-14810D02*
X-30480Y-14810D01*
X-21080Y-19410D02*
X-22120Y-19410D01*
X-22120Y-19410D02*
X-22120Y-18890D01*
X-22120Y-18890D02*
X-21080Y-18890D01*
X-21080Y-18890D02*
X-21080Y-19410D01*
X-21080Y-18410D02*
X-22120Y-18410D01*
X-22120Y-18410D02*
X-22120Y-17890D01*
X-22120Y-17890D02*
X-21080Y-17890D01*
X-21080Y-17890D02*
X-21080Y-18410D01*
X-21080Y-17410D02*
X-22120Y-17410D01*
X-22120Y-17410D02*
X-22120Y-16890D01*
X-22120Y-16890D02*
X-21080Y-16890D01*
X-21080Y-16890D02*
X-21080Y-17410D01*
X-21080Y-16410D02*
X-22120Y-16410D01*
X-22120Y-16410D02*
X-22120Y-15890D01*
X-22120Y-15890D02*
X-21080Y-15890D01*
X-21080Y-15890D02*
X-21080Y-16410D01*
X-24080Y-16410D02*
X-25120Y-16410D01*
X-25120Y-16410D02*
X-25120Y-15890D01*
X-25120Y-15890D02*
X-24080Y-15890D01*
X-24080Y-15890D02*
X-24080Y-16410D01*
X-24080Y-17410D02*
X-25120Y-17410D01*
X-25120Y-17410D02*
X-25120Y-16890D01*
X-25120Y-16890D02*
X-24080Y-16890D01*
X-24080Y-16890D02*
X-24080Y-17410D01*
X-24080Y-18410D02*
X-25120Y-18410D01*
X-25120Y-18410D02*
X-25120Y-17890D01*
X-25120Y-17890D02*
X-24080Y-17890D01*
X-24080Y-17890D02*
X-24080Y-18410D01*
X-24080Y-19410D02*
X-25120Y-19410D01*
X-25120Y-19410D02*
X-25120Y-18890D01*
X-25120Y-18890D02*
X-24080Y-18890D01*
X-24080Y-18890D02*
X-24080Y-19410D01*
X-03400Y-10100D02*
X-03400Y-10650D01*
X-03400Y-10650D02*
X-03950Y-10650D01*
X-03950Y-10650D02*
X-03950Y-10100D01*
X-03950Y-10100D02*
X-03400Y-10100D01*
X-04400Y-10375D02*
X-04407Y-10432D01*
X-04407Y-10432D02*
X-04424Y-10486D01*
X-04424Y-10486D02*
X-04453Y-10536D01*
X-04453Y-10536D02*
X-04491Y-10579D01*
X-04491Y-10579D02*
X-04538Y-10613D01*
X-04538Y-10613D02*
X-04591Y-10636D01*
X-04591Y-10636D02*
X-04647Y-10648D01*
X-04647Y-10648D02*
X-04703Y-10648D01*
X-04703Y-10648D02*
X-04759Y-10636D01*
X-04759Y-10636D02*
X-04812Y-10613D01*
X-04812Y-10613D02*
X-04859Y-10579D01*
X-04859Y-10579D02*
X-04897Y-10536D01*
X-04897Y-10536D02*
X-04926Y-10486D01*
X-04926Y-10486D02*
X-04943Y-10432D01*
X-04943Y-10432D02*
X-04950Y-10375D01*
X-04950Y-10375D02*
X-04943Y-10318D01*
X-04943Y-10318D02*
X-04926Y-10264D01*
X-04926Y-10264D02*
X-04897Y-10214D01*
X-04897Y-10214D02*
X-04859Y-10171D01*
X-04859Y-10171D02*
X-04812Y-10137D01*
X-04812Y-10137D02*
X-04759Y-10114D01*
X-04759Y-10114D02*
X-04703Y-10102D01*
X-04703Y-10102D02*
X-04647Y-10102D01*
X-04647Y-10102D02*
X-04591Y-10114D01*
X-04591Y-10114D02*
X-04538Y-10137D01*
X-04538Y-10137D02*
X-04491Y-10171D01*
X-04491Y-10171D02*
X-04453Y-10214D01*
X-04453Y-10214D02*
X-04424Y-10264D01*
X-04424Y-10264D02*
X-04407Y-10318D01*
X-04407Y-10318D02*
X-04400Y-10375D01*
X-10750Y-02500D02*
X-10760Y-02593D01*
X-10760Y-02593D02*
X-10789Y-02683D01*
X-10789Y-02683D02*
X-10836Y-02764D01*
X-10836Y-02764D02*
X-10899Y-02834D01*
X-10899Y-02834D02*
X-10975Y-02889D01*
X-10975Y-02889D02*
X-11061Y-02927D01*
X-11061Y-02927D02*
X-11153Y-02947D01*
X-11153Y-02947D02*
X-11247Y-02947D01*
X-11247Y-02947D02*
X-11339Y-02927D01*
X-11339Y-02927D02*
X-11425Y-02889D01*
X-11425Y-02889D02*
X-11501Y-02834D01*
X-11501Y-02834D02*
X-11564Y-02764D01*
X-11564Y-02764D02*
X-11611Y-02683D01*
X-11611Y-02683D02*
X-11640Y-02593D01*
X-11640Y-02593D02*
X-11650Y-02500D01*
X-11650Y-02500D02*
X-11640Y-02407D01*
X-11640Y-02407D02*
X-11611Y-02317D01*
X-11611Y-02317D02*
X-11564Y-02236D01*
X-11564Y-02236D02*
X-11501Y-02166D01*
X-11501Y-02166D02*
X-11425Y-02111D01*
X-11425Y-02111D02*
X-11339Y-02073D01*
X-11339Y-02073D02*
X-11247Y-02053D01*
X-11247Y-02053D02*
X-11153Y-02053D01*
X-11153Y-02053D02*
X-11061Y-02073D01*
X-11061Y-02073D02*
X-10975Y-02111D01*
X-10975Y-02111D02*
X-10899Y-02166D01*
X-10899Y-02166D02*
X-10836Y-02236D01*
X-10836Y-02236D02*
X-10789Y-02317D01*
X-10789Y-02317D02*
X-10760Y-02407D01*
X-10760Y-02407D02*
X-10750Y-02500D01*
X-08750Y-02500D02*
X-08760Y-02593D01*
X-08760Y-02593D02*
X-08789Y-02683D01*
X-08789Y-02683D02*
X-08836Y-02764D01*
X-08836Y-02764D02*
X-08899Y-02834D01*
X-08899Y-02834D02*
X-08975Y-02889D01*
X-08975Y-02889D02*
X-09061Y-02927D01*
X-09061Y-02927D02*
X-09153Y-02947D01*
X-09153Y-02947D02*
X-09247Y-02947D01*
X-09247Y-02947D02*
X-09339Y-02927D01*
X-09339Y-02927D02*
X-09425Y-02889D01*
X-09425Y-02889D02*
X-09501Y-02834D01*
X-09501Y-02834D02*
X-09564Y-02764D01*
X-09564Y-02764D02*
X-09611Y-02683D01*
X-09611Y-02683D02*
X-09640Y-02593D01*
X-09640Y-02593D02*
X-09650Y-02500D01*
X-09650Y-02500D02*
X-09640Y-02407D01*
X-09640Y-02407D02*
X-09611Y-02317D01*
X-09611Y-02317D02*
X-09564Y-02236D01*
X-09564Y-02236D02*
X-09501Y-02166D01*
X-09501Y-02166D02*
X-09425Y-02111D01*
X-09425Y-02111D02*
X-09339Y-02073D01*
X-09339Y-02073D02*
X-09247Y-02053D01*
X-09247Y-02053D02*
X-09153Y-02053D01*
X-09153Y-02053D02*
X-09061Y-02073D01*
X-09061Y-02073D02*
X-08975Y-02111D01*
X-08975Y-02111D02*
X-08899Y-02166D01*
X-08899Y-02166D02*
X-08836Y-02236D01*
X-08836Y-02236D02*
X-08789Y-02317D01*
X-08789Y-02317D02*
X-08760Y-02407D01*
X-08760Y-02407D02*
X-08750Y-02500D01*
X-16750Y-02500D02*
X-16760Y-02593D01*
X-16760Y-02593D02*
X-16789Y-02683D01*
X-16789Y-02683D02*
X-16836Y-02764D01*
X-16836Y-02764D02*
X-16899Y-02834D01*
X-16899Y-02834D02*
X-16975Y-02889D01*
X-16975Y-02889D02*
X-17061Y-02927D01*
X-17061Y-02927D02*
X-17153Y-02947D01*
X-17153Y-02947D02*
X-17247Y-02947D01*
X-17247Y-02947D02*
X-17339Y-02927D01*
X-17339Y-02927D02*
X-17425Y-02889D01*
X-17425Y-02889D02*
X-17501Y-02834D01*
X-17501Y-02834D02*
X-17564Y-02764D01*
X-17564Y-02764D02*
X-17611Y-02683D01*
X-17611Y-02683D02*
X-17640Y-02593D01*
X-17640Y-02593D02*
X-17650Y-02500D01*
X-17650Y-02500D02*
X-17640Y-02407D01*
X-17640Y-02407D02*
X-17611Y-02317D01*
X-17611Y-02317D02*
X-17564Y-02236D01*
X-17564Y-02236D02*
X-17501Y-02166D01*
X-17501Y-02166D02*
X-17425Y-02111D01*
X-17425Y-02111D02*
X-17339Y-02073D01*
X-17339Y-02073D02*
X-17247Y-02053D01*
X-17247Y-02053D02*
X-17153Y-02053D01*
X-17153Y-02053D02*
X-17061Y-02073D01*
X-17061Y-02073D02*
X-16975Y-02111D01*
X-16975Y-02111D02*
X-16899Y-02166D01*
X-16899Y-02166D02*
X-16836Y-02236D01*
X-16836Y-02236D02*
X-16789Y-02317D01*
X-16789Y-02317D02*
X-16760Y-02407D01*
X-16760Y-02407D02*
X-16750Y-02500D01*
X-14750Y-02500D02*
X-14760Y-02593D01*
X-14760Y-02593D02*
X-14789Y-02683D01*
X-14789Y-02683D02*
X-14836Y-02764D01*
X-14836Y-02764D02*
X-14899Y-02834D01*
X-14899Y-02834D02*
X-14975Y-02889D01*
X-14975Y-02889D02*
X-15061Y-02927D01*
X-15061Y-02927D02*
X-15153Y-02947D01*
X-15153Y-02947D02*
X-15247Y-02947D01*
X-15247Y-02947D02*
X-15339Y-02927D01*
X-15339Y-02927D02*
X-15425Y-02889D01*
X-15425Y-02889D02*
X-15501Y-02834D01*
X-15501Y-02834D02*
X-15564Y-02764D01*
X-15564Y-02764D02*
X-15611Y-02683D01*
X-15611Y-02683D02*
X-15640Y-02593D01*
X-15640Y-02593D02*
X-15650Y-02500D01*
X-15650Y-02500D02*
X-15640Y-02407D01*
X-15640Y-02407D02*
X-15611Y-02317D01*
X-15611Y-02317D02*
X-15564Y-02236D01*
X-15564Y-02236D02*
X-15501Y-02166D01*
X-15501Y-02166D02*
X-15425Y-02111D01*
X-15425Y-02111D02*
X-15339Y-02073D01*
X-15339Y-02073D02*
X-15247Y-02053D01*
X-15247Y-02053D02*
X-15153Y-02053D01*
X-15153Y-02053D02*
X-15061Y-02073D01*
X-15061Y-02073D02*
X-14975Y-02111D01*
X-14975Y-02111D02*
X-14899Y-02166D01*
X-14899Y-02166D02*
X-14836Y-02236D01*
X-14836Y-02236D02*
X-14789Y-02317D01*
X-14789Y-02317D02*
X-14760Y-02407D01*
X-14760Y-02407D02*
X-14750Y-02500D01*
X-22750Y-02500D02*
X-22760Y-02593D01*
X-22760Y-02593D02*
X-22789Y-02683D01*
X-22789Y-02683D02*
X-22836Y-02764D01*
X-22836Y-02764D02*
X-22899Y-02834D01*
X-22899Y-02834D02*
X-22975Y-02889D01*
X-22975Y-02889D02*
X-23061Y-02927D01*
X-23061Y-02927D02*
X-23153Y-02947D01*
X-23153Y-02947D02*
X-23247Y-02947D01*
X-23247Y-02947D02*
X-23339Y-02927D01*
X-23339Y-02927D02*
X-23425Y-02889D01*
X-23425Y-02889D02*
X-23501Y-02834D01*
X-23501Y-02834D02*
X-23564Y-02764D01*
X-23564Y-02764D02*
X-23611Y-02683D01*
X-23611Y-02683D02*
X-23640Y-02593D01*
X-23640Y-02593D02*
X-23650Y-02500D01*
X-23650Y-02500D02*
X-23640Y-02407D01*
X-23640Y-02407D02*
X-23611Y-02317D01*
X-23611Y-02317D02*
X-23564Y-02236D01*
X-23564Y-02236D02*
X-23501Y-02166D01*
X-23501Y-02166D02*
X-23425Y-02111D01*
X-23425Y-02111D02*
X-23339Y-02073D01*
X-23339Y-02073D02*
X-23247Y-02053D01*
X-23247Y-02053D02*
X-23153Y-02053D01*
X-23153Y-02053D02*
X-23061Y-02073D01*
X-23061Y-02073D02*
X-22975Y-02111D01*
X-22975Y-02111D02*
X-22899Y-02166D01*
X-22899Y-02166D02*
X-22836Y-02236D01*
X-22836Y-02236D02*
X-22789Y-02317D01*
X-22789Y-02317D02*
X-22760Y-02407D01*
X-22760Y-02407D02*
X-22750Y-02500D01*
X-20750Y-02500D02*
X-20760Y-02593D01*
X-20760Y-02593D02*
X-20789Y-02683D01*
X-20789Y-02683D02*
X-20836Y-02764D01*
X-20836Y-02764D02*
X-20899Y-02834D01*
X-20899Y-02834D02*
X-20975Y-02889D01*
X-20975Y-02889D02*
X-21061Y-02927D01*
X-21061Y-02927D02*
X-21153Y-02947D01*
X-21153Y-02947D02*
X-21247Y-02947D01*
X-21247Y-02947D02*
X-21339Y-02927D01*
X-21339Y-02927D02*
X-21425Y-02889D01*
X-21425Y-02889D02*
X-21501Y-02834D01*
X-21501Y-02834D02*
X-21564Y-02764D01*
X-21564Y-02764D02*
X-21611Y-02683D01*
X-21611Y-02683D02*
X-21640Y-02593D01*
X-21640Y-02593D02*
X-21650Y-02500D01*
X-21650Y-02500D02*
X-21640Y-02407D01*
X-21640Y-02407D02*
X-21611Y-02317D01*
X-21611Y-02317D02*
X-21564Y-02236D01*
X-21564Y-02236D02*
X-21501Y-02166D01*
X-21501Y-02166D02*
X-21425Y-02111D01*
X-21425Y-02111D02*
X-21339Y-02073D01*
X-21339Y-02073D02*
X-21247Y-02053D01*
X-21247Y-02053D02*
X-21153Y-02053D01*
X-21153Y-02053D02*
X-21061Y-02073D01*
X-21061Y-02073D02*
X-20975Y-02111D01*
X-20975Y-02111D02*
X-20899Y-02166D01*
X-20899Y-02166D02*
X-20836Y-02236D01*
X-20836Y-02236D02*
X-20789Y-02317D01*
X-20789Y-02317D02*
X-20760Y-02407D01*
X-20760Y-02407D02*
X-20750Y-02500D01*
X-28750Y-02500D02*
X-28760Y-02593D01*
X-28760Y-02593D02*
X-28789Y-02683D01*
X-28789Y-02683D02*
X-28836Y-02764D01*
X-28836Y-02764D02*
X-28899Y-02834D01*
X-28899Y-02834D02*
X-28975Y-02889D01*
X-28975Y-02889D02*
X-29061Y-02927D01*
X-29061Y-02927D02*
X-29153Y-02947D01*
X-29153Y-02947D02*
X-29247Y-02947D01*
X-29247Y-02947D02*
X-29339Y-02927D01*
X-29339Y-02927D02*
X-29425Y-02889D01*
X-29425Y-02889D02*
X-29501Y-02834D01*
X-29501Y-02834D02*
X-29564Y-02764D01*
X-29564Y-02764D02*
X-29611Y-02683D01*
X-29611Y-02683D02*
X-29640Y-02593D01*
X-29640Y-02593D02*
X-29650Y-02500D01*
X-29650Y-02500D02*
X-29640Y-02407D01*
X-29640Y-02407D02*
X-29611Y-02317D01*
X-29611Y-02317D02*
X-29564Y-02236D01*
X-29564Y-02236D02*
X-29501Y-02166D01*
X-29501Y-02166D02*
X-29425Y-02111D01*
X-29425Y-02111D02*
X-29339Y-02073D01*
X-29339Y-02073D02*
X-29247Y-02053D01*
X-29247Y-02053D02*
X-29153Y-02053D01*
X-29153Y-02053D02*
X-29061Y-02073D01*
X-29061Y-02073D02*
X-28975Y-02111D01*
X-28975Y-02111D02*
X-28899Y-02166D01*
X-28899Y-02166D02*
X-28836Y-02236D01*
X-28836Y-02236D02*
X-28789Y-02317D01*
X-28789Y-02317D02*
X-28760Y-02407D01*
X-28760Y-02407D02*
X-28750Y-02500D01*
X-26750Y-02500D02*
X-26760Y-02593D01*
X-26760Y-02593D02*
X-26789Y-02683D01*
X-26789Y-02683D02*
X-26836Y-02764D01*
X-26836Y-02764D02*
X-26899Y-02834D01*
X-26899Y-02834D02*
X-26975Y-02889D01*
X-26975Y-02889D02*
X-27061Y-02927D01*
X-27061Y-02927D02*
X-27153Y-02947D01*
X-27153Y-02947D02*
X-27247Y-02947D01*
X-27247Y-02947D02*
X-27339Y-02927D01*
X-27339Y-02927D02*
X-27425Y-02889D01*
X-27425Y-02889D02*
X-27501Y-02834D01*
X-27501Y-02834D02*
X-27564Y-02764D01*
X-27564Y-02764D02*
X-27611Y-02683D01*
X-27611Y-02683D02*
X-27640Y-02593D01*
X-27640Y-02593D02*
X-27650Y-02500D01*
X-27650Y-02500D02*
X-27640Y-02407D01*
X-27640Y-02407D02*
X-27611Y-02317D01*
X-27611Y-02317D02*
X-27564Y-02236D01*
X-27564Y-02236D02*
X-27501Y-02166D01*
X-27501Y-02166D02*
X-27425Y-02111D01*
X-27425Y-02111D02*
X-27339Y-02073D01*
X-27339Y-02073D02*
X-27247Y-02053D01*
X-27247Y-02053D02*
X-27153Y-02053D01*
X-27153Y-02053D02*
X-27061Y-02073D01*
X-27061Y-02073D02*
X-26975Y-02111D01*
X-26975Y-02111D02*
X-26899Y-02166D01*
X-26899Y-02166D02*
X-26836Y-02236D01*
X-26836Y-02236D02*
X-26789Y-02317D01*
X-26789Y-02317D02*
X-26760Y-02407D01*
X-26760Y-02407D02*
X-26750Y-02500D01*
X-34750Y-02500D02*
X-34760Y-02593D01*
X-34760Y-02593D02*
X-34789Y-02683D01*
X-34789Y-02683D02*
X-34836Y-02764D01*
X-34836Y-02764D02*
X-34899Y-02834D01*
X-34899Y-02834D02*
X-34975Y-02889D01*
X-34975Y-02889D02*
X-35061Y-02927D01*
X-35061Y-02927D02*
X-35153Y-02947D01*
X-35153Y-02947D02*
X-35247Y-02947D01*
X-35247Y-02947D02*
X-35339Y-02927D01*
X-35339Y-02927D02*
X-35425Y-02889D01*
X-35425Y-02889D02*
X-35501Y-02834D01*
X-35501Y-02834D02*
X-35564Y-02764D01*
X-35564Y-02764D02*
X-35611Y-02683D01*
X-35611Y-02683D02*
X-35640Y-02593D01*
X-35640Y-02593D02*
X-35650Y-02500D01*
X-35650Y-02500D02*
X-35640Y-02407D01*
X-35640Y-02407D02*
X-35611Y-02317D01*
X-35611Y-02317D02*
X-35564Y-02236D01*
X-35564Y-02236D02*
X-35501Y-02166D01*
X-35501Y-02166D02*
X-35425Y-02111D01*
X-35425Y-02111D02*
X-35339Y-02073D01*
X-35339Y-02073D02*
X-35247Y-02053D01*
X-35247Y-02053D02*
X-35153Y-02053D01*
X-35153Y-02053D02*
X-35061Y-02073D01*
X-35061Y-02073D02*
X-34975Y-02111D01*
X-34975Y-02111D02*
X-34899Y-02166D01*
X-34899Y-02166D02*
X-34836Y-02236D01*
X-34836Y-02236D02*
X-34789Y-02317D01*
X-34789Y-02317D02*
X-34760Y-02407D01*
X-34760Y-02407D02*
X-34750Y-02500D01*
X-32750Y-02500D02*
X-32760Y-02593D01*
X-32760Y-02593D02*
X-32789Y-02683D01*
X-32789Y-02683D02*
X-32836Y-02764D01*
X-32836Y-02764D02*
X-32899Y-02834D01*
X-32899Y-02834D02*
X-32975Y-02889D01*
X-32975Y-02889D02*
X-33061Y-02927D01*
X-33061Y-02927D02*
X-33153Y-02947D01*
X-33153Y-02947D02*
X-33247Y-02947D01*
X-33247Y-02947D02*
X-33339Y-02927D01*
X-33339Y-02927D02*
X-33425Y-02889D01*
X-33425Y-02889D02*
X-33501Y-02834D01*
X-33501Y-02834D02*
X-33564Y-02764D01*
X-33564Y-02764D02*
X-33611Y-02683D01*
X-33611Y-02683D02*
X-33640Y-02593D01*
X-33640Y-02593D02*
X-33650Y-02500D01*
X-33650Y-02500D02*
X-33640Y-02407D01*
X-33640Y-02407D02*
X-33611Y-02317D01*
X-33611Y-02317D02*
X-33564Y-02236D01*
X-33564Y-02236D02*
X-33501Y-02166D01*
X-33501Y-02166D02*
X-33425Y-02111D01*
X-33425Y-02111D02*
X-33339Y-02073D01*
X-33339Y-02073D02*
X-33247Y-02053D01*
X-33247Y-02053D02*
X-33153Y-02053D01*
X-33153Y-02053D02*
X-33061Y-02073D01*
X-33061Y-02073D02*
X-32975Y-02111D01*
X-32975Y-02111D02*
X-32899Y-02166D01*
X-32899Y-02166D02*
X-32836Y-02236D01*
X-32836Y-02236D02*
X-32789Y-02317D01*
X-32789Y-02317D02*
X-32760Y-02407D01*
X-32760Y-02407D02*
X-32750Y-02500D01*
X-04750Y-02500D02*
X-04760Y-02593D01*
X-04760Y-02593D02*
X-04789Y-02683D01*
X-04789Y-02683D02*
X-04836Y-02764D01*
X-04836Y-02764D02*
X-04899Y-02834D01*
X-04899Y-02834D02*
X-04975Y-02889D01*
X-04975Y-02889D02*
X-05061Y-02927D01*
X-05061Y-02927D02*
X-05153Y-02947D01*
X-05153Y-02947D02*
X-05247Y-02947D01*
X-05247Y-02947D02*
X-05339Y-02927D01*
X-05339Y-02927D02*
X-05425Y-02889D01*
X-05425Y-02889D02*
X-05501Y-02834D01*
X-05501Y-02834D02*
X-05564Y-02764D01*
X-05564Y-02764D02*
X-05611Y-02683D01*
X-05611Y-02683D02*
X-05640Y-02593D01*
X-05640Y-02593D02*
X-05650Y-02500D01*
X-05650Y-02500D02*
X-05640Y-02407D01*
X-05640Y-02407D02*
X-05611Y-02317D01*
X-05611Y-02317D02*
X-05564Y-02236D01*
X-05564Y-02236D02*
X-05501Y-02166D01*
X-05501Y-02166D02*
X-05425Y-02111D01*
X-05425Y-02111D02*
X-05339Y-02073D01*
X-05339Y-02073D02*
X-05247Y-02053D01*
X-05247Y-02053D02*
X-05153Y-02053D01*
X-05153Y-02053D02*
X-05061Y-02073D01*
X-05061Y-02073D02*
X-04975Y-02111D01*
X-04975Y-02111D02*
X-04899Y-02166D01*
X-04899Y-02166D02*
X-04836Y-02236D01*
X-04836Y-02236D02*
X-04789Y-02317D01*
X-04789Y-02317D02*
X-04760Y-02407D01*
X-04760Y-02407D02*
X-04750Y-02500D01*
X-02750Y-02500D02*
X-02760Y-02593D01*
X-02760Y-02593D02*
X-02789Y-02683D01*
X-02789Y-02683D02*
X-02836Y-02764D01*
X-02836Y-02764D02*
X-02899Y-02834D01*
X-02899Y-02834D02*
X-02975Y-02889D01*
X-02975Y-02889D02*
X-03061Y-02927D01*
X-03061Y-02927D02*
X-03153Y-02947D01*
X-03153Y-02947D02*
X-03247Y-02947D01*
X-03247Y-02947D02*
X-03339Y-02927D01*
X-03339Y-02927D02*
X-03425Y-02889D01*
X-03425Y-02889D02*
X-03501Y-02834D01*
X-03501Y-02834D02*
X-03564Y-02764D01*
X-03564Y-02764D02*
X-03611Y-02683D01*
X-03611Y-02683D02*
X-03640Y-02593D01*
X-03640Y-02593D02*
X-03650Y-02500D01*
X-03650Y-02500D02*
X-03640Y-02407D01*
X-03640Y-02407D02*
X-03611Y-02317D01*
X-03611Y-02317D02*
X-03564Y-02236D01*
X-03564Y-02236D02*
X-03501Y-02166D01*
X-03501Y-02166D02*
X-03425Y-02111D01*
X-03425Y-02111D02*
X-03339Y-02073D01*
X-03339Y-02073D02*
X-03247Y-02053D01*
X-03247Y-02053D02*
X-03153Y-02053D01*
X-03153Y-02053D02*
X-03061Y-02073D01*
X-03061Y-02073D02*
X-02975Y-02111D01*
X-02975Y-02111D02*
X-02899Y-02166D01*
X-02899Y-02166D02*
X-02836Y-02236D01*
X-02836Y-02236D02*
X-02789Y-02317D01*
X-02789Y-02317D02*
X-02760Y-02407D01*
X-02760Y-02407D02*
X-02750Y-02500D01*
X-18900Y-01050D02*
X-18911Y-01153D01*
X-18911Y-01153D02*
X-18944Y-01253D01*
X-18944Y-01253D02*
X-18996Y-01343D01*
X-18996Y-01343D02*
X-19066Y-01421D01*
X-19066Y-01421D02*
X-19150Y-01483D01*
X-19150Y-01483D02*
X-19246Y-01525D01*
X-19246Y-01525D02*
X-19348Y-01547D01*
X-19348Y-01547D02*
X-19452Y-01547D01*
X-19452Y-01547D02*
X-19554Y-01525D01*
X-19554Y-01525D02*
X-19650Y-01483D01*
X-19650Y-01483D02*
X-19734Y-01421D01*
X-19734Y-01421D02*
X-19804Y-01343D01*
X-19804Y-01343D02*
X-19856Y-01253D01*
X-19856Y-01253D02*
X-19889Y-01153D01*
X-19889Y-01153D02*
X-19900Y-01050D01*
X-19900Y-01050D02*
X-19889Y-00947D01*
X-19889Y-00947D02*
X-19856Y-00847D01*
X-19856Y-00847D02*
X-19804Y-00757D01*
X-19804Y-00757D02*
X-19734Y-00679D01*
X-19734Y-00679D02*
X-19650Y-00617D01*
X-19650Y-00617D02*
X-19554Y-00575D01*
X-19554Y-00575D02*
X-19452Y-00553D01*
X-19452Y-00553D02*
X-19348Y-00553D01*
X-19348Y-00553D02*
X-19246Y-00575D01*
X-19246Y-00575D02*
X-19150Y-00617D01*
X-19150Y-00617D02*
X-19066Y-00679D01*
X-19066Y-00679D02*
X-18996Y-00757D01*
X-18996Y-00757D02*
X-18944Y-00847D01*
X-18944Y-00847D02*
X-18911Y-00947D01*
X-18911Y-00947D02*
X-18900Y-01050D01*
G54D32*
X-02900Y-09446D02*
X-03500Y-09446D01*
X-03500Y-09446D02*
X-03500Y-08996D01*
X-03500Y-08996D02*
X-03433Y-08921D01*
X-03433Y-08921D02*
X-03233Y-08921D01*
X-03233Y-08921D02*
X-03166Y-08996D01*
X-03166Y-08996D02*
X-03166Y-09446D01*
X-03166Y-09221D02*
X-02900Y-08921D01*
X-02900Y-08135D02*
X-02900Y-08660D01*
X-02900Y-08660D02*
X-03500Y-08660D01*
X-03500Y-08660D02*
X-03500Y-08135D01*
X-03233Y-08660D02*
X-03233Y-08360D01*
X-03500Y-07874D02*
X-02900Y-07874D01*
X-02900Y-07874D02*
X-02900Y-07274D01*
X-02900Y-07088D02*
X-03366Y-07088D01*
X-03366Y-07088D02*
X-03500Y-06938D01*
X-03500Y-06938D02*
X-03500Y-06713D01*
X-03500Y-06713D02*
X-03366Y-06563D01*
X-03366Y-06563D02*
X-02900Y-06563D01*
X-03233Y-07088D02*
X-03233Y-06563D01*
X-03500Y-06302D02*
X-03166Y-06002D01*
X-03166Y-06002D02*
X-03500Y-05702D01*
X-03166Y-06002D02*
X-02900Y-06002D01*
X-03433Y-04991D02*
X-03500Y-05066D01*
X-03500Y-05066D02*
X-03500Y-05441D01*
X-03500Y-05441D02*
X-03433Y-05516D01*
X-03433Y-05516D02*
X-02966Y-05516D01*
X-02966Y-05516D02*
X-02900Y-05441D01*
X-02900Y-05441D02*
X-02900Y-05066D01*
X-02900Y-05066D02*
X-02966Y-04991D01*
X-02966Y-04991D02*
X-03166Y-04991D01*
X-03166Y-04991D02*
X-03233Y-05066D01*
X-03233Y-05066D02*
X-03233Y-05441D01*
X-03233Y-05441D02*
X-03166Y-05516D01*
X-00300Y-09632D02*
X-00900Y-09632D01*
X-00900Y-09632D02*
X-00900Y-09182D01*
X-00900Y-09182D02*
X-00833Y-09107D01*
X-00833Y-09107D02*
X-00633Y-09107D01*
X-00633Y-09107D02*
X-00566Y-09182D01*
X-00566Y-09182D02*
X-00566Y-09632D01*
X-00300Y-08846D02*
X-00900Y-08846D01*
X-00900Y-08846D02*
X-00900Y-08396D01*
X-00900Y-08396D02*
X-00833Y-08321D01*
X-00833Y-08321D02*
X-00700Y-08321D01*
X-00700Y-08321D02*
X-00633Y-08396D01*
X-00633Y-08396D02*
X-00633Y-08846D01*
X-00633Y-08396D02*
X-00500Y-08321D01*
X-00500Y-08321D02*
X-00366Y-08321D01*
X-00366Y-08321D02*
X-00300Y-08396D01*
X-00300Y-08396D02*
X-00300Y-08846D01*
X-00300Y-07910D02*
X-00300Y-07610D01*
X-00300Y-07760D02*
X-00900Y-07760D01*
X-00833Y-07760D02*
X-00700Y-07910D01*
X-00300Y-07124D02*
X-00300Y-06824D01*
X-00300Y-06974D02*
X-00900Y-06974D01*
X-00833Y-06974D02*
X-00700Y-07124D01*
X-00300Y-06113D02*
X-00900Y-06113D01*
X-00900Y-06113D02*
X-00433Y-06488D01*
X-00433Y-06488D02*
X-00433Y-05963D01*
X-00300Y-05702D02*
X-00900Y-05177D01*
X-00366Y-05702D02*
X-00833Y-05702D01*
X-00833Y-05702D02*
X-00900Y-05627D01*
X-00900Y-05627D02*
X-00900Y-05252D01*
X-00900Y-05252D02*
X-00833Y-05177D01*
X-00833Y-05177D02*
X-00366Y-05177D01*
X-00366Y-05177D02*
X-00300Y-05252D01*
X-00300Y-05252D02*
X-00300Y-05627D01*
X-00300Y-05627D02*
X-00366Y-05702D01*
X-00300Y-04916D02*
X-00900Y-04391D01*
X-00366Y-04916D02*
X-00833Y-04916D01*
X-00833Y-04916D02*
X-00900Y-04841D01*
X-00900Y-04841D02*
X-00900Y-04466D01*
X-00900Y-04466D02*
X-00833Y-04391D01*
X-00833Y-04391D02*
X-00366Y-04391D01*
X-00366Y-04391D02*
X-00300Y-04466D01*
X-00300Y-04466D02*
X-00300Y-04841D01*
X-00300Y-04841D02*
X-00366Y-04916D01*
X-00833Y-03605D02*
X-00900Y-03680D01*
X-00900Y-03680D02*
X-00900Y-04055D01*
X-00900Y-04055D02*
X-00833Y-04130D01*
X-00833Y-04130D02*
X-00366Y-04130D01*
X-00366Y-04130D02*
X-00300Y-04055D01*
X-00300Y-04055D02*
X-00300Y-03680D01*
X-00300Y-03680D02*
X-00366Y-03605D01*
X-00366Y-03605D02*
X-00566Y-03605D01*
X-00566Y-03605D02*
X-00633Y-03680D01*
X-00633Y-03680D02*
X-00633Y-04055D01*
X-00633Y-04055D02*
X-00566Y-04130D01*
X-08900Y-09446D02*
X-09500Y-09446D01*
X-09500Y-09446D02*
X-09500Y-08996D01*
X-09500Y-08996D02*
X-09433Y-08921D01*
X-09433Y-08921D02*
X-09233Y-08921D01*
X-09233Y-08921D02*
X-09166Y-08996D01*
X-09166Y-08996D02*
X-09166Y-09446D01*
X-09166Y-09221D02*
X-08900Y-08921D01*
X-08900Y-08135D02*
X-08900Y-08660D01*
X-08900Y-08660D02*
X-09500Y-08660D01*
X-09500Y-08660D02*
X-09500Y-08135D01*
X-09233Y-08660D02*
X-09233Y-08360D01*
X-09500Y-07874D02*
X-08900Y-07874D01*
X-08900Y-07874D02*
X-08900Y-07274D01*
X-08900Y-07088D02*
X-09366Y-07088D01*
X-09366Y-07088D02*
X-09500Y-06938D01*
X-09500Y-06938D02*
X-09500Y-06713D01*
X-09500Y-06713D02*
X-09366Y-06563D01*
X-09366Y-06563D02*
X-08900Y-06563D01*
X-09233Y-07088D02*
X-09233Y-06563D01*
X-09500Y-06302D02*
X-09166Y-06002D01*
X-09166Y-06002D02*
X-09500Y-05702D01*
X-09166Y-06002D02*
X-08900Y-06002D01*
X-09033Y-05516D02*
X-08966Y-05516D01*
X-08966Y-05516D02*
X-08900Y-05441D01*
X-08900Y-05441D02*
X-08900Y-05066D01*
X-08900Y-05066D02*
X-08966Y-04991D01*
X-08966Y-04991D02*
X-09166Y-04991D01*
X-09166Y-04991D02*
X-09300Y-05141D01*
X-09300Y-05141D02*
X-09300Y-05516D01*
X-09300Y-05516D02*
X-09500Y-05516D01*
X-09500Y-05516D02*
X-09500Y-04991D01*
X-06300Y-09632D02*
X-06900Y-09632D01*
X-06900Y-09632D02*
X-06900Y-09182D01*
X-06900Y-09182D02*
X-06833Y-09107D01*
X-06833Y-09107D02*
X-06633Y-09107D01*
X-06633Y-09107D02*
X-06566Y-09182D01*
X-06566Y-09182D02*
X-06566Y-09632D01*
X-06300Y-08846D02*
X-06900Y-08846D01*
X-06900Y-08846D02*
X-06900Y-08396D01*
X-06900Y-08396D02*
X-06833Y-08321D01*
X-06833Y-08321D02*
X-06700Y-08321D01*
X-06700Y-08321D02*
X-06633Y-08396D01*
X-06633Y-08396D02*
X-06633Y-08846D01*
X-06633Y-08396D02*
X-06500Y-08321D01*
X-06500Y-08321D02*
X-06366Y-08321D01*
X-06366Y-08321D02*
X-06300Y-08396D01*
X-06300Y-08396D02*
X-06300Y-08846D01*
X-06300Y-07910D02*
X-06300Y-07610D01*
X-06300Y-07760D02*
X-06900Y-07760D01*
X-06833Y-07760D02*
X-06700Y-07910D01*
X-06300Y-07124D02*
X-06300Y-06824D01*
X-06300Y-06974D02*
X-06900Y-06974D01*
X-06833Y-06974D02*
X-06700Y-07124D01*
X-06300Y-06113D02*
X-06900Y-06113D01*
X-06900Y-06113D02*
X-06433Y-06488D01*
X-06433Y-06488D02*
X-06433Y-05963D01*
X-06300Y-05702D02*
X-06900Y-05177D01*
X-06366Y-05702D02*
X-06833Y-05702D01*
X-06833Y-05702D02*
X-06900Y-05627D01*
X-06900Y-05627D02*
X-06900Y-05252D01*
X-06900Y-05252D02*
X-06833Y-05177D01*
X-06833Y-05177D02*
X-06366Y-05177D01*
X-06366Y-05177D02*
X-06300Y-05252D01*
X-06300Y-05252D02*
X-06300Y-05627D01*
X-06300Y-05627D02*
X-06366Y-05702D01*
X-06300Y-04916D02*
X-06900Y-04391D01*
X-06366Y-04916D02*
X-06833Y-04916D01*
X-06833Y-04916D02*
X-06900Y-04841D01*
X-06900Y-04841D02*
X-06900Y-04466D01*
X-06900Y-04466D02*
X-06833Y-04391D01*
X-06833Y-04391D02*
X-06366Y-04391D01*
X-06366Y-04391D02*
X-06300Y-04466D01*
X-06300Y-04466D02*
X-06300Y-04841D01*
X-06300Y-04841D02*
X-06366Y-04916D01*
X-06833Y-03605D02*
X-06900Y-03680D01*
X-06900Y-03680D02*
X-06900Y-04055D01*
X-06900Y-04055D02*
X-06833Y-04130D01*
X-06833Y-04130D02*
X-06366Y-04130D01*
X-06366Y-04130D02*
X-06300Y-04055D01*
X-06300Y-04055D02*
X-06300Y-03680D01*
X-06300Y-03680D02*
X-06366Y-03605D01*
X-06366Y-03605D02*
X-06566Y-03605D01*
X-06566Y-03605D02*
X-06633Y-03680D01*
X-06633Y-03680D02*
X-06633Y-04055D01*
X-06633Y-04055D02*
X-06566Y-04130D01*
X-14900Y-09446D02*
X-15500Y-09446D01*
X-15500Y-09446D02*
X-15500Y-08996D01*
X-15500Y-08996D02*
X-15433Y-08921D01*
X-15433Y-08921D02*
X-15233Y-08921D01*
X-15233Y-08921D02*
X-15166Y-08996D01*
X-15166Y-08996D02*
X-15166Y-09446D01*
X-15166Y-09221D02*
X-14900Y-08921D01*
X-14900Y-08135D02*
X-14900Y-08660D01*
X-14900Y-08660D02*
X-15500Y-08660D01*
X-15500Y-08660D02*
X-15500Y-08135D01*
X-15233Y-08660D02*
X-15233Y-08360D01*
X-15500Y-07874D02*
X-14900Y-07874D01*
X-14900Y-07874D02*
X-14900Y-07274D01*
X-14900Y-07088D02*
X-15366Y-07088D01*
X-15366Y-07088D02*
X-15500Y-06938D01*
X-15500Y-06938D02*
X-15500Y-06713D01*
X-15500Y-06713D02*
X-15366Y-06563D01*
X-15366Y-06563D02*
X-14900Y-06563D01*
X-15233Y-07088D02*
X-15233Y-06563D01*
X-15500Y-06302D02*
X-15166Y-06002D01*
X-15166Y-06002D02*
X-15500Y-05702D01*
X-15166Y-06002D02*
X-14900Y-06002D01*
X-14900Y-05141D02*
X-15500Y-05141D01*
X-15500Y-05141D02*
X-15033Y-05516D01*
X-15033Y-05516D02*
X-15033Y-04991D01*
X-12300Y-09432D02*
X-12900Y-09432D01*
X-12900Y-09432D02*
X-12900Y-08982D01*
X-12900Y-08982D02*
X-12833Y-08907D01*
X-12833Y-08907D02*
X-12633Y-08907D01*
X-12633Y-08907D02*
X-12566Y-08982D01*
X-12566Y-08982D02*
X-12566Y-09432D01*
X-12300Y-08646D02*
X-12900Y-08646D01*
X-12900Y-08646D02*
X-12900Y-08196D01*
X-12900Y-08196D02*
X-12833Y-08121D01*
X-12833Y-08121D02*
X-12700Y-08121D01*
X-12700Y-08121D02*
X-12633Y-08196D01*
X-12633Y-08196D02*
X-12633Y-08646D01*
X-12633Y-08196D02*
X-12500Y-08121D01*
X-12500Y-08121D02*
X-12366Y-08121D01*
X-12366Y-08121D02*
X-12300Y-08196D01*
X-12300Y-08196D02*
X-12300Y-08646D01*
X-12300Y-07710D02*
X-12300Y-07410D01*
X-12300Y-07560D02*
X-12900Y-07560D01*
X-12833Y-07560D02*
X-12700Y-07710D01*
X-12300Y-06924D02*
X-12300Y-06624D01*
X-12300Y-06774D02*
X-12900Y-06774D01*
X-12833Y-06774D02*
X-12700Y-06924D01*
X-12300Y-05913D02*
X-12900Y-05913D01*
X-12900Y-05913D02*
X-12433Y-06288D01*
X-12433Y-06288D02*
X-12433Y-05763D01*
X-12300Y-05502D02*
X-12900Y-04977D01*
X-12366Y-05502D02*
X-12833Y-05502D01*
X-12833Y-05502D02*
X-12900Y-05427D01*
X-12900Y-05427D02*
X-12900Y-05052D01*
X-12900Y-05052D02*
X-12833Y-04977D01*
X-12833Y-04977D02*
X-12366Y-04977D01*
X-12366Y-04977D02*
X-12300Y-05052D01*
X-12300Y-05052D02*
X-12300Y-05427D01*
X-12300Y-05427D02*
X-12366Y-05502D01*
X-12300Y-04716D02*
X-12900Y-04191D01*
X-12366Y-04716D02*
X-12833Y-04716D01*
X-12833Y-04716D02*
X-12900Y-04641D01*
X-12900Y-04641D02*
X-12900Y-04266D01*
X-12900Y-04266D02*
X-12833Y-04191D01*
X-12833Y-04191D02*
X-12366Y-04191D01*
X-12366Y-04191D02*
X-12300Y-04266D01*
X-12300Y-04266D02*
X-12300Y-04641D01*
X-12300Y-04641D02*
X-12366Y-04716D01*
X-12833Y-03405D02*
X-12900Y-03480D01*
X-12900Y-03480D02*
X-12900Y-03855D01*
X-12900Y-03855D02*
X-12833Y-03930D01*
X-12833Y-03930D02*
X-12366Y-03930D01*
X-12366Y-03930D02*
X-12300Y-03855D01*
X-12300Y-03855D02*
X-12300Y-03480D01*
X-12300Y-03480D02*
X-12366Y-03405D01*
X-12366Y-03405D02*
X-12566Y-03405D01*
X-12566Y-03405D02*
X-12633Y-03480D01*
X-12633Y-03480D02*
X-12633Y-03855D01*
X-12633Y-03855D02*
X-12566Y-03930D01*
X-20900Y-09446D02*
X-21500Y-09446D01*
X-21500Y-09446D02*
X-21500Y-08996D01*
X-21500Y-08996D02*
X-21433Y-08921D01*
X-21433Y-08921D02*
X-21233Y-08921D01*
X-21233Y-08921D02*
X-21166Y-08996D01*
X-21166Y-08996D02*
X-21166Y-09446D01*
X-21166Y-09221D02*
X-20900Y-08921D01*
X-20900Y-08135D02*
X-20900Y-08660D01*
X-20900Y-08660D02*
X-21500Y-08660D01*
X-21500Y-08660D02*
X-21500Y-08135D01*
X-21233Y-08660D02*
X-21233Y-08360D01*
X-21500Y-07874D02*
X-20900Y-07874D01*
X-20900Y-07874D02*
X-20900Y-07274D01*
X-20900Y-07088D02*
X-21366Y-07088D01*
X-21366Y-07088D02*
X-21500Y-06938D01*
X-21500Y-06938D02*
X-21500Y-06713D01*
X-21500Y-06713D02*
X-21366Y-06563D01*
X-21366Y-06563D02*
X-20900Y-06563D01*
X-21233Y-07088D02*
X-21233Y-06563D01*
X-21500Y-06302D02*
X-21166Y-06002D01*
X-21166Y-06002D02*
X-21500Y-05702D01*
X-21166Y-06002D02*
X-20900Y-06002D01*
X-21500Y-05516D02*
X-21500Y-04991D01*
X-21500Y-04991D02*
X-21433Y-04991D01*
X-21433Y-04991D02*
X-21233Y-05291D01*
X-21233Y-05291D02*
X-21233Y-05066D01*
X-21233Y-05066D02*
X-21166Y-04991D01*
X-21166Y-04991D02*
X-20966Y-04991D01*
X-20966Y-04991D02*
X-20900Y-05066D01*
X-20900Y-05066D02*
X-20900Y-05441D01*
X-20900Y-05441D02*
X-20966Y-05516D01*
X-18300Y-09632D02*
X-18900Y-09632D01*
X-18900Y-09632D02*
X-18900Y-09182D01*
X-18900Y-09182D02*
X-18833Y-09107D01*
X-18833Y-09107D02*
X-18633Y-09107D01*
X-18633Y-09107D02*
X-18566Y-09182D01*
X-18566Y-09182D02*
X-18566Y-09632D01*
X-18300Y-08846D02*
X-18900Y-08846D01*
X-18900Y-08846D02*
X-18900Y-08396D01*
X-18900Y-08396D02*
X-18833Y-08321D01*
X-18833Y-08321D02*
X-18700Y-08321D01*
X-18700Y-08321D02*
X-18633Y-08396D01*
X-18633Y-08396D02*
X-18633Y-08846D01*
X-18633Y-08396D02*
X-18500Y-08321D01*
X-18500Y-08321D02*
X-18366Y-08321D01*
X-18366Y-08321D02*
X-18300Y-08396D01*
X-18300Y-08396D02*
X-18300Y-08846D01*
X-18300Y-07910D02*
X-18300Y-07610D01*
X-18300Y-07760D02*
X-18900Y-07760D01*
X-18833Y-07760D02*
X-18700Y-07910D01*
X-18300Y-07124D02*
X-18300Y-06824D01*
X-18300Y-06974D02*
X-18900Y-06974D01*
X-18833Y-06974D02*
X-18700Y-07124D01*
X-18300Y-06113D02*
X-18900Y-06113D01*
X-18900Y-06113D02*
X-18433Y-06488D01*
X-18433Y-06488D02*
X-18433Y-05963D01*
X-18300Y-05702D02*
X-18900Y-05177D01*
X-18366Y-05702D02*
X-18833Y-05702D01*
X-18833Y-05702D02*
X-18900Y-05627D01*
X-18900Y-05627D02*
X-18900Y-05252D01*
X-18900Y-05252D02*
X-18833Y-05177D01*
X-18833Y-05177D02*
X-18366Y-05177D01*
X-18366Y-05177D02*
X-18300Y-05252D01*
X-18300Y-05252D02*
X-18300Y-05627D01*
X-18300Y-05627D02*
X-18366Y-05702D01*
X-18300Y-04916D02*
X-18900Y-04391D01*
X-18366Y-04916D02*
X-18833Y-04916D01*
X-18833Y-04916D02*
X-18900Y-04841D01*
X-18900Y-04841D02*
X-18900Y-04466D01*
X-18900Y-04466D02*
X-18833Y-04391D01*
X-18833Y-04391D02*
X-18366Y-04391D01*
X-18366Y-04391D02*
X-18300Y-04466D01*
X-18300Y-04466D02*
X-18300Y-04841D01*
X-18300Y-04841D02*
X-18366Y-04916D01*
X-18833Y-03605D02*
X-18900Y-03680D01*
X-18900Y-03680D02*
X-18900Y-04055D01*
X-18900Y-04055D02*
X-18833Y-04130D01*
X-18833Y-04130D02*
X-18366Y-04130D01*
X-18366Y-04130D02*
X-18300Y-04055D01*
X-18300Y-04055D02*
X-18300Y-03680D01*
X-18300Y-03680D02*
X-18366Y-03605D01*
X-18366Y-03605D02*
X-18566Y-03605D01*
X-18566Y-03605D02*
X-18633Y-03680D01*
X-18633Y-03680D02*
X-18633Y-04055D01*
X-18633Y-04055D02*
X-18566Y-04130D01*
X-26900Y-09446D02*
X-27500Y-09446D01*
X-27500Y-09446D02*
X-27500Y-08996D01*
X-27500Y-08996D02*
X-27433Y-08921D01*
X-27433Y-08921D02*
X-27233Y-08921D01*
X-27233Y-08921D02*
X-27166Y-08996D01*
X-27166Y-08996D02*
X-27166Y-09446D01*
X-27166Y-09221D02*
X-26900Y-08921D01*
X-26900Y-08135D02*
X-26900Y-08660D01*
X-26900Y-08660D02*
X-27500Y-08660D01*
X-27500Y-08660D02*
X-27500Y-08135D01*
X-27233Y-08660D02*
X-27233Y-08360D01*
X-27500Y-07874D02*
X-26900Y-07874D01*
X-26900Y-07874D02*
X-26900Y-07274D01*
X-26900Y-07088D02*
X-27366Y-07088D01*
X-27366Y-07088D02*
X-27500Y-06938D01*
X-27500Y-06938D02*
X-27500Y-06713D01*
X-27500Y-06713D02*
X-27366Y-06563D01*
X-27366Y-06563D02*
X-26900Y-06563D01*
X-27233Y-07088D02*
X-27233Y-06563D01*
X-27500Y-06302D02*
X-27166Y-06002D01*
X-27166Y-06002D02*
X-27500Y-05702D01*
X-27166Y-06002D02*
X-26900Y-06002D01*
X-26900Y-04991D02*
X-26900Y-05516D01*
X-26900Y-05516D02*
X-27100Y-05516D01*
X-27100Y-05516D02*
X-27166Y-05441D01*
X-27166Y-05441D02*
X-27166Y-05066D01*
X-27166Y-05066D02*
X-27233Y-04991D01*
X-27233Y-04991D02*
X-27433Y-04991D01*
X-27433Y-04991D02*
X-27500Y-05066D01*
X-27500Y-05066D02*
X-27500Y-05441D01*
X-27500Y-05441D02*
X-27433Y-05516D01*
X-24300Y-09632D02*
X-24900Y-09632D01*
X-24900Y-09632D02*
X-24900Y-09182D01*
X-24900Y-09182D02*
X-24833Y-09107D01*
X-24833Y-09107D02*
X-24633Y-09107D01*
X-24633Y-09107D02*
X-24566Y-09182D01*
X-24566Y-09182D02*
X-24566Y-09632D01*
X-24300Y-08846D02*
X-24900Y-08846D01*
X-24900Y-08846D02*
X-24900Y-08396D01*
X-24900Y-08396D02*
X-24833Y-08321D01*
X-24833Y-08321D02*
X-24700Y-08321D01*
X-24700Y-08321D02*
X-24633Y-08396D01*
X-24633Y-08396D02*
X-24633Y-08846D01*
X-24633Y-08396D02*
X-24500Y-08321D01*
X-24500Y-08321D02*
X-24366Y-08321D01*
X-24366Y-08321D02*
X-24300Y-08396D01*
X-24300Y-08396D02*
X-24300Y-08846D01*
X-24300Y-07910D02*
X-24300Y-07610D01*
X-24300Y-07760D02*
X-24900Y-07760D01*
X-24833Y-07760D02*
X-24700Y-07910D01*
X-24300Y-07124D02*
X-24300Y-06824D01*
X-24300Y-06974D02*
X-24900Y-06974D01*
X-24833Y-06974D02*
X-24700Y-07124D01*
X-24300Y-06113D02*
X-24900Y-06113D01*
X-24900Y-06113D02*
X-24433Y-06488D01*
X-24433Y-06488D02*
X-24433Y-05963D01*
X-24300Y-05702D02*
X-24900Y-05177D01*
X-24366Y-05702D02*
X-24833Y-05702D01*
X-24833Y-05702D02*
X-24900Y-05627D01*
X-24900Y-05627D02*
X-24900Y-05252D01*
X-24900Y-05252D02*
X-24833Y-05177D01*
X-24833Y-05177D02*
X-24366Y-05177D01*
X-24366Y-05177D02*
X-24300Y-05252D01*
X-24300Y-05252D02*
X-24300Y-05627D01*
X-24300Y-05627D02*
X-24366Y-05702D01*
X-24300Y-04916D02*
X-24900Y-04391D01*
X-24366Y-04916D02*
X-24833Y-04916D01*
X-24833Y-04916D02*
X-24900Y-04841D01*
X-24900Y-04841D02*
X-24900Y-04466D01*
X-24900Y-04466D02*
X-24833Y-04391D01*
X-24833Y-04391D02*
X-24366Y-04391D01*
X-24366Y-04391D02*
X-24300Y-04466D01*
X-24300Y-04466D02*
X-24300Y-04841D01*
X-24300Y-04841D02*
X-24366Y-04916D01*
X-24833Y-03605D02*
X-24900Y-03680D01*
X-24900Y-03680D02*
X-24900Y-04055D01*
X-24900Y-04055D02*
X-24833Y-04130D01*
X-24833Y-04130D02*
X-24366Y-04130D01*
X-24366Y-04130D02*
X-24300Y-04055D01*
X-24300Y-04055D02*
X-24300Y-03680D01*
X-24300Y-03680D02*
X-24366Y-03605D01*
X-24366Y-03605D02*
X-24566Y-03605D01*
X-24566Y-03605D02*
X-24633Y-03680D01*
X-24633Y-03680D02*
X-24633Y-04055D01*
X-24633Y-04055D02*
X-24566Y-04130D01*
X-32900Y-09446D02*
X-33500Y-09446D01*
X-33500Y-09446D02*
X-33500Y-08996D01*
X-33500Y-08996D02*
X-33433Y-08921D01*
X-33433Y-08921D02*
X-33233Y-08921D01*
X-33233Y-08921D02*
X-33166Y-08996D01*
X-33166Y-08996D02*
X-33166Y-09446D01*
X-33166Y-09221D02*
X-32900Y-08921D01*
X-32900Y-08135D02*
X-32900Y-08660D01*
X-32900Y-08660D02*
X-33500Y-08660D01*
X-33500Y-08660D02*
X-33500Y-08135D01*
X-33233Y-08660D02*
X-33233Y-08360D01*
X-33500Y-07874D02*
X-32900Y-07874D01*
X-32900Y-07874D02*
X-32900Y-07274D01*
X-32900Y-07088D02*
X-33366Y-07088D01*
X-33366Y-07088D02*
X-33500Y-06938D01*
X-33500Y-06938D02*
X-33500Y-06713D01*
X-33500Y-06713D02*
X-33366Y-06563D01*
X-33366Y-06563D02*
X-32900Y-06563D01*
X-33233Y-07088D02*
X-33233Y-06563D01*
X-33500Y-06302D02*
X-33166Y-06002D01*
X-33166Y-06002D02*
X-33500Y-05702D01*
X-33166Y-06002D02*
X-32900Y-06002D01*
X-32900Y-05366D02*
X-32900Y-05066D01*
X-32900Y-05216D02*
X-33500Y-05216D01*
X-33433Y-05216D02*
X-33300Y-05366D01*
X-30300Y-09632D02*
X-30900Y-09632D01*
X-30900Y-09632D02*
X-30900Y-09182D01*
X-30900Y-09182D02*
X-30833Y-09107D01*
X-30833Y-09107D02*
X-30633Y-09107D01*
X-30633Y-09107D02*
X-30566Y-09182D01*
X-30566Y-09182D02*
X-30566Y-09632D01*
X-30300Y-08846D02*
X-30900Y-08846D01*
X-30900Y-08846D02*
X-30900Y-08396D01*
X-30900Y-08396D02*
X-30833Y-08321D01*
X-30833Y-08321D02*
X-30700Y-08321D01*
X-30700Y-08321D02*
X-30633Y-08396D01*
X-30633Y-08396D02*
X-30633Y-08846D01*
X-30633Y-08396D02*
X-30500Y-08321D01*
X-30500Y-08321D02*
X-30366Y-08321D01*
X-30366Y-08321D02*
X-30300Y-08396D01*
X-30300Y-08396D02*
X-30300Y-08846D01*
X-30300Y-07910D02*
X-30300Y-07610D01*
X-30300Y-07760D02*
X-30900Y-07760D01*
X-30833Y-07760D02*
X-30700Y-07910D01*
X-30300Y-07124D02*
X-30300Y-06824D01*
X-30300Y-06974D02*
X-30900Y-06974D01*
X-30833Y-06974D02*
X-30700Y-07124D01*
X-30300Y-06113D02*
X-30900Y-06113D01*
X-30900Y-06113D02*
X-30433Y-06488D01*
X-30433Y-06488D02*
X-30433Y-05963D01*
X-30300Y-05702D02*
X-30900Y-05177D01*
X-30366Y-05702D02*
X-30833Y-05702D01*
X-30833Y-05702D02*
X-30900Y-05627D01*
X-30900Y-05627D02*
X-30900Y-05252D01*
X-30900Y-05252D02*
X-30833Y-05177D01*
X-30833Y-05177D02*
X-30366Y-05177D01*
X-30366Y-05177D02*
X-30300Y-05252D01*
X-30300Y-05252D02*
X-30300Y-05627D01*
X-30300Y-05627D02*
X-30366Y-05702D01*
X-30300Y-04916D02*
X-30900Y-04391D01*
X-30366Y-04916D02*
X-30833Y-04916D01*
X-30833Y-04916D02*
X-30900Y-04841D01*
X-30900Y-04841D02*
X-30900Y-04466D01*
X-30900Y-04466D02*
X-30833Y-04391D01*
X-30833Y-04391D02*
X-30366Y-04391D01*
X-30366Y-04391D02*
X-30300Y-04466D01*
X-30300Y-04466D02*
X-30300Y-04841D01*
X-30300Y-04841D02*
X-30366Y-04916D01*
X-30833Y-03605D02*
X-30900Y-03680D01*
X-30900Y-03680D02*
X-30900Y-04055D01*
X-30900Y-04055D02*
X-30833Y-04130D01*
X-30833Y-04130D02*
X-30366Y-04130D01*
X-30366Y-04130D02*
X-30300Y-04055D01*
X-30300Y-04055D02*
X-30300Y-03680D01*
X-30300Y-03680D02*
X-30366Y-03605D01*
X-30366Y-03605D02*
X-30566Y-03605D01*
X-30566Y-03605D02*
X-30633Y-03680D01*
X-30633Y-03680D02*
X-30633Y-04055D01*
X-30633Y-04055D02*
X-30566Y-04130D01*
X-16246Y-13500D02*
X-16246Y-14034D01*
X-16246Y-14034D02*
X-16190Y-14100D01*
X-16190Y-14100D02*
X-15909Y-14100D01*
X-15909Y-14100D02*
X-15852Y-14034D01*
X-15852Y-14034D02*
X-15852Y-13500D01*
X-15626Y-13967D02*
X-15626Y-14034D01*
X-15626Y-14034D02*
X-15570Y-14100D01*
X-15570Y-14100D02*
X-15289Y-14100D01*
X-15289Y-14100D02*
X-15232Y-14034D01*
X-15232Y-14034D02*
X-15232Y-13834D01*
X-15232Y-13834D02*
X-15345Y-13700D01*
X-15345Y-13700D02*
X-15626Y-13700D01*
X-15626Y-13700D02*
X-15626Y-13500D01*
X-15626Y-13500D02*
X-15232Y-13500D01*
X-14796Y-14500D02*
X-14796Y-15034D01*
X-14796Y-15034D02*
X-14740Y-15100D01*
X-14740Y-15100D02*
X-14459Y-15100D01*
X-14459Y-15100D02*
X-14402Y-15034D01*
X-14402Y-15034D02*
X-14402Y-14500D01*
X-14176Y-14500D02*
X-14176Y-15100D01*
X-14176Y-15100D02*
X-13726Y-15100D01*
X-13556Y-15100D02*
X-13556Y-14500D01*
X-13556Y-14500D02*
X-13162Y-15100D01*
X-13162Y-15100D02*
X-13162Y-14500D01*
X-12542Y-15100D02*
X-12936Y-15100D01*
X-12936Y-15100D02*
X-12936Y-14900D01*
X-12936Y-14900D02*
X-12880Y-14834D01*
X-12880Y-14834D02*
X-12599Y-14834D01*
X-12599Y-14834D02*
X-12542Y-14767D01*
X-12542Y-14767D02*
X-12542Y-14567D01*
X-12542Y-14567D02*
X-12599Y-14500D01*
X-12599Y-14500D02*
X-12880Y-14500D01*
X-12880Y-14500D02*
X-12936Y-14567D01*
X-12316Y-15100D02*
X-11922Y-14500D01*
X-12316Y-15034D02*
X-12316Y-14567D01*
X-12316Y-14567D02*
X-12260Y-14500D01*
X-12260Y-14500D02*
X-11979Y-14500D01*
X-11979Y-14500D02*
X-11922Y-14567D01*
X-11922Y-14567D02*
X-11922Y-15034D01*
X-11922Y-15034D02*
X-11979Y-15100D01*
X-11979Y-15100D02*
X-12260Y-15100D01*
X-12260Y-15100D02*
X-12316Y-15034D01*
X-11696Y-15100D02*
X-11302Y-14500D01*
X-11696Y-15034D02*
X-11696Y-14567D01*
X-11696Y-14567D02*
X-11640Y-14500D01*
X-11640Y-14500D02*
X-11359Y-14500D01*
X-11359Y-14500D02*
X-11302Y-14567D01*
X-11302Y-14567D02*
X-11302Y-15034D01*
X-11302Y-15034D02*
X-11359Y-15100D01*
X-11359Y-15100D02*
X-11640Y-15100D01*
X-11640Y-15100D02*
X-11696Y-15034D01*
X-11076Y-14500D02*
X-10682Y-14500D01*
X-10682Y-14500D02*
X-10682Y-14567D01*
X-10682Y-14567D02*
X-10907Y-14767D01*
X-10907Y-14767D02*
X-10739Y-14767D01*
X-10739Y-14767D02*
X-10682Y-14834D01*
X-10682Y-14834D02*
X-10682Y-15034D01*
X-10682Y-15034D02*
X-10739Y-15100D01*
X-10739Y-15100D02*
X-11020Y-15100D01*
X-11020Y-15100D02*
X-11076Y-15034D01*
X-18246Y-17650D02*
X-18246Y-18273D01*
X-18246Y-18273D02*
X-18190Y-18350D01*
X-18190Y-18350D02*
X-17909Y-18350D01*
X-17909Y-18350D02*
X-17852Y-18273D01*
X-17852Y-18273D02*
X-17852Y-17650D01*
X-17626Y-17650D02*
X-17232Y-17650D01*
X-17232Y-17650D02*
X-17232Y-17728D01*
X-17232Y-17728D02*
X-17457Y-17962D01*
X-17457Y-17962D02*
X-17289Y-17962D01*
X-17289Y-17962D02*
X-17232Y-18039D01*
X-17232Y-18039D02*
X-17232Y-18273D01*
X-17232Y-18273D02*
X-17289Y-18350D01*
X-17289Y-18350D02*
X-17570Y-18350D01*
X-17570Y-18350D02*
X-17626Y-18273D01*
X-16506Y-19250D02*
X-16506Y-18550D01*
X-16506Y-18550D02*
X-16281Y-18862D01*
X-16281Y-18862D02*
X-16056Y-18550D01*
X-16056Y-18550D02*
X-16056Y-19250D01*
X-15492Y-19173D02*
X-15549Y-19250D01*
X-15549Y-19250D02*
X-15830Y-19250D01*
X-15830Y-19250D02*
X-15886Y-19173D01*
X-15886Y-19173D02*
X-15886Y-18628D01*
X-15886Y-18628D02*
X-15830Y-18550D01*
X-15830Y-18550D02*
X-15549Y-18550D01*
X-15549Y-18550D02*
X-15492Y-18628D01*
X-15266Y-19250D02*
X-15266Y-18550D01*
X-15266Y-18550D02*
X-14929Y-18550D01*
X-14929Y-18550D02*
X-14872Y-18628D01*
X-14872Y-18628D02*
X-14872Y-18862D01*
X-14872Y-18862D02*
X-14929Y-18939D01*
X-14929Y-18939D02*
X-15266Y-18939D01*
X-14252Y-19250D02*
X-14646Y-19250D01*
X-14646Y-19250D02*
X-14646Y-19017D01*
X-14646Y-19017D02*
X-14590Y-18939D01*
X-14590Y-18939D02*
X-14309Y-18939D01*
X-14309Y-18939D02*
X-14252Y-18862D01*
X-14252Y-18862D02*
X-14252Y-18628D01*
X-14252Y-18628D02*
X-14309Y-18550D01*
X-14309Y-18550D02*
X-14590Y-18550D01*
X-14590Y-18550D02*
X-14646Y-18628D01*
X-14026Y-18550D02*
X-13632Y-18550D01*
X-13632Y-18550D02*
X-13632Y-18628D01*
X-13632Y-18628D02*
X-13857Y-18862D01*
X-13857Y-18862D02*
X-13689Y-18862D01*
X-13689Y-18862D02*
X-13632Y-18939D01*
X-13632Y-18939D02*
X-13632Y-19173D01*
X-13632Y-19173D02*
X-13689Y-19250D01*
X-13689Y-19250D02*
X-13970Y-19250D01*
X-13970Y-19250D02*
X-14026Y-19173D01*
X-13406Y-19250D02*
X-13012Y-18550D01*
X-13406Y-19173D02*
X-13406Y-18628D01*
X-13406Y-18628D02*
X-13350Y-18550D01*
X-13350Y-18550D02*
X-13069Y-18550D01*
X-13069Y-18550D02*
X-13012Y-18628D01*
X-13012Y-18628D02*
X-13012Y-19173D01*
X-13012Y-19173D02*
X-13069Y-19250D01*
X-13069Y-19250D02*
X-13350Y-19250D01*
X-13350Y-19250D02*
X-13406Y-19173D01*
X-12786Y-19250D02*
X-12392Y-18550D01*
X-12786Y-19173D02*
X-12786Y-18628D01*
X-12786Y-18628D02*
X-12730Y-18550D01*
X-12730Y-18550D02*
X-12449Y-18550D01*
X-12449Y-18550D02*
X-12392Y-18628D01*
X-12392Y-18628D02*
X-12392Y-19173D01*
X-12392Y-19173D02*
X-12449Y-19250D01*
X-12449Y-19250D02*
X-12730Y-19250D01*
X-12730Y-19250D02*
X-12786Y-19173D01*
X-12110Y-19250D02*
X-12166Y-19173D01*
X-12166Y-19173D02*
X-12166Y-18939D01*
X-12166Y-18939D02*
X-12110Y-18862D01*
X-12110Y-18862D02*
X-11829Y-18862D01*
X-11829Y-18862D02*
X-11772Y-18784D01*
X-11772Y-18784D02*
X-11772Y-18628D01*
X-11772Y-18628D02*
X-11829Y-18550D01*
X-11829Y-18550D02*
X-12110Y-18550D01*
X-12110Y-18550D02*
X-12166Y-18628D01*
X-12166Y-18628D02*
X-12166Y-18784D01*
X-12166Y-18784D02*
X-12110Y-18862D01*
X-11829Y-18862D02*
X-11772Y-18939D01*
X-11772Y-18939D02*
X-11772Y-19173D01*
X-11772Y-19173D02*
X-11829Y-19250D01*
X-11829Y-19250D02*
X-12110Y-19250D01*
X-10799Y-12100D02*
X-10799Y-11500D01*
X-10874Y-11500D02*
X-10424Y-11500D01*
X-10424Y-11500D02*
X-10349Y-11567D01*
X-10349Y-11567D02*
X-10349Y-12034D01*
X-10349Y-12034D02*
X-10424Y-12100D01*
X-10424Y-12100D02*
X-10874Y-12100D01*
X-09563Y-11567D02*
X-09638Y-11500D01*
X-09638Y-11500D02*
X-10013Y-11500D01*
X-10013Y-11500D02*
X-10088Y-11567D01*
X-10088Y-11567D02*
X-10088Y-12034D01*
X-10088Y-12034D02*
X-10013Y-12100D01*
X-10013Y-12100D02*
X-09638Y-12100D01*
X-09638Y-12100D02*
X-09563Y-12034D01*
X-09563Y-12034D02*
X-09563Y-11834D01*
X-09563Y-11834D02*
X-09638Y-11767D01*
X-09638Y-11767D02*
X-10013Y-11767D01*
X-10013Y-11767D02*
X-10088Y-11834D01*
X-16724Y-12050D02*
X-16724Y-11450D01*
X-16799Y-11450D02*
X-16349Y-11450D01*
X-16349Y-11450D02*
X-16274Y-11517D01*
X-16274Y-11517D02*
X-16274Y-11984D01*
X-16274Y-11984D02*
X-16349Y-12050D01*
X-16349Y-12050D02*
X-16799Y-12050D01*
X-16013Y-11917D02*
X-16013Y-11984D01*
X-16013Y-11984D02*
X-15938Y-12050D01*
X-15938Y-12050D02*
X-15563Y-12050D01*
X-15563Y-12050D02*
X-15488Y-11984D01*
X-15488Y-11984D02*
X-15488Y-11784D01*
X-15488Y-11784D02*
X-15638Y-11650D01*
X-15638Y-11650D02*
X-16013Y-11650D01*
X-16013Y-11650D02*
X-16013Y-11450D01*
X-16013Y-11450D02*
X-15488Y-11450D01*
X-22749Y-12050D02*
X-22749Y-11450D01*
X-22824Y-11450D02*
X-22374Y-11450D01*
X-22374Y-11450D02*
X-22299Y-11517D01*
X-22299Y-11517D02*
X-22299Y-11984D01*
X-22299Y-11984D02*
X-22374Y-12050D01*
X-22374Y-12050D02*
X-22824Y-12050D01*
X-21663Y-12050D02*
X-21663Y-11450D01*
X-21663Y-11450D02*
X-22038Y-11917D01*
X-22038Y-11917D02*
X-21513Y-11917D01*
X-28724Y-12125D02*
X-28724Y-11525D01*
X-28799Y-11525D02*
X-28349Y-11525D01*
X-28349Y-11525D02*
X-28274Y-11592D01*
X-28274Y-11592D02*
X-28274Y-12059D01*
X-28274Y-12059D02*
X-28349Y-12125D01*
X-28349Y-12125D02*
X-28799Y-12125D01*
X-28013Y-11525D02*
X-27488Y-11525D01*
X-27488Y-11525D02*
X-27488Y-11592D01*
X-27488Y-11592D02*
X-27788Y-11792D01*
X-27788Y-11792D02*
X-27563Y-11792D01*
X-27563Y-11792D02*
X-27488Y-11859D01*
X-27488Y-11859D02*
X-27488Y-12059D01*
X-27488Y-12059D02*
X-27563Y-12125D01*
X-27563Y-12125D02*
X-27938Y-12125D01*
X-27938Y-12125D02*
X-28013Y-12059D01*
X-34724Y-12100D02*
X-34724Y-11500D01*
X-34799Y-11500D02*
X-34349Y-11500D01*
X-34349Y-11500D02*
X-34274Y-11567D01*
X-34274Y-11567D02*
X-34274Y-12034D01*
X-34274Y-12034D02*
X-34349Y-12100D01*
X-34349Y-12100D02*
X-34799Y-12100D01*
X-33488Y-12100D02*
X-34013Y-12100D01*
X-34013Y-12100D02*
X-34013Y-11900D01*
X-34013Y-11900D02*
X-33938Y-11834D01*
X-33938Y-11834D02*
X-33563Y-11834D01*
X-33563Y-11834D02*
X-33488Y-11767D01*
X-33488Y-11767D02*
X-33488Y-11567D01*
X-33488Y-11567D02*
X-33563Y-11500D01*
X-33563Y-11500D02*
X-33938Y-11500D01*
X-33938Y-11500D02*
X-34013Y-11567D01*
G54D39*
X-33043Y-14287D02*
X-33000Y-14238D01*
X-33000Y-14238D02*
X-33000Y-13994D01*
X-33000Y-13994D02*
X-33043Y-13945D01*
X-33043Y-13945D02*
X-33173Y-13945D01*
X-33173Y-13945D02*
X-33216Y-13994D01*
X-33216Y-13994D02*
X-33216Y-14238D01*
X-33216Y-14238D02*
X-33260Y-14287D01*
X-33260Y-14287D02*
X-33346Y-14287D01*
X-33346Y-14287D02*
X-33390Y-14238D01*
X-33390Y-14238D02*
X-33390Y-13994D01*
X-33390Y-13994D02*
X-33346Y-13945D01*
X-33390Y-13819D02*
X-33000Y-13819D01*
X-33000Y-13819D02*
X-33000Y-13429D01*
X-33000Y-13253D02*
X-33000Y-13058D01*
X-33000Y-13156D02*
X-33390Y-13156D01*
X-33346Y-13156D02*
X-33260Y-13253D01*
X-33108Y-13091D02*
X-33108Y-12591D01*
X-33108Y-12591D02*
X-32858Y-12814D01*
X-32858Y-12814D02*
X-32608Y-12591D01*
X-32608Y-12591D02*
X-32608Y-13091D01*
X-32518Y-13091D02*
X-32080Y-12591D01*
X-32518Y-13036D02*
X-32518Y-12647D01*
X-32518Y-12647D02*
X-32455Y-12591D01*
X-32455Y-12591D02*
X-32143Y-12591D01*
X-32143Y-12591D02*
X-32080Y-12647D01*
X-32080Y-12647D02*
X-32080Y-13036D01*
X-32080Y-13036D02*
X-32143Y-13091D01*
X-32143Y-13091D02*
X-32455Y-13091D01*
X-32455Y-13091D02*
X-32518Y-13036D01*
X-31615Y-13091D02*
X-31615Y-12591D01*
X-31615Y-12591D02*
X-31928Y-12980D01*
X-31928Y-12980D02*
X-31490Y-12980D01*
X-33680Y-15760D02*
X-33368Y-15538D01*
X-33368Y-15538D02*
X-33680Y-15260D01*
X-33153Y-15260D02*
X-32903Y-15760D01*
X-32903Y-15760D02*
X-32653Y-15260D01*
X-32563Y-15760D02*
X-32563Y-15372D01*
X-32563Y-15372D02*
X-32438Y-15260D01*
X-32438Y-15260D02*
X-32250Y-15260D01*
X-32250Y-15260D02*
X-32125Y-15372D01*
X-32125Y-15372D02*
X-32125Y-15760D01*
X-32563Y-15483D02*
X-32125Y-15483D01*
X-31973Y-15260D02*
X-31973Y-15760D01*
X-31973Y-15760D02*
X-31473Y-15760D01*
X-31383Y-15260D02*
X-31383Y-15705D01*
X-31383Y-15705D02*
X-31320Y-15760D01*
X-31320Y-15760D02*
X-31008Y-15760D01*
X-31008Y-15760D02*
X-30945Y-15705D01*
X-30945Y-15705D02*
X-30945Y-15260D01*
X-30355Y-15760D02*
X-30793Y-15760D01*
X-30793Y-15760D02*
X-30793Y-15260D01*
X-30793Y-15260D02*
X-30355Y-15260D01*
X-30793Y-15483D02*
X-30543Y-15483D01*
X-21516Y-19849D02*
X-21450Y-19774D01*
X-21450Y-19774D02*
X-21450Y-19399D01*
X-21450Y-19399D02*
X-21516Y-19324D01*
X-21516Y-19324D02*
X-21716Y-19324D01*
X-21716Y-19324D02*
X-21783Y-19399D01*
X-21783Y-19399D02*
X-21783Y-19774D01*
X-21783Y-19774D02*
X-21850Y-19849D01*
X-21850Y-19849D02*
X-21983Y-19849D01*
X-21983Y-19849D02*
X-22050Y-19774D01*
X-22050Y-19774D02*
X-22050Y-19399D01*
X-22050Y-19399D02*
X-21983Y-19324D01*
X-22050Y-19148D02*
X-21450Y-18998D01*
X-21450Y-18998D02*
X-21650Y-18848D01*
X-21650Y-18848D02*
X-21450Y-18698D01*
X-21450Y-18698D02*
X-22050Y-18548D01*
X-21450Y-18297D02*
X-21450Y-17997D01*
X-21450Y-18147D02*
X-22050Y-18147D01*
X-21983Y-18147D02*
X-21850Y-18297D01*
X-24166Y-21702D02*
X-24100Y-21627D01*
X-24100Y-21627D02*
X-24100Y-21252D01*
X-24100Y-21252D02*
X-24166Y-21177D01*
X-24166Y-21177D02*
X-24366Y-21177D01*
X-24366Y-21177D02*
X-24433Y-21252D01*
X-24433Y-21252D02*
X-24433Y-21627D01*
X-24433Y-21627D02*
X-24500Y-21702D01*
X-24500Y-21702D02*
X-24633Y-21702D01*
X-24633Y-21702D02*
X-24700Y-21627D01*
X-24700Y-21627D02*
X-24700Y-21252D01*
X-24700Y-21252D02*
X-24633Y-21177D01*
X-24700Y-21001D02*
X-24100Y-20851D01*
X-24100Y-20851D02*
X-24300Y-20701D01*
X-24300Y-20701D02*
X-24100Y-20551D01*
X-24100Y-20551D02*
X-24700Y-20401D01*
X-24100Y-20300D02*
X-24100Y-19775D01*
X-24100Y-19524D02*
X-24700Y-19524D01*
X-24700Y-19599D02*
X-24700Y-19149D01*
X-24700Y-19149D02*
X-24633Y-19074D01*
X-24633Y-19074D02*
X-24166Y-19074D01*
X-24166Y-19074D02*
X-24100Y-19149D01*
X-24100Y-19149D02*
X-24100Y-19599D01*
X-24100Y-18823D02*
X-24100Y-18523D01*
X-24100Y-18673D02*
X-24700Y-18673D01*
X-24700Y-18823D02*
X-24700Y-18523D01*
X-24100Y-18197D02*
X-24700Y-18197D01*
X-24700Y-18197D02*
X-24700Y-17747D01*
X-24700Y-17747D02*
X-24633Y-17672D01*
X-24633Y-17672D02*
X-24433Y-17672D01*
X-24433Y-17672D02*
X-24366Y-17747D01*
X-24366Y-17747D02*
X-24366Y-18197D01*
X-24366Y-17421D02*
X-24366Y-17046D01*
X-24100Y-16420D02*
X-24700Y-16420D01*
X-24700Y-16420D02*
X-24233Y-16795D01*
X-24233Y-16795D02*
X-24233Y-16270D01*
X-21450Y-17723D02*
X-21450Y-18248D01*
X-21450Y-18248D02*
X-21650Y-18248D01*
X-21650Y-18248D02*
X-21716Y-18173D01*
X-21716Y-18173D02*
X-21716Y-17798D01*
X-21716Y-17798D02*
X-21783Y-17723D01*
X-21783Y-17723D02*
X-21983Y-17723D01*
X-21983Y-17723D02*
X-22050Y-17798D01*
X-22050Y-17798D02*
X-22050Y-18173D01*
X-22050Y-18173D02*
X-21983Y-18248D01*
X-22050Y-17248D02*
X-22050Y-16723D01*
X-22050Y-16723D02*
X-21983Y-16723D01*
X-21983Y-16723D02*
X-21783Y-17023D01*
X-21783Y-17023D02*
X-21783Y-16798D01*
X-21783Y-16798D02*
X-21716Y-16723D01*
X-21716Y-16723D02*
X-21516Y-16723D01*
X-21516Y-16723D02*
X-21450Y-16798D01*
X-21450Y-16798D02*
X-21450Y-17173D01*
X-21450Y-17173D02*
X-21516Y-17248D01*
X-21450Y-15873D02*
X-22050Y-15873D01*
X-22050Y-15873D02*
X-21583Y-16248D01*
X-21583Y-16248D02*
X-21583Y-15723D01*
X-24100Y-16624D02*
X-24100Y-17149D01*
X-24100Y-17149D02*
X-24700Y-17149D01*
X-24700Y-17149D02*
X-24700Y-16624D01*
X-24433Y-17149D02*
X-24433Y-16849D01*
X-24100Y-16373D02*
X-24700Y-16373D01*
X-24700Y-16448D02*
X-24700Y-15998D01*
X-24700Y-15998D02*
X-24633Y-15923D01*
X-24633Y-15923D02*
X-24166Y-15923D01*
X-24166Y-15923D02*
X-24100Y-15998D01*
X-24100Y-15998D02*
X-24100Y-16448D01*
X-24633Y-15297D02*
X-24700Y-15297D01*
X-24700Y-15297D02*
X-24700Y-15672D01*
X-24700Y-15672D02*
X-24633Y-15747D01*
X-24633Y-15747D02*
X-24166Y-15747D01*
X-24166Y-15747D02*
X-24100Y-15672D01*
X-24100Y-15672D02*
X-24100Y-15297D01*
X-24100Y-15297D02*
X-24166Y-15222D01*
X-24166Y-15222D02*
X-24366Y-15222D01*
X-24366Y-15222D02*
X-24366Y-15447D01*
X-20500Y-20030D02*
X-20722Y-19718D01*
X-20722Y-19718D02*
X-21000Y-20030D01*
X-21000Y-19503D02*
X-20500Y-19253D01*
X-20500Y-19253D02*
X-21000Y-19003D01*
X-20500Y-18913D02*
X-20888Y-18913D01*
X-20888Y-18913D02*
X-21000Y-18788D01*
X-21000Y-18788D02*
X-21000Y-18600D01*
X-21000Y-18600D02*
X-20888Y-18475D01*
X-20888Y-18475D02*
X-20500Y-18475D01*
X-20777Y-18913D02*
X-20777Y-18475D01*
X-21000Y-18323D02*
X-20500Y-18323D01*
X-20500Y-18323D02*
X-20500Y-17823D01*
X-21000Y-17733D02*
X-20555Y-17733D01*
X-20555Y-17733D02*
X-20500Y-17670D01*
X-20500Y-17670D02*
X-20500Y-17358D01*
X-20500Y-17358D02*
X-20555Y-17295D01*
X-20555Y-17295D02*
X-21000Y-17295D01*
X-20500Y-16705D02*
X-20500Y-17143D01*
X-20500Y-17143D02*
X-21000Y-17143D01*
X-21000Y-17143D02*
X-21000Y-16705D01*
X-20777Y-17143D02*
X-20777Y-16893D01*
X-25200Y-19985D02*
X-25422Y-19673D01*
X-25422Y-19673D02*
X-25700Y-19985D01*
X-25200Y-19458D02*
X-25700Y-19458D01*
X-25700Y-19458D02*
X-25200Y-19020D01*
X-25200Y-19020D02*
X-25700Y-19020D01*
X-25200Y-18868D02*
X-25588Y-18868D01*
X-25588Y-18868D02*
X-25700Y-18743D01*
X-25700Y-18743D02*
X-25700Y-18555D01*
X-25700Y-18555D02*
X-25588Y-18430D01*
X-25588Y-18430D02*
X-25200Y-18430D01*
X-25477Y-18868D02*
X-25477Y-18430D01*
X-25200Y-18278D02*
X-25700Y-18278D01*
X-25700Y-18278D02*
X-25477Y-18028D01*
X-25477Y-18028D02*
X-25700Y-17778D01*
X-25700Y-17778D02*
X-25200Y-17778D01*
X-25200Y-17250D02*
X-25200Y-17688D01*
X-25200Y-17688D02*
X-25700Y-17688D01*
X-25700Y-17688D02*
X-25700Y-17250D01*
X-25477Y-17688D02*
X-25477Y-17438D01*
G54D32*
X-04724Y-12175D02*
X-04724Y-11575D01*
X-04799Y-11575D02*
X-04349Y-11575D01*
X-04349Y-11575D02*
X-04274Y-11642D01*
X-04274Y-11642D02*
X-04274Y-12109D01*
X-04274Y-12109D02*
X-04349Y-12175D01*
X-04349Y-12175D02*
X-04799Y-12175D01*
X-04013Y-11575D02*
X-03488Y-11575D01*
X-03488Y-11575D02*
X-04013Y-12175D01*
G54D39*
X-09835Y-00001D02*
X-09835Y00699D01*
X-09835Y00699D02*
X-09310Y00699D01*
X-09310Y00699D02*
X-09222Y00621D01*
X-09222Y00621D02*
X-09222Y00387D01*
X-09222Y00387D02*
X-09310Y00310D01*
X-09310Y00310D02*
X-09835Y00310D01*
X-09023Y00154D02*
X-09023Y00076D01*
X-09023Y00076D02*
X-08935Y-00001D01*
X-08935Y-00001D02*
X-08498Y-00001D01*
X-08498Y-00001D02*
X-08410Y00076D01*
X-08410Y00076D02*
X-08410Y00310D01*
X-08410Y00310D02*
X-08585Y00465D01*
X-08585Y00465D02*
X-09023Y00465D01*
X-09023Y00465D02*
X-09023Y00699D01*
X-09023Y00699D02*
X-08410Y00699D01*
X-10496Y-05423D02*
X-10584Y-05500D01*
X-10584Y-05500D02*
X-11021Y-05500D01*
X-11021Y-05500D02*
X-11109Y-05423D01*
X-11109Y-05423D02*
X-11109Y-04878D01*
X-11109Y-04878D02*
X-11021Y-04800D01*
X-11021Y-04800D02*
X-10584Y-04800D01*
X-10584Y-04800D02*
X-10496Y-04878D01*
X-10209Y-05500D02*
X-10297Y-05423D01*
X-10297Y-05423D02*
X-10297Y-04878D01*
X-10297Y-04878D02*
X-10209Y-04800D01*
X-10209Y-04800D02*
X-09772Y-04800D01*
X-09772Y-04800D02*
X-09684Y-04878D01*
X-09684Y-04878D02*
X-09684Y-05423D01*
X-09684Y-05423D02*
X-09772Y-05500D01*
X-09772Y-05500D02*
X-10209Y-05500D01*
X-09485Y-05500D02*
X-09485Y-04800D01*
X-09485Y-04800D02*
X-08872Y-05500D01*
X-08872Y-05500D02*
X-08872Y-04800D01*
X-08673Y-05500D02*
X-08673Y-04800D01*
X-08673Y-04800D02*
X-08060Y-05500D01*
X-08060Y-05500D02*
X-08060Y-04800D01*
X-07861Y-05500D02*
X-07248Y-05500D01*
X-06436Y-05500D02*
X-07049Y-05500D01*
X-07049Y-05500D02*
X-07049Y-05267D01*
X-07049Y-05267D02*
X-06961Y-05189D01*
X-06961Y-05189D02*
X-06524Y-05189D01*
X-06524Y-05189D02*
X-06436Y-05112D01*
X-06436Y-05112D02*
X-06436Y-04878D01*
X-06436Y-04878D02*
X-06524Y-04800D01*
X-06524Y-04800D02*
X-06961Y-04800D01*
X-06961Y-04800D02*
X-07049Y-04878D01*
X-15835Y-00001D02*
X-15835Y00699D01*
X-15835Y00699D02*
X-15310Y00699D01*
X-15310Y00699D02*
X-15222Y00621D01*
X-15222Y00621D02*
X-15222Y00387D01*
X-15222Y00387D02*
X-15310Y00310D01*
X-15310Y00310D02*
X-15835Y00310D01*
X-14585Y-00001D02*
X-14585Y00699D01*
X-14585Y00699D02*
X-15023Y00154D01*
X-15023Y00154D02*
X-14410Y00154D01*
X-16496Y-05423D02*
X-16584Y-05500D01*
X-16584Y-05500D02*
X-17021Y-05500D01*
X-17021Y-05500D02*
X-17109Y-05423D01*
X-17109Y-05423D02*
X-17109Y-04878D01*
X-17109Y-04878D02*
X-17021Y-04800D01*
X-17021Y-04800D02*
X-16584Y-04800D01*
X-16584Y-04800D02*
X-16496Y-04878D01*
X-16209Y-05500D02*
X-16297Y-05423D01*
X-16297Y-05423D02*
X-16297Y-04878D01*
X-16297Y-04878D02*
X-16209Y-04800D01*
X-16209Y-04800D02*
X-15772Y-04800D01*
X-15772Y-04800D02*
X-15684Y-04878D01*
X-15684Y-04878D02*
X-15684Y-05423D01*
X-15684Y-05423D02*
X-15772Y-05500D01*
X-15772Y-05500D02*
X-16209Y-05500D01*
X-15485Y-05500D02*
X-15485Y-04800D01*
X-15485Y-04800D02*
X-14872Y-05500D01*
X-14872Y-05500D02*
X-14872Y-04800D01*
X-14673Y-05500D02*
X-14673Y-04800D01*
X-14673Y-04800D02*
X-14060Y-05500D01*
X-14060Y-05500D02*
X-14060Y-04800D01*
X-13861Y-05500D02*
X-13248Y-05500D01*
X-12436Y-05500D02*
X-13049Y-05500D01*
X-13049Y-05500D02*
X-13049Y-05267D01*
X-13049Y-05267D02*
X-12961Y-05189D01*
X-12961Y-05189D02*
X-12524Y-05189D01*
X-12524Y-05189D02*
X-12436Y-05112D01*
X-12436Y-05112D02*
X-12436Y-04878D01*
X-12436Y-04878D02*
X-12524Y-04800D01*
X-12524Y-04800D02*
X-12961Y-04800D01*
X-12961Y-04800D02*
X-13049Y-04878D01*
X-21835Y-00001D02*
X-21835Y00699D01*
X-21835Y00699D02*
X-21310Y00699D01*
X-21310Y00699D02*
X-21222Y00621D01*
X-21222Y00621D02*
X-21222Y00387D01*
X-21222Y00387D02*
X-21310Y00310D01*
X-21310Y00310D02*
X-21835Y00310D01*
X-21023Y00699D02*
X-20410Y00699D01*
X-20410Y00699D02*
X-20410Y00621D01*
X-20410Y00621D02*
X-20760Y00387D01*
X-20760Y00387D02*
X-20498Y00387D01*
X-20498Y00387D02*
X-20410Y00310D01*
X-20410Y00310D02*
X-20410Y00076D01*
X-20410Y00076D02*
X-20498Y-00001D01*
X-20498Y-00001D02*
X-20935Y-00001D01*
X-20935Y-00001D02*
X-21023Y00076D01*
X-22496Y-05423D02*
X-22584Y-05500D01*
X-22584Y-05500D02*
X-23021Y-05500D01*
X-23021Y-05500D02*
X-23109Y-05423D01*
X-23109Y-05423D02*
X-23109Y-04878D01*
X-23109Y-04878D02*
X-23021Y-04800D01*
X-23021Y-04800D02*
X-22584Y-04800D01*
X-22584Y-04800D02*
X-22496Y-04878D01*
X-22209Y-05500D02*
X-22297Y-05423D01*
X-22297Y-05423D02*
X-22297Y-04878D01*
X-22297Y-04878D02*
X-22209Y-04800D01*
X-22209Y-04800D02*
X-21772Y-04800D01*
X-21772Y-04800D02*
X-21684Y-04878D01*
X-21684Y-04878D02*
X-21684Y-05423D01*
X-21684Y-05423D02*
X-21772Y-05500D01*
X-21772Y-05500D02*
X-22209Y-05500D01*
X-21485Y-05500D02*
X-21485Y-04800D01*
X-21485Y-04800D02*
X-20872Y-05500D01*
X-20872Y-05500D02*
X-20872Y-04800D01*
X-20673Y-05500D02*
X-20673Y-04800D01*
X-20673Y-04800D02*
X-20060Y-05500D01*
X-20060Y-05500D02*
X-20060Y-04800D01*
X-19861Y-05500D02*
X-19248Y-05500D01*
X-18436Y-05500D02*
X-19049Y-05500D01*
X-19049Y-05500D02*
X-19049Y-05267D01*
X-19049Y-05267D02*
X-18961Y-05189D01*
X-18961Y-05189D02*
X-18524Y-05189D01*
X-18524Y-05189D02*
X-18436Y-05112D01*
X-18436Y-05112D02*
X-18436Y-04878D01*
X-18436Y-04878D02*
X-18524Y-04800D01*
X-18524Y-04800D02*
X-18961Y-04800D01*
X-18961Y-04800D02*
X-19049Y-04878D01*
X-27835Y-00001D02*
X-27835Y00699D01*
X-27835Y00699D02*
X-27310Y00699D01*
X-27310Y00699D02*
X-27222Y00621D01*
X-27222Y00621D02*
X-27222Y00387D01*
X-27222Y00387D02*
X-27310Y00310D01*
X-27310Y00310D02*
X-27835Y00310D01*
X-26410Y-00001D02*
X-27023Y-00001D01*
X-27023Y-00001D02*
X-27023Y00232D01*
X-27023Y00232D02*
X-26935Y00310D01*
X-26935Y00310D02*
X-26498Y00310D01*
X-26498Y00310D02*
X-26410Y00387D01*
X-26410Y00387D02*
X-26410Y00621D01*
X-26410Y00621D02*
X-26498Y00699D01*
X-26498Y00699D02*
X-26935Y00699D01*
X-26935Y00699D02*
X-27023Y00621D01*
X-28496Y-05423D02*
X-28584Y-05500D01*
X-28584Y-05500D02*
X-29021Y-05500D01*
X-29021Y-05500D02*
X-29109Y-05423D01*
X-29109Y-05423D02*
X-29109Y-04878D01*
X-29109Y-04878D02*
X-29021Y-04800D01*
X-29021Y-04800D02*
X-28584Y-04800D01*
X-28584Y-04800D02*
X-28496Y-04878D01*
X-28209Y-05500D02*
X-28297Y-05423D01*
X-28297Y-05423D02*
X-28297Y-04878D01*
X-28297Y-04878D02*
X-28209Y-04800D01*
X-28209Y-04800D02*
X-27772Y-04800D01*
X-27772Y-04800D02*
X-27684Y-04878D01*
X-27684Y-04878D02*
X-27684Y-05423D01*
X-27684Y-05423D02*
X-27772Y-05500D01*
X-27772Y-05500D02*
X-28209Y-05500D01*
X-27485Y-05500D02*
X-27485Y-04800D01*
X-27485Y-04800D02*
X-26872Y-05500D01*
X-26872Y-05500D02*
X-26872Y-04800D01*
X-26673Y-05500D02*
X-26673Y-04800D01*
X-26673Y-04800D02*
X-26060Y-05500D01*
X-26060Y-05500D02*
X-26060Y-04800D01*
X-25861Y-05500D02*
X-25248Y-05500D01*
X-24436Y-05500D02*
X-25049Y-05500D01*
X-25049Y-05500D02*
X-25049Y-05267D01*
X-25049Y-05267D02*
X-24961Y-05189D01*
X-24961Y-05189D02*
X-24524Y-05189D01*
X-24524Y-05189D02*
X-24436Y-05112D01*
X-24436Y-05112D02*
X-24436Y-04878D01*
X-24436Y-04878D02*
X-24524Y-04800D01*
X-24524Y-04800D02*
X-24961Y-04800D01*
X-24961Y-04800D02*
X-25049Y-04878D01*
X-33835Y-00001D02*
X-33835Y00699D01*
X-33835Y00699D02*
X-33310Y00699D01*
X-33310Y00699D02*
X-33222Y00621D01*
X-33222Y00621D02*
X-33222Y00387D01*
X-33222Y00387D02*
X-33310Y00310D01*
X-33310Y00310D02*
X-33835Y00310D01*
X-32848Y-00001D02*
X-32498Y-00001D01*
X-32673Y-00001D02*
X-32673Y00699D01*
X-32673Y00621D02*
X-32848Y00465D01*
X-34496Y-05423D02*
X-34584Y-05500D01*
X-34584Y-05500D02*
X-35021Y-05500D01*
X-35021Y-05500D02*
X-35109Y-05423D01*
X-35109Y-05423D02*
X-35109Y-04878D01*
X-35109Y-04878D02*
X-35021Y-04800D01*
X-35021Y-04800D02*
X-34584Y-04800D01*
X-34584Y-04800D02*
X-34496Y-04878D01*
X-34209Y-05500D02*
X-34297Y-05423D01*
X-34297Y-05423D02*
X-34297Y-04878D01*
X-34297Y-04878D02*
X-34209Y-04800D01*
X-34209Y-04800D02*
X-33772Y-04800D01*
X-33772Y-04800D02*
X-33684Y-04878D01*
X-33684Y-04878D02*
X-33684Y-05423D01*
X-33684Y-05423D02*
X-33772Y-05500D01*
X-33772Y-05500D02*
X-34209Y-05500D01*
X-33485Y-05500D02*
X-33485Y-04800D01*
X-33485Y-04800D02*
X-32872Y-05500D01*
X-32872Y-05500D02*
X-32872Y-04800D01*
X-32673Y-05500D02*
X-32673Y-04800D01*
X-32673Y-04800D02*
X-32060Y-05500D01*
X-32060Y-05500D02*
X-32060Y-04800D01*
X-31861Y-05500D02*
X-31248Y-05500D01*
X-30436Y-05500D02*
X-31049Y-05500D01*
X-31049Y-05500D02*
X-31049Y-05267D01*
X-31049Y-05267D02*
X-30961Y-05189D01*
X-30961Y-05189D02*
X-30524Y-05189D01*
X-30524Y-05189D02*
X-30436Y-05112D01*
X-30436Y-05112D02*
X-30436Y-04878D01*
X-30436Y-04878D02*
X-30524Y-04800D01*
X-30524Y-04800D02*
X-30961Y-04800D01*
X-30961Y-04800D02*
X-31049Y-04878D01*
X-03835Y-00001D02*
X-03835Y00699D01*
X-03835Y00699D02*
X-03310Y00699D01*
X-03310Y00699D02*
X-03222Y00621D01*
X-03222Y00621D02*
X-03222Y00387D01*
X-03222Y00387D02*
X-03310Y00310D01*
X-03310Y00310D02*
X-03835Y00310D01*
X-02410Y00621D02*
X-02498Y00699D01*
X-02498Y00699D02*
X-02935Y00699D01*
X-02935Y00699D02*
X-03023Y00621D01*
X-03023Y00621D02*
X-03023Y00076D01*
X-03023Y00076D02*
X-02935Y-00001D01*
X-02935Y-00001D02*
X-02498Y-00001D01*
X-02498Y-00001D02*
X-02410Y00076D01*
X-02410Y00076D02*
X-02410Y00310D01*
X-02410Y00310D02*
X-02498Y00387D01*
X-02498Y00387D02*
X-02935Y00387D01*
X-02935Y00387D02*
X-03023Y00310D01*
X-04496Y-05423D02*
X-04584Y-05500D01*
X-04584Y-05500D02*
X-05021Y-05500D01*
X-05021Y-05500D02*
X-05109Y-05423D01*
X-05109Y-05423D02*
X-05109Y-04878D01*
X-05109Y-04878D02*
X-05021Y-04800D01*
X-05021Y-04800D02*
X-04584Y-04800D01*
X-04584Y-04800D02*
X-04496Y-04878D01*
X-04209Y-05500D02*
X-04297Y-05423D01*
X-04297Y-05423D02*
X-04297Y-04878D01*
X-04297Y-04878D02*
X-04209Y-04800D01*
X-04209Y-04800D02*
X-03772Y-04800D01*
X-03772Y-04800D02*
X-03684Y-04878D01*
X-03684Y-04878D02*
X-03684Y-05423D01*
X-03684Y-05423D02*
X-03772Y-05500D01*
X-03772Y-05500D02*
X-04209Y-05500D01*
X-03485Y-05500D02*
X-03485Y-04800D01*
X-03485Y-04800D02*
X-02872Y-05500D01*
X-02872Y-05500D02*
X-02872Y-04800D01*
X-02673Y-05500D02*
X-02673Y-04800D01*
X-02673Y-04800D02*
X-02060Y-05500D01*
X-02060Y-05500D02*
X-02060Y-04800D01*
X-01861Y-05500D02*
X-01248Y-05500D01*
X-00436Y-05500D02*
X-01049Y-05500D01*
X-01049Y-05500D02*
X-01049Y-05267D01*
X-01049Y-05267D02*
X-00961Y-05189D01*
X-00961Y-05189D02*
X-00524Y-05189D01*
X-00524Y-05189D02*
X-00436Y-05112D01*
X-00436Y-05112D02*
X-00436Y-04878D01*
X-00436Y-04878D02*
X-00524Y-04800D01*
X-00524Y-04800D02*
X-00961Y-04800D01*
X-00961Y-04800D02*
X-01049Y-04878D01*
X-20150Y-00513D02*
X-20650Y-00513D01*
X-20650Y-00513D02*
X-20650Y-00138D01*
X-20650Y-00138D02*
X-20594Y-00075D01*
X-20594Y-00075D02*
X-20427Y-00075D01*
X-20427Y-00075D02*
X-20372Y-00138D01*
X-20372Y-00138D02*
X-20372Y-00513D01*
X-20650Y00077D02*
X-20650Y00515D01*
X-20650Y00515D02*
X-20150Y00077D01*
X-20955Y-01505D02*
X-20900Y-01568D01*
X-20900Y-01568D02*
X-20900Y-01880D01*
X-20900Y-01880D02*
X-20955Y-01943D01*
X-20955Y-01943D02*
X-21344Y-01943D01*
X-21344Y-01943D02*
X-21400Y-01880D01*
X-21400Y-01880D02*
X-21400Y-01568D01*
X-21400Y-01568D02*
X-21344Y-01505D01*
X-20900Y-01290D02*
X-20955Y-01353D01*
X-20955Y-01353D02*
X-21344Y-01353D01*
X-21344Y-01353D02*
X-21400Y-01290D01*
X-21400Y-01290D02*
X-21400Y-00978D01*
X-21400Y-00978D02*
X-21344Y-00915D01*
X-21344Y-00915D02*
X-20955Y-00915D01*
X-20955Y-00915D02*
X-20900Y-00978D01*
X-20900Y-00978D02*
X-20900Y-01290D01*
X-20900Y-00763D02*
X-21400Y-00763D01*
X-21400Y-00763D02*
X-20900Y-00325D01*
X-20900Y-00325D02*
X-21400Y-00325D01*
X-20900Y-00173D02*
X-21400Y-00173D01*
X-21400Y-00173D02*
X-20900Y00265D01*
X-20900Y00265D02*
X-21400Y00265D01*
X-20900Y00417D02*
X-20900Y00855D01*
X-20900Y01445D02*
X-20900Y01007D01*
X-20900Y01007D02*
X-21066Y01007D01*
X-21066Y01007D02*
X-21122Y01070D01*
X-21122Y01070D02*
X-21122Y01382D01*
X-21122Y01382D02*
X-21177Y01445D01*
X-21177Y01445D02*
X-21344Y01445D01*
X-21344Y01445D02*
X-21400Y01382D01*
X-21400Y01382D02*
X-21400Y01070D01*
X-21400Y01070D02*
X-21344Y01007D01*
M02*
