M48
;DRILL file {PCBNEW (2007-07-09)} date 26/1/2008-14:05:40
;FORMAT={2:4 / absolute / pollici / decimal format}
R,T
VER,1
FMAT,2
INCH,TZ
TCST,OFF
ICI,OFF
ATC,ON
T1C0.025
T2C0.032
T3C0.036
T4C0.050
T5C0.051
%
M47
G05
M72
T1
X3.695Y1.570
X3.695Y1.715
X5.840Y1.700
X5.845Y1.970
X4.155Y1.905
X4.155Y1.560
X3.825Y1.265
X3.835Y1.715
T2
X5.085Y1.580
X5.185Y1.580
X5.285Y1.580
X5.385Y1.580
X5.485Y1.580
X5.585Y1.580
X5.685Y1.580
X5.785Y1.580
X5.785Y1.280
X5.685Y1.280
X5.585Y1.280
X5.485Y1.280
X5.385Y1.280
X5.285Y1.280
X5.185Y1.280
X5.085Y1.280
X4.885Y2.000
X4.985Y2.000
X5.085Y2.000
X5.185Y2.000
X5.285Y2.000
X5.385Y2.000
X5.485Y2.000
X5.585Y2.000
X5.685Y2.000
X5.685Y1.700
X5.585Y1.700
X5.485Y1.700
X5.385Y1.700
X5.285Y1.700
X5.185Y1.700
X5.085Y1.700
X4.985Y1.700
X4.885Y1.700
X5.785Y1.030
X5.685Y1.030
X5.192Y1.025
X5.092Y1.025
X4.590Y1.025
X4.490Y1.025
X3.992Y1.033
X3.892Y1.033
X3.392Y1.030
X3.293Y1.030
X4.600Y1.915
X4.600Y1.815
X4.600Y1.715
X4.600Y1.615
X4.300Y1.615
X4.300Y1.715
X4.300Y1.815
X4.300Y1.915
X6.392Y1.038
X6.293Y1.038
T3
X3.440Y1.425
X3.540Y1.425
X3.640Y1.425
X3.740Y1.425
T4
X5.640Y0.250
X5.840Y0.250
X5.040Y0.250
X5.240Y0.250
X4.440Y0.250
X4.640Y0.250
X3.840Y0.250
X4.040Y0.250
X3.240Y0.250
X3.440Y0.250
X6.240Y0.250
X6.440Y0.250
X4.820Y0.105
T5
X6.587Y0.725
X6.293Y0.722
X6.640Y0.475
X6.440Y0.525
X6.240Y0.475
X5.987Y0.725
X5.692Y0.722
X6.040Y0.475
X5.840Y0.525
X5.640Y0.475
X5.387Y0.725
X5.092Y0.722
X5.440Y0.475
X5.240Y0.525
X5.040Y0.475
X4.787Y0.725
X4.492Y0.722
X4.840Y0.475
X4.640Y0.525
X4.440Y0.475
X4.188Y0.725
X3.892Y0.722
X4.240Y0.475
X4.040Y0.525
X3.840Y0.475
X3.587Y0.725
X3.293Y0.722
X3.640Y0.475
X3.440Y0.525
X3.240Y0.475
T0
M30
