G04 (Genere par PCBNEW (2007-07-09)) le 26/1/2008-14:05:25*
G01*
G70*
G90*
%MOIN*%
G04 Gerber Fmt 3.4, Leading zero omitted, Abs format*
%FSLAX34Y34*%
G04 APERTURE LIST*
%ADD10C,0.015000*%
%ADD11C,0.079700*%
%ADD12R,0.062000X0.090000*%
%ADD13O,0.062000X0.090000*%
%ADD14R,0.055000X0.055000*%
%ADD15C,0.055000*%
%ADD16R,0.035000X0.055000*%
%ADD17R,0.055000X0.035000*%
%ADD18R,0.020000X0.045000*%
%ADD19O,0.056000X0.112000*%
%ADD20O,0.104000X0.052000*%
%ADD21R,0.036000X0.036000*%
%ADD22C,0.090000*%
%ADD23C,0.100000*%
%ADD24C,0.045000*%
%ADD25C,0.050000*%
%ADD26C,0.017000*%
%ADD27C,0.025000*%
%ADD28C,0.100000*%
%ADD29C,0.005000*%
%ADD30C,0.006000*%
%ADD31C,0.008000*%
G04 APERTURE END LIST*
G54D10*
X-09050Y-20750D02*
X00000Y-11700D01*
X-28200Y-20750D02*
X-36400Y-12550D01*
X-09050Y-20750D02*
X-28200Y-20750D01*
X-36400Y00000D02*
X-36400Y-12550D01*
X00000Y00000D02*
X-36400Y00000D01*
X01250Y00000D02*
X01154Y-00478D01*
X01154Y-00478D02*
X00883Y-00883D01*
X00883Y-00883D02*
X00478Y-01154D01*
X00478Y-01154D02*
X00000Y-01250D01*
X00000Y-01250D02*
X-00478Y-01154D01*
X-00478Y-01154D02*
X-00883Y-00883D01*
X-00883Y-00883D02*
X-01154Y-00478D01*
X-01154Y-00478D02*
X-01250Y00000D01*
X-01250Y00000D02*
X-01154Y00478D01*
X-01154Y00478D02*
X-00883Y00883D01*
X-00883Y00883D02*
X-00478Y01154D01*
X-00478Y01154D02*
X00000Y01250D01*
X00000Y01250D02*
X00478Y01154D01*
X00478Y01154D02*
X00883Y00883D01*
X00883Y00883D02*
X01154Y00478D01*
X01154Y00478D02*
X01250Y00000D01*
X-02500Y00000D02*
X02500Y00000D01*
X00000Y02500D02*
X00000Y-02500D01*
X00000Y-10050D02*
X00000Y-11700D01*
X00000Y00000D02*
X00000Y-10050D01*
X-67600Y17950D02*
X-43800Y17950D01*
X-43900Y17950D02*
X-67600Y17950D01*
X-67600Y17950D02*
X-43900Y17950D01*
G54D29*
X-30300Y-15400D02*
X-30325Y-15443D01*
X-30325Y-15443D02*
X-30375Y-15443D01*
X-30375Y-15443D02*
X-30400Y-15400D01*
X-30400Y-15400D02*
X-30375Y-15357D01*
X-30375Y-15357D02*
X-30325Y-15357D01*
X-30325Y-15357D02*
X-30300Y-15400D01*
X-29900Y-15400D02*
X-30300Y-15400D01*
X-30300Y-15400D02*
X-30300Y-16000D01*
X-30300Y-16000D02*
X-29900Y-16000D01*
X-29500Y-16000D02*
X-29100Y-16000D01*
X-29100Y-16000D02*
X-29100Y-15400D01*
X-29100Y-15400D02*
X-29500Y-15400D01*
X-28800Y-19050D02*
X-28825Y-19093D01*
X-28825Y-19093D02*
X-28875Y-19093D01*
X-28875Y-19093D02*
X-28900Y-19050D01*
X-28900Y-19050D02*
X-28875Y-19007D01*
X-28875Y-19007D02*
X-28825Y-19007D01*
X-28825Y-19007D02*
X-28800Y-19050D01*
X-28400Y-19050D02*
X-28800Y-19050D01*
X-28800Y-19050D02*
X-28800Y-19650D01*
X-28800Y-19650D02*
X-28400Y-19650D01*
X-28000Y-19650D02*
X-27600Y-19650D01*
X-27600Y-19650D02*
X-27600Y-19050D01*
X-27600Y-19050D02*
X-28000Y-19050D01*
X-22400Y-19450D02*
X-22425Y-19493D01*
X-22425Y-19493D02*
X-22475Y-19493D01*
X-22475Y-19493D02*
X-22500Y-19450D01*
X-22500Y-19450D02*
X-22475Y-19407D01*
X-22475Y-19407D02*
X-22425Y-19407D01*
X-22425Y-19407D02*
X-22400Y-19450D01*
X-22900Y-19450D02*
X-22500Y-19450D01*
X-22500Y-19450D02*
X-22500Y-18850D01*
X-22500Y-18850D02*
X-22900Y-18850D01*
X-23300Y-18850D02*
X-23700Y-18850D01*
X-23700Y-18850D02*
X-23700Y-19450D01*
X-23700Y-19450D02*
X-23300Y-19450D01*
X-23700Y-17850D02*
X-23725Y-17893D01*
X-23725Y-17893D02*
X-23775Y-17893D01*
X-23775Y-17893D02*
X-23800Y-17850D01*
X-23800Y-17850D02*
X-23775Y-17807D01*
X-23775Y-17807D02*
X-23725Y-17807D01*
X-23725Y-17807D02*
X-23700Y-17850D01*
X-23300Y-17850D02*
X-23700Y-17850D01*
X-23700Y-17850D02*
X-23700Y-18450D01*
X-23700Y-18450D02*
X-23300Y-18450D01*
X-22900Y-18450D02*
X-22500Y-18450D01*
X-22500Y-18450D02*
X-22500Y-17850D01*
X-22500Y-17850D02*
X-22900Y-17850D01*
X-23700Y-16900D02*
X-23725Y-16943D01*
X-23725Y-16943D02*
X-23775Y-16943D01*
X-23775Y-16943D02*
X-23800Y-16900D01*
X-23800Y-16900D02*
X-23775Y-16857D01*
X-23775Y-16857D02*
X-23725Y-16857D01*
X-23725Y-16857D02*
X-23700Y-16900D01*
X-23300Y-16900D02*
X-23700Y-16900D01*
X-23700Y-16900D02*
X-23700Y-17500D01*
X-23700Y-17500D02*
X-23300Y-17500D01*
X-22900Y-17500D02*
X-22500Y-17500D01*
X-22500Y-17500D02*
X-22500Y-16900D01*
X-22500Y-16900D02*
X-22900Y-16900D01*
X-32200Y-15300D02*
X-32225Y-15343D01*
X-32225Y-15343D02*
X-32275Y-15343D01*
X-32275Y-15343D02*
X-32300Y-15300D01*
X-32300Y-15300D02*
X-32275Y-15257D01*
X-32275Y-15257D02*
X-32225Y-15257D01*
X-32225Y-15257D02*
X-32200Y-15300D01*
X-31800Y-15300D02*
X-32200Y-15300D01*
X-32200Y-15300D02*
X-32200Y-15900D01*
X-32200Y-15900D02*
X-31800Y-15900D01*
X-31400Y-15900D02*
X-31000Y-15900D01*
X-31000Y-15900D02*
X-31000Y-15300D01*
X-31000Y-15300D02*
X-31400Y-15300D01*
X-33400Y-11750D02*
X-33425Y-11793D01*
X-33425Y-11793D02*
X-33475Y-11793D01*
X-33475Y-11793D02*
X-33500Y-11750D01*
X-33500Y-11750D02*
X-33475Y-11707D01*
X-33475Y-11707D02*
X-33425Y-11707D01*
X-33425Y-11707D02*
X-33400Y-11750D01*
X-33000Y-11750D02*
X-33400Y-11750D01*
X-33400Y-11750D02*
X-33400Y-12350D01*
X-33400Y-12350D02*
X-33000Y-12350D01*
X-32600Y-12350D02*
X-32200Y-12350D01*
X-32200Y-12350D02*
X-32200Y-11750D01*
X-32200Y-11750D02*
X-32600Y-11750D01*
X-27950Y-14700D02*
X-27975Y-14743D01*
X-27975Y-14743D02*
X-28025Y-14743D01*
X-28025Y-14743D02*
X-28050Y-14700D01*
X-28050Y-14700D02*
X-28025Y-14657D01*
X-28025Y-14657D02*
X-27975Y-14657D01*
X-27975Y-14657D02*
X-27950Y-14700D01*
X-28450Y-14700D02*
X-28050Y-14700D01*
X-28050Y-14700D02*
X-28050Y-14100D01*
X-28050Y-14100D02*
X-28450Y-14100D01*
X-28850Y-14100D02*
X-29250Y-14100D01*
X-29250Y-14100D02*
X-29250Y-14700D01*
X-29250Y-14700D02*
X-28850Y-14700D01*
X-25900Y-16100D02*
X-25925Y-16143D01*
X-25925Y-16143D02*
X-25975Y-16143D01*
X-25975Y-16143D02*
X-26000Y-16100D01*
X-26000Y-16100D02*
X-25975Y-16057D01*
X-25975Y-16057D02*
X-25925Y-16057D01*
X-25925Y-16057D02*
X-25900Y-16100D01*
X-25950Y-16550D02*
X-25950Y-16150D01*
X-25950Y-16150D02*
X-26550Y-16150D01*
X-26550Y-16150D02*
X-26550Y-16550D01*
X-26550Y-16950D02*
X-26550Y-17350D01*
X-26550Y-17350D02*
X-25950Y-17350D01*
X-25950Y-17350D02*
X-25950Y-16950D01*
X-28850Y-16700D02*
X-28850Y-16650D01*
X-28850Y-16650D02*
X-26750Y-16650D01*
X-26750Y-18150D02*
X-28850Y-18150D01*
X-28850Y-18150D02*
X-28850Y-16700D01*
X-28850Y-17600D02*
X-28650Y-17600D01*
X-28650Y-17600D02*
X-28650Y-17200D01*
X-28650Y-17200D02*
X-28850Y-17200D01*
X-26750Y-18150D02*
X-26750Y-16650D01*
X-30950Y-12100D02*
X-30950Y-13300D01*
X-30950Y-13300D02*
X-30650Y-13300D01*
X-30650Y-13300D02*
X-30650Y-12100D01*
X-30650Y-12100D02*
X-30950Y-12100D01*
X-01400Y-10675D02*
X-01425Y-10718D01*
X-01425Y-10718D02*
X-01475Y-10718D01*
X-01475Y-10718D02*
X-01500Y-10675D01*
X-01500Y-10675D02*
X-01475Y-10632D01*
X-01475Y-10632D02*
X-01425Y-10632D01*
X-01425Y-10632D02*
X-01400Y-10675D01*
X-01900Y-10675D02*
X-01500Y-10675D01*
X-01500Y-10675D02*
X-01500Y-10075D01*
X-01500Y-10075D02*
X-01900Y-10075D01*
X-02300Y-10075D02*
X-02700Y-10075D01*
X-02700Y-10075D02*
X-02700Y-10675D01*
X-02700Y-10675D02*
X-02300Y-10675D01*
X-07400Y-10600D02*
X-07425Y-10643D01*
X-07425Y-10643D02*
X-07475Y-10643D01*
X-07475Y-10643D02*
X-07500Y-10600D01*
X-07500Y-10600D02*
X-07475Y-10557D01*
X-07475Y-10557D02*
X-07425Y-10557D01*
X-07425Y-10557D02*
X-07400Y-10600D01*
X-07900Y-10600D02*
X-07500Y-10600D01*
X-07500Y-10600D02*
X-07500Y-10000D01*
X-07500Y-10000D02*
X-07900Y-10000D01*
X-08300Y-10000D02*
X-08700Y-10000D01*
X-08700Y-10000D02*
X-08700Y-10600D01*
X-08700Y-10600D02*
X-08300Y-10600D01*
X-13400Y-10550D02*
X-13425Y-10593D01*
X-13425Y-10593D02*
X-13475Y-10593D01*
X-13475Y-10593D02*
X-13500Y-10550D01*
X-13500Y-10550D02*
X-13475Y-10507D01*
X-13475Y-10507D02*
X-13425Y-10507D01*
X-13425Y-10507D02*
X-13400Y-10550D01*
X-13900Y-10550D02*
X-13500Y-10550D01*
X-13500Y-10550D02*
X-13500Y-09950D01*
X-13500Y-09950D02*
X-13900Y-09950D01*
X-14300Y-09950D02*
X-14700Y-09950D01*
X-14700Y-09950D02*
X-14700Y-10550D01*
X-14700Y-10550D02*
X-14300Y-10550D01*
X-19400Y-10550D02*
X-19425Y-10593D01*
X-19425Y-10593D02*
X-19475Y-10593D01*
X-19475Y-10593D02*
X-19500Y-10550D01*
X-19500Y-10550D02*
X-19475Y-10507D01*
X-19475Y-10507D02*
X-19425Y-10507D01*
X-19425Y-10507D02*
X-19400Y-10550D01*
X-19900Y-10550D02*
X-19500Y-10550D01*
X-19500Y-10550D02*
X-19500Y-09950D01*
X-19500Y-09950D02*
X-19900Y-09950D01*
X-20300Y-09950D02*
X-20700Y-09950D01*
X-20700Y-09950D02*
X-20700Y-10550D01*
X-20700Y-10550D02*
X-20300Y-10550D01*
X-25400Y-10625D02*
X-25425Y-10668D01*
X-25425Y-10668D02*
X-25475Y-10668D01*
X-25475Y-10668D02*
X-25500Y-10625D01*
X-25500Y-10625D02*
X-25475Y-10582D01*
X-25475Y-10582D02*
X-25425Y-10582D01*
X-25425Y-10582D02*
X-25400Y-10625D01*
X-25900Y-10625D02*
X-25500Y-10625D01*
X-25500Y-10625D02*
X-25500Y-10025D01*
X-25500Y-10025D02*
X-25900Y-10025D01*
X-26300Y-10025D02*
X-26700Y-10025D01*
X-26700Y-10025D02*
X-26700Y-10625D01*
X-26700Y-10625D02*
X-26300Y-10625D01*
X-31400Y-10600D02*
X-31425Y-10643D01*
X-31425Y-10643D02*
X-31475Y-10643D01*
X-31475Y-10643D02*
X-31500Y-10600D01*
X-31500Y-10600D02*
X-31475Y-10557D01*
X-31475Y-10557D02*
X-31425Y-10557D01*
X-31425Y-10557D02*
X-31400Y-10600D01*
X-31900Y-10600D02*
X-31500Y-10600D01*
X-31500Y-10600D02*
X-31500Y-10000D01*
X-31500Y-10000D02*
X-31900Y-10000D01*
X-32300Y-10000D02*
X-32700Y-10000D01*
X-32700Y-10000D02*
X-32700Y-10600D01*
X-32700Y-10600D02*
X-32300Y-10600D01*
X-29960Y-15575D02*
X-29960Y-15825D01*
X-29960Y-15825D02*
X-29773Y-15825D01*
X-29773Y-15825D02*
X-29741Y-15797D01*
X-29741Y-15797D02*
X-29741Y-15713D01*
X-29741Y-15713D02*
X-29773Y-15686D01*
X-29773Y-15686D02*
X-29960Y-15686D01*
X-29866Y-15686D02*
X-29741Y-15575D01*
X-29633Y-15825D02*
X-29414Y-15825D01*
X-29414Y-15825D02*
X-29633Y-15575D01*
X-28460Y-19225D02*
X-28460Y-19475D01*
X-28460Y-19475D02*
X-28273Y-19475D01*
X-28273Y-19475D02*
X-28241Y-19447D01*
X-28241Y-19447D02*
X-28241Y-19363D01*
X-28241Y-19363D02*
X-28273Y-19336D01*
X-28273Y-19336D02*
X-28460Y-19336D01*
X-28366Y-19336D02*
X-28241Y-19225D01*
X-27914Y-19447D02*
X-27946Y-19475D01*
X-27946Y-19475D02*
X-28102Y-19475D01*
X-28102Y-19475D02*
X-28133Y-19447D01*
X-28133Y-19447D02*
X-28133Y-19252D01*
X-28133Y-19252D02*
X-28102Y-19225D01*
X-28102Y-19225D02*
X-27946Y-19225D01*
X-27946Y-19225D02*
X-27914Y-19252D01*
X-27914Y-19252D02*
X-27914Y-19336D01*
X-27914Y-19336D02*
X-27946Y-19363D01*
X-27946Y-19363D02*
X-28102Y-19363D01*
X-28102Y-19363D02*
X-28133Y-19336D01*
X-23360Y-19025D02*
X-23360Y-19275D01*
X-23360Y-19275D02*
X-23173Y-19275D01*
X-23173Y-19275D02*
X-23141Y-19247D01*
X-23141Y-19247D02*
X-23141Y-19163D01*
X-23141Y-19163D02*
X-23173Y-19136D01*
X-23173Y-19136D02*
X-23360Y-19136D01*
X-23266Y-19136D02*
X-23141Y-19025D01*
X-23033Y-19080D02*
X-23033Y-19052D01*
X-23033Y-19052D02*
X-23002Y-19025D01*
X-23002Y-19025D02*
X-22846Y-19025D01*
X-22846Y-19025D02*
X-22814Y-19052D01*
X-22814Y-19052D02*
X-22814Y-19136D01*
X-22814Y-19136D02*
X-22877Y-19191D01*
X-22877Y-19191D02*
X-23033Y-19191D01*
X-23033Y-19191D02*
X-23033Y-19275D01*
X-23033Y-19275D02*
X-22814Y-19275D01*
X-23360Y-18025D02*
X-23360Y-18275D01*
X-23360Y-18275D02*
X-23173Y-18275D01*
X-23173Y-18275D02*
X-23141Y-18247D01*
X-23141Y-18247D02*
X-23141Y-18163D01*
X-23141Y-18163D02*
X-23173Y-18136D01*
X-23173Y-18136D02*
X-23360Y-18136D01*
X-23266Y-18136D02*
X-23141Y-18025D01*
X-22877Y-18025D02*
X-22877Y-18275D01*
X-22877Y-18275D02*
X-23033Y-18080D01*
X-23033Y-18080D02*
X-22814Y-18080D01*
X-23360Y-17075D02*
X-23360Y-17325D01*
X-23360Y-17325D02*
X-23173Y-17325D01*
X-23173Y-17325D02*
X-23141Y-17297D01*
X-23141Y-17297D02*
X-23141Y-17213D01*
X-23141Y-17213D02*
X-23173Y-17186D01*
X-23173Y-17186D02*
X-23360Y-17186D01*
X-23266Y-17186D02*
X-23141Y-17075D01*
X-23033Y-17325D02*
X-22814Y-17325D01*
X-22814Y-17325D02*
X-22814Y-17297D01*
X-22814Y-17297D02*
X-22939Y-17213D01*
X-22939Y-17213D02*
X-22846Y-17213D01*
X-22846Y-17213D02*
X-22814Y-17186D01*
X-22814Y-17186D02*
X-22814Y-17102D01*
X-22814Y-17102D02*
X-22846Y-17075D01*
X-22846Y-17075D02*
X-23002Y-17075D01*
X-23002Y-17075D02*
X-23033Y-17102D01*
X-31860Y-15475D02*
X-31860Y-15725D01*
X-31860Y-15725D02*
X-31673Y-15725D01*
X-31673Y-15725D02*
X-31641Y-15697D01*
X-31641Y-15697D02*
X-31641Y-15613D01*
X-31641Y-15613D02*
X-31673Y-15586D01*
X-31673Y-15586D02*
X-31860Y-15586D01*
X-31766Y-15586D02*
X-31641Y-15475D01*
X-31314Y-15475D02*
X-31533Y-15475D01*
X-31533Y-15475D02*
X-31533Y-15558D01*
X-31533Y-15558D02*
X-31502Y-15586D01*
X-31502Y-15586D02*
X-31346Y-15586D01*
X-31346Y-15586D02*
X-31314Y-15613D01*
X-31314Y-15613D02*
X-31314Y-15697D01*
X-31314Y-15697D02*
X-31346Y-15725D01*
X-31346Y-15725D02*
X-31502Y-15725D01*
X-31502Y-15725D02*
X-31533Y-15697D01*
X-33060Y-11925D02*
X-33060Y-12175D01*
X-33060Y-12175D02*
X-32873Y-12175D01*
X-32873Y-12175D02*
X-32841Y-12147D01*
X-32841Y-12147D02*
X-32841Y-12063D01*
X-32841Y-12063D02*
X-32873Y-12036D01*
X-32873Y-12036D02*
X-33060Y-12036D01*
X-32966Y-12036D02*
X-32841Y-11925D01*
X-32671Y-11925D02*
X-32546Y-11925D01*
X-32608Y-11925D02*
X-32608Y-12175D01*
X-32608Y-12147D02*
X-32671Y-12091D01*
X-28691Y-14302D02*
X-28723Y-14275D01*
X-28723Y-14275D02*
X-28879Y-14275D01*
X-28879Y-14275D02*
X-28910Y-14302D01*
X-28910Y-14302D02*
X-28910Y-14497D01*
X-28910Y-14497D02*
X-28879Y-14525D01*
X-28879Y-14525D02*
X-28723Y-14525D01*
X-28723Y-14525D02*
X-28691Y-14497D01*
X-28364Y-14275D02*
X-28583Y-14275D01*
X-28583Y-14275D02*
X-28583Y-14358D01*
X-28583Y-14358D02*
X-28552Y-14386D01*
X-28552Y-14386D02*
X-28396Y-14386D01*
X-28396Y-14386D02*
X-28364Y-14413D01*
X-28364Y-14413D02*
X-28364Y-14497D01*
X-28364Y-14497D02*
X-28396Y-14525D01*
X-28396Y-14525D02*
X-28552Y-14525D01*
X-28552Y-14525D02*
X-28583Y-14497D01*
X-26348Y-16791D02*
X-26375Y-16823D01*
X-26375Y-16823D02*
X-26375Y-16979D01*
X-26375Y-16979D02*
X-26348Y-17010D01*
X-26348Y-17010D02*
X-26153Y-17010D01*
X-26153Y-17010D02*
X-26125Y-16979D01*
X-26125Y-16979D02*
X-26125Y-16823D01*
X-26125Y-16823D02*
X-26153Y-16791D01*
X-26375Y-16621D02*
X-26375Y-16496D01*
X-26375Y-16558D02*
X-26125Y-16558D01*
X-26153Y-16558D02*
X-26209Y-16621D01*
G54D30*
X-28242Y-17275D02*
X-28242Y-16875D01*
X-28242Y-16875D02*
X-28186Y-16825D01*
X-28186Y-16825D02*
X-27905Y-16825D01*
X-27905Y-16825D02*
X-27848Y-16875D01*
X-27848Y-16875D02*
X-27848Y-17275D01*
X-27570Y-16825D02*
X-27345Y-16825D01*
X-27457Y-16825D02*
X-27457Y-17275D01*
X-27457Y-17225D02*
X-27570Y-17125D01*
X-29500Y-17625D02*
X-29500Y-17975D01*
X-29500Y-17975D02*
X-29237Y-17975D01*
X-29237Y-17975D02*
X-29193Y-17936D01*
X-29193Y-17936D02*
X-29193Y-17819D01*
X-29193Y-17819D02*
X-29237Y-17780D01*
X-29237Y-17780D02*
X-29500Y-17780D01*
X-29008Y-17625D02*
X-29052Y-17663D01*
X-29052Y-17663D02*
X-29052Y-17780D01*
X-29052Y-17780D02*
X-29008Y-17819D01*
X-29008Y-17819D02*
X-28789Y-17819D01*
X-28789Y-17819D02*
X-28745Y-17858D01*
X-28745Y-17858D02*
X-28745Y-17936D01*
X-28745Y-17936D02*
X-28789Y-17975D01*
X-28789Y-17975D02*
X-29008Y-17975D01*
X-29008Y-17975D02*
X-29052Y-17936D01*
X-29052Y-17936D02*
X-29052Y-17858D01*
X-29052Y-17858D02*
X-29008Y-17819D01*
X-28789Y-17819D02*
X-28745Y-17780D01*
X-28745Y-17780D02*
X-28745Y-17663D01*
X-28745Y-17663D02*
X-28789Y-17625D01*
X-28789Y-17625D02*
X-29008Y-17625D01*
X-28297Y-17625D02*
X-28604Y-17625D01*
X-28604Y-17625D02*
X-28604Y-17741D01*
X-28604Y-17741D02*
X-28560Y-17780D01*
X-28560Y-17780D02*
X-28341Y-17780D01*
X-28341Y-17780D02*
X-28297Y-17819D01*
X-28297Y-17819D02*
X-28297Y-17936D01*
X-28297Y-17936D02*
X-28341Y-17975D01*
X-28341Y-17975D02*
X-28560Y-17975D01*
X-28560Y-17975D02*
X-28604Y-17936D01*
X-28156Y-17625D02*
X-28156Y-17975D01*
X-28156Y-17975D02*
X-27893Y-17975D01*
X-27893Y-17975D02*
X-27849Y-17936D01*
X-27849Y-17936D02*
X-27849Y-17858D01*
X-27849Y-17858D02*
X-27893Y-17819D01*
X-27893Y-17819D02*
X-28156Y-17819D01*
X-27893Y-17819D02*
X-27849Y-17741D01*
X-27849Y-17741D02*
X-27849Y-17663D01*
X-27849Y-17663D02*
X-27893Y-17625D01*
X-27893Y-17625D02*
X-28156Y-17625D01*
X-27664Y-17625D02*
X-27445Y-17625D01*
X-27445Y-17625D02*
X-27401Y-17663D01*
X-27401Y-17663D02*
X-27401Y-17936D01*
X-27401Y-17936D02*
X-27445Y-17975D01*
X-27445Y-17975D02*
X-27664Y-17975D01*
X-27664Y-17975D02*
X-27708Y-17936D01*
X-27708Y-17936D02*
X-27708Y-17819D01*
X-27708Y-17819D02*
X-27664Y-17780D01*
X-27664Y-17780D02*
X-27445Y-17780D01*
X-27445Y-17780D02*
X-27401Y-17819D01*
X-26953Y-17936D02*
X-26997Y-17975D01*
X-26997Y-17975D02*
X-27216Y-17975D01*
X-27216Y-17975D02*
X-27260Y-17936D01*
X-27260Y-17936D02*
X-27260Y-17663D01*
X-27260Y-17663D02*
X-27216Y-17625D01*
X-27216Y-17625D02*
X-26997Y-17625D01*
X-26997Y-17625D02*
X-26953Y-17663D01*
X-26953Y-17663D02*
X-26953Y-17780D01*
X-26953Y-17780D02*
X-26997Y-17819D01*
X-26997Y-17819D02*
X-27216Y-17819D01*
X-27216Y-17819D02*
X-27260Y-17780D01*
X-26812Y-17975D02*
X-26462Y-17975D01*
X-26637Y-17975D02*
X-26637Y-17625D01*
X-26320Y-17625D02*
X-26320Y-17975D01*
X-26364Y-17975D02*
X-26101Y-17975D01*
X-26101Y-17975D02*
X-26057Y-17936D01*
X-26057Y-17936D02*
X-26057Y-17663D01*
X-26057Y-17663D02*
X-26101Y-17625D01*
X-26101Y-17625D02*
X-26364Y-17625D01*
G54D31*
X-30000Y-12993D02*
X-29700Y-12993D01*
X-29700Y-13031D02*
X-29700Y-12806D01*
X-29700Y-12806D02*
X-29734Y-12768D01*
X-29734Y-12768D02*
X-29967Y-12768D01*
X-29967Y-12768D02*
X-30000Y-12806D01*
X-30000Y-12806D02*
X-30000Y-13031D01*
X-30000Y-12543D02*
X-30000Y-12393D01*
X-30000Y-12468D02*
X-29700Y-12468D01*
X-29734Y-12468D02*
X-29800Y-12543D01*
G54D29*
X-02523Y-10250D02*
X-02523Y-10500D01*
X-02523Y-10500D02*
X-02336Y-10500D01*
X-02336Y-10500D02*
X-02304Y-10472D01*
X-02304Y-10472D02*
X-02304Y-10388D01*
X-02304Y-10388D02*
X-02336Y-10361D01*
X-02336Y-10361D02*
X-02523Y-10361D01*
X-02429Y-10361D02*
X-02304Y-10250D01*
X-02134Y-10250D02*
X-02009Y-10250D01*
X-02071Y-10250D02*
X-02071Y-10500D01*
X-02071Y-10472D02*
X-02134Y-10416D01*
X-01869Y-10500D02*
X-01650Y-10500D01*
X-01650Y-10500D02*
X-01650Y-10472D01*
X-01650Y-10472D02*
X-01775Y-10388D01*
X-01775Y-10388D02*
X-01682Y-10388D01*
X-01682Y-10388D02*
X-01650Y-10361D01*
X-01650Y-10361D02*
X-01650Y-10277D01*
X-01650Y-10277D02*
X-01682Y-10250D01*
X-01682Y-10250D02*
X-01838Y-10250D01*
X-01838Y-10250D02*
X-01869Y-10277D01*
X-08523Y-10175D02*
X-08523Y-10425D01*
X-08523Y-10425D02*
X-08336Y-10425D01*
X-08336Y-10425D02*
X-08304Y-10397D01*
X-08304Y-10397D02*
X-08304Y-10313D01*
X-08304Y-10313D02*
X-08336Y-10286D01*
X-08336Y-10286D02*
X-08523Y-10286D01*
X-08429Y-10286D02*
X-08304Y-10175D01*
X-08134Y-10175D02*
X-08009Y-10175D01*
X-08071Y-10175D02*
X-08071Y-10425D01*
X-08071Y-10397D02*
X-08134Y-10341D01*
X-07650Y-10175D02*
X-07869Y-10175D01*
X-07869Y-10175D02*
X-07869Y-10258D01*
X-07869Y-10258D02*
X-07838Y-10286D01*
X-07838Y-10286D02*
X-07682Y-10286D01*
X-07682Y-10286D02*
X-07650Y-10313D01*
X-07650Y-10313D02*
X-07650Y-10397D01*
X-07650Y-10397D02*
X-07682Y-10425D01*
X-07682Y-10425D02*
X-07838Y-10425D01*
X-07838Y-10425D02*
X-07869Y-10397D01*
X-14523Y-10125D02*
X-14523Y-10375D01*
X-14523Y-10375D02*
X-14336Y-10375D01*
X-14336Y-10375D02*
X-14304Y-10347D01*
X-14304Y-10347D02*
X-14304Y-10263D01*
X-14304Y-10263D02*
X-14336Y-10236D01*
X-14336Y-10236D02*
X-14523Y-10236D01*
X-14429Y-10236D02*
X-14304Y-10125D01*
X-14134Y-10125D02*
X-14009Y-10125D01*
X-14071Y-10125D02*
X-14071Y-10375D01*
X-14071Y-10347D02*
X-14134Y-10291D01*
X-13807Y-10125D02*
X-13682Y-10125D01*
X-13744Y-10125D02*
X-13744Y-10375D01*
X-13744Y-10347D02*
X-13807Y-10291D01*
X-20523Y-10125D02*
X-20523Y-10375D01*
X-20523Y-10375D02*
X-20336Y-10375D01*
X-20336Y-10375D02*
X-20304Y-10347D01*
X-20304Y-10347D02*
X-20304Y-10263D01*
X-20304Y-10263D02*
X-20336Y-10236D01*
X-20336Y-10236D02*
X-20523Y-10236D01*
X-20429Y-10236D02*
X-20304Y-10125D01*
X-20134Y-10125D02*
X-20009Y-10125D01*
X-20071Y-10125D02*
X-20071Y-10375D01*
X-20071Y-10347D02*
X-20134Y-10291D01*
X-19869Y-10125D02*
X-19650Y-10375D01*
X-19869Y-10152D02*
X-19869Y-10347D01*
X-19869Y-10347D02*
X-19838Y-10375D01*
X-19838Y-10375D02*
X-19682Y-10375D01*
X-19682Y-10375D02*
X-19650Y-10347D01*
X-19650Y-10347D02*
X-19650Y-10152D01*
X-19650Y-10152D02*
X-19682Y-10125D01*
X-19682Y-10125D02*
X-19838Y-10125D01*
X-19838Y-10125D02*
X-19869Y-10152D01*
X-26360Y-10200D02*
X-26360Y-10450D01*
X-26360Y-10450D02*
X-26173Y-10450D01*
X-26173Y-10450D02*
X-26141Y-10422D01*
X-26141Y-10422D02*
X-26141Y-10338D01*
X-26141Y-10338D02*
X-26173Y-10311D01*
X-26173Y-10311D02*
X-26360Y-10311D01*
X-26266Y-10311D02*
X-26141Y-10200D01*
X-26002Y-10200D02*
X-25846Y-10200D01*
X-25846Y-10200D02*
X-25814Y-10227D01*
X-25814Y-10227D02*
X-25814Y-10422D01*
X-25814Y-10422D02*
X-25846Y-10450D01*
X-25846Y-10450D02*
X-26002Y-10450D01*
X-26002Y-10450D02*
X-26033Y-10422D01*
X-26033Y-10422D02*
X-26033Y-10338D01*
X-26033Y-10338D02*
X-26002Y-10311D01*
X-26002Y-10311D02*
X-25846Y-10311D01*
X-25846Y-10311D02*
X-25814Y-10338D01*
X-32360Y-10175D02*
X-32360Y-10425D01*
X-32360Y-10425D02*
X-32173Y-10425D01*
X-32173Y-10425D02*
X-32141Y-10397D01*
X-32141Y-10397D02*
X-32141Y-10313D01*
X-32141Y-10313D02*
X-32173Y-10286D01*
X-32173Y-10286D02*
X-32360Y-10286D01*
X-32266Y-10286D02*
X-32141Y-10175D01*
X-32002Y-10175D02*
X-32033Y-10202D01*
X-32033Y-10202D02*
X-32033Y-10286D01*
X-32033Y-10286D02*
X-32002Y-10313D01*
X-32002Y-10313D02*
X-31846Y-10313D01*
X-31846Y-10313D02*
X-31814Y-10341D01*
X-31814Y-10341D02*
X-31814Y-10397D01*
X-31814Y-10397D02*
X-31846Y-10425D01*
X-31846Y-10425D02*
X-32002Y-10425D01*
X-32002Y-10425D02*
X-32033Y-10397D01*
X-32033Y-10397D02*
X-32033Y-10341D01*
X-32033Y-10341D02*
X-32002Y-10313D01*
X-31846Y-10313D02*
X-31814Y-10286D01*
X-31814Y-10286D02*
X-31814Y-10202D01*
X-31814Y-10202D02*
X-31846Y-10175D01*
X-31846Y-10175D02*
X-32002Y-10175D01*
M02*
