G04 (Genere par PCBNEW (2007-07-09)) le 26/11/2007-16:27:27*
G01*
G70*
G90*
%MOIN*%
G04 Gerber Fmt 3.4, Leading zero omitted, Abs format*
%FSLAX34Y34*%
G04 APERTURE LIST*
%ADD10C,0.015000*%
%ADD11O,0.112000X0.056000*%
%ADD12O,0.056000X0.112000*%
%ADD13O,0.104000X0.052000*%
%ADD14C,0.055000*%
%ADD15R,0.065000X0.065000*%
%ADD16C,0.065000*%
%ADD17R,0.036000X0.036000*%
%ADD18R,0.055000X0.055000*%
%ADD19C,0.017000*%
%ADD20C,0.005000*%
%ADD21C,0.008000*%
%ADD22C,0.002600*%
%ADD23C,0.006000*%
%ADD24C,0.012000*%
%ADD25C,0.001000*%
%ADD26C,0.003500*%
G04 APERTURE END LIST*
G54D10*
X01250Y00000D02*
X01154Y-00478D01*
X01154Y-00478D02*
X00883Y-00883D01*
X00883Y-00883D02*
X00478Y-01154D01*
X00478Y-01154D02*
X00000Y-01250D01*
X00000Y-01250D02*
X-00478Y-01154D01*
X-00478Y-01154D02*
X-00883Y-00883D01*
X-00883Y-00883D02*
X-01154Y-00478D01*
X-01154Y-00478D02*
X-01250Y00000D01*
X-01250Y00000D02*
X-01154Y00478D01*
X-01154Y00478D02*
X-00883Y00883D01*
X-00883Y00883D02*
X-00478Y01154D01*
X-00478Y01154D02*
X00000Y01250D01*
X00000Y01250D02*
X00478Y01154D01*
X00478Y01154D02*
X00883Y00883D01*
X00883Y00883D02*
X01154Y00478D01*
X01154Y00478D02*
X01250Y00000D01*
X-02500Y00000D02*
X02500Y00000D01*
X00000Y02500D02*
X00000Y-02500D01*
X00000Y18500D02*
X10250Y18500D01*
X00000Y18250D02*
X00000Y18500D01*
X00000Y00000D02*
X00000Y18250D01*
X00250Y00000D02*
X00000Y00000D01*
X00500Y00000D02*
X00250Y00000D01*
X10250Y00000D02*
X00500Y00000D01*
X10250Y18500D02*
X10250Y00000D01*
G54D22*
X09230Y02870D02*
X09230Y03130D01*
X09230Y03130D02*
X08970Y03130D01*
X08970Y02870D02*
X08970Y03130D01*
X09230Y02870D02*
X08970Y02870D01*
X09230Y03870D02*
X09230Y04130D01*
X09230Y04130D02*
X08970Y04130D01*
X08970Y03870D02*
X08970Y04130D01*
X09230Y03870D02*
X08970Y03870D01*
X09230Y04871D02*
X09230Y05130D01*
X09230Y05130D02*
X08970Y05130D01*
X08970Y04871D02*
X08970Y05130D01*
X09230Y04871D02*
X08970Y04871D01*
X09230Y05870D02*
X09230Y06130D01*
X09230Y06130D02*
X08970Y06130D01*
X08970Y05870D02*
X08970Y06130D01*
X09230Y05870D02*
X08970Y05870D01*
X09230Y06870D02*
X09230Y07130D01*
X09230Y07130D02*
X08970Y07130D01*
X08970Y06870D02*
X08970Y07130D01*
X09230Y06870D02*
X08970Y06870D01*
X09230Y08870D02*
X09230Y09130D01*
X09230Y09130D02*
X08970Y09130D01*
X08970Y08870D02*
X08970Y09130D01*
X09230Y08870D02*
X08970Y08870D01*
X09230Y07870D02*
X09230Y08130D01*
X09230Y08130D02*
X08970Y08130D01*
X08970Y07870D02*
X08970Y08130D01*
X09230Y07870D02*
X08970Y07870D01*
X09230Y17870D02*
X09230Y18130D01*
X09230Y18130D02*
X08970Y18130D01*
X08970Y17870D02*
X08970Y18130D01*
X09230Y17870D02*
X08970Y17870D01*
X09230Y09870D02*
X09230Y10130D01*
X09230Y10130D02*
X08970Y10130D01*
X08970Y09870D02*
X08970Y10130D01*
X09230Y09870D02*
X08970Y09870D01*
X09230Y10870D02*
X09230Y11130D01*
X09230Y11130D02*
X08970Y11130D01*
X08970Y10870D02*
X08970Y11130D01*
X09230Y10870D02*
X08970Y10870D01*
X09230Y11870D02*
X09230Y12130D01*
X09230Y12130D02*
X08970Y12130D01*
X08970Y11870D02*
X08970Y12130D01*
X09230Y11870D02*
X08970Y11870D01*
X09230Y12870D02*
X09230Y13130D01*
X09230Y13130D02*
X08970Y13130D01*
X08970Y12870D02*
X08970Y13130D01*
X09230Y12870D02*
X08970Y12870D01*
X09230Y13870D02*
X09230Y14130D01*
X09230Y14130D02*
X08970Y14130D01*
X08970Y13870D02*
X08970Y14130D01*
X09230Y13870D02*
X08970Y13870D01*
X09230Y14870D02*
X09230Y15130D01*
X09230Y15130D02*
X08970Y15130D01*
X08970Y14870D02*
X08970Y15130D01*
X09230Y14870D02*
X08970Y14870D01*
X09230Y15870D02*
X09230Y16129D01*
X09230Y16129D02*
X08970Y16129D01*
X08970Y15870D02*
X08970Y16129D01*
X09230Y15870D02*
X08970Y15870D01*
X09230Y16870D02*
X09230Y17130D01*
X09230Y17130D02*
X08970Y17130D01*
X08970Y16870D02*
X08970Y17130D01*
X09230Y16870D02*
X08970Y16870D01*
G54D23*
X08400Y03350D02*
X08450Y03400D01*
X08450Y03400D02*
X08550Y03500D01*
X08550Y03500D02*
X08450Y03601D01*
X08450Y03601D02*
X08400Y03650D01*
X09950Y03400D02*
X10000Y03400D01*
X10000Y03400D02*
X10000Y02600D01*
X09950Y03601D02*
X09950Y03400D01*
X09950Y03601D02*
X10000Y03601D01*
X08100Y02600D02*
X08400Y02600D01*
X08400Y02600D02*
X09700Y02600D01*
X09800Y02600D02*
X10000Y02600D01*
X09800Y02600D02*
X09800Y02750D01*
X09800Y03250D02*
X09700Y03250D01*
X09800Y02750D02*
X09700Y02750D01*
X09600Y02750D02*
X09600Y03250D01*
X09700Y03250D02*
X09600Y03250D01*
X09800Y03750D02*
X09700Y03750D01*
X09700Y03750D02*
X09600Y03750D01*
X09700Y03250D02*
X09700Y03400D01*
X09700Y03400D02*
X09700Y03601D01*
X09700Y03601D02*
X09700Y03750D01*
X09700Y02750D02*
X09700Y02600D01*
X09700Y02750D02*
X09600Y02750D01*
X09700Y02600D02*
X09800Y02600D01*
X08100Y02600D02*
X08100Y02900D01*
X08100Y02900D02*
X08050Y02900D01*
X08100Y03100D02*
X08050Y03100D01*
X08050Y03100D02*
X08050Y02900D01*
X08100Y03900D02*
X08050Y03900D01*
X08100Y04100D02*
X08050Y04100D01*
X08150Y03601D02*
X08100Y03601D01*
X08150Y03400D02*
X08100Y03400D01*
X09950Y04600D02*
X09950Y04400D01*
X09950Y04600D02*
X10000Y04600D01*
X10000Y05400D02*
X10000Y04600D01*
X08400Y05400D02*
X09700Y05400D01*
X09800Y05250D02*
X09700Y05250D01*
X09600Y04750D02*
X09600Y05250D01*
X09800Y04250D02*
X09700Y04250D01*
X09700Y04250D02*
X09600Y04250D01*
X09800Y04750D02*
X09700Y04750D01*
X09700Y04750D02*
X09600Y04750D01*
X09700Y04250D02*
X09700Y04400D01*
X09700Y04400D02*
X09700Y04600D01*
X09700Y04600D02*
X09700Y04750D01*
X09700Y05250D02*
X09700Y05400D01*
X09700Y05250D02*
X09600Y05250D01*
X08100Y04900D02*
X08050Y04900D01*
X08100Y05100D02*
X08100Y05400D01*
X08100Y05100D02*
X08050Y05100D01*
X08050Y05100D02*
X08050Y04900D01*
X08150Y04600D02*
X08100Y04600D01*
X08100Y04600D02*
X08100Y04900D01*
X08150Y04600D02*
X08150Y04400D01*
X08150Y04400D02*
X08100Y04400D01*
X08100Y04100D02*
X08100Y04400D01*
X08050Y04100D02*
X08050Y03900D01*
X08100Y03601D02*
X08100Y03900D01*
X08150Y03400D02*
X08150Y03601D01*
X08100Y03400D02*
X08100Y03100D01*
X08400Y03350D02*
X08400Y02600D01*
X08400Y03650D02*
X08400Y04400D01*
X08400Y04400D02*
X08400Y04600D01*
X08450Y03601D02*
X09700Y03601D01*
X08450Y03400D02*
X09700Y03400D01*
X08400Y04400D02*
X09700Y04400D01*
X08400Y04600D02*
X09700Y04600D01*
X09600Y03750D02*
X09600Y04250D01*
X09800Y03750D02*
X09800Y03250D01*
X10000Y03601D02*
X10000Y04400D01*
X09800Y04250D02*
X09800Y04750D01*
X09950Y04400D02*
X10000Y04400D01*
X09950Y06400D02*
X10000Y06400D01*
X10000Y06400D02*
X10000Y05600D01*
X09950Y06600D02*
X09950Y06400D01*
X09950Y06600D02*
X10000Y06600D01*
X08400Y05600D02*
X09700Y05600D01*
X09800Y06250D02*
X09700Y06250D01*
X09800Y05750D02*
X09700Y05750D01*
X09600Y05750D02*
X09600Y06250D01*
X09700Y06250D02*
X09600Y06250D01*
X09800Y06750D02*
X09700Y06750D01*
X09700Y06750D02*
X09600Y06750D01*
X09700Y06250D02*
X09700Y06400D01*
X09700Y06400D02*
X09700Y06600D01*
X09700Y06600D02*
X09700Y06750D01*
X09700Y05750D02*
X09700Y05600D01*
X09700Y05750D02*
X09600Y05750D01*
X08100Y05600D02*
X08100Y05900D01*
X08100Y05900D02*
X08050Y05900D01*
X08100Y06100D02*
X08050Y06100D01*
X08050Y06100D02*
X08050Y05900D01*
X08100Y06900D02*
X08050Y06900D01*
X08100Y07100D02*
X08050Y07100D01*
X08150Y06600D02*
X08100Y06600D01*
X08150Y06400D02*
X08100Y06400D01*
X08550Y17500D02*
X08450Y17600D01*
X08450Y17600D02*
X08400Y17650D01*
X09950Y17600D02*
X09950Y17399D01*
X09950Y17600D02*
X10000Y17600D01*
X10000Y18400D02*
X10000Y17600D01*
X08400Y17650D02*
X08400Y18400D01*
X08400Y18400D02*
X08100Y18400D01*
X09800Y18400D02*
X10000Y18400D01*
X09800Y18400D02*
X09800Y18250D01*
X08400Y18400D02*
X09700Y18400D01*
X09800Y18250D02*
X09700Y18250D01*
X09600Y17750D02*
X09600Y18250D01*
X09800Y17250D02*
X09700Y17250D01*
X09700Y17250D02*
X09600Y17250D01*
X09800Y17750D02*
X09700Y17750D01*
X09700Y17750D02*
X09600Y17750D01*
X09700Y17250D02*
X09700Y17399D01*
X09700Y17399D02*
X09700Y17600D01*
X09700Y17600D02*
X09700Y17750D01*
X09700Y18250D02*
X09700Y18400D01*
X09700Y18250D02*
X09600Y18250D01*
X09700Y18400D02*
X09800Y18400D01*
X08100Y17900D02*
X08050Y17900D01*
X08100Y18100D02*
X08100Y18400D01*
X08100Y18100D02*
X08050Y18100D01*
X08050Y18100D02*
X08050Y17900D01*
X08150Y17600D02*
X08100Y17600D01*
X08100Y17600D02*
X08100Y17900D01*
X08150Y17600D02*
X08150Y17399D01*
X08150Y17399D02*
X08100Y17399D01*
X08400Y17350D02*
X08450Y17399D01*
X08450Y17399D02*
X08550Y17500D01*
X08050Y07100D02*
X08050Y06900D01*
X08100Y06600D02*
X08100Y06900D01*
X08150Y06400D02*
X08150Y06600D01*
X08100Y06400D02*
X08100Y06100D01*
X08400Y05600D02*
X08400Y06400D01*
X08400Y06600D02*
X09700Y06600D01*
X08400Y06400D02*
X09700Y06400D01*
X08450Y17399D02*
X09700Y17399D01*
X08450Y17600D02*
X09700Y17600D01*
X09800Y06750D02*
X09800Y06250D01*
X09800Y17250D02*
X09800Y17750D01*
X09950Y17399D02*
X10000Y17399D01*
X08400Y04600D02*
X08400Y05400D01*
X08400Y06400D02*
X08400Y06600D01*
X09950Y05400D02*
X10000Y05400D01*
X09950Y05600D02*
X10000Y05600D01*
X09950Y05600D02*
X09950Y05400D01*
X09800Y05750D02*
X09800Y05250D01*
X09700Y05600D02*
X09700Y05400D01*
X08400Y05600D02*
X08400Y05400D01*
X08150Y05600D02*
X08150Y05400D01*
X08100Y05400D02*
X08150Y05400D01*
X08100Y05600D02*
X08150Y05600D01*
X09950Y07400D02*
X10000Y07400D01*
X10000Y07400D02*
X10000Y06600D01*
X09950Y07600D02*
X09950Y07400D01*
X09950Y07600D02*
X10000Y07600D01*
X09800Y07250D02*
X09700Y07250D01*
X09600Y06750D02*
X09600Y07250D01*
X09700Y07250D02*
X09600Y07250D01*
X09800Y07750D02*
X09700Y07750D01*
X09700Y07750D02*
X09600Y07750D01*
X09700Y07250D02*
X09700Y07400D01*
X09700Y07400D02*
X09700Y07600D01*
X09700Y07600D02*
X09700Y07750D01*
X08100Y07900D02*
X08050Y07900D01*
X08100Y08100D02*
X08050Y08100D01*
X08150Y07600D02*
X08100Y07600D01*
X08150Y07400D02*
X08100Y07400D01*
X08050Y08100D02*
X08050Y07900D01*
X08100Y07600D02*
X08100Y07900D01*
X08150Y07400D02*
X08150Y07600D01*
X08100Y07400D02*
X08100Y07100D01*
X08400Y06600D02*
X08400Y07400D01*
X08400Y07600D02*
X09700Y07600D01*
X08400Y07400D02*
X09700Y07400D01*
X09800Y07750D02*
X09800Y07250D01*
X08400Y07400D02*
X08400Y07600D01*
X09950Y08400D02*
X10000Y08400D01*
X10000Y08400D02*
X10000Y07600D01*
X09950Y08600D02*
X09950Y08400D01*
X09950Y08600D02*
X10000Y08600D01*
X09800Y08250D02*
X09700Y08250D01*
X09600Y07750D02*
X09600Y08250D01*
X09700Y08250D02*
X09600Y08250D01*
X09800Y08750D02*
X09700Y08750D01*
X09700Y08750D02*
X09600Y08750D01*
X09700Y08250D02*
X09700Y08400D01*
X09700Y08400D02*
X09700Y08600D01*
X09700Y08600D02*
X09700Y08750D01*
X08100Y08900D02*
X08050Y08900D01*
X08100Y09100D02*
X08050Y09100D01*
X08150Y08600D02*
X08100Y08600D01*
X08150Y08400D02*
X08100Y08400D01*
X08050Y09100D02*
X08050Y08900D01*
X08100Y08600D02*
X08100Y08900D01*
X08150Y08400D02*
X08150Y08600D01*
X08100Y08400D02*
X08100Y08100D01*
X08400Y07600D02*
X08400Y08400D01*
X08400Y08600D02*
X09700Y08600D01*
X08400Y08400D02*
X09700Y08400D01*
X09800Y08750D02*
X09800Y08250D01*
X08400Y08400D02*
X08400Y08600D01*
X09950Y09400D02*
X10000Y09400D01*
X10000Y09400D02*
X10000Y08600D01*
X09950Y09600D02*
X09950Y09400D01*
X09950Y09600D02*
X10000Y09600D01*
X09800Y09250D02*
X09700Y09250D01*
X09600Y08750D02*
X09600Y09250D01*
X09700Y09250D02*
X09600Y09250D01*
X09800Y09750D02*
X09700Y09750D01*
X09700Y09750D02*
X09600Y09750D01*
X09700Y09250D02*
X09700Y09400D01*
X09700Y09400D02*
X09700Y09600D01*
X09700Y09600D02*
X09700Y09750D01*
X08100Y09900D02*
X08050Y09900D01*
X08100Y10100D02*
X08050Y10100D01*
X08150Y09600D02*
X08100Y09600D01*
X08150Y09400D02*
X08100Y09400D01*
X08050Y10100D02*
X08050Y09900D01*
X08100Y09600D02*
X08100Y09900D01*
X08150Y09400D02*
X08150Y09600D01*
X08100Y09400D02*
X08100Y09100D01*
X08400Y08600D02*
X08400Y09400D01*
X08400Y09600D02*
X09700Y09600D01*
X08400Y09400D02*
X09700Y09400D01*
X09800Y09750D02*
X09800Y09250D01*
X08400Y09400D02*
X08400Y09600D01*
X09950Y10400D02*
X10000Y10400D01*
X10000Y10400D02*
X10000Y09600D01*
X09950Y10600D02*
X09950Y10400D01*
X09950Y10600D02*
X10000Y10600D01*
X09800Y10250D02*
X09700Y10250D01*
X09600Y09750D02*
X09600Y10250D01*
X09700Y10250D02*
X09600Y10250D01*
X09800Y10750D02*
X09700Y10750D01*
X09700Y10750D02*
X09600Y10750D01*
X09700Y10250D02*
X09700Y10400D01*
X09700Y10400D02*
X09700Y10600D01*
X09700Y10600D02*
X09700Y10750D01*
X08100Y10900D02*
X08050Y10900D01*
X08100Y11100D02*
X08050Y11100D01*
X08150Y10600D02*
X08100Y10600D01*
X08150Y10400D02*
X08100Y10400D01*
X08050Y11100D02*
X08050Y10900D01*
X08100Y10600D02*
X08100Y10900D01*
X08150Y10400D02*
X08150Y10600D01*
X08100Y10400D02*
X08100Y10100D01*
X08400Y09600D02*
X08400Y10400D01*
X08400Y10600D02*
X09700Y10600D01*
X08400Y10400D02*
X09700Y10400D01*
X09800Y10750D02*
X09800Y10250D01*
X08400Y10400D02*
X08400Y10600D01*
X09950Y11400D02*
X10000Y11400D01*
X10000Y11400D02*
X10000Y10600D01*
X09950Y11600D02*
X09950Y11400D01*
X09950Y11600D02*
X10000Y11600D01*
X09800Y11250D02*
X09700Y11250D01*
X09600Y10750D02*
X09600Y11250D01*
X09700Y11250D02*
X09600Y11250D01*
X09800Y11750D02*
X09700Y11750D01*
X09700Y11750D02*
X09600Y11750D01*
X09700Y11250D02*
X09700Y11400D01*
X09700Y11400D02*
X09700Y11600D01*
X09700Y11600D02*
X09700Y11750D01*
X08100Y11900D02*
X08050Y11900D01*
X08100Y12100D02*
X08050Y12100D01*
X08150Y11600D02*
X08100Y11600D01*
X08150Y11400D02*
X08100Y11400D01*
X08050Y12100D02*
X08050Y11900D01*
X08100Y11600D02*
X08100Y11900D01*
X08150Y11400D02*
X08150Y11600D01*
X08100Y11400D02*
X08100Y11100D01*
X08400Y10600D02*
X08400Y11400D01*
X08400Y11600D02*
X09700Y11600D01*
X08400Y11400D02*
X09700Y11400D01*
X09800Y11750D02*
X09800Y11250D01*
X08400Y11400D02*
X08400Y11600D01*
X09950Y12400D02*
X10000Y12400D01*
X10000Y12400D02*
X10000Y11600D01*
X09950Y12600D02*
X09950Y12400D01*
X09950Y12600D02*
X10000Y12600D01*
X09800Y12250D02*
X09700Y12250D01*
X09600Y11750D02*
X09600Y12250D01*
X09700Y12250D02*
X09600Y12250D01*
X09800Y12750D02*
X09700Y12750D01*
X09700Y12750D02*
X09600Y12750D01*
X09700Y12250D02*
X09700Y12400D01*
X09700Y12400D02*
X09700Y12600D01*
X09700Y12600D02*
X09700Y12750D01*
X08100Y12900D02*
X08050Y12900D01*
X08100Y13100D02*
X08050Y13100D01*
X08150Y12600D02*
X08100Y12600D01*
X08150Y12400D02*
X08100Y12400D01*
X08050Y13100D02*
X08050Y12900D01*
X08100Y12600D02*
X08100Y12900D01*
X08150Y12400D02*
X08150Y12600D01*
X08100Y12400D02*
X08100Y12100D01*
X08400Y11600D02*
X08400Y12400D01*
X08400Y12600D02*
X09700Y12600D01*
X08400Y12400D02*
X09700Y12400D01*
X09800Y12750D02*
X09800Y12250D01*
X08400Y12400D02*
X08400Y12600D01*
X09950Y13400D02*
X10000Y13400D01*
X10000Y13400D02*
X10000Y12600D01*
X09950Y13600D02*
X09950Y13400D01*
X09950Y13600D02*
X10000Y13600D01*
X09800Y13250D02*
X09700Y13250D01*
X09600Y12750D02*
X09600Y13250D01*
X09700Y13250D02*
X09600Y13250D01*
X09800Y13750D02*
X09700Y13750D01*
X09700Y13750D02*
X09600Y13750D01*
X09700Y13250D02*
X09700Y13400D01*
X09700Y13400D02*
X09700Y13600D01*
X09700Y13600D02*
X09700Y13750D01*
X08100Y13900D02*
X08050Y13900D01*
X08100Y14100D02*
X08050Y14100D01*
X08150Y13600D02*
X08100Y13600D01*
X08150Y13400D02*
X08100Y13400D01*
X08050Y14100D02*
X08050Y13900D01*
X08100Y13600D02*
X08100Y13900D01*
X08150Y13400D02*
X08150Y13600D01*
X08100Y13400D02*
X08100Y13100D01*
X08400Y12600D02*
X08400Y13400D01*
X08400Y13600D02*
X09700Y13600D01*
X08400Y13400D02*
X09700Y13400D01*
X09800Y13750D02*
X09800Y13250D01*
X08400Y13400D02*
X08400Y13600D01*
X09950Y14400D02*
X10000Y14400D01*
X10000Y14400D02*
X10000Y13600D01*
X09950Y14600D02*
X09950Y14400D01*
X09950Y14600D02*
X10000Y14600D01*
X09800Y14250D02*
X09700Y14250D01*
X09600Y13750D02*
X09600Y14250D01*
X09700Y14250D02*
X09600Y14250D01*
X09800Y14750D02*
X09700Y14750D01*
X09700Y14750D02*
X09600Y14750D01*
X09700Y14250D02*
X09700Y14400D01*
X09700Y14400D02*
X09700Y14600D01*
X09700Y14600D02*
X09700Y14750D01*
X08100Y14900D02*
X08050Y14900D01*
X08100Y15100D02*
X08050Y15100D01*
X08150Y14600D02*
X08100Y14600D01*
X08150Y14400D02*
X08100Y14400D01*
X08050Y15100D02*
X08050Y14900D01*
X08100Y14600D02*
X08100Y14900D01*
X08150Y14400D02*
X08150Y14600D01*
X08100Y14400D02*
X08100Y14100D01*
X08400Y13600D02*
X08400Y14400D01*
X08400Y14600D02*
X09700Y14600D01*
X08400Y14400D02*
X09700Y14400D01*
X09800Y14750D02*
X09800Y14250D01*
X08400Y14400D02*
X08400Y14600D01*
X09950Y15400D02*
X10000Y15400D01*
X10000Y15400D02*
X10000Y14600D01*
X09950Y15600D02*
X09950Y15400D01*
X09950Y15600D02*
X10000Y15600D01*
X09800Y15250D02*
X09700Y15250D01*
X09600Y14750D02*
X09600Y15250D01*
X09700Y15250D02*
X09600Y15250D01*
X09800Y15750D02*
X09700Y15750D01*
X09700Y15750D02*
X09600Y15750D01*
X09700Y15250D02*
X09700Y15400D01*
X09700Y15400D02*
X09700Y15600D01*
X09700Y15600D02*
X09700Y15750D01*
X08100Y15900D02*
X08050Y15900D01*
X08100Y16100D02*
X08050Y16100D01*
X08150Y15600D02*
X08100Y15600D01*
X08150Y15400D02*
X08100Y15400D01*
X08050Y16100D02*
X08050Y15900D01*
X08100Y15600D02*
X08100Y15900D01*
X08150Y15400D02*
X08150Y15600D01*
X08100Y15400D02*
X08100Y15100D01*
X08400Y14600D02*
X08400Y15400D01*
X08400Y15600D02*
X09700Y15600D01*
X08400Y15400D02*
X09700Y15400D01*
X09800Y15750D02*
X09800Y15250D01*
X08400Y15400D02*
X08400Y15600D01*
X09950Y16400D02*
X10000Y16400D01*
X10000Y16400D02*
X10000Y15600D01*
X09950Y16600D02*
X09950Y16400D01*
X09950Y16600D02*
X10000Y16600D01*
X09800Y16250D02*
X09700Y16250D01*
X09600Y15750D02*
X09600Y16250D01*
X09700Y16250D02*
X09600Y16250D01*
X09800Y16750D02*
X09700Y16750D01*
X09700Y16750D02*
X09600Y16750D01*
X09700Y16250D02*
X09700Y16400D01*
X09700Y16400D02*
X09700Y16600D01*
X09700Y16600D02*
X09700Y16750D01*
X08100Y16900D02*
X08050Y16900D01*
X08100Y17100D02*
X08050Y17100D01*
X08150Y16600D02*
X08100Y16600D01*
X08150Y16400D02*
X08100Y16400D01*
X08050Y17100D02*
X08050Y16900D01*
X08100Y16600D02*
X08100Y16900D01*
X08150Y16400D02*
X08150Y16600D01*
X08100Y16400D02*
X08100Y16100D01*
X08400Y15600D02*
X08400Y16400D01*
X08400Y16600D02*
X09700Y16600D01*
X08400Y16400D02*
X09700Y16400D01*
X09800Y16750D02*
X09800Y16250D01*
X08400Y16400D02*
X08400Y16600D01*
X08100Y17100D02*
X08100Y17399D01*
X08400Y16600D02*
X08400Y17350D01*
X09600Y16750D02*
X09600Y17250D01*
X10000Y17399D02*
X10000Y16600D01*
G54D22*
X02920Y00870D02*
X03180Y00870D01*
X03180Y00870D02*
X03180Y01130D01*
X02920Y01130D02*
X03180Y01130D01*
X02920Y00870D02*
X02920Y01130D01*
X03920Y00870D02*
X04181Y00870D01*
X04181Y00870D02*
X04181Y01130D01*
X03920Y01130D02*
X04181Y01130D01*
X03920Y00870D02*
X03920Y01130D01*
X04920Y00870D02*
X05180Y00870D01*
X05180Y00870D02*
X05180Y01130D01*
X04920Y01130D02*
X05180Y01130D01*
X04920Y00870D02*
X04920Y01130D01*
X05919Y00870D02*
X06180Y00870D01*
X06180Y00870D02*
X06180Y01130D01*
X05919Y01130D02*
X06180Y01130D01*
X05919Y00870D02*
X05919Y01130D01*
X06920Y00870D02*
X07180Y00870D01*
X07180Y00870D02*
X07180Y01130D01*
X06920Y01130D02*
X07180Y01130D01*
X06920Y00870D02*
X06920Y01130D01*
G54D23*
X03400Y01700D02*
X03450Y01650D01*
X03450Y01650D02*
X03550Y01550D01*
X03550Y01550D02*
X03650Y01650D01*
X03650Y01650D02*
X03700Y01700D01*
X03450Y00150D02*
X03450Y00100D01*
X03450Y00100D02*
X02650Y00100D01*
X03650Y00150D02*
X03450Y00150D01*
X03650Y00150D02*
X03650Y00100D01*
X02650Y02000D02*
X02650Y01700D01*
X02650Y01700D02*
X02650Y00400D01*
X02650Y00300D02*
X02650Y00100D01*
X02650Y00300D02*
X02800Y00300D01*
X03300Y00300D02*
X03300Y00400D01*
X02800Y00300D02*
X02800Y00400D01*
X02800Y00500D02*
X03300Y00500D01*
X03300Y00400D02*
X03300Y00500D01*
X03800Y00300D02*
X03800Y00400D01*
X03800Y00400D02*
X03800Y00500D01*
X03300Y00400D02*
X03450Y00400D01*
X03450Y00400D02*
X03650Y00400D01*
X03650Y00400D02*
X03800Y00400D01*
X02800Y00400D02*
X02650Y00400D01*
X02800Y00400D02*
X02800Y00500D01*
X02650Y00400D02*
X02650Y00300D01*
X02650Y02000D02*
X02950Y02000D01*
X02950Y02000D02*
X02950Y02050D01*
X03150Y02000D02*
X03150Y02050D01*
X03150Y02050D02*
X02950Y02050D01*
X03950Y02000D02*
X03950Y02050D01*
X04150Y02000D02*
X04150Y02050D01*
X03650Y01950D02*
X03650Y02000D01*
X03450Y01950D02*
X03450Y02000D01*
X04650Y00150D02*
X04450Y00150D01*
X04650Y00150D02*
X04650Y00100D01*
X05450Y00100D02*
X04650Y00100D01*
X05450Y01700D02*
X05450Y00400D01*
X05300Y00300D02*
X05300Y00400D01*
X04800Y00500D02*
X05300Y00500D01*
X04300Y00300D02*
X04300Y00400D01*
X04300Y00400D02*
X04300Y00500D01*
X04800Y00300D02*
X04800Y00400D01*
X04800Y00400D02*
X04800Y00500D01*
X04300Y00400D02*
X04450Y00400D01*
X04450Y00400D02*
X04650Y00400D01*
X04650Y00400D02*
X04800Y00400D01*
X05300Y00400D02*
X05450Y00400D01*
X05300Y00400D02*
X05300Y00500D01*
X04950Y02000D02*
X04950Y02050D01*
X05150Y02000D02*
X05450Y02000D01*
X05150Y02000D02*
X05150Y02050D01*
X05150Y02050D02*
X04950Y02050D01*
X04650Y01950D02*
X04650Y02000D01*
X04650Y02000D02*
X04950Y02000D01*
X04650Y01950D02*
X04450Y01950D01*
X04450Y01950D02*
X04450Y02000D01*
X04150Y02000D02*
X04450Y02000D01*
X04150Y02050D02*
X03950Y02050D01*
X03650Y02000D02*
X03950Y02000D01*
X03450Y01950D02*
X03650Y01950D01*
X03450Y02000D02*
X03150Y02000D01*
X03400Y01700D02*
X02650Y01700D01*
X03700Y01700D02*
X04450Y01700D01*
X04450Y01700D02*
X04650Y01700D01*
X03650Y01650D02*
X03650Y00400D01*
X03450Y01650D02*
X03450Y00400D01*
X04450Y01700D02*
X04450Y00400D01*
X04650Y01700D02*
X04650Y00400D01*
X03800Y00500D02*
X04300Y00500D01*
X03800Y00300D02*
X03300Y00300D01*
X03650Y00100D02*
X04450Y00100D01*
X04300Y00300D02*
X04800Y00300D01*
X04450Y00150D02*
X04450Y00100D01*
X05650Y01700D02*
X05650Y00400D01*
X05800Y00300D02*
X05800Y00400D01*
X05800Y00400D02*
X05650Y00400D01*
X05800Y00400D02*
X05800Y00500D01*
X05950Y02000D02*
X05950Y02050D01*
X06150Y02000D02*
X06150Y02050D01*
X06550Y01550D02*
X06650Y01650D01*
X06650Y01650D02*
X06700Y01700D01*
X06650Y00150D02*
X06450Y00150D01*
X06650Y00150D02*
X06650Y00100D01*
X07450Y00100D02*
X06650Y00100D01*
X06700Y01700D02*
X07450Y01700D01*
X07450Y01700D02*
X07450Y02000D01*
X07450Y00300D02*
X07450Y00100D01*
X07450Y00300D02*
X07300Y00300D01*
X07450Y01700D02*
X07450Y00400D01*
X07300Y00300D02*
X07300Y00400D01*
X06800Y00500D02*
X07300Y00500D01*
X06300Y00300D02*
X06300Y00400D01*
X06300Y00400D02*
X06300Y00500D01*
X06800Y00300D02*
X06800Y00400D01*
X06800Y00400D02*
X06800Y00500D01*
X06300Y00400D02*
X06450Y00400D01*
X06450Y00400D02*
X06650Y00400D01*
X06650Y00400D02*
X06800Y00400D01*
X07300Y00400D02*
X07450Y00400D01*
X07300Y00400D02*
X07300Y00500D01*
X07450Y00400D02*
X07450Y00300D01*
X06950Y02000D02*
X06950Y02050D01*
X07150Y02000D02*
X07450Y02000D01*
X07150Y02000D02*
X07150Y02050D01*
X07150Y02050D02*
X06950Y02050D01*
X06650Y01950D02*
X06650Y02000D01*
X06650Y02000D02*
X06950Y02000D01*
X06650Y01950D02*
X06450Y01950D01*
X06450Y01950D02*
X06450Y02000D01*
X06400Y01700D02*
X06450Y01650D01*
X06450Y01650D02*
X06550Y01550D01*
X06150Y02000D02*
X06450Y02000D01*
X06150Y02050D02*
X05950Y02050D01*
X05650Y02000D02*
X05950Y02000D01*
X06450Y01650D02*
X06450Y00400D01*
X06650Y01650D02*
X06650Y00400D01*
X05650Y00100D02*
X06450Y00100D01*
X06300Y00300D02*
X06800Y00300D01*
X06450Y00150D02*
X06450Y00100D01*
X04650Y01700D02*
X05450Y01700D01*
X05650Y01700D02*
X06400Y01700D01*
X05450Y00150D02*
X05450Y00100D01*
X05650Y00150D02*
X05650Y00100D01*
X05650Y00150D02*
X05450Y00150D01*
X05800Y00300D02*
X05300Y00300D01*
X05650Y00400D02*
X05450Y00400D01*
X05650Y01700D02*
X05450Y01700D01*
X05650Y01950D02*
X05450Y01950D01*
X05450Y02000D02*
X05450Y01950D01*
X05650Y02000D02*
X05650Y01950D01*
X05800Y00500D02*
X06300Y00500D01*
G54D22*
X00930Y10870D02*
X00930Y11130D01*
X00930Y11130D02*
X00670Y11130D01*
X00670Y10870D02*
X00670Y11130D01*
X00930Y10870D02*
X00670Y10870D01*
X00930Y11870D02*
X00930Y12130D01*
X00930Y12130D02*
X00670Y12130D01*
X00670Y11870D02*
X00670Y12130D01*
X00930Y11870D02*
X00670Y11870D01*
X00930Y12870D02*
X00930Y13130D01*
X00930Y13130D02*
X00670Y13130D01*
X00670Y12870D02*
X00670Y13130D01*
X00930Y12870D02*
X00670Y12870D01*
X00930Y13870D02*
X00930Y14130D01*
X00930Y14130D02*
X00670Y14130D01*
X00670Y13870D02*
X00670Y14130D01*
X00930Y13870D02*
X00670Y13870D01*
X00930Y14870D02*
X00930Y15130D01*
X00930Y15130D02*
X00670Y15130D01*
X00670Y14870D02*
X00670Y15130D01*
X00930Y14870D02*
X00670Y14870D01*
X00930Y15870D02*
X00930Y16130D01*
X00930Y16130D02*
X00670Y16130D01*
X00670Y15870D02*
X00670Y16130D01*
X00930Y15870D02*
X00670Y15870D01*
G54D23*
X00100Y11350D02*
X00150Y11400D01*
X00150Y11400D02*
X00250Y11500D01*
X00250Y11500D02*
X00150Y11600D01*
X00150Y11600D02*
X00100Y11650D01*
X01650Y11400D02*
X01700Y11400D01*
X01700Y11400D02*
X01700Y10600D01*
X01650Y11600D02*
X01650Y11400D01*
X01650Y11600D02*
X01700Y11600D01*
X-00200Y10600D02*
X00100Y10600D01*
X00100Y10600D02*
X01400Y10600D01*
X01500Y10600D02*
X01700Y10600D01*
X01500Y10600D02*
X01500Y10750D01*
X01500Y11250D02*
X01400Y11250D01*
X01500Y10750D02*
X01400Y10750D01*
X01300Y10750D02*
X01300Y11250D01*
X01400Y11250D02*
X01300Y11250D01*
X01500Y11750D02*
X01400Y11750D01*
X01400Y11750D02*
X01300Y11750D01*
X01400Y11250D02*
X01400Y11400D01*
X01400Y11400D02*
X01400Y11600D01*
X01400Y11600D02*
X01400Y11750D01*
X01400Y10750D02*
X01400Y10600D01*
X01400Y10750D02*
X01300Y10750D01*
X01400Y10600D02*
X01500Y10600D01*
X-00200Y10600D02*
X-00200Y10900D01*
X-00200Y10900D02*
X-00250Y10900D01*
X-00200Y11100D02*
X-00250Y11100D01*
X-00250Y11100D02*
X-00250Y10900D01*
X-00200Y11900D02*
X-00250Y11900D01*
X-00200Y12100D02*
X-00250Y12100D01*
X-00150Y11600D02*
X-00200Y11600D01*
X-00150Y11400D02*
X-00200Y11400D01*
X01650Y12600D02*
X01650Y12400D01*
X01650Y12600D02*
X01700Y12600D01*
X01700Y13400D02*
X01700Y12600D01*
X00100Y13400D02*
X01400Y13400D01*
X01500Y13250D02*
X01400Y13250D01*
X01300Y12750D02*
X01300Y13250D01*
X01500Y12250D02*
X01400Y12250D01*
X01400Y12250D02*
X01300Y12250D01*
X01500Y12750D02*
X01400Y12750D01*
X01400Y12750D02*
X01300Y12750D01*
X01400Y12250D02*
X01400Y12400D01*
X01400Y12400D02*
X01400Y12600D01*
X01400Y12600D02*
X01400Y12750D01*
X01400Y13250D02*
X01400Y13400D01*
X01400Y13250D02*
X01300Y13250D01*
X-00200Y12900D02*
X-00250Y12900D01*
X-00200Y13100D02*
X-00200Y13400D01*
X-00200Y13100D02*
X-00250Y13100D01*
X-00250Y13100D02*
X-00250Y12900D01*
X-00150Y12600D02*
X-00200Y12600D01*
X-00200Y12600D02*
X-00200Y12900D01*
X-00150Y12600D02*
X-00150Y12400D01*
X-00150Y12400D02*
X-00200Y12400D01*
X-00200Y12100D02*
X-00200Y12400D01*
X-00250Y12100D02*
X-00250Y11900D01*
X-00200Y11600D02*
X-00200Y11900D01*
X-00150Y11400D02*
X-00150Y11600D01*
X-00200Y11400D02*
X-00200Y11100D01*
X00100Y11350D02*
X00100Y10600D01*
X00100Y11650D02*
X00100Y12400D01*
X00100Y12400D02*
X00100Y12600D01*
X00150Y11600D02*
X01400Y11600D01*
X00150Y11400D02*
X01400Y11400D01*
X00100Y12400D02*
X01400Y12400D01*
X00100Y12600D02*
X01400Y12600D01*
X01300Y11750D02*
X01300Y12250D01*
X01500Y11750D02*
X01500Y11250D01*
X01700Y11600D02*
X01700Y12400D01*
X01500Y12250D02*
X01500Y12750D01*
X01650Y12400D02*
X01700Y12400D01*
X01650Y14400D02*
X01700Y14400D01*
X01700Y14400D02*
X01700Y13600D01*
X01650Y14600D02*
X01650Y14400D01*
X01650Y14600D02*
X01700Y14600D01*
X00100Y13600D02*
X01400Y13600D01*
X01500Y14250D02*
X01400Y14250D01*
X01500Y13750D02*
X01400Y13750D01*
X01300Y13750D02*
X01300Y14250D01*
X01400Y14250D02*
X01300Y14250D01*
X01500Y14750D02*
X01400Y14750D01*
X01400Y14750D02*
X01300Y14750D01*
X01400Y14250D02*
X01400Y14400D01*
X01400Y14400D02*
X01400Y14600D01*
X01400Y14600D02*
X01400Y14750D01*
X01400Y13750D02*
X01400Y13600D01*
X01400Y13750D02*
X01300Y13750D01*
X-00200Y13600D02*
X-00200Y13900D01*
X-00200Y13900D02*
X-00250Y13900D01*
X-00200Y14100D02*
X-00250Y14100D01*
X-00250Y14100D02*
X-00250Y13900D01*
X-00200Y14900D02*
X-00250Y14900D01*
X-00200Y15100D02*
X-00250Y15100D01*
X-00150Y14600D02*
X-00200Y14600D01*
X-00150Y14400D02*
X-00200Y14400D01*
X00250Y15500D02*
X00150Y15600D01*
X00150Y15600D02*
X00100Y15650D01*
X01650Y15600D02*
X01650Y15400D01*
X01650Y15600D02*
X01700Y15600D01*
X01700Y16400D02*
X01700Y15600D01*
X00100Y15650D02*
X00100Y16400D01*
X00100Y16400D02*
X-00200Y16400D01*
X01500Y16400D02*
X01700Y16400D01*
X01500Y16400D02*
X01500Y16250D01*
X00100Y16400D02*
X01400Y16400D01*
X01500Y16250D02*
X01400Y16250D01*
X01300Y15750D02*
X01300Y16250D01*
X01500Y15250D02*
X01400Y15250D01*
X01400Y15250D02*
X01300Y15250D01*
X01500Y15750D02*
X01400Y15750D01*
X01400Y15750D02*
X01300Y15750D01*
X01400Y15250D02*
X01400Y15400D01*
X01400Y15400D02*
X01400Y15600D01*
X01400Y15600D02*
X01400Y15750D01*
X01400Y16250D02*
X01400Y16400D01*
X01400Y16250D02*
X01300Y16250D01*
X01400Y16400D02*
X01500Y16400D01*
X-00200Y15900D02*
X-00250Y15900D01*
X-00200Y16100D02*
X-00200Y16400D01*
X-00200Y16100D02*
X-00250Y16100D01*
X-00250Y16100D02*
X-00250Y15900D01*
X-00150Y15600D02*
X-00200Y15600D01*
X-00200Y15600D02*
X-00200Y15900D01*
X-00150Y15600D02*
X-00150Y15400D01*
X-00150Y15400D02*
X-00200Y15400D01*
X00100Y15350D02*
X00150Y15400D01*
X00150Y15400D02*
X00250Y15500D01*
X-00200Y15100D02*
X-00200Y15400D01*
X-00250Y15100D02*
X-00250Y14900D01*
X-00200Y14600D02*
X-00200Y14900D01*
X-00150Y14400D02*
X-00150Y14600D01*
X-00200Y14400D02*
X-00200Y14100D01*
X00100Y13600D02*
X00100Y14400D01*
X00100Y14600D02*
X01400Y14600D01*
X00100Y14400D02*
X01400Y14400D01*
X00150Y15400D02*
X01400Y15400D01*
X00150Y15600D02*
X01400Y15600D01*
X01300Y14750D02*
X01300Y15250D01*
X01500Y14750D02*
X01500Y14250D01*
X01700Y14600D02*
X01700Y15400D01*
X01500Y15250D02*
X01500Y15750D01*
X01650Y15400D02*
X01700Y15400D01*
X00100Y12600D02*
X00100Y13400D01*
X00100Y14400D02*
X00100Y14600D01*
X00100Y14600D02*
X00100Y15350D01*
X01650Y13400D02*
X01700Y13400D01*
X01650Y13600D02*
X01700Y13600D01*
X01650Y13600D02*
X01650Y13400D01*
X01500Y13750D02*
X01500Y13250D01*
X01400Y13600D02*
X01400Y13400D01*
X00100Y13600D02*
X00100Y13400D01*
X-00150Y13600D02*
X-00150Y13400D01*
X-00200Y13400D02*
X-00150Y13400D01*
X-00200Y13600D02*
X-00150Y13600D01*
X02800Y15500D02*
X01800Y15500D01*
X01800Y09500D02*
X02800Y09500D01*
X02800Y09500D02*
X02550Y09750D01*
X01800Y09500D02*
X02050Y09750D01*
X01800Y10500D02*
X02050Y10250D01*
X01800Y15500D02*
X01800Y10500D01*
X02800Y10500D02*
X02550Y10250D01*
X02800Y09500D02*
X02800Y10500D01*
X01800Y10500D02*
X02800Y10500D01*
X01800Y10500D02*
X01800Y09500D01*
X02800Y10500D02*
X02800Y15500D01*
X02060Y09760D02*
X02540Y10240D01*
X02540Y09760D02*
X02060Y10240D01*
G54D24*
X03280Y08500D02*
X01300Y08500D01*
X01300Y08500D02*
X01300Y09500D01*
X01300Y09500D02*
X03300Y09500D01*
X03300Y09500D02*
X03300Y08500D01*
X03300Y08750D02*
X03050Y08500D01*
G54D10*
X03400Y09000D02*
X00200Y09000D01*
X00200Y04000D02*
X03400Y04000D01*
X03400Y04000D02*
X03400Y09000D01*
X00200Y04000D02*
X00200Y09000D01*
X02550Y03000D02*
X02550Y04000D01*
X01050Y03000D02*
X01050Y04000D01*
G54D24*
X03200Y07100D02*
X00400Y07100D01*
X00400Y07100D02*
X00400Y07900D01*
X00400Y07900D02*
X03200Y07900D01*
X03200Y07900D02*
X03200Y07100D01*
X03200Y07300D02*
X03000Y07100D01*
X00300Y08020D02*
X00300Y10000D01*
X00300Y10000D02*
X01300Y10000D01*
X01300Y10000D02*
X01300Y08000D01*
X01300Y08000D02*
X00300Y08000D01*
X00550Y08000D02*
X00300Y08250D01*
G54D10*
X06300Y17000D02*
X06300Y02000D01*
X06300Y02000D02*
X04300Y02000D01*
X04300Y02000D02*
X04300Y17000D01*
X04300Y17000D02*
X06300Y17000D01*
X05800Y17000D02*
X05800Y16500D01*
X05800Y16500D02*
X04800Y16500D01*
X04800Y16500D02*
X04800Y17000D01*
G54D25*
X09660Y02720D02*
X08540Y02720D01*
X08540Y02720D02*
X08540Y03280D01*
X08540Y03280D02*
X09660Y03280D01*
X09660Y03280D02*
X09660Y02720D01*
X09660Y03720D02*
X08540Y03720D01*
X08540Y03720D02*
X08540Y04280D01*
X08540Y04280D02*
X09660Y04280D01*
X09660Y04280D02*
X09660Y03720D01*
X09660Y04720D02*
X08540Y04720D01*
X08540Y04720D02*
X08540Y05280D01*
X08540Y05280D02*
X09660Y05280D01*
X09660Y05280D02*
X09660Y04720D01*
X09660Y05720D02*
X08540Y05720D01*
X08540Y05720D02*
X08540Y06280D01*
X08540Y06280D02*
X09660Y06280D01*
X09660Y06280D02*
X09660Y05720D01*
X09660Y06720D02*
X08540Y06720D01*
X08540Y06720D02*
X08540Y07280D01*
X08540Y07280D02*
X09660Y07280D01*
X09660Y07280D02*
X09660Y06720D01*
X09660Y07720D02*
X08540Y07720D01*
X08540Y07720D02*
X08540Y08280D01*
X08540Y08280D02*
X09660Y08280D01*
X09660Y08280D02*
X09660Y07720D01*
X09660Y08720D02*
X08540Y08720D01*
X08540Y08720D02*
X08540Y09280D01*
X08540Y09280D02*
X09660Y09280D01*
X09660Y09280D02*
X09660Y08720D01*
X09660Y09720D02*
X08540Y09720D01*
X08540Y09720D02*
X08540Y10280D01*
X08540Y10280D02*
X09660Y10280D01*
X09660Y10280D02*
X09660Y09720D01*
X09660Y10720D02*
X08540Y10720D01*
X08540Y10720D02*
X08540Y11280D01*
X08540Y11280D02*
X09660Y11280D01*
X09660Y11280D02*
X09660Y10720D01*
X09660Y11720D02*
X08540Y11720D01*
X08540Y11720D02*
X08540Y12280D01*
X08540Y12280D02*
X09660Y12280D01*
X09660Y12280D02*
X09660Y11720D01*
X09660Y12720D02*
X08540Y12720D01*
X08540Y12720D02*
X08540Y13280D01*
X08540Y13280D02*
X09660Y13280D01*
X09660Y13280D02*
X09660Y12720D01*
X09660Y13720D02*
X08540Y13720D01*
X08540Y13720D02*
X08540Y14280D01*
X08540Y14280D02*
X09660Y14280D01*
X09660Y14280D02*
X09660Y13720D01*
X09660Y14720D02*
X08540Y14720D01*
X08540Y14720D02*
X08540Y15280D01*
X08540Y15280D02*
X09660Y15280D01*
X09660Y15280D02*
X09660Y14720D01*
X09660Y15720D02*
X08540Y15720D01*
X08540Y15720D02*
X08540Y16280D01*
X08540Y16280D02*
X09660Y16280D01*
X09660Y16280D02*
X09660Y15720D01*
X09660Y16720D02*
X08540Y16720D01*
X08540Y16720D02*
X08540Y17280D01*
X08540Y17280D02*
X09660Y17280D01*
X09660Y17280D02*
X09660Y16720D01*
X09660Y17720D02*
X08540Y17720D01*
X08540Y17720D02*
X08540Y18280D01*
X08540Y18280D02*
X09660Y18280D01*
X09660Y18280D02*
X09660Y17720D01*
X02770Y00440D02*
X02770Y01560D01*
X02770Y01560D02*
X03330Y01560D01*
X03330Y01560D02*
X03330Y00440D01*
X03330Y00440D02*
X02770Y00440D01*
X03770Y00440D02*
X03770Y01560D01*
X03770Y01560D02*
X04330Y01560D01*
X04330Y01560D02*
X04330Y00440D01*
X04330Y00440D02*
X03770Y00440D01*
X04770Y00440D02*
X04770Y01560D01*
X04770Y01560D02*
X05330Y01560D01*
X05330Y01560D02*
X05330Y00440D01*
X05330Y00440D02*
X04770Y00440D01*
X05770Y00440D02*
X05770Y01560D01*
X05770Y01560D02*
X06330Y01560D01*
X06330Y01560D02*
X06330Y00440D01*
X06330Y00440D02*
X05770Y00440D01*
X06770Y00440D02*
X06770Y01560D01*
X06770Y01560D02*
X07330Y01560D01*
X07330Y01560D02*
X07330Y00440D01*
X07330Y00440D02*
X06770Y00440D01*
X01360Y10720D02*
X00240Y10720D01*
X00240Y10720D02*
X00240Y11280D01*
X00240Y11280D02*
X01360Y11280D01*
X01360Y11280D02*
X01360Y10720D01*
X01360Y11720D02*
X00240Y11720D01*
X00240Y11720D02*
X00240Y12280D01*
X00240Y12280D02*
X01360Y12280D01*
X01360Y12280D02*
X01360Y11720D01*
X01360Y12720D02*
X00240Y12720D01*
X00240Y12720D02*
X00240Y13280D01*
X00240Y13280D02*
X01360Y13280D01*
X01360Y13280D02*
X01360Y12720D01*
X01360Y13720D02*
X00240Y13720D01*
X00240Y13720D02*
X00240Y14280D01*
X00240Y14280D02*
X01360Y14280D01*
X01360Y14280D02*
X01360Y13720D01*
X01360Y14720D02*
X00240Y14720D01*
X00240Y14720D02*
X00240Y15280D01*
X00240Y15280D02*
X01360Y15280D01*
X01360Y15280D02*
X01360Y14720D01*
X01360Y15720D02*
X00240Y15720D01*
X00240Y15720D02*
X00240Y16280D01*
X00240Y16280D02*
X01360Y16280D01*
X01360Y16280D02*
X01360Y15720D01*
X02820Y09740D02*
X01780Y09740D01*
X01780Y09740D02*
X01780Y10260D01*
X01780Y10260D02*
X02820Y10260D01*
X02820Y10260D02*
X02820Y09740D01*
X02820Y10740D02*
X01780Y10740D01*
X01780Y10740D02*
X01780Y11260D01*
X01780Y11260D02*
X02820Y11260D01*
X02820Y11260D02*
X02820Y10740D01*
X02820Y11740D02*
X01780Y11740D01*
X01780Y11740D02*
X01780Y12260D01*
X01780Y12260D02*
X02820Y12260D01*
X02820Y12260D02*
X02820Y11740D01*
X02820Y12740D02*
X01780Y12740D01*
X01780Y12740D02*
X01780Y13260D01*
X01780Y13260D02*
X02820Y13260D01*
X02820Y13260D02*
X02820Y12740D01*
X02820Y13740D02*
X01780Y13740D01*
X01780Y13740D02*
X01780Y14260D01*
X01780Y14260D02*
X02820Y14260D01*
X02820Y14260D02*
X02820Y13740D01*
X02820Y14740D02*
X01780Y14740D01*
X01780Y14740D02*
X01780Y15260D01*
X01780Y15260D02*
X02820Y15260D01*
X02820Y15260D02*
X02820Y14740D01*
X03075Y09000D02*
X03068Y08943D01*
X03068Y08943D02*
X03051Y08889D01*
X03051Y08889D02*
X03022Y08839D01*
X03022Y08839D02*
X02984Y08796D01*
X02984Y08796D02*
X02937Y08762D01*
X02937Y08762D02*
X02884Y08739D01*
X02884Y08739D02*
X02828Y08727D01*
X02828Y08727D02*
X02772Y08727D01*
X02772Y08727D02*
X02716Y08739D01*
X02716Y08739D02*
X02663Y08762D01*
X02663Y08762D02*
X02616Y08796D01*
X02616Y08796D02*
X02578Y08839D01*
X02578Y08839D02*
X02549Y08889D01*
X02549Y08889D02*
X02532Y08943D01*
X02532Y08943D02*
X02525Y09000D01*
X02525Y09000D02*
X02532Y09057D01*
X02532Y09057D02*
X02549Y09111D01*
X02549Y09111D02*
X02578Y09161D01*
X02578Y09161D02*
X02616Y09204D01*
X02616Y09204D02*
X02663Y09238D01*
X02663Y09238D02*
X02716Y09261D01*
X02716Y09261D02*
X02772Y09273D01*
X02772Y09273D02*
X02828Y09273D01*
X02828Y09273D02*
X02884Y09261D01*
X02884Y09261D02*
X02937Y09238D01*
X02937Y09238D02*
X02984Y09204D01*
X02984Y09204D02*
X03022Y09161D01*
X03022Y09161D02*
X03051Y09111D01*
X03051Y09111D02*
X03068Y09057D01*
X03068Y09057D02*
X03075Y09000D01*
X02075Y09000D02*
X02068Y08943D01*
X02068Y08943D02*
X02051Y08889D01*
X02051Y08889D02*
X02022Y08839D01*
X02022Y08839D02*
X01984Y08796D01*
X01984Y08796D02*
X01937Y08762D01*
X01937Y08762D02*
X01884Y08739D01*
X01884Y08739D02*
X01828Y08727D01*
X01828Y08727D02*
X01772Y08727D01*
X01772Y08727D02*
X01716Y08739D01*
X01716Y08739D02*
X01663Y08762D01*
X01663Y08762D02*
X01616Y08796D01*
X01616Y08796D02*
X01578Y08839D01*
X01578Y08839D02*
X01549Y08889D01*
X01549Y08889D02*
X01532Y08943D01*
X01532Y08943D02*
X01525Y09000D01*
X01525Y09000D02*
X01532Y09057D01*
X01532Y09057D02*
X01549Y09111D01*
X01549Y09111D02*
X01578Y09161D01*
X01578Y09161D02*
X01616Y09204D01*
X01616Y09204D02*
X01663Y09238D01*
X01663Y09238D02*
X01716Y09261D01*
X01716Y09261D02*
X01772Y09273D01*
X01772Y09273D02*
X01828Y09273D01*
X01828Y09273D02*
X01884Y09261D01*
X01884Y09261D02*
X01937Y09238D01*
X01937Y09238D02*
X01984Y09204D01*
X01984Y09204D02*
X02022Y09161D01*
X02022Y09161D02*
X02051Y09111D01*
X02051Y09111D02*
X02068Y09057D01*
X02068Y09057D02*
X02075Y09000D01*
X01375Y03325D02*
X01375Y02675D01*
X01375Y02675D02*
X00725Y02675D01*
X00725Y02675D02*
X00725Y03325D01*
X00725Y03325D02*
X01375Y03325D01*
X02875Y03000D02*
X02867Y02933D01*
X02867Y02933D02*
X02846Y02868D01*
X02846Y02868D02*
X02812Y02809D01*
X02812Y02809D02*
X02767Y02759D01*
X02767Y02759D02*
X02712Y02719D01*
X02712Y02719D02*
X02650Y02691D01*
X02650Y02691D02*
X02583Y02677D01*
X02583Y02677D02*
X02517Y02677D01*
X02517Y02677D02*
X02450Y02691D01*
X02450Y02691D02*
X02388Y02719D01*
X02388Y02719D02*
X02333Y02759D01*
X02333Y02759D02*
X02288Y02809D01*
X02288Y02809D02*
X02254Y02868D01*
X02254Y02868D02*
X02233Y02933D01*
X02233Y02933D02*
X02225Y03000D01*
X02225Y03000D02*
X02233Y03067D01*
X02233Y03067D02*
X02254Y03132D01*
X02254Y03132D02*
X02288Y03191D01*
X02288Y03191D02*
X02333Y03241D01*
X02333Y03241D02*
X02388Y03281D01*
X02388Y03281D02*
X02450Y03309D01*
X02450Y03309D02*
X02517Y03323D01*
X02517Y03323D02*
X02583Y03323D01*
X02583Y03323D02*
X02650Y03309D01*
X02650Y03309D02*
X02712Y03281D01*
X02712Y03281D02*
X02767Y03241D01*
X02767Y03241D02*
X02812Y03191D01*
X02812Y03191D02*
X02846Y03132D01*
X02846Y03132D02*
X02867Y03067D01*
X02867Y03067D02*
X02875Y03000D01*
X03075Y07500D02*
X03068Y07443D01*
X03068Y07443D02*
X03051Y07389D01*
X03051Y07389D02*
X03022Y07339D01*
X03022Y07339D02*
X02984Y07296D01*
X02984Y07296D02*
X02937Y07262D01*
X02937Y07262D02*
X02884Y07239D01*
X02884Y07239D02*
X02828Y07227D01*
X02828Y07227D02*
X02772Y07227D01*
X02772Y07227D02*
X02716Y07239D01*
X02716Y07239D02*
X02663Y07262D01*
X02663Y07262D02*
X02616Y07296D01*
X02616Y07296D02*
X02578Y07339D01*
X02578Y07339D02*
X02549Y07389D01*
X02549Y07389D02*
X02532Y07443D01*
X02532Y07443D02*
X02525Y07500D01*
X02525Y07500D02*
X02532Y07557D01*
X02532Y07557D02*
X02549Y07611D01*
X02549Y07611D02*
X02578Y07661D01*
X02578Y07661D02*
X02616Y07704D01*
X02616Y07704D02*
X02663Y07738D01*
X02663Y07738D02*
X02716Y07761D01*
X02716Y07761D02*
X02772Y07773D01*
X02772Y07773D02*
X02828Y07773D01*
X02828Y07773D02*
X02884Y07761D01*
X02884Y07761D02*
X02937Y07738D01*
X02937Y07738D02*
X02984Y07704D01*
X02984Y07704D02*
X03022Y07661D01*
X03022Y07661D02*
X03051Y07611D01*
X03051Y07611D02*
X03068Y07557D01*
X03068Y07557D02*
X03075Y07500D01*
X01075Y07500D02*
X01068Y07443D01*
X01068Y07443D02*
X01051Y07389D01*
X01051Y07389D02*
X01022Y07339D01*
X01022Y07339D02*
X00984Y07296D01*
X00984Y07296D02*
X00937Y07262D01*
X00937Y07262D02*
X00884Y07239D01*
X00884Y07239D02*
X00828Y07227D01*
X00828Y07227D02*
X00772Y07227D01*
X00772Y07227D02*
X00716Y07239D01*
X00716Y07239D02*
X00663Y07262D01*
X00663Y07262D02*
X00616Y07296D01*
X00616Y07296D02*
X00578Y07339D01*
X00578Y07339D02*
X00549Y07389D01*
X00549Y07389D02*
X00532Y07443D01*
X00532Y07443D02*
X00525Y07500D01*
X00525Y07500D02*
X00532Y07557D01*
X00532Y07557D02*
X00549Y07611D01*
X00549Y07611D02*
X00578Y07661D01*
X00578Y07661D02*
X00616Y07704D01*
X00616Y07704D02*
X00663Y07738D01*
X00663Y07738D02*
X00716Y07761D01*
X00716Y07761D02*
X00772Y07773D01*
X00772Y07773D02*
X00828Y07773D01*
X00828Y07773D02*
X00884Y07761D01*
X00884Y07761D02*
X00937Y07738D01*
X00937Y07738D02*
X00984Y07704D01*
X00984Y07704D02*
X01022Y07661D01*
X01022Y07661D02*
X01051Y07611D01*
X01051Y07611D02*
X01068Y07557D01*
X01068Y07557D02*
X01075Y07500D01*
X02075Y07500D02*
X02068Y07443D01*
X02068Y07443D02*
X02051Y07389D01*
X02051Y07389D02*
X02022Y07339D01*
X02022Y07339D02*
X01984Y07296D01*
X01984Y07296D02*
X01937Y07262D01*
X01937Y07262D02*
X01884Y07239D01*
X01884Y07239D02*
X01828Y07227D01*
X01828Y07227D02*
X01772Y07227D01*
X01772Y07227D02*
X01716Y07239D01*
X01716Y07239D02*
X01663Y07262D01*
X01663Y07262D02*
X01616Y07296D01*
X01616Y07296D02*
X01578Y07339D01*
X01578Y07339D02*
X01549Y07389D01*
X01549Y07389D02*
X01532Y07443D01*
X01532Y07443D02*
X01525Y07500D01*
X01525Y07500D02*
X01532Y07557D01*
X01532Y07557D02*
X01549Y07611D01*
X01549Y07611D02*
X01578Y07661D01*
X01578Y07661D02*
X01616Y07704D01*
X01616Y07704D02*
X01663Y07738D01*
X01663Y07738D02*
X01716Y07761D01*
X01716Y07761D02*
X01772Y07773D01*
X01772Y07773D02*
X01828Y07773D01*
X01828Y07773D02*
X01884Y07761D01*
X01884Y07761D02*
X01937Y07738D01*
X01937Y07738D02*
X01984Y07704D01*
X01984Y07704D02*
X02022Y07661D01*
X02022Y07661D02*
X02051Y07611D01*
X02051Y07611D02*
X02068Y07557D01*
X02068Y07557D02*
X02075Y07500D01*
X01075Y08500D02*
X01068Y08443D01*
X01068Y08443D02*
X01051Y08389D01*
X01051Y08389D02*
X01022Y08339D01*
X01022Y08339D02*
X00984Y08296D01*
X00984Y08296D02*
X00937Y08262D01*
X00937Y08262D02*
X00884Y08239D01*
X00884Y08239D02*
X00828Y08227D01*
X00828Y08227D02*
X00772Y08227D01*
X00772Y08227D02*
X00716Y08239D01*
X00716Y08239D02*
X00663Y08262D01*
X00663Y08262D02*
X00616Y08296D01*
X00616Y08296D02*
X00578Y08339D01*
X00578Y08339D02*
X00549Y08389D01*
X00549Y08389D02*
X00532Y08443D01*
X00532Y08443D02*
X00525Y08500D01*
X00525Y08500D02*
X00532Y08557D01*
X00532Y08557D02*
X00549Y08611D01*
X00549Y08611D02*
X00578Y08661D01*
X00578Y08661D02*
X00616Y08704D01*
X00616Y08704D02*
X00663Y08738D01*
X00663Y08738D02*
X00716Y08761D01*
X00716Y08761D02*
X00772Y08773D01*
X00772Y08773D02*
X00828Y08773D01*
X00828Y08773D02*
X00884Y08761D01*
X00884Y08761D02*
X00937Y08738D01*
X00937Y08738D02*
X00984Y08704D01*
X00984Y08704D02*
X01022Y08661D01*
X01022Y08661D02*
X01051Y08611D01*
X01051Y08611D02*
X01068Y08557D01*
X01068Y08557D02*
X01075Y08500D01*
X01075Y09500D02*
X01068Y09443D01*
X01068Y09443D02*
X01051Y09389D01*
X01051Y09389D02*
X01022Y09339D01*
X01022Y09339D02*
X00984Y09296D01*
X00984Y09296D02*
X00937Y09262D01*
X00937Y09262D02*
X00884Y09239D01*
X00884Y09239D02*
X00828Y09227D01*
X00828Y09227D02*
X00772Y09227D01*
X00772Y09227D02*
X00716Y09239D01*
X00716Y09239D02*
X00663Y09262D01*
X00663Y09262D02*
X00616Y09296D01*
X00616Y09296D02*
X00578Y09339D01*
X00578Y09339D02*
X00549Y09389D01*
X00549Y09389D02*
X00532Y09443D01*
X00532Y09443D02*
X00525Y09500D01*
X00525Y09500D02*
X00532Y09557D01*
X00532Y09557D02*
X00549Y09611D01*
X00549Y09611D02*
X00578Y09661D01*
X00578Y09661D02*
X00616Y09704D01*
X00616Y09704D02*
X00663Y09738D01*
X00663Y09738D02*
X00716Y09761D01*
X00716Y09761D02*
X00772Y09773D01*
X00772Y09773D02*
X00828Y09773D01*
X00828Y09773D02*
X00884Y09761D01*
X00884Y09761D02*
X00937Y09738D01*
X00937Y09738D02*
X00984Y09704D01*
X00984Y09704D02*
X01022Y09661D01*
X01022Y09661D02*
X01051Y09611D01*
X01051Y09611D02*
X01068Y09557D01*
X01068Y09557D02*
X01075Y09500D01*
X04075Y15000D02*
X04068Y14943D01*
X04068Y14943D02*
X04051Y14889D01*
X04051Y14889D02*
X04022Y14839D01*
X04022Y14839D02*
X03984Y14796D01*
X03984Y14796D02*
X03937Y14762D01*
X03937Y14762D02*
X03884Y14739D01*
X03884Y14739D02*
X03828Y14727D01*
X03828Y14727D02*
X03772Y14727D01*
X03772Y14727D02*
X03716Y14739D01*
X03716Y14739D02*
X03663Y14762D01*
X03663Y14762D02*
X03616Y14796D01*
X03616Y14796D02*
X03578Y14839D01*
X03578Y14839D02*
X03549Y14889D01*
X03549Y14889D02*
X03532Y14943D01*
X03532Y14943D02*
X03525Y15000D01*
X03525Y15000D02*
X03532Y15057D01*
X03532Y15057D02*
X03549Y15111D01*
X03549Y15111D02*
X03578Y15161D01*
X03578Y15161D02*
X03616Y15204D01*
X03616Y15204D02*
X03663Y15238D01*
X03663Y15238D02*
X03716Y15261D01*
X03716Y15261D02*
X03772Y15273D01*
X03772Y15273D02*
X03828Y15273D01*
X03828Y15273D02*
X03884Y15261D01*
X03884Y15261D02*
X03937Y15238D01*
X03937Y15238D02*
X03984Y15204D01*
X03984Y15204D02*
X04022Y15161D01*
X04022Y15161D02*
X04051Y15111D01*
X04051Y15111D02*
X04068Y15057D01*
X04068Y15057D02*
X04075Y15000D01*
X04075Y14000D02*
X04068Y13943D01*
X04068Y13943D02*
X04051Y13889D01*
X04051Y13889D02*
X04022Y13839D01*
X04022Y13839D02*
X03984Y13796D01*
X03984Y13796D02*
X03937Y13762D01*
X03937Y13762D02*
X03884Y13739D01*
X03884Y13739D02*
X03828Y13727D01*
X03828Y13727D02*
X03772Y13727D01*
X03772Y13727D02*
X03716Y13739D01*
X03716Y13739D02*
X03663Y13762D01*
X03663Y13762D02*
X03616Y13796D01*
X03616Y13796D02*
X03578Y13839D01*
X03578Y13839D02*
X03549Y13889D01*
X03549Y13889D02*
X03532Y13943D01*
X03532Y13943D02*
X03525Y14000D01*
X03525Y14000D02*
X03532Y14057D01*
X03532Y14057D02*
X03549Y14111D01*
X03549Y14111D02*
X03578Y14161D01*
X03578Y14161D02*
X03616Y14204D01*
X03616Y14204D02*
X03663Y14238D01*
X03663Y14238D02*
X03716Y14261D01*
X03716Y14261D02*
X03772Y14273D01*
X03772Y14273D02*
X03828Y14273D01*
X03828Y14273D02*
X03884Y14261D01*
X03884Y14261D02*
X03937Y14238D01*
X03937Y14238D02*
X03984Y14204D01*
X03984Y14204D02*
X04022Y14161D01*
X04022Y14161D02*
X04051Y14111D01*
X04051Y14111D02*
X04068Y14057D01*
X04068Y14057D02*
X04075Y14000D01*
X04075Y13000D02*
X04068Y12943D01*
X04068Y12943D02*
X04051Y12889D01*
X04051Y12889D02*
X04022Y12839D01*
X04022Y12839D02*
X03984Y12796D01*
X03984Y12796D02*
X03937Y12762D01*
X03937Y12762D02*
X03884Y12739D01*
X03884Y12739D02*
X03828Y12727D01*
X03828Y12727D02*
X03772Y12727D01*
X03772Y12727D02*
X03716Y12739D01*
X03716Y12739D02*
X03663Y12762D01*
X03663Y12762D02*
X03616Y12796D01*
X03616Y12796D02*
X03578Y12839D01*
X03578Y12839D02*
X03549Y12889D01*
X03549Y12889D02*
X03532Y12943D01*
X03532Y12943D02*
X03525Y13000D01*
X03525Y13000D02*
X03532Y13057D01*
X03532Y13057D02*
X03549Y13111D01*
X03549Y13111D02*
X03578Y13161D01*
X03578Y13161D02*
X03616Y13204D01*
X03616Y13204D02*
X03663Y13238D01*
X03663Y13238D02*
X03716Y13261D01*
X03716Y13261D02*
X03772Y13273D01*
X03772Y13273D02*
X03828Y13273D01*
X03828Y13273D02*
X03884Y13261D01*
X03884Y13261D02*
X03937Y13238D01*
X03937Y13238D02*
X03984Y13204D01*
X03984Y13204D02*
X04022Y13161D01*
X04022Y13161D02*
X04051Y13111D01*
X04051Y13111D02*
X04068Y13057D01*
X04068Y13057D02*
X04075Y13000D01*
X04075Y12000D02*
X04068Y11943D01*
X04068Y11943D02*
X04051Y11889D01*
X04051Y11889D02*
X04022Y11839D01*
X04022Y11839D02*
X03984Y11796D01*
X03984Y11796D02*
X03937Y11762D01*
X03937Y11762D02*
X03884Y11739D01*
X03884Y11739D02*
X03828Y11727D01*
X03828Y11727D02*
X03772Y11727D01*
X03772Y11727D02*
X03716Y11739D01*
X03716Y11739D02*
X03663Y11762D01*
X03663Y11762D02*
X03616Y11796D01*
X03616Y11796D02*
X03578Y11839D01*
X03578Y11839D02*
X03549Y11889D01*
X03549Y11889D02*
X03532Y11943D01*
X03532Y11943D02*
X03525Y12000D01*
X03525Y12000D02*
X03532Y12057D01*
X03532Y12057D02*
X03549Y12111D01*
X03549Y12111D02*
X03578Y12161D01*
X03578Y12161D02*
X03616Y12204D01*
X03616Y12204D02*
X03663Y12238D01*
X03663Y12238D02*
X03716Y12261D01*
X03716Y12261D02*
X03772Y12273D01*
X03772Y12273D02*
X03828Y12273D01*
X03828Y12273D02*
X03884Y12261D01*
X03884Y12261D02*
X03937Y12238D01*
X03937Y12238D02*
X03984Y12204D01*
X03984Y12204D02*
X04022Y12161D01*
X04022Y12161D02*
X04051Y12111D01*
X04051Y12111D02*
X04068Y12057D01*
X04068Y12057D02*
X04075Y12000D01*
X04075Y11000D02*
X04068Y10943D01*
X04068Y10943D02*
X04051Y10889D01*
X04051Y10889D02*
X04022Y10839D01*
X04022Y10839D02*
X03984Y10796D01*
X03984Y10796D02*
X03937Y10762D01*
X03937Y10762D02*
X03884Y10739D01*
X03884Y10739D02*
X03828Y10727D01*
X03828Y10727D02*
X03772Y10727D01*
X03772Y10727D02*
X03716Y10739D01*
X03716Y10739D02*
X03663Y10762D01*
X03663Y10762D02*
X03616Y10796D01*
X03616Y10796D02*
X03578Y10839D01*
X03578Y10839D02*
X03549Y10889D01*
X03549Y10889D02*
X03532Y10943D01*
X03532Y10943D02*
X03525Y11000D01*
X03525Y11000D02*
X03532Y11057D01*
X03532Y11057D02*
X03549Y11111D01*
X03549Y11111D02*
X03578Y11161D01*
X03578Y11161D02*
X03616Y11204D01*
X03616Y11204D02*
X03663Y11238D01*
X03663Y11238D02*
X03716Y11261D01*
X03716Y11261D02*
X03772Y11273D01*
X03772Y11273D02*
X03828Y11273D01*
X03828Y11273D02*
X03884Y11261D01*
X03884Y11261D02*
X03937Y11238D01*
X03937Y11238D02*
X03984Y11204D01*
X03984Y11204D02*
X04022Y11161D01*
X04022Y11161D02*
X04051Y11111D01*
X04051Y11111D02*
X04068Y11057D01*
X04068Y11057D02*
X04075Y11000D01*
X04075Y10000D02*
X04068Y09943D01*
X04068Y09943D02*
X04051Y09889D01*
X04051Y09889D02*
X04022Y09839D01*
X04022Y09839D02*
X03984Y09796D01*
X03984Y09796D02*
X03937Y09762D01*
X03937Y09762D02*
X03884Y09739D01*
X03884Y09739D02*
X03828Y09727D01*
X03828Y09727D02*
X03772Y09727D01*
X03772Y09727D02*
X03716Y09739D01*
X03716Y09739D02*
X03663Y09762D01*
X03663Y09762D02*
X03616Y09796D01*
X03616Y09796D02*
X03578Y09839D01*
X03578Y09839D02*
X03549Y09889D01*
X03549Y09889D02*
X03532Y09943D01*
X03532Y09943D02*
X03525Y10000D01*
X03525Y10000D02*
X03532Y10057D01*
X03532Y10057D02*
X03549Y10111D01*
X03549Y10111D02*
X03578Y10161D01*
X03578Y10161D02*
X03616Y10204D01*
X03616Y10204D02*
X03663Y10238D01*
X03663Y10238D02*
X03716Y10261D01*
X03716Y10261D02*
X03772Y10273D01*
X03772Y10273D02*
X03828Y10273D01*
X03828Y10273D02*
X03884Y10261D01*
X03884Y10261D02*
X03937Y10238D01*
X03937Y10238D02*
X03984Y10204D01*
X03984Y10204D02*
X04022Y10161D01*
X04022Y10161D02*
X04051Y10111D01*
X04051Y10111D02*
X04068Y10057D01*
X04068Y10057D02*
X04075Y10000D01*
X04075Y09000D02*
X04068Y08943D01*
X04068Y08943D02*
X04051Y08889D01*
X04051Y08889D02*
X04022Y08839D01*
X04022Y08839D02*
X03984Y08796D01*
X03984Y08796D02*
X03937Y08762D01*
X03937Y08762D02*
X03884Y08739D01*
X03884Y08739D02*
X03828Y08727D01*
X03828Y08727D02*
X03772Y08727D01*
X03772Y08727D02*
X03716Y08739D01*
X03716Y08739D02*
X03663Y08762D01*
X03663Y08762D02*
X03616Y08796D01*
X03616Y08796D02*
X03578Y08839D01*
X03578Y08839D02*
X03549Y08889D01*
X03549Y08889D02*
X03532Y08943D01*
X03532Y08943D02*
X03525Y09000D01*
X03525Y09000D02*
X03532Y09057D01*
X03532Y09057D02*
X03549Y09111D01*
X03549Y09111D02*
X03578Y09161D01*
X03578Y09161D02*
X03616Y09204D01*
X03616Y09204D02*
X03663Y09238D01*
X03663Y09238D02*
X03716Y09261D01*
X03716Y09261D02*
X03772Y09273D01*
X03772Y09273D02*
X03828Y09273D01*
X03828Y09273D02*
X03884Y09261D01*
X03884Y09261D02*
X03937Y09238D01*
X03937Y09238D02*
X03984Y09204D01*
X03984Y09204D02*
X04022Y09161D01*
X04022Y09161D02*
X04051Y09111D01*
X04051Y09111D02*
X04068Y09057D01*
X04068Y09057D02*
X04075Y09000D01*
X04075Y08000D02*
X04068Y07943D01*
X04068Y07943D02*
X04051Y07889D01*
X04051Y07889D02*
X04022Y07839D01*
X04022Y07839D02*
X03984Y07796D01*
X03984Y07796D02*
X03937Y07762D01*
X03937Y07762D02*
X03884Y07739D01*
X03884Y07739D02*
X03828Y07727D01*
X03828Y07727D02*
X03772Y07727D01*
X03772Y07727D02*
X03716Y07739D01*
X03716Y07739D02*
X03663Y07762D01*
X03663Y07762D02*
X03616Y07796D01*
X03616Y07796D02*
X03578Y07839D01*
X03578Y07839D02*
X03549Y07889D01*
X03549Y07889D02*
X03532Y07943D01*
X03532Y07943D02*
X03525Y08000D01*
X03525Y08000D02*
X03532Y08057D01*
X03532Y08057D02*
X03549Y08111D01*
X03549Y08111D02*
X03578Y08161D01*
X03578Y08161D02*
X03616Y08204D01*
X03616Y08204D02*
X03663Y08238D01*
X03663Y08238D02*
X03716Y08261D01*
X03716Y08261D02*
X03772Y08273D01*
X03772Y08273D02*
X03828Y08273D01*
X03828Y08273D02*
X03884Y08261D01*
X03884Y08261D02*
X03937Y08238D01*
X03937Y08238D02*
X03984Y08204D01*
X03984Y08204D02*
X04022Y08161D01*
X04022Y08161D02*
X04051Y08111D01*
X04051Y08111D02*
X04068Y08057D01*
X04068Y08057D02*
X04075Y08000D01*
X04075Y07000D02*
X04068Y06943D01*
X04068Y06943D02*
X04051Y06889D01*
X04051Y06889D02*
X04022Y06839D01*
X04022Y06839D02*
X03984Y06796D01*
X03984Y06796D02*
X03937Y06762D01*
X03937Y06762D02*
X03884Y06739D01*
X03884Y06739D02*
X03828Y06727D01*
X03828Y06727D02*
X03772Y06727D01*
X03772Y06727D02*
X03716Y06739D01*
X03716Y06739D02*
X03663Y06762D01*
X03663Y06762D02*
X03616Y06796D01*
X03616Y06796D02*
X03578Y06839D01*
X03578Y06839D02*
X03549Y06889D01*
X03549Y06889D02*
X03532Y06943D01*
X03532Y06943D02*
X03525Y07000D01*
X03525Y07000D02*
X03532Y07057D01*
X03532Y07057D02*
X03549Y07111D01*
X03549Y07111D02*
X03578Y07161D01*
X03578Y07161D02*
X03616Y07204D01*
X03616Y07204D02*
X03663Y07238D01*
X03663Y07238D02*
X03716Y07261D01*
X03716Y07261D02*
X03772Y07273D01*
X03772Y07273D02*
X03828Y07273D01*
X03828Y07273D02*
X03884Y07261D01*
X03884Y07261D02*
X03937Y07238D01*
X03937Y07238D02*
X03984Y07204D01*
X03984Y07204D02*
X04022Y07161D01*
X04022Y07161D02*
X04051Y07111D01*
X04051Y07111D02*
X04068Y07057D01*
X04068Y07057D02*
X04075Y07000D01*
X04075Y06000D02*
X04068Y05943D01*
X04068Y05943D02*
X04051Y05889D01*
X04051Y05889D02*
X04022Y05839D01*
X04022Y05839D02*
X03984Y05796D01*
X03984Y05796D02*
X03937Y05762D01*
X03937Y05762D02*
X03884Y05739D01*
X03884Y05739D02*
X03828Y05727D01*
X03828Y05727D02*
X03772Y05727D01*
X03772Y05727D02*
X03716Y05739D01*
X03716Y05739D02*
X03663Y05762D01*
X03663Y05762D02*
X03616Y05796D01*
X03616Y05796D02*
X03578Y05839D01*
X03578Y05839D02*
X03549Y05889D01*
X03549Y05889D02*
X03532Y05943D01*
X03532Y05943D02*
X03525Y06000D01*
X03525Y06000D02*
X03532Y06057D01*
X03532Y06057D02*
X03549Y06111D01*
X03549Y06111D02*
X03578Y06161D01*
X03578Y06161D02*
X03616Y06204D01*
X03616Y06204D02*
X03663Y06238D01*
X03663Y06238D02*
X03716Y06261D01*
X03716Y06261D02*
X03772Y06273D01*
X03772Y06273D02*
X03828Y06273D01*
X03828Y06273D02*
X03884Y06261D01*
X03884Y06261D02*
X03937Y06238D01*
X03937Y06238D02*
X03984Y06204D01*
X03984Y06204D02*
X04022Y06161D01*
X04022Y06161D02*
X04051Y06111D01*
X04051Y06111D02*
X04068Y06057D01*
X04068Y06057D02*
X04075Y06000D01*
X04075Y05000D02*
X04068Y04943D01*
X04068Y04943D02*
X04051Y04889D01*
X04051Y04889D02*
X04022Y04839D01*
X04022Y04839D02*
X03984Y04796D01*
X03984Y04796D02*
X03937Y04762D01*
X03937Y04762D02*
X03884Y04739D01*
X03884Y04739D02*
X03828Y04727D01*
X03828Y04727D02*
X03772Y04727D01*
X03772Y04727D02*
X03716Y04739D01*
X03716Y04739D02*
X03663Y04762D01*
X03663Y04762D02*
X03616Y04796D01*
X03616Y04796D02*
X03578Y04839D01*
X03578Y04839D02*
X03549Y04889D01*
X03549Y04889D02*
X03532Y04943D01*
X03532Y04943D02*
X03525Y05000D01*
X03525Y05000D02*
X03532Y05057D01*
X03532Y05057D02*
X03549Y05111D01*
X03549Y05111D02*
X03578Y05161D01*
X03578Y05161D02*
X03616Y05204D01*
X03616Y05204D02*
X03663Y05238D01*
X03663Y05238D02*
X03716Y05261D01*
X03716Y05261D02*
X03772Y05273D01*
X03772Y05273D02*
X03828Y05273D01*
X03828Y05273D02*
X03884Y05261D01*
X03884Y05261D02*
X03937Y05238D01*
X03937Y05238D02*
X03984Y05204D01*
X03984Y05204D02*
X04022Y05161D01*
X04022Y05161D02*
X04051Y05111D01*
X04051Y05111D02*
X04068Y05057D01*
X04068Y05057D02*
X04075Y05000D01*
X04075Y04000D02*
X04068Y03943D01*
X04068Y03943D02*
X04051Y03889D01*
X04051Y03889D02*
X04022Y03839D01*
X04022Y03839D02*
X03984Y03796D01*
X03984Y03796D02*
X03937Y03762D01*
X03937Y03762D02*
X03884Y03739D01*
X03884Y03739D02*
X03828Y03727D01*
X03828Y03727D02*
X03772Y03727D01*
X03772Y03727D02*
X03716Y03739D01*
X03716Y03739D02*
X03663Y03762D01*
X03663Y03762D02*
X03616Y03796D01*
X03616Y03796D02*
X03578Y03839D01*
X03578Y03839D02*
X03549Y03889D01*
X03549Y03889D02*
X03532Y03943D01*
X03532Y03943D02*
X03525Y04000D01*
X03525Y04000D02*
X03532Y04057D01*
X03532Y04057D02*
X03549Y04111D01*
X03549Y04111D02*
X03578Y04161D01*
X03578Y04161D02*
X03616Y04204D01*
X03616Y04204D02*
X03663Y04238D01*
X03663Y04238D02*
X03716Y04261D01*
X03716Y04261D02*
X03772Y04273D01*
X03772Y04273D02*
X03828Y04273D01*
X03828Y04273D02*
X03884Y04261D01*
X03884Y04261D02*
X03937Y04238D01*
X03937Y04238D02*
X03984Y04204D01*
X03984Y04204D02*
X04022Y04161D01*
X04022Y04161D02*
X04051Y04111D01*
X04051Y04111D02*
X04068Y04057D01*
X04068Y04057D02*
X04075Y04000D01*
X04075Y03000D02*
X04068Y02943D01*
X04068Y02943D02*
X04051Y02889D01*
X04051Y02889D02*
X04022Y02839D01*
X04022Y02839D02*
X03984Y02796D01*
X03984Y02796D02*
X03937Y02762D01*
X03937Y02762D02*
X03884Y02739D01*
X03884Y02739D02*
X03828Y02727D01*
X03828Y02727D02*
X03772Y02727D01*
X03772Y02727D02*
X03716Y02739D01*
X03716Y02739D02*
X03663Y02762D01*
X03663Y02762D02*
X03616Y02796D01*
X03616Y02796D02*
X03578Y02839D01*
X03578Y02839D02*
X03549Y02889D01*
X03549Y02889D02*
X03532Y02943D01*
X03532Y02943D02*
X03525Y03000D01*
X03525Y03000D02*
X03532Y03057D01*
X03532Y03057D02*
X03549Y03111D01*
X03549Y03111D02*
X03578Y03161D01*
X03578Y03161D02*
X03616Y03204D01*
X03616Y03204D02*
X03663Y03238D01*
X03663Y03238D02*
X03716Y03261D01*
X03716Y03261D02*
X03772Y03273D01*
X03772Y03273D02*
X03828Y03273D01*
X03828Y03273D02*
X03884Y03261D01*
X03884Y03261D02*
X03937Y03238D01*
X03937Y03238D02*
X03984Y03204D01*
X03984Y03204D02*
X04022Y03161D01*
X04022Y03161D02*
X04051Y03111D01*
X04051Y03111D02*
X04068Y03057D01*
X04068Y03057D02*
X04075Y03000D01*
X03525Y16275D02*
X04075Y16275D01*
X04075Y16275D02*
X04075Y15725D01*
X04075Y15725D02*
X03525Y15725D01*
X03525Y15725D02*
X03525Y16275D01*
X07075Y03000D02*
X07068Y02943D01*
X07068Y02943D02*
X07051Y02889D01*
X07051Y02889D02*
X07022Y02839D01*
X07022Y02839D02*
X06984Y02796D01*
X06984Y02796D02*
X06937Y02762D01*
X06937Y02762D02*
X06884Y02739D01*
X06884Y02739D02*
X06828Y02727D01*
X06828Y02727D02*
X06772Y02727D01*
X06772Y02727D02*
X06716Y02739D01*
X06716Y02739D02*
X06663Y02762D01*
X06663Y02762D02*
X06616Y02796D01*
X06616Y02796D02*
X06578Y02839D01*
X06578Y02839D02*
X06549Y02889D01*
X06549Y02889D02*
X06532Y02943D01*
X06532Y02943D02*
X06525Y03000D01*
X06525Y03000D02*
X06532Y03057D01*
X06532Y03057D02*
X06549Y03111D01*
X06549Y03111D02*
X06578Y03161D01*
X06578Y03161D02*
X06616Y03204D01*
X06616Y03204D02*
X06663Y03238D01*
X06663Y03238D02*
X06716Y03261D01*
X06716Y03261D02*
X06772Y03273D01*
X06772Y03273D02*
X06828Y03273D01*
X06828Y03273D02*
X06884Y03261D01*
X06884Y03261D02*
X06937Y03238D01*
X06937Y03238D02*
X06984Y03204D01*
X06984Y03204D02*
X07022Y03161D01*
X07022Y03161D02*
X07051Y03111D01*
X07051Y03111D02*
X07068Y03057D01*
X07068Y03057D02*
X07075Y03000D01*
X07075Y04000D02*
X07068Y03943D01*
X07068Y03943D02*
X07051Y03889D01*
X07051Y03889D02*
X07022Y03839D01*
X07022Y03839D02*
X06984Y03796D01*
X06984Y03796D02*
X06937Y03762D01*
X06937Y03762D02*
X06884Y03739D01*
X06884Y03739D02*
X06828Y03727D01*
X06828Y03727D02*
X06772Y03727D01*
X06772Y03727D02*
X06716Y03739D01*
X06716Y03739D02*
X06663Y03762D01*
X06663Y03762D02*
X06616Y03796D01*
X06616Y03796D02*
X06578Y03839D01*
X06578Y03839D02*
X06549Y03889D01*
X06549Y03889D02*
X06532Y03943D01*
X06532Y03943D02*
X06525Y04000D01*
X06525Y04000D02*
X06532Y04057D01*
X06532Y04057D02*
X06549Y04111D01*
X06549Y04111D02*
X06578Y04161D01*
X06578Y04161D02*
X06616Y04204D01*
X06616Y04204D02*
X06663Y04238D01*
X06663Y04238D02*
X06716Y04261D01*
X06716Y04261D02*
X06772Y04273D01*
X06772Y04273D02*
X06828Y04273D01*
X06828Y04273D02*
X06884Y04261D01*
X06884Y04261D02*
X06937Y04238D01*
X06937Y04238D02*
X06984Y04204D01*
X06984Y04204D02*
X07022Y04161D01*
X07022Y04161D02*
X07051Y04111D01*
X07051Y04111D02*
X07068Y04057D01*
X07068Y04057D02*
X07075Y04000D01*
X07075Y05000D02*
X07068Y04943D01*
X07068Y04943D02*
X07051Y04889D01*
X07051Y04889D02*
X07022Y04839D01*
X07022Y04839D02*
X06984Y04796D01*
X06984Y04796D02*
X06937Y04762D01*
X06937Y04762D02*
X06884Y04739D01*
X06884Y04739D02*
X06828Y04727D01*
X06828Y04727D02*
X06772Y04727D01*
X06772Y04727D02*
X06716Y04739D01*
X06716Y04739D02*
X06663Y04762D01*
X06663Y04762D02*
X06616Y04796D01*
X06616Y04796D02*
X06578Y04839D01*
X06578Y04839D02*
X06549Y04889D01*
X06549Y04889D02*
X06532Y04943D01*
X06532Y04943D02*
X06525Y05000D01*
X06525Y05000D02*
X06532Y05057D01*
X06532Y05057D02*
X06549Y05111D01*
X06549Y05111D02*
X06578Y05161D01*
X06578Y05161D02*
X06616Y05204D01*
X06616Y05204D02*
X06663Y05238D01*
X06663Y05238D02*
X06716Y05261D01*
X06716Y05261D02*
X06772Y05273D01*
X06772Y05273D02*
X06828Y05273D01*
X06828Y05273D02*
X06884Y05261D01*
X06884Y05261D02*
X06937Y05238D01*
X06937Y05238D02*
X06984Y05204D01*
X06984Y05204D02*
X07022Y05161D01*
X07022Y05161D02*
X07051Y05111D01*
X07051Y05111D02*
X07068Y05057D01*
X07068Y05057D02*
X07075Y05000D01*
X07075Y06000D02*
X07068Y05943D01*
X07068Y05943D02*
X07051Y05889D01*
X07051Y05889D02*
X07022Y05839D01*
X07022Y05839D02*
X06984Y05796D01*
X06984Y05796D02*
X06937Y05762D01*
X06937Y05762D02*
X06884Y05739D01*
X06884Y05739D02*
X06828Y05727D01*
X06828Y05727D02*
X06772Y05727D01*
X06772Y05727D02*
X06716Y05739D01*
X06716Y05739D02*
X06663Y05762D01*
X06663Y05762D02*
X06616Y05796D01*
X06616Y05796D02*
X06578Y05839D01*
X06578Y05839D02*
X06549Y05889D01*
X06549Y05889D02*
X06532Y05943D01*
X06532Y05943D02*
X06525Y06000D01*
X06525Y06000D02*
X06532Y06057D01*
X06532Y06057D02*
X06549Y06111D01*
X06549Y06111D02*
X06578Y06161D01*
X06578Y06161D02*
X06616Y06204D01*
X06616Y06204D02*
X06663Y06238D01*
X06663Y06238D02*
X06716Y06261D01*
X06716Y06261D02*
X06772Y06273D01*
X06772Y06273D02*
X06828Y06273D01*
X06828Y06273D02*
X06884Y06261D01*
X06884Y06261D02*
X06937Y06238D01*
X06937Y06238D02*
X06984Y06204D01*
X06984Y06204D02*
X07022Y06161D01*
X07022Y06161D02*
X07051Y06111D01*
X07051Y06111D02*
X07068Y06057D01*
X07068Y06057D02*
X07075Y06000D01*
X07075Y07000D02*
X07068Y06943D01*
X07068Y06943D02*
X07051Y06889D01*
X07051Y06889D02*
X07022Y06839D01*
X07022Y06839D02*
X06984Y06796D01*
X06984Y06796D02*
X06937Y06762D01*
X06937Y06762D02*
X06884Y06739D01*
X06884Y06739D02*
X06828Y06727D01*
X06828Y06727D02*
X06772Y06727D01*
X06772Y06727D02*
X06716Y06739D01*
X06716Y06739D02*
X06663Y06762D01*
X06663Y06762D02*
X06616Y06796D01*
X06616Y06796D02*
X06578Y06839D01*
X06578Y06839D02*
X06549Y06889D01*
X06549Y06889D02*
X06532Y06943D01*
X06532Y06943D02*
X06525Y07000D01*
X06525Y07000D02*
X06532Y07057D01*
X06532Y07057D02*
X06549Y07111D01*
X06549Y07111D02*
X06578Y07161D01*
X06578Y07161D02*
X06616Y07204D01*
X06616Y07204D02*
X06663Y07238D01*
X06663Y07238D02*
X06716Y07261D01*
X06716Y07261D02*
X06772Y07273D01*
X06772Y07273D02*
X06828Y07273D01*
X06828Y07273D02*
X06884Y07261D01*
X06884Y07261D02*
X06937Y07238D01*
X06937Y07238D02*
X06984Y07204D01*
X06984Y07204D02*
X07022Y07161D01*
X07022Y07161D02*
X07051Y07111D01*
X07051Y07111D02*
X07068Y07057D01*
X07068Y07057D02*
X07075Y07000D01*
X07075Y08000D02*
X07068Y07943D01*
X07068Y07943D02*
X07051Y07889D01*
X07051Y07889D02*
X07022Y07839D01*
X07022Y07839D02*
X06984Y07796D01*
X06984Y07796D02*
X06937Y07762D01*
X06937Y07762D02*
X06884Y07739D01*
X06884Y07739D02*
X06828Y07727D01*
X06828Y07727D02*
X06772Y07727D01*
X06772Y07727D02*
X06716Y07739D01*
X06716Y07739D02*
X06663Y07762D01*
X06663Y07762D02*
X06616Y07796D01*
X06616Y07796D02*
X06578Y07839D01*
X06578Y07839D02*
X06549Y07889D01*
X06549Y07889D02*
X06532Y07943D01*
X06532Y07943D02*
X06525Y08000D01*
X06525Y08000D02*
X06532Y08057D01*
X06532Y08057D02*
X06549Y08111D01*
X06549Y08111D02*
X06578Y08161D01*
X06578Y08161D02*
X06616Y08204D01*
X06616Y08204D02*
X06663Y08238D01*
X06663Y08238D02*
X06716Y08261D01*
X06716Y08261D02*
X06772Y08273D01*
X06772Y08273D02*
X06828Y08273D01*
X06828Y08273D02*
X06884Y08261D01*
X06884Y08261D02*
X06937Y08238D01*
X06937Y08238D02*
X06984Y08204D01*
X06984Y08204D02*
X07022Y08161D01*
X07022Y08161D02*
X07051Y08111D01*
X07051Y08111D02*
X07068Y08057D01*
X07068Y08057D02*
X07075Y08000D01*
X07075Y09000D02*
X07068Y08943D01*
X07068Y08943D02*
X07051Y08889D01*
X07051Y08889D02*
X07022Y08839D01*
X07022Y08839D02*
X06984Y08796D01*
X06984Y08796D02*
X06937Y08762D01*
X06937Y08762D02*
X06884Y08739D01*
X06884Y08739D02*
X06828Y08727D01*
X06828Y08727D02*
X06772Y08727D01*
X06772Y08727D02*
X06716Y08739D01*
X06716Y08739D02*
X06663Y08762D01*
X06663Y08762D02*
X06616Y08796D01*
X06616Y08796D02*
X06578Y08839D01*
X06578Y08839D02*
X06549Y08889D01*
X06549Y08889D02*
X06532Y08943D01*
X06532Y08943D02*
X06525Y09000D01*
X06525Y09000D02*
X06532Y09057D01*
X06532Y09057D02*
X06549Y09111D01*
X06549Y09111D02*
X06578Y09161D01*
X06578Y09161D02*
X06616Y09204D01*
X06616Y09204D02*
X06663Y09238D01*
X06663Y09238D02*
X06716Y09261D01*
X06716Y09261D02*
X06772Y09273D01*
X06772Y09273D02*
X06828Y09273D01*
X06828Y09273D02*
X06884Y09261D01*
X06884Y09261D02*
X06937Y09238D01*
X06937Y09238D02*
X06984Y09204D01*
X06984Y09204D02*
X07022Y09161D01*
X07022Y09161D02*
X07051Y09111D01*
X07051Y09111D02*
X07068Y09057D01*
X07068Y09057D02*
X07075Y09000D01*
X07075Y10000D02*
X07068Y09943D01*
X07068Y09943D02*
X07051Y09889D01*
X07051Y09889D02*
X07022Y09839D01*
X07022Y09839D02*
X06984Y09796D01*
X06984Y09796D02*
X06937Y09762D01*
X06937Y09762D02*
X06884Y09739D01*
X06884Y09739D02*
X06828Y09727D01*
X06828Y09727D02*
X06772Y09727D01*
X06772Y09727D02*
X06716Y09739D01*
X06716Y09739D02*
X06663Y09762D01*
X06663Y09762D02*
X06616Y09796D01*
X06616Y09796D02*
X06578Y09839D01*
X06578Y09839D02*
X06549Y09889D01*
X06549Y09889D02*
X06532Y09943D01*
X06532Y09943D02*
X06525Y10000D01*
X06525Y10000D02*
X06532Y10057D01*
X06532Y10057D02*
X06549Y10111D01*
X06549Y10111D02*
X06578Y10161D01*
X06578Y10161D02*
X06616Y10204D01*
X06616Y10204D02*
X06663Y10238D01*
X06663Y10238D02*
X06716Y10261D01*
X06716Y10261D02*
X06772Y10273D01*
X06772Y10273D02*
X06828Y10273D01*
X06828Y10273D02*
X06884Y10261D01*
X06884Y10261D02*
X06937Y10238D01*
X06937Y10238D02*
X06984Y10204D01*
X06984Y10204D02*
X07022Y10161D01*
X07022Y10161D02*
X07051Y10111D01*
X07051Y10111D02*
X07068Y10057D01*
X07068Y10057D02*
X07075Y10000D01*
X07075Y11000D02*
X07068Y10943D01*
X07068Y10943D02*
X07051Y10889D01*
X07051Y10889D02*
X07022Y10839D01*
X07022Y10839D02*
X06984Y10796D01*
X06984Y10796D02*
X06937Y10762D01*
X06937Y10762D02*
X06884Y10739D01*
X06884Y10739D02*
X06828Y10727D01*
X06828Y10727D02*
X06772Y10727D01*
X06772Y10727D02*
X06716Y10739D01*
X06716Y10739D02*
X06663Y10762D01*
X06663Y10762D02*
X06616Y10796D01*
X06616Y10796D02*
X06578Y10839D01*
X06578Y10839D02*
X06549Y10889D01*
X06549Y10889D02*
X06532Y10943D01*
X06532Y10943D02*
X06525Y11000D01*
X06525Y11000D02*
X06532Y11057D01*
X06532Y11057D02*
X06549Y11111D01*
X06549Y11111D02*
X06578Y11161D01*
X06578Y11161D02*
X06616Y11204D01*
X06616Y11204D02*
X06663Y11238D01*
X06663Y11238D02*
X06716Y11261D01*
X06716Y11261D02*
X06772Y11273D01*
X06772Y11273D02*
X06828Y11273D01*
X06828Y11273D02*
X06884Y11261D01*
X06884Y11261D02*
X06937Y11238D01*
X06937Y11238D02*
X06984Y11204D01*
X06984Y11204D02*
X07022Y11161D01*
X07022Y11161D02*
X07051Y11111D01*
X07051Y11111D02*
X07068Y11057D01*
X07068Y11057D02*
X07075Y11000D01*
X07075Y12000D02*
X07068Y11943D01*
X07068Y11943D02*
X07051Y11889D01*
X07051Y11889D02*
X07022Y11839D01*
X07022Y11839D02*
X06984Y11796D01*
X06984Y11796D02*
X06937Y11762D01*
X06937Y11762D02*
X06884Y11739D01*
X06884Y11739D02*
X06828Y11727D01*
X06828Y11727D02*
X06772Y11727D01*
X06772Y11727D02*
X06716Y11739D01*
X06716Y11739D02*
X06663Y11762D01*
X06663Y11762D02*
X06616Y11796D01*
X06616Y11796D02*
X06578Y11839D01*
X06578Y11839D02*
X06549Y11889D01*
X06549Y11889D02*
X06532Y11943D01*
X06532Y11943D02*
X06525Y12000D01*
X06525Y12000D02*
X06532Y12057D01*
X06532Y12057D02*
X06549Y12111D01*
X06549Y12111D02*
X06578Y12161D01*
X06578Y12161D02*
X06616Y12204D01*
X06616Y12204D02*
X06663Y12238D01*
X06663Y12238D02*
X06716Y12261D01*
X06716Y12261D02*
X06772Y12273D01*
X06772Y12273D02*
X06828Y12273D01*
X06828Y12273D02*
X06884Y12261D01*
X06884Y12261D02*
X06937Y12238D01*
X06937Y12238D02*
X06984Y12204D01*
X06984Y12204D02*
X07022Y12161D01*
X07022Y12161D02*
X07051Y12111D01*
X07051Y12111D02*
X07068Y12057D01*
X07068Y12057D02*
X07075Y12000D01*
X07075Y13000D02*
X07068Y12943D01*
X07068Y12943D02*
X07051Y12889D01*
X07051Y12889D02*
X07022Y12839D01*
X07022Y12839D02*
X06984Y12796D01*
X06984Y12796D02*
X06937Y12762D01*
X06937Y12762D02*
X06884Y12739D01*
X06884Y12739D02*
X06828Y12727D01*
X06828Y12727D02*
X06772Y12727D01*
X06772Y12727D02*
X06716Y12739D01*
X06716Y12739D02*
X06663Y12762D01*
X06663Y12762D02*
X06616Y12796D01*
X06616Y12796D02*
X06578Y12839D01*
X06578Y12839D02*
X06549Y12889D01*
X06549Y12889D02*
X06532Y12943D01*
X06532Y12943D02*
X06525Y13000D01*
X06525Y13000D02*
X06532Y13057D01*
X06532Y13057D02*
X06549Y13111D01*
X06549Y13111D02*
X06578Y13161D01*
X06578Y13161D02*
X06616Y13204D01*
X06616Y13204D02*
X06663Y13238D01*
X06663Y13238D02*
X06716Y13261D01*
X06716Y13261D02*
X06772Y13273D01*
X06772Y13273D02*
X06828Y13273D01*
X06828Y13273D02*
X06884Y13261D01*
X06884Y13261D02*
X06937Y13238D01*
X06937Y13238D02*
X06984Y13204D01*
X06984Y13204D02*
X07022Y13161D01*
X07022Y13161D02*
X07051Y13111D01*
X07051Y13111D02*
X07068Y13057D01*
X07068Y13057D02*
X07075Y13000D01*
X07075Y14000D02*
X07068Y13943D01*
X07068Y13943D02*
X07051Y13889D01*
X07051Y13889D02*
X07022Y13839D01*
X07022Y13839D02*
X06984Y13796D01*
X06984Y13796D02*
X06937Y13762D01*
X06937Y13762D02*
X06884Y13739D01*
X06884Y13739D02*
X06828Y13727D01*
X06828Y13727D02*
X06772Y13727D01*
X06772Y13727D02*
X06716Y13739D01*
X06716Y13739D02*
X06663Y13762D01*
X06663Y13762D02*
X06616Y13796D01*
X06616Y13796D02*
X06578Y13839D01*
X06578Y13839D02*
X06549Y13889D01*
X06549Y13889D02*
X06532Y13943D01*
X06532Y13943D02*
X06525Y14000D01*
X06525Y14000D02*
X06532Y14057D01*
X06532Y14057D02*
X06549Y14111D01*
X06549Y14111D02*
X06578Y14161D01*
X06578Y14161D02*
X06616Y14204D01*
X06616Y14204D02*
X06663Y14238D01*
X06663Y14238D02*
X06716Y14261D01*
X06716Y14261D02*
X06772Y14273D01*
X06772Y14273D02*
X06828Y14273D01*
X06828Y14273D02*
X06884Y14261D01*
X06884Y14261D02*
X06937Y14238D01*
X06937Y14238D02*
X06984Y14204D01*
X06984Y14204D02*
X07022Y14161D01*
X07022Y14161D02*
X07051Y14111D01*
X07051Y14111D02*
X07068Y14057D01*
X07068Y14057D02*
X07075Y14000D01*
X07075Y15000D02*
X07068Y14943D01*
X07068Y14943D02*
X07051Y14889D01*
X07051Y14889D02*
X07022Y14839D01*
X07022Y14839D02*
X06984Y14796D01*
X06984Y14796D02*
X06937Y14762D01*
X06937Y14762D02*
X06884Y14739D01*
X06884Y14739D02*
X06828Y14727D01*
X06828Y14727D02*
X06772Y14727D01*
X06772Y14727D02*
X06716Y14739D01*
X06716Y14739D02*
X06663Y14762D01*
X06663Y14762D02*
X06616Y14796D01*
X06616Y14796D02*
X06578Y14839D01*
X06578Y14839D02*
X06549Y14889D01*
X06549Y14889D02*
X06532Y14943D01*
X06532Y14943D02*
X06525Y15000D01*
X06525Y15000D02*
X06532Y15057D01*
X06532Y15057D02*
X06549Y15111D01*
X06549Y15111D02*
X06578Y15161D01*
X06578Y15161D02*
X06616Y15204D01*
X06616Y15204D02*
X06663Y15238D01*
X06663Y15238D02*
X06716Y15261D01*
X06716Y15261D02*
X06772Y15273D01*
X06772Y15273D02*
X06828Y15273D01*
X06828Y15273D02*
X06884Y15261D01*
X06884Y15261D02*
X06937Y15238D01*
X06937Y15238D02*
X06984Y15204D01*
X06984Y15204D02*
X07022Y15161D01*
X07022Y15161D02*
X07051Y15111D01*
X07051Y15111D02*
X07068Y15057D01*
X07068Y15057D02*
X07075Y15000D01*
X07075Y16000D02*
X07068Y15943D01*
X07068Y15943D02*
X07051Y15889D01*
X07051Y15889D02*
X07022Y15839D01*
X07022Y15839D02*
X06984Y15796D01*
X06984Y15796D02*
X06937Y15762D01*
X06937Y15762D02*
X06884Y15739D01*
X06884Y15739D02*
X06828Y15727D01*
X06828Y15727D02*
X06772Y15727D01*
X06772Y15727D02*
X06716Y15739D01*
X06716Y15739D02*
X06663Y15762D01*
X06663Y15762D02*
X06616Y15796D01*
X06616Y15796D02*
X06578Y15839D01*
X06578Y15839D02*
X06549Y15889D01*
X06549Y15889D02*
X06532Y15943D01*
X06532Y15943D02*
X06525Y16000D01*
X06525Y16000D02*
X06532Y16057D01*
X06532Y16057D02*
X06549Y16111D01*
X06549Y16111D02*
X06578Y16161D01*
X06578Y16161D02*
X06616Y16204D01*
X06616Y16204D02*
X06663Y16238D01*
X06663Y16238D02*
X06716Y16261D01*
X06716Y16261D02*
X06772Y16273D01*
X06772Y16273D02*
X06828Y16273D01*
X06828Y16273D02*
X06884Y16261D01*
X06884Y16261D02*
X06937Y16238D01*
X06937Y16238D02*
X06984Y16204D01*
X06984Y16204D02*
X07022Y16161D01*
X07022Y16161D02*
X07051Y16111D01*
X07051Y16111D02*
X07068Y16057D01*
X07068Y16057D02*
X07075Y16000D01*
G54D26*
X07933Y02853D02*
X07982Y02810D01*
X07982Y02810D02*
X08226Y02810D01*
X08226Y02810D02*
X08275Y02853D01*
X08275Y02853D02*
X08275Y02983D01*
X08275Y02983D02*
X08226Y03026D01*
X08226Y03026D02*
X07982Y03026D01*
X07982Y03026D02*
X07933Y03070D01*
X07933Y03070D02*
X07933Y03156D01*
X07933Y03156D02*
X07982Y03200D01*
X07982Y03200D02*
X08226Y03200D01*
X08226Y03200D02*
X08275Y03156D01*
X08401Y03200D02*
X08401Y02810D01*
X08401Y02810D02*
X08791Y02810D01*
X08967Y02810D02*
X09162Y02810D01*
X09064Y02810D02*
X09064Y03200D01*
X09064Y03156D02*
X08967Y03070D01*
X07941Y03092D02*
X07441Y03092D01*
X07441Y03092D02*
X07664Y03342D01*
X07664Y03342D02*
X07441Y03592D01*
X07441Y03592D02*
X07941Y03592D01*
X07941Y03807D02*
X07941Y04057D01*
X07941Y03932D02*
X07441Y03932D01*
X07497Y03932D02*
X07608Y03807D01*
X07497Y04710D02*
X07441Y04647D01*
X07441Y04647D02*
X07441Y04335D01*
X07441Y04335D02*
X07497Y04272D01*
X07497Y04272D02*
X07886Y04272D01*
X07886Y04272D02*
X07941Y04335D01*
X07941Y04335D02*
X07941Y04647D01*
X07941Y04647D02*
X07886Y04710D01*
X07886Y04710D02*
X07719Y04710D01*
X07719Y04710D02*
X07664Y04647D01*
X07664Y04647D02*
X07664Y04335D01*
X07664Y04335D02*
X07719Y04272D01*
X10610Y02520D02*
X10388Y02832D01*
X10388Y02832D02*
X10110Y02520D01*
X10110Y03047D02*
X10610Y03297D01*
X10610Y03297D02*
X10110Y03547D01*
X10610Y03637D02*
X10222Y03637D01*
X10222Y03637D02*
X10110Y03762D01*
X10110Y03762D02*
X10110Y03950D01*
X10110Y03950D02*
X10222Y04075D01*
X10222Y04075D02*
X10610Y04075D01*
X10333Y03637D02*
X10333Y04075D01*
X10110Y04227D02*
X10610Y04227D01*
X10610Y04227D02*
X10610Y04727D01*
X10110Y04817D02*
X10555Y04817D01*
X10555Y04817D02*
X10610Y04880D01*
X10610Y04880D02*
X10610Y05192D01*
X10610Y05192D02*
X10555Y05255D01*
X10555Y05255D02*
X10110Y05255D01*
X10610Y05845D02*
X10610Y05407D01*
X10610Y05407D02*
X10110Y05407D01*
X10110Y05407D02*
X10110Y05845D01*
X10333Y05407D02*
X10333Y05657D01*
X03207Y00963D02*
X03250Y01012D01*
X03250Y01012D02*
X03250Y01256D01*
X03250Y01256D02*
X03207Y01305D01*
X03207Y01305D02*
X03077Y01305D01*
X03077Y01305D02*
X03034Y01256D01*
X03034Y01256D02*
X03034Y01012D01*
X03034Y01012D02*
X02990Y00963D01*
X02990Y00963D02*
X02904Y00963D01*
X02904Y00963D02*
X02860Y01012D01*
X02860Y01012D02*
X02860Y01256D01*
X02860Y01256D02*
X02904Y01305D01*
X02860Y01431D02*
X03250Y01431D01*
X03250Y01431D02*
X03250Y01821D01*
X03250Y02241D02*
X03250Y01899D01*
X03250Y01899D02*
X03120Y01899D01*
X03120Y01899D02*
X03077Y01948D01*
X03077Y01948D02*
X03077Y02192D01*
X03077Y02192D02*
X03034Y02241D01*
X03034Y02241D02*
X02904Y02241D01*
X02904Y02241D02*
X02860Y02192D01*
X02860Y02192D02*
X02860Y01948D01*
X02860Y01948D02*
X02904Y01899D01*
X03142Y02159D02*
X03142Y02659D01*
X03142Y02659D02*
X03392Y02436D01*
X03392Y02436D02*
X03642Y02659D01*
X03642Y02659D02*
X03642Y02159D01*
X03732Y02159D02*
X04170Y02659D01*
X03732Y02214D02*
X03732Y02603D01*
X03732Y02603D02*
X03795Y02659D01*
X03795Y02659D02*
X04107Y02659D01*
X04107Y02659D02*
X04170Y02603D01*
X04170Y02603D02*
X04170Y02214D01*
X04170Y02214D02*
X04107Y02159D01*
X04107Y02159D02*
X03795Y02159D01*
X03795Y02159D02*
X03732Y02214D01*
X04322Y02270D02*
X04322Y02214D01*
X04322Y02214D02*
X04385Y02159D01*
X04385Y02159D02*
X04697Y02159D01*
X04697Y02159D02*
X04760Y02214D01*
X04760Y02214D02*
X04760Y02381D01*
X04760Y02381D02*
X04635Y02492D01*
X04635Y02492D02*
X04322Y02492D01*
X04322Y02492D02*
X04322Y02659D01*
X04322Y02659D02*
X04760Y02659D01*
X02570Y-00510D02*
X02882Y-00288D01*
X02882Y-00288D02*
X02570Y-00010D01*
X03097Y-00010D02*
X03347Y-00510D01*
X03347Y-00510D02*
X03597Y-00010D01*
X03687Y-00510D02*
X03687Y-00122D01*
X03687Y-00122D02*
X03812Y-00010D01*
X03812Y-00010D02*
X04000Y-00010D01*
X04000Y-00010D02*
X04125Y-00122D01*
X04125Y-00122D02*
X04125Y-00510D01*
X03687Y-00233D02*
X04125Y-00233D01*
X04277Y-00010D02*
X04277Y-00510D01*
X04277Y-00510D02*
X04777Y-00510D01*
X04867Y-00010D02*
X04867Y-00455D01*
X04867Y-00455D02*
X04930Y-00510D01*
X04930Y-00510D02*
X05242Y-00510D01*
X05242Y-00510D02*
X05305Y-00455D01*
X05305Y-00455D02*
X05305Y-00010D01*
X05895Y-00510D02*
X05457Y-00510D01*
X05457Y-00510D02*
X05457Y-00010D01*
X05457Y-00010D02*
X05895Y-00010D01*
X05457Y-00233D02*
X05707Y-00233D01*
X-00367Y10853D02*
X-00318Y10810D01*
X-00318Y10810D02*
X-00074Y10810D01*
X-00074Y10810D02*
X-00025Y10853D01*
X-00025Y10853D02*
X-00025Y10983D01*
X-00025Y10983D02*
X-00074Y11026D01*
X-00074Y11026D02*
X-00318Y11026D01*
X-00318Y11026D02*
X-00367Y11070D01*
X-00367Y11070D02*
X-00367Y11156D01*
X-00367Y11156D02*
X-00318Y11200D01*
X-00318Y11200D02*
X-00074Y11200D01*
X-00074Y11200D02*
X-00025Y11156D01*
X00101Y11200D02*
X00101Y10810D01*
X00101Y10810D02*
X00491Y10810D01*
X00569Y11200D02*
X00911Y11200D01*
X00911Y11200D02*
X00911Y11156D01*
X00911Y11156D02*
X00716Y11026D01*
X00716Y11026D02*
X00862Y11026D01*
X00862Y11026D02*
X00911Y10983D01*
X00911Y10983D02*
X00911Y10853D01*
X00911Y10853D02*
X00862Y10810D01*
X00862Y10810D02*
X00618Y10810D01*
X00618Y10810D02*
X00569Y10853D01*
X-00359Y11092D02*
X-00859Y11092D01*
X-00859Y11092D02*
X-00636Y11342D01*
X-00636Y11342D02*
X-00859Y11592D01*
X-00859Y11592D02*
X-00359Y11592D01*
X-00359Y11682D02*
X-00859Y12120D01*
X-00414Y11682D02*
X-00803Y11682D01*
X-00803Y11682D02*
X-00859Y11745D01*
X-00859Y11745D02*
X-00859Y12057D01*
X-00859Y12057D02*
X-00803Y12120D01*
X-00803Y12120D02*
X-00414Y12120D01*
X-00414Y12120D02*
X-00359Y12057D01*
X-00359Y12057D02*
X-00359Y11745D01*
X-00359Y11745D02*
X-00414Y11682D01*
X-00803Y12710D02*
X-00859Y12647D01*
X-00859Y12647D02*
X-00859Y12335D01*
X-00859Y12335D02*
X-00803Y12272D01*
X-00803Y12272D02*
X-00414Y12272D01*
X-00414Y12272D02*
X-00359Y12335D01*
X-00359Y12335D02*
X-00359Y12647D01*
X-00359Y12647D02*
X-00414Y12710D01*
X-00414Y12710D02*
X-00581Y12710D01*
X-00581Y12710D02*
X-00636Y12647D01*
X-00636Y12647D02*
X-00636Y12335D01*
X-00636Y12335D02*
X-00581Y12272D01*
X02310Y10520D02*
X02088Y10832D01*
X02088Y10832D02*
X01810Y10520D01*
X01810Y11047D02*
X02310Y11297D01*
X02310Y11297D02*
X01810Y11547D01*
X02310Y11637D02*
X01922Y11637D01*
X01922Y11637D02*
X01810Y11762D01*
X01810Y11762D02*
X01810Y11950D01*
X01810Y11950D02*
X01922Y12075D01*
X01922Y12075D02*
X02310Y12075D01*
X02033Y11637D02*
X02033Y12075D01*
X01810Y12227D02*
X02310Y12227D01*
X02310Y12227D02*
X02310Y12727D01*
X01810Y12817D02*
X02255Y12817D01*
X02255Y12817D02*
X02310Y12880D01*
X02310Y12880D02*
X02310Y13192D01*
X02310Y13192D02*
X02255Y13255D01*
X02255Y13255D02*
X01810Y13255D01*
X02310Y13845D02*
X02310Y13407D01*
X02310Y13407D02*
X01810Y13407D01*
X01810Y13407D02*
X01810Y13845D01*
X02033Y13407D02*
X02033Y13657D01*
X03550Y11242D02*
X03050Y11242D01*
X03050Y11242D02*
X03050Y11617D01*
X03050Y11617D02*
X03106Y11680D01*
X03106Y11680D02*
X03273Y11680D01*
X03273Y11680D02*
X03328Y11617D01*
X03328Y11617D02*
X03328Y11242D01*
X03328Y11430D02*
X03550Y11680D01*
X03550Y11832D02*
X03050Y11832D01*
X03050Y11832D02*
X03550Y12270D01*
X03550Y12270D02*
X03050Y12270D01*
X03550Y12547D02*
X03550Y12797D01*
X03550Y12672D02*
X03050Y12672D01*
X03106Y12672D02*
X03217Y12547D01*
X01550Y10697D02*
X01050Y10697D01*
X01050Y10697D02*
X01050Y11072D01*
X01050Y11072D02*
X01106Y11135D01*
X01106Y11135D02*
X01273Y11135D01*
X01273Y11135D02*
X01328Y11072D01*
X01328Y11072D02*
X01328Y10697D01*
X01328Y10885D02*
X01550Y11135D01*
X01550Y11287D02*
X01050Y11287D01*
X01050Y11287D02*
X01550Y11725D01*
X01550Y11725D02*
X01050Y11725D01*
X01550Y11877D02*
X01050Y12315D01*
X01495Y11877D02*
X01106Y11877D01*
X01106Y11877D02*
X01050Y11940D01*
X01050Y11940D02*
X01050Y12252D01*
X01050Y12252D02*
X01106Y12315D01*
X01106Y12315D02*
X01495Y12315D01*
X01495Y12315D02*
X01550Y12252D01*
X01550Y12252D02*
X01550Y11940D01*
X01550Y11940D02*
X01495Y11877D01*
X01439Y12467D02*
X01495Y12467D01*
X01495Y12467D02*
X01550Y12530D01*
X01550Y12530D02*
X01550Y12842D01*
X01550Y12842D02*
X01495Y12905D01*
X01495Y12905D02*
X01328Y12905D01*
X01328Y12905D02*
X01217Y12780D01*
X01217Y12780D02*
X01217Y12467D01*
X01217Y12467D02*
X01050Y12467D01*
X01050Y12467D02*
X01050Y12905D01*
G54D21*
X02134Y07944D02*
X02084Y07900D01*
X02084Y07900D02*
X01834Y07900D01*
X01834Y07900D02*
X01784Y07944D01*
X01784Y07944D02*
X01784Y08255D01*
X01784Y08255D02*
X01834Y08300D01*
X01834Y08300D02*
X02084Y08300D01*
X02084Y08300D02*
X02134Y08255D01*
X02308Y08300D02*
X02658Y08300D01*
X02658Y08300D02*
X02658Y08255D01*
X02658Y08255D02*
X02458Y08122D01*
X02458Y08122D02*
X02608Y08122D01*
X02608Y08122D02*
X02658Y08077D01*
X02658Y08077D02*
X02658Y07944D01*
X02658Y07944D02*
X02608Y07900D01*
X02608Y07900D02*
X02358Y07900D01*
X02358Y07900D02*
X02308Y07944D01*
X01584Y05594D02*
X01534Y05550D01*
X01534Y05550D02*
X01284Y05550D01*
X01284Y05550D02*
X01234Y05594D01*
X01234Y05594D02*
X01234Y05905D01*
X01234Y05905D02*
X01284Y05950D01*
X01284Y05950D02*
X01534Y05950D01*
X01534Y05950D02*
X01584Y05905D01*
X02108Y05550D02*
X01758Y05550D01*
X01758Y05550D02*
X01758Y05683D01*
X01758Y05683D02*
X01808Y05727D01*
X01808Y05727D02*
X02058Y05727D01*
X02058Y05727D02*
X02108Y05772D01*
X02108Y05772D02*
X02108Y05905D01*
X02108Y05905D02*
X02058Y05950D01*
X02058Y05950D02*
X01808Y05950D01*
X01808Y05950D02*
X01758Y05905D01*
X00374Y07444D02*
X00324Y07400D01*
X00324Y07400D02*
X00074Y07400D01*
X00074Y07400D02*
X00024Y07444D01*
X00024Y07444D02*
X00024Y07755D01*
X00024Y07755D02*
X00074Y07800D01*
X00074Y07800D02*
X00324Y07800D01*
X00324Y07800D02*
X00374Y07755D01*
X00548Y07400D02*
X00548Y07711D01*
X00548Y07711D02*
X00648Y07800D01*
X00648Y07800D02*
X00798Y07800D01*
X00798Y07800D02*
X00898Y07711D01*
X00898Y07711D02*
X00898Y07400D01*
X00548Y07622D02*
X00898Y07622D01*
X01072Y07400D02*
X01072Y07800D01*
X01072Y07800D02*
X01372Y07800D01*
X01372Y07800D02*
X01422Y07755D01*
X01422Y07755D02*
X01422Y07622D01*
X01422Y07622D02*
X01372Y07577D01*
X01372Y07577D02*
X01072Y07577D01*
X01596Y07400D02*
X01596Y07711D01*
X01596Y07711D02*
X01696Y07800D01*
X01696Y07800D02*
X01846Y07800D01*
X01846Y07800D02*
X01946Y07711D01*
X01946Y07711D02*
X01946Y07400D01*
X01596Y07622D02*
X01946Y07622D01*
X02120Y07400D02*
X02120Y07800D01*
X02120Y07800D02*
X02420Y07800D01*
X02420Y07800D02*
X02470Y07755D01*
X02470Y07755D02*
X02470Y07622D01*
X02470Y07622D02*
X02420Y07577D01*
X02420Y07577D02*
X02120Y07577D01*
X02694Y07400D02*
X02644Y07444D01*
X02644Y07444D02*
X02644Y07755D01*
X02644Y07755D02*
X02694Y07800D01*
X02694Y07800D02*
X02944Y07800D01*
X02944Y07800D02*
X02994Y07755D01*
X02994Y07755D02*
X02994Y07444D01*
X02994Y07444D02*
X02944Y07400D01*
X02944Y07400D02*
X02694Y07400D01*
X03168Y07800D02*
X03168Y07400D01*
X03168Y07400D02*
X03568Y07400D01*
G54D24*
X00819Y04416D02*
X01269Y04416D01*
X01044Y04216D02*
X01044Y04616D01*
G54D21*
X01734Y08144D02*
X01684Y08100D01*
X01684Y08100D02*
X01434Y08100D01*
X01434Y08100D02*
X01384Y08144D01*
X01384Y08144D02*
X01384Y08455D01*
X01384Y08455D02*
X01434Y08500D01*
X01434Y08500D02*
X01684Y08500D01*
X01684Y08500D02*
X01734Y08455D01*
X02008Y08100D02*
X02208Y08100D01*
X02108Y08100D02*
X02108Y08500D01*
X02108Y08455D02*
X02008Y08366D01*
X00100Y08684D02*
X-00300Y08684D01*
X-00300Y08684D02*
X-00300Y08984D01*
X-00300Y08984D02*
X-00255Y09034D01*
X-00255Y09034D02*
X-00122Y09034D01*
X-00122Y09034D02*
X-00077Y08984D01*
X-00077Y08984D02*
X-00077Y08684D01*
X-00077Y08834D02*
X00100Y09034D01*
X00100Y09308D02*
X00100Y09508D01*
X00100Y09408D02*
X-00300Y09408D01*
X-00255Y09408D02*
X-00166Y09308D01*
G54D24*
X05000Y13504D02*
X05534Y13504D01*
X05534Y13504D02*
X05600Y13560D01*
X05600Y13560D02*
X05600Y13841D01*
X05600Y13841D02*
X05534Y13898D01*
X05534Y13898D02*
X05000Y13898D01*
X05600Y14236D02*
X05600Y14461D01*
X05600Y14349D02*
X05000Y14349D01*
X05067Y14349D02*
X05200Y14236D01*
X05600Y03144D02*
X05000Y03144D01*
X05000Y03144D02*
X05267Y03369D01*
X05267Y03369D02*
X05000Y03594D01*
X05000Y03594D02*
X05600Y03594D01*
X05534Y04158D02*
X05600Y04101D01*
X05600Y04101D02*
X05600Y03820D01*
X05600Y03820D02*
X05534Y03764D01*
X05534Y03764D02*
X05067Y03764D01*
X05067Y03764D02*
X05000Y03820D01*
X05000Y03820D02*
X05000Y04101D01*
X05000Y04101D02*
X05067Y04158D01*
X05600Y04384D02*
X05000Y04384D01*
X05000Y04384D02*
X05000Y04721D01*
X05000Y04721D02*
X05067Y04778D01*
X05067Y04778D02*
X05267Y04778D01*
X05267Y04778D02*
X05334Y04721D01*
X05334Y04721D02*
X05334Y04384D01*
X05600Y05398D02*
X05600Y05004D01*
X05600Y05004D02*
X05400Y05004D01*
X05400Y05004D02*
X05334Y05060D01*
X05334Y05060D02*
X05334Y05341D01*
X05334Y05341D02*
X05267Y05398D01*
X05267Y05398D02*
X05067Y05398D01*
X05067Y05398D02*
X05000Y05341D01*
X05000Y05341D02*
X05000Y05060D01*
X05000Y05060D02*
X05067Y05004D01*
X05000Y05624D02*
X05000Y06018D01*
X05000Y06018D02*
X05067Y06018D01*
X05067Y06018D02*
X05267Y05793D01*
X05267Y05793D02*
X05267Y05961D01*
X05267Y05961D02*
X05334Y06018D01*
X05334Y06018D02*
X05534Y06018D01*
X05534Y06018D02*
X05600Y05961D01*
X05600Y05961D02*
X05600Y05680D01*
X05600Y05680D02*
X05534Y05624D01*
X05600Y06244D02*
X05000Y06638D01*
X05534Y06244D02*
X05067Y06244D01*
X05067Y06244D02*
X05000Y06300D01*
X05000Y06300D02*
X05000Y06581D01*
X05000Y06581D02*
X05067Y06638D01*
X05067Y06638D02*
X05534Y06638D01*
X05534Y06638D02*
X05600Y06581D01*
X05600Y06581D02*
X05600Y06300D01*
X05600Y06300D02*
X05534Y06244D01*
X05600Y06976D02*
X05600Y07201D01*
X05600Y07089D02*
X05000Y07089D01*
X05067Y07089D02*
X05200Y06976D01*
X05067Y07878D02*
X05000Y07821D01*
X05000Y07821D02*
X05000Y07540D01*
X05000Y07540D02*
X05067Y07484D01*
X05067Y07484D02*
X05534Y07484D01*
X05534Y07484D02*
X05600Y07540D01*
X05600Y07540D02*
X05600Y07821D01*
X05600Y07821D02*
X05534Y07878D01*
X05534Y07878D02*
X05334Y07878D01*
X05334Y07878D02*
X05267Y07821D01*
X05267Y07821D02*
X05267Y07540D01*
X05267Y07540D02*
X05334Y07484D01*
M02*
