G04 (Genere par PCBNEW (2007-07-09)) le 1/12/2007-15:24:37*
G01*
G70*
G90*
%MOIN*%
G04 Gerber Fmt 3.4, Leading zero omitted, Abs format*
%FSLAX34Y34*%
G04 APERTURE LIST*
%ADD10C,0.015000*%
%ADD11O,0.112000X0.056000*%
%ADD12O,0.056000X0.112000*%
%ADD13O,0.104000X0.052000*%
%ADD14R,0.036000X0.036000*%
%ADD15C,0.055000*%
%ADD16R,0.055000X0.055000*%
%ADD17C,0.030000*%
%ADD18C,0.005000*%
G04 APERTURE END LIST*
G54D10*
X01250Y00000D02*
X01154Y-00478D01*
X01154Y-00478D02*
X00883Y-00883D01*
X00883Y-00883D02*
X00478Y-01154D01*
X00478Y-01154D02*
X00000Y-01250D01*
X00000Y-01250D02*
X-00478Y-01154D01*
X-00478Y-01154D02*
X-00883Y-00883D01*
X-00883Y-00883D02*
X-01154Y-00478D01*
X-01154Y-00478D02*
X-01250Y00000D01*
X-01250Y00000D02*
X-01154Y00478D01*
X-01154Y00478D02*
X-00883Y00883D01*
X-00883Y00883D02*
X-00478Y01154D01*
X-00478Y01154D02*
X00000Y01250D01*
X00000Y01250D02*
X00478Y01154D01*
X00478Y01154D02*
X00883Y00883D01*
X00883Y00883D02*
X01154Y00478D01*
X01154Y00478D02*
X01250Y00000D01*
X-02500Y00000D02*
X02500Y00000D01*
X00000Y02500D02*
X00000Y-02500D01*
X00000Y18500D02*
X10250Y18500D01*
X00000Y18250D02*
X00000Y18500D01*
X00000Y00000D02*
X00000Y18250D01*
X00250Y00000D02*
X00000Y00000D01*
X00500Y00000D02*
X00250Y00000D01*
X10250Y00000D02*
X00500Y00000D01*
X10250Y18500D02*
X10250Y00000D01*
G54D11*
X09100Y03000D03*
X09100Y04000D03*
X09100Y05000D03*
X09100Y06000D03*
X09100Y07000D03*
X09100Y08000D03*
X09100Y09000D03*
X09100Y10000D03*
X09100Y11000D03*
X09100Y12000D03*
X09100Y13000D03*
X09100Y14000D03*
X09100Y15000D03*
X09100Y16000D03*
X09100Y17000D03*
X09100Y18000D03*
G54D12*
X03050Y01000D03*
X04050Y01000D03*
X05050Y01000D03*
X06050Y01000D03*
X07050Y01000D03*
G54D11*
X01000Y15000D03*
X01000Y14000D03*
X01000Y13000D03*
X01000Y12000D03*
X01000Y11000D03*
X01000Y10000D03*
G54D13*
X02600Y16000D03*
X02600Y15000D03*
X02600Y14000D03*
X02600Y13000D03*
X02600Y12000D03*
X02600Y11000D03*
G54D14*
X06850Y17850D03*
X06850Y17150D03*
X07650Y17500D03*
G54D15*
X03800Y15000D03*
X03800Y14000D03*
X03800Y13000D03*
X03800Y12000D03*
X03800Y11000D03*
X03800Y10000D03*
X03800Y09000D03*
X03800Y08000D03*
X03800Y07000D03*
X03800Y06000D03*
X03800Y05000D03*
X03800Y04000D03*
X03800Y03000D03*
G54D16*
X03800Y16000D03*
G54D15*
X06800Y03000D03*
X06800Y04000D03*
X06800Y05000D03*
X06800Y06000D03*
X06800Y07000D03*
X06800Y08000D03*
X06800Y09000D03*
X06800Y10000D03*
X06800Y11000D03*
X06800Y12000D03*
X06800Y13000D03*
X06800Y14000D03*
X06800Y15000D03*
X06800Y16000D03*
G54D17*
X06850Y17850D02*
X04250Y17850D01*
X04250Y17850D02*
X03800Y17350D01*
X03800Y17350D02*
X03800Y16000D01*
X06800Y06000D02*
X06100Y06000D01*
X06250Y08000D02*
X06800Y08000D01*
X05750Y07550D02*
X06250Y08000D01*
X05750Y06400D02*
X05750Y07550D01*
X06100Y06000D02*
X05750Y06400D01*
X09100Y05000D02*
X08200Y05000D01*
X07700Y01900D02*
X07050Y01000D01*
X07700Y04300D02*
X07700Y01900D01*
X08200Y05000D02*
X07700Y04300D01*
X09100Y06000D02*
X07800Y06000D01*
X07550Y10400D02*
X06800Y11000D01*
X07500Y06200D02*
X07550Y10400D01*
X07800Y06000D02*
X07500Y06200D01*
X06800Y12000D02*
X07950Y11150D01*
X08450Y08000D02*
X09100Y08000D01*
X08400Y08050D02*
X08450Y08000D01*
X08150Y08200D02*
X08400Y08050D01*
X08150Y08350D02*
X08150Y08200D01*
X08150Y11000D02*
X08150Y08350D01*
X07950Y11150D02*
X08150Y11000D01*
X09100Y18000D02*
X08020Y17990D01*
X07660Y17690D02*
X07650Y17500D01*
X08020Y17990D02*
X07660Y17690D01*
X06800Y09000D02*
X06100Y09450D01*
X06400Y17150D02*
X06850Y17150D01*
X06300Y17100D02*
X06400Y17150D01*
X05800Y16650D02*
X06300Y17100D01*
X05800Y09650D02*
X05800Y16650D01*
X06100Y09450D02*
X05800Y09650D01*
G54D18*
X09800Y02350D02*
X09800Y00450D01*
X09750Y02350D02*
X09750Y00450D01*
X09700Y02350D02*
X09700Y00450D01*
X09650Y02350D02*
X09650Y00450D01*
X09600Y02350D02*
X09600Y00450D01*
X09550Y02350D02*
X09550Y00450D01*
X09500Y02350D02*
X09500Y00450D01*
X09450Y02350D02*
X09450Y00450D01*
X09400Y02350D02*
X09400Y00450D01*
X09350Y02350D02*
X09350Y00450D01*
X09300Y02350D02*
X09300Y00450D01*
X09250Y02350D02*
X09250Y00450D01*
X09200Y02350D02*
X09200Y00450D01*
X09150Y02350D02*
X09150Y00450D01*
X09100Y02350D02*
X09100Y00450D01*
X09050Y02350D02*
X09050Y00450D01*
X09000Y02350D02*
X09000Y00450D01*
X08950Y02350D02*
X08950Y00450D01*
X08900Y02350D02*
X08900Y00450D01*
X08850Y02350D02*
X08850Y00450D01*
X08800Y02350D02*
X08800Y00450D01*
X08750Y02350D02*
X08750Y00450D01*
X08700Y02350D02*
X08700Y00450D01*
X08650Y02350D02*
X08650Y00450D01*
X08600Y02350D02*
X08600Y00450D01*
X08550Y02350D02*
X08550Y00450D01*
X08500Y02350D02*
X08500Y00450D01*
X08450Y02350D02*
X08450Y00450D01*
X08400Y02350D02*
X08400Y00450D01*
X08350Y02350D02*
X08350Y00450D01*
X08300Y02350D02*
X08300Y00450D01*
X08250Y02350D02*
X08250Y00450D01*
X08200Y04150D02*
X08200Y00450D01*
X08150Y01700D02*
X08150Y00450D01*
X08100Y01600D02*
X08100Y00450D01*
X08050Y01550D02*
X08050Y00450D01*
X08000Y01500D02*
X08000Y00450D01*
X07950Y01400D02*
X07950Y00450D01*
X07900Y01350D02*
X07900Y00450D01*
X07850Y01250D02*
X07850Y00450D01*
X07800Y01200D02*
X07800Y00450D01*
X07750Y01150D02*
X07750Y00450D01*
X07700Y01050D02*
X07700Y00450D01*
X07700Y00450D02*
X09800Y00450D01*
X07700Y00500D02*
X09800Y00500D01*
X07700Y00550D02*
X09800Y00550D01*
X07700Y00600D02*
X09800Y00600D01*
X07700Y00650D02*
X09800Y00650D01*
X07700Y00700D02*
X09800Y00700D01*
X07700Y00750D02*
X09800Y00750D01*
X07700Y00800D02*
X09800Y00800D01*
X07700Y00850D02*
X09800Y00850D01*
X07700Y00900D02*
X09800Y00900D01*
X07700Y00950D02*
X09800Y00950D01*
X07700Y01000D02*
X09800Y01000D01*
X07700Y01050D02*
X09800Y01050D01*
X07750Y01100D02*
X09800Y01100D01*
X07750Y01150D02*
X09800Y01150D01*
X07800Y01200D02*
X09800Y01200D01*
X07850Y01250D02*
X09800Y01250D01*
X07900Y01300D02*
X09800Y01300D01*
X07900Y01350D02*
X09800Y01350D01*
X07950Y01400D02*
X09800Y01400D01*
X08000Y01450D02*
X09800Y01450D01*
X08000Y01500D02*
X09800Y01500D01*
X08050Y01550D02*
X09800Y01550D01*
X08100Y01600D02*
X09800Y01600D01*
X08150Y01650D02*
X09800Y01650D01*
X08150Y01700D02*
X09800Y01700D01*
X08200Y01750D02*
X09800Y01750D01*
X08200Y01800D02*
X09800Y01800D01*
X08200Y01850D02*
X09800Y01850D01*
X08200Y01900D02*
X09800Y01900D01*
X08200Y01950D02*
X09800Y01950D01*
X08200Y02000D02*
X09800Y02000D01*
X08200Y02050D02*
X09800Y02050D01*
X08200Y02100D02*
X09800Y02100D01*
X08200Y02150D02*
X09800Y02150D01*
X08200Y02200D02*
X09800Y02200D01*
X08200Y02250D02*
X09800Y02250D01*
X08200Y02300D02*
X09800Y02300D01*
X08200Y02350D02*
X09800Y02350D01*
X03700Y18050D02*
X03700Y17950D01*
X03650Y18050D02*
X03650Y17900D01*
X03600Y18050D02*
X03600Y17850D01*
X03550Y18050D02*
X03550Y17800D01*
X03500Y18050D02*
X03500Y17750D01*
X03450Y18050D02*
X03450Y17700D01*
X03400Y18050D02*
X03400Y17650D01*
X03350Y18050D02*
X03350Y17550D01*
X03300Y18050D02*
X03300Y16650D01*
X03250Y18050D02*
X03250Y16650D01*
X03200Y18050D02*
X03200Y16650D01*
X03150Y18050D02*
X03150Y16600D01*
X03100Y18050D02*
X03100Y16600D01*
X03050Y18050D02*
X03050Y16600D01*
X03000Y18050D02*
X03000Y16600D01*
X02950Y18050D02*
X02950Y16600D01*
X02900Y18050D02*
X02900Y16600D01*
X02850Y18050D02*
X02850Y16600D01*
X02800Y18050D02*
X02800Y16600D01*
X02750Y18050D02*
X02750Y16600D01*
X02700Y18050D02*
X02700Y16600D01*
X02650Y18050D02*
X02650Y16600D01*
X02600Y18050D02*
X02600Y16600D01*
X02550Y18050D02*
X02550Y16600D01*
X02500Y18050D02*
X02500Y16600D01*
X02450Y18050D02*
X02450Y16600D01*
X02400Y18050D02*
X02400Y16600D01*
X02350Y18050D02*
X02350Y16600D01*
X02300Y18050D02*
X02300Y16600D01*
X02250Y18050D02*
X02250Y16600D01*
X02200Y18050D02*
X02200Y16600D01*
X02150Y18050D02*
X02150Y16600D01*
X02100Y18050D02*
X02100Y16600D01*
X02050Y18050D02*
X02050Y16600D01*
X02000Y18050D02*
X02000Y16600D01*
X01950Y18050D02*
X01950Y16600D01*
X01900Y18050D02*
X01900Y16600D01*
X01850Y18050D02*
X01850Y16600D01*
X01800Y18050D02*
X01800Y16600D01*
X01750Y18050D02*
X01750Y15650D01*
X01700Y18050D02*
X01700Y15650D01*
X01650Y18050D02*
X01650Y15650D01*
X01600Y18050D02*
X01600Y15650D01*
X01550Y18050D02*
X01550Y15650D01*
X01500Y18050D02*
X01500Y15650D01*
X01450Y18050D02*
X01450Y15650D01*
X01400Y18050D02*
X01400Y15650D01*
X01350Y18050D02*
X01350Y15650D01*
X01300Y18050D02*
X01300Y15650D01*
X01250Y18050D02*
X01250Y15650D01*
X01200Y18050D02*
X01200Y15650D01*
X01150Y18050D02*
X01150Y15650D01*
X01100Y18050D02*
X01100Y15650D01*
X01050Y18050D02*
X01050Y15650D01*
X01000Y18050D02*
X01000Y15650D01*
X00950Y18050D02*
X00950Y15650D01*
X00900Y18050D02*
X00900Y15650D01*
X00850Y18050D02*
X00850Y15650D01*
X00800Y18050D02*
X00800Y15650D01*
X00750Y18050D02*
X00750Y15650D01*
X00700Y18050D02*
X00700Y15650D01*
X00650Y18050D02*
X00650Y15650D01*
X00600Y18050D02*
X00600Y15650D01*
X00550Y18050D02*
X00550Y15650D01*
X00500Y18050D02*
X00500Y15650D01*
X00450Y18050D02*
X00450Y15650D01*
X00450Y15650D02*
X01750Y15650D01*
X00450Y15700D02*
X01750Y15700D01*
X00450Y15750D02*
X01750Y15750D01*
X00450Y15800D02*
X01750Y15800D01*
X00450Y15850D02*
X01750Y15850D01*
X00450Y15900D02*
X01750Y15900D01*
X00450Y15950D02*
X01750Y15950D01*
X00450Y16000D02*
X01750Y16000D01*
X00450Y16050D02*
X01750Y16050D01*
X00450Y16100D02*
X01750Y16100D01*
X00450Y16150D02*
X01750Y16150D01*
X00450Y16200D02*
X01750Y16200D01*
X00450Y16250D02*
X01750Y16250D01*
X00450Y16300D02*
X01750Y16300D01*
X00450Y16350D02*
X01750Y16350D01*
X00450Y16400D02*
X01750Y16400D01*
X00450Y16450D02*
X01750Y16450D01*
X00450Y16500D02*
X01750Y16500D01*
X00450Y16550D02*
X01750Y16550D01*
X00450Y16600D02*
X03150Y16600D01*
X00450Y16650D02*
X03300Y16650D01*
X00450Y16700D02*
X03300Y16700D01*
X00450Y16750D02*
X03300Y16750D01*
X00450Y16800D02*
X03300Y16800D01*
X00450Y16850D02*
X03300Y16850D01*
X00450Y16900D02*
X03300Y16900D01*
X00450Y16950D02*
X03300Y16950D01*
X00450Y17000D02*
X03300Y17000D01*
X00450Y17050D02*
X03300Y17050D01*
X00450Y17100D02*
X03300Y17100D01*
X00450Y17150D02*
X03300Y17150D01*
X00450Y17200D02*
X03300Y17200D01*
X00450Y17250D02*
X03300Y17250D01*
X00450Y17300D02*
X03300Y17300D01*
X00450Y17350D02*
X03300Y17350D01*
X00450Y17400D02*
X03300Y17400D01*
X00450Y17450D02*
X03300Y17450D01*
X00450Y17500D02*
X03300Y17500D01*
X00450Y17550D02*
X03350Y17550D01*
X00450Y17600D02*
X03350Y17600D01*
X00450Y17650D02*
X03400Y17650D01*
X00450Y17700D02*
X03450Y17700D01*
X00450Y17750D02*
X03500Y17750D01*
X00450Y17800D02*
X03550Y17800D01*
X00450Y17850D02*
X03600Y17850D01*
X00450Y17900D02*
X03650Y17900D01*
X00450Y17950D02*
X03700Y17950D01*
X00450Y18000D02*
X03700Y18000D01*
X00450Y18050D02*
X03750Y18050D01*
X07200Y02550D02*
X07200Y02050D01*
X07150Y02500D02*
X07150Y01950D01*
X07100Y02450D02*
X07100Y01900D01*
X07050Y02450D02*
X07050Y01900D01*
X07000Y02400D02*
X07000Y01900D01*
X06950Y02400D02*
X06950Y01900D01*
X06900Y02400D02*
X06900Y01900D01*
X06850Y02400D02*
X06850Y01900D01*
X06800Y02400D02*
X06800Y01900D01*
X06750Y02400D02*
X06750Y01900D01*
X06700Y02400D02*
X06700Y01900D01*
X06650Y02400D02*
X06650Y01900D01*
X06600Y02400D02*
X06600Y01900D01*
X06550Y02450D02*
X06550Y01900D01*
X06500Y02450D02*
X06500Y01900D01*
X06450Y02500D02*
X06450Y01900D01*
X06400Y02550D02*
X06400Y01900D01*
X06400Y03550D02*
X06400Y03450D01*
X06400Y04550D02*
X06400Y04450D01*
X06400Y05500D02*
X06400Y05450D01*
X06400Y08550D02*
X06400Y08500D01*
X06350Y02600D02*
X06350Y01900D01*
X06350Y03600D02*
X06350Y03400D01*
X06350Y04600D02*
X06350Y04400D01*
X06350Y05500D02*
X06350Y05400D01*
X06350Y08600D02*
X06350Y08500D01*
X06300Y02650D02*
X06300Y01900D01*
X06300Y03650D02*
X06300Y03350D01*
X06300Y04650D02*
X06300Y04350D01*
X06300Y05500D02*
X06300Y05350D01*
X06300Y08650D02*
X06300Y08500D01*
X06250Y02750D02*
X06250Y01900D01*
X06250Y03750D02*
X06250Y03250D01*
X06250Y04750D02*
X06250Y04250D01*
X06250Y05500D02*
X06250Y05250D01*
X06250Y08750D02*
X06250Y08500D01*
X06200Y05500D02*
X06200Y01900D01*
X06200Y08800D02*
X06200Y08500D01*
X06150Y05500D02*
X06150Y01900D01*
X06150Y08850D02*
X06150Y08500D01*
X06100Y05500D02*
X06100Y01900D01*
X06100Y08850D02*
X06100Y08500D01*
X06050Y05500D02*
X06050Y01900D01*
X06050Y08900D02*
X06050Y08450D01*
X06000Y05500D02*
X06000Y01900D01*
X06000Y08900D02*
X06000Y08450D01*
X05950Y05500D02*
X05950Y01900D01*
X05950Y08950D02*
X05950Y08400D01*
X05900Y05550D02*
X05900Y01900D01*
X05900Y09000D02*
X05900Y08350D01*
X05850Y05550D02*
X05850Y01900D01*
X05850Y09000D02*
X05850Y08300D01*
X05800Y05600D02*
X05800Y01900D01*
X05800Y09050D02*
X05800Y08250D01*
X05800Y17350D02*
X05800Y17300D01*
X05750Y05650D02*
X05750Y01900D01*
X05750Y09100D02*
X05750Y08200D01*
X05750Y17350D02*
X05750Y17250D01*
X05700Y05700D02*
X05700Y01900D01*
X05700Y09100D02*
X05700Y08150D01*
X05700Y17350D02*
X05700Y17200D01*
X05650Y05750D02*
X05650Y01900D01*
X05650Y09150D02*
X05650Y08100D01*
X05650Y17350D02*
X05650Y17200D01*
X05600Y05800D02*
X05600Y01900D01*
X05600Y09200D02*
X05600Y08100D01*
X05600Y17350D02*
X05600Y17150D01*
X05550Y05900D02*
X05550Y01900D01*
X05550Y09200D02*
X05550Y08050D01*
X05550Y17350D02*
X05550Y17100D01*
X05500Y05950D02*
X05500Y01900D01*
X05500Y09250D02*
X05500Y08000D01*
X05500Y17350D02*
X05500Y17050D01*
X05450Y06000D02*
X05450Y01900D01*
X05450Y09300D02*
X05450Y07950D01*
X05450Y17350D02*
X05450Y17000D01*
X05400Y06050D02*
X05400Y01900D01*
X05400Y09350D02*
X05400Y07900D01*
X05400Y17350D02*
X05400Y16950D01*
X05350Y06100D02*
X05350Y01900D01*
X05350Y09450D02*
X05350Y07850D01*
X05350Y17350D02*
X05350Y16850D01*
X05300Y06200D02*
X05300Y01900D01*
X05300Y17350D02*
X05300Y07750D01*
X05250Y17350D02*
X05250Y01900D01*
X05200Y17350D02*
X05200Y01900D01*
X05150Y17350D02*
X05150Y01900D01*
X05100Y17350D02*
X05100Y01900D01*
X05050Y17350D02*
X05050Y01900D01*
X05000Y17350D02*
X05000Y01900D01*
X04950Y17350D02*
X04950Y01900D01*
X04900Y17350D02*
X04900Y01900D01*
X04850Y17350D02*
X04850Y01900D01*
X04800Y17350D02*
X04800Y01900D01*
X04750Y17350D02*
X04750Y01900D01*
X04700Y17350D02*
X04700Y01900D01*
X04650Y17350D02*
X04650Y01900D01*
X04600Y17350D02*
X04600Y01900D01*
X04550Y17350D02*
X04550Y01900D01*
X04500Y17350D02*
X04500Y01900D01*
X04450Y17350D02*
X04450Y01900D01*
X04400Y15350D02*
X04400Y01900D01*
X04400Y17300D02*
X04400Y16650D01*
X04350Y02750D02*
X04350Y01900D01*
X04350Y03750D02*
X04350Y03250D01*
X04350Y04750D02*
X04350Y04250D01*
X04350Y05750D02*
X04350Y05250D01*
X04350Y06750D02*
X04350Y06250D01*
X04350Y07750D02*
X04350Y07250D01*
X04350Y08750D02*
X04350Y08250D01*
X04350Y09750D02*
X04350Y09250D01*
X04350Y10750D02*
X04350Y10250D01*
X04350Y11750D02*
X04350Y11250D01*
X04350Y12750D02*
X04350Y12250D01*
X04350Y13750D02*
X04350Y13250D01*
X04350Y14750D02*
X04350Y14250D01*
X04350Y15350D02*
X04350Y15250D01*
X04350Y17250D02*
X04350Y16650D01*
X04300Y02650D02*
X04300Y01900D01*
X04300Y03650D02*
X04300Y03350D01*
X04300Y04650D02*
X04300Y04350D01*
X04300Y05650D02*
X04300Y05350D01*
X04300Y06650D02*
X04300Y06350D01*
X04300Y07650D02*
X04300Y07350D01*
X04300Y08650D02*
X04300Y08350D01*
X04300Y09650D02*
X04300Y09350D01*
X04300Y10650D02*
X04300Y10350D01*
X04300Y11650D02*
X04300Y11350D01*
X04300Y12650D02*
X04300Y12350D01*
X04300Y13650D02*
X04300Y13350D01*
X04300Y14650D02*
X04300Y14350D01*
X04300Y17150D02*
X04300Y16650D01*
X04250Y02600D02*
X04250Y01900D01*
X04250Y03600D02*
X04250Y03400D01*
X04250Y04600D02*
X04250Y04400D01*
X04250Y05600D02*
X04250Y05400D01*
X04250Y06600D02*
X04250Y06400D01*
X04250Y07600D02*
X04250Y07400D01*
X04250Y08600D02*
X04250Y08400D01*
X04250Y09600D02*
X04250Y09400D01*
X04250Y10600D02*
X04250Y10400D01*
X04250Y11600D02*
X04250Y11400D01*
X04250Y12600D02*
X04250Y12400D01*
X04250Y13600D02*
X04250Y13400D01*
X04250Y14600D02*
X04250Y14400D01*
X04200Y02550D02*
X04200Y01900D01*
X04200Y03550D02*
X04200Y03450D01*
X04200Y04550D02*
X04200Y04450D01*
X04200Y05550D02*
X04200Y05450D01*
X04200Y06550D02*
X04200Y06450D01*
X04200Y07550D02*
X04200Y07450D01*
X04200Y08550D02*
X04200Y08450D01*
X04200Y09550D02*
X04200Y09450D01*
X04200Y10550D02*
X04200Y10450D01*
X04200Y11550D02*
X04200Y11450D01*
X04200Y12550D02*
X04200Y12450D01*
X04200Y13550D02*
X04200Y13450D01*
X04200Y14550D02*
X04200Y14450D01*
X04150Y02500D02*
X04150Y01900D01*
X04100Y02450D02*
X04100Y01900D01*
X04050Y02450D02*
X04050Y01900D01*
X04000Y02400D02*
X04000Y01900D01*
X03950Y02400D02*
X03950Y01900D01*
X03900Y02400D02*
X03900Y01900D01*
X03850Y02400D02*
X03850Y01900D01*
X03800Y02400D02*
X03800Y01900D01*
X03750Y02400D02*
X03750Y01900D01*
X03700Y02400D02*
X03700Y01900D01*
X03650Y02400D02*
X03650Y01900D01*
X03600Y02400D02*
X03600Y01900D01*
X03550Y02450D02*
X03550Y01900D01*
X03500Y02450D02*
X03500Y01900D01*
X03450Y02500D02*
X03450Y01900D01*
X03400Y02550D02*
X03400Y01900D01*
X03400Y03550D02*
X03400Y03450D01*
X03400Y04550D02*
X03400Y04450D01*
X03400Y05550D02*
X03400Y05450D01*
X03400Y06550D02*
X03400Y06450D01*
X03400Y07550D02*
X03400Y07450D01*
X03400Y08550D02*
X03400Y08450D01*
X03400Y09550D02*
X03400Y09450D01*
X03350Y02600D02*
X03350Y01900D01*
X03350Y03600D02*
X03350Y03400D01*
X03350Y04600D02*
X03350Y04400D01*
X03350Y05600D02*
X03350Y05400D01*
X03350Y06600D02*
X03350Y06400D01*
X03350Y07600D02*
X03350Y07400D01*
X03350Y08600D02*
X03350Y08400D01*
X03350Y09600D02*
X03350Y09400D01*
X03300Y02650D02*
X03300Y01900D01*
X03300Y03650D02*
X03300Y03350D01*
X03300Y04650D02*
X03300Y04350D01*
X03300Y05650D02*
X03300Y05350D01*
X03300Y06650D02*
X03300Y06350D01*
X03300Y07650D02*
X03300Y07350D01*
X03300Y08650D02*
X03300Y08350D01*
X03300Y09650D02*
X03300Y09350D01*
X03300Y10400D02*
X03300Y10350D01*
X03250Y02750D02*
X03250Y01900D01*
X03250Y03750D02*
X03250Y03250D01*
X03250Y04750D02*
X03250Y04250D01*
X03250Y05750D02*
X03250Y05250D01*
X03250Y06750D02*
X03250Y06250D01*
X03250Y07750D02*
X03250Y07250D01*
X03250Y08750D02*
X03250Y08250D01*
X03250Y09750D02*
X03250Y09250D01*
X03250Y10400D02*
X03250Y10250D01*
X03200Y10400D02*
X03200Y01900D01*
X03150Y10400D02*
X03150Y01900D01*
X03100Y10400D02*
X03100Y01900D01*
X03050Y10400D02*
X03050Y01900D01*
X03000Y10400D02*
X03000Y01900D01*
X02950Y10400D02*
X02950Y01900D01*
X02900Y10400D02*
X02900Y01900D01*
X02850Y10400D02*
X02850Y01900D01*
X02800Y10400D02*
X02800Y01900D01*
X02750Y10400D02*
X02750Y01900D01*
X02700Y10400D02*
X02700Y01900D01*
X02650Y10400D02*
X02650Y01900D01*
X02600Y10400D02*
X02600Y01900D01*
X02550Y10400D02*
X02550Y01900D01*
X02500Y10400D02*
X02500Y01900D01*
X02450Y10400D02*
X02450Y01900D01*
X02400Y10400D02*
X02400Y00450D01*
X02350Y10400D02*
X02350Y00450D01*
X02300Y10400D02*
X02300Y00450D01*
X02250Y10400D02*
X02250Y00450D01*
X02200Y10400D02*
X02200Y00450D01*
X02150Y10400D02*
X02150Y00450D01*
X02100Y10400D02*
X02100Y00450D01*
X02050Y10400D02*
X02050Y00450D01*
X02000Y10400D02*
X02000Y00450D01*
X01950Y10400D02*
X01950Y00450D01*
X01900Y10400D02*
X01900Y00450D01*
X01850Y09350D02*
X01850Y00450D01*
X01800Y09350D02*
X01800Y00450D01*
X01750Y09350D02*
X01750Y00450D01*
X01700Y09350D02*
X01700Y00450D01*
X01650Y09350D02*
X01650Y00450D01*
X01600Y09350D02*
X01600Y00450D01*
X01550Y09350D02*
X01550Y00450D01*
X01500Y09350D02*
X01500Y00450D01*
X01450Y09350D02*
X01450Y00450D01*
X01400Y09350D02*
X01400Y00450D01*
X01350Y09350D02*
X01350Y00450D01*
X01300Y09350D02*
X01300Y00450D01*
X01250Y09350D02*
X01250Y00450D01*
X01200Y09350D02*
X01200Y00450D01*
X01150Y09350D02*
X01150Y00450D01*
X01100Y09350D02*
X01100Y00450D01*
X01050Y09350D02*
X01050Y00450D01*
X01000Y09350D02*
X01000Y00450D01*
X00950Y09350D02*
X00950Y00450D01*
X00900Y09350D02*
X00900Y00450D01*
X00850Y09350D02*
X00850Y00450D01*
X00800Y09350D02*
X00800Y00450D01*
X00750Y09350D02*
X00750Y00450D01*
X00700Y09350D02*
X00700Y00450D01*
X00650Y09350D02*
X00650Y00450D01*
X00600Y09350D02*
X00600Y00450D01*
X00550Y09350D02*
X00550Y00450D01*
X00500Y09350D02*
X00500Y00450D01*
X00450Y09350D02*
X00450Y00450D01*
X00450Y00450D02*
X02400Y00450D01*
X00450Y00500D02*
X02400Y00500D01*
X00450Y00550D02*
X02400Y00550D01*
X00450Y00600D02*
X02400Y00600D01*
X00450Y00650D02*
X02400Y00650D01*
X00450Y00700D02*
X02400Y00700D01*
X00450Y00750D02*
X02400Y00750D01*
X00450Y00800D02*
X02400Y00800D01*
X00450Y00850D02*
X02400Y00850D01*
X00450Y00900D02*
X02400Y00900D01*
X00450Y00950D02*
X02400Y00950D01*
X00450Y01000D02*
X02400Y01000D01*
X00450Y01050D02*
X02400Y01050D01*
X00450Y01100D02*
X02400Y01100D01*
X00450Y01150D02*
X02400Y01150D01*
X00450Y01200D02*
X02400Y01200D01*
X00450Y01250D02*
X02400Y01250D01*
X00450Y01300D02*
X02400Y01300D01*
X00450Y01350D02*
X02400Y01350D01*
X00450Y01400D02*
X02400Y01400D01*
X00450Y01450D02*
X02400Y01450D01*
X00450Y01500D02*
X02400Y01500D01*
X00450Y01550D02*
X02400Y01550D01*
X00450Y01600D02*
X02400Y01600D01*
X00450Y01650D02*
X02400Y01650D01*
X00450Y01700D02*
X02400Y01700D01*
X00450Y01750D02*
X02400Y01750D01*
X00450Y01800D02*
X02400Y01800D01*
X00450Y01850D02*
X02400Y01850D01*
X00450Y01900D02*
X07100Y01900D01*
X00450Y01950D02*
X07150Y01950D01*
X00450Y02000D02*
X07150Y02000D01*
X00450Y02050D02*
X07200Y02050D01*
X00450Y02100D02*
X07200Y02100D01*
X00450Y02150D02*
X07200Y02150D01*
X00450Y02200D02*
X07200Y02200D01*
X00450Y02250D02*
X07200Y02250D01*
X00450Y02300D02*
X07200Y02300D01*
X00450Y02350D02*
X07200Y02350D01*
X00450Y02400D02*
X07200Y02400D01*
X07050Y02450D02*
X07200Y02450D01*
X04050Y02450D02*
X06550Y02450D01*
X00450Y02450D02*
X03550Y02450D01*
X07150Y02500D02*
X07200Y02500D01*
X04150Y02500D02*
X06450Y02500D01*
X00450Y02500D02*
X03450Y02500D01*
X04200Y02550D02*
X06400Y02550D01*
X00450Y02550D02*
X03400Y02550D01*
X04250Y02600D02*
X06350Y02600D01*
X00450Y02600D02*
X03350Y02600D01*
X04300Y02650D02*
X06300Y02650D01*
X00450Y02650D02*
X03300Y02650D01*
X04350Y02700D02*
X06250Y02700D01*
X00450Y02700D02*
X03250Y02700D01*
X04350Y02750D02*
X06250Y02750D01*
X00450Y02750D02*
X03250Y02750D01*
X04400Y02800D02*
X06200Y02800D01*
X00450Y02800D02*
X03200Y02800D01*
X04400Y02850D02*
X06200Y02850D01*
X00450Y02850D02*
X03200Y02850D01*
X04400Y02900D02*
X06200Y02900D01*
X00450Y02900D02*
X03200Y02900D01*
X04400Y02950D02*
X06200Y02950D01*
X00450Y02950D02*
X03200Y02950D01*
X04400Y03000D02*
X06200Y03000D01*
X00450Y03000D02*
X03200Y03000D01*
X04400Y03050D02*
X06200Y03050D01*
X00450Y03050D02*
X03200Y03050D01*
X04400Y03100D02*
X06200Y03100D01*
X00450Y03100D02*
X03200Y03100D01*
X04400Y03150D02*
X06200Y03150D01*
X00450Y03150D02*
X03200Y03150D01*
X04400Y03200D02*
X06200Y03200D01*
X00450Y03200D02*
X03200Y03200D01*
X04350Y03250D02*
X06250Y03250D01*
X00450Y03250D02*
X03250Y03250D01*
X04350Y03300D02*
X06250Y03300D01*
X00450Y03300D02*
X03250Y03300D01*
X04300Y03350D02*
X06300Y03350D01*
X00450Y03350D02*
X03300Y03350D01*
X04250Y03400D02*
X06350Y03400D01*
X00450Y03400D02*
X03350Y03400D01*
X04200Y03450D02*
X06400Y03450D01*
X00450Y03450D02*
X03400Y03450D01*
X04150Y03500D02*
X06450Y03500D01*
X00450Y03500D02*
X03450Y03500D01*
X04200Y03550D02*
X06400Y03550D01*
X00450Y03550D02*
X03400Y03550D01*
X04250Y03600D02*
X06350Y03600D01*
X00450Y03600D02*
X03350Y03600D01*
X04300Y03650D02*
X06300Y03650D01*
X00450Y03650D02*
X03300Y03650D01*
X04350Y03700D02*
X06250Y03700D01*
X00450Y03700D02*
X03250Y03700D01*
X04350Y03750D02*
X06250Y03750D01*
X00450Y03750D02*
X03250Y03750D01*
X04400Y03800D02*
X06200Y03800D01*
X00450Y03800D02*
X03200Y03800D01*
X04400Y03850D02*
X06200Y03850D01*
X00450Y03850D02*
X03200Y03850D01*
X04400Y03900D02*
X06200Y03900D01*
X00450Y03900D02*
X03200Y03900D01*
X04400Y03950D02*
X06200Y03950D01*
X00450Y03950D02*
X03200Y03950D01*
X04400Y04000D02*
X06200Y04000D01*
X00450Y04000D02*
X03200Y04000D01*
X04400Y04050D02*
X06200Y04050D01*
X00450Y04050D02*
X03200Y04050D01*
X04400Y04100D02*
X06200Y04100D01*
X00450Y04100D02*
X03200Y04100D01*
X04400Y04150D02*
X06200Y04150D01*
X00450Y04150D02*
X03200Y04150D01*
X04400Y04200D02*
X06200Y04200D01*
X00450Y04200D02*
X03200Y04200D01*
X04350Y04250D02*
X06250Y04250D01*
X00450Y04250D02*
X03250Y04250D01*
X04350Y04300D02*
X06250Y04300D01*
X00450Y04300D02*
X03250Y04300D01*
X04300Y04350D02*
X06300Y04350D01*
X00450Y04350D02*
X03300Y04350D01*
X04250Y04400D02*
X06350Y04400D01*
X00450Y04400D02*
X03350Y04400D01*
X04200Y04450D02*
X06400Y04450D01*
X00450Y04450D02*
X03400Y04450D01*
X04150Y04500D02*
X06450Y04500D01*
X00450Y04500D02*
X03450Y04500D01*
X04200Y04550D02*
X06400Y04550D01*
X00450Y04550D02*
X03400Y04550D01*
X04250Y04600D02*
X06350Y04600D01*
X00450Y04600D02*
X03350Y04600D01*
X04300Y04650D02*
X06300Y04650D01*
X00450Y04650D02*
X03300Y04650D01*
X04350Y04700D02*
X06250Y04700D01*
X00450Y04700D02*
X03250Y04700D01*
X04350Y04750D02*
X06250Y04750D01*
X00450Y04750D02*
X03250Y04750D01*
X04400Y04800D02*
X06200Y04800D01*
X00450Y04800D02*
X03200Y04800D01*
X04400Y04850D02*
X06200Y04850D01*
X00450Y04850D02*
X03200Y04850D01*
X04400Y04900D02*
X06200Y04900D01*
X00450Y04900D02*
X03200Y04900D01*
X04400Y04950D02*
X06200Y04950D01*
X00450Y04950D02*
X03200Y04950D01*
X04400Y05000D02*
X06200Y05000D01*
X00450Y05000D02*
X03200Y05000D01*
X04400Y05050D02*
X06200Y05050D01*
X00450Y05050D02*
X03200Y05050D01*
X04400Y05100D02*
X06200Y05100D01*
X00450Y05100D02*
X03200Y05100D01*
X04400Y05150D02*
X06200Y05150D01*
X00450Y05150D02*
X03200Y05150D01*
X04400Y05200D02*
X06200Y05200D01*
X00450Y05200D02*
X03200Y05200D01*
X04350Y05250D02*
X06250Y05250D01*
X00450Y05250D02*
X03250Y05250D01*
X04350Y05300D02*
X06250Y05300D01*
X00450Y05300D02*
X03250Y05300D01*
X04300Y05350D02*
X06300Y05350D01*
X00450Y05350D02*
X03300Y05350D01*
X04250Y05400D02*
X06350Y05400D01*
X00450Y05400D02*
X03350Y05400D01*
X04200Y05450D02*
X06400Y05450D01*
X00450Y05450D02*
X03400Y05450D01*
X04150Y05500D02*
X06450Y05500D01*
X00450Y05500D02*
X03450Y05500D01*
X04200Y05550D02*
X05900Y05550D01*
X00450Y05550D02*
X03400Y05550D01*
X04250Y05600D02*
X05800Y05600D01*
X00450Y05600D02*
X03350Y05600D01*
X04300Y05650D02*
X05750Y05650D01*
X00450Y05650D02*
X03300Y05650D01*
X04350Y05700D02*
X05700Y05700D01*
X00450Y05700D02*
X03250Y05700D01*
X04350Y05750D02*
X05650Y05750D01*
X00450Y05750D02*
X03250Y05750D01*
X04400Y05800D02*
X05600Y05800D01*
X00450Y05800D02*
X03200Y05800D01*
X04400Y05850D02*
X05550Y05850D01*
X00450Y05850D02*
X03200Y05850D01*
X04400Y05900D02*
X05550Y05900D01*
X00450Y05900D02*
X03200Y05900D01*
X04400Y05950D02*
X05500Y05950D01*
X00450Y05950D02*
X03200Y05950D01*
X04400Y06000D02*
X05450Y06000D01*
X00450Y06000D02*
X03200Y06000D01*
X04400Y06050D02*
X05400Y06050D01*
X00450Y06050D02*
X03200Y06050D01*
X04400Y06100D02*
X05350Y06100D01*
X00450Y06100D02*
X03200Y06100D01*
X04400Y06150D02*
X05300Y06150D01*
X00450Y06150D02*
X03200Y06150D01*
X04400Y06200D02*
X05300Y06200D01*
X00450Y06200D02*
X03200Y06200D01*
X04350Y06250D02*
X05250Y06250D01*
X00450Y06250D02*
X03250Y06250D01*
X04350Y06300D02*
X05250Y06300D01*
X00450Y06300D02*
X03250Y06300D01*
X04300Y06350D02*
X05250Y06350D01*
X00450Y06350D02*
X03300Y06350D01*
X04250Y06400D02*
X05250Y06400D01*
X00450Y06400D02*
X03350Y06400D01*
X04200Y06450D02*
X05250Y06450D01*
X00450Y06450D02*
X03400Y06450D01*
X04150Y06500D02*
X05250Y06500D01*
X00450Y06500D02*
X03450Y06500D01*
X04200Y06550D02*
X05250Y06550D01*
X00450Y06550D02*
X03400Y06550D01*
X04250Y06600D02*
X05250Y06600D01*
X00450Y06600D02*
X03350Y06600D01*
X04300Y06650D02*
X05250Y06650D01*
X00450Y06650D02*
X03300Y06650D01*
X04350Y06700D02*
X05250Y06700D01*
X00450Y06700D02*
X03250Y06700D01*
X04350Y06750D02*
X05250Y06750D01*
X00450Y06750D02*
X03250Y06750D01*
X04400Y06800D02*
X05250Y06800D01*
X00450Y06800D02*
X03200Y06800D01*
X04400Y06850D02*
X05250Y06850D01*
X00450Y06850D02*
X03200Y06850D01*
X04400Y06900D02*
X05250Y06900D01*
X00450Y06900D02*
X03200Y06900D01*
X04400Y06950D02*
X05250Y06950D01*
X00450Y06950D02*
X03200Y06950D01*
X04400Y07000D02*
X05250Y07000D01*
X00450Y07000D02*
X03200Y07000D01*
X04400Y07050D02*
X05250Y07050D01*
X00450Y07050D02*
X03200Y07050D01*
X04400Y07100D02*
X05250Y07100D01*
X00450Y07100D02*
X03200Y07100D01*
X04400Y07150D02*
X05250Y07150D01*
X00450Y07150D02*
X03200Y07150D01*
X04400Y07200D02*
X05250Y07200D01*
X00450Y07200D02*
X03200Y07200D01*
X04350Y07250D02*
X05250Y07250D01*
X00450Y07250D02*
X03250Y07250D01*
X04350Y07300D02*
X05250Y07300D01*
X00450Y07300D02*
X03250Y07300D01*
X04300Y07350D02*
X05250Y07350D01*
X00450Y07350D02*
X03300Y07350D01*
X04250Y07400D02*
X05250Y07400D01*
X00450Y07400D02*
X03350Y07400D01*
X04200Y07450D02*
X05250Y07450D01*
X00450Y07450D02*
X03400Y07450D01*
X04150Y07500D02*
X05250Y07500D01*
X00450Y07500D02*
X03450Y07500D01*
X04200Y07550D02*
X05250Y07550D01*
X00450Y07550D02*
X03400Y07550D01*
X04250Y07600D02*
X05250Y07600D01*
X00450Y07600D02*
X03350Y07600D01*
X04300Y07650D02*
X05250Y07650D01*
X00450Y07650D02*
X03300Y07650D01*
X04350Y07700D02*
X05250Y07700D01*
X00450Y07700D02*
X03250Y07700D01*
X04350Y07750D02*
X05300Y07750D01*
X00450Y07750D02*
X03250Y07750D01*
X04400Y07800D02*
X05300Y07800D01*
X00450Y07800D02*
X03200Y07800D01*
X04400Y07850D02*
X05350Y07850D01*
X00450Y07850D02*
X03200Y07850D01*
X04400Y07900D02*
X05400Y07900D01*
X00450Y07900D02*
X03200Y07900D01*
X04400Y07950D02*
X05450Y07950D01*
X00450Y07950D02*
X03200Y07950D01*
X04400Y08000D02*
X05500Y08000D01*
X00450Y08000D02*
X03200Y08000D01*
X04400Y08050D02*
X05550Y08050D01*
X00450Y08050D02*
X03200Y08050D01*
X04400Y08100D02*
X05650Y08100D01*
X00450Y08100D02*
X03200Y08100D01*
X04400Y08150D02*
X05700Y08150D01*
X00450Y08150D02*
X03200Y08150D01*
X04400Y08200D02*
X05750Y08200D01*
X00450Y08200D02*
X03200Y08200D01*
X04350Y08250D02*
X05800Y08250D01*
X00450Y08250D02*
X03250Y08250D01*
X04350Y08300D02*
X05850Y08300D01*
X00450Y08300D02*
X03250Y08300D01*
X04300Y08350D02*
X05900Y08350D01*
X00450Y08350D02*
X03300Y08350D01*
X04250Y08400D02*
X05950Y08400D01*
X00450Y08400D02*
X03350Y08400D01*
X04200Y08450D02*
X06050Y08450D01*
X00450Y08450D02*
X03400Y08450D01*
X04150Y08500D02*
X06450Y08500D01*
X00450Y08500D02*
X03450Y08500D01*
X04200Y08550D02*
X06400Y08550D01*
X00450Y08550D02*
X03400Y08550D01*
X04250Y08600D02*
X06350Y08600D01*
X00450Y08600D02*
X03350Y08600D01*
X04300Y08650D02*
X06300Y08650D01*
X00450Y08650D02*
X03300Y08650D01*
X04350Y08700D02*
X06250Y08700D01*
X00450Y08700D02*
X03250Y08700D01*
X04350Y08750D02*
X06250Y08750D01*
X00450Y08750D02*
X03250Y08750D01*
X04400Y08800D02*
X06200Y08800D01*
X00450Y08800D02*
X03200Y08800D01*
X04400Y08850D02*
X06150Y08850D01*
X00450Y08850D02*
X03200Y08850D01*
X04400Y08900D02*
X06050Y08900D01*
X00450Y08900D02*
X03200Y08900D01*
X04400Y08950D02*
X05950Y08950D01*
X00450Y08950D02*
X03200Y08950D01*
X04400Y09000D02*
X05900Y09000D01*
X00450Y09000D02*
X03200Y09000D01*
X04400Y09050D02*
X05800Y09050D01*
X00450Y09050D02*
X03200Y09050D01*
X04400Y09100D02*
X05750Y09100D01*
X00450Y09100D02*
X03200Y09100D01*
X04400Y09150D02*
X05650Y09150D01*
X00450Y09150D02*
X03200Y09150D01*
X04400Y09200D02*
X05600Y09200D01*
X00450Y09200D02*
X03200Y09200D01*
X04350Y09250D02*
X05500Y09250D01*
X00450Y09250D02*
X03250Y09250D01*
X04350Y09300D02*
X05450Y09300D01*
X00450Y09300D02*
X03250Y09300D01*
X04300Y09350D02*
X05400Y09350D01*
X00450Y09350D02*
X03300Y09350D01*
X04250Y09400D02*
X05350Y09400D01*
X01900Y09400D02*
X03350Y09400D01*
X04200Y09450D02*
X05350Y09450D01*
X01900Y09450D02*
X03400Y09450D01*
X04150Y09500D02*
X05300Y09500D01*
X01900Y09500D02*
X03450Y09500D01*
X04200Y09550D02*
X05300Y09550D01*
X01900Y09550D02*
X03400Y09550D01*
X04250Y09600D02*
X05300Y09600D01*
X01900Y09600D02*
X03350Y09600D01*
X04300Y09650D02*
X05300Y09650D01*
X01900Y09650D02*
X03300Y09650D01*
X04350Y09700D02*
X05300Y09700D01*
X01900Y09700D02*
X03250Y09700D01*
X04350Y09750D02*
X05300Y09750D01*
X01900Y09750D02*
X03250Y09750D01*
X04400Y09800D02*
X05300Y09800D01*
X01900Y09800D02*
X03200Y09800D01*
X04400Y09850D02*
X05300Y09850D01*
X01900Y09850D02*
X03200Y09850D01*
X04400Y09900D02*
X05300Y09900D01*
X01900Y09900D02*
X03200Y09900D01*
X04400Y09950D02*
X05300Y09950D01*
X01900Y09950D02*
X03200Y09950D01*
X04400Y10000D02*
X05300Y10000D01*
X01900Y10000D02*
X03200Y10000D01*
X04400Y10050D02*
X05300Y10050D01*
X01900Y10050D02*
X03200Y10050D01*
X04400Y10100D02*
X05300Y10100D01*
X01900Y10100D02*
X03200Y10100D01*
X04400Y10150D02*
X05300Y10150D01*
X01900Y10150D02*
X03200Y10150D01*
X04400Y10200D02*
X05300Y10200D01*
X01900Y10200D02*
X03200Y10200D01*
X04350Y10250D02*
X05300Y10250D01*
X01900Y10250D02*
X03250Y10250D01*
X04350Y10300D02*
X05300Y10300D01*
X01900Y10300D02*
X03250Y10300D01*
X04300Y10350D02*
X05300Y10350D01*
X01900Y10350D02*
X03300Y10350D01*
X04250Y10400D02*
X05300Y10400D01*
X01900Y10400D02*
X03350Y10400D01*
X04200Y10450D02*
X05300Y10450D01*
X04150Y10500D02*
X05300Y10500D01*
X04200Y10550D02*
X05300Y10550D01*
X04250Y10600D02*
X05300Y10600D01*
X04300Y10650D02*
X05300Y10650D01*
X04350Y10700D02*
X05300Y10700D01*
X04350Y10750D02*
X05300Y10750D01*
X04400Y10800D02*
X05300Y10800D01*
X04400Y10850D02*
X05300Y10850D01*
X04400Y10900D02*
X05300Y10900D01*
X04400Y10950D02*
X05300Y10950D01*
X04400Y11000D02*
X05300Y11000D01*
X04400Y11050D02*
X05300Y11050D01*
X04400Y11100D02*
X05300Y11100D01*
X04400Y11150D02*
X05300Y11150D01*
X04400Y11200D02*
X05300Y11200D01*
X04350Y11250D02*
X05300Y11250D01*
X04350Y11300D02*
X05300Y11300D01*
X04300Y11350D02*
X05300Y11350D01*
X04250Y11400D02*
X05300Y11400D01*
X04200Y11450D02*
X05300Y11450D01*
X04150Y11500D02*
X05300Y11500D01*
X04200Y11550D02*
X05300Y11550D01*
X04250Y11600D02*
X05300Y11600D01*
X04300Y11650D02*
X05300Y11650D01*
X04350Y11700D02*
X05300Y11700D01*
X04350Y11750D02*
X05300Y11750D01*
X04400Y11800D02*
X05300Y11800D01*
X04400Y11850D02*
X05300Y11850D01*
X04400Y11900D02*
X05300Y11900D01*
X04400Y11950D02*
X05300Y11950D01*
X04400Y12000D02*
X05300Y12000D01*
X04400Y12050D02*
X05300Y12050D01*
X04400Y12100D02*
X05300Y12100D01*
X04400Y12150D02*
X05300Y12150D01*
X04400Y12200D02*
X05300Y12200D01*
X04350Y12250D02*
X05300Y12250D01*
X04350Y12300D02*
X05300Y12300D01*
X04300Y12350D02*
X05300Y12350D01*
X04250Y12400D02*
X05300Y12400D01*
X04200Y12450D02*
X05300Y12450D01*
X04150Y12500D02*
X05300Y12500D01*
X04200Y12550D02*
X05300Y12550D01*
X04250Y12600D02*
X05300Y12600D01*
X04300Y12650D02*
X05300Y12650D01*
X04350Y12700D02*
X05300Y12700D01*
X04350Y12750D02*
X05300Y12750D01*
X04400Y12800D02*
X05300Y12800D01*
X04400Y12850D02*
X05300Y12850D01*
X04400Y12900D02*
X05300Y12900D01*
X04400Y12950D02*
X05300Y12950D01*
X04400Y13000D02*
X05300Y13000D01*
X04400Y13050D02*
X05300Y13050D01*
X04400Y13100D02*
X05300Y13100D01*
X04400Y13150D02*
X05300Y13150D01*
X04400Y13200D02*
X05300Y13200D01*
X04350Y13250D02*
X05300Y13250D01*
X04350Y13300D02*
X05300Y13300D01*
X04300Y13350D02*
X05300Y13350D01*
X04250Y13400D02*
X05300Y13400D01*
X04200Y13450D02*
X05300Y13450D01*
X04150Y13500D02*
X05300Y13500D01*
X04200Y13550D02*
X05300Y13550D01*
X04250Y13600D02*
X05300Y13600D01*
X04300Y13650D02*
X05300Y13650D01*
X04350Y13700D02*
X05300Y13700D01*
X04350Y13750D02*
X05300Y13750D01*
X04400Y13800D02*
X05300Y13800D01*
X04400Y13850D02*
X05300Y13850D01*
X04400Y13900D02*
X05300Y13900D01*
X04400Y13950D02*
X05300Y13950D01*
X04400Y14000D02*
X05300Y14000D01*
X04400Y14050D02*
X05300Y14050D01*
X04400Y14100D02*
X05300Y14100D01*
X04400Y14150D02*
X05300Y14150D01*
X04400Y14200D02*
X05300Y14200D01*
X04350Y14250D02*
X05300Y14250D01*
X04350Y14300D02*
X05300Y14300D01*
X04300Y14350D02*
X05300Y14350D01*
X04250Y14400D02*
X05300Y14400D01*
X04200Y14450D02*
X05300Y14450D01*
X04150Y14500D02*
X05300Y14500D01*
X04200Y14550D02*
X05300Y14550D01*
X04250Y14600D02*
X05300Y14600D01*
X04300Y14650D02*
X05300Y14650D01*
X04350Y14700D02*
X05300Y14700D01*
X04350Y14750D02*
X05300Y14750D01*
X04400Y14800D02*
X05300Y14800D01*
X04400Y14850D02*
X05300Y14850D01*
X04400Y14900D02*
X05300Y14900D01*
X04400Y14950D02*
X05300Y14950D01*
X04400Y15000D02*
X05300Y15000D01*
X04400Y15050D02*
X05300Y15050D01*
X04400Y15100D02*
X05300Y15100D01*
X04400Y15150D02*
X05300Y15150D01*
X04400Y15200D02*
X05300Y15200D01*
X04350Y15250D02*
X05300Y15250D01*
X04350Y15300D02*
X05300Y15300D01*
X04300Y15350D02*
X05300Y15350D01*
X04450Y15400D02*
X05300Y15400D01*
X04450Y15450D02*
X05300Y15450D01*
X04450Y15500D02*
X05300Y15500D01*
X04450Y15550D02*
X05300Y15550D01*
X04450Y15600D02*
X05300Y15600D01*
X04450Y15650D02*
X05300Y15650D01*
X04450Y15700D02*
X05300Y15700D01*
X04450Y15750D02*
X05300Y15750D01*
X04450Y15800D02*
X05300Y15800D01*
X04450Y15850D02*
X05300Y15850D01*
X04450Y15900D02*
X05300Y15900D01*
X04450Y15950D02*
X05300Y15950D01*
X04450Y16000D02*
X05300Y16000D01*
X04450Y16050D02*
X05300Y16050D01*
X04450Y16100D02*
X05300Y16100D01*
X04450Y16150D02*
X05300Y16150D01*
X04450Y16200D02*
X05300Y16200D01*
X04450Y16250D02*
X05300Y16250D01*
X04450Y16300D02*
X05300Y16300D01*
X04450Y16350D02*
X05300Y16350D01*
X04450Y16400D02*
X05300Y16400D01*
X04450Y16450D02*
X05300Y16450D01*
X04450Y16500D02*
X05300Y16500D01*
X04450Y16550D02*
X05300Y16550D01*
X04450Y16600D02*
X05300Y16600D01*
X04300Y16650D02*
X05300Y16650D01*
X04300Y16700D02*
X05300Y16700D01*
X04300Y16750D02*
X05300Y16750D01*
X04300Y16800D02*
X05300Y16800D01*
X04300Y16850D02*
X05350Y16850D01*
X04300Y16900D02*
X05350Y16900D01*
X04300Y16950D02*
X05400Y16950D01*
X04300Y17000D02*
X05450Y17000D01*
X04300Y17050D02*
X05500Y17050D01*
X04300Y17100D02*
X05550Y17100D01*
X04300Y17150D02*
X05600Y17150D01*
X04350Y17200D02*
X05700Y17200D01*
X04350Y17250D02*
X05750Y17250D01*
X04400Y17300D02*
X05800Y17300D01*
X04450Y17350D02*
X05850Y17350D01*
M02*
