G04 (Genere par PCBNEW (2007-07-09)) le 26/11/2007-16:27:27*
G01*
G70*
G90*
%MOIN*%
G04 Gerber Fmt 3.4, Leading zero omitted, Abs format*
%FSLAX34Y34*%
G04 APERTURE LIST*
%ADD10C,0.015000*%
%ADD11O,0.112000X0.056000*%
%ADD12O,0.056000X0.112000*%
%ADD13O,0.104000X0.052000*%
%ADD14C,0.055000*%
%ADD15R,0.065000X0.065000*%
%ADD16C,0.065000*%
%ADD17R,0.036000X0.036000*%
%ADD18R,0.055000X0.055000*%
%ADD19C,0.017000*%
%ADD20C,0.005000*%
%ADD21C,0.008000*%
G04 APERTURE END LIST*
G54D10*
X01250Y00000D02*
X01154Y-00478D01*
X01154Y-00478D02*
X00883Y-00883D01*
X00883Y-00883D02*
X00478Y-01154D01*
X00478Y-01154D02*
X00000Y-01250D01*
X00000Y-01250D02*
X-00478Y-01154D01*
X-00478Y-01154D02*
X-00883Y-00883D01*
X-00883Y-00883D02*
X-01154Y-00478D01*
X-01154Y-00478D02*
X-01250Y00000D01*
X-01250Y00000D02*
X-01154Y00478D01*
X-01154Y00478D02*
X-00883Y00883D01*
X-00883Y00883D02*
X-00478Y01154D01*
X-00478Y01154D02*
X00000Y01250D01*
X00000Y01250D02*
X00478Y01154D01*
X00478Y01154D02*
X00883Y00883D01*
X00883Y00883D02*
X01154Y00478D01*
X01154Y00478D02*
X01250Y00000D01*
X-02500Y00000D02*
X02500Y00000D01*
X00000Y02500D02*
X00000Y-02500D01*
X00000Y18500D02*
X10250Y18500D01*
X00000Y18250D02*
X00000Y18500D01*
X00000Y00000D02*
X00000Y18250D01*
X00250Y00000D02*
X00000Y00000D01*
X00500Y00000D02*
X00250Y00000D01*
X10250Y00000D02*
X00500Y00000D01*
X10250Y18500D02*
X10250Y00000D01*
G54D20*
X06950Y18200D02*
X06950Y17000D01*
X06950Y17000D02*
X07250Y17000D01*
X07250Y17000D02*
X07250Y18200D01*
X07250Y18200D02*
X06950Y18200D01*
G54D21*
X07800Y16856D02*
X08100Y16856D01*
X08100Y16856D02*
X07966Y17006D01*
X07966Y17006D02*
X08100Y17156D01*
X08100Y17156D02*
X07800Y17156D01*
X07800Y17307D02*
X07833Y17269D01*
X07833Y17269D02*
X08066Y17269D01*
X08066Y17269D02*
X08100Y17307D01*
X08100Y17307D02*
X08100Y17494D01*
X08100Y17494D02*
X08066Y17532D01*
X08066Y17532D02*
X07833Y17532D01*
X07833Y17532D02*
X07800Y17494D01*
X07800Y17494D02*
X07800Y17307D01*
X07833Y17682D02*
X07800Y17720D01*
X07800Y17720D02*
X07800Y17907D01*
X07800Y17907D02*
X07833Y17945D01*
X07833Y17945D02*
X07933Y17945D01*
X07933Y17945D02*
X07966Y17907D01*
X07966Y17907D02*
X07966Y17720D01*
X07966Y17720D02*
X08000Y17682D01*
X08000Y17682D02*
X08066Y17682D01*
X08066Y17682D02*
X08100Y17720D01*
X08100Y17720D02*
X08100Y17907D01*
X08100Y17907D02*
X08066Y17945D01*
X07800Y18170D02*
X07800Y18320D01*
X07800Y18245D02*
X08100Y18245D01*
X08066Y18245D02*
X08000Y18170D01*
X06950Y15617D02*
X07250Y15617D01*
X07250Y15617D02*
X06950Y15880D01*
X06950Y15880D02*
X07250Y15880D01*
X07250Y16030D02*
X07250Y16330D01*
X07250Y16180D02*
X06950Y16180D01*
X06950Y16443D02*
X07250Y16443D01*
X07250Y16443D02*
X07250Y16668D01*
X07250Y16668D02*
X07216Y16706D01*
X07216Y16706D02*
X07116Y16706D01*
X07116Y16706D02*
X07083Y16668D01*
X07083Y16668D02*
X07083Y16443D01*
X07083Y16556D02*
X06950Y16706D01*
X06950Y17044D02*
X07250Y17044D01*
X07250Y17044D02*
X07016Y16856D01*
X07016Y16856D02*
X07016Y17119D01*
X07016Y17269D02*
X06983Y17269D01*
X06983Y17269D02*
X06950Y17307D01*
X06950Y17307D02*
X06950Y17494D01*
X06950Y17494D02*
X06983Y17532D01*
X06983Y17532D02*
X07083Y17532D01*
X07083Y17532D02*
X07150Y17457D01*
X07150Y17457D02*
X07150Y17269D01*
X07150Y17269D02*
X07250Y17269D01*
X07250Y17269D02*
X07250Y17532D01*
X06950Y17682D02*
X07250Y17945D01*
X06983Y17682D02*
X07216Y17682D01*
X07216Y17682D02*
X07250Y17720D01*
X07250Y17720D02*
X07250Y17907D01*
X07250Y17907D02*
X07216Y17945D01*
X07216Y17945D02*
X06983Y17945D01*
X06983Y17945D02*
X06950Y17907D01*
X06950Y17907D02*
X06950Y17720D01*
X06950Y17720D02*
X06983Y17682D01*
X06950Y18095D02*
X07250Y18095D01*
X07250Y18095D02*
X06950Y18358D01*
X06950Y18358D02*
X07250Y18358D01*
X07250Y18508D02*
X07250Y18808D01*
X07250Y18658D02*
X06950Y18658D01*
X06950Y18996D02*
X06950Y19146D01*
X06950Y19071D02*
X07250Y19071D01*
X07216Y19071D02*
X07150Y18996D01*
X07216Y19559D02*
X07250Y19559D01*
X07250Y19559D02*
X07250Y19372D01*
X07250Y19372D02*
X07216Y19334D01*
X07216Y19334D02*
X06983Y19334D01*
X06983Y19334D02*
X06950Y19372D01*
X06950Y19372D02*
X06950Y19559D01*
X06950Y19559D02*
X06983Y19597D01*
X06983Y19597D02*
X07083Y19597D01*
X07083Y19597D02*
X07083Y19484D01*
M02*
