G04 (Genere par PCBNEW (2007-07-09)) le 26/11/2007-16:27:27*
G01*
G70*
G90*
%MOIN*%
G04 Gerber Fmt 3.4, Leading zero omitted, Abs format*
%FSLAX34Y34*%
G04 APERTURE LIST*
%ADD10C,0.015000*%
%ADD11O,0.112000X0.056000*%
%ADD12O,0.056000X0.112000*%
%ADD13O,0.104000X0.052000*%
%ADD14C,0.055000*%
%ADD15R,0.065000X0.065000*%
%ADD16C,0.065000*%
%ADD17R,0.036000X0.036000*%
%ADD18R,0.055000X0.055000*%
%ADD19C,0.017000*%
G04 APERTURE END LIST*
G54D10*
X01250Y00000D02*
X01154Y-00478D01*
X01154Y-00478D02*
X00883Y-00883D01*
X00883Y-00883D02*
X00478Y-01154D01*
X00478Y-01154D02*
X00000Y-01250D01*
X00000Y-01250D02*
X-00478Y-01154D01*
X-00478Y-01154D02*
X-00883Y-00883D01*
X-00883Y-00883D02*
X-01154Y-00478D01*
X-01154Y-00478D02*
X-01250Y00000D01*
X-01250Y00000D02*
X-01154Y00478D01*
X-01154Y00478D02*
X-00883Y00883D01*
X-00883Y00883D02*
X-00478Y01154D01*
X-00478Y01154D02*
X00000Y01250D01*
X00000Y01250D02*
X00478Y01154D01*
X00478Y01154D02*
X00883Y00883D01*
X00883Y00883D02*
X01154Y00478D01*
X01154Y00478D02*
X01250Y00000D01*
X-02500Y00000D02*
X02500Y00000D01*
X00000Y02500D02*
X00000Y-02500D01*
X00000Y18500D02*
X10250Y18500D01*
X00000Y18250D02*
X00000Y18500D01*
X00000Y00000D02*
X00000Y18250D01*
X00250Y00000D02*
X00000Y00000D01*
X00500Y00000D02*
X00250Y00000D01*
X10250Y00000D02*
X00500Y00000D01*
X10250Y18500D02*
X10250Y00000D01*
G54D11*
X09100Y03000D03*
X09100Y04000D03*
X09100Y05000D03*
X09100Y06000D03*
X09100Y07000D03*
X09100Y08000D03*
X09100Y09000D03*
X09100Y10000D03*
X09100Y11000D03*
X09100Y12000D03*
X09100Y13000D03*
X09100Y14000D03*
X09100Y15000D03*
X09100Y16000D03*
X09100Y17000D03*
X09100Y18000D03*
G54D12*
X03050Y01000D03*
X04050Y01000D03*
X05050Y01000D03*
X06050Y01000D03*
X07050Y01000D03*
G54D11*
X00800Y11000D03*
X00800Y12000D03*
X00800Y13000D03*
X00800Y14000D03*
X00800Y15000D03*
X00800Y16000D03*
G54D13*
X02300Y10000D03*
X02300Y11000D03*
X02300Y12000D03*
X02300Y13000D03*
X02300Y14000D03*
X02300Y15000D03*
G54D14*
X02800Y09000D03*
X01800Y09000D03*
G54D15*
X01050Y03000D03*
G54D16*
X02550Y03000D03*
G54D14*
X02800Y07500D03*
X00800Y07500D03*
X01800Y07500D03*
X00800Y08500D03*
X00800Y09500D03*
G54D17*
X06700Y17950D03*
X06700Y17250D03*
X07500Y17600D03*
G54D14*
X03800Y15000D03*
X03800Y14000D03*
X03800Y13000D03*
X03800Y12000D03*
X03800Y11000D03*
X03800Y10000D03*
X03800Y09000D03*
X03800Y08000D03*
X03800Y07000D03*
X03800Y06000D03*
X03800Y05000D03*
X03800Y04000D03*
X03800Y03000D03*
G54D18*
X03800Y16000D03*
G54D14*
X06800Y03000D03*
X06800Y04000D03*
X06800Y05000D03*
X06800Y06000D03*
X06800Y07000D03*
X06800Y08000D03*
X06800Y09000D03*
X06800Y10000D03*
X06800Y11000D03*
X06800Y12000D03*
X06800Y13000D03*
X06800Y14000D03*
X06800Y15000D03*
X06800Y16000D03*
G54D19*
X01800Y09000D02*
X02300Y09500D01*
X02300Y09500D02*
X02300Y10000D01*
X05100Y01000D02*
X05050Y01000D01*
X06800Y05000D02*
X06800Y06000D01*
X06800Y08000D02*
X06300Y08000D01*
X06300Y08000D02*
X06000Y07600D01*
X06000Y07600D02*
X06000Y06700D01*
X06800Y06000D02*
X06300Y06000D01*
X06000Y06300D02*
X06000Y06700D01*
X06300Y06000D02*
X06000Y06300D01*
X06800Y04000D02*
X06800Y05000D01*
X06800Y04000D02*
X05100Y02300D01*
X05100Y02300D02*
X05100Y01000D01*
X09100Y05000D02*
X08000Y05000D01*
X07700Y01600D02*
X07050Y01000D01*
X07700Y04700D02*
X07700Y01600D01*
X08000Y05000D02*
X07700Y04700D01*
X07900Y06000D02*
X09100Y06000D01*
X06800Y11000D02*
X07500Y10300D01*
X07500Y10300D02*
X07500Y06300D01*
X07500Y06300D02*
X07900Y06000D01*
X06800Y12000D02*
X08000Y10800D01*
X08000Y10800D02*
X08000Y08300D01*
X08300Y08000D02*
X09100Y08000D01*
X08000Y08300D02*
X08300Y08000D01*
X06800Y13000D02*
X09100Y13000D01*
X06800Y14000D02*
X09100Y14000D01*
X06800Y15000D02*
X09100Y15000D01*
X06800Y16000D02*
X09100Y16000D01*
X07500Y17600D02*
X08700Y17600D01*
X08700Y17600D02*
X09100Y18000D01*
X03800Y05000D02*
X03800Y06000D01*
X03800Y06000D02*
X02800Y07000D01*
X03800Y05000D02*
X03800Y04000D01*
X02800Y09000D02*
X02800Y07500D01*
X02550Y03000D02*
X02600Y03000D01*
X02600Y03000D02*
X03100Y02500D01*
X03100Y02500D02*
X03100Y01000D01*
X03100Y01000D02*
X03050Y01000D01*
X02800Y07000D02*
X02800Y07500D01*
X06700Y17950D02*
X04175Y17950D01*
X04175Y17950D02*
X03825Y17500D01*
X03825Y17500D02*
X03800Y16000D01*
X03800Y16000D02*
X03800Y17550D01*
X03800Y17550D02*
X04175Y17950D01*
X03800Y16000D02*
X04250Y16000D01*
X04500Y09000D02*
X03800Y09000D01*
X04750Y09250D02*
X04500Y09000D01*
X04750Y09500D02*
X04750Y09250D01*
X04750Y15500D02*
X04750Y09500D01*
X04250Y16000D02*
X04750Y15500D01*
X03800Y01300D02*
X03800Y03000D01*
X04050Y01000D02*
X04100Y01000D01*
X04100Y01000D02*
X03800Y01300D01*
X06800Y02100D02*
X06800Y03000D01*
X06050Y01000D02*
X06100Y01000D01*
X06100Y01000D02*
X06500Y01400D01*
X06500Y01400D02*
X06500Y01800D01*
X06500Y01800D02*
X06800Y02100D01*
X00800Y07500D02*
X00800Y08500D01*
X06700Y17250D02*
X06250Y17250D01*
X06250Y09000D02*
X06800Y09000D01*
X06000Y09250D02*
X06250Y09000D01*
X06000Y09500D02*
X06000Y09250D01*
X06000Y17000D02*
X06000Y09500D01*
X06250Y17250D02*
X06000Y17000D01*
M02*
