M48
;DRILL file {PCBNEW (2007-07-09)} date 1/12/2007-15:25:03
;FORMAT={2:4 / absolute / pollici / decimal format}
R,T
VER,1
FMAT,2
INCH,TZ
TCST,OFF
ICI,OFF
ATC,ON
T1C0.032
T2C0.036
%
M47
G05
M72
T1
X4.660Y-1.600
X4.660Y-1.500
X4.660Y-1.400
X4.660Y-1.300
X4.660Y-1.200
X4.660Y-1.100
X4.780Y-1.500
X4.780Y-1.400
X4.780Y-1.300
X4.780Y-1.200
X4.780Y-1.100
X4.780Y-1.000
X4.780Y-0.900
X4.780Y-0.800
X4.780Y-0.700
X4.780Y-0.600
X4.780Y-0.500
X4.780Y-0.400
X4.780Y-0.300
X4.780Y-1.600
X5.080Y-0.300
X5.080Y-0.400
X5.080Y-0.500
X5.080Y-0.600
X5.080Y-0.700
X5.080Y-0.800
X5.080Y-0.900
X5.080Y-1.000
X5.080Y-1.100
X5.080Y-1.200
X5.080Y-1.300
X5.080Y-1.400
X5.080Y-1.500
X5.080Y-1.600
T2
X5.310Y-0.300
X5.310Y-0.400
X5.310Y-0.500
X5.310Y-0.600
X5.310Y-0.700
X5.310Y-0.800
X5.310Y-0.900
X5.310Y-1.000
X5.310Y-1.100
X5.310Y-1.200
X5.310Y-1.300
X5.310Y-1.400
X5.310Y-1.500
X5.310Y-1.600
X5.310Y-1.700
X5.310Y-1.800
X4.705Y-0.100
X4.805Y-0.100
X4.905Y-0.100
X5.005Y-0.100
X5.105Y-0.100
X4.500Y-1.500
X4.500Y-1.400
X4.500Y-1.300
X4.500Y-1.200
X4.500Y-1.100
X4.500Y-1.000
T0
M30
