G04 (Genere par PCBNEW (2007-07-09)) le 1/12/2007-15:24:37*
G01*
G70*
G90*
%MOIN*%
G04 Gerber Fmt 3.4, Leading zero omitted, Abs format*
%FSLAX34Y34*%
G04 APERTURE LIST*
%ADD10C,0.015000*%
%ADD11O,0.112000X0.056000*%
%ADD12O,0.056000X0.112000*%
%ADD13O,0.104000X0.052000*%
%ADD14R,0.036000X0.036000*%
%ADD15C,0.055000*%
%ADD16R,0.055000X0.055000*%
%ADD17C,0.030000*%
%ADD18C,0.005000*%
%ADD19R,0.055000X0.035000*%
%ADD20R,0.080000X0.060000*%
%ADD21R,0.035000X0.055000*%
G04 APERTURE END LIST*
G54D10*
X01250Y00000D02*
X01154Y-00478D01*
X01154Y-00478D02*
X00883Y-00883D01*
X00883Y-00883D02*
X00478Y-01154D01*
X00478Y-01154D02*
X00000Y-01250D01*
X00000Y-01250D02*
X-00478Y-01154D01*
X-00478Y-01154D02*
X-00883Y-00883D01*
X-00883Y-00883D02*
X-01154Y-00478D01*
X-01154Y-00478D02*
X-01250Y00000D01*
X-01250Y00000D02*
X-01154Y00478D01*
X-01154Y00478D02*
X-00883Y00883D01*
X-00883Y00883D02*
X-00478Y01154D01*
X-00478Y01154D02*
X00000Y01250D01*
X00000Y01250D02*
X00478Y01154D01*
X00478Y01154D02*
X00883Y00883D01*
X00883Y00883D02*
X01154Y00478D01*
X01154Y00478D02*
X01250Y00000D01*
X-02500Y00000D02*
X02500Y00000D01*
X00000Y02500D02*
X00000Y-02500D01*
X00000Y18500D02*
X10250Y18500D01*
X00000Y18250D02*
X00000Y18500D01*
X00000Y00000D02*
X00000Y18250D01*
X00250Y00000D02*
X00000Y00000D01*
X00500Y00000D02*
X00250Y00000D01*
X10250Y00000D02*
X00500Y00000D01*
X10250Y18500D02*
X10250Y00000D01*
G54D11*
X09100Y03000D03*
X09100Y04000D03*
X09100Y05000D03*
X09100Y06000D03*
X09100Y07000D03*
X09100Y08000D03*
X09100Y09000D03*
X09100Y10000D03*
X09100Y11000D03*
X09100Y12000D03*
X09100Y13000D03*
X09100Y14000D03*
X09100Y15000D03*
X09100Y16000D03*
X09100Y17000D03*
X09100Y18000D03*
G54D12*
X03050Y01000D03*
X04050Y01000D03*
X05050Y01000D03*
X06050Y01000D03*
X07050Y01000D03*
G54D11*
X01000Y15000D03*
X01000Y14000D03*
X01000Y13000D03*
X01000Y12000D03*
X01000Y11000D03*
X01000Y10000D03*
G54D13*
X02600Y16000D03*
X02600Y15000D03*
X02600Y14000D03*
X02600Y13000D03*
X02600Y12000D03*
X02600Y11000D03*
G54D15*
X03800Y15000D03*
X03800Y14000D03*
X03800Y13000D03*
X03800Y12000D03*
X03800Y11000D03*
X03800Y10000D03*
X03800Y09000D03*
X03800Y08000D03*
X03800Y07000D03*
X03800Y06000D03*
X03800Y05000D03*
X03800Y04000D03*
X03800Y03000D03*
G54D16*
X03800Y16000D03*
G54D15*
X06800Y03000D03*
X06800Y04000D03*
X06800Y05000D03*
X06800Y06000D03*
X06800Y07000D03*
X06800Y08000D03*
X06800Y09000D03*
X06800Y10000D03*
X06800Y11000D03*
X06800Y12000D03*
X06800Y13000D03*
X06800Y14000D03*
X06800Y15000D03*
X06800Y16000D03*
G54D19*
X05400Y06725D03*
X05400Y07475D03*
G54D20*
X05250Y03850D03*
X05250Y05150D03*
G54D21*
X05025Y09900D03*
X05775Y09900D03*
G54D19*
X05400Y08225D03*
X05400Y08975D03*
G54D17*
X09100Y10000D02*
X09100Y09000D01*
X09100Y10000D02*
X09100Y11000D01*
X09100Y11000D02*
X09100Y12000D01*
X03800Y05000D02*
X03800Y06000D01*
X03800Y04000D02*
X03800Y05000D01*
X03800Y05000D02*
X03950Y05150D01*
X03950Y05150D02*
X05250Y05150D01*
X05250Y05150D02*
X05400Y05300D01*
X05400Y05300D02*
X05400Y06725D01*
X08600Y07000D02*
X09100Y07000D01*
X08600Y07000D02*
X09100Y07000D01*
X05400Y06725D02*
X05400Y06700D01*
X05400Y06700D02*
X05650Y06950D01*
X05650Y06950D02*
X06000Y06950D01*
X06000Y06950D02*
X06100Y07050D01*
X06100Y07050D02*
X06250Y07050D01*
X06250Y07050D02*
X06300Y07000D01*
X06300Y07000D02*
X06800Y07000D01*
X03800Y09000D02*
X03200Y08400D01*
X03200Y08400D02*
X03200Y06800D01*
X03200Y06800D02*
X03250Y06750D01*
X03250Y06750D02*
X03250Y06700D01*
X03250Y06700D02*
X03300Y06650D01*
X03300Y06650D02*
X03300Y06600D01*
X03300Y06600D02*
X03800Y06100D01*
X03800Y06100D02*
X03800Y06000D01*
X03800Y09000D02*
X04700Y09900D01*
X04700Y09900D02*
X05025Y09900D01*
X03800Y04000D02*
X03050Y03250D01*
X03050Y03250D02*
X03050Y01000D01*
X03800Y09000D02*
X02800Y10000D01*
X02800Y10000D02*
X01000Y10000D01*
X06800Y07000D02*
X08150Y07000D01*
X08150Y07000D02*
X09100Y07000D01*
X09100Y03000D02*
X09950Y03000D01*
X09950Y07000D02*
X09900Y07000D01*
X09900Y07000D02*
X09100Y07000D01*
X10000Y03000D02*
X09950Y07000D01*
X09950Y03000D02*
X10000Y03000D01*
X09950Y07000D02*
X09950Y07000D01*
X09950Y07000D02*
X10000Y08950D01*
X10000Y08950D02*
X10000Y08950D01*
X09100Y09000D02*
X10000Y09000D01*
X10000Y09000D02*
X10000Y08950D01*
X05025Y09900D02*
X05000Y15750D01*
X04750Y16000D02*
X03800Y16000D01*
X05000Y15750D02*
X04750Y16000D01*
X06800Y04000D02*
X06800Y05000D01*
X06800Y05000D02*
X06800Y06000D01*
X05250Y03850D02*
X05400Y04000D01*
X05400Y04000D02*
X06800Y04000D01*
X05400Y08975D02*
X05400Y08950D01*
X05400Y08950D02*
X05800Y09350D01*
X05800Y09350D02*
X05800Y09900D01*
X05800Y09900D02*
X05775Y09900D01*
X05400Y08975D02*
X05400Y08950D01*
X05400Y08950D02*
X05600Y08750D01*
X06750Y08000D02*
X06800Y08000D01*
X06000Y08750D02*
X06750Y08000D01*
X05600Y08750D02*
X06000Y08750D01*
X02600Y16000D02*
X03600Y17000D01*
X03600Y17000D02*
X05750Y17000D01*
X05750Y17000D02*
X09100Y17000D01*
X05775Y09900D02*
X05750Y17000D01*
X05250Y03850D02*
X05050Y03050D01*
X05050Y03050D02*
X05050Y01000D01*
X06800Y04000D02*
X09100Y04000D01*
X06800Y13000D02*
X09100Y13000D01*
X06800Y14000D02*
X09100Y14000D01*
X06800Y15000D02*
X09100Y15000D01*
X06800Y16000D02*
X09100Y16000D01*
X03800Y03000D02*
X04050Y02750D01*
X04050Y02750D02*
X04050Y01000D01*
X06800Y03000D02*
X06050Y02600D01*
X06050Y02600D02*
X06050Y01000D01*
X02600Y15000D02*
X03800Y15000D01*
X02600Y15000D02*
X01000Y15000D01*
X02600Y14000D02*
X03800Y14000D01*
X02600Y14000D02*
X01000Y14000D01*
X02600Y13000D02*
X03800Y13000D01*
X02600Y13000D02*
X01000Y13000D01*
X02600Y12000D02*
X03800Y12000D01*
X02600Y12000D02*
X01000Y12000D01*
X02600Y11000D02*
X01000Y11000D01*
X02600Y11000D02*
X03600Y10000D01*
X03600Y10000D02*
X03800Y10000D01*
X05400Y08225D02*
X05400Y07475D01*
X05400Y08225D02*
X05400Y08200D01*
X05400Y08200D02*
X05200Y08000D01*
X05200Y08000D02*
X03800Y08000D01*
G54D18*
X03300Y04650D02*
X03300Y04350D01*
X03300Y05650D02*
X03300Y05350D01*
X03250Y04750D02*
X03250Y04250D01*
X03250Y05750D02*
X03250Y05250D01*
X03200Y06000D02*
X03200Y04100D01*
X03150Y06050D02*
X03150Y04050D01*
X03100Y06100D02*
X03100Y04000D01*
X03050Y06150D02*
X03050Y03950D01*
X03050Y09050D02*
X03050Y08950D01*
X03000Y06200D02*
X03000Y03900D01*
X03000Y09100D02*
X03000Y08900D01*
X02950Y06250D02*
X02950Y03850D01*
X02950Y09150D02*
X02950Y08850D01*
X02900Y06300D02*
X02900Y03800D01*
X02900Y09200D02*
X02900Y08800D01*
X02850Y06400D02*
X02850Y03750D01*
X02850Y09250D02*
X02850Y08750D01*
X02800Y06500D02*
X02800Y03700D01*
X02800Y09300D02*
X02800Y08700D01*
X02750Y06600D02*
X02750Y03650D01*
X02750Y09350D02*
X02750Y08600D01*
X02700Y09400D02*
X02700Y03600D01*
X02650Y09450D02*
X02650Y03550D01*
X02600Y09500D02*
X02600Y03450D01*
X02550Y09500D02*
X02550Y01900D01*
X02500Y09500D02*
X02500Y01900D01*
X02450Y09500D02*
X02450Y01900D01*
X02400Y09500D02*
X02400Y00450D01*
X02350Y09500D02*
X02350Y00450D01*
X02300Y09500D02*
X02300Y00450D01*
X02250Y09500D02*
X02250Y00450D01*
X02200Y09500D02*
X02200Y00450D01*
X02150Y09500D02*
X02150Y00450D01*
X02100Y09500D02*
X02100Y00450D01*
X02050Y09500D02*
X02050Y00450D01*
X02000Y09500D02*
X02000Y00450D01*
X01950Y09500D02*
X01950Y00450D01*
X01900Y09500D02*
X01900Y00450D01*
X01850Y09350D02*
X01850Y00450D01*
X01800Y09350D02*
X01800Y00450D01*
X01750Y09350D02*
X01750Y00450D01*
X01700Y09350D02*
X01700Y00450D01*
X01650Y09350D02*
X01650Y00450D01*
X01600Y09350D02*
X01600Y00450D01*
X01550Y09350D02*
X01550Y00450D01*
X01500Y09350D02*
X01500Y00450D01*
X01450Y09350D02*
X01450Y00450D01*
X01400Y09350D02*
X01400Y00450D01*
X01350Y09350D02*
X01350Y00450D01*
X01300Y09350D02*
X01300Y00450D01*
X01250Y09350D02*
X01250Y00450D01*
X01200Y09350D02*
X01200Y00450D01*
X01150Y09350D02*
X01150Y00450D01*
X01100Y09350D02*
X01100Y00450D01*
X01050Y09350D02*
X01050Y00450D01*
X01000Y09350D02*
X01000Y00450D01*
X00950Y09350D02*
X00950Y00450D01*
X00900Y09350D02*
X00900Y00450D01*
X00850Y09350D02*
X00850Y00450D01*
X00800Y09350D02*
X00800Y00450D01*
X00750Y09350D02*
X00750Y00450D01*
X00700Y09350D02*
X00700Y00450D01*
X00650Y09350D02*
X00650Y00450D01*
X00600Y09350D02*
X00600Y00450D01*
X00550Y09350D02*
X00550Y00450D01*
X00500Y09350D02*
X00500Y00450D01*
X00450Y09350D02*
X00450Y00450D01*
X00450Y00450D02*
X02400Y00450D01*
X00450Y00500D02*
X02400Y00500D01*
X00450Y00550D02*
X02400Y00550D01*
X00450Y00600D02*
X02400Y00600D01*
X00450Y00650D02*
X02400Y00650D01*
X00450Y00700D02*
X02400Y00700D01*
X00450Y00750D02*
X02400Y00750D01*
X00450Y00800D02*
X02400Y00800D01*
X00450Y00850D02*
X02400Y00850D01*
X00450Y00900D02*
X02400Y00900D01*
X00450Y00950D02*
X02400Y00950D01*
X00450Y01000D02*
X02400Y01000D01*
X00450Y01050D02*
X02400Y01050D01*
X00450Y01100D02*
X02400Y01100D01*
X00450Y01150D02*
X02400Y01150D01*
X00450Y01200D02*
X02400Y01200D01*
X00450Y01250D02*
X02400Y01250D01*
X00450Y01300D02*
X02400Y01300D01*
X00450Y01350D02*
X02400Y01350D01*
X00450Y01400D02*
X02400Y01400D01*
X00450Y01450D02*
X02400Y01450D01*
X00450Y01500D02*
X02400Y01500D01*
X00450Y01550D02*
X02400Y01550D01*
X00450Y01600D02*
X02400Y01600D01*
X00450Y01650D02*
X02400Y01650D01*
X00450Y01700D02*
X02400Y01700D01*
X00450Y01750D02*
X02400Y01750D01*
X00450Y01800D02*
X02400Y01800D01*
X00450Y01850D02*
X02400Y01850D01*
X00450Y01900D02*
X02550Y01900D01*
X00450Y01950D02*
X02550Y01950D01*
X00450Y02000D02*
X02550Y02000D01*
X00450Y02050D02*
X02550Y02050D01*
X00450Y02100D02*
X02550Y02100D01*
X00450Y02150D02*
X02550Y02150D01*
X00450Y02200D02*
X02550Y02200D01*
X00450Y02250D02*
X02550Y02250D01*
X00450Y02300D02*
X02550Y02300D01*
X00450Y02350D02*
X02550Y02350D01*
X00450Y02400D02*
X02550Y02400D01*
X00450Y02450D02*
X02550Y02450D01*
X00450Y02500D02*
X02550Y02500D01*
X00450Y02550D02*
X02550Y02550D01*
X00450Y02600D02*
X02550Y02600D01*
X00450Y02650D02*
X02550Y02650D01*
X00450Y02700D02*
X02550Y02700D01*
X00450Y02750D02*
X02550Y02750D01*
X00450Y02800D02*
X02550Y02800D01*
X00450Y02850D02*
X02550Y02850D01*
X00450Y02900D02*
X02550Y02900D01*
X00450Y02950D02*
X02550Y02950D01*
X00450Y03000D02*
X02550Y03000D01*
X00450Y03050D02*
X02550Y03050D01*
X00450Y03100D02*
X02550Y03100D01*
X00450Y03150D02*
X02550Y03150D01*
X00450Y03200D02*
X02550Y03200D01*
X00450Y03250D02*
X02550Y03250D01*
X00450Y03300D02*
X02550Y03300D01*
X00450Y03350D02*
X02550Y03350D01*
X00450Y03400D02*
X02550Y03400D01*
X00450Y03450D02*
X02600Y03450D01*
X00450Y03500D02*
X02600Y03500D01*
X00450Y03550D02*
X02650Y03550D01*
X00450Y03600D02*
X02700Y03600D01*
X00450Y03650D02*
X02750Y03650D01*
X00450Y03700D02*
X02800Y03700D01*
X00450Y03750D02*
X02850Y03750D01*
X00450Y03800D02*
X02900Y03800D01*
X00450Y03850D02*
X02950Y03850D01*
X00450Y03900D02*
X03000Y03900D01*
X00450Y03950D02*
X03050Y03950D01*
X00450Y04000D02*
X03100Y04000D01*
X00450Y04050D02*
X03150Y04050D01*
X00450Y04100D02*
X03200Y04100D01*
X00450Y04150D02*
X03200Y04150D01*
X00450Y04200D02*
X03200Y04200D01*
X00450Y04250D02*
X03250Y04250D01*
X00450Y04300D02*
X03250Y04300D01*
X00450Y04350D02*
X03300Y04350D01*
X00450Y04400D02*
X03300Y04400D01*
X00450Y04450D02*
X03300Y04450D01*
X00450Y04500D02*
X03300Y04500D01*
X00450Y04550D02*
X03300Y04550D01*
X00450Y04600D02*
X03300Y04600D01*
X00450Y04650D02*
X03300Y04650D01*
X00450Y04700D02*
X03250Y04700D01*
X00450Y04750D02*
X03250Y04750D01*
X00450Y04800D02*
X03200Y04800D01*
X00450Y04850D02*
X03200Y04850D01*
X00450Y04900D02*
X03200Y04900D01*
X00450Y04950D02*
X03200Y04950D01*
X00450Y05000D02*
X03200Y05000D01*
X00450Y05050D02*
X03200Y05050D01*
X00450Y05100D02*
X03200Y05100D01*
X00450Y05150D02*
X03200Y05150D01*
X00450Y05200D02*
X03200Y05200D01*
X00450Y05250D02*
X03250Y05250D01*
X00450Y05300D02*
X03250Y05300D01*
X00450Y05350D02*
X03300Y05350D01*
X00450Y05400D02*
X03300Y05400D01*
X00450Y05450D02*
X03300Y05450D01*
X00450Y05500D02*
X03300Y05500D01*
X00450Y05550D02*
X03300Y05550D01*
X00450Y05600D02*
X03300Y05600D01*
X00450Y05650D02*
X03300Y05650D01*
X00450Y05700D02*
X03250Y05700D01*
X00450Y05750D02*
X03250Y05750D01*
X00450Y05800D02*
X03200Y05800D01*
X00450Y05850D02*
X03200Y05850D01*
X00450Y05900D02*
X03200Y05900D01*
X00450Y05950D02*
X03200Y05950D01*
X00450Y06000D02*
X03200Y06000D01*
X00450Y06050D02*
X03150Y06050D01*
X00450Y06100D02*
X03100Y06100D01*
X00450Y06150D02*
X03050Y06150D01*
X00450Y06200D02*
X03000Y06200D01*
X00450Y06250D02*
X02950Y06250D01*
X00450Y06300D02*
X02900Y06300D01*
X00450Y06350D02*
X02850Y06350D01*
X00450Y06400D02*
X02850Y06400D01*
X00450Y06450D02*
X02800Y06450D01*
X00450Y06500D02*
X02800Y06500D01*
X00450Y06550D02*
X02750Y06550D01*
X00450Y06600D02*
X02750Y06600D01*
X00450Y06650D02*
X02700Y06650D01*
X00450Y06700D02*
X02700Y06700D01*
X00450Y06750D02*
X02700Y06750D01*
X00450Y06800D02*
X02700Y06800D01*
X00450Y06850D02*
X02700Y06850D01*
X00450Y06900D02*
X02700Y06900D01*
X00450Y06950D02*
X02700Y06950D01*
X00450Y07000D02*
X02700Y07000D01*
X00450Y07050D02*
X02700Y07050D01*
X00450Y07100D02*
X02700Y07100D01*
X00450Y07150D02*
X02700Y07150D01*
X00450Y07200D02*
X02700Y07200D01*
X00450Y07250D02*
X02700Y07250D01*
X00450Y07300D02*
X02700Y07300D01*
X00450Y07350D02*
X02700Y07350D01*
X00450Y07400D02*
X02700Y07400D01*
X00450Y07450D02*
X02700Y07450D01*
X00450Y07500D02*
X02700Y07500D01*
X00450Y07550D02*
X02700Y07550D01*
X00450Y07600D02*
X02700Y07600D01*
X00450Y07650D02*
X02700Y07650D01*
X00450Y07700D02*
X02700Y07700D01*
X00450Y07750D02*
X02700Y07750D01*
X00450Y07800D02*
X02700Y07800D01*
X00450Y07850D02*
X02700Y07850D01*
X00450Y07900D02*
X02700Y07900D01*
X00450Y07950D02*
X02700Y07950D01*
X00450Y08000D02*
X02700Y08000D01*
X00450Y08050D02*
X02700Y08050D01*
X00450Y08100D02*
X02700Y08100D01*
X00450Y08150D02*
X02700Y08150D01*
X00450Y08200D02*
X02700Y08200D01*
X00450Y08250D02*
X02700Y08250D01*
X00450Y08300D02*
X02700Y08300D01*
X00450Y08350D02*
X02700Y08350D01*
X00450Y08400D02*
X02700Y08400D01*
X00450Y08450D02*
X02700Y08450D01*
X00450Y08500D02*
X02700Y08500D01*
X00450Y08550D02*
X02700Y08550D01*
X00450Y08600D02*
X02750Y08600D01*
X00450Y08650D02*
X02750Y08650D01*
X00450Y08700D02*
X02800Y08700D01*
X00450Y08750D02*
X02850Y08750D01*
X00450Y08800D02*
X02900Y08800D01*
X00450Y08850D02*
X02950Y08850D01*
X00450Y08900D02*
X03000Y08900D01*
X00450Y08950D02*
X03050Y08950D01*
X00450Y09000D02*
X03100Y09000D01*
X00450Y09050D02*
X03050Y09050D01*
X00450Y09100D02*
X03000Y09100D01*
X00450Y09150D02*
X02950Y09150D01*
X00450Y09200D02*
X02900Y09200D01*
X00450Y09250D02*
X02850Y09250D01*
X00450Y09300D02*
X02800Y09300D01*
X00450Y09350D02*
X02750Y09350D01*
X01900Y09400D02*
X02700Y09400D01*
X01900Y09450D02*
X02650Y09450D01*
X01900Y09500D02*
X02600Y09500D01*
X08200Y18050D02*
X08200Y17500D01*
X08150Y18050D02*
X08150Y17500D01*
X08100Y18050D02*
X08100Y17500D01*
X08050Y18050D02*
X08050Y17500D01*
X08000Y18050D02*
X08000Y17500D01*
X07950Y18050D02*
X07950Y17500D01*
X07900Y18050D02*
X07900Y17500D01*
X07850Y18050D02*
X07850Y17500D01*
X07800Y18050D02*
X07800Y17500D01*
X07750Y18050D02*
X07750Y17500D01*
X07700Y18050D02*
X07700Y17500D01*
X07650Y18050D02*
X07650Y17500D01*
X07600Y18050D02*
X07600Y17500D01*
X07550Y18050D02*
X07550Y17500D01*
X07500Y18050D02*
X07500Y17500D01*
X07450Y18050D02*
X07450Y17500D01*
X07400Y18050D02*
X07400Y17500D01*
X07350Y18050D02*
X07350Y17500D01*
X07300Y18050D02*
X07300Y17500D01*
X07250Y18050D02*
X07250Y17500D01*
X07200Y18050D02*
X07200Y17500D01*
X07150Y18050D02*
X07150Y17500D01*
X07100Y18050D02*
X07100Y17500D01*
X07050Y18050D02*
X07050Y17500D01*
X07000Y18050D02*
X07000Y17500D01*
X06950Y18050D02*
X06950Y17500D01*
X06900Y18050D02*
X06900Y17500D01*
X06850Y18050D02*
X06850Y17500D01*
X06800Y18050D02*
X06800Y17500D01*
X06750Y18050D02*
X06750Y17500D01*
X06700Y18050D02*
X06700Y17500D01*
X06650Y18050D02*
X06650Y17500D01*
X06600Y18050D02*
X06600Y17500D01*
X06550Y18050D02*
X06550Y17500D01*
X06500Y18050D02*
X06500Y17500D01*
X06450Y18050D02*
X06450Y17500D01*
X06400Y18050D02*
X06400Y17500D01*
X06350Y18050D02*
X06350Y17500D01*
X06300Y18050D02*
X06300Y17500D01*
X06250Y18050D02*
X06250Y17500D01*
X06200Y18050D02*
X06200Y17500D01*
X06150Y18050D02*
X06150Y17500D01*
X06100Y18050D02*
X06100Y17500D01*
X06050Y18050D02*
X06050Y17500D01*
X06000Y18050D02*
X06000Y17500D01*
X05950Y18050D02*
X05950Y17500D01*
X05900Y18050D02*
X05900Y17500D01*
X05850Y18050D02*
X05850Y17500D01*
X05800Y18050D02*
X05800Y17500D01*
X05750Y18050D02*
X05750Y17500D01*
X05700Y18050D02*
X05700Y17500D01*
X05650Y18050D02*
X05650Y17500D01*
X05600Y18050D02*
X05600Y17500D01*
X05550Y18050D02*
X05550Y17500D01*
X05500Y18050D02*
X05500Y17500D01*
X05450Y18050D02*
X05450Y17500D01*
X05400Y18050D02*
X05400Y17500D01*
X05350Y18050D02*
X05350Y17500D01*
X05300Y18050D02*
X05300Y17500D01*
X05250Y18050D02*
X05250Y17500D01*
X05200Y18050D02*
X05200Y17500D01*
X05150Y18050D02*
X05150Y17500D01*
X05100Y18050D02*
X05100Y17500D01*
X05050Y18050D02*
X05050Y17500D01*
X05000Y18050D02*
X05000Y17500D01*
X04950Y18050D02*
X04950Y17500D01*
X04900Y18050D02*
X04900Y17500D01*
X04850Y18050D02*
X04850Y17500D01*
X04800Y18050D02*
X04800Y17500D01*
X04750Y18050D02*
X04750Y17500D01*
X04700Y18050D02*
X04700Y17500D01*
X04650Y18050D02*
X04650Y17500D01*
X04600Y18050D02*
X04600Y17500D01*
X04550Y18050D02*
X04550Y17500D01*
X04500Y18050D02*
X04500Y17500D01*
X04450Y18050D02*
X04450Y17500D01*
X04400Y18050D02*
X04400Y17500D01*
X04350Y18050D02*
X04350Y17500D01*
X04300Y18050D02*
X04300Y17500D01*
X04250Y18050D02*
X04250Y17500D01*
X04200Y18050D02*
X04200Y17500D01*
X04150Y18050D02*
X04150Y17500D01*
X04100Y18050D02*
X04100Y17500D01*
X04050Y18050D02*
X04050Y17500D01*
X04000Y18050D02*
X04000Y17500D01*
X03950Y18050D02*
X03950Y17500D01*
X03900Y18050D02*
X03900Y17500D01*
X03850Y18050D02*
X03850Y17500D01*
X03800Y18050D02*
X03800Y17500D01*
X03750Y18050D02*
X03750Y17500D01*
X03700Y18050D02*
X03700Y17500D01*
X03650Y18050D02*
X03650Y17500D01*
X03600Y18050D02*
X03600Y17500D01*
X03550Y18050D02*
X03550Y17500D01*
X03500Y18050D02*
X03500Y17500D01*
X03450Y18050D02*
X03450Y17500D01*
X03400Y18050D02*
X03400Y17450D01*
X03350Y18050D02*
X03350Y17450D01*
X03300Y18050D02*
X03300Y17400D01*
X03250Y18050D02*
X03250Y17350D01*
X03200Y18050D02*
X03200Y17300D01*
X03150Y18050D02*
X03150Y17250D01*
X03100Y18050D02*
X03100Y17200D01*
X03050Y18050D02*
X03050Y17150D01*
X03000Y18050D02*
X03000Y17100D01*
X02950Y18050D02*
X02950Y17050D01*
X02900Y18050D02*
X02900Y17000D01*
X02850Y18050D02*
X02850Y16950D01*
X02800Y18050D02*
X02800Y16900D01*
X02750Y18050D02*
X02750Y16850D01*
X02700Y18050D02*
X02700Y16800D01*
X02650Y18050D02*
X02650Y16750D01*
X02600Y18050D02*
X02600Y16700D01*
X02550Y18050D02*
X02550Y16650D01*
X02500Y18050D02*
X02500Y16600D01*
X02450Y18050D02*
X02450Y16600D01*
X02400Y18050D02*
X02400Y16600D01*
X02350Y18050D02*
X02350Y16600D01*
X02300Y18050D02*
X02300Y16600D01*
X02250Y18050D02*
X02250Y16600D01*
X02200Y18050D02*
X02200Y16600D01*
X02150Y18050D02*
X02150Y16600D01*
X02100Y18050D02*
X02100Y16600D01*
X02050Y18050D02*
X02050Y16600D01*
X02000Y18050D02*
X02000Y16600D01*
X01950Y18050D02*
X01950Y16600D01*
X01900Y18050D02*
X01900Y16600D01*
X01850Y18050D02*
X01850Y16600D01*
X01800Y18050D02*
X01800Y16600D01*
X01750Y18050D02*
X01750Y15650D01*
X01700Y18050D02*
X01700Y15650D01*
X01650Y18050D02*
X01650Y15650D01*
X01600Y18050D02*
X01600Y15650D01*
X01550Y18050D02*
X01550Y15650D01*
X01500Y18050D02*
X01500Y15650D01*
X01450Y18050D02*
X01450Y15650D01*
X01400Y18050D02*
X01400Y15650D01*
X01350Y18050D02*
X01350Y15650D01*
X01300Y18050D02*
X01300Y15650D01*
X01250Y18050D02*
X01250Y15650D01*
X01200Y18050D02*
X01200Y15650D01*
X01150Y18050D02*
X01150Y15650D01*
X01100Y18050D02*
X01100Y15650D01*
X01050Y18050D02*
X01050Y15650D01*
X01000Y18050D02*
X01000Y15650D01*
X00950Y18050D02*
X00950Y15650D01*
X00900Y18050D02*
X00900Y15650D01*
X00850Y18050D02*
X00850Y15650D01*
X00800Y18050D02*
X00800Y15650D01*
X00750Y18050D02*
X00750Y15650D01*
X00700Y18050D02*
X00700Y15650D01*
X00650Y18050D02*
X00650Y15650D01*
X00600Y18050D02*
X00600Y15650D01*
X00550Y18050D02*
X00550Y15650D01*
X00500Y18050D02*
X00500Y15650D01*
X00450Y18050D02*
X00450Y15650D01*
X00450Y15650D02*
X01750Y15650D01*
X00450Y15700D02*
X01750Y15700D01*
X00450Y15750D02*
X01750Y15750D01*
X00450Y15800D02*
X01750Y15800D01*
X00450Y15850D02*
X01750Y15850D01*
X00450Y15900D02*
X01750Y15900D01*
X00450Y15950D02*
X01750Y15950D01*
X00450Y16000D02*
X01750Y16000D01*
X00450Y16050D02*
X01750Y16050D01*
X00450Y16100D02*
X01750Y16100D01*
X00450Y16150D02*
X01750Y16150D01*
X00450Y16200D02*
X01750Y16200D01*
X00450Y16250D02*
X01750Y16250D01*
X00450Y16300D02*
X01750Y16300D01*
X00450Y16350D02*
X01750Y16350D01*
X00450Y16400D02*
X01750Y16400D01*
X00450Y16450D02*
X01750Y16450D01*
X00450Y16500D02*
X01750Y16500D01*
X00450Y16550D02*
X01750Y16550D01*
X00450Y16600D02*
X02500Y16600D01*
X00450Y16650D02*
X02550Y16650D01*
X00450Y16700D02*
X02600Y16700D01*
X00450Y16750D02*
X02650Y16750D01*
X00450Y16800D02*
X02700Y16800D01*
X00450Y16850D02*
X02750Y16850D01*
X00450Y16900D02*
X02800Y16900D01*
X00450Y16950D02*
X02850Y16950D01*
X00450Y17000D02*
X02900Y17000D01*
X00450Y17050D02*
X02950Y17050D01*
X00450Y17100D02*
X03000Y17100D01*
X00450Y17150D02*
X03050Y17150D01*
X00450Y17200D02*
X03100Y17200D01*
X00450Y17250D02*
X03150Y17250D01*
X00450Y17300D02*
X03200Y17300D01*
X00450Y17350D02*
X03250Y17350D01*
X00450Y17400D02*
X03300Y17400D01*
X00450Y17450D02*
X03400Y17450D01*
X00450Y17500D02*
X08200Y17500D01*
X00450Y17550D02*
X08200Y17550D01*
X00450Y17600D02*
X08200Y17600D01*
X00450Y17650D02*
X08200Y17650D01*
X00450Y17700D02*
X08200Y17700D01*
X00450Y17750D02*
X08200Y17750D01*
X00450Y17800D02*
X08200Y17800D01*
X00450Y17850D02*
X08200Y17850D01*
X00450Y17900D02*
X08200Y17900D01*
X00450Y17950D02*
X08200Y17950D01*
X00450Y18000D02*
X08200Y18000D01*
X00450Y18050D02*
X08200Y18050D01*
X09800Y02350D02*
X09800Y00450D01*
X09750Y02350D02*
X09750Y00450D01*
X09700Y02350D02*
X09700Y00450D01*
X09650Y02350D02*
X09650Y00450D01*
X09600Y02350D02*
X09600Y00450D01*
X09550Y02350D02*
X09550Y00450D01*
X09500Y02350D02*
X09500Y00450D01*
X09450Y02350D02*
X09450Y00450D01*
X09400Y02350D02*
X09400Y00450D01*
X09350Y02350D02*
X09350Y00450D01*
X09300Y02350D02*
X09300Y00450D01*
X09250Y02350D02*
X09250Y00450D01*
X09200Y02350D02*
X09200Y00450D01*
X09150Y02350D02*
X09150Y00450D01*
X09100Y02350D02*
X09100Y00450D01*
X09050Y02350D02*
X09050Y00450D01*
X09000Y02350D02*
X09000Y00450D01*
X08950Y02350D02*
X08950Y00450D01*
X08900Y02350D02*
X08900Y00450D01*
X08850Y02350D02*
X08850Y00450D01*
X08800Y02350D02*
X08800Y00450D01*
X08750Y02350D02*
X08750Y00450D01*
X08700Y02350D02*
X08700Y00450D01*
X08650Y02350D02*
X08650Y00450D01*
X08600Y02350D02*
X08600Y00450D01*
X08550Y02350D02*
X08550Y00450D01*
X08500Y02350D02*
X08500Y00450D01*
X08450Y02350D02*
X08450Y00450D01*
X08400Y02350D02*
X08400Y00450D01*
X08350Y02350D02*
X08350Y00450D01*
X08300Y02350D02*
X08300Y00450D01*
X08250Y02350D02*
X08250Y00450D01*
X08200Y03500D02*
X08200Y00450D01*
X08150Y03500D02*
X08150Y00450D01*
X08100Y03500D02*
X08100Y00450D01*
X08050Y03500D02*
X08050Y00450D01*
X08000Y03500D02*
X08000Y00450D01*
X07950Y03500D02*
X07950Y00450D01*
X07900Y03500D02*
X07900Y00450D01*
X07850Y03500D02*
X07850Y00450D01*
X07800Y03500D02*
X07800Y00450D01*
X07750Y03500D02*
X07750Y00450D01*
X07700Y03500D02*
X07700Y00450D01*
X07650Y03500D02*
X07650Y01900D01*
X07600Y03500D02*
X07600Y01900D01*
X07550Y03500D02*
X07550Y01900D01*
X07500Y03500D02*
X07500Y01900D01*
X07450Y03500D02*
X07450Y01900D01*
X07400Y03500D02*
X07400Y01900D01*
X07350Y02750D02*
X07350Y01900D01*
X07350Y03500D02*
X07350Y03250D01*
X07300Y02650D02*
X07300Y01900D01*
X07300Y03500D02*
X07300Y03350D01*
X07250Y02600D02*
X07250Y01900D01*
X07250Y03500D02*
X07250Y03400D01*
X07200Y02550D02*
X07200Y01900D01*
X07200Y03500D02*
X07200Y03450D01*
X07150Y02500D02*
X07150Y01900D01*
X07100Y02450D02*
X07100Y01900D01*
X07050Y02450D02*
X07050Y01900D01*
X07000Y02400D02*
X07000Y01900D01*
X06950Y02400D02*
X06950Y01900D01*
X06900Y02400D02*
X06900Y01900D01*
X06850Y02400D02*
X06850Y01900D01*
X06800Y02400D02*
X06800Y01900D01*
X06750Y02400D02*
X06750Y01900D01*
X06700Y02400D02*
X06700Y01900D01*
X06650Y02350D02*
X06650Y01900D01*
X06600Y02350D02*
X06600Y01900D01*
X06550Y02300D02*
X06550Y01900D01*
X07700Y00450D02*
X09800Y00450D01*
X07700Y00500D02*
X09800Y00500D01*
X07700Y00550D02*
X09800Y00550D01*
X07700Y00600D02*
X09800Y00600D01*
X07700Y00650D02*
X09800Y00650D01*
X07700Y00700D02*
X09800Y00700D01*
X07700Y00750D02*
X09800Y00750D01*
X07700Y00800D02*
X09800Y00800D01*
X07700Y00850D02*
X09800Y00850D01*
X07700Y00900D02*
X09800Y00900D01*
X07700Y00950D02*
X09800Y00950D01*
X07700Y01000D02*
X09800Y01000D01*
X07700Y01050D02*
X09800Y01050D01*
X07700Y01100D02*
X09800Y01100D01*
X07700Y01150D02*
X09800Y01150D01*
X07700Y01200D02*
X09800Y01200D01*
X07700Y01250D02*
X09800Y01250D01*
X07700Y01300D02*
X09800Y01300D01*
X07700Y01350D02*
X09800Y01350D01*
X07700Y01400D02*
X09800Y01400D01*
X07700Y01450D02*
X09800Y01450D01*
X07700Y01500D02*
X09800Y01500D01*
X07700Y01550D02*
X09800Y01550D01*
X07700Y01600D02*
X09800Y01600D01*
X07700Y01650D02*
X09800Y01650D01*
X07700Y01700D02*
X09800Y01700D01*
X07700Y01750D02*
X09800Y01750D01*
X07700Y01800D02*
X09800Y01800D01*
X07700Y01850D02*
X09800Y01850D01*
X06550Y01900D02*
X09800Y01900D01*
X06550Y01950D02*
X09800Y01950D01*
X06550Y02000D02*
X09800Y02000D01*
X06550Y02050D02*
X09800Y02050D01*
X06550Y02100D02*
X09800Y02100D01*
X06550Y02150D02*
X09800Y02150D01*
X06550Y02200D02*
X09800Y02200D01*
X06550Y02250D02*
X09800Y02250D01*
X06550Y02300D02*
X09800Y02300D01*
X06600Y02350D02*
X09800Y02350D01*
X06700Y02400D02*
X08200Y02400D01*
X07050Y02450D02*
X08200Y02450D01*
X07150Y02500D02*
X08200Y02500D01*
X07200Y02550D02*
X08200Y02550D01*
X07250Y02600D02*
X08200Y02600D01*
X07300Y02650D02*
X08200Y02650D01*
X07350Y02700D02*
X08200Y02700D01*
X07350Y02750D02*
X08200Y02750D01*
X07400Y02800D02*
X08200Y02800D01*
X07400Y02850D02*
X08200Y02850D01*
X07400Y02900D02*
X08200Y02900D01*
X07400Y02950D02*
X08200Y02950D01*
X07400Y03000D02*
X08200Y03000D01*
X07400Y03050D02*
X08200Y03050D01*
X07400Y03100D02*
X08200Y03100D01*
X07400Y03150D02*
X08200Y03150D01*
X07400Y03200D02*
X08200Y03200D01*
X07350Y03250D02*
X08200Y03250D01*
X07350Y03300D02*
X08200Y03300D01*
X07300Y03350D02*
X08200Y03350D01*
X07250Y03400D02*
X08200Y03400D01*
X07200Y03450D02*
X08200Y03450D01*
X07150Y03500D02*
X08200Y03500D01*
M02*
