M48
;DRILL file {PCBNEW (2007-07-09)} date 26/11/2007-16:27:41
;FORMAT={2:4 / absolute / pollici / decimal format}
R,T
VER,1
FMAT,2
INCH,TZ
TCST,OFF
ICI,OFF
ATC,ON
T1C0.032
T2C0.036
%
M47
G05
M72
T1
X4.630Y3.500
X4.630Y3.400
X4.630Y3.300
X4.630Y3.200
X4.630Y3.100
X4.630Y3.000
X4.680Y3.600
X4.580Y3.600
X4.505Y4.200
X4.655Y4.200
X4.680Y3.750
X4.480Y3.750
X4.580Y3.750
X4.480Y3.650
X4.480Y3.550
X4.780Y3.000
X4.780Y3.100
X4.780Y3.200
X4.780Y3.300
X4.780Y3.400
X4.780Y3.500
X4.780Y3.600
X4.780Y3.700
X4.780Y3.800
X4.780Y3.900
X4.780Y4.000
X4.780Y4.100
X4.780Y4.200
X4.780Y2.900
X5.080Y4.200
X5.080Y4.100
X5.080Y4.000
X5.080Y3.900
X5.080Y3.800
X5.080Y3.700
X5.080Y3.600
X5.080Y3.500
X5.080Y3.400
X5.080Y3.300
X5.080Y3.200
X5.080Y3.100
X5.080Y3.000
X5.080Y2.900
T2
X5.310Y4.200
X5.310Y4.100
X5.310Y4.000
X5.310Y3.900
X5.310Y3.800
X5.310Y3.700
X5.310Y3.600
X5.310Y3.500
X5.310Y3.400
X5.310Y3.300
X5.310Y3.200
X5.310Y3.100
X5.310Y3.000
X5.310Y2.900
X5.310Y2.800
X5.310Y2.700
X4.705Y4.400
X4.805Y4.400
X4.905Y4.400
X5.005Y4.400
X5.105Y4.400
X4.480Y3.400
X4.480Y3.300
X4.480Y3.200
X4.480Y3.100
X4.480Y3.000
X4.480Y2.900
T0
M30
