G04 (Genere par PCBNEW (2007-07-09)) le 1/12/2007-15:26:36*
G01*
G70*
G90*
%MOIN*%
G04 Gerber Fmt 3.4, Leading zero omitted, Abs format*
%FSLAX34Y34*%
G04 APERTURE LIST*
%ADD10C,0.015000*%
%ADD11C,0.005000*%
%ADD12C,0.008000*%
%ADD13C,0.002600*%
%ADD14C,0.006000*%
%ADD15C,0.001000*%
%ADD16C,0.003500*%
%ADD17C,0.012000*%
G04 APERTURE END LIST*
G54D10*
X01250Y00000D02*
X01154Y-00478D01*
X01154Y-00478D02*
X00883Y-00883D01*
X00883Y-00883D02*
X00478Y-01154D01*
X00478Y-01154D02*
X00000Y-01250D01*
X00000Y-01250D02*
X-00478Y-01154D01*
X-00478Y-01154D02*
X-00883Y-00883D01*
X-00883Y-00883D02*
X-01154Y-00478D01*
X-01154Y-00478D02*
X-01250Y00000D01*
X-01250Y00000D02*
X-01154Y00478D01*
X-01154Y00478D02*
X-00883Y00883D01*
X-00883Y00883D02*
X-00478Y01154D01*
X-00478Y01154D02*
X00000Y01250D01*
X00000Y01250D02*
X00478Y01154D01*
X00478Y01154D02*
X00883Y00883D01*
X00883Y00883D02*
X01154Y00478D01*
X01154Y00478D02*
X01250Y00000D01*
X-02500Y00000D02*
X02500Y00000D01*
X00000Y02500D02*
X00000Y-02500D01*
X00000Y18500D02*
X10250Y18500D01*
X00000Y18250D02*
X00000Y18500D01*
X00000Y00000D02*
X00000Y18250D01*
X00250Y00000D02*
X00000Y00000D01*
X00500Y00000D02*
X00250Y00000D01*
X10250Y00000D02*
X00500Y00000D01*
X10250Y18500D02*
X10250Y00000D01*
G54D13*
X09230Y02870D02*
X09230Y03130D01*
X09230Y03130D02*
X08970Y03130D01*
X08970Y02870D02*
X08970Y03130D01*
X09230Y02870D02*
X08970Y02870D01*
X09230Y03870D02*
X09230Y04130D01*
X09230Y04130D02*
X08970Y04130D01*
X08970Y03870D02*
X08970Y04130D01*
X09230Y03870D02*
X08970Y03870D01*
X09230Y04871D02*
X09230Y05130D01*
X09230Y05130D02*
X08970Y05130D01*
X08970Y04871D02*
X08970Y05130D01*
X09230Y04871D02*
X08970Y04871D01*
X09230Y05870D02*
X09230Y06130D01*
X09230Y06130D02*
X08970Y06130D01*
X08970Y05870D02*
X08970Y06130D01*
X09230Y05870D02*
X08970Y05870D01*
X09230Y06870D02*
X09230Y07130D01*
X09230Y07130D02*
X08970Y07130D01*
X08970Y06870D02*
X08970Y07130D01*
X09230Y06870D02*
X08970Y06870D01*
X09230Y08870D02*
X09230Y09130D01*
X09230Y09130D02*
X08970Y09130D01*
X08970Y08870D02*
X08970Y09130D01*
X09230Y08870D02*
X08970Y08870D01*
X09230Y07870D02*
X09230Y08130D01*
X09230Y08130D02*
X08970Y08130D01*
X08970Y07870D02*
X08970Y08130D01*
X09230Y07870D02*
X08970Y07870D01*
X09230Y17870D02*
X09230Y18130D01*
X09230Y18130D02*
X08970Y18130D01*
X08970Y17870D02*
X08970Y18130D01*
X09230Y17870D02*
X08970Y17870D01*
X09230Y09870D02*
X09230Y10130D01*
X09230Y10130D02*
X08970Y10130D01*
X08970Y09870D02*
X08970Y10130D01*
X09230Y09870D02*
X08970Y09870D01*
X09230Y10870D02*
X09230Y11130D01*
X09230Y11130D02*
X08970Y11130D01*
X08970Y10870D02*
X08970Y11130D01*
X09230Y10870D02*
X08970Y10870D01*
X09230Y11870D02*
X09230Y12130D01*
X09230Y12130D02*
X08970Y12130D01*
X08970Y11870D02*
X08970Y12130D01*
X09230Y11870D02*
X08970Y11870D01*
X09230Y12870D02*
X09230Y13130D01*
X09230Y13130D02*
X08970Y13130D01*
X08970Y12870D02*
X08970Y13130D01*
X09230Y12870D02*
X08970Y12870D01*
X09230Y13870D02*
X09230Y14130D01*
X09230Y14130D02*
X08970Y14130D01*
X08970Y13870D02*
X08970Y14130D01*
X09230Y13870D02*
X08970Y13870D01*
X09230Y14870D02*
X09230Y15130D01*
X09230Y15130D02*
X08970Y15130D01*
X08970Y14870D02*
X08970Y15130D01*
X09230Y14870D02*
X08970Y14870D01*
X09230Y15870D02*
X09230Y16129D01*
X09230Y16129D02*
X08970Y16129D01*
X08970Y15870D02*
X08970Y16129D01*
X09230Y15870D02*
X08970Y15870D01*
X09230Y16870D02*
X09230Y17130D01*
X09230Y17130D02*
X08970Y17130D01*
X08970Y16870D02*
X08970Y17130D01*
X09230Y16870D02*
X08970Y16870D01*
G54D14*
X08400Y03350D02*
X08450Y03400D01*
X08450Y03400D02*
X08550Y03500D01*
X08550Y03500D02*
X08450Y03601D01*
X08450Y03601D02*
X08400Y03650D01*
X09950Y03400D02*
X10000Y03400D01*
X10000Y03400D02*
X10000Y02600D01*
X09950Y03601D02*
X09950Y03400D01*
X09950Y03601D02*
X10000Y03601D01*
X08100Y02600D02*
X08400Y02600D01*
X08400Y02600D02*
X09700Y02600D01*
X09800Y02600D02*
X10000Y02600D01*
X09800Y02600D02*
X09800Y02750D01*
X09800Y03250D02*
X09700Y03250D01*
X09800Y02750D02*
X09700Y02750D01*
X09600Y02750D02*
X09600Y03250D01*
X09700Y03250D02*
X09600Y03250D01*
X09800Y03750D02*
X09700Y03750D01*
X09700Y03750D02*
X09600Y03750D01*
X09700Y03250D02*
X09700Y03400D01*
X09700Y03400D02*
X09700Y03601D01*
X09700Y03601D02*
X09700Y03750D01*
X09700Y02750D02*
X09700Y02600D01*
X09700Y02750D02*
X09600Y02750D01*
X09700Y02600D02*
X09800Y02600D01*
X08100Y02600D02*
X08100Y02900D01*
X08100Y02900D02*
X08050Y02900D01*
X08100Y03100D02*
X08050Y03100D01*
X08050Y03100D02*
X08050Y02900D01*
X08100Y03900D02*
X08050Y03900D01*
X08100Y04100D02*
X08050Y04100D01*
X08150Y03601D02*
X08100Y03601D01*
X08150Y03400D02*
X08100Y03400D01*
X09950Y04600D02*
X09950Y04400D01*
X09950Y04600D02*
X10000Y04600D01*
X10000Y05400D02*
X10000Y04600D01*
X08400Y05400D02*
X09700Y05400D01*
X09800Y05250D02*
X09700Y05250D01*
X09600Y04750D02*
X09600Y05250D01*
X09800Y04250D02*
X09700Y04250D01*
X09700Y04250D02*
X09600Y04250D01*
X09800Y04750D02*
X09700Y04750D01*
X09700Y04750D02*
X09600Y04750D01*
X09700Y04250D02*
X09700Y04400D01*
X09700Y04400D02*
X09700Y04600D01*
X09700Y04600D02*
X09700Y04750D01*
X09700Y05250D02*
X09700Y05400D01*
X09700Y05250D02*
X09600Y05250D01*
X08100Y04900D02*
X08050Y04900D01*
X08100Y05100D02*
X08100Y05400D01*
X08100Y05100D02*
X08050Y05100D01*
X08050Y05100D02*
X08050Y04900D01*
X08150Y04600D02*
X08100Y04600D01*
X08100Y04600D02*
X08100Y04900D01*
X08150Y04600D02*
X08150Y04400D01*
X08150Y04400D02*
X08100Y04400D01*
X08100Y04100D02*
X08100Y04400D01*
X08050Y04100D02*
X08050Y03900D01*
X08100Y03601D02*
X08100Y03900D01*
X08150Y03400D02*
X08150Y03601D01*
X08100Y03400D02*
X08100Y03100D01*
X08400Y03350D02*
X08400Y02600D01*
X08400Y03650D02*
X08400Y04400D01*
X08400Y04400D02*
X08400Y04600D01*
X08450Y03601D02*
X09700Y03601D01*
X08450Y03400D02*
X09700Y03400D01*
X08400Y04400D02*
X09700Y04400D01*
X08400Y04600D02*
X09700Y04600D01*
X09600Y03750D02*
X09600Y04250D01*
X09800Y03750D02*
X09800Y03250D01*
X10000Y03601D02*
X10000Y04400D01*
X09800Y04250D02*
X09800Y04750D01*
X09950Y04400D02*
X10000Y04400D01*
X09950Y06400D02*
X10000Y06400D01*
X10000Y06400D02*
X10000Y05600D01*
X09950Y06600D02*
X09950Y06400D01*
X09950Y06600D02*
X10000Y06600D01*
X08400Y05600D02*
X09700Y05600D01*
X09800Y06250D02*
X09700Y06250D01*
X09800Y05750D02*
X09700Y05750D01*
X09600Y05750D02*
X09600Y06250D01*
X09700Y06250D02*
X09600Y06250D01*
X09800Y06750D02*
X09700Y06750D01*
X09700Y06750D02*
X09600Y06750D01*
X09700Y06250D02*
X09700Y06400D01*
X09700Y06400D02*
X09700Y06600D01*
X09700Y06600D02*
X09700Y06750D01*
X09700Y05750D02*
X09700Y05600D01*
X09700Y05750D02*
X09600Y05750D01*
X08100Y05600D02*
X08100Y05900D01*
X08100Y05900D02*
X08050Y05900D01*
X08100Y06100D02*
X08050Y06100D01*
X08050Y06100D02*
X08050Y05900D01*
X08100Y06900D02*
X08050Y06900D01*
X08100Y07100D02*
X08050Y07100D01*
X08150Y06600D02*
X08100Y06600D01*
X08150Y06400D02*
X08100Y06400D01*
X08550Y17500D02*
X08450Y17600D01*
X08450Y17600D02*
X08400Y17650D01*
X09950Y17600D02*
X09950Y17399D01*
X09950Y17600D02*
X10000Y17600D01*
X10000Y18400D02*
X10000Y17600D01*
X08400Y17650D02*
X08400Y18400D01*
X08400Y18400D02*
X08100Y18400D01*
X09800Y18400D02*
X10000Y18400D01*
X09800Y18400D02*
X09800Y18250D01*
X08400Y18400D02*
X09700Y18400D01*
X09800Y18250D02*
X09700Y18250D01*
X09600Y17750D02*
X09600Y18250D01*
X09800Y17250D02*
X09700Y17250D01*
X09700Y17250D02*
X09600Y17250D01*
X09800Y17750D02*
X09700Y17750D01*
X09700Y17750D02*
X09600Y17750D01*
X09700Y17250D02*
X09700Y17399D01*
X09700Y17399D02*
X09700Y17600D01*
X09700Y17600D02*
X09700Y17750D01*
X09700Y18250D02*
X09700Y18400D01*
X09700Y18250D02*
X09600Y18250D01*
X09700Y18400D02*
X09800Y18400D01*
X08100Y17900D02*
X08050Y17900D01*
X08100Y18100D02*
X08100Y18400D01*
X08100Y18100D02*
X08050Y18100D01*
X08050Y18100D02*
X08050Y17900D01*
X08150Y17600D02*
X08100Y17600D01*
X08100Y17600D02*
X08100Y17900D01*
X08150Y17600D02*
X08150Y17399D01*
X08150Y17399D02*
X08100Y17399D01*
X08400Y17350D02*
X08450Y17399D01*
X08450Y17399D02*
X08550Y17500D01*
X08050Y07100D02*
X08050Y06900D01*
X08100Y06600D02*
X08100Y06900D01*
X08150Y06400D02*
X08150Y06600D01*
X08100Y06400D02*
X08100Y06100D01*
X08400Y05600D02*
X08400Y06400D01*
X08400Y06600D02*
X09700Y06600D01*
X08400Y06400D02*
X09700Y06400D01*
X08450Y17399D02*
X09700Y17399D01*
X08450Y17600D02*
X09700Y17600D01*
X09800Y06750D02*
X09800Y06250D01*
X09800Y17250D02*
X09800Y17750D01*
X09950Y17399D02*
X10000Y17399D01*
X08400Y04600D02*
X08400Y05400D01*
X08400Y06400D02*
X08400Y06600D01*
X09950Y05400D02*
X10000Y05400D01*
X09950Y05600D02*
X10000Y05600D01*
X09950Y05600D02*
X09950Y05400D01*
X09800Y05750D02*
X09800Y05250D01*
X09700Y05600D02*
X09700Y05400D01*
X08400Y05600D02*
X08400Y05400D01*
X08150Y05600D02*
X08150Y05400D01*
X08100Y05400D02*
X08150Y05400D01*
X08100Y05600D02*
X08150Y05600D01*
X09950Y07400D02*
X10000Y07400D01*
X10000Y07400D02*
X10000Y06600D01*
X09950Y07600D02*
X09950Y07400D01*
X09950Y07600D02*
X10000Y07600D01*
X09800Y07250D02*
X09700Y07250D01*
X09600Y06750D02*
X09600Y07250D01*
X09700Y07250D02*
X09600Y07250D01*
X09800Y07750D02*
X09700Y07750D01*
X09700Y07750D02*
X09600Y07750D01*
X09700Y07250D02*
X09700Y07400D01*
X09700Y07400D02*
X09700Y07600D01*
X09700Y07600D02*
X09700Y07750D01*
X08100Y07900D02*
X08050Y07900D01*
X08100Y08100D02*
X08050Y08100D01*
X08150Y07600D02*
X08100Y07600D01*
X08150Y07400D02*
X08100Y07400D01*
X08050Y08100D02*
X08050Y07900D01*
X08100Y07600D02*
X08100Y07900D01*
X08150Y07400D02*
X08150Y07600D01*
X08100Y07400D02*
X08100Y07100D01*
X08400Y06600D02*
X08400Y07400D01*
X08400Y07600D02*
X09700Y07600D01*
X08400Y07400D02*
X09700Y07400D01*
X09800Y07750D02*
X09800Y07250D01*
X08400Y07400D02*
X08400Y07600D01*
X09950Y08400D02*
X10000Y08400D01*
X10000Y08400D02*
X10000Y07600D01*
X09950Y08600D02*
X09950Y08400D01*
X09950Y08600D02*
X10000Y08600D01*
X09800Y08250D02*
X09700Y08250D01*
X09600Y07750D02*
X09600Y08250D01*
X09700Y08250D02*
X09600Y08250D01*
X09800Y08750D02*
X09700Y08750D01*
X09700Y08750D02*
X09600Y08750D01*
X09700Y08250D02*
X09700Y08400D01*
X09700Y08400D02*
X09700Y08600D01*
X09700Y08600D02*
X09700Y08750D01*
X08100Y08900D02*
X08050Y08900D01*
X08100Y09100D02*
X08050Y09100D01*
X08150Y08600D02*
X08100Y08600D01*
X08150Y08400D02*
X08100Y08400D01*
X08050Y09100D02*
X08050Y08900D01*
X08100Y08600D02*
X08100Y08900D01*
X08150Y08400D02*
X08150Y08600D01*
X08100Y08400D02*
X08100Y08100D01*
X08400Y07600D02*
X08400Y08400D01*
X08400Y08600D02*
X09700Y08600D01*
X08400Y08400D02*
X09700Y08400D01*
X09800Y08750D02*
X09800Y08250D01*
X08400Y08400D02*
X08400Y08600D01*
X09950Y09400D02*
X10000Y09400D01*
X10000Y09400D02*
X10000Y08600D01*
X09950Y09600D02*
X09950Y09400D01*
X09950Y09600D02*
X10000Y09600D01*
X09800Y09250D02*
X09700Y09250D01*
X09600Y08750D02*
X09600Y09250D01*
X09700Y09250D02*
X09600Y09250D01*
X09800Y09750D02*
X09700Y09750D01*
X09700Y09750D02*
X09600Y09750D01*
X09700Y09250D02*
X09700Y09400D01*
X09700Y09400D02*
X09700Y09600D01*
X09700Y09600D02*
X09700Y09750D01*
X08100Y09900D02*
X08050Y09900D01*
X08100Y10100D02*
X08050Y10100D01*
X08150Y09600D02*
X08100Y09600D01*
X08150Y09400D02*
X08100Y09400D01*
X08050Y10100D02*
X08050Y09900D01*
X08100Y09600D02*
X08100Y09900D01*
X08150Y09400D02*
X08150Y09600D01*
X08100Y09400D02*
X08100Y09100D01*
X08400Y08600D02*
X08400Y09400D01*
X08400Y09600D02*
X09700Y09600D01*
X08400Y09400D02*
X09700Y09400D01*
X09800Y09750D02*
X09800Y09250D01*
X08400Y09400D02*
X08400Y09600D01*
X09950Y10400D02*
X10000Y10400D01*
X10000Y10400D02*
X10000Y09600D01*
X09950Y10600D02*
X09950Y10400D01*
X09950Y10600D02*
X10000Y10600D01*
X09800Y10250D02*
X09700Y10250D01*
X09600Y09750D02*
X09600Y10250D01*
X09700Y10250D02*
X09600Y10250D01*
X09800Y10750D02*
X09700Y10750D01*
X09700Y10750D02*
X09600Y10750D01*
X09700Y10250D02*
X09700Y10400D01*
X09700Y10400D02*
X09700Y10600D01*
X09700Y10600D02*
X09700Y10750D01*
X08100Y10900D02*
X08050Y10900D01*
X08100Y11100D02*
X08050Y11100D01*
X08150Y10600D02*
X08100Y10600D01*
X08150Y10400D02*
X08100Y10400D01*
X08050Y11100D02*
X08050Y10900D01*
X08100Y10600D02*
X08100Y10900D01*
X08150Y10400D02*
X08150Y10600D01*
X08100Y10400D02*
X08100Y10100D01*
X08400Y09600D02*
X08400Y10400D01*
X08400Y10600D02*
X09700Y10600D01*
X08400Y10400D02*
X09700Y10400D01*
X09800Y10750D02*
X09800Y10250D01*
X08400Y10400D02*
X08400Y10600D01*
X09950Y11400D02*
X10000Y11400D01*
X10000Y11400D02*
X10000Y10600D01*
X09950Y11600D02*
X09950Y11400D01*
X09950Y11600D02*
X10000Y11600D01*
X09800Y11250D02*
X09700Y11250D01*
X09600Y10750D02*
X09600Y11250D01*
X09700Y11250D02*
X09600Y11250D01*
X09800Y11750D02*
X09700Y11750D01*
X09700Y11750D02*
X09600Y11750D01*
X09700Y11250D02*
X09700Y11400D01*
X09700Y11400D02*
X09700Y11600D01*
X09700Y11600D02*
X09700Y11750D01*
X08100Y11900D02*
X08050Y11900D01*
X08100Y12100D02*
X08050Y12100D01*
X08150Y11600D02*
X08100Y11600D01*
X08150Y11400D02*
X08100Y11400D01*
X08050Y12100D02*
X08050Y11900D01*
X08100Y11600D02*
X08100Y11900D01*
X08150Y11400D02*
X08150Y11600D01*
X08100Y11400D02*
X08100Y11100D01*
X08400Y10600D02*
X08400Y11400D01*
X08400Y11600D02*
X09700Y11600D01*
X08400Y11400D02*
X09700Y11400D01*
X09800Y11750D02*
X09800Y11250D01*
X08400Y11400D02*
X08400Y11600D01*
X09950Y12400D02*
X10000Y12400D01*
X10000Y12400D02*
X10000Y11600D01*
X09950Y12600D02*
X09950Y12400D01*
X09950Y12600D02*
X10000Y12600D01*
X09800Y12250D02*
X09700Y12250D01*
X09600Y11750D02*
X09600Y12250D01*
X09700Y12250D02*
X09600Y12250D01*
X09800Y12750D02*
X09700Y12750D01*
X09700Y12750D02*
X09600Y12750D01*
X09700Y12250D02*
X09700Y12400D01*
X09700Y12400D02*
X09700Y12600D01*
X09700Y12600D02*
X09700Y12750D01*
X08100Y12900D02*
X08050Y12900D01*
X08100Y13100D02*
X08050Y13100D01*
X08150Y12600D02*
X08100Y12600D01*
X08150Y12400D02*
X08100Y12400D01*
X08050Y13100D02*
X08050Y12900D01*
X08100Y12600D02*
X08100Y12900D01*
X08150Y12400D02*
X08150Y12600D01*
X08100Y12400D02*
X08100Y12100D01*
X08400Y11600D02*
X08400Y12400D01*
X08400Y12600D02*
X09700Y12600D01*
X08400Y12400D02*
X09700Y12400D01*
X09800Y12750D02*
X09800Y12250D01*
X08400Y12400D02*
X08400Y12600D01*
X09950Y13400D02*
X10000Y13400D01*
X10000Y13400D02*
X10000Y12600D01*
X09950Y13600D02*
X09950Y13400D01*
X09950Y13600D02*
X10000Y13600D01*
X09800Y13250D02*
X09700Y13250D01*
X09600Y12750D02*
X09600Y13250D01*
X09700Y13250D02*
X09600Y13250D01*
X09800Y13750D02*
X09700Y13750D01*
X09700Y13750D02*
X09600Y13750D01*
X09700Y13250D02*
X09700Y13400D01*
X09700Y13400D02*
X09700Y13600D01*
X09700Y13600D02*
X09700Y13750D01*
X08100Y13900D02*
X08050Y13900D01*
X08100Y14100D02*
X08050Y14100D01*
X08150Y13600D02*
X08100Y13600D01*
X08150Y13400D02*
X08100Y13400D01*
X08050Y14100D02*
X08050Y13900D01*
X08100Y13600D02*
X08100Y13900D01*
X08150Y13400D02*
X08150Y13600D01*
X08100Y13400D02*
X08100Y13100D01*
X08400Y12600D02*
X08400Y13400D01*
X08400Y13600D02*
X09700Y13600D01*
X08400Y13400D02*
X09700Y13400D01*
X09800Y13750D02*
X09800Y13250D01*
X08400Y13400D02*
X08400Y13600D01*
X09950Y14400D02*
X10000Y14400D01*
X10000Y14400D02*
X10000Y13600D01*
X09950Y14600D02*
X09950Y14400D01*
X09950Y14600D02*
X10000Y14600D01*
X09800Y14250D02*
X09700Y14250D01*
X09600Y13750D02*
X09600Y14250D01*
X09700Y14250D02*
X09600Y14250D01*
X09800Y14750D02*
X09700Y14750D01*
X09700Y14750D02*
X09600Y14750D01*
X09700Y14250D02*
X09700Y14400D01*
X09700Y14400D02*
X09700Y14600D01*
X09700Y14600D02*
X09700Y14750D01*
X08100Y14900D02*
X08050Y14900D01*
X08100Y15100D02*
X08050Y15100D01*
X08150Y14600D02*
X08100Y14600D01*
X08150Y14400D02*
X08100Y14400D01*
X08050Y15100D02*
X08050Y14900D01*
X08100Y14600D02*
X08100Y14900D01*
X08150Y14400D02*
X08150Y14600D01*
X08100Y14400D02*
X08100Y14100D01*
X08400Y13600D02*
X08400Y14400D01*
X08400Y14600D02*
X09700Y14600D01*
X08400Y14400D02*
X09700Y14400D01*
X09800Y14750D02*
X09800Y14250D01*
X08400Y14400D02*
X08400Y14600D01*
X09950Y15400D02*
X10000Y15400D01*
X10000Y15400D02*
X10000Y14600D01*
X09950Y15600D02*
X09950Y15400D01*
X09950Y15600D02*
X10000Y15600D01*
X09800Y15250D02*
X09700Y15250D01*
X09600Y14750D02*
X09600Y15250D01*
X09700Y15250D02*
X09600Y15250D01*
X09800Y15750D02*
X09700Y15750D01*
X09700Y15750D02*
X09600Y15750D01*
X09700Y15250D02*
X09700Y15400D01*
X09700Y15400D02*
X09700Y15600D01*
X09700Y15600D02*
X09700Y15750D01*
X08100Y15900D02*
X08050Y15900D01*
X08100Y16100D02*
X08050Y16100D01*
X08150Y15600D02*
X08100Y15600D01*
X08150Y15400D02*
X08100Y15400D01*
X08050Y16100D02*
X08050Y15900D01*
X08100Y15600D02*
X08100Y15900D01*
X08150Y15400D02*
X08150Y15600D01*
X08100Y15400D02*
X08100Y15100D01*
X08400Y14600D02*
X08400Y15400D01*
X08400Y15600D02*
X09700Y15600D01*
X08400Y15400D02*
X09700Y15400D01*
X09800Y15750D02*
X09800Y15250D01*
X08400Y15400D02*
X08400Y15600D01*
X09950Y16400D02*
X10000Y16400D01*
X10000Y16400D02*
X10000Y15600D01*
X09950Y16600D02*
X09950Y16400D01*
X09950Y16600D02*
X10000Y16600D01*
X09800Y16250D02*
X09700Y16250D01*
X09600Y15750D02*
X09600Y16250D01*
X09700Y16250D02*
X09600Y16250D01*
X09800Y16750D02*
X09700Y16750D01*
X09700Y16750D02*
X09600Y16750D01*
X09700Y16250D02*
X09700Y16400D01*
X09700Y16400D02*
X09700Y16600D01*
X09700Y16600D02*
X09700Y16750D01*
X08100Y16900D02*
X08050Y16900D01*
X08100Y17100D02*
X08050Y17100D01*
X08150Y16600D02*
X08100Y16600D01*
X08150Y16400D02*
X08100Y16400D01*
X08050Y17100D02*
X08050Y16900D01*
X08100Y16600D02*
X08100Y16900D01*
X08150Y16400D02*
X08150Y16600D01*
X08100Y16400D02*
X08100Y16100D01*
X08400Y15600D02*
X08400Y16400D01*
X08400Y16600D02*
X09700Y16600D01*
X08400Y16400D02*
X09700Y16400D01*
X09800Y16750D02*
X09800Y16250D01*
X08400Y16400D02*
X08400Y16600D01*
X08100Y17100D02*
X08100Y17399D01*
X08400Y16600D02*
X08400Y17350D01*
X09600Y16750D02*
X09600Y17250D01*
X10000Y17399D02*
X10000Y16600D01*
G54D13*
X02920Y00870D02*
X03180Y00870D01*
X03180Y00870D02*
X03180Y01130D01*
X02920Y01130D02*
X03180Y01130D01*
X02920Y00870D02*
X02920Y01130D01*
X03920Y00870D02*
X04181Y00870D01*
X04181Y00870D02*
X04181Y01130D01*
X03920Y01130D02*
X04181Y01130D01*
X03920Y00870D02*
X03920Y01130D01*
X04920Y00870D02*
X05180Y00870D01*
X05180Y00870D02*
X05180Y01130D01*
X04920Y01130D02*
X05180Y01130D01*
X04920Y00870D02*
X04920Y01130D01*
X05919Y00870D02*
X06180Y00870D01*
X06180Y00870D02*
X06180Y01130D01*
X05919Y01130D02*
X06180Y01130D01*
X05919Y00870D02*
X05919Y01130D01*
X06920Y00870D02*
X07180Y00870D01*
X07180Y00870D02*
X07180Y01130D01*
X06920Y01130D02*
X07180Y01130D01*
X06920Y00870D02*
X06920Y01130D01*
G54D14*
X03400Y01700D02*
X03450Y01650D01*
X03450Y01650D02*
X03550Y01550D01*
X03550Y01550D02*
X03650Y01650D01*
X03650Y01650D02*
X03700Y01700D01*
X03450Y00150D02*
X03450Y00100D01*
X03450Y00100D02*
X02650Y00100D01*
X03650Y00150D02*
X03450Y00150D01*
X03650Y00150D02*
X03650Y00100D01*
X02650Y02000D02*
X02650Y01700D01*
X02650Y01700D02*
X02650Y00400D01*
X02650Y00300D02*
X02650Y00100D01*
X02650Y00300D02*
X02800Y00300D01*
X03300Y00300D02*
X03300Y00400D01*
X02800Y00300D02*
X02800Y00400D01*
X02800Y00500D02*
X03300Y00500D01*
X03300Y00400D02*
X03300Y00500D01*
X03800Y00300D02*
X03800Y00400D01*
X03800Y00400D02*
X03800Y00500D01*
X03300Y00400D02*
X03450Y00400D01*
X03450Y00400D02*
X03650Y00400D01*
X03650Y00400D02*
X03800Y00400D01*
X02800Y00400D02*
X02650Y00400D01*
X02800Y00400D02*
X02800Y00500D01*
X02650Y00400D02*
X02650Y00300D01*
X02650Y02000D02*
X02950Y02000D01*
X02950Y02000D02*
X02950Y02050D01*
X03150Y02000D02*
X03150Y02050D01*
X03150Y02050D02*
X02950Y02050D01*
X03950Y02000D02*
X03950Y02050D01*
X04150Y02000D02*
X04150Y02050D01*
X03650Y01950D02*
X03650Y02000D01*
X03450Y01950D02*
X03450Y02000D01*
X04650Y00150D02*
X04450Y00150D01*
X04650Y00150D02*
X04650Y00100D01*
X05450Y00100D02*
X04650Y00100D01*
X05450Y01700D02*
X05450Y00400D01*
X05300Y00300D02*
X05300Y00400D01*
X04800Y00500D02*
X05300Y00500D01*
X04300Y00300D02*
X04300Y00400D01*
X04300Y00400D02*
X04300Y00500D01*
X04800Y00300D02*
X04800Y00400D01*
X04800Y00400D02*
X04800Y00500D01*
X04300Y00400D02*
X04450Y00400D01*
X04450Y00400D02*
X04650Y00400D01*
X04650Y00400D02*
X04800Y00400D01*
X05300Y00400D02*
X05450Y00400D01*
X05300Y00400D02*
X05300Y00500D01*
X04950Y02000D02*
X04950Y02050D01*
X05150Y02000D02*
X05450Y02000D01*
X05150Y02000D02*
X05150Y02050D01*
X05150Y02050D02*
X04950Y02050D01*
X04650Y01950D02*
X04650Y02000D01*
X04650Y02000D02*
X04950Y02000D01*
X04650Y01950D02*
X04450Y01950D01*
X04450Y01950D02*
X04450Y02000D01*
X04150Y02000D02*
X04450Y02000D01*
X04150Y02050D02*
X03950Y02050D01*
X03650Y02000D02*
X03950Y02000D01*
X03450Y01950D02*
X03650Y01950D01*
X03450Y02000D02*
X03150Y02000D01*
X03400Y01700D02*
X02650Y01700D01*
X03700Y01700D02*
X04450Y01700D01*
X04450Y01700D02*
X04650Y01700D01*
X03650Y01650D02*
X03650Y00400D01*
X03450Y01650D02*
X03450Y00400D01*
X04450Y01700D02*
X04450Y00400D01*
X04650Y01700D02*
X04650Y00400D01*
X03800Y00500D02*
X04300Y00500D01*
X03800Y00300D02*
X03300Y00300D01*
X03650Y00100D02*
X04450Y00100D01*
X04300Y00300D02*
X04800Y00300D01*
X04450Y00150D02*
X04450Y00100D01*
X05650Y01700D02*
X05650Y00400D01*
X05800Y00300D02*
X05800Y00400D01*
X05800Y00400D02*
X05650Y00400D01*
X05800Y00400D02*
X05800Y00500D01*
X05950Y02000D02*
X05950Y02050D01*
X06150Y02000D02*
X06150Y02050D01*
X06550Y01550D02*
X06650Y01650D01*
X06650Y01650D02*
X06700Y01700D01*
X06650Y00150D02*
X06450Y00150D01*
X06650Y00150D02*
X06650Y00100D01*
X07450Y00100D02*
X06650Y00100D01*
X06700Y01700D02*
X07450Y01700D01*
X07450Y01700D02*
X07450Y02000D01*
X07450Y00300D02*
X07450Y00100D01*
X07450Y00300D02*
X07300Y00300D01*
X07450Y01700D02*
X07450Y00400D01*
X07300Y00300D02*
X07300Y00400D01*
X06800Y00500D02*
X07300Y00500D01*
X06300Y00300D02*
X06300Y00400D01*
X06300Y00400D02*
X06300Y00500D01*
X06800Y00300D02*
X06800Y00400D01*
X06800Y00400D02*
X06800Y00500D01*
X06300Y00400D02*
X06450Y00400D01*
X06450Y00400D02*
X06650Y00400D01*
X06650Y00400D02*
X06800Y00400D01*
X07300Y00400D02*
X07450Y00400D01*
X07300Y00400D02*
X07300Y00500D01*
X07450Y00400D02*
X07450Y00300D01*
X06950Y02000D02*
X06950Y02050D01*
X07150Y02000D02*
X07450Y02000D01*
X07150Y02000D02*
X07150Y02050D01*
X07150Y02050D02*
X06950Y02050D01*
X06650Y01950D02*
X06650Y02000D01*
X06650Y02000D02*
X06950Y02000D01*
X06650Y01950D02*
X06450Y01950D01*
X06450Y01950D02*
X06450Y02000D01*
X06400Y01700D02*
X06450Y01650D01*
X06450Y01650D02*
X06550Y01550D01*
X06150Y02000D02*
X06450Y02000D01*
X06150Y02050D02*
X05950Y02050D01*
X05650Y02000D02*
X05950Y02000D01*
X06450Y01650D02*
X06450Y00400D01*
X06650Y01650D02*
X06650Y00400D01*
X05650Y00100D02*
X06450Y00100D01*
X06300Y00300D02*
X06800Y00300D01*
X06450Y00150D02*
X06450Y00100D01*
X04650Y01700D02*
X05450Y01700D01*
X05650Y01700D02*
X06400Y01700D01*
X05450Y00150D02*
X05450Y00100D01*
X05650Y00150D02*
X05650Y00100D01*
X05650Y00150D02*
X05450Y00150D01*
X05800Y00300D02*
X05300Y00300D01*
X05650Y00400D02*
X05450Y00400D01*
X05650Y01700D02*
X05450Y01700D01*
X05650Y01950D02*
X05450Y01950D01*
X05450Y02000D02*
X05450Y01950D01*
X05650Y02000D02*
X05650Y01950D01*
X05800Y00500D02*
X06300Y00500D01*
G54D13*
X00870Y15130D02*
X00870Y14870D01*
X00870Y14870D02*
X01130Y14870D01*
X01130Y15130D02*
X01130Y14870D01*
X00870Y15130D02*
X01130Y15130D01*
X00870Y14130D02*
X00870Y13870D01*
X00870Y13870D02*
X01130Y13870D01*
X01130Y14130D02*
X01130Y13870D01*
X00870Y14130D02*
X01130Y14130D01*
X00870Y13130D02*
X00870Y12870D01*
X00870Y12870D02*
X01130Y12870D01*
X01130Y13130D02*
X01130Y12870D01*
X00870Y13130D02*
X01130Y13130D01*
X00870Y12130D02*
X00870Y11870D01*
X00870Y11870D02*
X01130Y11870D01*
X01130Y12130D02*
X01130Y11870D01*
X00870Y12130D02*
X01130Y12130D01*
X00870Y11130D02*
X00870Y10870D01*
X00870Y10870D02*
X01130Y10870D01*
X01130Y11130D02*
X01130Y10870D01*
X00870Y11130D02*
X01130Y11130D01*
X00870Y10130D02*
X00870Y09870D01*
X00870Y09870D02*
X01130Y09870D01*
X01130Y10130D02*
X01130Y09870D01*
X00870Y10130D02*
X01130Y10130D01*
G54D14*
X01700Y14650D02*
X01650Y14600D01*
X01650Y14600D02*
X01550Y14500D01*
X01550Y14500D02*
X01650Y14400D01*
X01650Y14400D02*
X01700Y14350D01*
X00150Y14600D02*
X00100Y14600D01*
X00100Y14600D02*
X00100Y15400D01*
X00150Y14400D02*
X00150Y14600D01*
X00150Y14400D02*
X00100Y14400D01*
X02000Y15400D02*
X01700Y15400D01*
X01700Y15400D02*
X00400Y15400D01*
X00300Y15400D02*
X00100Y15400D01*
X00300Y15400D02*
X00300Y15250D01*
X00300Y14750D02*
X00400Y14750D01*
X00300Y15250D02*
X00400Y15250D01*
X00500Y15250D02*
X00500Y14750D01*
X00400Y14750D02*
X00500Y14750D01*
X00300Y14250D02*
X00400Y14250D01*
X00400Y14250D02*
X00500Y14250D01*
X00400Y14750D02*
X00400Y14600D01*
X00400Y14600D02*
X00400Y14400D01*
X00400Y14400D02*
X00400Y14250D01*
X00400Y15250D02*
X00400Y15400D01*
X00400Y15250D02*
X00500Y15250D01*
X00400Y15400D02*
X00300Y15400D01*
X02000Y15400D02*
X02000Y15100D01*
X02000Y15100D02*
X02050Y15100D01*
X02000Y14900D02*
X02050Y14900D01*
X02050Y14900D02*
X02050Y15100D01*
X02000Y14100D02*
X02050Y14100D01*
X02000Y13900D02*
X02050Y13900D01*
X01950Y14400D02*
X02000Y14400D01*
X01950Y14600D02*
X02000Y14600D01*
X00150Y13400D02*
X00150Y13600D01*
X00150Y13400D02*
X00100Y13400D01*
X00100Y12600D02*
X00100Y13400D01*
X01700Y12600D02*
X00400Y12600D01*
X00300Y12750D02*
X00400Y12750D01*
X00500Y13250D02*
X00500Y12750D01*
X00300Y13750D02*
X00400Y13750D01*
X00400Y13750D02*
X00500Y13750D01*
X00300Y13250D02*
X00400Y13250D01*
X00400Y13250D02*
X00500Y13250D01*
X00400Y13750D02*
X00400Y13600D01*
X00400Y13600D02*
X00400Y13400D01*
X00400Y13400D02*
X00400Y13250D01*
X00400Y12750D02*
X00400Y12600D01*
X00400Y12750D02*
X00500Y12750D01*
X02000Y13100D02*
X02050Y13100D01*
X02000Y12900D02*
X02000Y12600D01*
X02000Y12900D02*
X02050Y12900D01*
X02050Y12900D02*
X02050Y13100D01*
X01950Y13400D02*
X02000Y13400D01*
X02000Y13400D02*
X02000Y13100D01*
X01950Y13400D02*
X01950Y13600D01*
X01950Y13600D02*
X02000Y13600D01*
X02000Y13900D02*
X02000Y13600D01*
X02050Y13900D02*
X02050Y14100D01*
X02000Y14400D02*
X02000Y14100D01*
X01950Y14600D02*
X01950Y14400D01*
X02000Y14600D02*
X02000Y14900D01*
X01700Y14650D02*
X01700Y15400D01*
X01700Y14350D02*
X01700Y13600D01*
X01700Y13600D02*
X01700Y13400D01*
X01650Y14400D02*
X00400Y14400D01*
X01650Y14600D02*
X00400Y14600D01*
X01700Y13600D02*
X00400Y13600D01*
X01700Y13400D02*
X00400Y13400D01*
X00500Y14250D02*
X00500Y13750D01*
X00300Y14250D02*
X00300Y14750D01*
X00100Y14400D02*
X00100Y13600D01*
X00300Y13750D02*
X00300Y13250D01*
X00150Y13600D02*
X00100Y13600D01*
X00150Y11600D02*
X00100Y11600D01*
X00100Y11600D02*
X00100Y12400D01*
X00150Y11400D02*
X00150Y11600D01*
X00150Y11400D02*
X00100Y11400D01*
X01700Y12400D02*
X00400Y12400D01*
X00300Y11750D02*
X00400Y11750D01*
X00300Y12250D02*
X00400Y12250D01*
X00500Y12250D02*
X00500Y11750D01*
X00400Y11750D02*
X00500Y11750D01*
X00300Y11250D02*
X00400Y11250D01*
X00400Y11250D02*
X00500Y11250D01*
X00400Y11750D02*
X00400Y11600D01*
X00400Y11600D02*
X00400Y11400D01*
X00400Y11400D02*
X00400Y11250D01*
X00400Y12250D02*
X00400Y12400D01*
X00400Y12250D02*
X00500Y12250D01*
X02000Y12400D02*
X02000Y12100D01*
X02000Y12100D02*
X02050Y12100D01*
X02000Y11900D02*
X02050Y11900D01*
X02050Y11900D02*
X02050Y12100D01*
X02000Y11100D02*
X02050Y11100D01*
X02000Y10900D02*
X02050Y10900D01*
X01950Y11400D02*
X02000Y11400D01*
X01950Y11600D02*
X02000Y11600D01*
X01550Y10500D02*
X01650Y10400D01*
X01650Y10400D02*
X01700Y10350D01*
X00150Y10400D02*
X00150Y10600D01*
X00150Y10400D02*
X00100Y10400D01*
X00100Y09600D02*
X00100Y10400D01*
X01700Y10350D02*
X01700Y09600D01*
X01700Y09600D02*
X02000Y09600D01*
X00300Y09600D02*
X00100Y09600D01*
X00300Y09600D02*
X00300Y09750D01*
X01700Y09600D02*
X00400Y09600D01*
X00300Y09750D02*
X00400Y09750D01*
X00500Y10250D02*
X00500Y09750D01*
X00300Y10750D02*
X00400Y10750D01*
X00400Y10750D02*
X00500Y10750D01*
X00300Y10250D02*
X00400Y10250D01*
X00400Y10250D02*
X00500Y10250D01*
X00400Y10750D02*
X00400Y10600D01*
X00400Y10600D02*
X00400Y10400D01*
X00400Y10400D02*
X00400Y10250D01*
X00400Y09750D02*
X00400Y09600D01*
X00400Y09750D02*
X00500Y09750D01*
X00400Y09600D02*
X00300Y09600D01*
X02000Y10100D02*
X02050Y10100D01*
X02000Y09900D02*
X02000Y09600D01*
X02000Y09900D02*
X02050Y09900D01*
X02050Y09900D02*
X02050Y10100D01*
X01950Y10400D02*
X02000Y10400D01*
X02000Y10400D02*
X02000Y10100D01*
X01950Y10400D02*
X01950Y10600D01*
X01950Y10600D02*
X02000Y10600D01*
X01700Y10650D02*
X01650Y10600D01*
X01650Y10600D02*
X01550Y10500D01*
X02000Y10900D02*
X02000Y10600D01*
X02050Y10900D02*
X02050Y11100D01*
X02000Y11400D02*
X02000Y11100D01*
X01950Y11600D02*
X01950Y11400D01*
X02000Y11600D02*
X02000Y11900D01*
X01700Y12400D02*
X01700Y11600D01*
X01700Y11400D02*
X00400Y11400D01*
X01700Y11600D02*
X00400Y11600D01*
X01650Y10600D02*
X00400Y10600D01*
X01650Y10400D02*
X00400Y10400D01*
X00500Y11250D02*
X00500Y10750D01*
X00300Y11250D02*
X00300Y11750D01*
X00100Y11400D02*
X00100Y10600D01*
X00300Y10750D02*
X00300Y10250D01*
X00150Y10600D02*
X00100Y10600D01*
X01700Y13400D02*
X01700Y12600D01*
X01700Y11600D02*
X01700Y11400D01*
X01700Y11400D02*
X01700Y10650D01*
X00150Y12600D02*
X00100Y12600D01*
X00150Y12400D02*
X00100Y12400D01*
X00150Y12400D02*
X00150Y12600D01*
X00300Y12250D02*
X00300Y12750D01*
X00400Y12400D02*
X00400Y12600D01*
X01700Y12400D02*
X01700Y12600D01*
X01950Y12400D02*
X01950Y12600D01*
X02000Y12600D02*
X01950Y12600D01*
X02000Y12400D02*
X01950Y12400D01*
X02100Y10500D02*
X03100Y10500D01*
X03100Y16500D02*
X02100Y16500D01*
X02100Y16500D02*
X02350Y16250D01*
X03100Y16500D02*
X02850Y16250D01*
X03100Y15500D02*
X02850Y15750D01*
X03100Y10500D02*
X03100Y15500D01*
X02100Y15500D02*
X02350Y15750D01*
X02100Y16500D02*
X02100Y15500D01*
X03100Y15500D02*
X02100Y15500D01*
X03100Y15500D02*
X03100Y16500D01*
X02100Y15500D02*
X02100Y10500D01*
X02840Y16240D02*
X02360Y15760D01*
X02360Y16240D02*
X02840Y15760D01*
G54D10*
X06300Y17000D02*
X06300Y02000D01*
X06300Y02000D02*
X04300Y02000D01*
X04300Y02000D02*
X04300Y17000D01*
X04300Y17000D02*
X06300Y17000D01*
X05800Y17000D02*
X05800Y16500D01*
X05800Y16500D02*
X04800Y16500D01*
X04800Y16500D02*
X04800Y17000D01*
G54D11*
X05750Y06450D02*
X05725Y06407D01*
X05725Y06407D02*
X05675Y06407D01*
X05675Y06407D02*
X05650Y06450D01*
X05650Y06450D02*
X05675Y06493D01*
X05675Y06493D02*
X05725Y06493D01*
X05725Y06493D02*
X05750Y06450D01*
X05700Y06900D02*
X05700Y06500D01*
X05700Y06500D02*
X05100Y06500D01*
X05100Y06500D02*
X05100Y06900D01*
X05100Y07300D02*
X05100Y07700D01*
X05100Y07700D02*
X05700Y07700D01*
X05700Y07700D02*
X05700Y07300D01*
X04800Y03500D02*
X04800Y03400D01*
X04800Y03400D02*
X05700Y03400D01*
X05700Y03400D02*
X05700Y03500D01*
X04800Y03500D02*
X05700Y03500D01*
X05700Y03500D02*
X05700Y04150D01*
X04800Y04850D02*
X04800Y05500D01*
X04800Y05500D02*
X05700Y05500D01*
X05700Y05500D02*
X05700Y04850D01*
X04800Y04150D02*
X04800Y03500D01*
X04800Y09600D02*
X04775Y09557D01*
X04775Y09557D02*
X04725Y09557D01*
X04725Y09557D02*
X04700Y09600D01*
X04700Y09600D02*
X04725Y09643D01*
X04725Y09643D02*
X04775Y09643D01*
X04775Y09643D02*
X04800Y09600D01*
X05200Y09600D02*
X04800Y09600D01*
X04800Y09600D02*
X04800Y10200D01*
X04800Y10200D02*
X05200Y10200D01*
X05600Y10200D02*
X06000Y10200D01*
X06000Y10200D02*
X06000Y09600D01*
X06000Y09600D02*
X05600Y09600D01*
X05750Y07950D02*
X05725Y07907D01*
X05725Y07907D02*
X05675Y07907D01*
X05675Y07907D02*
X05650Y07950D01*
X05650Y07950D02*
X05675Y07993D01*
X05675Y07993D02*
X05725Y07993D01*
X05725Y07993D02*
X05750Y07950D01*
X05700Y08400D02*
X05700Y08000D01*
X05700Y08000D02*
X05100Y08000D01*
X05100Y08000D02*
X05100Y08400D01*
X05100Y08800D02*
X05100Y09200D01*
X05100Y09200D02*
X05700Y09200D01*
X05700Y09200D02*
X05700Y08800D01*
G54D15*
X09660Y02720D02*
X08540Y02720D01*
X08540Y02720D02*
X08540Y03280D01*
X08540Y03280D02*
X09660Y03280D01*
X09660Y03280D02*
X09660Y02720D01*
X09660Y03720D02*
X08540Y03720D01*
X08540Y03720D02*
X08540Y04280D01*
X08540Y04280D02*
X09660Y04280D01*
X09660Y04280D02*
X09660Y03720D01*
X09660Y04720D02*
X08540Y04720D01*
X08540Y04720D02*
X08540Y05280D01*
X08540Y05280D02*
X09660Y05280D01*
X09660Y05280D02*
X09660Y04720D01*
X09660Y05720D02*
X08540Y05720D01*
X08540Y05720D02*
X08540Y06280D01*
X08540Y06280D02*
X09660Y06280D01*
X09660Y06280D02*
X09660Y05720D01*
X09660Y06720D02*
X08540Y06720D01*
X08540Y06720D02*
X08540Y07280D01*
X08540Y07280D02*
X09660Y07280D01*
X09660Y07280D02*
X09660Y06720D01*
X09660Y07720D02*
X08540Y07720D01*
X08540Y07720D02*
X08540Y08280D01*
X08540Y08280D02*
X09660Y08280D01*
X09660Y08280D02*
X09660Y07720D01*
X09660Y08720D02*
X08540Y08720D01*
X08540Y08720D02*
X08540Y09280D01*
X08540Y09280D02*
X09660Y09280D01*
X09660Y09280D02*
X09660Y08720D01*
X09660Y09720D02*
X08540Y09720D01*
X08540Y09720D02*
X08540Y10280D01*
X08540Y10280D02*
X09660Y10280D01*
X09660Y10280D02*
X09660Y09720D01*
X09660Y10720D02*
X08540Y10720D01*
X08540Y10720D02*
X08540Y11280D01*
X08540Y11280D02*
X09660Y11280D01*
X09660Y11280D02*
X09660Y10720D01*
X09660Y11720D02*
X08540Y11720D01*
X08540Y11720D02*
X08540Y12280D01*
X08540Y12280D02*
X09660Y12280D01*
X09660Y12280D02*
X09660Y11720D01*
X09660Y12720D02*
X08540Y12720D01*
X08540Y12720D02*
X08540Y13280D01*
X08540Y13280D02*
X09660Y13280D01*
X09660Y13280D02*
X09660Y12720D01*
X09660Y13720D02*
X08540Y13720D01*
X08540Y13720D02*
X08540Y14280D01*
X08540Y14280D02*
X09660Y14280D01*
X09660Y14280D02*
X09660Y13720D01*
X09660Y14720D02*
X08540Y14720D01*
X08540Y14720D02*
X08540Y15280D01*
X08540Y15280D02*
X09660Y15280D01*
X09660Y15280D02*
X09660Y14720D01*
X09660Y15720D02*
X08540Y15720D01*
X08540Y15720D02*
X08540Y16280D01*
X08540Y16280D02*
X09660Y16280D01*
X09660Y16280D02*
X09660Y15720D01*
X09660Y16720D02*
X08540Y16720D01*
X08540Y16720D02*
X08540Y17280D01*
X08540Y17280D02*
X09660Y17280D01*
X09660Y17280D02*
X09660Y16720D01*
X09660Y17720D02*
X08540Y17720D01*
X08540Y17720D02*
X08540Y18280D01*
X08540Y18280D02*
X09660Y18280D01*
X09660Y18280D02*
X09660Y17720D01*
X02770Y00440D02*
X02770Y01560D01*
X02770Y01560D02*
X03330Y01560D01*
X03330Y01560D02*
X03330Y00440D01*
X03330Y00440D02*
X02770Y00440D01*
X03770Y00440D02*
X03770Y01560D01*
X03770Y01560D02*
X04330Y01560D01*
X04330Y01560D02*
X04330Y00440D01*
X04330Y00440D02*
X03770Y00440D01*
X04770Y00440D02*
X04770Y01560D01*
X04770Y01560D02*
X05330Y01560D01*
X05330Y01560D02*
X05330Y00440D01*
X05330Y00440D02*
X04770Y00440D01*
X05770Y00440D02*
X05770Y01560D01*
X05770Y01560D02*
X06330Y01560D01*
X06330Y01560D02*
X06330Y00440D01*
X06330Y00440D02*
X05770Y00440D01*
X06770Y00440D02*
X06770Y01560D01*
X06770Y01560D02*
X07330Y01560D01*
X07330Y01560D02*
X07330Y00440D01*
X07330Y00440D02*
X06770Y00440D01*
X00440Y15280D02*
X01560Y15280D01*
X01560Y15280D02*
X01560Y14720D01*
X01560Y14720D02*
X00440Y14720D01*
X00440Y14720D02*
X00440Y15280D01*
X00440Y14280D02*
X01560Y14280D01*
X01560Y14280D02*
X01560Y13720D01*
X01560Y13720D02*
X00440Y13720D01*
X00440Y13720D02*
X00440Y14280D01*
X00440Y13280D02*
X01560Y13280D01*
X01560Y13280D02*
X01560Y12720D01*
X01560Y12720D02*
X00440Y12720D01*
X00440Y12720D02*
X00440Y13280D01*
X00440Y12280D02*
X01560Y12280D01*
X01560Y12280D02*
X01560Y11720D01*
X01560Y11720D02*
X00440Y11720D01*
X00440Y11720D02*
X00440Y12280D01*
X00440Y11280D02*
X01560Y11280D01*
X01560Y11280D02*
X01560Y10720D01*
X01560Y10720D02*
X00440Y10720D01*
X00440Y10720D02*
X00440Y11280D01*
X00440Y10280D02*
X01560Y10280D01*
X01560Y10280D02*
X01560Y09720D01*
X01560Y09720D02*
X00440Y09720D01*
X00440Y09720D02*
X00440Y10280D01*
X02080Y16260D02*
X03120Y16260D01*
X03120Y16260D02*
X03120Y15740D01*
X03120Y15740D02*
X02080Y15740D01*
X02080Y15740D02*
X02080Y16260D01*
X02080Y15260D02*
X03120Y15260D01*
X03120Y15260D02*
X03120Y14740D01*
X03120Y14740D02*
X02080Y14740D01*
X02080Y14740D02*
X02080Y15260D01*
X02080Y14260D02*
X03120Y14260D01*
X03120Y14260D02*
X03120Y13740D01*
X03120Y13740D02*
X02080Y13740D01*
X02080Y13740D02*
X02080Y14260D01*
X02080Y13260D02*
X03120Y13260D01*
X03120Y13260D02*
X03120Y12740D01*
X03120Y12740D02*
X02080Y12740D01*
X02080Y12740D02*
X02080Y13260D01*
X02080Y12260D02*
X03120Y12260D01*
X03120Y12260D02*
X03120Y11740D01*
X03120Y11740D02*
X02080Y11740D01*
X02080Y11740D02*
X02080Y12260D01*
X02080Y11260D02*
X03120Y11260D01*
X03120Y11260D02*
X03120Y10740D01*
X03120Y10740D02*
X02080Y10740D01*
X02080Y10740D02*
X02080Y11260D01*
X04075Y15000D02*
X04068Y14943D01*
X04068Y14943D02*
X04051Y14889D01*
X04051Y14889D02*
X04022Y14839D01*
X04022Y14839D02*
X03984Y14796D01*
X03984Y14796D02*
X03937Y14762D01*
X03937Y14762D02*
X03884Y14739D01*
X03884Y14739D02*
X03828Y14727D01*
X03828Y14727D02*
X03772Y14727D01*
X03772Y14727D02*
X03716Y14739D01*
X03716Y14739D02*
X03663Y14762D01*
X03663Y14762D02*
X03616Y14796D01*
X03616Y14796D02*
X03578Y14839D01*
X03578Y14839D02*
X03549Y14889D01*
X03549Y14889D02*
X03532Y14943D01*
X03532Y14943D02*
X03525Y15000D01*
X03525Y15000D02*
X03532Y15057D01*
X03532Y15057D02*
X03549Y15111D01*
X03549Y15111D02*
X03578Y15161D01*
X03578Y15161D02*
X03616Y15204D01*
X03616Y15204D02*
X03663Y15238D01*
X03663Y15238D02*
X03716Y15261D01*
X03716Y15261D02*
X03772Y15273D01*
X03772Y15273D02*
X03828Y15273D01*
X03828Y15273D02*
X03884Y15261D01*
X03884Y15261D02*
X03937Y15238D01*
X03937Y15238D02*
X03984Y15204D01*
X03984Y15204D02*
X04022Y15161D01*
X04022Y15161D02*
X04051Y15111D01*
X04051Y15111D02*
X04068Y15057D01*
X04068Y15057D02*
X04075Y15000D01*
X04075Y14000D02*
X04068Y13943D01*
X04068Y13943D02*
X04051Y13889D01*
X04051Y13889D02*
X04022Y13839D01*
X04022Y13839D02*
X03984Y13796D01*
X03984Y13796D02*
X03937Y13762D01*
X03937Y13762D02*
X03884Y13739D01*
X03884Y13739D02*
X03828Y13727D01*
X03828Y13727D02*
X03772Y13727D01*
X03772Y13727D02*
X03716Y13739D01*
X03716Y13739D02*
X03663Y13762D01*
X03663Y13762D02*
X03616Y13796D01*
X03616Y13796D02*
X03578Y13839D01*
X03578Y13839D02*
X03549Y13889D01*
X03549Y13889D02*
X03532Y13943D01*
X03532Y13943D02*
X03525Y14000D01*
X03525Y14000D02*
X03532Y14057D01*
X03532Y14057D02*
X03549Y14111D01*
X03549Y14111D02*
X03578Y14161D01*
X03578Y14161D02*
X03616Y14204D01*
X03616Y14204D02*
X03663Y14238D01*
X03663Y14238D02*
X03716Y14261D01*
X03716Y14261D02*
X03772Y14273D01*
X03772Y14273D02*
X03828Y14273D01*
X03828Y14273D02*
X03884Y14261D01*
X03884Y14261D02*
X03937Y14238D01*
X03937Y14238D02*
X03984Y14204D01*
X03984Y14204D02*
X04022Y14161D01*
X04022Y14161D02*
X04051Y14111D01*
X04051Y14111D02*
X04068Y14057D01*
X04068Y14057D02*
X04075Y14000D01*
X04075Y13000D02*
X04068Y12943D01*
X04068Y12943D02*
X04051Y12889D01*
X04051Y12889D02*
X04022Y12839D01*
X04022Y12839D02*
X03984Y12796D01*
X03984Y12796D02*
X03937Y12762D01*
X03937Y12762D02*
X03884Y12739D01*
X03884Y12739D02*
X03828Y12727D01*
X03828Y12727D02*
X03772Y12727D01*
X03772Y12727D02*
X03716Y12739D01*
X03716Y12739D02*
X03663Y12762D01*
X03663Y12762D02*
X03616Y12796D01*
X03616Y12796D02*
X03578Y12839D01*
X03578Y12839D02*
X03549Y12889D01*
X03549Y12889D02*
X03532Y12943D01*
X03532Y12943D02*
X03525Y13000D01*
X03525Y13000D02*
X03532Y13057D01*
X03532Y13057D02*
X03549Y13111D01*
X03549Y13111D02*
X03578Y13161D01*
X03578Y13161D02*
X03616Y13204D01*
X03616Y13204D02*
X03663Y13238D01*
X03663Y13238D02*
X03716Y13261D01*
X03716Y13261D02*
X03772Y13273D01*
X03772Y13273D02*
X03828Y13273D01*
X03828Y13273D02*
X03884Y13261D01*
X03884Y13261D02*
X03937Y13238D01*
X03937Y13238D02*
X03984Y13204D01*
X03984Y13204D02*
X04022Y13161D01*
X04022Y13161D02*
X04051Y13111D01*
X04051Y13111D02*
X04068Y13057D01*
X04068Y13057D02*
X04075Y13000D01*
X04075Y12000D02*
X04068Y11943D01*
X04068Y11943D02*
X04051Y11889D01*
X04051Y11889D02*
X04022Y11839D01*
X04022Y11839D02*
X03984Y11796D01*
X03984Y11796D02*
X03937Y11762D01*
X03937Y11762D02*
X03884Y11739D01*
X03884Y11739D02*
X03828Y11727D01*
X03828Y11727D02*
X03772Y11727D01*
X03772Y11727D02*
X03716Y11739D01*
X03716Y11739D02*
X03663Y11762D01*
X03663Y11762D02*
X03616Y11796D01*
X03616Y11796D02*
X03578Y11839D01*
X03578Y11839D02*
X03549Y11889D01*
X03549Y11889D02*
X03532Y11943D01*
X03532Y11943D02*
X03525Y12000D01*
X03525Y12000D02*
X03532Y12057D01*
X03532Y12057D02*
X03549Y12111D01*
X03549Y12111D02*
X03578Y12161D01*
X03578Y12161D02*
X03616Y12204D01*
X03616Y12204D02*
X03663Y12238D01*
X03663Y12238D02*
X03716Y12261D01*
X03716Y12261D02*
X03772Y12273D01*
X03772Y12273D02*
X03828Y12273D01*
X03828Y12273D02*
X03884Y12261D01*
X03884Y12261D02*
X03937Y12238D01*
X03937Y12238D02*
X03984Y12204D01*
X03984Y12204D02*
X04022Y12161D01*
X04022Y12161D02*
X04051Y12111D01*
X04051Y12111D02*
X04068Y12057D01*
X04068Y12057D02*
X04075Y12000D01*
X04075Y11000D02*
X04068Y10943D01*
X04068Y10943D02*
X04051Y10889D01*
X04051Y10889D02*
X04022Y10839D01*
X04022Y10839D02*
X03984Y10796D01*
X03984Y10796D02*
X03937Y10762D01*
X03937Y10762D02*
X03884Y10739D01*
X03884Y10739D02*
X03828Y10727D01*
X03828Y10727D02*
X03772Y10727D01*
X03772Y10727D02*
X03716Y10739D01*
X03716Y10739D02*
X03663Y10762D01*
X03663Y10762D02*
X03616Y10796D01*
X03616Y10796D02*
X03578Y10839D01*
X03578Y10839D02*
X03549Y10889D01*
X03549Y10889D02*
X03532Y10943D01*
X03532Y10943D02*
X03525Y11000D01*
X03525Y11000D02*
X03532Y11057D01*
X03532Y11057D02*
X03549Y11111D01*
X03549Y11111D02*
X03578Y11161D01*
X03578Y11161D02*
X03616Y11204D01*
X03616Y11204D02*
X03663Y11238D01*
X03663Y11238D02*
X03716Y11261D01*
X03716Y11261D02*
X03772Y11273D01*
X03772Y11273D02*
X03828Y11273D01*
X03828Y11273D02*
X03884Y11261D01*
X03884Y11261D02*
X03937Y11238D01*
X03937Y11238D02*
X03984Y11204D01*
X03984Y11204D02*
X04022Y11161D01*
X04022Y11161D02*
X04051Y11111D01*
X04051Y11111D02*
X04068Y11057D01*
X04068Y11057D02*
X04075Y11000D01*
X04075Y10000D02*
X04068Y09943D01*
X04068Y09943D02*
X04051Y09889D01*
X04051Y09889D02*
X04022Y09839D01*
X04022Y09839D02*
X03984Y09796D01*
X03984Y09796D02*
X03937Y09762D01*
X03937Y09762D02*
X03884Y09739D01*
X03884Y09739D02*
X03828Y09727D01*
X03828Y09727D02*
X03772Y09727D01*
X03772Y09727D02*
X03716Y09739D01*
X03716Y09739D02*
X03663Y09762D01*
X03663Y09762D02*
X03616Y09796D01*
X03616Y09796D02*
X03578Y09839D01*
X03578Y09839D02*
X03549Y09889D01*
X03549Y09889D02*
X03532Y09943D01*
X03532Y09943D02*
X03525Y10000D01*
X03525Y10000D02*
X03532Y10057D01*
X03532Y10057D02*
X03549Y10111D01*
X03549Y10111D02*
X03578Y10161D01*
X03578Y10161D02*
X03616Y10204D01*
X03616Y10204D02*
X03663Y10238D01*
X03663Y10238D02*
X03716Y10261D01*
X03716Y10261D02*
X03772Y10273D01*
X03772Y10273D02*
X03828Y10273D01*
X03828Y10273D02*
X03884Y10261D01*
X03884Y10261D02*
X03937Y10238D01*
X03937Y10238D02*
X03984Y10204D01*
X03984Y10204D02*
X04022Y10161D01*
X04022Y10161D02*
X04051Y10111D01*
X04051Y10111D02*
X04068Y10057D01*
X04068Y10057D02*
X04075Y10000D01*
X04075Y09000D02*
X04068Y08943D01*
X04068Y08943D02*
X04051Y08889D01*
X04051Y08889D02*
X04022Y08839D01*
X04022Y08839D02*
X03984Y08796D01*
X03984Y08796D02*
X03937Y08762D01*
X03937Y08762D02*
X03884Y08739D01*
X03884Y08739D02*
X03828Y08727D01*
X03828Y08727D02*
X03772Y08727D01*
X03772Y08727D02*
X03716Y08739D01*
X03716Y08739D02*
X03663Y08762D01*
X03663Y08762D02*
X03616Y08796D01*
X03616Y08796D02*
X03578Y08839D01*
X03578Y08839D02*
X03549Y08889D01*
X03549Y08889D02*
X03532Y08943D01*
X03532Y08943D02*
X03525Y09000D01*
X03525Y09000D02*
X03532Y09057D01*
X03532Y09057D02*
X03549Y09111D01*
X03549Y09111D02*
X03578Y09161D01*
X03578Y09161D02*
X03616Y09204D01*
X03616Y09204D02*
X03663Y09238D01*
X03663Y09238D02*
X03716Y09261D01*
X03716Y09261D02*
X03772Y09273D01*
X03772Y09273D02*
X03828Y09273D01*
X03828Y09273D02*
X03884Y09261D01*
X03884Y09261D02*
X03937Y09238D01*
X03937Y09238D02*
X03984Y09204D01*
X03984Y09204D02*
X04022Y09161D01*
X04022Y09161D02*
X04051Y09111D01*
X04051Y09111D02*
X04068Y09057D01*
X04068Y09057D02*
X04075Y09000D01*
X04075Y08000D02*
X04068Y07943D01*
X04068Y07943D02*
X04051Y07889D01*
X04051Y07889D02*
X04022Y07839D01*
X04022Y07839D02*
X03984Y07796D01*
X03984Y07796D02*
X03937Y07762D01*
X03937Y07762D02*
X03884Y07739D01*
X03884Y07739D02*
X03828Y07727D01*
X03828Y07727D02*
X03772Y07727D01*
X03772Y07727D02*
X03716Y07739D01*
X03716Y07739D02*
X03663Y07762D01*
X03663Y07762D02*
X03616Y07796D01*
X03616Y07796D02*
X03578Y07839D01*
X03578Y07839D02*
X03549Y07889D01*
X03549Y07889D02*
X03532Y07943D01*
X03532Y07943D02*
X03525Y08000D01*
X03525Y08000D02*
X03532Y08057D01*
X03532Y08057D02*
X03549Y08111D01*
X03549Y08111D02*
X03578Y08161D01*
X03578Y08161D02*
X03616Y08204D01*
X03616Y08204D02*
X03663Y08238D01*
X03663Y08238D02*
X03716Y08261D01*
X03716Y08261D02*
X03772Y08273D01*
X03772Y08273D02*
X03828Y08273D01*
X03828Y08273D02*
X03884Y08261D01*
X03884Y08261D02*
X03937Y08238D01*
X03937Y08238D02*
X03984Y08204D01*
X03984Y08204D02*
X04022Y08161D01*
X04022Y08161D02*
X04051Y08111D01*
X04051Y08111D02*
X04068Y08057D01*
X04068Y08057D02*
X04075Y08000D01*
X04075Y07000D02*
X04068Y06943D01*
X04068Y06943D02*
X04051Y06889D01*
X04051Y06889D02*
X04022Y06839D01*
X04022Y06839D02*
X03984Y06796D01*
X03984Y06796D02*
X03937Y06762D01*
X03937Y06762D02*
X03884Y06739D01*
X03884Y06739D02*
X03828Y06727D01*
X03828Y06727D02*
X03772Y06727D01*
X03772Y06727D02*
X03716Y06739D01*
X03716Y06739D02*
X03663Y06762D01*
X03663Y06762D02*
X03616Y06796D01*
X03616Y06796D02*
X03578Y06839D01*
X03578Y06839D02*
X03549Y06889D01*
X03549Y06889D02*
X03532Y06943D01*
X03532Y06943D02*
X03525Y07000D01*
X03525Y07000D02*
X03532Y07057D01*
X03532Y07057D02*
X03549Y07111D01*
X03549Y07111D02*
X03578Y07161D01*
X03578Y07161D02*
X03616Y07204D01*
X03616Y07204D02*
X03663Y07238D01*
X03663Y07238D02*
X03716Y07261D01*
X03716Y07261D02*
X03772Y07273D01*
X03772Y07273D02*
X03828Y07273D01*
X03828Y07273D02*
X03884Y07261D01*
X03884Y07261D02*
X03937Y07238D01*
X03937Y07238D02*
X03984Y07204D01*
X03984Y07204D02*
X04022Y07161D01*
X04022Y07161D02*
X04051Y07111D01*
X04051Y07111D02*
X04068Y07057D01*
X04068Y07057D02*
X04075Y07000D01*
X04075Y06000D02*
X04068Y05943D01*
X04068Y05943D02*
X04051Y05889D01*
X04051Y05889D02*
X04022Y05839D01*
X04022Y05839D02*
X03984Y05796D01*
X03984Y05796D02*
X03937Y05762D01*
X03937Y05762D02*
X03884Y05739D01*
X03884Y05739D02*
X03828Y05727D01*
X03828Y05727D02*
X03772Y05727D01*
X03772Y05727D02*
X03716Y05739D01*
X03716Y05739D02*
X03663Y05762D01*
X03663Y05762D02*
X03616Y05796D01*
X03616Y05796D02*
X03578Y05839D01*
X03578Y05839D02*
X03549Y05889D01*
X03549Y05889D02*
X03532Y05943D01*
X03532Y05943D02*
X03525Y06000D01*
X03525Y06000D02*
X03532Y06057D01*
X03532Y06057D02*
X03549Y06111D01*
X03549Y06111D02*
X03578Y06161D01*
X03578Y06161D02*
X03616Y06204D01*
X03616Y06204D02*
X03663Y06238D01*
X03663Y06238D02*
X03716Y06261D01*
X03716Y06261D02*
X03772Y06273D01*
X03772Y06273D02*
X03828Y06273D01*
X03828Y06273D02*
X03884Y06261D01*
X03884Y06261D02*
X03937Y06238D01*
X03937Y06238D02*
X03984Y06204D01*
X03984Y06204D02*
X04022Y06161D01*
X04022Y06161D02*
X04051Y06111D01*
X04051Y06111D02*
X04068Y06057D01*
X04068Y06057D02*
X04075Y06000D01*
X04075Y05000D02*
X04068Y04943D01*
X04068Y04943D02*
X04051Y04889D01*
X04051Y04889D02*
X04022Y04839D01*
X04022Y04839D02*
X03984Y04796D01*
X03984Y04796D02*
X03937Y04762D01*
X03937Y04762D02*
X03884Y04739D01*
X03884Y04739D02*
X03828Y04727D01*
X03828Y04727D02*
X03772Y04727D01*
X03772Y04727D02*
X03716Y04739D01*
X03716Y04739D02*
X03663Y04762D01*
X03663Y04762D02*
X03616Y04796D01*
X03616Y04796D02*
X03578Y04839D01*
X03578Y04839D02*
X03549Y04889D01*
X03549Y04889D02*
X03532Y04943D01*
X03532Y04943D02*
X03525Y05000D01*
X03525Y05000D02*
X03532Y05057D01*
X03532Y05057D02*
X03549Y05111D01*
X03549Y05111D02*
X03578Y05161D01*
X03578Y05161D02*
X03616Y05204D01*
X03616Y05204D02*
X03663Y05238D01*
X03663Y05238D02*
X03716Y05261D01*
X03716Y05261D02*
X03772Y05273D01*
X03772Y05273D02*
X03828Y05273D01*
X03828Y05273D02*
X03884Y05261D01*
X03884Y05261D02*
X03937Y05238D01*
X03937Y05238D02*
X03984Y05204D01*
X03984Y05204D02*
X04022Y05161D01*
X04022Y05161D02*
X04051Y05111D01*
X04051Y05111D02*
X04068Y05057D01*
X04068Y05057D02*
X04075Y05000D01*
X04075Y04000D02*
X04068Y03943D01*
X04068Y03943D02*
X04051Y03889D01*
X04051Y03889D02*
X04022Y03839D01*
X04022Y03839D02*
X03984Y03796D01*
X03984Y03796D02*
X03937Y03762D01*
X03937Y03762D02*
X03884Y03739D01*
X03884Y03739D02*
X03828Y03727D01*
X03828Y03727D02*
X03772Y03727D01*
X03772Y03727D02*
X03716Y03739D01*
X03716Y03739D02*
X03663Y03762D01*
X03663Y03762D02*
X03616Y03796D01*
X03616Y03796D02*
X03578Y03839D01*
X03578Y03839D02*
X03549Y03889D01*
X03549Y03889D02*
X03532Y03943D01*
X03532Y03943D02*
X03525Y04000D01*
X03525Y04000D02*
X03532Y04057D01*
X03532Y04057D02*
X03549Y04111D01*
X03549Y04111D02*
X03578Y04161D01*
X03578Y04161D02*
X03616Y04204D01*
X03616Y04204D02*
X03663Y04238D01*
X03663Y04238D02*
X03716Y04261D01*
X03716Y04261D02*
X03772Y04273D01*
X03772Y04273D02*
X03828Y04273D01*
X03828Y04273D02*
X03884Y04261D01*
X03884Y04261D02*
X03937Y04238D01*
X03937Y04238D02*
X03984Y04204D01*
X03984Y04204D02*
X04022Y04161D01*
X04022Y04161D02*
X04051Y04111D01*
X04051Y04111D02*
X04068Y04057D01*
X04068Y04057D02*
X04075Y04000D01*
X04075Y03000D02*
X04068Y02943D01*
X04068Y02943D02*
X04051Y02889D01*
X04051Y02889D02*
X04022Y02839D01*
X04022Y02839D02*
X03984Y02796D01*
X03984Y02796D02*
X03937Y02762D01*
X03937Y02762D02*
X03884Y02739D01*
X03884Y02739D02*
X03828Y02727D01*
X03828Y02727D02*
X03772Y02727D01*
X03772Y02727D02*
X03716Y02739D01*
X03716Y02739D02*
X03663Y02762D01*
X03663Y02762D02*
X03616Y02796D01*
X03616Y02796D02*
X03578Y02839D01*
X03578Y02839D02*
X03549Y02889D01*
X03549Y02889D02*
X03532Y02943D01*
X03532Y02943D02*
X03525Y03000D01*
X03525Y03000D02*
X03532Y03057D01*
X03532Y03057D02*
X03549Y03111D01*
X03549Y03111D02*
X03578Y03161D01*
X03578Y03161D02*
X03616Y03204D01*
X03616Y03204D02*
X03663Y03238D01*
X03663Y03238D02*
X03716Y03261D01*
X03716Y03261D02*
X03772Y03273D01*
X03772Y03273D02*
X03828Y03273D01*
X03828Y03273D02*
X03884Y03261D01*
X03884Y03261D02*
X03937Y03238D01*
X03937Y03238D02*
X03984Y03204D01*
X03984Y03204D02*
X04022Y03161D01*
X04022Y03161D02*
X04051Y03111D01*
X04051Y03111D02*
X04068Y03057D01*
X04068Y03057D02*
X04075Y03000D01*
X03525Y16275D02*
X04075Y16275D01*
X04075Y16275D02*
X04075Y15725D01*
X04075Y15725D02*
X03525Y15725D01*
X03525Y15725D02*
X03525Y16275D01*
X07075Y03000D02*
X07068Y02943D01*
X07068Y02943D02*
X07051Y02889D01*
X07051Y02889D02*
X07022Y02839D01*
X07022Y02839D02*
X06984Y02796D01*
X06984Y02796D02*
X06937Y02762D01*
X06937Y02762D02*
X06884Y02739D01*
X06884Y02739D02*
X06828Y02727D01*
X06828Y02727D02*
X06772Y02727D01*
X06772Y02727D02*
X06716Y02739D01*
X06716Y02739D02*
X06663Y02762D01*
X06663Y02762D02*
X06616Y02796D01*
X06616Y02796D02*
X06578Y02839D01*
X06578Y02839D02*
X06549Y02889D01*
X06549Y02889D02*
X06532Y02943D01*
X06532Y02943D02*
X06525Y03000D01*
X06525Y03000D02*
X06532Y03057D01*
X06532Y03057D02*
X06549Y03111D01*
X06549Y03111D02*
X06578Y03161D01*
X06578Y03161D02*
X06616Y03204D01*
X06616Y03204D02*
X06663Y03238D01*
X06663Y03238D02*
X06716Y03261D01*
X06716Y03261D02*
X06772Y03273D01*
X06772Y03273D02*
X06828Y03273D01*
X06828Y03273D02*
X06884Y03261D01*
X06884Y03261D02*
X06937Y03238D01*
X06937Y03238D02*
X06984Y03204D01*
X06984Y03204D02*
X07022Y03161D01*
X07022Y03161D02*
X07051Y03111D01*
X07051Y03111D02*
X07068Y03057D01*
X07068Y03057D02*
X07075Y03000D01*
X07075Y04000D02*
X07068Y03943D01*
X07068Y03943D02*
X07051Y03889D01*
X07051Y03889D02*
X07022Y03839D01*
X07022Y03839D02*
X06984Y03796D01*
X06984Y03796D02*
X06937Y03762D01*
X06937Y03762D02*
X06884Y03739D01*
X06884Y03739D02*
X06828Y03727D01*
X06828Y03727D02*
X06772Y03727D01*
X06772Y03727D02*
X06716Y03739D01*
X06716Y03739D02*
X06663Y03762D01*
X06663Y03762D02*
X06616Y03796D01*
X06616Y03796D02*
X06578Y03839D01*
X06578Y03839D02*
X06549Y03889D01*
X06549Y03889D02*
X06532Y03943D01*
X06532Y03943D02*
X06525Y04000D01*
X06525Y04000D02*
X06532Y04057D01*
X06532Y04057D02*
X06549Y04111D01*
X06549Y04111D02*
X06578Y04161D01*
X06578Y04161D02*
X06616Y04204D01*
X06616Y04204D02*
X06663Y04238D01*
X06663Y04238D02*
X06716Y04261D01*
X06716Y04261D02*
X06772Y04273D01*
X06772Y04273D02*
X06828Y04273D01*
X06828Y04273D02*
X06884Y04261D01*
X06884Y04261D02*
X06937Y04238D01*
X06937Y04238D02*
X06984Y04204D01*
X06984Y04204D02*
X07022Y04161D01*
X07022Y04161D02*
X07051Y04111D01*
X07051Y04111D02*
X07068Y04057D01*
X07068Y04057D02*
X07075Y04000D01*
X07075Y05000D02*
X07068Y04943D01*
X07068Y04943D02*
X07051Y04889D01*
X07051Y04889D02*
X07022Y04839D01*
X07022Y04839D02*
X06984Y04796D01*
X06984Y04796D02*
X06937Y04762D01*
X06937Y04762D02*
X06884Y04739D01*
X06884Y04739D02*
X06828Y04727D01*
X06828Y04727D02*
X06772Y04727D01*
X06772Y04727D02*
X06716Y04739D01*
X06716Y04739D02*
X06663Y04762D01*
X06663Y04762D02*
X06616Y04796D01*
X06616Y04796D02*
X06578Y04839D01*
X06578Y04839D02*
X06549Y04889D01*
X06549Y04889D02*
X06532Y04943D01*
X06532Y04943D02*
X06525Y05000D01*
X06525Y05000D02*
X06532Y05057D01*
X06532Y05057D02*
X06549Y05111D01*
X06549Y05111D02*
X06578Y05161D01*
X06578Y05161D02*
X06616Y05204D01*
X06616Y05204D02*
X06663Y05238D01*
X06663Y05238D02*
X06716Y05261D01*
X06716Y05261D02*
X06772Y05273D01*
X06772Y05273D02*
X06828Y05273D01*
X06828Y05273D02*
X06884Y05261D01*
X06884Y05261D02*
X06937Y05238D01*
X06937Y05238D02*
X06984Y05204D01*
X06984Y05204D02*
X07022Y05161D01*
X07022Y05161D02*
X07051Y05111D01*
X07051Y05111D02*
X07068Y05057D01*
X07068Y05057D02*
X07075Y05000D01*
X07075Y06000D02*
X07068Y05943D01*
X07068Y05943D02*
X07051Y05889D01*
X07051Y05889D02*
X07022Y05839D01*
X07022Y05839D02*
X06984Y05796D01*
X06984Y05796D02*
X06937Y05762D01*
X06937Y05762D02*
X06884Y05739D01*
X06884Y05739D02*
X06828Y05727D01*
X06828Y05727D02*
X06772Y05727D01*
X06772Y05727D02*
X06716Y05739D01*
X06716Y05739D02*
X06663Y05762D01*
X06663Y05762D02*
X06616Y05796D01*
X06616Y05796D02*
X06578Y05839D01*
X06578Y05839D02*
X06549Y05889D01*
X06549Y05889D02*
X06532Y05943D01*
X06532Y05943D02*
X06525Y06000D01*
X06525Y06000D02*
X06532Y06057D01*
X06532Y06057D02*
X06549Y06111D01*
X06549Y06111D02*
X06578Y06161D01*
X06578Y06161D02*
X06616Y06204D01*
X06616Y06204D02*
X06663Y06238D01*
X06663Y06238D02*
X06716Y06261D01*
X06716Y06261D02*
X06772Y06273D01*
X06772Y06273D02*
X06828Y06273D01*
X06828Y06273D02*
X06884Y06261D01*
X06884Y06261D02*
X06937Y06238D01*
X06937Y06238D02*
X06984Y06204D01*
X06984Y06204D02*
X07022Y06161D01*
X07022Y06161D02*
X07051Y06111D01*
X07051Y06111D02*
X07068Y06057D01*
X07068Y06057D02*
X07075Y06000D01*
X07075Y07000D02*
X07068Y06943D01*
X07068Y06943D02*
X07051Y06889D01*
X07051Y06889D02*
X07022Y06839D01*
X07022Y06839D02*
X06984Y06796D01*
X06984Y06796D02*
X06937Y06762D01*
X06937Y06762D02*
X06884Y06739D01*
X06884Y06739D02*
X06828Y06727D01*
X06828Y06727D02*
X06772Y06727D01*
X06772Y06727D02*
X06716Y06739D01*
X06716Y06739D02*
X06663Y06762D01*
X06663Y06762D02*
X06616Y06796D01*
X06616Y06796D02*
X06578Y06839D01*
X06578Y06839D02*
X06549Y06889D01*
X06549Y06889D02*
X06532Y06943D01*
X06532Y06943D02*
X06525Y07000D01*
X06525Y07000D02*
X06532Y07057D01*
X06532Y07057D02*
X06549Y07111D01*
X06549Y07111D02*
X06578Y07161D01*
X06578Y07161D02*
X06616Y07204D01*
X06616Y07204D02*
X06663Y07238D01*
X06663Y07238D02*
X06716Y07261D01*
X06716Y07261D02*
X06772Y07273D01*
X06772Y07273D02*
X06828Y07273D01*
X06828Y07273D02*
X06884Y07261D01*
X06884Y07261D02*
X06937Y07238D01*
X06937Y07238D02*
X06984Y07204D01*
X06984Y07204D02*
X07022Y07161D01*
X07022Y07161D02*
X07051Y07111D01*
X07051Y07111D02*
X07068Y07057D01*
X07068Y07057D02*
X07075Y07000D01*
X07075Y08000D02*
X07068Y07943D01*
X07068Y07943D02*
X07051Y07889D01*
X07051Y07889D02*
X07022Y07839D01*
X07022Y07839D02*
X06984Y07796D01*
X06984Y07796D02*
X06937Y07762D01*
X06937Y07762D02*
X06884Y07739D01*
X06884Y07739D02*
X06828Y07727D01*
X06828Y07727D02*
X06772Y07727D01*
X06772Y07727D02*
X06716Y07739D01*
X06716Y07739D02*
X06663Y07762D01*
X06663Y07762D02*
X06616Y07796D01*
X06616Y07796D02*
X06578Y07839D01*
X06578Y07839D02*
X06549Y07889D01*
X06549Y07889D02*
X06532Y07943D01*
X06532Y07943D02*
X06525Y08000D01*
X06525Y08000D02*
X06532Y08057D01*
X06532Y08057D02*
X06549Y08111D01*
X06549Y08111D02*
X06578Y08161D01*
X06578Y08161D02*
X06616Y08204D01*
X06616Y08204D02*
X06663Y08238D01*
X06663Y08238D02*
X06716Y08261D01*
X06716Y08261D02*
X06772Y08273D01*
X06772Y08273D02*
X06828Y08273D01*
X06828Y08273D02*
X06884Y08261D01*
X06884Y08261D02*
X06937Y08238D01*
X06937Y08238D02*
X06984Y08204D01*
X06984Y08204D02*
X07022Y08161D01*
X07022Y08161D02*
X07051Y08111D01*
X07051Y08111D02*
X07068Y08057D01*
X07068Y08057D02*
X07075Y08000D01*
X07075Y09000D02*
X07068Y08943D01*
X07068Y08943D02*
X07051Y08889D01*
X07051Y08889D02*
X07022Y08839D01*
X07022Y08839D02*
X06984Y08796D01*
X06984Y08796D02*
X06937Y08762D01*
X06937Y08762D02*
X06884Y08739D01*
X06884Y08739D02*
X06828Y08727D01*
X06828Y08727D02*
X06772Y08727D01*
X06772Y08727D02*
X06716Y08739D01*
X06716Y08739D02*
X06663Y08762D01*
X06663Y08762D02*
X06616Y08796D01*
X06616Y08796D02*
X06578Y08839D01*
X06578Y08839D02*
X06549Y08889D01*
X06549Y08889D02*
X06532Y08943D01*
X06532Y08943D02*
X06525Y09000D01*
X06525Y09000D02*
X06532Y09057D01*
X06532Y09057D02*
X06549Y09111D01*
X06549Y09111D02*
X06578Y09161D01*
X06578Y09161D02*
X06616Y09204D01*
X06616Y09204D02*
X06663Y09238D01*
X06663Y09238D02*
X06716Y09261D01*
X06716Y09261D02*
X06772Y09273D01*
X06772Y09273D02*
X06828Y09273D01*
X06828Y09273D02*
X06884Y09261D01*
X06884Y09261D02*
X06937Y09238D01*
X06937Y09238D02*
X06984Y09204D01*
X06984Y09204D02*
X07022Y09161D01*
X07022Y09161D02*
X07051Y09111D01*
X07051Y09111D02*
X07068Y09057D01*
X07068Y09057D02*
X07075Y09000D01*
X07075Y10000D02*
X07068Y09943D01*
X07068Y09943D02*
X07051Y09889D01*
X07051Y09889D02*
X07022Y09839D01*
X07022Y09839D02*
X06984Y09796D01*
X06984Y09796D02*
X06937Y09762D01*
X06937Y09762D02*
X06884Y09739D01*
X06884Y09739D02*
X06828Y09727D01*
X06828Y09727D02*
X06772Y09727D01*
X06772Y09727D02*
X06716Y09739D01*
X06716Y09739D02*
X06663Y09762D01*
X06663Y09762D02*
X06616Y09796D01*
X06616Y09796D02*
X06578Y09839D01*
X06578Y09839D02*
X06549Y09889D01*
X06549Y09889D02*
X06532Y09943D01*
X06532Y09943D02*
X06525Y10000D01*
X06525Y10000D02*
X06532Y10057D01*
X06532Y10057D02*
X06549Y10111D01*
X06549Y10111D02*
X06578Y10161D01*
X06578Y10161D02*
X06616Y10204D01*
X06616Y10204D02*
X06663Y10238D01*
X06663Y10238D02*
X06716Y10261D01*
X06716Y10261D02*
X06772Y10273D01*
X06772Y10273D02*
X06828Y10273D01*
X06828Y10273D02*
X06884Y10261D01*
X06884Y10261D02*
X06937Y10238D01*
X06937Y10238D02*
X06984Y10204D01*
X06984Y10204D02*
X07022Y10161D01*
X07022Y10161D02*
X07051Y10111D01*
X07051Y10111D02*
X07068Y10057D01*
X07068Y10057D02*
X07075Y10000D01*
X07075Y11000D02*
X07068Y10943D01*
X07068Y10943D02*
X07051Y10889D01*
X07051Y10889D02*
X07022Y10839D01*
X07022Y10839D02*
X06984Y10796D01*
X06984Y10796D02*
X06937Y10762D01*
X06937Y10762D02*
X06884Y10739D01*
X06884Y10739D02*
X06828Y10727D01*
X06828Y10727D02*
X06772Y10727D01*
X06772Y10727D02*
X06716Y10739D01*
X06716Y10739D02*
X06663Y10762D01*
X06663Y10762D02*
X06616Y10796D01*
X06616Y10796D02*
X06578Y10839D01*
X06578Y10839D02*
X06549Y10889D01*
X06549Y10889D02*
X06532Y10943D01*
X06532Y10943D02*
X06525Y11000D01*
X06525Y11000D02*
X06532Y11057D01*
X06532Y11057D02*
X06549Y11111D01*
X06549Y11111D02*
X06578Y11161D01*
X06578Y11161D02*
X06616Y11204D01*
X06616Y11204D02*
X06663Y11238D01*
X06663Y11238D02*
X06716Y11261D01*
X06716Y11261D02*
X06772Y11273D01*
X06772Y11273D02*
X06828Y11273D01*
X06828Y11273D02*
X06884Y11261D01*
X06884Y11261D02*
X06937Y11238D01*
X06937Y11238D02*
X06984Y11204D01*
X06984Y11204D02*
X07022Y11161D01*
X07022Y11161D02*
X07051Y11111D01*
X07051Y11111D02*
X07068Y11057D01*
X07068Y11057D02*
X07075Y11000D01*
X07075Y12000D02*
X07068Y11943D01*
X07068Y11943D02*
X07051Y11889D01*
X07051Y11889D02*
X07022Y11839D01*
X07022Y11839D02*
X06984Y11796D01*
X06984Y11796D02*
X06937Y11762D01*
X06937Y11762D02*
X06884Y11739D01*
X06884Y11739D02*
X06828Y11727D01*
X06828Y11727D02*
X06772Y11727D01*
X06772Y11727D02*
X06716Y11739D01*
X06716Y11739D02*
X06663Y11762D01*
X06663Y11762D02*
X06616Y11796D01*
X06616Y11796D02*
X06578Y11839D01*
X06578Y11839D02*
X06549Y11889D01*
X06549Y11889D02*
X06532Y11943D01*
X06532Y11943D02*
X06525Y12000D01*
X06525Y12000D02*
X06532Y12057D01*
X06532Y12057D02*
X06549Y12111D01*
X06549Y12111D02*
X06578Y12161D01*
X06578Y12161D02*
X06616Y12204D01*
X06616Y12204D02*
X06663Y12238D01*
X06663Y12238D02*
X06716Y12261D01*
X06716Y12261D02*
X06772Y12273D01*
X06772Y12273D02*
X06828Y12273D01*
X06828Y12273D02*
X06884Y12261D01*
X06884Y12261D02*
X06937Y12238D01*
X06937Y12238D02*
X06984Y12204D01*
X06984Y12204D02*
X07022Y12161D01*
X07022Y12161D02*
X07051Y12111D01*
X07051Y12111D02*
X07068Y12057D01*
X07068Y12057D02*
X07075Y12000D01*
X07075Y13000D02*
X07068Y12943D01*
X07068Y12943D02*
X07051Y12889D01*
X07051Y12889D02*
X07022Y12839D01*
X07022Y12839D02*
X06984Y12796D01*
X06984Y12796D02*
X06937Y12762D01*
X06937Y12762D02*
X06884Y12739D01*
X06884Y12739D02*
X06828Y12727D01*
X06828Y12727D02*
X06772Y12727D01*
X06772Y12727D02*
X06716Y12739D01*
X06716Y12739D02*
X06663Y12762D01*
X06663Y12762D02*
X06616Y12796D01*
X06616Y12796D02*
X06578Y12839D01*
X06578Y12839D02*
X06549Y12889D01*
X06549Y12889D02*
X06532Y12943D01*
X06532Y12943D02*
X06525Y13000D01*
X06525Y13000D02*
X06532Y13057D01*
X06532Y13057D02*
X06549Y13111D01*
X06549Y13111D02*
X06578Y13161D01*
X06578Y13161D02*
X06616Y13204D01*
X06616Y13204D02*
X06663Y13238D01*
X06663Y13238D02*
X06716Y13261D01*
X06716Y13261D02*
X06772Y13273D01*
X06772Y13273D02*
X06828Y13273D01*
X06828Y13273D02*
X06884Y13261D01*
X06884Y13261D02*
X06937Y13238D01*
X06937Y13238D02*
X06984Y13204D01*
X06984Y13204D02*
X07022Y13161D01*
X07022Y13161D02*
X07051Y13111D01*
X07051Y13111D02*
X07068Y13057D01*
X07068Y13057D02*
X07075Y13000D01*
X07075Y14000D02*
X07068Y13943D01*
X07068Y13943D02*
X07051Y13889D01*
X07051Y13889D02*
X07022Y13839D01*
X07022Y13839D02*
X06984Y13796D01*
X06984Y13796D02*
X06937Y13762D01*
X06937Y13762D02*
X06884Y13739D01*
X06884Y13739D02*
X06828Y13727D01*
X06828Y13727D02*
X06772Y13727D01*
X06772Y13727D02*
X06716Y13739D01*
X06716Y13739D02*
X06663Y13762D01*
X06663Y13762D02*
X06616Y13796D01*
X06616Y13796D02*
X06578Y13839D01*
X06578Y13839D02*
X06549Y13889D01*
X06549Y13889D02*
X06532Y13943D01*
X06532Y13943D02*
X06525Y14000D01*
X06525Y14000D02*
X06532Y14057D01*
X06532Y14057D02*
X06549Y14111D01*
X06549Y14111D02*
X06578Y14161D01*
X06578Y14161D02*
X06616Y14204D01*
X06616Y14204D02*
X06663Y14238D01*
X06663Y14238D02*
X06716Y14261D01*
X06716Y14261D02*
X06772Y14273D01*
X06772Y14273D02*
X06828Y14273D01*
X06828Y14273D02*
X06884Y14261D01*
X06884Y14261D02*
X06937Y14238D01*
X06937Y14238D02*
X06984Y14204D01*
X06984Y14204D02*
X07022Y14161D01*
X07022Y14161D02*
X07051Y14111D01*
X07051Y14111D02*
X07068Y14057D01*
X07068Y14057D02*
X07075Y14000D01*
X07075Y15000D02*
X07068Y14943D01*
X07068Y14943D02*
X07051Y14889D01*
X07051Y14889D02*
X07022Y14839D01*
X07022Y14839D02*
X06984Y14796D01*
X06984Y14796D02*
X06937Y14762D01*
X06937Y14762D02*
X06884Y14739D01*
X06884Y14739D02*
X06828Y14727D01*
X06828Y14727D02*
X06772Y14727D01*
X06772Y14727D02*
X06716Y14739D01*
X06716Y14739D02*
X06663Y14762D01*
X06663Y14762D02*
X06616Y14796D01*
X06616Y14796D02*
X06578Y14839D01*
X06578Y14839D02*
X06549Y14889D01*
X06549Y14889D02*
X06532Y14943D01*
X06532Y14943D02*
X06525Y15000D01*
X06525Y15000D02*
X06532Y15057D01*
X06532Y15057D02*
X06549Y15111D01*
X06549Y15111D02*
X06578Y15161D01*
X06578Y15161D02*
X06616Y15204D01*
X06616Y15204D02*
X06663Y15238D01*
X06663Y15238D02*
X06716Y15261D01*
X06716Y15261D02*
X06772Y15273D01*
X06772Y15273D02*
X06828Y15273D01*
X06828Y15273D02*
X06884Y15261D01*
X06884Y15261D02*
X06937Y15238D01*
X06937Y15238D02*
X06984Y15204D01*
X06984Y15204D02*
X07022Y15161D01*
X07022Y15161D02*
X07051Y15111D01*
X07051Y15111D02*
X07068Y15057D01*
X07068Y15057D02*
X07075Y15000D01*
X07075Y16000D02*
X07068Y15943D01*
X07068Y15943D02*
X07051Y15889D01*
X07051Y15889D02*
X07022Y15839D01*
X07022Y15839D02*
X06984Y15796D01*
X06984Y15796D02*
X06937Y15762D01*
X06937Y15762D02*
X06884Y15739D01*
X06884Y15739D02*
X06828Y15727D01*
X06828Y15727D02*
X06772Y15727D01*
X06772Y15727D02*
X06716Y15739D01*
X06716Y15739D02*
X06663Y15762D01*
X06663Y15762D02*
X06616Y15796D01*
X06616Y15796D02*
X06578Y15839D01*
X06578Y15839D02*
X06549Y15889D01*
X06549Y15889D02*
X06532Y15943D01*
X06532Y15943D02*
X06525Y16000D01*
X06525Y16000D02*
X06532Y16057D01*
X06532Y16057D02*
X06549Y16111D01*
X06549Y16111D02*
X06578Y16161D01*
X06578Y16161D02*
X06616Y16204D01*
X06616Y16204D02*
X06663Y16238D01*
X06663Y16238D02*
X06716Y16261D01*
X06716Y16261D02*
X06772Y16273D01*
X06772Y16273D02*
X06828Y16273D01*
X06828Y16273D02*
X06884Y16261D01*
X06884Y16261D02*
X06937Y16238D01*
X06937Y16238D02*
X06984Y16204D01*
X06984Y16204D02*
X07022Y16161D01*
X07022Y16161D02*
X07051Y16111D01*
X07051Y16111D02*
X07068Y16057D01*
X07068Y16057D02*
X07075Y16000D01*
G54D16*
X07933Y02853D02*
X07982Y02810D01*
X07982Y02810D02*
X08226Y02810D01*
X08226Y02810D02*
X08275Y02853D01*
X08275Y02853D02*
X08275Y02983D01*
X08275Y02983D02*
X08226Y03026D01*
X08226Y03026D02*
X07982Y03026D01*
X07982Y03026D02*
X07933Y03070D01*
X07933Y03070D02*
X07933Y03156D01*
X07933Y03156D02*
X07982Y03200D01*
X07982Y03200D02*
X08226Y03200D01*
X08226Y03200D02*
X08275Y03156D01*
X08401Y03200D02*
X08401Y02810D01*
X08401Y02810D02*
X08791Y02810D01*
X08967Y02810D02*
X09162Y02810D01*
X09064Y02810D02*
X09064Y03200D01*
X09064Y03156D02*
X08967Y03070D01*
X07941Y03092D02*
X07441Y03092D01*
X07441Y03092D02*
X07664Y03342D01*
X07664Y03342D02*
X07441Y03592D01*
X07441Y03592D02*
X07941Y03592D01*
X07941Y03807D02*
X07941Y04057D01*
X07941Y03932D02*
X07441Y03932D01*
X07497Y03932D02*
X07608Y03807D01*
X07497Y04710D02*
X07441Y04647D01*
X07441Y04647D02*
X07441Y04335D01*
X07441Y04335D02*
X07497Y04272D01*
X07497Y04272D02*
X07886Y04272D01*
X07886Y04272D02*
X07941Y04335D01*
X07941Y04335D02*
X07941Y04647D01*
X07941Y04647D02*
X07886Y04710D01*
X07886Y04710D02*
X07719Y04710D01*
X07719Y04710D02*
X07664Y04647D01*
X07664Y04647D02*
X07664Y04335D01*
X07664Y04335D02*
X07719Y04272D01*
X10610Y02520D02*
X10388Y02832D01*
X10388Y02832D02*
X10110Y02520D01*
X10110Y03047D02*
X10610Y03297D01*
X10610Y03297D02*
X10110Y03547D01*
X10610Y03637D02*
X10222Y03637D01*
X10222Y03637D02*
X10110Y03762D01*
X10110Y03762D02*
X10110Y03950D01*
X10110Y03950D02*
X10222Y04075D01*
X10222Y04075D02*
X10610Y04075D01*
X10333Y03637D02*
X10333Y04075D01*
X10110Y04227D02*
X10610Y04227D01*
X10610Y04227D02*
X10610Y04727D01*
X10110Y04817D02*
X10555Y04817D01*
X10555Y04817D02*
X10610Y04880D01*
X10610Y04880D02*
X10610Y05192D01*
X10610Y05192D02*
X10555Y05255D01*
X10555Y05255D02*
X10110Y05255D01*
X10610Y05845D02*
X10610Y05407D01*
X10610Y05407D02*
X10110Y05407D01*
X10110Y05407D02*
X10110Y05845D01*
X10333Y05407D02*
X10333Y05657D01*
X03207Y00963D02*
X03250Y01012D01*
X03250Y01012D02*
X03250Y01256D01*
X03250Y01256D02*
X03207Y01305D01*
X03207Y01305D02*
X03077Y01305D01*
X03077Y01305D02*
X03034Y01256D01*
X03034Y01256D02*
X03034Y01012D01*
X03034Y01012D02*
X02990Y00963D01*
X02990Y00963D02*
X02904Y00963D01*
X02904Y00963D02*
X02860Y01012D01*
X02860Y01012D02*
X02860Y01256D01*
X02860Y01256D02*
X02904Y01305D01*
X02860Y01431D02*
X03250Y01431D01*
X03250Y01431D02*
X03250Y01821D01*
X03250Y02241D02*
X03250Y01899D01*
X03250Y01899D02*
X03120Y01899D01*
X03120Y01899D02*
X03077Y01948D01*
X03077Y01948D02*
X03077Y02192D01*
X03077Y02192D02*
X03034Y02241D01*
X03034Y02241D02*
X02904Y02241D01*
X02904Y02241D02*
X02860Y02192D01*
X02860Y02192D02*
X02860Y01948D01*
X02860Y01948D02*
X02904Y01899D01*
X03142Y02159D02*
X03142Y02659D01*
X03142Y02659D02*
X03392Y02436D01*
X03392Y02436D02*
X03642Y02659D01*
X03642Y02659D02*
X03642Y02159D01*
X03732Y02159D02*
X04170Y02659D01*
X03732Y02214D02*
X03732Y02603D01*
X03732Y02603D02*
X03795Y02659D01*
X03795Y02659D02*
X04107Y02659D01*
X04107Y02659D02*
X04170Y02603D01*
X04170Y02603D02*
X04170Y02214D01*
X04170Y02214D02*
X04107Y02159D01*
X04107Y02159D02*
X03795Y02159D01*
X03795Y02159D02*
X03732Y02214D01*
X04322Y02270D02*
X04322Y02214D01*
X04322Y02214D02*
X04385Y02159D01*
X04385Y02159D02*
X04697Y02159D01*
X04697Y02159D02*
X04760Y02214D01*
X04760Y02214D02*
X04760Y02381D01*
X04760Y02381D02*
X04635Y02492D01*
X04635Y02492D02*
X04322Y02492D01*
X04322Y02492D02*
X04322Y02659D01*
X04322Y02659D02*
X04760Y02659D01*
X02570Y-00510D02*
X02882Y-00288D01*
X02882Y-00288D02*
X02570Y-00010D01*
X03097Y-00010D02*
X03347Y-00510D01*
X03347Y-00510D02*
X03597Y-00010D01*
X03687Y-00510D02*
X03687Y-00122D01*
X03687Y-00122D02*
X03812Y-00010D01*
X03812Y-00010D02*
X04000Y-00010D01*
X04000Y-00010D02*
X04125Y-00122D01*
X04125Y-00122D02*
X04125Y-00510D01*
X03687Y-00233D02*
X04125Y-00233D01*
X04277Y-00010D02*
X04277Y-00510D01*
X04277Y-00510D02*
X04777Y-00510D01*
X04867Y-00010D02*
X04867Y-00455D01*
X04867Y-00455D02*
X04930Y-00510D01*
X04930Y-00510D02*
X05242Y-00510D01*
X05242Y-00510D02*
X05305Y-00455D01*
X05305Y-00455D02*
X05305Y-00010D01*
X05895Y-00510D02*
X05457Y-00510D01*
X05457Y-00510D02*
X05457Y-00010D01*
X05457Y-00010D02*
X05895Y-00010D01*
X05457Y-00233D02*
X05707Y-00233D01*
X00963Y14843D02*
X01012Y14800D01*
X01012Y14800D02*
X01256Y14800D01*
X01256Y14800D02*
X01305Y14843D01*
X01305Y14843D02*
X01305Y14973D01*
X01305Y14973D02*
X01256Y15016D01*
X01256Y15016D02*
X01012Y15016D01*
X01012Y15016D02*
X00963Y15060D01*
X00963Y15060D02*
X00963Y15146D01*
X00963Y15146D02*
X01012Y15190D01*
X01012Y15190D02*
X01256Y15190D01*
X01256Y15190D02*
X01305Y15146D01*
X01431Y15190D02*
X01431Y14800D01*
X01431Y14800D02*
X01821Y14800D01*
X01899Y15190D02*
X02241Y15190D01*
X02241Y15190D02*
X02241Y15146D01*
X02241Y15146D02*
X02046Y15016D01*
X02046Y15016D02*
X02192Y15016D01*
X02192Y15016D02*
X02241Y14973D01*
X02241Y14973D02*
X02241Y14843D01*
X02241Y14843D02*
X02192Y14800D01*
X02192Y14800D02*
X01948Y14800D01*
X01948Y14800D02*
X01899Y14843D01*
X02659Y13392D02*
X02159Y13392D01*
X02159Y13392D02*
X02382Y13642D01*
X02382Y13642D02*
X02159Y13892D01*
X02159Y13892D02*
X02659Y13892D01*
X02659Y13982D02*
X02159Y14420D01*
X02604Y13982D02*
X02215Y13982D01*
X02215Y13982D02*
X02159Y14045D01*
X02159Y14045D02*
X02159Y14357D01*
X02159Y14357D02*
X02215Y14420D01*
X02215Y14420D02*
X02604Y14420D01*
X02604Y14420D02*
X02659Y14357D01*
X02659Y14357D02*
X02659Y14045D01*
X02659Y14045D02*
X02604Y13982D01*
X02215Y15010D02*
X02159Y14947D01*
X02159Y14947D02*
X02159Y14635D01*
X02159Y14635D02*
X02215Y14572D01*
X02215Y14572D02*
X02604Y14572D01*
X02604Y14572D02*
X02659Y14635D01*
X02659Y14635D02*
X02659Y14947D01*
X02659Y14947D02*
X02604Y15010D01*
X02604Y15010D02*
X02437Y15010D01*
X02437Y15010D02*
X02382Y14947D01*
X02382Y14947D02*
X02382Y14635D01*
X02382Y14635D02*
X02437Y14572D01*
X-00010Y12320D02*
X-00232Y12632D01*
X-00232Y12632D02*
X-00510Y12320D01*
X-00510Y12847D02*
X-00010Y13097D01*
X-00010Y13097D02*
X-00510Y13347D01*
X-00010Y13437D02*
X-00398Y13437D01*
X-00398Y13437D02*
X-00510Y13562D01*
X-00510Y13562D02*
X-00510Y13750D01*
X-00510Y13750D02*
X-00398Y13875D01*
X-00398Y13875D02*
X-00010Y13875D01*
X-00287Y13437D02*
X-00287Y13875D01*
X-00510Y14027D02*
X-00010Y14027D01*
X-00010Y14027D02*
X-00010Y14527D01*
X-00510Y14617D02*
X-00065Y14617D01*
X-00065Y14617D02*
X-00010Y14680D01*
X-00010Y14680D02*
X-00010Y14992D01*
X-00010Y14992D02*
X-00065Y15055D01*
X-00065Y15055D02*
X-00510Y15055D01*
X-00010Y15645D02*
X-00010Y15207D01*
X-00010Y15207D02*
X-00510Y15207D01*
X-00510Y15207D02*
X-00510Y15645D01*
X-00287Y15207D02*
X-00287Y15457D01*
X01850Y13242D02*
X01350Y13242D01*
X01350Y13242D02*
X01350Y13617D01*
X01350Y13617D02*
X01406Y13680D01*
X01406Y13680D02*
X01573Y13680D01*
X01573Y13680D02*
X01628Y13617D01*
X01628Y13617D02*
X01628Y13242D01*
X01628Y13430D02*
X01850Y13680D01*
X01850Y13832D02*
X01350Y13832D01*
X01350Y13832D02*
X01850Y14270D01*
X01850Y14270D02*
X01350Y14270D01*
X01850Y14547D02*
X01850Y14797D01*
X01850Y14672D02*
X01350Y14672D01*
X01406Y14672D02*
X01517Y14547D01*
X03850Y13197D02*
X03350Y13197D01*
X03350Y13197D02*
X03350Y13572D01*
X03350Y13572D02*
X03406Y13635D01*
X03406Y13635D02*
X03573Y13635D01*
X03573Y13635D02*
X03628Y13572D01*
X03628Y13572D02*
X03628Y13197D01*
X03628Y13385D02*
X03850Y13635D01*
X03850Y13787D02*
X03350Y13787D01*
X03350Y13787D02*
X03850Y14225D01*
X03850Y14225D02*
X03350Y14225D01*
X03850Y14377D02*
X03350Y14815D01*
X03795Y14377D02*
X03406Y14377D01*
X03406Y14377D02*
X03350Y14440D01*
X03350Y14440D02*
X03350Y14752D01*
X03350Y14752D02*
X03406Y14815D01*
X03406Y14815D02*
X03795Y14815D01*
X03795Y14815D02*
X03850Y14752D01*
X03850Y14752D02*
X03850Y14440D01*
X03850Y14440D02*
X03795Y14377D01*
X03739Y14967D02*
X03795Y14967D01*
X03795Y14967D02*
X03850Y15030D01*
X03850Y15030D02*
X03850Y15342D01*
X03850Y15342D02*
X03795Y15405D01*
X03795Y15405D02*
X03628Y15405D01*
X03628Y15405D02*
X03517Y15280D01*
X03517Y15280D02*
X03517Y14967D01*
X03517Y14967D02*
X03350Y14967D01*
X03350Y14967D02*
X03350Y15405D01*
G54D17*
X05000Y13504D02*
X05534Y13504D01*
X05534Y13504D02*
X05600Y13560D01*
X05600Y13560D02*
X05600Y13841D01*
X05600Y13841D02*
X05534Y13898D01*
X05534Y13898D02*
X05000Y13898D01*
X05600Y14236D02*
X05600Y14461D01*
X05600Y14349D02*
X05000Y14349D01*
X05067Y14349D02*
X05200Y14236D01*
X05600Y03144D02*
X05000Y03144D01*
X05000Y03144D02*
X05267Y03369D01*
X05267Y03369D02*
X05000Y03594D01*
X05000Y03594D02*
X05600Y03594D01*
X05534Y04158D02*
X05600Y04101D01*
X05600Y04101D02*
X05600Y03820D01*
X05600Y03820D02*
X05534Y03764D01*
X05534Y03764D02*
X05067Y03764D01*
X05067Y03764D02*
X05000Y03820D01*
X05000Y03820D02*
X05000Y04101D01*
X05000Y04101D02*
X05067Y04158D01*
X05600Y04384D02*
X05000Y04384D01*
X05000Y04384D02*
X05000Y04721D01*
X05000Y04721D02*
X05067Y04778D01*
X05067Y04778D02*
X05267Y04778D01*
X05267Y04778D02*
X05334Y04721D01*
X05334Y04721D02*
X05334Y04384D01*
X05600Y05398D02*
X05600Y05004D01*
X05600Y05004D02*
X05400Y05004D01*
X05400Y05004D02*
X05334Y05060D01*
X05334Y05060D02*
X05334Y05341D01*
X05334Y05341D02*
X05267Y05398D01*
X05267Y05398D02*
X05067Y05398D01*
X05067Y05398D02*
X05000Y05341D01*
X05000Y05341D02*
X05000Y05060D01*
X05000Y05060D02*
X05067Y05004D01*
X05000Y05624D02*
X05000Y06018D01*
X05000Y06018D02*
X05067Y06018D01*
X05067Y06018D02*
X05267Y05793D01*
X05267Y05793D02*
X05267Y05961D01*
X05267Y05961D02*
X05334Y06018D01*
X05334Y06018D02*
X05534Y06018D01*
X05534Y06018D02*
X05600Y05961D01*
X05600Y05961D02*
X05600Y05680D01*
X05600Y05680D02*
X05534Y05624D01*
X05600Y06244D02*
X05000Y06638D01*
X05534Y06244D02*
X05067Y06244D01*
X05067Y06244D02*
X05000Y06300D01*
X05000Y06300D02*
X05000Y06581D01*
X05000Y06581D02*
X05067Y06638D01*
X05067Y06638D02*
X05534Y06638D01*
X05534Y06638D02*
X05600Y06581D01*
X05600Y06581D02*
X05600Y06300D01*
X05600Y06300D02*
X05534Y06244D01*
X05600Y06976D02*
X05600Y07201D01*
X05600Y07089D02*
X05000Y07089D01*
X05067Y07089D02*
X05200Y06976D01*
X05067Y07878D02*
X05000Y07821D01*
X05000Y07821D02*
X05000Y07540D01*
X05000Y07540D02*
X05067Y07484D01*
X05067Y07484D02*
X05534Y07484D01*
X05534Y07484D02*
X05600Y07540D01*
X05600Y07540D02*
X05600Y07821D01*
X05600Y07821D02*
X05534Y07878D01*
X05534Y07878D02*
X05334Y07878D01*
X05334Y07878D02*
X05267Y07821D01*
X05267Y07821D02*
X05267Y07540D01*
X05267Y07540D02*
X05334Y07484D01*
G54D11*
X05498Y07059D02*
X05525Y07027D01*
X05525Y07027D02*
X05525Y06871D01*
X05525Y06871D02*
X05498Y06840D01*
X05498Y06840D02*
X05303Y06840D01*
X05303Y06840D02*
X05275Y06871D01*
X05275Y06871D02*
X05275Y07027D01*
X05275Y07027D02*
X05303Y07059D01*
X05525Y07229D02*
X05525Y07354D01*
X05525Y07292D02*
X05275Y07292D01*
X05303Y07292D02*
X05359Y07229D01*
X05367Y04459D02*
X05400Y04421D01*
X05400Y04421D02*
X05400Y04234D01*
X05400Y04234D02*
X05367Y04196D01*
X05367Y04196D02*
X05134Y04196D01*
X05134Y04196D02*
X05100Y04234D01*
X05100Y04234D02*
X05100Y04421D01*
X05100Y04421D02*
X05134Y04459D01*
X05400Y04842D02*
X05400Y04579D01*
X05400Y04579D02*
X05300Y04579D01*
X05300Y04579D02*
X05267Y04617D01*
X05267Y04617D02*
X05267Y04804D01*
X05267Y04804D02*
X05234Y04842D01*
X05234Y04842D02*
X05134Y04842D01*
X05134Y04842D02*
X05100Y04804D01*
X05100Y04804D02*
X05100Y04617D01*
X05100Y04617D02*
X05134Y04579D01*
X05359Y09802D02*
X05327Y09775D01*
X05327Y09775D02*
X05171Y09775D01*
X05171Y09775D02*
X05140Y09802D01*
X05140Y09802D02*
X05140Y09997D01*
X05140Y09997D02*
X05171Y10025D01*
X05171Y10025D02*
X05327Y10025D01*
X05327Y10025D02*
X05359Y09997D01*
X05467Y10025D02*
X05686Y10025D01*
X05686Y10025D02*
X05686Y09997D01*
X05686Y09997D02*
X05561Y09913D01*
X05561Y09913D02*
X05654Y09913D01*
X05654Y09913D02*
X05686Y09886D01*
X05686Y09886D02*
X05686Y09802D01*
X05686Y09802D02*
X05654Y09775D01*
X05654Y09775D02*
X05498Y09775D01*
X05498Y09775D02*
X05467Y09802D01*
X05525Y08340D02*
X05275Y08340D01*
X05275Y08340D02*
X05275Y08527D01*
X05275Y08527D02*
X05303Y08559D01*
X05303Y08559D02*
X05387Y08559D01*
X05387Y08559D02*
X05414Y08527D01*
X05414Y08527D02*
X05414Y08340D01*
X05414Y08434D02*
X05525Y08559D01*
X05525Y08729D02*
X05525Y08854D01*
X05525Y08792D02*
X05275Y08792D01*
X05303Y08792D02*
X05359Y08729D01*
M02*
