G04 (Genere par PCBNEW (2007-07-09)) le 20/1/2008-12:32:42*
G01*
G70*
G90*
%MOIN*%
G04 Gerber Fmt 3.4, Leading zero omitted, Abs format*
%FSLAX34Y34*%
G04 APERTURE LIST*
%ADD10C,0.015000*%
%ADD11O,0.080000X0.055000*%
%ADD12R,0.196900X0.196900*%
%ADD13O,0.070000X0.400000*%
%ADD14R,0.062000X0.090000*%
%ADD15O,0.062000X0.090000*%
%ADD16R,0.070000X0.070000*%
%ADD17C,0.070000*%
%ADD18O,0.056000X0.112000*%
%ADD19O,0.088500X0.177000*%
%ADD20O,0.059000X0.118100*%
%ADD21O,0.177000X0.088500*%
%ADD22R,0.065000X0.065000*%
%ADD23C,0.065000*%
%ADD24C,0.045000*%
%ADD25C,0.050000*%
%ADD26C,0.036000*%
%ADD27C,0.042000*%
%ADD28C,0.032000*%
%ADD29C,0.024000*%
%ADD30C,0.082000*%
%ADD31C,0.080000*%
%ADD32C,0.018000*%
%ADD33C,0.005000*%
%ADD34R,0.039400X0.100000*%
%ADD35R,0.027600X0.100000*%
%ADD36R,0.019700X0.100000*%
%ADD37R,0.100000X0.196900*%
%ADD38R,0.042000X0.090000*%
%ADD39R,0.420000X0.350000*%
%ADD40R,0.055000X0.035000*%
%ADD41R,0.035000X0.055000*%
%ADD42R,0.020000X0.045000*%
%ADD43R,0.070800X0.055100*%
%ADD44R,0.070000X0.085000*%
%ADD45R,0.036000X0.036000*%
%ADD46C,0.017000*%
%ADD47C,0.150000*%
%ADD48C,0.060000*%
%ADD49C,0.012000*%
%ADD50C,0.001000*%
%ADD51C,0.008000*%
%ADD52C,0.002600*%
%ADD53C,0.006000*%
%ADD54C,0.000100*%
%ADD55C,0.004000*%
%ADD56C,0.003500*%
G04 APERTURE END LIST*
G54D10*
X12050Y44100D02*
X11954Y43622D01*
X11954Y43622D02*
X11683Y43217D01*
X11683Y43217D02*
X11278Y42946D01*
X11278Y42946D02*
X10800Y42850D01*
X10800Y42850D02*
X10322Y42946D01*
X10322Y42946D02*
X09917Y43217D01*
X09917Y43217D02*
X09646Y43622D01*
X09646Y43622D02*
X09550Y44100D01*
X09550Y44100D02*
X09646Y44578D01*
X09646Y44578D02*
X09917Y44983D01*
X09917Y44983D02*
X10322Y45254D01*
X10322Y45254D02*
X10800Y45350D01*
X10800Y45350D02*
X11278Y45254D01*
X11278Y45254D02*
X11683Y44983D01*
X11683Y44983D02*
X11954Y44578D01*
X11954Y44578D02*
X12050Y44100D01*
X08300Y44100D02*
X13300Y44100D01*
X10800Y46600D02*
X10800Y41600D01*
X14050Y-19900D02*
X13954Y-20378D01*
X13954Y-20378D02*
X13683Y-20783D01*
X13683Y-20783D02*
X13278Y-21054D01*
X13278Y-21054D02*
X12800Y-21150D01*
X12800Y-21150D02*
X12322Y-21054D01*
X12322Y-21054D02*
X11917Y-20783D01*
X11917Y-20783D02*
X11646Y-20378D01*
X11646Y-20378D02*
X11550Y-19900D01*
X11550Y-19900D02*
X11646Y-19422D01*
X11646Y-19422D02*
X11917Y-19017D01*
X11917Y-19017D02*
X12322Y-18746D01*
X12322Y-18746D02*
X12800Y-18650D01*
X12800Y-18650D02*
X13278Y-18746D01*
X13278Y-18746D02*
X13683Y-19017D01*
X13683Y-19017D02*
X13954Y-19422D01*
X13954Y-19422D02*
X14050Y-19900D01*
X10300Y-19900D02*
X15300Y-19900D01*
X12800Y-17400D02*
X12800Y-22400D01*
X71050Y00100D02*
X70954Y-00378D01*
X70954Y-00378D02*
X70683Y-00783D01*
X70683Y-00783D02*
X70278Y-01054D01*
X70278Y-01054D02*
X69800Y-01150D01*
X69800Y-01150D02*
X69322Y-01054D01*
X69322Y-01054D02*
X68917Y-00783D01*
X68917Y-00783D02*
X68646Y-00378D01*
X68646Y-00378D02*
X68550Y00100D01*
X68550Y00100D02*
X68646Y00578D01*
X68646Y00578D02*
X68917Y00983D01*
X68917Y00983D02*
X69322Y01254D01*
X69322Y01254D02*
X69800Y01350D01*
X69800Y01350D02*
X70278Y01254D01*
X70278Y01254D02*
X70683Y00983D01*
X70683Y00983D02*
X70954Y00578D01*
X70954Y00578D02*
X71050Y00100D01*
X67300Y00100D02*
X72300Y00100D01*
X69800Y02600D02*
X69800Y-02400D01*
X71050Y26100D02*
X70954Y25622D01*
X70954Y25622D02*
X70683Y25217D01*
X70683Y25217D02*
X70278Y24946D01*
X70278Y24946D02*
X69800Y24850D01*
X69800Y24850D02*
X69322Y24946D01*
X69322Y24946D02*
X68917Y25217D01*
X68917Y25217D02*
X68646Y25622D01*
X68646Y25622D02*
X68550Y26100D01*
X68550Y26100D02*
X68646Y26578D01*
X68646Y26578D02*
X68917Y26983D01*
X68917Y26983D02*
X69322Y27254D01*
X69322Y27254D02*
X69800Y27350D01*
X69800Y27350D02*
X70278Y27254D01*
X70278Y27254D02*
X70683Y26983D01*
X70683Y26983D02*
X70954Y26578D01*
X70954Y26578D02*
X71050Y26100D01*
X67300Y26100D02*
X72300Y26100D01*
X69800Y28600D02*
X69800Y23600D01*
X-19950Y26100D02*
X-20046Y25622D01*
X-20046Y25622D02*
X-20317Y25217D01*
X-20317Y25217D02*
X-20722Y24946D01*
X-20722Y24946D02*
X-21200Y24850D01*
X-21200Y24850D02*
X-21678Y24946D01*
X-21678Y24946D02*
X-22083Y25217D01*
X-22083Y25217D02*
X-22354Y25622D01*
X-22354Y25622D02*
X-22450Y26100D01*
X-22450Y26100D02*
X-22354Y26578D01*
X-22354Y26578D02*
X-22083Y26983D01*
X-22083Y26983D02*
X-21678Y27254D01*
X-21678Y27254D02*
X-21200Y27350D01*
X-21200Y27350D02*
X-20722Y27254D01*
X-20722Y27254D02*
X-20317Y26983D01*
X-20317Y26983D02*
X-20046Y26578D01*
X-20046Y26578D02*
X-19950Y26100D01*
X-23700Y26100D02*
X-18700Y26100D01*
X-21200Y28600D02*
X-21200Y23600D01*
X-19950Y00100D02*
X-20046Y-00378D01*
X-20046Y-00378D02*
X-20317Y-00783D01*
X-20317Y-00783D02*
X-20722Y-01054D01*
X-20722Y-01054D02*
X-21200Y-01150D01*
X-21200Y-01150D02*
X-21678Y-01054D01*
X-21678Y-01054D02*
X-22083Y-00783D01*
X-22083Y-00783D02*
X-22354Y-00378D01*
X-22354Y-00378D02*
X-22450Y00100D01*
X-22450Y00100D02*
X-22354Y00578D01*
X-22354Y00578D02*
X-22083Y00983D01*
X-22083Y00983D02*
X-21678Y01254D01*
X-21678Y01254D02*
X-21200Y01350D01*
X-21200Y01350D02*
X-20722Y01254D01*
X-20722Y01254D02*
X-20317Y00983D01*
X-20317Y00983D02*
X-20046Y00578D01*
X-20046Y00578D02*
X-19950Y00100D01*
X-23700Y00100D02*
X-18700Y00100D01*
X-21200Y02600D02*
X-21200Y-02400D01*
X29000Y00000D02*
X29000Y26000D01*
X01250Y00000D02*
X01154Y-00478D01*
X01154Y-00478D02*
X00883Y-00883D01*
X00883Y-00883D02*
X00478Y-01154D01*
X00478Y-01154D02*
X00000Y-01250D01*
X00000Y-01250D02*
X-00478Y-01154D01*
X-00478Y-01154D02*
X-00883Y-00883D01*
X-00883Y-00883D02*
X-01154Y-00478D01*
X-01154Y-00478D02*
X-01250Y00000D01*
X-01250Y00000D02*
X-01154Y00478D01*
X-01154Y00478D02*
X-00883Y00883D01*
X-00883Y00883D02*
X-00478Y01154D01*
X-00478Y01154D02*
X00000Y01250D01*
X00000Y01250D02*
X00478Y01154D01*
X00478Y01154D02*
X00883Y00883D01*
X00883Y00883D02*
X01154Y00478D01*
X01154Y00478D02*
X01250Y00000D01*
X-02500Y00000D02*
X02500Y00000D01*
X00000Y02500D02*
X00000Y-02500D01*
X00000Y00000D02*
X00000Y26000D01*
X29000Y00000D02*
X00000Y00000D01*
X00000Y26000D02*
X29000Y26000D01*
M02*
