M48
;DRILL file {PCBNEW (2007-07-09)} date 5/12/2007-21:47:09
;FORMAT={2:4 / absolute / pollici / decimal format}
R,T
VER,1
FMAT,2
INCH,TZ
TCST,OFF
ICI,OFF
ATC,ON
T1C0.012
T2C0.016
T3C0.020
T4C0.025
T5C0.032
T6C0.036
T7C0.040
T8C0.044
T9C0.059
%
M47
G05
M72
T1
X4.250Y-2.364
T2
X4.250Y-2.171
X4.144Y-2.265
T3
X3.320Y-2.250G85X3.320Y-2.250
G05
X3.420Y-2.250G85X3.420Y-2.250
G05
X3.320Y-2.150G85X3.320Y-2.150
G05
X3.420Y-2.150G85X3.420Y-2.150
G05
X3.320Y-2.050G85X3.320Y-2.050
G05
X3.420Y-2.050G85X3.420Y-2.050
G05
X3.320Y-1.950G85X3.320Y-1.950
G05
X3.420Y-1.950G85X3.420Y-1.950
G05
X3.320Y-1.850G85X3.320Y-1.850
G05
X3.420Y-1.850G85X3.420Y-1.850
G05
X3.320Y-1.750G85X3.320Y-1.750
G05
X3.420Y-1.750G85X3.420Y-1.750
G05
X3.320Y-1.650G85X3.320Y-1.650
G05
X3.420Y-1.650G85X3.420Y-1.650
G05
X3.320Y-1.550G85X3.320Y-1.550
G05
X3.420Y-1.550G85X3.420Y-1.550
G05
X3.320Y-1.450G85X3.320Y-1.450
G05
X3.420Y-1.450G85X3.420Y-1.450
G05
X3.320Y-1.350G85X3.320Y-1.350
G05
X3.420Y-1.350G85X3.420Y-1.350
G05
X3.320Y-1.250G85X3.320Y-1.250
G05
X3.420Y-1.250G85X3.420Y-1.250
G05
X3.320Y-1.150G85X3.320Y-1.150
G05
X3.420Y-1.150G85X3.420Y-1.150
G05
X3.320Y-1.050G85X3.320Y-1.050
G05
X3.420Y-1.050G85X3.420Y-1.050
G05
X3.320Y-0.950G85X3.320Y-0.950
G05
X3.420Y-0.950G85X3.420Y-0.950
G05
X3.320Y-0.850G85X3.320Y-0.850
G05
X3.420Y-0.850G85X3.420Y-0.850
G05
X3.320Y-0.750G85X3.320Y-0.750
G05
X3.420Y-0.750G85X3.420Y-0.750
G05
X3.320Y-0.650G85X3.320Y-0.650
G05
X3.420Y-0.650G85X3.420Y-0.650
G05
X3.320Y-0.550G85X3.320Y-0.550
G05
X3.420Y-0.550G85X3.420Y-0.550
G05
X3.320Y-0.450G85X3.320Y-0.450
G05
X3.420Y-0.450G85X3.420Y-0.450
G05
X3.320Y-0.350G85X3.320Y-0.350
G05
X3.420Y-0.350G85X3.420Y-0.350
G05
X6.020Y-2.250G85X6.020Y-2.250
G05
X5.920Y-2.250G85X5.920Y-2.250
G05
X5.920Y-2.150G85X5.920Y-2.150
G05
X6.020Y-2.150G85X6.020Y-2.150
G05
X5.920Y-2.050G85X5.920Y-2.050
G05
X6.020Y-2.050G85X6.020Y-2.050
G05
X5.920Y-1.950G85X5.920Y-1.950
G05
X6.020Y-1.950G85X6.020Y-1.950
G05
X5.920Y-1.850G85X5.920Y-1.850
G05
X6.020Y-1.850G85X6.020Y-1.850
G05
X5.920Y-1.750G85X5.920Y-1.750
G05
X6.020Y-1.750G85X6.020Y-1.750
G05
X5.920Y-1.650G85X5.920Y-1.650
G05
X6.020Y-1.650G85X6.020Y-1.650
G05
X5.920Y-1.550G85X5.920Y-1.550
G05
X6.020Y-1.550G85X6.020Y-1.550
G05
X5.920Y-1.450G85X5.920Y-1.450
G05
X6.020Y-1.450G85X6.020Y-1.450
G05
X5.920Y-1.350G85X5.920Y-1.350
G05
X6.020Y-1.350G85X6.020Y-1.350
G05
X5.920Y-1.250G85X5.920Y-1.250
G05
X6.020Y-1.250G85X6.020Y-1.250
G05
X5.920Y-1.150G85X5.920Y-1.150
G05
X6.020Y-1.150G85X6.020Y-1.150
G05
X5.920Y-1.050G85X5.920Y-1.050
G05
X6.020Y-1.050G85X6.020Y-1.050
G05
X5.920Y-0.950G85X5.920Y-0.950
G05
X6.020Y-0.950G85X6.020Y-0.950
G05
X5.920Y-0.850G85X5.920Y-0.850
G05
X6.020Y-0.850G85X6.020Y-0.850
G05
X5.920Y-0.750G85X5.920Y-0.750
G05
X6.020Y-0.750G85X6.020Y-0.750
G05
X5.920Y-0.650G85X5.920Y-0.650
G05
X6.020Y-0.650G85X6.020Y-0.650
G05
X5.920Y-0.550G85X5.920Y-0.550
G05
X6.020Y-0.550G85X6.020Y-0.550
G05
X5.920Y-0.450G85X5.920Y-0.450
G05
X6.020Y-0.450G85X6.020Y-0.450
G05
X5.920Y-0.350G85X5.920Y-0.350
G05
X6.020Y-0.350G85X6.020Y-0.350
G05
T4
X5.830Y-0.970
X4.980Y-1.030
X5.080Y-1.030
X5.370Y-1.060
X5.180Y-1.060
X3.790Y-0.590
X5.310Y-0.550
X5.410Y-1.170
X5.570Y-1.060
X3.500Y-1.180
X3.500Y-0.650
X3.590Y-0.560
X3.700Y-0.800
X5.720Y-0.810
X5.310Y-0.410
X3.870Y-0.570
T5
X5.500Y-0.360
X5.600Y-0.360
X5.700Y-0.360
X5.800Y-0.360
X5.800Y-0.660
X5.700Y-0.660
X5.600Y-0.660
X5.500Y-0.660
X3.970Y-1.840
X3.970Y-1.940
X4.520Y-0.410
X5.020Y-0.410
T6
X4.090Y-0.270
X3.990Y-0.270
X3.890Y-0.270
X3.790Y-0.270
X3.700Y-0.910
X3.800Y-0.910
X3.900Y-0.910
X4.000Y-0.910
X5.590Y-0.140
X5.690Y-0.140
T7
X4.485Y-1.520
X4.285Y-1.520
T8
X4.480Y-2.370
X4.480Y-1.970
T9
X4.290Y-1.690
X3.690Y-1.690
T0
M30
