M48
;DRILL file {PCBNEW (2007-07-09)} date 29/12/2007-16:50:12
;FORMAT={2:4 / absolute / pollici / decimal format}
R,T
VER,1
FMAT,2
INCH,TZ
TCST,OFF
ICI,OFF
ATC,ON
T1C0.012
T2C0.016
T3C0.025
T4C0.032
T5C0.036
T6C0.040
T7C0.044
T8C0.059
T9C0.118
%
M47
G05
M72
T1
X4.250Y-2.364
T2
X4.250Y-2.171
X4.144Y-2.265
T3
X3.810Y-0.520
X5.150Y-0.920
X5.360Y-0.870
X3.600Y-0.370
X5.310Y-0.550
X5.410Y-1.170
X5.570Y-1.060
X5.070Y-0.990
X4.980Y-1.020
X5.720Y-0.810
X3.550Y-1.940
X5.310Y-0.410
X3.870Y-0.570
T4
X5.500Y-0.360
X5.600Y-0.360
X5.700Y-0.360
X5.800Y-0.360
X5.800Y-0.660
X5.700Y-0.660
X5.600Y-0.660
X5.500Y-0.660
X3.970Y-1.840
X3.970Y-1.940
X4.520Y-0.410
X5.020Y-0.410
X3.320Y-2.250G85X3.320Y-2.250
G05
X3.420Y-2.250G85X3.420Y-2.250
G05
X3.320Y-2.150G85X3.320Y-2.150
G05
X3.420Y-2.150G85X3.420Y-2.150
G05
X3.320Y-2.050G85X3.320Y-2.050
G05
X3.420Y-2.050G85X3.420Y-2.050
G05
X3.320Y-1.950G85X3.320Y-1.950
G05
X3.420Y-1.950G85X3.420Y-1.950
G05
X3.320Y-1.850G85X3.320Y-1.850
G05
X3.420Y-1.850G85X3.420Y-1.850
G05
X3.320Y-1.750G85X3.320Y-1.750
G05
X3.420Y-1.750G85X3.420Y-1.750
G05
X3.320Y-1.650G85X3.320Y-1.650
G05
X3.420Y-1.650G85X3.420Y-1.650
G05
X3.320Y-1.550G85X3.320Y-1.550
G05
X3.420Y-1.550G85X3.420Y-1.550
G05
X3.320Y-1.450G85X3.320Y-1.450
G05
X3.420Y-1.450G85X3.420Y-1.450
G05
X3.320Y-1.350G85X3.320Y-1.350
G05
X3.420Y-1.350G85X3.420Y-1.350
G05
X3.320Y-1.250G85X3.320Y-1.250
G05
X3.420Y-1.250G85X3.420Y-1.250
G05
X3.320Y-1.150G85X3.320Y-1.150
G05
X3.420Y-1.150G85X3.420Y-1.150
G05
X3.320Y-1.050G85X3.320Y-1.050
G05
X3.420Y-1.050G85X3.420Y-1.050
G05
X3.320Y-0.950G85X3.320Y-0.950
G05
X3.420Y-0.950G85X3.420Y-0.950
G05
X3.320Y-0.850G85X3.320Y-0.850
G05
X3.420Y-0.850G85X3.420Y-0.850
G05
X3.320Y-0.750G85X3.320Y-0.750
G05
X3.420Y-0.750G85X3.420Y-0.750
G05
X3.320Y-0.650G85X3.320Y-0.650
G05
X3.420Y-0.650G85X3.420Y-0.650
G05
X3.320Y-0.550G85X3.320Y-0.550
G05
X3.420Y-0.550G85X3.420Y-0.550
G05
X3.320Y-0.450G85X3.320Y-0.450
G05
X3.420Y-0.450G85X3.420Y-0.450
G05
X3.320Y-0.350G85X3.320Y-0.350
G05
X3.420Y-0.350G85X3.420Y-0.350
G05
X6.020Y-2.250G85X6.020Y-2.250
G05
X5.920Y-2.250G85X5.920Y-2.250
G05
X5.920Y-2.150G85X5.920Y-2.150
G05
X6.020Y-2.150G85X6.020Y-2.150
G05
X5.920Y-2.050G85X5.920Y-2.050
G05
X6.020Y-2.050G85X6.020Y-2.050
G05
X5.920Y-1.950G85X5.920Y-1.950
G05
X6.020Y-1.950G85X6.020Y-1.950
G05
X5.920Y-1.850G85X5.920Y-1.850
G05
X6.020Y-1.850G85X6.020Y-1.850
G05
X5.920Y-1.750G85X5.920Y-1.750
G05
X6.020Y-1.750G85X6.020Y-1.750
G05
X5.920Y-1.650G85X5.920Y-1.650
G05
X6.020Y-1.650G85X6.020Y-1.650
G05
X5.920Y-1.550G85X5.920Y-1.550
G05
X6.020Y-1.550G85X6.020Y-1.550
G05
X5.920Y-1.450G85X5.920Y-1.450
G05
X6.020Y-1.450G85X6.020Y-1.450
G05
X5.920Y-1.350G85X5.920Y-1.350
G05
X6.020Y-1.350G85X6.020Y-1.350
G05
X5.920Y-1.250G85X5.920Y-1.250
G05
X6.020Y-1.250G85X6.020Y-1.250
G05
X5.920Y-1.150G85X5.920Y-1.150
G05
X6.020Y-1.150G85X6.020Y-1.150
G05
X5.920Y-1.050G85X5.920Y-1.050
G05
X6.020Y-1.050G85X6.020Y-1.050
G05
X5.920Y-0.950G85X5.920Y-0.950
G05
X6.020Y-0.950G85X6.020Y-0.950
G05
X5.920Y-0.850G85X5.920Y-0.850
G05
X6.020Y-0.850G85X6.020Y-0.850
G05
X5.920Y-0.750G85X5.920Y-0.750
G05
X6.020Y-0.750G85X6.020Y-0.750
G05
X5.920Y-0.650G85X5.920Y-0.650
G05
X6.020Y-0.650G85X6.020Y-0.650
G05
X5.920Y-0.550G85X5.920Y-0.550
G05
X6.020Y-0.550G85X6.020Y-0.550
G05
X5.920Y-0.450G85X5.920Y-0.450
G05
X6.020Y-0.450G85X6.020Y-0.450
G05
X5.920Y-0.350G85X5.920Y-0.350
G05
X6.020Y-0.350G85X6.020Y-0.350
G05
T5
X4.090Y-0.270
X3.990Y-0.270
X3.890Y-0.270
X3.790Y-0.270
X3.700Y-0.910
X3.800Y-0.910
X3.900Y-0.910
X4.000Y-0.910
X5.590Y-0.140
X5.690Y-0.140
T6
X4.485Y-1.520
X4.285Y-1.520
T7
X4.480Y-2.370
X4.480Y-1.970
T8
X4.260Y-1.680
X3.660Y-1.680
T9
X5.970Y-2.450
X5.970Y-0.150
X3.370Y-0.150
X3.370Y-2.450
T0
M30
