G04 (Genere par PCBNEW (2007-07-09)) le 2/12/2007-22:25:36*
G01*
G70*
G90*
%MOIN*%
G04 Gerber Fmt 3.4, Leading zero omitted, Abs format*
%FSLAX34Y34*%
G04 APERTURE LIST*
%ADD10C,0.015000*%
%ADD11O,0.070000X0.055000*%
%ADD12O,0.070000X0.050000*%
%ADD13R,0.062000X0.090000*%
%ADD14O,0.062000X0.090000*%
%ADD15R,0.070000X0.070000*%
%ADD16C,0.070000*%
%ADD17C,0.050000*%
%ADD18C,0.060000*%
%ADD19O,0.056000X0.112000*%
%ADD20O,0.088500X0.177000*%
%ADD21C,0.066000*%
%ADD22O,0.059000X0.118100*%
%ADD23C,0.045000*%
%ADD24C,0.018000*%
%ADD25C,0.036000*%
%ADD26C,0.024000*%
%ADD27R,0.019700X0.100000*%
%ADD28R,0.042000X0.090000*%
%ADD29R,0.420000X0.350000*%
%ADD30R,0.055000X0.035000*%
%ADD31R,0.035000X0.055000*%
%ADD32R,0.020000X0.045000*%
%ADD33R,0.070800X0.055100*%
%ADD34R,0.078700X0.078700*%
%ADD35C,0.050000*%
%ADD36C,0.017000*%
%ADD37C,0.040000*%
%ADD38C,0.080000*%
%ADD39C,0.200000*%
G04 APERTURE END LIST*
G54D10*
X01250Y00000D02*
X01154Y-00478D01*
X01154Y-00478D02*
X00883Y-00883D01*
X00883Y-00883D02*
X00478Y-01154D01*
X00478Y-01154D02*
X00000Y-01250D01*
X00000Y-01250D02*
X-00478Y-01154D01*
X-00478Y-01154D02*
X-00883Y-00883D01*
X-00883Y-00883D02*
X-01154Y-00478D01*
X-01154Y-00478D02*
X-01250Y00000D01*
X-01250Y00000D02*
X-01154Y00478D01*
X-01154Y00478D02*
X-00883Y00883D01*
X-00883Y00883D02*
X-00478Y01154D01*
X-00478Y01154D02*
X00000Y01250D01*
X00000Y01250D02*
X00478Y01154D01*
X00478Y01154D02*
X00883Y00883D01*
X00883Y00883D02*
X01154Y00478D01*
X01154Y00478D02*
X01250Y00000D01*
X-02500Y00000D02*
X02500Y00000D01*
X00000Y02500D02*
X00000Y-02500D01*
X00000Y00000D02*
X00000Y26000D01*
X29000Y00000D02*
X00000Y00000D01*
X29000Y26000D02*
X29000Y00000D01*
X00000Y26000D02*
X29000Y26000D01*
G54D27*
X17100Y10800D03*
X18100Y10800D03*
X19100Y10800D03*
X20100Y10800D03*
X21000Y10800D03*
X22000Y10800D03*
X23000Y10800D03*
X24000Y10800D03*
X16100Y10800D03*
X24400Y10800D03*
X24800Y10800D03*
G54D11*
X01000Y22500D03*
X02000Y22500D03*
X01000Y21500D03*
X02000Y21500D03*
X01000Y20500D03*
X02000Y20500D03*
X01000Y19500D03*
G54D12*
X02000Y19500D03*
G54D11*
X01000Y18500D03*
X02000Y18500D03*
X01000Y17500D03*
X02000Y17500D03*
X01000Y16500D03*
X02000Y16500D03*
X01000Y15500D03*
X02000Y15500D03*
X01000Y14500D03*
X02000Y14500D03*
X01000Y13500D03*
X02000Y13500D03*
X01000Y12500D03*
X02000Y12500D03*
X01000Y11500D03*
X02000Y11500D03*
X01000Y10500D03*
X02000Y10500D03*
X01000Y09500D03*
X02000Y09500D03*
X01000Y08500D03*
X02000Y08500D03*
X01000Y07500D03*
X02000Y07500D03*
X01000Y06500D03*
X02000Y06500D03*
X01000Y05500D03*
X02000Y05500D03*
X01000Y04500D03*
X02000Y04500D03*
X01000Y03500D03*
X02000Y03500D03*
X28000Y22500D03*
X27000Y22500D03*
X27000Y21500D03*
X28000Y21500D03*
X27000Y20500D03*
X28000Y20500D03*
X27000Y19500D03*
X28000Y19500D03*
X27000Y18500D03*
X28000Y18500D03*
X27000Y17500D03*
X28000Y17500D03*
X27000Y16500D03*
X28000Y16500D03*
X27000Y15500D03*
X28000Y15500D03*
X27000Y14500D03*
X28000Y14500D03*
X27000Y13500D03*
X28000Y13500D03*
X27000Y12500D03*
X28000Y12500D03*
X27000Y11500D03*
X28000Y11500D03*
X27000Y10500D03*
X28000Y10500D03*
X27000Y09500D03*
X28000Y09500D03*
X27000Y08500D03*
X28000Y08500D03*
X27000Y07500D03*
X28000Y07500D03*
X27000Y06500D03*
X28000Y06500D03*
X27000Y05500D03*
X28000Y05500D03*
X27000Y04500D03*
X28000Y04500D03*
X27000Y03500D03*
X28000Y03500D03*
G54D13*
X22800Y03600D03*
G54D14*
X23800Y03600D03*
X24800Y03600D03*
X25800Y03600D03*
X25800Y06600D03*
X24800Y06600D03*
X23800Y06600D03*
X22800Y06600D03*
G54D15*
X11750Y14300D03*
G54D16*
X09750Y14300D03*
G54D28*
X04060Y19400D03*
G54D29*
X05400Y22850D03*
G54D28*
X05400Y19400D03*
X04730Y19400D03*
X06070Y19400D03*
X06740Y19400D03*
G54D17*
X07500Y18400D03*
X07500Y19400D03*
G54D18*
X13000Y04100D03*
X18000Y04100D03*
G54D30*
X21700Y04575D03*
X21700Y03825D03*
X07500Y05825D03*
X07500Y06575D03*
G54D31*
X07575Y07400D03*
X06825Y07400D03*
G54D30*
X04500Y06675D03*
X04500Y05925D03*
G54D31*
X05325Y07400D03*
X06075Y07400D03*
X05325Y18400D03*
X06075Y18400D03*
X09525Y20300D03*
X10275Y20300D03*
G54D32*
X05250Y06650D03*
X05250Y04550D03*
X05750Y06650D03*
X06250Y06650D03*
X06750Y06650D03*
X05750Y04550D03*
X06250Y04550D03*
X06750Y04550D03*
G54D19*
X08700Y02700D03*
X07700Y02700D03*
X06700Y02700D03*
X05700Y02700D03*
X04800Y11000D03*
X05800Y11000D03*
X06800Y11000D03*
X07800Y11000D03*
G54D20*
X10700Y16400D03*
X04700Y16400D03*
G54D21*
X12600Y23700D03*
X12600Y19700D03*
G54D33*
X21700Y05431D03*
X21700Y06769D03*
G54D22*
X10300Y21709D03*
X10300Y23638D03*
X09238Y22654D03*
G54D34*
X05400Y13900D03*
X07800Y13900D03*
G54D32*
X23550Y04650D03*
X23550Y02550D03*
X24050Y04650D03*
X24550Y04650D03*
X25050Y04650D03*
X24050Y02550D03*
X24550Y02550D03*
X25050Y02550D03*
G54D19*
X23700Y01400D03*
X24700Y01400D03*
G54D23*
X26100Y09700D03*
X17600Y10300D03*
X18600Y10300D03*
X06800Y13500D03*
X21500Y10600D03*
X19600Y10600D03*
X18200Y11700D03*
X05700Y05900D03*
X06700Y08200D03*
X21500Y09100D03*
X04800Y08100D03*
X06000Y08400D03*
X06200Y09600D03*
X19000Y09400D03*
X20900Y05500D03*
X21900Y11700D03*
X23500Y10600D03*
X03700Y05600D03*
X02800Y06500D03*
X02800Y11800D03*
X07500Y08200D03*
X25000Y08100D03*
X20900Y04100D03*
X06500Y05700D03*
G54D24*
X28000Y10500D02*
X27600Y10100D01*
X27600Y10100D02*
X27600Y10000D01*
X27600Y10000D02*
X26400Y10000D01*
X26400Y10000D02*
X26100Y09700D01*
X17600Y10300D02*
X17100Y10800D01*
X18600Y10300D02*
X18100Y10800D01*
G54D35*
X01000Y22500D02*
X02000Y22500D01*
G54D36*
X09500Y20300D02*
X09525Y20300D01*
X09500Y20300D02*
X09525Y20300D01*
G54D25*
X07500Y19400D02*
X06740Y19400D01*
X05400Y19400D02*
X05300Y19300D01*
X05300Y19300D02*
X05300Y18400D01*
X05300Y18400D02*
X05325Y18400D01*
X09238Y22654D02*
X09200Y22700D01*
X09200Y22700D02*
X09500Y22400D01*
X09500Y22400D02*
X09500Y20300D01*
X09500Y20300D02*
X09525Y20300D01*
X09500Y20300D02*
X09525Y20300D01*
G54D35*
X06800Y11000D02*
X06800Y13500D01*
G54D24*
X22000Y10800D02*
X21700Y10800D01*
X21700Y10800D02*
X21500Y10600D01*
X19600Y10600D02*
X19300Y10600D01*
X19300Y10600D02*
X19100Y10800D01*
X18200Y11700D02*
X19100Y10800D01*
X06750Y04550D02*
X06600Y04700D01*
X05700Y05500D02*
X05700Y05900D01*
X06200Y05000D02*
X05700Y05500D01*
X06600Y05000D02*
X06200Y05000D01*
X06600Y04700D02*
X06600Y05000D01*
X06800Y08300D02*
X06800Y11000D01*
X06700Y08200D02*
X06800Y08300D01*
G54D26*
X05400Y19400D02*
X05400Y22850D01*
X06740Y19400D02*
X06740Y20400D01*
X06740Y20400D02*
X06740Y21510D01*
X06740Y21510D02*
X05400Y22850D01*
G54D35*
X07500Y19400D02*
X08500Y19400D01*
X08500Y19400D02*
X08500Y19400D01*
X08500Y19400D02*
X08625Y19400D01*
X08625Y19400D02*
X08800Y19575D01*
X08800Y19575D02*
X09400Y20175D01*
X09400Y20175D02*
X09525Y20300D01*
X09750Y14300D02*
X09750Y15450D01*
X09750Y15450D02*
X10700Y16400D01*
X10700Y16400D02*
X09800Y17300D01*
X09800Y16300D02*
X09800Y17100D01*
X09800Y17100D02*
X09800Y17300D01*
X09000Y18900D02*
X08600Y19300D01*
X08600Y19300D02*
X08500Y19400D01*
X28000Y03500D02*
X27000Y03500D01*
X02000Y22500D02*
X05050Y22500D01*
X05050Y22500D02*
X05400Y22850D01*
X09238Y22654D02*
X08900Y22654D01*
X08900Y22654D02*
X08500Y22654D01*
X08500Y22654D02*
X05596Y22654D01*
X05596Y22654D02*
X05400Y22850D01*
X08500Y19400D02*
X08500Y20900D01*
X08500Y20900D02*
X08500Y22500D01*
X08500Y22500D02*
X08500Y22654D01*
X08900Y22654D02*
X08900Y20000D01*
X08800Y19900D02*
X08800Y19575D01*
X08900Y20000D02*
X08800Y19900D01*
X09238Y22654D02*
X09238Y20438D01*
X07600Y20800D02*
X07900Y20500D01*
X07600Y21100D02*
X07600Y20800D01*
X07500Y21000D02*
X07600Y21100D01*
X07500Y20200D02*
X07500Y21000D01*
X08200Y20200D02*
X07500Y20200D01*
X08200Y22100D02*
X08200Y20200D01*
X08100Y22200D02*
X08200Y22100D01*
X07800Y22200D02*
X08100Y22200D01*
X07700Y22300D02*
X07800Y22200D01*
X07700Y21000D02*
X07700Y22300D01*
X07200Y21000D02*
X07700Y21000D01*
X07100Y20900D02*
X07200Y21000D01*
X07100Y19900D02*
X07100Y20900D01*
X07000Y19800D02*
X07100Y19900D01*
X08600Y19800D02*
X07000Y19800D01*
X09238Y20438D02*
X08600Y19800D01*
X08500Y20900D02*
X05600Y20900D01*
X06800Y20400D02*
X06740Y20400D01*
X05700Y20400D02*
X06800Y20400D01*
X05600Y20300D02*
X05700Y20400D01*
X05600Y20900D02*
X05600Y20300D01*
X09238Y22654D02*
X09238Y24362D01*
X06950Y24400D02*
X05400Y22850D01*
X09200Y24400D02*
X06950Y24400D01*
X09238Y24362D02*
X09200Y24400D01*
X09238Y22654D02*
X09146Y22654D01*
X08800Y23000D02*
X08800Y24000D01*
X09146Y22654D02*
X08800Y23000D01*
X08800Y24000D02*
X07600Y24000D01*
X07600Y24000D02*
X07700Y23900D01*
X07700Y23900D02*
X07700Y23100D01*
X07700Y23100D02*
X07800Y23000D01*
X07800Y23000D02*
X08500Y23000D01*
X08500Y23000D02*
X08400Y23100D01*
X08400Y23100D02*
X08400Y23500D01*
X08400Y23500D02*
X08300Y23600D01*
X08300Y23600D02*
X08300Y23700D01*
X08300Y23500D02*
X08100Y23300D01*
X08300Y23700D02*
X08300Y23500D01*
X05400Y22850D02*
X07350Y22850D01*
X08500Y23700D02*
X08300Y23700D01*
X08200Y23700D02*
X08500Y23700D01*
X07350Y22850D02*
X08200Y23700D01*
X08600Y19300D02*
X08600Y14900D01*
X08600Y14900D02*
X08900Y14600D01*
X08900Y14600D02*
X08900Y10000D01*
X08900Y10000D02*
X08900Y09600D01*
X08900Y09600D02*
X08900Y09700D01*
X09000Y09300D02*
X09000Y09700D01*
X09000Y09700D02*
X08900Y09700D01*
X09500Y06100D02*
X09500Y04200D01*
X09500Y04200D02*
X09500Y02700D01*
X09500Y02700D02*
X09500Y02500D01*
X09500Y02500D02*
X09500Y02100D01*
X05700Y01500D02*
X05700Y02700D01*
X08700Y01500D02*
X05700Y01500D01*
X05700Y02700D02*
X05600Y02800D01*
X09500Y01200D02*
X09500Y01200D01*
X09500Y01200D02*
X09500Y01200D01*
X03800Y01200D02*
X04200Y01200D01*
X04200Y01200D02*
X09500Y01200D01*
X03800Y04600D02*
X03800Y01200D01*
X03900Y04700D02*
X03800Y04600D01*
X04400Y04700D02*
X03900Y04700D01*
X04500Y04600D02*
X04400Y04700D01*
X04500Y03600D02*
X04500Y03400D01*
X04500Y03400D02*
X04500Y03600D01*
X04500Y03600D02*
X04500Y04600D01*
X05600Y03600D02*
X04500Y03600D01*
X05600Y02800D02*
X05600Y03600D01*
X04200Y01200D02*
X04200Y04400D01*
X04500Y03600D02*
X04500Y01600D01*
X04500Y01600D02*
X04600Y01500D01*
X05700Y02700D02*
X05200Y03200D01*
X05200Y03200D02*
X05000Y03200D01*
X05000Y03200D02*
X05000Y01600D01*
X05700Y02700D02*
X05400Y02700D01*
X05400Y02700D02*
X05400Y01500D01*
X04500Y03400D02*
X04800Y03400D01*
X04800Y03400D02*
X05000Y03200D01*
X08700Y01500D02*
X09100Y01500D01*
X09500Y01900D02*
X09500Y02100D01*
X09100Y01500D02*
X09500Y01900D01*
X09500Y02500D02*
X09500Y01300D01*
X09500Y01300D02*
X09500Y01200D01*
X09500Y06100D02*
X09500Y14050D01*
X09500Y14050D02*
X09750Y14300D01*
X10700Y16400D02*
X10700Y18700D01*
X10700Y18700D02*
X09800Y19600D01*
X09800Y18500D02*
X09300Y19000D01*
X09400Y19200D02*
X10200Y18400D01*
X10200Y18400D02*
X10200Y17300D01*
X10200Y17300D02*
X09800Y17700D01*
X09800Y17700D02*
X09800Y18500D01*
X09300Y19000D02*
X09000Y19300D01*
X09300Y19300D02*
X09400Y19200D01*
X09100Y19300D02*
X09300Y19300D01*
X09300Y19500D02*
X09300Y19500D01*
X09300Y19500D02*
X09100Y19300D01*
X09400Y19200D02*
X09800Y19200D01*
X09800Y19200D02*
X10400Y18600D01*
X09300Y19500D02*
X09600Y19500D01*
X09800Y19300D02*
X09800Y19600D01*
X09600Y19500D02*
X09800Y19300D01*
X09800Y19600D02*
X09400Y20000D01*
X09400Y20000D02*
X09400Y20175D01*
X09000Y18900D02*
X09000Y15000D01*
X09800Y16100D02*
X09800Y16300D01*
X09400Y17600D02*
X10000Y17000D01*
X10000Y17000D02*
X10000Y15900D01*
X10000Y15900D02*
X09800Y16100D01*
X09400Y17600D02*
X09400Y17600D01*
X09400Y14600D02*
X09400Y14700D01*
X09400Y14700D02*
X09400Y17600D01*
X09000Y15000D02*
X09400Y14600D01*
X09400Y17600D02*
X09400Y18600D01*
X09300Y18700D02*
X09300Y19000D01*
X09400Y18600D02*
X09300Y18700D01*
X09400Y14700D02*
X09400Y07000D01*
X09000Y07100D02*
X09000Y08200D01*
X09000Y08200D02*
X09000Y09300D01*
X09300Y07100D02*
X09000Y07100D01*
X09400Y07000D02*
X09300Y07100D01*
X09000Y08200D02*
X09000Y08600D01*
X09000Y08600D02*
X08600Y09000D01*
X08300Y09300D02*
X08200Y09300D01*
X08600Y09000D02*
X08300Y09300D01*
X08200Y09300D02*
X07300Y09300D01*
X08200Y09300D02*
X08800Y09300D01*
X08800Y09300D02*
X09000Y09300D01*
X06800Y11000D02*
X06800Y09600D01*
X06800Y09600D02*
X06800Y09100D01*
X06800Y09100D02*
X06800Y09200D01*
X08600Y08800D02*
X08600Y09000D01*
X07200Y08800D02*
X08600Y08800D01*
X06800Y09200D02*
X07200Y08800D01*
X06800Y11000D02*
X06800Y10500D01*
X09000Y10000D02*
X08900Y10000D01*
X07300Y10000D02*
X09000Y10000D01*
X06800Y10500D02*
X07300Y10000D01*
X08900Y09600D02*
X07000Y09600D01*
X07000Y09600D02*
X06800Y09600D01*
X06700Y08200D02*
X06700Y09100D01*
X06700Y09100D02*
X06800Y09100D01*
X10700Y16400D02*
X10700Y15700D01*
X10300Y15300D02*
X10300Y13100D01*
X10700Y15700D02*
X10300Y15300D01*
X10300Y13100D02*
X10300Y02600D01*
X10300Y02600D02*
X10300Y02400D01*
X10300Y02400D02*
X10300Y01600D01*
X10300Y01600D02*
X10300Y01400D01*
X10200Y01300D02*
X09900Y01300D01*
X09900Y01300D02*
X09500Y01300D01*
X10300Y01400D02*
X10200Y01300D01*
X10300Y01400D02*
X10300Y01400D01*
X09500Y01200D02*
X10200Y01200D01*
X10300Y01600D02*
X10300Y01400D01*
X10300Y01300D02*
X10300Y01600D01*
X10200Y01200D02*
X10300Y01300D01*
X09900Y01300D02*
X09900Y02200D01*
X09900Y02200D02*
X09900Y16300D01*
X09900Y16300D02*
X09800Y16300D01*
X09900Y01300D02*
X10900Y01300D01*
X10900Y01300D02*
X19300Y01300D01*
X19300Y01300D02*
X21400Y01300D01*
X21400Y01300D02*
X21700Y01300D01*
X21700Y01300D02*
X22200Y01300D01*
X10200Y01200D02*
X22200Y01200D01*
X22200Y01200D02*
X22300Y01300D01*
X22300Y01300D02*
X22300Y01600D01*
X22300Y01600D02*
X22300Y01600D01*
X22300Y01600D02*
X22300Y01600D01*
X22300Y01600D02*
X22300Y01600D01*
X22300Y01600D02*
X22300Y01700D01*
X22300Y01700D02*
X22300Y01700D01*
X22300Y01700D02*
X22300Y01700D01*
X22300Y01700D02*
X21900Y01700D01*
G54D37*
X18800Y01700D02*
X18700Y01800D01*
X21900Y01700D02*
X18800Y01700D01*
G54D35*
X18200Y02400D02*
X18200Y02200D01*
X18200Y02200D02*
X18200Y02400D01*
X18200Y02400D02*
X18100Y02500D01*
X18100Y02500D02*
X18100Y02500D01*
X18100Y02500D02*
X18000Y02600D01*
X18000Y02600D02*
X17700Y02900D01*
X17700Y02900D02*
X17000Y03600D01*
X19300Y17700D02*
X23000Y21400D01*
X19300Y12800D02*
X19300Y17700D01*
X19000Y12500D02*
X19300Y12800D01*
X16300Y12500D02*
X19000Y12500D01*
X15400Y11600D02*
X16300Y12500D01*
X15400Y09800D02*
X15400Y11600D01*
X15800Y09400D02*
X15400Y09800D01*
X17800Y09400D02*
X15800Y09400D01*
X18500Y08700D02*
X17800Y09400D01*
X19400Y08700D02*
X18500Y08700D01*
X19500Y08600D02*
X19400Y08700D01*
X19500Y05200D02*
X19500Y08600D01*
X19400Y05100D02*
X19500Y05200D01*
X17500Y05100D02*
X19400Y05100D01*
X17000Y04600D02*
X17500Y05100D01*
X17000Y03600D02*
X17000Y04600D01*
X10200Y13100D02*
X10300Y13100D01*
X12700Y13100D02*
X10200Y13100D01*
X13900Y14300D02*
X12700Y13100D01*
X13900Y23700D02*
X13900Y16300D01*
X13900Y16300D02*
X13900Y14300D01*
X14300Y24100D02*
X13900Y23700D01*
X25400Y24100D02*
X25300Y24100D01*
X25700Y24400D02*
X25400Y24100D01*
X25700Y24100D02*
X25700Y24400D01*
X25300Y23700D02*
X25700Y24100D01*
X23000Y21400D02*
X25300Y23700D01*
X25300Y24100D02*
X14500Y24100D01*
X14500Y24100D02*
X14300Y24100D01*
G54D38*
X25300Y24100D02*
X24900Y24100D01*
X24900Y24100D02*
X22900Y22100D01*
X22200Y22400D02*
X15800Y22400D01*
X15800Y22400D02*
X15700Y22400D01*
X22200Y22400D02*
X22700Y22400D01*
X22900Y22600D02*
X22900Y22100D01*
X22700Y22400D02*
X22900Y22600D01*
X22900Y22600D02*
X22900Y22800D01*
X14400Y23000D02*
X14600Y23000D01*
X22200Y23500D02*
X14300Y23500D01*
X14300Y23500D02*
X14400Y23400D01*
X14400Y23400D02*
X14400Y23000D01*
X14600Y23000D02*
X22400Y23000D01*
X22200Y23500D02*
X22200Y23500D01*
X22900Y22800D02*
X22200Y23500D01*
X22200Y23500D02*
X23400Y23500D01*
X23400Y23500D02*
X23600Y23500D01*
X23600Y23500D02*
X23200Y23100D01*
X23400Y23500D02*
X23700Y23500D01*
X23700Y23500D02*
X24000Y23800D01*
X15800Y22400D02*
X14300Y22400D01*
X22100Y21900D02*
X15200Y21900D01*
X22400Y21600D02*
X22700Y21300D01*
X22700Y21300D02*
X22100Y21900D01*
X22500Y21600D02*
X22400Y21600D01*
X18700Y17800D02*
X18600Y17700D01*
X18700Y17000D02*
X18700Y17200D01*
X18700Y17200D02*
X18700Y17800D01*
X14500Y21400D02*
X14500Y17000D01*
X14500Y17000D02*
X14500Y17000D01*
X18600Y17700D02*
X19300Y18400D01*
X19300Y18400D02*
X19700Y18800D01*
X19700Y18800D02*
X20600Y19700D01*
X20600Y19700D02*
X20600Y19700D01*
X20600Y19700D02*
X20700Y19800D01*
X20700Y19800D02*
X22500Y21600D01*
X14500Y22200D02*
X14500Y21100D01*
X14500Y21100D02*
X14500Y21400D01*
X14300Y22400D02*
X14500Y22200D01*
X14500Y21400D02*
X21600Y21400D01*
X21600Y21400D02*
X20500Y20300D01*
X19700Y20600D02*
X19600Y20600D01*
X19600Y20600D02*
X19900Y20600D01*
X19700Y20600D02*
X20300Y20600D01*
X20500Y20800D02*
X20500Y20300D01*
X20300Y20600D02*
X20500Y20800D01*
X22700Y21300D02*
X23000Y21600D01*
X23000Y21600D02*
X23000Y21400D01*
X19600Y20600D02*
X15200Y20600D01*
X15200Y20600D02*
X15100Y20600D01*
X15200Y20500D02*
X15200Y19800D01*
X15100Y20600D02*
X15200Y20500D01*
X15200Y19800D02*
X15200Y19200D01*
X15200Y19200D02*
X15200Y18400D01*
X15200Y18400D02*
X15200Y17700D01*
X15200Y17700D02*
X15200Y17500D01*
X14500Y21100D02*
X15000Y21100D01*
X15200Y20900D02*
X15200Y20600D01*
X15000Y21100D02*
X15200Y20900D01*
X20700Y19800D02*
X15300Y19800D01*
X15300Y19800D02*
X15200Y19800D01*
X15200Y19200D02*
X19600Y19200D01*
X19700Y19100D02*
X19700Y18800D01*
X19600Y19200D02*
X19700Y19100D01*
X19300Y18400D02*
X15400Y18400D01*
X15400Y18400D02*
X15200Y18400D01*
X15200Y17700D02*
X18600Y17700D01*
X18700Y17000D02*
X17600Y17000D01*
X17600Y17000D02*
X16300Y17000D01*
X16300Y17000D02*
X15700Y17000D01*
X15700Y17000D02*
X15100Y17000D01*
X15100Y17000D02*
X14700Y17000D01*
X14700Y17000D02*
X14500Y17000D01*
X14500Y17000D02*
X14500Y14400D01*
X14500Y14400D02*
X14400Y14300D01*
X15100Y17000D02*
X15100Y14200D01*
X15100Y14200D02*
X15000Y14100D01*
X15700Y17000D02*
X15700Y12900D01*
X15700Y12900D02*
X15700Y12700D01*
X15700Y12700D02*
X15800Y12600D01*
X15700Y12900D02*
X16800Y12900D01*
X16800Y12900D02*
X18700Y12900D01*
X18700Y12900D02*
X18900Y13100D01*
X18900Y13100D02*
X18900Y16400D01*
X18900Y16400D02*
X18900Y16600D01*
X18900Y16400D02*
X17000Y16400D01*
X17000Y13800D02*
X17100Y13700D01*
X17100Y13700D02*
X17100Y13600D01*
X17000Y16400D02*
X17000Y15500D01*
X17000Y15500D02*
X17000Y13800D01*
X17100Y13600D02*
X17600Y13600D01*
X18200Y15700D02*
X18300Y15800D01*
X17600Y13600D02*
X18500Y13600D01*
X18500Y13600D02*
X18200Y13900D01*
X18200Y13900D02*
X18200Y15700D01*
X17600Y17000D02*
X17600Y14000D01*
X17600Y14000D02*
X17600Y13600D01*
X16300Y17000D02*
X16300Y13500D01*
X16300Y13500D02*
X16300Y13400D01*
X16300Y13500D02*
X16600Y13500D01*
X16800Y13300D02*
X16800Y12900D01*
X16600Y13500D02*
X16800Y13300D01*
G54D39*
X10300Y02600D02*
X11100Y02600D01*
X11100Y02600D02*
X14800Y02600D01*
X14800Y02600D02*
X17000Y02600D01*
X17000Y02600D02*
X16700Y02600D01*
X17100Y06000D02*
X17300Y06000D01*
X16000Y04900D02*
X17100Y06000D01*
X16000Y03300D02*
X16000Y04900D01*
X16700Y02600D02*
X16000Y03300D01*
X18700Y06100D02*
X18700Y07900D01*
X17300Y06000D02*
X18600Y06000D01*
X18600Y06000D02*
X18700Y06100D01*
X11100Y02600D02*
X11100Y04400D01*
X11100Y04400D02*
X11100Y06000D01*
X11100Y06000D02*
X11100Y05500D01*
X11100Y05500D02*
X11100Y05500D01*
X11100Y05500D02*
X11100Y06600D01*
X11100Y06600D02*
X11100Y08400D01*
X11100Y08400D02*
X11100Y09400D01*
X11100Y09400D02*
X11100Y10600D01*
X11100Y10600D02*
X11100Y10300D01*
X11100Y10300D02*
X11100Y12300D01*
X11100Y12300D02*
X11100Y12100D01*
X11100Y12100D02*
X11000Y12200D01*
X11100Y12300D02*
X13400Y12300D01*
X13400Y12300D02*
X14400Y12300D01*
X14400Y12300D02*
X14600Y12300D01*
X14600Y12300D02*
X14700Y12200D01*
X11100Y08400D02*
X16600Y08400D01*
X16600Y08400D02*
X17100Y08400D01*
X17100Y08400D02*
X17300Y08200D01*
X11100Y06600D02*
X14600Y06600D01*
X14600Y06600D02*
X14800Y06600D01*
X14800Y06600D02*
X17100Y06600D01*
X17300Y06800D02*
X17300Y06000D01*
X17100Y06600D02*
X17300Y06800D01*
X14800Y06600D02*
X14800Y05100D01*
X14800Y04600D02*
X14800Y04200D01*
X14800Y04200D02*
X14800Y04100D01*
X14800Y04100D02*
X14800Y03000D01*
X14800Y03000D02*
X14800Y02600D01*
X11100Y06000D02*
X14500Y06000D01*
X14600Y05900D02*
X14600Y06600D01*
X14500Y06000D02*
X14600Y05900D01*
X17000Y15500D02*
X16600Y15500D01*
X16600Y15500D02*
X13400Y12300D01*
X11100Y10600D02*
X14500Y10600D01*
X14500Y10600D02*
X14300Y10600D01*
X11100Y09400D02*
X14300Y09400D01*
X14300Y09400D02*
X14500Y09600D01*
X14400Y12300D02*
X14400Y10900D01*
X14500Y10800D02*
X14500Y10600D01*
X14400Y10900D02*
X14500Y10800D01*
X18700Y17200D02*
X18800Y17200D01*
X18800Y17200D02*
X25300Y23700D01*
X25300Y23700D02*
X15000Y23700D01*
X14600Y23300D02*
X14600Y23000D01*
X15000Y23700D02*
X14600Y23300D01*
G54D37*
X19300Y01300D02*
X18800Y01300D01*
X18800Y01300D02*
X17800Y02300D01*
X17800Y02300D02*
X17700Y02400D01*
X17700Y02400D02*
X17700Y01900D01*
X17700Y01900D02*
X18000Y01600D01*
X18000Y01600D02*
X18100Y01600D01*
X10500Y01600D02*
X10300Y01600D01*
X18100Y01600D02*
X10500Y01600D01*
X17000Y02600D02*
X17100Y02600D01*
X17100Y02600D02*
X18100Y01600D01*
X13000Y04100D02*
X12100Y05000D01*
X13400Y04500D02*
X13000Y04100D01*
X13500Y04500D02*
X13400Y04500D01*
X13600Y04600D02*
X13500Y04500D01*
X12200Y04600D02*
X13600Y04600D01*
X12100Y05000D02*
X13500Y05000D01*
X13500Y05000D02*
X13800Y04700D01*
X13800Y04700D02*
X13800Y03700D01*
X13800Y03700D02*
X12300Y03700D01*
X12300Y03700D02*
X12200Y03800D01*
X12200Y03800D02*
X12200Y04100D01*
X12200Y04100D02*
X12200Y04600D01*
X12200Y04100D02*
X13800Y04100D01*
X13800Y04100D02*
X14800Y04100D01*
X11100Y04400D02*
X13600Y04400D01*
X13800Y04200D02*
X14800Y04200D01*
X13600Y04400D02*
X13800Y04200D01*
X14800Y04600D02*
X14300Y04600D01*
X13800Y05100D02*
X14800Y05100D01*
X14300Y04600D02*
X13800Y05100D01*
G54D26*
X25800Y03600D02*
X25300Y03100D01*
X25300Y03100D02*
X25300Y02900D01*
X25300Y02900D02*
X25100Y02700D01*
X25100Y02700D02*
X25100Y02500D01*
X25100Y02500D02*
X25050Y02550D01*
X21500Y09100D02*
X21500Y10600D01*
G54D37*
X22300Y01600D02*
X22300Y02000D01*
X22300Y02000D02*
X22300Y02200D01*
X22300Y02200D02*
X22300Y02200D01*
X22300Y02200D02*
X22300Y02500D01*
X17700Y03000D02*
X17700Y02900D01*
X20800Y03000D02*
X17700Y03000D01*
X22300Y02200D02*
X22300Y01400D01*
X21400Y01200D02*
X21400Y01300D01*
X22100Y01200D02*
X21400Y01200D01*
X22300Y01400D02*
X22100Y01200D01*
X20800Y03000D02*
X21800Y03000D01*
X21800Y03000D02*
X22000Y02800D01*
X22000Y02800D02*
X22300Y02500D01*
X22300Y02500D02*
X22300Y01400D01*
X22300Y01400D02*
X22100Y01200D01*
X22100Y01200D02*
X21700Y01200D01*
X21700Y01200D02*
X21700Y01300D01*
X18700Y01900D02*
X18700Y02000D01*
X18700Y02000D02*
X18700Y01800D01*
X18700Y01900D02*
X18200Y02400D01*
X22000Y02800D02*
X18000Y02800D01*
X18000Y02800D02*
X18000Y02600D01*
X18200Y02400D02*
X21900Y02400D01*
X21900Y02400D02*
X22100Y02200D01*
X22100Y02200D02*
X22000Y02200D01*
X22000Y02200D02*
X22300Y02200D01*
X18700Y02000D02*
X22200Y02000D01*
X22200Y02000D02*
X22300Y02000D01*
X18200Y02200D02*
X22000Y02200D01*
G54D35*
X28000Y22500D02*
X27000Y22500D01*
G54D26*
X05250Y06650D02*
X05300Y06600D01*
X05300Y06600D02*
X05300Y07400D01*
X05300Y07400D02*
X05325Y07400D01*
X05250Y06650D02*
X05300Y06600D01*
X05300Y06600D02*
X04600Y06600D01*
X04600Y06600D02*
X04500Y06700D01*
X04500Y06700D02*
X04500Y06675D01*
X04500Y06675D02*
X04500Y06700D01*
X05300Y07400D02*
X05325Y07400D01*
G54D24*
X05325Y07400D02*
X05300Y07400D01*
X05300Y07400D02*
X04800Y07900D01*
X04800Y07900D02*
X04800Y08100D01*
X19000Y09400D02*
X19800Y10200D01*
X19800Y10200D02*
X19900Y10200D01*
X19900Y10200D02*
X20100Y10400D01*
X20100Y10400D02*
X20100Y10800D01*
X27000Y22500D02*
X26900Y22500D01*
X26900Y22500D02*
X20800Y16400D01*
X20800Y16400D02*
X20100Y15700D01*
G54D25*
X02000Y03500D02*
X02200Y03500D01*
X03875Y06675D02*
X04500Y06675D01*
X02200Y03500D02*
X02700Y04000D01*
X02700Y04000D02*
X03100Y04400D01*
X03100Y04400D02*
X03100Y05900D01*
X03100Y05900D02*
X03875Y06675D01*
X03875Y06675D02*
X04500Y06675D01*
G54D26*
X06000Y08400D02*
X06000Y09400D01*
X06000Y09400D02*
X06200Y09600D01*
X04800Y08100D02*
X04800Y07925D01*
X04800Y07925D02*
X05325Y07400D01*
G54D35*
X01000Y03500D02*
X02000Y03500D01*
X20100Y10800D02*
X20100Y15700D01*
X20100Y15700D02*
X26900Y22500D01*
X26900Y22500D02*
X28000Y22500D01*
G54D26*
X22800Y03600D02*
X23300Y03100D01*
X23300Y03100D02*
X23300Y02900D01*
X23300Y02900D02*
X23600Y02600D01*
X23600Y02600D02*
X23600Y02500D01*
X23600Y02500D02*
X23550Y02550D01*
X20900Y05500D02*
X20200Y06200D01*
X20200Y06200D02*
X20200Y10200D01*
X20200Y10200D02*
X20100Y10300D01*
X20100Y10300D02*
X20100Y10800D01*
G54D24*
X21900Y11700D02*
X21000Y10800D01*
X23500Y10600D02*
X23200Y10600D01*
X23200Y10600D02*
X23000Y10800D01*
G54D26*
X06075Y07400D02*
X06100Y07400D01*
X06100Y07400D02*
X05800Y07100D01*
X05800Y07100D02*
X05800Y06600D01*
X05800Y06600D02*
X05750Y06650D01*
X06075Y07400D02*
X06100Y07400D01*
G54D24*
X02900Y13600D02*
X04000Y12500D01*
G54D25*
X02900Y18300D02*
X02800Y18300D01*
X02600Y18500D02*
X02000Y18500D01*
X02800Y18300D02*
X02600Y18500D01*
X02900Y18300D02*
X02900Y13600D01*
X02900Y13600D02*
X04000Y12500D01*
X04000Y12500D02*
X04000Y09700D01*
X04000Y09700D02*
X05800Y07900D01*
X05800Y07900D02*
X05900Y07900D01*
X05900Y07900D02*
X06075Y07725D01*
X06075Y07725D02*
X06075Y07400D01*
G54D26*
X04500Y05925D02*
X04500Y05900D01*
X04500Y05900D02*
X05300Y05100D01*
X05300Y05100D02*
X05300Y04500D01*
X05300Y04500D02*
X05250Y04550D01*
X04500Y05925D02*
X04500Y05900D01*
G54D25*
X04500Y05925D02*
X04500Y05900D01*
G54D26*
X04500Y05925D02*
X04500Y05900D01*
X04500Y05900D02*
X04000Y05900D01*
X04000Y05900D02*
X03700Y05600D01*
X02800Y06500D02*
X02800Y11800D01*
X07575Y07400D02*
X07600Y07400D01*
X07600Y07400D02*
X07500Y07300D01*
X07500Y07300D02*
X07500Y06575D01*
X07575Y07400D02*
X07600Y07400D01*
X07600Y07400D02*
X07500Y07500D01*
X07500Y07500D02*
X07500Y08200D01*
G54D24*
X08225Y06575D02*
X07500Y06575D01*
X08700Y06100D02*
X08225Y06575D01*
G54D25*
X08700Y02700D02*
X08700Y06100D01*
X08700Y06100D02*
X08225Y06575D01*
X08225Y06575D02*
X07500Y06575D01*
X25800Y06600D02*
X25600Y06800D01*
X25600Y06800D02*
X25600Y10000D01*
X25600Y10000D02*
X26400Y10800D01*
X26400Y10800D02*
X26400Y12100D01*
X26400Y12100D02*
X26600Y12100D01*
X26600Y12100D02*
X27000Y12500D01*
G54D26*
X25800Y06600D02*
X25300Y06100D01*
X25300Y06100D02*
X25300Y05900D01*
X25300Y05900D02*
X25100Y05700D01*
X25100Y05700D02*
X25100Y04600D01*
X25100Y04600D02*
X25050Y04650D01*
X23800Y06600D02*
X24100Y06300D01*
X24100Y06300D02*
X24100Y04600D01*
X24100Y04600D02*
X24050Y04650D01*
X24800Y06600D02*
X24600Y06400D01*
X24600Y06400D02*
X24600Y04600D01*
X24600Y04600D02*
X24550Y04650D01*
X24800Y06600D02*
X25000Y06800D01*
X25000Y06800D02*
X25000Y08100D01*
X24050Y02550D02*
X23900Y02700D01*
X23900Y02700D02*
X23900Y03000D01*
X23900Y03000D02*
X23800Y03100D01*
X23800Y03100D02*
X23800Y03600D01*
X24050Y02550D02*
X24000Y02400D01*
X24000Y02400D02*
X23900Y02300D01*
X23900Y02300D02*
X23900Y02100D01*
X23900Y02100D02*
X23700Y01900D01*
X23700Y01900D02*
X23700Y01400D01*
X24550Y02550D02*
X24700Y02400D01*
X24700Y02400D02*
X24700Y01400D01*
X24550Y02550D02*
X24700Y02600D01*
X24700Y02600D02*
X24700Y03000D01*
X24700Y03000D02*
X24800Y03100D01*
X24800Y03100D02*
X24800Y03600D01*
X21700Y06769D02*
X21700Y06800D01*
X21700Y06800D02*
X22600Y06800D01*
X22600Y06800D02*
X22800Y06600D01*
X22800Y06600D02*
X23300Y06100D01*
X23300Y06100D02*
X23300Y05900D01*
X23300Y05900D02*
X23600Y05600D01*
X23600Y05600D02*
X23600Y04600D01*
X23600Y04600D02*
X23550Y04650D01*
G54D35*
X10275Y20300D02*
X12000Y20300D01*
X12000Y20300D02*
X12600Y19700D01*
X12600Y19700D02*
X12600Y15150D01*
X12600Y15150D02*
X11750Y14300D01*
G54D25*
X04700Y16400D02*
X04700Y19400D01*
X04700Y19400D02*
X04730Y19400D01*
X04700Y16400D02*
X05400Y15700D01*
G54D35*
X05400Y13900D02*
X05400Y15700D01*
X05400Y15700D02*
X04700Y16400D01*
G54D25*
X06075Y18400D02*
X06100Y18400D01*
X06100Y18400D02*
X06100Y19400D01*
X06100Y19400D02*
X06070Y19400D01*
X07800Y11000D02*
X07800Y13900D01*
G54D35*
X07800Y13900D02*
X07800Y18100D01*
X07800Y18100D02*
X07500Y18400D01*
X06075Y18400D02*
X07500Y18400D01*
G54D26*
X21700Y03825D02*
X21700Y03800D01*
X21700Y03800D02*
X21200Y03800D01*
X21200Y03800D02*
X20900Y04100D01*
X21700Y05431D02*
X21700Y04575D01*
X06250Y04550D02*
X06300Y04500D01*
X06300Y04500D02*
X05800Y04500D01*
X05800Y04500D02*
X05750Y04550D01*
G54D24*
X06250Y04550D02*
X06400Y04400D01*
X06400Y04400D02*
X06400Y04100D01*
X06400Y04100D02*
X07100Y04100D01*
X07100Y04100D02*
X07500Y04500D01*
X07500Y04500D02*
X07500Y05825D01*
X07700Y02700D02*
X07700Y04300D01*
X07700Y04300D02*
X07500Y04500D01*
G54D25*
X07500Y05825D02*
X07500Y04400D01*
X07700Y04200D02*
X07700Y02700D01*
X07500Y04400D02*
X07700Y04200D01*
G54D26*
X06750Y06650D02*
X06800Y06600D01*
X06800Y06600D02*
X06300Y06600D01*
X06300Y06600D02*
X06250Y06650D01*
X06750Y06650D02*
X06800Y06600D01*
X06800Y06600D02*
X06800Y07400D01*
X06800Y07400D02*
X06825Y07400D01*
G54D24*
X06250Y05950D02*
X06250Y06650D01*
X06500Y05700D02*
X06250Y05950D01*
G54D35*
X10300Y21709D02*
X10300Y23638D01*
X10300Y23638D02*
X12538Y23638D01*
X12538Y23638D02*
X12600Y23700D01*
M02*
