G04 (Genere par PCBNEW (2007-07-09)) le 2/12/2007-22:10:58*
G01*
G70*
G90*
%MOIN*%
G04 Gerber Fmt 3.4, Leading zero omitted, Abs format*
%FSLAX34Y34*%
G04 APERTURE LIST*
%ADD10C,0.015000*%
%ADD11O,0.070000X0.055000*%
%ADD12O,0.070000X0.050000*%
%ADD13R,0.062000X0.090000*%
%ADD14O,0.062000X0.090000*%
%ADD15R,0.070000X0.070000*%
%ADD16C,0.070000*%
%ADD17C,0.050000*%
%ADD18C,0.060000*%
%ADD19O,0.056000X0.112000*%
%ADD20O,0.088500X0.177000*%
%ADD21C,0.066000*%
%ADD22O,0.059000X0.118100*%
%ADD23C,0.045000*%
%ADD24C,0.018000*%
%ADD25C,0.036000*%
%ADD26C,0.024000*%
%ADD27R,0.019700X0.100000*%
%ADD28R,0.042000X0.090000*%
%ADD29R,0.420000X0.350000*%
%ADD30R,0.055000X0.035000*%
%ADD31R,0.035000X0.055000*%
%ADD32R,0.020000X0.045000*%
%ADD33R,0.070800X0.055100*%
%ADD34R,0.078700X0.078700*%
%ADD35C,0.017000*%
%ADD36C,0.050000*%
%ADD37C,0.080000*%
%ADD38C,0.200000*%
%ADD39C,0.040000*%
%ADD40C,0.012000*%
G04 APERTURE END LIST*
G54D10*
X01250Y00000D02*
X01154Y-00478D01*
X01154Y-00478D02*
X00883Y-00883D01*
X00883Y-00883D02*
X00478Y-01154D01*
X00478Y-01154D02*
X00000Y-01250D01*
X00000Y-01250D02*
X-00478Y-01154D01*
X-00478Y-01154D02*
X-00883Y-00883D01*
X-00883Y-00883D02*
X-01154Y-00478D01*
X-01154Y-00478D02*
X-01250Y00000D01*
X-01250Y00000D02*
X-01154Y00478D01*
X-01154Y00478D02*
X-00883Y00883D01*
X-00883Y00883D02*
X-00478Y01154D01*
X-00478Y01154D02*
X00000Y01250D01*
X00000Y01250D02*
X00478Y01154D01*
X00478Y01154D02*
X00883Y00883D01*
X00883Y00883D02*
X01154Y00478D01*
X01154Y00478D02*
X01250Y00000D01*
X-02500Y00000D02*
X02500Y00000D01*
X00000Y02500D02*
X00000Y-02500D01*
X00000Y00000D02*
X00000Y26000D01*
X29000Y00000D02*
X00000Y00000D01*
X29000Y26000D02*
X29000Y00000D01*
X00000Y26000D02*
X29000Y26000D01*
G54D40*
X12750Y13300D02*
X12750Y06800D01*
X12750Y06800D02*
X08750Y06800D01*
X08750Y06800D02*
X08750Y13300D01*
X08750Y13300D02*
X12750Y13300D01*
X12250Y13300D02*
X12250Y13800D01*
X12250Y13800D02*
X11250Y13800D01*
X11250Y13800D02*
X11250Y13300D01*
X11750Y13800D02*
X11750Y14300D01*
X09750Y13300D02*
X09750Y14300D01*
M02*
