G04 (Genere par PCBNEW (2007-07-09)) le 20/1/2008-12:32:42*
G01*
G70*
G90*
%MOIN*%
G04 Gerber Fmt 3.4, Leading zero omitted, Abs format*
%FSLAX34Y34*%
G04 APERTURE LIST*
%ADD10C,0.015000*%
%ADD11O,0.080000X0.055000*%
%ADD12R,0.196900X0.196900*%
%ADD13O,0.070000X0.400000*%
%ADD14R,0.062000X0.090000*%
%ADD15O,0.062000X0.090000*%
%ADD16R,0.070000X0.070000*%
%ADD17C,0.070000*%
%ADD18O,0.056000X0.112000*%
%ADD19O,0.088500X0.177000*%
%ADD20O,0.059000X0.118100*%
%ADD21O,0.177000X0.088500*%
%ADD22R,0.065000X0.065000*%
%ADD23C,0.065000*%
%ADD24C,0.045000*%
%ADD25C,0.050000*%
%ADD26C,0.036000*%
%ADD27C,0.042000*%
%ADD28C,0.032000*%
%ADD29C,0.024000*%
%ADD30C,0.082000*%
%ADD31C,0.080000*%
%ADD32C,0.018000*%
%ADD33C,0.005000*%
%ADD34R,0.039400X0.100000*%
%ADD35R,0.027600X0.100000*%
%ADD36R,0.019700X0.100000*%
%ADD37R,0.100000X0.196900*%
%ADD38R,0.042000X0.090000*%
%ADD39R,0.420000X0.350000*%
%ADD40R,0.055000X0.035000*%
%ADD41R,0.035000X0.055000*%
%ADD42R,0.020000X0.045000*%
%ADD43R,0.070800X0.055100*%
%ADD44R,0.070000X0.085000*%
%ADD45R,0.036000X0.036000*%
%ADD46C,0.017000*%
%ADD47C,0.150000*%
%ADD48C,0.060000*%
%ADD49C,0.012000*%
%ADD50C,0.001000*%
%ADD51C,0.008000*%
%ADD52C,0.002600*%
%ADD53C,0.006000*%
%ADD54C,0.000100*%
%ADD55C,0.004000*%
%ADD56C,0.003500*%
G04 APERTURE END LIST*
G54D10*
X12050Y44100D02*
X11954Y43622D01*
X11954Y43622D02*
X11683Y43217D01*
X11683Y43217D02*
X11278Y42946D01*
X11278Y42946D02*
X10800Y42850D01*
X10800Y42850D02*
X10322Y42946D01*
X10322Y42946D02*
X09917Y43217D01*
X09917Y43217D02*
X09646Y43622D01*
X09646Y43622D02*
X09550Y44100D01*
X09550Y44100D02*
X09646Y44578D01*
X09646Y44578D02*
X09917Y44983D01*
X09917Y44983D02*
X10322Y45254D01*
X10322Y45254D02*
X10800Y45350D01*
X10800Y45350D02*
X11278Y45254D01*
X11278Y45254D02*
X11683Y44983D01*
X11683Y44983D02*
X11954Y44578D01*
X11954Y44578D02*
X12050Y44100D01*
X08300Y44100D02*
X13300Y44100D01*
X10800Y46600D02*
X10800Y41600D01*
X14050Y-19900D02*
X13954Y-20378D01*
X13954Y-20378D02*
X13683Y-20783D01*
X13683Y-20783D02*
X13278Y-21054D01*
X13278Y-21054D02*
X12800Y-21150D01*
X12800Y-21150D02*
X12322Y-21054D01*
X12322Y-21054D02*
X11917Y-20783D01*
X11917Y-20783D02*
X11646Y-20378D01*
X11646Y-20378D02*
X11550Y-19900D01*
X11550Y-19900D02*
X11646Y-19422D01*
X11646Y-19422D02*
X11917Y-19017D01*
X11917Y-19017D02*
X12322Y-18746D01*
X12322Y-18746D02*
X12800Y-18650D01*
X12800Y-18650D02*
X13278Y-18746D01*
X13278Y-18746D02*
X13683Y-19017D01*
X13683Y-19017D02*
X13954Y-19422D01*
X13954Y-19422D02*
X14050Y-19900D01*
X10300Y-19900D02*
X15300Y-19900D01*
X12800Y-17400D02*
X12800Y-22400D01*
X71050Y00100D02*
X70954Y-00378D01*
X70954Y-00378D02*
X70683Y-00783D01*
X70683Y-00783D02*
X70278Y-01054D01*
X70278Y-01054D02*
X69800Y-01150D01*
X69800Y-01150D02*
X69322Y-01054D01*
X69322Y-01054D02*
X68917Y-00783D01*
X68917Y-00783D02*
X68646Y-00378D01*
X68646Y-00378D02*
X68550Y00100D01*
X68550Y00100D02*
X68646Y00578D01*
X68646Y00578D02*
X68917Y00983D01*
X68917Y00983D02*
X69322Y01254D01*
X69322Y01254D02*
X69800Y01350D01*
X69800Y01350D02*
X70278Y01254D01*
X70278Y01254D02*
X70683Y00983D01*
X70683Y00983D02*
X70954Y00578D01*
X70954Y00578D02*
X71050Y00100D01*
X67300Y00100D02*
X72300Y00100D01*
X69800Y02600D02*
X69800Y-02400D01*
X71050Y26100D02*
X70954Y25622D01*
X70954Y25622D02*
X70683Y25217D01*
X70683Y25217D02*
X70278Y24946D01*
X70278Y24946D02*
X69800Y24850D01*
X69800Y24850D02*
X69322Y24946D01*
X69322Y24946D02*
X68917Y25217D01*
X68917Y25217D02*
X68646Y25622D01*
X68646Y25622D02*
X68550Y26100D01*
X68550Y26100D02*
X68646Y26578D01*
X68646Y26578D02*
X68917Y26983D01*
X68917Y26983D02*
X69322Y27254D01*
X69322Y27254D02*
X69800Y27350D01*
X69800Y27350D02*
X70278Y27254D01*
X70278Y27254D02*
X70683Y26983D01*
X70683Y26983D02*
X70954Y26578D01*
X70954Y26578D02*
X71050Y26100D01*
X67300Y26100D02*
X72300Y26100D01*
X69800Y28600D02*
X69800Y23600D01*
X-19950Y26100D02*
X-20046Y25622D01*
X-20046Y25622D02*
X-20317Y25217D01*
X-20317Y25217D02*
X-20722Y24946D01*
X-20722Y24946D02*
X-21200Y24850D01*
X-21200Y24850D02*
X-21678Y24946D01*
X-21678Y24946D02*
X-22083Y25217D01*
X-22083Y25217D02*
X-22354Y25622D01*
X-22354Y25622D02*
X-22450Y26100D01*
X-22450Y26100D02*
X-22354Y26578D01*
X-22354Y26578D02*
X-22083Y26983D01*
X-22083Y26983D02*
X-21678Y27254D01*
X-21678Y27254D02*
X-21200Y27350D01*
X-21200Y27350D02*
X-20722Y27254D01*
X-20722Y27254D02*
X-20317Y26983D01*
X-20317Y26983D02*
X-20046Y26578D01*
X-20046Y26578D02*
X-19950Y26100D01*
X-23700Y26100D02*
X-18700Y26100D01*
X-21200Y28600D02*
X-21200Y23600D01*
X-19950Y00100D02*
X-20046Y-00378D01*
X-20046Y-00378D02*
X-20317Y-00783D01*
X-20317Y-00783D02*
X-20722Y-01054D01*
X-20722Y-01054D02*
X-21200Y-01150D01*
X-21200Y-01150D02*
X-21678Y-01054D01*
X-21678Y-01054D02*
X-22083Y-00783D01*
X-22083Y-00783D02*
X-22354Y-00378D01*
X-22354Y-00378D02*
X-22450Y00100D01*
X-22450Y00100D02*
X-22354Y00578D01*
X-22354Y00578D02*
X-22083Y00983D01*
X-22083Y00983D02*
X-21678Y01254D01*
X-21678Y01254D02*
X-21200Y01350D01*
X-21200Y01350D02*
X-20722Y01254D01*
X-20722Y01254D02*
X-20317Y00983D01*
X-20317Y00983D02*
X-20046Y00578D01*
X-20046Y00578D02*
X-19950Y00100D01*
X-23700Y00100D02*
X-18700Y00100D01*
X-21200Y02600D02*
X-21200Y-02400D01*
G54D49*
X31369Y10151D02*
X31280Y10076D01*
X31280Y10076D02*
X31279Y09701D01*
X31279Y09701D02*
X31368Y09626D01*
X31368Y09626D02*
X31991Y09624D01*
X31991Y09624D02*
X32079Y09699D01*
X32079Y09699D02*
X32080Y10074D01*
X32080Y10074D02*
X31992Y10149D01*
X31992Y10149D02*
X31725Y10150D01*
X31725Y10150D02*
X31636Y10075D01*
X31636Y10075D02*
X31635Y09700D01*
X31635Y09700D02*
X31724Y09625D01*
X31370Y10937D02*
X31281Y10862D01*
X31281Y10862D02*
X31281Y10487D01*
X31281Y10487D02*
X31369Y10412D01*
X31369Y10412D02*
X31992Y10410D01*
X31992Y10410D02*
X32081Y10485D01*
X32081Y10485D02*
X32081Y10860D01*
X32081Y10860D02*
X31993Y10935D01*
X31993Y10935D02*
X31726Y10936D01*
X31726Y10936D02*
X31637Y10861D01*
X31637Y10861D02*
X31637Y10486D01*
X31637Y10486D02*
X31725Y10411D01*
X31994Y11421D02*
X32082Y11421D01*
X32082Y11421D02*
X32348Y11346D01*
X32083Y11982D02*
X31284Y12509D01*
X31995Y11982D02*
X31372Y11984D01*
X31372Y11984D02*
X31283Y12059D01*
X31283Y12059D02*
X31284Y12434D01*
X31284Y12434D02*
X31373Y12509D01*
X31373Y12509D02*
X31996Y12507D01*
X31996Y12507D02*
X32084Y12432D01*
X32084Y12432D02*
X32083Y12057D01*
X32083Y12057D02*
X31995Y11982D01*
X32085Y13143D02*
X31285Y13145D01*
X31285Y13145D02*
X31908Y12769D01*
X31908Y12769D02*
X31909Y13294D01*
X32086Y13554D02*
X31287Y14081D01*
X31998Y13554D02*
X31375Y13556D01*
X31375Y13556D02*
X31286Y13631D01*
X31286Y13631D02*
X31287Y14006D01*
X31287Y14006D02*
X31376Y14081D01*
X31376Y14081D02*
X31999Y14079D01*
X31999Y14079D02*
X32087Y14004D01*
X32087Y14004D02*
X32086Y13629D01*
X32086Y13629D02*
X31998Y13554D01*
X32089Y15126D02*
X31556Y15127D01*
X31645Y15127D02*
X31556Y15202D01*
X31556Y15202D02*
X31556Y15352D01*
X31556Y15352D02*
X31645Y15427D01*
X31645Y15427D02*
X32089Y15426D01*
X31645Y15427D02*
X31556Y15502D01*
X31556Y15502D02*
X31557Y15652D01*
X31557Y15652D02*
X31646Y15727D01*
X31646Y15727D02*
X32090Y15726D01*
X32090Y15912D02*
X31557Y15913D01*
X31646Y15913D02*
X31557Y15988D01*
X31557Y15988D02*
X31557Y16138D01*
X31557Y16138D02*
X31647Y16213D01*
X31647Y16213D02*
X32091Y16212D01*
X31647Y16213D02*
X31558Y16288D01*
X31558Y16288D02*
X31558Y16438D01*
X31558Y16438D02*
X31647Y16513D01*
X31647Y16513D02*
X32091Y16512D01*
G54D10*
X31000Y00000D02*
X31000Y26000D01*
X30000Y00000D02*
X32370Y00000D01*
X30000Y26000D02*
X32370Y26000D01*
X31000Y26000D02*
X31230Y25557D01*
X31000Y26000D02*
X30770Y25557D01*
X31000Y00000D02*
X31230Y00443D01*
X31000Y00000D02*
X30770Y00443D01*
G54D49*
X11125Y-03785D02*
X11650Y-03785D01*
X11650Y-03785D02*
X11125Y-04585D01*
X11911Y-03785D02*
X12436Y-03785D01*
X12436Y-03785D02*
X12436Y-03874D01*
X12436Y-03874D02*
X12136Y-04141D01*
X12136Y-04141D02*
X12361Y-04141D01*
X12361Y-04141D02*
X12436Y-04230D01*
X12436Y-04230D02*
X12436Y-04497D01*
X12436Y-04497D02*
X12361Y-04585D01*
X12361Y-04585D02*
X11986Y-04585D01*
X11986Y-04585D02*
X11911Y-04497D01*
X12922Y-04497D02*
X12922Y-04585D01*
X12922Y-04585D02*
X12847Y-04851D01*
X14008Y-03874D02*
X13933Y-03785D01*
X13933Y-03785D02*
X13558Y-03785D01*
X13558Y-03785D02*
X13483Y-03874D01*
X13483Y-03874D02*
X13483Y-04497D01*
X13483Y-04497D02*
X13558Y-04585D01*
X13558Y-04585D02*
X13933Y-04585D01*
X13933Y-04585D02*
X14008Y-04497D01*
X14008Y-04497D02*
X14008Y-04230D01*
X14008Y-04230D02*
X13933Y-04141D01*
X13933Y-04141D02*
X13558Y-04141D01*
X13558Y-04141D02*
X13483Y-04230D01*
X14794Y-03874D02*
X14719Y-03785D01*
X14719Y-03785D02*
X14344Y-03785D01*
X14344Y-03785D02*
X14269Y-03874D01*
X14269Y-03874D02*
X14269Y-04497D01*
X14269Y-04497D02*
X14344Y-04585D01*
X14344Y-04585D02*
X14719Y-04585D01*
X14719Y-04585D02*
X14794Y-04497D01*
X14794Y-04497D02*
X14794Y-04230D01*
X14794Y-04230D02*
X14719Y-04141D01*
X14719Y-04141D02*
X14344Y-04141D01*
X14344Y-04141D02*
X14269Y-04230D01*
X15055Y-04585D02*
X15580Y-03785D01*
X15055Y-04497D02*
X15055Y-03874D01*
X15055Y-03874D02*
X15130Y-03785D01*
X15130Y-03785D02*
X15505Y-03785D01*
X15505Y-03785D02*
X15580Y-03874D01*
X15580Y-03874D02*
X15580Y-04497D01*
X15580Y-04497D02*
X15505Y-04585D01*
X15505Y-04585D02*
X15130Y-04585D01*
X15130Y-04585D02*
X15055Y-04497D01*
X16627Y-04585D02*
X16627Y-04052D01*
X16627Y-04141D02*
X16702Y-04052D01*
X16702Y-04052D02*
X16852Y-04052D01*
X16852Y-04052D02*
X16927Y-04141D01*
X16927Y-04141D02*
X16927Y-04585D01*
X16927Y-04141D02*
X17002Y-04052D01*
X17002Y-04052D02*
X17152Y-04052D01*
X17152Y-04052D02*
X17227Y-04141D01*
X17227Y-04141D02*
X17227Y-04585D01*
X17413Y-04585D02*
X17413Y-04052D01*
X17413Y-04141D02*
X17488Y-04052D01*
X17488Y-04052D02*
X17638Y-04052D01*
X17638Y-04052D02*
X17713Y-04141D01*
X17713Y-04141D02*
X17713Y-04585D01*
X17713Y-04141D02*
X17788Y-04052D01*
X17788Y-04052D02*
X17938Y-04052D01*
X17938Y-04052D02*
X18013Y-04141D01*
X18013Y-04141D02*
X18013Y-04585D01*
G54D10*
X00000Y-03500D02*
X29000Y-03500D01*
X00000Y-03000D02*
X00000Y-04870D01*
X29000Y-03000D02*
X29000Y-04870D01*
X29000Y-03500D02*
X28557Y-03730D01*
X29000Y-03500D02*
X28557Y-03270D01*
X00000Y-03500D02*
X00443Y-03730D01*
X00000Y-03500D02*
X00443Y-03270D01*
X29000Y00000D02*
X29000Y26000D01*
X01250Y00000D02*
X01154Y-00478D01*
X01154Y-00478D02*
X00883Y-00883D01*
X00883Y-00883D02*
X00478Y-01154D01*
X00478Y-01154D02*
X00000Y-01250D01*
X00000Y-01250D02*
X-00478Y-01154D01*
X-00478Y-01154D02*
X-00883Y-00883D01*
X-00883Y-00883D02*
X-01154Y-00478D01*
X-01154Y-00478D02*
X-01250Y00000D01*
X-01250Y00000D02*
X-01154Y00478D01*
X-01154Y00478D02*
X-00883Y00883D01*
X-00883Y00883D02*
X-00478Y01154D01*
X-00478Y01154D02*
X00000Y01250D01*
X00000Y01250D02*
X00478Y01154D01*
X00478Y01154D02*
X00883Y00883D01*
X00883Y00883D02*
X01154Y00478D01*
X01154Y00478D02*
X01250Y00000D01*
X-02500Y00000D02*
X02500Y00000D01*
X00000Y02500D02*
X00000Y-02500D01*
X00000Y00000D02*
X00000Y26000D01*
X29000Y00000D02*
X00000Y00000D01*
X00000Y26000D02*
X29000Y26000D01*
M02*
