G04 (Genere par PCBNEW (2007-07-09)) le 5/12/2007-21:46:56*
G01*
G70*
G90*
%MOIN*%
G04 Gerber Fmt 3.4, Leading zero omitted, Abs format*
%FSLAX34Y34*%
G04 APERTURE LIST*
%ADD10C,0.015000*%
%ADD11O,0.070000X0.055000*%
%ADD12O,0.070000X0.050000*%
%ADD13R,0.062000X0.090000*%
%ADD14O,0.062000X0.090000*%
%ADD15R,0.070000X0.070000*%
%ADD16C,0.070000*%
%ADD17C,0.050000*%
%ADD18C,0.060000*%
%ADD19O,0.056000X0.112000*%
%ADD20O,0.088500X0.177000*%
%ADD21C,0.066000*%
%ADD22O,0.059000X0.118100*%
%ADD23C,0.045000*%
%ADD24C,0.024000*%
%ADD25C,0.050000*%
%ADD26C,0.018000*%
%ADD27C,0.036000*%
%ADD28C,0.040000*%
%ADD29R,0.100000X0.196900*%
%ADD30R,0.019700X0.100000*%
%ADD31R,0.042000X0.090000*%
%ADD32R,0.420000X0.350000*%
%ADD33R,0.055000X0.035000*%
%ADD34R,0.035000X0.055000*%
%ADD35R,0.020000X0.045000*%
%ADD36R,0.070800X0.055100*%
%ADD37R,0.045000X0.025000*%
%ADD38C,0.017000*%
%ADD39C,0.080000*%
%ADD40C,0.200000*%
%ADD41C,0.012000*%
%ADD42C,0.001000*%
%ADD43C,0.008000*%
%ADD44C,0.005000*%
%ADD45C,0.002600*%
%ADD46C,0.006000*%
%ADD47C,0.030000*%
%ADD48C,0.000100*%
%ADD49C,0.004000*%
%ADD50C,0.003500*%
G04 APERTURE END LIST*
G54D10*
X01250Y00000D02*
X01154Y-00478D01*
X01154Y-00478D02*
X00883Y-00883D01*
X00883Y-00883D02*
X00478Y-01154D01*
X00478Y-01154D02*
X00000Y-01250D01*
X00000Y-01250D02*
X-00478Y-01154D01*
X-00478Y-01154D02*
X-00883Y-00883D01*
X-00883Y-00883D02*
X-01154Y-00478D01*
X-01154Y-00478D02*
X-01250Y00000D01*
X-01250Y00000D02*
X-01154Y00478D01*
X-01154Y00478D02*
X-00883Y00883D01*
X-00883Y00883D02*
X-00478Y01154D01*
X-00478Y01154D02*
X00000Y01250D01*
X00000Y01250D02*
X00478Y01154D01*
X00478Y01154D02*
X00883Y00883D01*
X00883Y00883D02*
X01154Y00478D01*
X01154Y00478D02*
X01250Y00000D01*
X-02500Y00000D02*
X02500Y00000D01*
X00000Y02500D02*
X00000Y-02500D01*
X00000Y00000D02*
X00000Y26000D01*
X29000Y00000D02*
X00000Y00000D01*
X29000Y26000D02*
X29000Y00000D01*
X00000Y26000D02*
X29000Y26000D01*
X05300Y14100D02*
X05300Y12100D01*
X08300Y14100D02*
X08300Y12100D01*
X04300Y14100D02*
X05300Y14100D01*
X04300Y12100D02*
X05300Y12100D01*
X09300Y12100D02*
X08300Y12100D01*
X09300Y14100D02*
X08300Y14100D01*
X09300Y10600D02*
X04300Y10600D01*
X04300Y10600D02*
X04300Y15600D01*
X04300Y15600D02*
X09300Y15600D01*
X09300Y15600D02*
X09300Y10600D01*
X14800Y25900D02*
X25000Y25900D01*
X25000Y25900D02*
X25000Y21100D01*
X14800Y21100D02*
X14800Y25900D01*
X17000Y13100D02*
X24100Y13100D01*
X24100Y13100D02*
X24100Y12400D01*
X24100Y12400D02*
X17000Y12400D01*
X17000Y12400D02*
X17000Y13100D01*
X19900Y21100D02*
X19900Y11100D01*
X14400Y20300D02*
X14000Y20300D01*
X14000Y20300D02*
X14000Y19500D01*
X14000Y19500D02*
X14400Y19500D01*
X25400Y20300D02*
X25800Y20300D01*
X25800Y20300D02*
X25800Y19500D01*
X25800Y19500D02*
X25400Y19500D01*
X25400Y11100D02*
X25800Y11100D01*
X25800Y11100D02*
X25800Y11900D01*
X25800Y11900D02*
X25400Y11900D01*
X15400Y11100D02*
X15400Y11900D01*
X15400Y11900D02*
X15800Y11900D01*
X15800Y11100D02*
X15400Y11100D01*
X14400Y14500D02*
X14400Y21100D01*
X15800Y13100D02*
X14400Y14500D01*
X25400Y21100D02*
X14400Y21100D01*
X15800Y11100D02*
X15800Y13100D01*
X25400Y11100D02*
X15800Y11100D01*
X25400Y21100D02*
X25400Y11100D01*
X28090Y24500D02*
X28010Y24205D01*
X28010Y24205D02*
X27795Y23990D01*
X27795Y23990D02*
X27500Y23910D01*
X27500Y23910D02*
X27205Y23990D01*
X27205Y23990D02*
X26990Y24205D01*
X26990Y24205D02*
X26910Y24500D01*
X26910Y24500D02*
X26990Y24795D01*
X26990Y24795D02*
X27205Y25010D01*
X27205Y25010D02*
X27500Y25090D01*
X27500Y25090D02*
X27795Y25010D01*
X27795Y25010D02*
X28010Y24795D01*
X28010Y24795D02*
X28090Y24500D01*
X27500Y23000D02*
X27500Y-00500D01*
X27500Y23000D02*
X27500Y26600D01*
X01500Y01500D02*
X32400Y01500D01*
X01500Y24500D02*
X29500Y24500D01*
X28090Y01500D02*
X28010Y01205D01*
X28010Y01205D02*
X27795Y00990D01*
X27795Y00990D02*
X27500Y00910D01*
X27500Y00910D02*
X27205Y00990D01*
X27205Y00990D02*
X26990Y01205D01*
X26990Y01205D02*
X26910Y01500D01*
X26910Y01500D02*
X26990Y01795D01*
X26990Y01795D02*
X27205Y02010D01*
X27205Y02010D02*
X27500Y02090D01*
X27500Y02090D02*
X27795Y02010D01*
X27795Y02010D02*
X28010Y01795D01*
X28010Y01795D02*
X28090Y01500D01*
X02090Y01500D02*
X02010Y01205D01*
X02010Y01205D02*
X01795Y00990D01*
X01795Y00990D02*
X01500Y00910D01*
X01500Y00910D02*
X01205Y00990D01*
X01205Y00990D02*
X00990Y01205D01*
X00990Y01205D02*
X00910Y01500D01*
X00910Y01500D02*
X00990Y01795D01*
X00990Y01795D02*
X01205Y02010D01*
X01205Y02010D02*
X01500Y02090D01*
X01500Y02090D02*
X01795Y02010D01*
X01795Y02010D02*
X02010Y01795D01*
X02010Y01795D02*
X02090Y01500D01*
X02090Y24500D02*
X02010Y24205D01*
X02010Y24205D02*
X01795Y23990D01*
X01795Y23990D02*
X01500Y23910D01*
X01500Y23910D02*
X01205Y23990D01*
X01205Y23990D02*
X00990Y24205D01*
X00990Y24205D02*
X00910Y24500D01*
X00910Y24500D02*
X00990Y24795D01*
X00990Y24795D02*
X01205Y25010D01*
X01205Y25010D02*
X01500Y25090D01*
X01500Y25090D02*
X01795Y25010D01*
X01795Y25010D02*
X02010Y24795D01*
X02010Y24795D02*
X02090Y24500D01*
X29000Y00200D02*
X29000Y00000D01*
X29000Y00000D02*
X00000Y00000D01*
X00000Y00000D02*
X00000Y00200D01*
X00000Y25800D02*
X00000Y26000D01*
X00000Y26000D02*
X29000Y26000D01*
X29000Y26000D02*
X29000Y25800D01*
X29000Y00400D02*
X29000Y00200D01*
X00000Y00200D02*
X00000Y00400D01*
X00000Y25600D02*
X00000Y25800D01*
X29000Y25800D02*
X29000Y25600D01*
X00000Y01000D02*
X00000Y00400D01*
X29000Y00400D02*
X29000Y01000D01*
X00000Y25000D02*
X00000Y25600D01*
X29000Y25600D02*
X29000Y25000D01*
X29000Y22500D02*
X29000Y25000D01*
X00000Y25000D02*
X00000Y22000D01*
X00000Y22000D02*
X00000Y03500D01*
X00000Y03500D02*
X00000Y01500D01*
X00000Y01500D02*
X00000Y01000D01*
X29000Y01000D02*
X29000Y04000D01*
X29000Y04000D02*
X29000Y22500D01*
X22300Y05600D02*
X22800Y05600D01*
X22800Y05600D02*
X22800Y04600D01*
X22800Y04600D02*
X22300Y04600D01*
X22300Y06100D02*
X26300Y06100D01*
X26300Y06100D02*
X26300Y04100D01*
X26300Y04100D02*
X22300Y04100D01*
X22300Y04100D02*
X22300Y06100D01*
G54D44*
X06500Y20350D02*
X06500Y18900D01*
X06500Y18900D02*
X07000Y18900D01*
X07000Y18900D02*
X07000Y20350D01*
X05850Y20350D02*
X05850Y18900D01*
X05850Y18900D02*
X06350Y18900D01*
X06350Y18900D02*
X06350Y20350D01*
X05150Y20350D02*
X05150Y18900D01*
X05150Y18900D02*
X05650Y18900D01*
X05650Y18900D02*
X05650Y20350D01*
X04500Y20350D02*
X04500Y18900D01*
X04500Y18900D02*
X04950Y18900D01*
X04950Y18900D02*
X05000Y18900D01*
X05000Y18900D02*
X05000Y20350D01*
X03800Y20350D02*
X03800Y18900D01*
X03800Y18900D02*
X04300Y18900D01*
X04300Y18900D02*
X04300Y20350D01*
X03300Y20350D02*
X07500Y20350D01*
X07500Y20350D02*
X07500Y24350D01*
X07500Y24350D02*
X03300Y24350D01*
X03300Y24350D02*
X03300Y20350D01*
G54D43*
X08250Y18150D02*
X08250Y19650D01*
X08250Y19650D02*
X11500Y19650D01*
X11500Y19650D02*
X11500Y18150D01*
X11500Y18150D02*
X08250Y18150D01*
X07500Y18400D02*
X08250Y18400D01*
X07500Y19400D02*
X08250Y19400D01*
G54D41*
X13000Y04100D02*
X13400Y04100D01*
X18000Y04100D02*
X17600Y04100D01*
X17600Y04600D02*
X17600Y03600D01*
X17600Y03600D02*
X13400Y03600D01*
X13400Y03600D02*
X13400Y04600D01*
X13400Y04600D02*
X17600Y04600D01*
X13400Y04400D02*
X13600Y04600D01*
G54D44*
X21450Y04850D02*
X21425Y04807D01*
X21425Y04807D02*
X21375Y04807D01*
X21375Y04807D02*
X21350Y04850D01*
X21350Y04850D02*
X21375Y04893D01*
X21375Y04893D02*
X21425Y04893D01*
X21425Y04893D02*
X21450Y04850D01*
X21400Y04400D02*
X21400Y04800D01*
X21400Y04800D02*
X22000Y04800D01*
X22000Y04800D02*
X22000Y04400D01*
X22000Y04000D02*
X22000Y03600D01*
X22000Y03600D02*
X21400Y03600D01*
X21400Y03600D02*
X21400Y04000D01*
X07850Y05550D02*
X07825Y05507D01*
X07825Y05507D02*
X07775Y05507D01*
X07775Y05507D02*
X07750Y05550D01*
X07750Y05550D02*
X07775Y05593D01*
X07775Y05593D02*
X07825Y05593D01*
X07825Y05593D02*
X07850Y05550D01*
X07800Y06000D02*
X07800Y05600D01*
X07800Y05600D02*
X07200Y05600D01*
X07200Y05600D02*
X07200Y06000D01*
X07200Y06400D02*
X07200Y06800D01*
X07200Y06800D02*
X07800Y06800D01*
X07800Y06800D02*
X07800Y06400D01*
X07900Y07700D02*
X07875Y07657D01*
X07875Y07657D02*
X07825Y07657D01*
X07825Y07657D02*
X07800Y07700D01*
X07800Y07700D02*
X07825Y07743D01*
X07825Y07743D02*
X07875Y07743D01*
X07875Y07743D02*
X07900Y07700D01*
X07400Y07700D02*
X07800Y07700D01*
X07800Y07700D02*
X07800Y07100D01*
X07800Y07100D02*
X07400Y07100D01*
X07000Y07100D02*
X06600Y07100D01*
X06600Y07100D02*
X06600Y07700D01*
X06600Y07700D02*
X07000Y07700D01*
X05100Y18100D02*
X05075Y18057D01*
X05075Y18057D02*
X05025Y18057D01*
X05025Y18057D02*
X05000Y18100D01*
X05000Y18100D02*
X05025Y18143D01*
X05025Y18143D02*
X05075Y18143D01*
X05075Y18143D02*
X05100Y18100D01*
X05500Y18100D02*
X05100Y18100D01*
X05100Y18100D02*
X05100Y18700D01*
X05100Y18700D02*
X05500Y18700D01*
X05900Y18700D02*
X06300Y18700D01*
X06300Y18700D02*
X06300Y18100D01*
X06300Y18100D02*
X05900Y18100D01*
X09300Y20000D02*
X09275Y19957D01*
X09275Y19957D02*
X09225Y19957D01*
X09225Y19957D02*
X09200Y20000D01*
X09200Y20000D02*
X09225Y20043D01*
X09225Y20043D02*
X09275Y20043D01*
X09275Y20043D02*
X09300Y20000D01*
X09700Y20000D02*
X09300Y20000D01*
X09300Y20000D02*
X09300Y20600D01*
X09300Y20600D02*
X09700Y20600D01*
X10100Y20600D02*
X10500Y20600D01*
X10500Y20600D02*
X10500Y20000D01*
X10500Y20000D02*
X10100Y20000D01*
X04950Y04900D02*
X04950Y04850D01*
X04950Y04850D02*
X07050Y04850D01*
X07050Y06350D02*
X04950Y06350D01*
X04950Y06350D02*
X04950Y04900D01*
X04950Y05800D02*
X05150Y05800D01*
X05150Y05800D02*
X05150Y05400D01*
X05150Y05400D02*
X04950Y05400D01*
X07050Y06350D02*
X07050Y04850D01*
G54D45*
X08830Y02830D02*
X08570Y02830D01*
X08570Y02830D02*
X08570Y02570D01*
X08830Y02570D02*
X08570Y02570D01*
X08830Y02830D02*
X08830Y02570D01*
X07830Y02830D02*
X07570Y02830D01*
X07570Y02830D02*
X07570Y02570D01*
X07830Y02570D02*
X07570Y02570D01*
X07830Y02830D02*
X07830Y02570D01*
X06830Y02830D02*
X06570Y02830D01*
X06570Y02830D02*
X06570Y02570D01*
X06830Y02570D02*
X06570Y02570D01*
X06830Y02830D02*
X06830Y02570D01*
X05830Y02830D02*
X05570Y02830D01*
X05570Y02830D02*
X05570Y02570D01*
X05830Y02570D02*
X05570Y02570D01*
X05830Y02830D02*
X05830Y02570D01*
G54D46*
X08350Y02000D02*
X08300Y02050D01*
X08300Y02050D02*
X08200Y02150D01*
X08200Y02150D02*
X08100Y02050D01*
X08100Y02050D02*
X08050Y02000D01*
X08300Y03550D02*
X08300Y03600D01*
X08300Y03600D02*
X09100Y03600D01*
X08100Y03550D02*
X08300Y03550D01*
X08100Y03550D02*
X08100Y03600D01*
X09100Y01700D02*
X09100Y02000D01*
X09100Y02000D02*
X09100Y03300D01*
X09100Y03400D02*
X09100Y03600D01*
X09100Y03400D02*
X08950Y03400D01*
X08450Y03400D02*
X08450Y03300D01*
X08950Y03400D02*
X08950Y03300D01*
X08950Y03200D02*
X08450Y03200D01*
X08450Y03300D02*
X08450Y03200D01*
X07950Y03400D02*
X07950Y03300D01*
X07950Y03300D02*
X07950Y03200D01*
X08450Y03300D02*
X08300Y03300D01*
X08300Y03300D02*
X08100Y03300D01*
X08100Y03300D02*
X07950Y03300D01*
X08950Y03300D02*
X09100Y03300D01*
X08950Y03300D02*
X08950Y03200D01*
X09100Y03300D02*
X09100Y03400D01*
X09100Y01700D02*
X08800Y01700D01*
X08800Y01700D02*
X08800Y01650D01*
X08600Y01700D02*
X08600Y01650D01*
X08600Y01650D02*
X08800Y01650D01*
X07800Y01700D02*
X07800Y01650D01*
X07600Y01700D02*
X07600Y01650D01*
X08100Y01750D02*
X08100Y01700D01*
X08300Y01750D02*
X08300Y01700D01*
X07100Y03550D02*
X07300Y03550D01*
X07100Y03550D02*
X07100Y03600D01*
X06300Y03600D02*
X07100Y03600D01*
X06450Y03400D02*
X06450Y03300D01*
X06950Y03200D02*
X06450Y03200D01*
X07450Y03400D02*
X07450Y03300D01*
X07450Y03300D02*
X07450Y03200D01*
X06950Y03400D02*
X06950Y03300D01*
X06950Y03300D02*
X06950Y03200D01*
X07450Y03300D02*
X07300Y03300D01*
X07300Y03300D02*
X07100Y03300D01*
X07100Y03300D02*
X06950Y03300D01*
X06450Y03300D02*
X06450Y03200D01*
X06800Y01700D02*
X06800Y01650D01*
X06600Y01700D02*
X06300Y01700D01*
X06600Y01700D02*
X06600Y01650D01*
X06600Y01650D02*
X06800Y01650D01*
X07100Y01750D02*
X07100Y01700D01*
X07100Y01700D02*
X06800Y01700D01*
X07100Y01750D02*
X07300Y01750D01*
X07300Y01750D02*
X07300Y01700D01*
X07600Y01700D02*
X07300Y01700D01*
X07600Y01650D02*
X07800Y01650D01*
X08100Y01700D02*
X07800Y01700D01*
X08300Y01750D02*
X08100Y01750D01*
X08300Y01700D02*
X08600Y01700D01*
X08350Y02000D02*
X09100Y02000D01*
X08050Y02000D02*
X07300Y02000D01*
X07300Y02000D02*
X07100Y02000D01*
X08100Y02050D02*
X08100Y03300D01*
X08300Y02050D02*
X08300Y03300D01*
X07300Y02000D02*
X07300Y03300D01*
X07100Y02000D02*
X07100Y03300D01*
X07950Y03200D02*
X07450Y03200D01*
X07950Y03400D02*
X08450Y03400D01*
X08100Y03600D02*
X07300Y03600D01*
X07450Y03400D02*
X06950Y03400D01*
X07300Y03550D02*
X07300Y03600D01*
X05300Y02000D02*
X05300Y03300D01*
X05300Y03400D02*
X05300Y03600D01*
X06100Y03550D02*
X06300Y03550D01*
X06300Y03550D02*
X06300Y03600D01*
X06100Y03550D02*
X06100Y03600D01*
X05300Y03600D02*
X06100Y03600D01*
X05300Y03400D02*
X05450Y03400D01*
X05450Y03400D02*
X05450Y03300D01*
X05450Y03300D02*
X05450Y03200D01*
X05450Y03300D02*
X05300Y03300D01*
X05950Y03200D02*
X05450Y03200D01*
X05950Y03400D02*
X05950Y03300D01*
X06450Y03300D02*
X06300Y03300D01*
X06300Y03300D02*
X06100Y03300D01*
X06100Y03300D02*
X05950Y03300D01*
X05950Y03300D02*
X05950Y03200D01*
X06100Y02050D02*
X06100Y03300D01*
X06300Y02050D02*
X06200Y02150D01*
X06300Y02050D02*
X06300Y03300D01*
X06350Y02000D02*
X06300Y02050D01*
X06200Y02150D02*
X06050Y02000D01*
X06050Y02000D02*
X05300Y02000D01*
X06450Y03400D02*
X05950Y03400D01*
X05300Y03400D02*
X05300Y03300D01*
X06300Y01750D02*
X06300Y01700D01*
X06100Y01750D02*
X06300Y01750D01*
X06100Y01700D02*
X05800Y01700D01*
X06100Y01750D02*
X06100Y01700D01*
X05800Y01700D02*
X05800Y01650D01*
X05600Y01650D02*
X05800Y01650D01*
X05600Y01700D02*
X05600Y01650D01*
X05600Y01700D02*
X05300Y01700D01*
X05300Y01700D02*
X05300Y02000D01*
X07100Y02000D02*
X06350Y02000D01*
G54D45*
X04670Y08970D02*
X04930Y08970D01*
X04930Y08970D02*
X04930Y09230D01*
X04670Y09230D02*
X04930Y09230D01*
X04670Y08970D02*
X04670Y09230D01*
X05670Y08970D02*
X05930Y08970D01*
X05930Y08970D02*
X05930Y09230D01*
X05670Y09230D02*
X05930Y09230D01*
X05670Y08970D02*
X05670Y09230D01*
X06670Y08970D02*
X06930Y08970D01*
X06930Y08970D02*
X06930Y09230D01*
X06670Y09230D02*
X06930Y09230D01*
X06670Y08970D02*
X06670Y09230D01*
X07670Y08970D02*
X07930Y08970D01*
X07930Y08970D02*
X07930Y09230D01*
X07670Y09230D02*
X07930Y09230D01*
X07670Y08970D02*
X07670Y09230D01*
G54D46*
X05150Y09800D02*
X05200Y09750D01*
X05200Y09750D02*
X05300Y09650D01*
X05300Y09650D02*
X05400Y09750D01*
X05400Y09750D02*
X05450Y09800D01*
X05200Y08250D02*
X05200Y08200D01*
X05200Y08200D02*
X04400Y08200D01*
X05400Y08250D02*
X05200Y08250D01*
X05400Y08250D02*
X05400Y08200D01*
X04400Y10100D02*
X04400Y09800D01*
X04400Y09800D02*
X04400Y08500D01*
X04400Y08400D02*
X04400Y08200D01*
X04400Y08400D02*
X04550Y08400D01*
X05050Y08400D02*
X05050Y08500D01*
X04550Y08400D02*
X04550Y08500D01*
X04550Y08600D02*
X05050Y08600D01*
X05050Y08500D02*
X05050Y08600D01*
X05550Y08400D02*
X05550Y08500D01*
X05550Y08500D02*
X05550Y08600D01*
X05050Y08500D02*
X05200Y08500D01*
X05200Y08500D02*
X05400Y08500D01*
X05400Y08500D02*
X05550Y08500D01*
X04550Y08500D02*
X04400Y08500D01*
X04550Y08500D02*
X04550Y08600D01*
X04400Y08500D02*
X04400Y08400D01*
X04400Y10100D02*
X04700Y10100D01*
X04700Y10100D02*
X04700Y10150D01*
X04900Y10100D02*
X04900Y10150D01*
X04900Y10150D02*
X04700Y10150D01*
X05700Y10100D02*
X05700Y10150D01*
X05900Y10100D02*
X05900Y10150D01*
X05400Y10050D02*
X05400Y10100D01*
X05200Y10050D02*
X05200Y10100D01*
X06400Y08250D02*
X06200Y08250D01*
X06400Y08250D02*
X06400Y08200D01*
X07200Y08200D02*
X06400Y08200D01*
X07050Y08400D02*
X07050Y08500D01*
X06550Y08600D02*
X07050Y08600D01*
X06050Y08400D02*
X06050Y08500D01*
X06050Y08500D02*
X06050Y08600D01*
X06550Y08400D02*
X06550Y08500D01*
X06550Y08500D02*
X06550Y08600D01*
X06050Y08500D02*
X06200Y08500D01*
X06200Y08500D02*
X06400Y08500D01*
X06400Y08500D02*
X06550Y08500D01*
X07050Y08500D02*
X07050Y08600D01*
X06700Y10100D02*
X06700Y10150D01*
X06900Y10100D02*
X07200Y10100D01*
X06900Y10100D02*
X06900Y10150D01*
X06900Y10150D02*
X06700Y10150D01*
X06400Y10050D02*
X06400Y10100D01*
X06400Y10100D02*
X06700Y10100D01*
X06400Y10050D02*
X06200Y10050D01*
X06200Y10050D02*
X06200Y10100D01*
X05900Y10100D02*
X06200Y10100D01*
X05900Y10150D02*
X05700Y10150D01*
X05400Y10100D02*
X05700Y10100D01*
X05200Y10050D02*
X05400Y10050D01*
X05200Y10100D02*
X04900Y10100D01*
X05150Y09800D02*
X04400Y09800D01*
X05450Y09800D02*
X06200Y09800D01*
X06200Y09800D02*
X06400Y09800D01*
X05400Y09750D02*
X05400Y08500D01*
X05200Y09750D02*
X05200Y08500D01*
X06200Y09800D02*
X06200Y08500D01*
X06400Y09800D02*
X06400Y08500D01*
X05550Y08600D02*
X06050Y08600D01*
X05550Y08400D02*
X05050Y08400D01*
X05400Y08200D02*
X06200Y08200D01*
X06050Y08400D02*
X06550Y08400D01*
X06200Y08250D02*
X06200Y08200D01*
X08200Y09800D02*
X08200Y08500D01*
X08200Y08400D02*
X08200Y08200D01*
X07400Y08250D02*
X07200Y08250D01*
X07200Y08250D02*
X07200Y08200D01*
X07400Y08250D02*
X07400Y08200D01*
X08200Y08200D02*
X07400Y08200D01*
X08200Y08400D02*
X08050Y08400D01*
X08050Y08400D02*
X08050Y08500D01*
X08050Y08500D02*
X08050Y08600D01*
X08050Y08500D02*
X08200Y08500D01*
X07550Y08600D02*
X08050Y08600D01*
X07550Y08400D02*
X07550Y08500D01*
X07050Y08500D02*
X07200Y08500D01*
X07200Y08500D02*
X07400Y08500D01*
X07400Y08500D02*
X07550Y08500D01*
X07550Y08500D02*
X07550Y08600D01*
X07400Y09750D02*
X07400Y08500D01*
X07200Y09750D02*
X07300Y09650D01*
X07200Y09750D02*
X07200Y08500D01*
X07150Y09800D02*
X07200Y09750D01*
X07300Y09650D02*
X07450Y09800D01*
X07450Y09800D02*
X08200Y09800D01*
X07050Y08400D02*
X07550Y08400D01*
X08200Y08400D02*
X08200Y08500D01*
X07200Y10050D02*
X07200Y10100D01*
X07400Y10050D02*
X07200Y10050D01*
X07400Y10100D02*
X07700Y10100D01*
X07400Y10050D02*
X07400Y10100D01*
X07700Y10100D02*
X07700Y10150D01*
X07900Y10150D02*
X07700Y10150D01*
X07900Y10100D02*
X07900Y10150D01*
X07900Y10100D02*
X08200Y10100D01*
X08200Y10100D02*
X08200Y09800D01*
X06400Y09800D02*
X07150Y09800D01*
G54D45*
X06050Y15800D02*
X06350Y15800D01*
X06350Y15800D02*
X06350Y18000D01*
X06050Y18000D02*
X06350Y18000D01*
X06050Y15800D02*
X06050Y18000D01*
X05350Y16650D02*
X05700Y16650D01*
X05700Y16650D02*
X05700Y17150D01*
X05350Y17150D02*
X05700Y17150D01*
X05350Y16650D02*
X05350Y17150D01*
X09700Y16650D02*
X10050Y16650D01*
X10050Y16650D02*
X10050Y17150D01*
X09700Y17150D02*
X10050Y17150D01*
X09700Y16650D02*
X09700Y17150D01*
G54D46*
X07200Y16900D02*
X07700Y16900D01*
X07700Y17130D02*
X07700Y16900D01*
X07700Y16900D02*
X08150Y17130D01*
X08150Y17130D02*
X08150Y16670D01*
X08150Y16670D02*
X07700Y16900D01*
X07700Y16900D02*
X08600Y16900D01*
X07700Y16900D02*
X07700Y16670D01*
X05700Y15800D02*
X05700Y18000D01*
X09700Y18000D02*
X09700Y15800D01*
X05700Y18000D02*
X09700Y18000D01*
X09700Y15800D02*
X05700Y15800D01*
G54D25*
X10700Y16900D02*
X10150Y16900D01*
X04700Y16900D02*
X05250Y16900D01*
G54D45*
X13100Y21050D02*
X13100Y21250D01*
X13100Y21250D02*
X12100Y21250D01*
X12100Y21050D02*
X12100Y21250D01*
X13100Y21050D02*
X12100Y21050D01*
X12750Y22500D02*
X12750Y23250D01*
X12750Y23250D02*
X12450Y23250D01*
X12450Y22500D02*
X12450Y23250D01*
X12750Y22500D02*
X12450Y22500D01*
X12750Y20150D02*
X12750Y20900D01*
X12750Y20900D02*
X12450Y20900D01*
X12450Y20150D02*
X12450Y20900D01*
X12750Y20150D02*
X12450Y20150D01*
G54D46*
X13100Y22500D02*
X13100Y20900D01*
X13100Y22500D02*
X12100Y22500D01*
X12100Y20900D02*
X12100Y22500D01*
X12100Y20900D02*
X13100Y20900D01*
G54D47*
X12600Y23700D02*
X12600Y23300D01*
X12600Y19700D02*
X12600Y20100D01*
G54D46*
X12600Y21450D02*
X12600Y21700D01*
X12350Y22100D02*
X12850Y22100D01*
X12850Y22100D02*
X12600Y21700D01*
X12600Y21700D02*
X12600Y22300D01*
X12600Y21700D02*
X12350Y22100D01*
X12350Y21700D02*
X12600Y21700D01*
X12600Y21700D02*
X12850Y21700D01*
G54D45*
X21360Y06830D02*
X21360Y06609D01*
X21360Y06609D02*
X22040Y06609D01*
X22040Y06830D02*
X22040Y06609D01*
X21360Y06830D02*
X22040Y06830D01*
X21360Y05591D02*
X21360Y05370D01*
X21360Y05370D02*
X22040Y05370D01*
X22040Y05591D02*
X22040Y05370D01*
X21360Y05591D02*
X22040Y05591D01*
X21390Y06440D02*
X21390Y06200D01*
X21390Y06200D02*
X22010Y06200D01*
X22010Y06440D02*
X22010Y06200D01*
X21390Y06440D02*
X22010Y06440D01*
G54D46*
X22010Y05580D02*
X22010Y06620D01*
X21390Y05580D02*
X21390Y06620D01*
G54D43*
X21896Y05904D02*
X21700Y06296D01*
X21700Y06296D02*
X21504Y05904D01*
X21504Y05904D02*
X21896Y05904D01*
X11244Y25960D02*
X09356Y25960D01*
X09356Y25960D02*
X09356Y21670D01*
X09356Y21670D02*
X11244Y21670D01*
X11244Y21670D02*
X11244Y25960D01*
G54D48*
X10733Y21611D02*
X09867Y21611D01*
X09867Y21611D02*
X09867Y21808D01*
X09867Y21808D02*
X10733Y21808D01*
X10733Y21808D02*
X10733Y21611D01*
X10693Y23579D02*
X09907Y23579D01*
X09907Y23579D02*
X09907Y23697D01*
X09907Y23697D02*
X10693Y23697D01*
X10693Y23697D02*
X10693Y23579D01*
X09316Y22418D02*
X09159Y22418D01*
X09159Y22418D02*
X09159Y22890D01*
X09159Y22890D02*
X09316Y22890D01*
X09316Y22890D02*
X09316Y22418D01*
G54D49*
X11087Y25921D02*
X11087Y25685D01*
X11087Y25488D02*
X11087Y25251D01*
X11087Y25055D02*
X11087Y24818D01*
X11087Y24622D02*
X11087Y24385D01*
X09513Y25921D02*
X09513Y25685D01*
X09513Y25488D02*
X09513Y25251D01*
X09513Y25055D02*
X09513Y24818D01*
X09513Y24622D02*
X09513Y24385D01*
X11087Y24188D02*
X11087Y23953D01*
X10851Y23756D02*
X11087Y23756D01*
X09513Y24188D02*
X09513Y23953D01*
X09513Y23756D02*
X09749Y23756D01*
X10378Y23756D02*
X10614Y23756D01*
X09907Y23756D02*
X10143Y23756D01*
X10496Y25881D02*
X10496Y25330D01*
X10104Y25881D02*
X10104Y25330D01*
X10496Y25173D02*
X10496Y24622D01*
X10104Y25173D02*
X10104Y24622D01*
X10496Y24464D02*
X10496Y23914D01*
X10104Y24464D02*
X10104Y23914D01*
G54D44*
X10633Y22654D02*
X10607Y22527D01*
X10607Y22527D02*
X10535Y22419D01*
X10535Y22419D02*
X10427Y22347D01*
X10427Y22347D02*
X10300Y22321D01*
X10300Y22321D02*
X10173Y22347D01*
X10173Y22347D02*
X10065Y22419D01*
X10065Y22419D02*
X09993Y22527D01*
X09993Y22527D02*
X09967Y22654D01*
X09967Y22654D02*
X09993Y22781D01*
X09993Y22781D02*
X10065Y22889D01*
X10065Y22889D02*
X10173Y22961D01*
X10173Y22961D02*
X10300Y22987D01*
X10300Y22987D02*
X10427Y22961D01*
X10427Y22961D02*
X10535Y22889D01*
X10535Y22889D02*
X10607Y22781D01*
X10607Y22781D02*
X10633Y22654D01*
X10772Y22654D02*
X09828Y22654D01*
X10300Y23126D02*
X10300Y22182D01*
X23250Y02900D02*
X23250Y02850D01*
X23250Y02850D02*
X25350Y02850D01*
X25350Y04350D02*
X23250Y04350D01*
X23250Y04350D02*
X23250Y02900D01*
X23250Y03800D02*
X23450Y03800D01*
X23450Y03800D02*
X23450Y03400D01*
X23450Y03400D02*
X23250Y03400D01*
X25350Y04350D02*
X25350Y02850D01*
G54D45*
X23570Y01270D02*
X23830Y01270D01*
X23830Y01270D02*
X23830Y01530D01*
X23570Y01530D02*
X23830Y01530D01*
X23570Y01270D02*
X23570Y01530D01*
X24570Y01270D02*
X24830Y01270D01*
X24830Y01270D02*
X24830Y01530D01*
X24570Y01530D02*
X24830Y01530D01*
X24570Y01270D02*
X24570Y01530D01*
G54D46*
X23300Y02400D02*
X23300Y02100D01*
X23300Y02100D02*
X24050Y02100D01*
X24050Y02100D02*
X24100Y02050D01*
X24100Y02050D02*
X24200Y01950D01*
X24200Y01950D02*
X24300Y02050D01*
X24300Y02050D02*
X24350Y02100D01*
X24100Y00550D02*
X24100Y00500D01*
X24100Y00500D02*
X23300Y00500D01*
X24300Y00550D02*
X24100Y00550D01*
X24300Y00550D02*
X24300Y00500D01*
X25100Y00500D02*
X24300Y00500D01*
X24350Y02100D02*
X25100Y02100D01*
X25100Y02100D02*
X25100Y02400D01*
X23300Y02100D02*
X23300Y00800D01*
X23300Y00700D02*
X23300Y00500D01*
X23300Y00700D02*
X23450Y00700D01*
X25100Y00700D02*
X25100Y00500D01*
X25100Y00700D02*
X24950Y00700D01*
X25100Y02100D02*
X25100Y00800D01*
X24950Y00700D02*
X24950Y00800D01*
X24450Y00900D02*
X24950Y00900D01*
X23950Y00700D02*
X23950Y00800D01*
X23450Y00700D02*
X23450Y00800D01*
X23450Y00900D02*
X23950Y00900D01*
X23950Y00700D02*
X24450Y00700D01*
X23950Y00800D02*
X23950Y00900D01*
X24450Y00700D02*
X24450Y00800D01*
X24450Y00800D02*
X24450Y00900D01*
X24300Y00800D02*
X24450Y00800D01*
X24300Y00800D02*
X24300Y02050D01*
X23950Y00800D02*
X24100Y00800D01*
X24100Y00800D02*
X24300Y00800D01*
X24100Y00800D02*
X24100Y02050D01*
X24950Y00800D02*
X25100Y00800D01*
X24950Y00800D02*
X24950Y00900D01*
X25100Y00800D02*
X25100Y00700D01*
X23450Y00800D02*
X23300Y00800D01*
X23450Y00800D02*
X23450Y00900D01*
X23300Y00800D02*
X23300Y00700D01*
X23300Y02400D02*
X23600Y02400D01*
X23600Y02400D02*
X23600Y02450D01*
X23800Y02400D02*
X23800Y02450D01*
X23800Y02450D02*
X23600Y02450D01*
X24600Y02400D02*
X24600Y02450D01*
X24800Y02400D02*
X25100Y02400D01*
X24800Y02400D02*
X24800Y02450D01*
X24800Y02450D02*
X24600Y02450D01*
X24300Y02350D02*
X24300Y02400D01*
X24300Y02400D02*
X24600Y02400D01*
X24300Y02350D02*
X24100Y02350D01*
X24100Y02350D02*
X24100Y02400D01*
X24100Y02400D02*
X23800Y02400D01*
G54D44*
X03650Y06550D02*
X03650Y07450D01*
X03650Y07450D02*
X04150Y07450D01*
X04150Y07450D02*
X04150Y06550D01*
X04150Y06550D02*
X03650Y06550D01*
X04750Y06750D02*
X04750Y05850D01*
X04750Y05850D02*
X04250Y05850D01*
X04250Y05850D02*
X04250Y06750D01*
X04250Y06750D02*
X04750Y06750D01*
G54D42*
X05300Y12116D02*
X04300Y12116D01*
X04300Y12116D02*
X04300Y14084D01*
X04300Y14084D02*
X05300Y14084D01*
X05300Y14084D02*
X05300Y12116D01*
X09300Y12116D02*
X08300Y12116D01*
X08300Y12116D02*
X08300Y14084D01*
X08300Y14084D02*
X09300Y14084D01*
X09300Y14084D02*
X09300Y12116D01*
X00650Y22225D02*
X00650Y22775D01*
X00650Y22775D02*
X01350Y22775D01*
X01350Y22775D02*
X01350Y22225D01*
X01350Y22225D02*
X00650Y22225D01*
X01650Y22225D02*
X01650Y22775D01*
X01650Y22775D02*
X02350Y22775D01*
X02350Y22775D02*
X02350Y22225D01*
X02350Y22225D02*
X01650Y22225D01*
X00650Y21225D02*
X00650Y21775D01*
X00650Y21775D02*
X01350Y21775D01*
X01350Y21775D02*
X01350Y21225D01*
X01350Y21225D02*
X00650Y21225D01*
X01650Y21225D02*
X01650Y21775D01*
X01650Y21775D02*
X02350Y21775D01*
X02350Y21775D02*
X02350Y21225D01*
X02350Y21225D02*
X01650Y21225D01*
X00650Y20225D02*
X00650Y20775D01*
X00650Y20775D02*
X01350Y20775D01*
X01350Y20775D02*
X01350Y20225D01*
X01350Y20225D02*
X00650Y20225D01*
X01650Y20225D02*
X01650Y20775D01*
X01650Y20775D02*
X02350Y20775D01*
X02350Y20775D02*
X02350Y20225D01*
X02350Y20225D02*
X01650Y20225D01*
X00650Y19225D02*
X00650Y19775D01*
X00650Y19775D02*
X01350Y19775D01*
X01350Y19775D02*
X01350Y19225D01*
X01350Y19225D02*
X00650Y19225D01*
X01650Y19250D02*
X01650Y19750D01*
X01650Y19750D02*
X02350Y19750D01*
X02350Y19750D02*
X02350Y19250D01*
X02350Y19250D02*
X01650Y19250D01*
X00650Y18225D02*
X00650Y18775D01*
X00650Y18775D02*
X01350Y18775D01*
X01350Y18775D02*
X01350Y18225D01*
X01350Y18225D02*
X00650Y18225D01*
X01650Y18225D02*
X01650Y18775D01*
X01650Y18775D02*
X02350Y18775D01*
X02350Y18775D02*
X02350Y18225D01*
X02350Y18225D02*
X01650Y18225D01*
X00650Y17225D02*
X00650Y17775D01*
X00650Y17775D02*
X01350Y17775D01*
X01350Y17775D02*
X01350Y17225D01*
X01350Y17225D02*
X00650Y17225D01*
X01650Y17225D02*
X01650Y17775D01*
X01650Y17775D02*
X02350Y17775D01*
X02350Y17775D02*
X02350Y17225D01*
X02350Y17225D02*
X01650Y17225D01*
X00650Y16225D02*
X00650Y16775D01*
X00650Y16775D02*
X01350Y16775D01*
X01350Y16775D02*
X01350Y16225D01*
X01350Y16225D02*
X00650Y16225D01*
X01650Y16225D02*
X01650Y16775D01*
X01650Y16775D02*
X02350Y16775D01*
X02350Y16775D02*
X02350Y16225D01*
X02350Y16225D02*
X01650Y16225D01*
X00650Y15225D02*
X00650Y15775D01*
X00650Y15775D02*
X01350Y15775D01*
X01350Y15775D02*
X01350Y15225D01*
X01350Y15225D02*
X00650Y15225D01*
X01650Y15225D02*
X01650Y15775D01*
X01650Y15775D02*
X02350Y15775D01*
X02350Y15775D02*
X02350Y15225D01*
X02350Y15225D02*
X01650Y15225D01*
X00650Y14225D02*
X00650Y14775D01*
X00650Y14775D02*
X01350Y14775D01*
X01350Y14775D02*
X01350Y14225D01*
X01350Y14225D02*
X00650Y14225D01*
X01650Y14225D02*
X01650Y14775D01*
X01650Y14775D02*
X02350Y14775D01*
X02350Y14775D02*
X02350Y14225D01*
X02350Y14225D02*
X01650Y14225D01*
X00650Y13225D02*
X00650Y13775D01*
X00650Y13775D02*
X01350Y13775D01*
X01350Y13775D02*
X01350Y13225D01*
X01350Y13225D02*
X00650Y13225D01*
X01650Y13225D02*
X01650Y13775D01*
X01650Y13775D02*
X02350Y13775D01*
X02350Y13775D02*
X02350Y13225D01*
X02350Y13225D02*
X01650Y13225D01*
X00650Y12225D02*
X00650Y12775D01*
X00650Y12775D02*
X01350Y12775D01*
X01350Y12775D02*
X01350Y12225D01*
X01350Y12225D02*
X00650Y12225D01*
X01650Y12225D02*
X01650Y12775D01*
X01650Y12775D02*
X02350Y12775D01*
X02350Y12775D02*
X02350Y12225D01*
X02350Y12225D02*
X01650Y12225D01*
X00650Y11225D02*
X00650Y11775D01*
X00650Y11775D02*
X01350Y11775D01*
X01350Y11775D02*
X01350Y11225D01*
X01350Y11225D02*
X00650Y11225D01*
X01650Y11225D02*
X01650Y11775D01*
X01650Y11775D02*
X02350Y11775D01*
X02350Y11775D02*
X02350Y11225D01*
X02350Y11225D02*
X01650Y11225D01*
X00650Y10225D02*
X00650Y10775D01*
X00650Y10775D02*
X01350Y10775D01*
X01350Y10775D02*
X01350Y10225D01*
X01350Y10225D02*
X00650Y10225D01*
X01650Y10225D02*
X01650Y10775D01*
X01650Y10775D02*
X02350Y10775D01*
X02350Y10775D02*
X02350Y10225D01*
X02350Y10225D02*
X01650Y10225D01*
X00650Y09225D02*
X00650Y09775D01*
X00650Y09775D02*
X01350Y09775D01*
X01350Y09775D02*
X01350Y09225D01*
X01350Y09225D02*
X00650Y09225D01*
X01650Y09225D02*
X01650Y09775D01*
X01650Y09775D02*
X02350Y09775D01*
X02350Y09775D02*
X02350Y09225D01*
X02350Y09225D02*
X01650Y09225D01*
X00650Y08225D02*
X00650Y08775D01*
X00650Y08775D02*
X01350Y08775D01*
X01350Y08775D02*
X01350Y08225D01*
X01350Y08225D02*
X00650Y08225D01*
X01650Y08225D02*
X01650Y08775D01*
X01650Y08775D02*
X02350Y08775D01*
X02350Y08775D02*
X02350Y08225D01*
X02350Y08225D02*
X01650Y08225D01*
X00650Y07225D02*
X00650Y07775D01*
X00650Y07775D02*
X01350Y07775D01*
X01350Y07775D02*
X01350Y07225D01*
X01350Y07225D02*
X00650Y07225D01*
X01650Y07225D02*
X01650Y07775D01*
X01650Y07775D02*
X02350Y07775D01*
X02350Y07775D02*
X02350Y07225D01*
X02350Y07225D02*
X01650Y07225D01*
X00650Y06225D02*
X00650Y06775D01*
X00650Y06775D02*
X01350Y06775D01*
X01350Y06775D02*
X01350Y06225D01*
X01350Y06225D02*
X00650Y06225D01*
X01650Y06225D02*
X01650Y06775D01*
X01650Y06775D02*
X02350Y06775D01*
X02350Y06775D02*
X02350Y06225D01*
X02350Y06225D02*
X01650Y06225D01*
X00650Y05225D02*
X00650Y05775D01*
X00650Y05775D02*
X01350Y05775D01*
X01350Y05775D02*
X01350Y05225D01*
X01350Y05225D02*
X00650Y05225D01*
X01650Y05225D02*
X01650Y05775D01*
X01650Y05775D02*
X02350Y05775D01*
X02350Y05775D02*
X02350Y05225D01*
X02350Y05225D02*
X01650Y05225D01*
X00650Y04225D02*
X00650Y04775D01*
X00650Y04775D02*
X01350Y04775D01*
X01350Y04775D02*
X01350Y04225D01*
X01350Y04225D02*
X00650Y04225D01*
X01650Y04225D02*
X01650Y04775D01*
X01650Y04775D02*
X02350Y04775D01*
X02350Y04775D02*
X02350Y04225D01*
X02350Y04225D02*
X01650Y04225D01*
X00650Y03225D02*
X00650Y03775D01*
X00650Y03775D02*
X01350Y03775D01*
X01350Y03775D02*
X01350Y03225D01*
X01350Y03225D02*
X00650Y03225D01*
X01650Y03225D02*
X01650Y03775D01*
X01650Y03775D02*
X02350Y03775D01*
X02350Y03775D02*
X02350Y03225D01*
X02350Y03225D02*
X01650Y03225D01*
X27650Y22225D02*
X27650Y22775D01*
X27650Y22775D02*
X28350Y22775D01*
X28350Y22775D02*
X28350Y22225D01*
X28350Y22225D02*
X27650Y22225D01*
X26650Y22225D02*
X26650Y22775D01*
X26650Y22775D02*
X27350Y22775D01*
X27350Y22775D02*
X27350Y22225D01*
X27350Y22225D02*
X26650Y22225D01*
X26650Y21225D02*
X26650Y21775D01*
X26650Y21775D02*
X27350Y21775D01*
X27350Y21775D02*
X27350Y21225D01*
X27350Y21225D02*
X26650Y21225D01*
X27650Y21225D02*
X27650Y21775D01*
X27650Y21775D02*
X28350Y21775D01*
X28350Y21775D02*
X28350Y21225D01*
X28350Y21225D02*
X27650Y21225D01*
X26650Y20225D02*
X26650Y20775D01*
X26650Y20775D02*
X27350Y20775D01*
X27350Y20775D02*
X27350Y20225D01*
X27350Y20225D02*
X26650Y20225D01*
X27650Y20225D02*
X27650Y20775D01*
X27650Y20775D02*
X28350Y20775D01*
X28350Y20775D02*
X28350Y20225D01*
X28350Y20225D02*
X27650Y20225D01*
X26650Y19225D02*
X26650Y19775D01*
X26650Y19775D02*
X27350Y19775D01*
X27350Y19775D02*
X27350Y19225D01*
X27350Y19225D02*
X26650Y19225D01*
X27650Y19225D02*
X27650Y19775D01*
X27650Y19775D02*
X28350Y19775D01*
X28350Y19775D02*
X28350Y19225D01*
X28350Y19225D02*
X27650Y19225D01*
X26650Y18225D02*
X26650Y18775D01*
X26650Y18775D02*
X27350Y18775D01*
X27350Y18775D02*
X27350Y18225D01*
X27350Y18225D02*
X26650Y18225D01*
X27650Y18225D02*
X27650Y18775D01*
X27650Y18775D02*
X28350Y18775D01*
X28350Y18775D02*
X28350Y18225D01*
X28350Y18225D02*
X27650Y18225D01*
X26650Y17225D02*
X26650Y17775D01*
X26650Y17775D02*
X27350Y17775D01*
X27350Y17775D02*
X27350Y17225D01*
X27350Y17225D02*
X26650Y17225D01*
X27650Y17225D02*
X27650Y17775D01*
X27650Y17775D02*
X28350Y17775D01*
X28350Y17775D02*
X28350Y17225D01*
X28350Y17225D02*
X27650Y17225D01*
X26650Y16225D02*
X26650Y16775D01*
X26650Y16775D02*
X27350Y16775D01*
X27350Y16775D02*
X27350Y16225D01*
X27350Y16225D02*
X26650Y16225D01*
X27650Y16225D02*
X27650Y16775D01*
X27650Y16775D02*
X28350Y16775D01*
X28350Y16775D02*
X28350Y16225D01*
X28350Y16225D02*
X27650Y16225D01*
X26650Y15225D02*
X26650Y15775D01*
X26650Y15775D02*
X27350Y15775D01*
X27350Y15775D02*
X27350Y15225D01*
X27350Y15225D02*
X26650Y15225D01*
X27650Y15225D02*
X27650Y15775D01*
X27650Y15775D02*
X28350Y15775D01*
X28350Y15775D02*
X28350Y15225D01*
X28350Y15225D02*
X27650Y15225D01*
X26650Y14225D02*
X26650Y14775D01*
X26650Y14775D02*
X27350Y14775D01*
X27350Y14775D02*
X27350Y14225D01*
X27350Y14225D02*
X26650Y14225D01*
X27650Y14225D02*
X27650Y14775D01*
X27650Y14775D02*
X28350Y14775D01*
X28350Y14775D02*
X28350Y14225D01*
X28350Y14225D02*
X27650Y14225D01*
X26650Y13225D02*
X26650Y13775D01*
X26650Y13775D02*
X27350Y13775D01*
X27350Y13775D02*
X27350Y13225D01*
X27350Y13225D02*
X26650Y13225D01*
X27650Y13225D02*
X27650Y13775D01*
X27650Y13775D02*
X28350Y13775D01*
X28350Y13775D02*
X28350Y13225D01*
X28350Y13225D02*
X27650Y13225D01*
X26650Y12225D02*
X26650Y12775D01*
X26650Y12775D02*
X27350Y12775D01*
X27350Y12775D02*
X27350Y12225D01*
X27350Y12225D02*
X26650Y12225D01*
X27650Y12225D02*
X27650Y12775D01*
X27650Y12775D02*
X28350Y12775D01*
X28350Y12775D02*
X28350Y12225D01*
X28350Y12225D02*
X27650Y12225D01*
X26650Y11225D02*
X26650Y11775D01*
X26650Y11775D02*
X27350Y11775D01*
X27350Y11775D02*
X27350Y11225D01*
X27350Y11225D02*
X26650Y11225D01*
X27650Y11225D02*
X27650Y11775D01*
X27650Y11775D02*
X28350Y11775D01*
X28350Y11775D02*
X28350Y11225D01*
X28350Y11225D02*
X27650Y11225D01*
X26650Y10225D02*
X26650Y10775D01*
X26650Y10775D02*
X27350Y10775D01*
X27350Y10775D02*
X27350Y10225D01*
X27350Y10225D02*
X26650Y10225D01*
X27650Y10225D02*
X27650Y10775D01*
X27650Y10775D02*
X28350Y10775D01*
X28350Y10775D02*
X28350Y10225D01*
X28350Y10225D02*
X27650Y10225D01*
X26650Y09225D02*
X26650Y09775D01*
X26650Y09775D02*
X27350Y09775D01*
X27350Y09775D02*
X27350Y09225D01*
X27350Y09225D02*
X26650Y09225D01*
X27650Y09225D02*
X27650Y09775D01*
X27650Y09775D02*
X28350Y09775D01*
X28350Y09775D02*
X28350Y09225D01*
X28350Y09225D02*
X27650Y09225D01*
X26650Y08225D02*
X26650Y08775D01*
X26650Y08775D02*
X27350Y08775D01*
X27350Y08775D02*
X27350Y08225D01*
X27350Y08225D02*
X26650Y08225D01*
X27650Y08225D02*
X27650Y08775D01*
X27650Y08775D02*
X28350Y08775D01*
X28350Y08775D02*
X28350Y08225D01*
X28350Y08225D02*
X27650Y08225D01*
X26650Y07225D02*
X26650Y07775D01*
X26650Y07775D02*
X27350Y07775D01*
X27350Y07775D02*
X27350Y07225D01*
X27350Y07225D02*
X26650Y07225D01*
X27650Y07225D02*
X27650Y07775D01*
X27650Y07775D02*
X28350Y07775D01*
X28350Y07775D02*
X28350Y07225D01*
X28350Y07225D02*
X27650Y07225D01*
X26650Y06225D02*
X26650Y06775D01*
X26650Y06775D02*
X27350Y06775D01*
X27350Y06775D02*
X27350Y06225D01*
X27350Y06225D02*
X26650Y06225D01*
X27650Y06225D02*
X27650Y06775D01*
X27650Y06775D02*
X28350Y06775D01*
X28350Y06775D02*
X28350Y06225D01*
X28350Y06225D02*
X27650Y06225D01*
X26650Y05225D02*
X26650Y05775D01*
X26650Y05775D02*
X27350Y05775D01*
X27350Y05775D02*
X27350Y05225D01*
X27350Y05225D02*
X26650Y05225D01*
X27650Y05225D02*
X27650Y05775D01*
X27650Y05775D02*
X28350Y05775D01*
X28350Y05775D02*
X28350Y05225D01*
X28350Y05225D02*
X27650Y05225D01*
X26650Y04225D02*
X26650Y04775D01*
X26650Y04775D02*
X27350Y04775D01*
X27350Y04775D02*
X27350Y04225D01*
X27350Y04225D02*
X26650Y04225D01*
X27650Y04225D02*
X27650Y04775D01*
X27650Y04775D02*
X28350Y04775D01*
X28350Y04775D02*
X28350Y04225D01*
X28350Y04225D02*
X27650Y04225D01*
X26650Y03225D02*
X26650Y03775D01*
X26650Y03775D02*
X27350Y03775D01*
X27350Y03775D02*
X27350Y03225D01*
X27350Y03225D02*
X26650Y03225D01*
X27650Y03225D02*
X27650Y03775D01*
X27650Y03775D02*
X28350Y03775D01*
X28350Y03775D02*
X28350Y03225D01*
X28350Y03225D02*
X27650Y03225D01*
X22490Y03150D02*
X22490Y04050D01*
X22490Y04050D02*
X23110Y04050D01*
X23110Y04050D02*
X23110Y03150D01*
X23110Y03150D02*
X22490Y03150D01*
X23490Y03150D02*
X23490Y04050D01*
X23490Y04050D02*
X24110Y04050D01*
X24110Y04050D02*
X24110Y03150D01*
X24110Y03150D02*
X23490Y03150D01*
X24490Y03150D02*
X24490Y04050D01*
X24490Y04050D02*
X25110Y04050D01*
X25110Y04050D02*
X25110Y03150D01*
X25110Y03150D02*
X24490Y03150D01*
X25490Y03150D02*
X25490Y04050D01*
X25490Y04050D02*
X26110Y04050D01*
X26110Y04050D02*
X26110Y03150D01*
X26110Y03150D02*
X25490Y03150D01*
X25490Y06150D02*
X25490Y07050D01*
X25490Y07050D02*
X26110Y07050D01*
X26110Y07050D02*
X26110Y06150D01*
X26110Y06150D02*
X25490Y06150D01*
X24490Y06150D02*
X24490Y07050D01*
X24490Y07050D02*
X25110Y07050D01*
X25110Y07050D02*
X25110Y06150D01*
X25110Y06150D02*
X24490Y06150D01*
X23490Y06150D02*
X23490Y07050D01*
X23490Y07050D02*
X24110Y07050D01*
X24110Y07050D02*
X24110Y06150D01*
X24110Y06150D02*
X23490Y06150D01*
X22490Y06150D02*
X22490Y07050D01*
X22490Y07050D02*
X23110Y07050D01*
X23110Y07050D02*
X23110Y06150D01*
X23110Y06150D02*
X22490Y06150D01*
X13000Y14850D02*
X12300Y14850D01*
X12300Y14850D02*
X12300Y15550D01*
X12300Y15550D02*
X13000Y15550D01*
X13000Y15550D02*
X13000Y14850D01*
X11000Y15200D02*
X10992Y15128D01*
X10992Y15128D02*
X10969Y15058D01*
X10969Y15058D02*
X10933Y14995D01*
X10933Y14995D02*
X10884Y14940D01*
X10884Y14940D02*
X10825Y14897D01*
X10825Y14897D02*
X10758Y14868D01*
X10758Y14868D02*
X10686Y14852D01*
X10686Y14852D02*
X10614Y14852D01*
X10614Y14852D02*
X10542Y14868D01*
X10542Y14868D02*
X10475Y14897D01*
X10475Y14897D02*
X10416Y14940D01*
X10416Y14940D02*
X10367Y14995D01*
X10367Y14995D02*
X10331Y15058D01*
X10331Y15058D02*
X10308Y15128D01*
X10308Y15128D02*
X10300Y15200D01*
X10300Y15200D02*
X10308Y15272D01*
X10308Y15272D02*
X10331Y15342D01*
X10331Y15342D02*
X10367Y15405D01*
X10367Y15405D02*
X10416Y15460D01*
X10416Y15460D02*
X10475Y15503D01*
X10475Y15503D02*
X10542Y15532D01*
X10542Y15532D02*
X10614Y15548D01*
X10614Y15548D02*
X10686Y15548D01*
X10686Y15548D02*
X10758Y15532D01*
X10758Y15532D02*
X10825Y15503D01*
X10825Y15503D02*
X10884Y15460D01*
X10884Y15460D02*
X10933Y15405D01*
X10933Y15405D02*
X10969Y15342D01*
X10969Y15342D02*
X10992Y15272D01*
X10992Y15272D02*
X11000Y15200D01*
X07750Y18400D02*
X07744Y18349D01*
X07744Y18349D02*
X07728Y18299D01*
X07728Y18299D02*
X07702Y18254D01*
X07702Y18254D02*
X07667Y18215D01*
X07667Y18215D02*
X07625Y18184D01*
X07625Y18184D02*
X07577Y18163D01*
X07577Y18163D02*
X07526Y18152D01*
X07526Y18152D02*
X07474Y18152D01*
X07474Y18152D02*
X07423Y18163D01*
X07423Y18163D02*
X07375Y18184D01*
X07375Y18184D02*
X07333Y18215D01*
X07333Y18215D02*
X07298Y18254D01*
X07298Y18254D02*
X07272Y18299D01*
X07272Y18299D02*
X07256Y18349D01*
X07256Y18349D02*
X07250Y18400D01*
X07250Y18400D02*
X07256Y18451D01*
X07256Y18451D02*
X07272Y18501D01*
X07272Y18501D02*
X07298Y18546D01*
X07298Y18546D02*
X07333Y18585D01*
X07333Y18585D02*
X07375Y18616D01*
X07375Y18616D02*
X07423Y18637D01*
X07423Y18637D02*
X07474Y18648D01*
X07474Y18648D02*
X07526Y18648D01*
X07526Y18648D02*
X07577Y18637D01*
X07577Y18637D02*
X07625Y18616D01*
X07625Y18616D02*
X07667Y18585D01*
X07667Y18585D02*
X07702Y18546D01*
X07702Y18546D02*
X07728Y18501D01*
X07728Y18501D02*
X07744Y18451D01*
X07744Y18451D02*
X07750Y18400D01*
X07750Y19400D02*
X07744Y19349D01*
X07744Y19349D02*
X07728Y19299D01*
X07728Y19299D02*
X07702Y19254D01*
X07702Y19254D02*
X07667Y19215D01*
X07667Y19215D02*
X07625Y19184D01*
X07625Y19184D02*
X07577Y19163D01*
X07577Y19163D02*
X07526Y19152D01*
X07526Y19152D02*
X07474Y19152D01*
X07474Y19152D02*
X07423Y19163D01*
X07423Y19163D02*
X07375Y19184D01*
X07375Y19184D02*
X07333Y19215D01*
X07333Y19215D02*
X07298Y19254D01*
X07298Y19254D02*
X07272Y19299D01*
X07272Y19299D02*
X07256Y19349D01*
X07256Y19349D02*
X07250Y19400D01*
X07250Y19400D02*
X07256Y19451D01*
X07256Y19451D02*
X07272Y19501D01*
X07272Y19501D02*
X07298Y19546D01*
X07298Y19546D02*
X07333Y19585D01*
X07333Y19585D02*
X07375Y19616D01*
X07375Y19616D02*
X07423Y19637D01*
X07423Y19637D02*
X07474Y19648D01*
X07474Y19648D02*
X07526Y19648D01*
X07526Y19648D02*
X07577Y19637D01*
X07577Y19637D02*
X07625Y19616D01*
X07625Y19616D02*
X07667Y19585D01*
X07667Y19585D02*
X07702Y19546D01*
X07702Y19546D02*
X07728Y19501D01*
X07728Y19501D02*
X07744Y19451D01*
X07744Y19451D02*
X07750Y19400D01*
X13300Y04100D02*
X13293Y04038D01*
X13293Y04038D02*
X13274Y03978D01*
X13274Y03978D02*
X13242Y03924D01*
X13242Y03924D02*
X13200Y03878D01*
X13200Y03878D02*
X13150Y03841D01*
X13150Y03841D02*
X13092Y03815D01*
X13092Y03815D02*
X13031Y03802D01*
X13031Y03802D02*
X12969Y03802D01*
X12969Y03802D02*
X12908Y03815D01*
X12908Y03815D02*
X12850Y03841D01*
X12850Y03841D02*
X12800Y03878D01*
X12800Y03878D02*
X12758Y03924D01*
X12758Y03924D02*
X12726Y03978D01*
X12726Y03978D02*
X12707Y04038D01*
X12707Y04038D02*
X12700Y04100D01*
X12700Y04100D02*
X12707Y04162D01*
X12707Y04162D02*
X12726Y04222D01*
X12726Y04222D02*
X12758Y04276D01*
X12758Y04276D02*
X12800Y04322D01*
X12800Y04322D02*
X12850Y04359D01*
X12850Y04359D02*
X12908Y04385D01*
X12908Y04385D02*
X12969Y04398D01*
X12969Y04398D02*
X13031Y04398D01*
X13031Y04398D02*
X13092Y04385D01*
X13092Y04385D02*
X13150Y04359D01*
X13150Y04359D02*
X13200Y04322D01*
X13200Y04322D02*
X13242Y04276D01*
X13242Y04276D02*
X13274Y04222D01*
X13274Y04222D02*
X13293Y04162D01*
X13293Y04162D02*
X13300Y04100D01*
X18300Y04100D02*
X18293Y04038D01*
X18293Y04038D02*
X18274Y03978D01*
X18274Y03978D02*
X18242Y03924D01*
X18242Y03924D02*
X18200Y03878D01*
X18200Y03878D02*
X18150Y03841D01*
X18150Y03841D02*
X18092Y03815D01*
X18092Y03815D02*
X18031Y03802D01*
X18031Y03802D02*
X17969Y03802D01*
X17969Y03802D02*
X17908Y03815D01*
X17908Y03815D02*
X17850Y03841D01*
X17850Y03841D02*
X17800Y03878D01*
X17800Y03878D02*
X17758Y03924D01*
X17758Y03924D02*
X17726Y03978D01*
X17726Y03978D02*
X17707Y04038D01*
X17707Y04038D02*
X17700Y04100D01*
X17700Y04100D02*
X17707Y04162D01*
X17707Y04162D02*
X17726Y04222D01*
X17726Y04222D02*
X17758Y04276D01*
X17758Y04276D02*
X17800Y04322D01*
X17800Y04322D02*
X17850Y04359D01*
X17850Y04359D02*
X17908Y04385D01*
X17908Y04385D02*
X17969Y04398D01*
X17969Y04398D02*
X18031Y04398D01*
X18031Y04398D02*
X18092Y04385D01*
X18092Y04385D02*
X18150Y04359D01*
X18150Y04359D02*
X18200Y04322D01*
X18200Y04322D02*
X18242Y04276D01*
X18242Y04276D02*
X18274Y04222D01*
X18274Y04222D02*
X18293Y04162D01*
X18293Y04162D02*
X18300Y04100D01*
X08980Y03260D02*
X08980Y02140D01*
X08980Y02140D02*
X08420Y02140D01*
X08420Y02140D02*
X08420Y03260D01*
X08420Y03260D02*
X08980Y03260D01*
X07980Y03260D02*
X07980Y02140D01*
X07980Y02140D02*
X07420Y02140D01*
X07420Y02140D02*
X07420Y03260D01*
X07420Y03260D02*
X07980Y03260D01*
X06980Y03260D02*
X06980Y02140D01*
X06980Y02140D02*
X06420Y02140D01*
X06420Y02140D02*
X06420Y03260D01*
X06420Y03260D02*
X06980Y03260D01*
X05980Y03260D02*
X05980Y02140D01*
X05980Y02140D02*
X05420Y02140D01*
X05420Y02140D02*
X05420Y03260D01*
X05420Y03260D02*
X05980Y03260D01*
X04520Y08540D02*
X04520Y09660D01*
X04520Y09660D02*
X05080Y09660D01*
X05080Y09660D02*
X05080Y08540D01*
X05080Y08540D02*
X04520Y08540D01*
X05520Y08540D02*
X05520Y09660D01*
X05520Y09660D02*
X06080Y09660D01*
X06080Y09660D02*
X06080Y08540D01*
X06080Y08540D02*
X05520Y08540D01*
X06520Y08540D02*
X06520Y09660D01*
X06520Y09660D02*
X07080Y09660D01*
X07080Y09660D02*
X07080Y08540D01*
X07080Y08540D02*
X06520Y08540D01*
X07520Y08540D02*
X07520Y09660D01*
X07520Y09660D02*
X08080Y09660D01*
X08080Y09660D02*
X08080Y08540D01*
X08080Y08540D02*
X07520Y08540D01*
X10258Y16015D02*
X10258Y17785D01*
X10258Y17785D02*
X11142Y17785D01*
X11142Y17785D02*
X11142Y16015D01*
X11142Y16015D02*
X10258Y16015D01*
X04258Y16015D02*
X04258Y17785D01*
X04258Y17785D02*
X05142Y17785D01*
X05142Y17785D02*
X05142Y16015D01*
X05142Y16015D02*
X04258Y16015D01*
X12930Y23700D02*
X12922Y23632D01*
X12922Y23632D02*
X12901Y23566D01*
X12901Y23566D02*
X12866Y23507D01*
X12866Y23507D02*
X12820Y23455D01*
X12820Y23455D02*
X12765Y23415D01*
X12765Y23415D02*
X12701Y23387D01*
X12701Y23387D02*
X12634Y23372D01*
X12634Y23372D02*
X12566Y23372D01*
X12566Y23372D02*
X12499Y23387D01*
X12499Y23387D02*
X12435Y23415D01*
X12435Y23415D02*
X12380Y23455D01*
X12380Y23455D02*
X12334Y23507D01*
X12334Y23507D02*
X12299Y23566D01*
X12299Y23566D02*
X12278Y23632D01*
X12278Y23632D02*
X12270Y23700D01*
X12270Y23700D02*
X12278Y23768D01*
X12278Y23768D02*
X12299Y23834D01*
X12299Y23834D02*
X12334Y23893D01*
X12334Y23893D02*
X12380Y23945D01*
X12380Y23945D02*
X12435Y23985D01*
X12435Y23985D02*
X12499Y24013D01*
X12499Y24013D02*
X12566Y24028D01*
X12566Y24028D02*
X12634Y24028D01*
X12634Y24028D02*
X12701Y24013D01*
X12701Y24013D02*
X12765Y23985D01*
X12765Y23985D02*
X12820Y23945D01*
X12820Y23945D02*
X12866Y23893D01*
X12866Y23893D02*
X12901Y23834D01*
X12901Y23834D02*
X12922Y23768D01*
X12922Y23768D02*
X12930Y23700D01*
X12930Y19700D02*
X12922Y19632D01*
X12922Y19632D02*
X12901Y19566D01*
X12901Y19566D02*
X12866Y19507D01*
X12866Y19507D02*
X12820Y19455D01*
X12820Y19455D02*
X12765Y19415D01*
X12765Y19415D02*
X12701Y19387D01*
X12701Y19387D02*
X12634Y19372D01*
X12634Y19372D02*
X12566Y19372D01*
X12566Y19372D02*
X12499Y19387D01*
X12499Y19387D02*
X12435Y19415D01*
X12435Y19415D02*
X12380Y19455D01*
X12380Y19455D02*
X12334Y19507D01*
X12334Y19507D02*
X12299Y19566D01*
X12299Y19566D02*
X12278Y19632D01*
X12278Y19632D02*
X12270Y19700D01*
X12270Y19700D02*
X12278Y19768D01*
X12278Y19768D02*
X12299Y19834D01*
X12299Y19834D02*
X12334Y19893D01*
X12334Y19893D02*
X12380Y19945D01*
X12380Y19945D02*
X12435Y19985D01*
X12435Y19985D02*
X12499Y20013D01*
X12499Y20013D02*
X12566Y20028D01*
X12566Y20028D02*
X12634Y20028D01*
X12634Y20028D02*
X12701Y20013D01*
X12701Y20013D02*
X12765Y19985D01*
X12765Y19985D02*
X12820Y19945D01*
X12820Y19945D02*
X12866Y19893D01*
X12866Y19893D02*
X12901Y19834D01*
X12901Y19834D02*
X12922Y19768D01*
X12922Y19768D02*
X12930Y19700D01*
X10595Y22299D02*
X10595Y21119D01*
X10595Y21119D02*
X10005Y21119D01*
X10005Y21119D02*
X10005Y22299D01*
X10005Y22299D02*
X10595Y22299D01*
X10595Y24228D02*
X10595Y23048D01*
X10595Y23048D02*
X10005Y23048D01*
X10005Y23048D02*
X10005Y24228D01*
X10005Y24228D02*
X10595Y24228D01*
X09533Y23244D02*
X09533Y22064D01*
X09533Y22064D02*
X08943Y22064D01*
X08943Y22064D02*
X08943Y23244D01*
X08943Y23244D02*
X09533Y23244D01*
X23420Y00840D02*
X23420Y01960D01*
X23420Y01960D02*
X23980Y01960D01*
X23980Y01960D02*
X23980Y00840D01*
X23980Y00840D02*
X23420Y00840D01*
X24420Y00840D02*
X24420Y01960D01*
X24420Y01960D02*
X24980Y01960D01*
X24980Y01960D02*
X24980Y00840D01*
X24980Y00840D02*
X24420Y00840D01*
G54D41*
X03000Y15476D02*
X03600Y15476D01*
X03600Y15476D02*
X03600Y16076D01*
X03600Y16412D02*
X03600Y16712D01*
X03600Y16562D02*
X03000Y16562D01*
X03067Y16562D02*
X03200Y16412D01*
X02000Y08332D02*
X02000Y08857D01*
X02000Y08857D02*
X02067Y08857D01*
X02067Y08857D02*
X02267Y08557D01*
X02267Y08557D02*
X02267Y08782D01*
X02267Y08782D02*
X02334Y08857D01*
X02334Y08857D02*
X02534Y08857D01*
X02534Y08857D02*
X02600Y08782D01*
X02600Y08782D02*
X02600Y08407D01*
X02600Y08407D02*
X02534Y08332D01*
X02067Y09643D02*
X02000Y09568D01*
X02000Y09568D02*
X02000Y09193D01*
X02000Y09193D02*
X02067Y09118D01*
X02067Y09118D02*
X02534Y09118D01*
X02534Y09118D02*
X02600Y09193D01*
X02600Y09193D02*
X02600Y09568D01*
X02600Y09568D02*
X02534Y09643D01*
X02534Y09643D02*
X02334Y09643D01*
X02334Y09643D02*
X02267Y09568D01*
X02267Y09568D02*
X02267Y09193D01*
X02267Y09193D02*
X02334Y09118D01*
X02000Y09904D02*
X02000Y10429D01*
X02000Y10429D02*
X02067Y10429D01*
X02067Y10429D02*
X02267Y10129D01*
X02267Y10129D02*
X02267Y10354D01*
X02267Y10354D02*
X02334Y10429D01*
X02334Y10429D02*
X02534Y10429D01*
X02534Y10429D02*
X02600Y10354D01*
X02600Y10354D02*
X02600Y09979D01*
X02600Y09979D02*
X02534Y09904D01*
X02600Y10840D02*
X02600Y11140D01*
X02600Y10990D02*
X02000Y10990D01*
X02067Y10990D02*
X02200Y10840D01*
X02600Y11476D02*
X02000Y11476D01*
X02000Y11476D02*
X02000Y11926D01*
X02000Y11926D02*
X02067Y12001D01*
X02067Y12001D02*
X02200Y12001D01*
X02200Y12001D02*
X02267Y11926D01*
X02267Y11926D02*
X02267Y11476D01*
X02267Y11926D02*
X02400Y12001D01*
X02400Y12001D02*
X02534Y12001D01*
X02534Y12001D02*
X02600Y11926D01*
X02600Y11926D02*
X02600Y11476D01*
X02000Y12262D02*
X02000Y12787D01*
X02000Y12787D02*
X02067Y12787D01*
X02067Y12787D02*
X02267Y12487D01*
X02267Y12487D02*
X02267Y12712D01*
X02267Y12712D02*
X02334Y12787D01*
X02334Y12787D02*
X02534Y12787D01*
X02534Y12787D02*
X02600Y12712D01*
X02600Y12712D02*
X02600Y12337D01*
X02600Y12337D02*
X02534Y12262D01*
X02000Y13048D02*
X02000Y13573D01*
X02000Y13573D02*
X02067Y13573D01*
X02067Y13573D02*
X02267Y13273D01*
X02267Y13273D02*
X02267Y13498D01*
X02267Y13498D02*
X02334Y13573D01*
X02334Y13573D02*
X02534Y13573D01*
X02534Y13573D02*
X02600Y13498D01*
X02600Y13498D02*
X02600Y13123D01*
X02600Y13123D02*
X02534Y13048D01*
X02600Y13834D02*
X02000Y14359D01*
X02534Y13834D02*
X02067Y13834D01*
X02067Y13834D02*
X02000Y13909D01*
X02000Y13909D02*
X02000Y14284D01*
X02000Y14284D02*
X02067Y14359D01*
X02067Y14359D02*
X02534Y14359D01*
X02534Y14359D02*
X02600Y14284D01*
X02600Y14284D02*
X02600Y13909D01*
X02600Y13909D02*
X02534Y13834D01*
X02000Y14620D02*
X02600Y14620D01*
X02600Y14620D02*
X02600Y15220D01*
X02000Y15406D02*
X02600Y15406D01*
X02600Y15406D02*
X02600Y16006D01*
X13834Y10322D02*
X13900Y10247D01*
X13900Y10247D02*
X13900Y09872D01*
X13900Y09872D02*
X13834Y09797D01*
X13834Y09797D02*
X13367Y09797D01*
X13367Y09797D02*
X13300Y09872D01*
X13300Y09872D02*
X13300Y10247D01*
X13300Y10247D02*
X13367Y10322D01*
X13900Y10658D02*
X13834Y10583D01*
X13834Y10583D02*
X13367Y10583D01*
X13367Y10583D02*
X13300Y10658D01*
X13300Y10658D02*
X13300Y11033D01*
X13300Y11033D02*
X13367Y11108D01*
X13367Y11108D02*
X13834Y11108D01*
X13834Y11108D02*
X13900Y11033D01*
X13900Y11033D02*
X13900Y10658D01*
X13900Y11369D02*
X13300Y11369D01*
X13300Y11369D02*
X13900Y11894D01*
X13900Y11894D02*
X13300Y11894D01*
X13900Y12155D02*
X13300Y12155D01*
X13300Y12155D02*
X13900Y12680D01*
X13900Y12680D02*
X13300Y12680D01*
X13900Y13091D02*
X13900Y13391D01*
X13900Y13241D02*
X13300Y13241D01*
X13367Y13241D02*
X13500Y13091D01*
X13834Y15176D02*
X13900Y15251D01*
X13900Y15251D02*
X13900Y15626D01*
X13900Y15626D02*
X13834Y15701D01*
X13834Y15701D02*
X13634Y15701D01*
X13634Y15701D02*
X13567Y15626D01*
X13567Y15626D02*
X13567Y15251D01*
X13567Y15251D02*
X13500Y15176D01*
X13500Y15176D02*
X13367Y15176D01*
X13367Y15176D02*
X13300Y15251D01*
X13300Y15251D02*
X13300Y15626D01*
X13300Y15626D02*
X13367Y15701D01*
X13900Y16037D02*
X13300Y16037D01*
X13300Y15962D02*
X13300Y16412D01*
X13300Y16412D02*
X13367Y16487D01*
X13367Y16487D02*
X13834Y16487D01*
X13834Y16487D02*
X13900Y16412D01*
X13900Y16412D02*
X13900Y15962D01*
X12876Y27800D02*
X12876Y27266D01*
X12876Y27266D02*
X12951Y27200D01*
X12951Y27200D02*
X13326Y27200D01*
X13326Y27200D02*
X13401Y27266D01*
X13401Y27266D02*
X13401Y27800D01*
X13812Y27200D02*
X14112Y27200D01*
X13962Y27200D02*
X13962Y27800D01*
X13962Y27733D02*
X13812Y27600D01*
X-00982Y27200D02*
X-00982Y27800D01*
X-00982Y27800D02*
X-00457Y27800D01*
X-00982Y27533D02*
X-00682Y27533D01*
X-00121Y27200D02*
X-00196Y27266D01*
X-00196Y27266D02*
X-00196Y27733D01*
X-00196Y27733D02*
X-00121Y27800D01*
X-00121Y27800D02*
X00254Y27800D01*
X00254Y27800D02*
X00329Y27733D01*
X00329Y27733D02*
X00329Y27266D01*
X00329Y27266D02*
X00254Y27200D01*
X00254Y27200D02*
X-00121Y27200D01*
X00590Y27200D02*
X01115Y27800D01*
X00590Y27800D02*
X01115Y27200D01*
X01376Y27200D02*
X01376Y27800D01*
X01376Y27800D02*
X01826Y27800D01*
X01826Y27800D02*
X01901Y27733D01*
X01901Y27733D02*
X01901Y27600D01*
X01901Y27600D02*
X01826Y27533D01*
X01826Y27533D02*
X01376Y27533D01*
X01826Y27533D02*
X01901Y27400D01*
X01901Y27400D02*
X01901Y27266D01*
X01901Y27266D02*
X01826Y27200D01*
X01826Y27200D02*
X01376Y27200D01*
X02237Y27200D02*
X02162Y27266D01*
X02162Y27266D02*
X02162Y27733D01*
X02162Y27733D02*
X02237Y27800D01*
X02237Y27800D02*
X02612Y27800D01*
X02612Y27800D02*
X02687Y27733D01*
X02687Y27733D02*
X02687Y27266D01*
X02687Y27266D02*
X02612Y27200D01*
X02612Y27200D02*
X02237Y27200D01*
X02948Y27200D02*
X02948Y27666D01*
X02948Y27666D02*
X03098Y27800D01*
X03098Y27800D02*
X03323Y27800D01*
X03323Y27800D02*
X03473Y27666D01*
X03473Y27666D02*
X03473Y27200D01*
X02948Y27533D02*
X03473Y27533D01*
X03734Y27200D02*
X03734Y27800D01*
X03734Y27800D02*
X04184Y27800D01*
X04184Y27800D02*
X04259Y27733D01*
X04259Y27733D02*
X04259Y27533D01*
X04259Y27533D02*
X04184Y27466D01*
X04184Y27466D02*
X03734Y27466D01*
X03959Y27466D02*
X04259Y27200D01*
X04595Y27200D02*
X04595Y27800D01*
X04520Y27800D02*
X04970Y27800D01*
X04970Y27800D02*
X05045Y27733D01*
X05045Y27733D02*
X05045Y27266D01*
X05045Y27266D02*
X04970Y27200D01*
X04970Y27200D02*
X04520Y27200D01*
X23601Y12800D02*
X23601Y12733D01*
X23601Y12533D02*
X23601Y12067D01*
X23601Y12067D02*
X23526Y12000D01*
X23526Y12000D02*
X23451Y12067D01*
X24687Y12733D02*
X24612Y12800D01*
X24612Y12800D02*
X24237Y12800D01*
X24237Y12800D02*
X24162Y12733D01*
X24162Y12733D02*
X24162Y12266D01*
X24162Y12266D02*
X24237Y12200D01*
X24237Y12200D02*
X24612Y12200D01*
X24612Y12200D02*
X24687Y12266D01*
X24687Y12266D02*
X24687Y12466D01*
X24687Y12466D02*
X24612Y12533D01*
X24612Y12533D02*
X24237Y12533D01*
X24237Y12533D02*
X24162Y12466D01*
X03101Y13300D02*
X03101Y13233D01*
X03101Y13033D02*
X03101Y12567D01*
X03101Y12567D02*
X03026Y12500D01*
X03026Y12500D02*
X02951Y12567D01*
X03662Y13300D02*
X04187Y13300D01*
X04187Y13300D02*
X03662Y12700D01*
X21450Y04604D02*
X22073Y04604D01*
X22073Y04604D02*
X22150Y04660D01*
X22150Y04660D02*
X22150Y04941D01*
X22150Y04941D02*
X22073Y04998D01*
X22073Y04998D02*
X21450Y04998D01*
X21450Y05224D02*
X21450Y05618D01*
X21450Y05618D02*
X21528Y05618D01*
X21528Y05618D02*
X21762Y05393D01*
X21762Y05393D02*
X21762Y05561D01*
X21762Y05561D02*
X21839Y05618D01*
X21839Y05618D02*
X22073Y05618D01*
X22073Y05618D02*
X22150Y05561D01*
X22150Y05561D02*
X22150Y05280D01*
X22150Y05280D02*
X22073Y05224D01*
X22770Y04750D02*
X22770Y05450D01*
X22720Y05450D02*
X23020Y05450D01*
X23020Y05450D02*
X23070Y05372D01*
X23070Y05372D02*
X23070Y04827D01*
X23070Y04827D02*
X23020Y04750D01*
X23020Y04750D02*
X22720Y04750D01*
X23284Y04827D02*
X23334Y04750D01*
X23334Y04750D02*
X23584Y04750D01*
X23584Y04750D02*
X23634Y04827D01*
X23634Y04827D02*
X23634Y05061D01*
X23634Y05061D02*
X23584Y05138D01*
X23584Y05138D02*
X23334Y05138D01*
X23334Y05138D02*
X23284Y05216D01*
X23284Y05216D02*
X23284Y05372D01*
X23284Y05372D02*
X23334Y05450D01*
X23334Y05450D02*
X23584Y05450D01*
X23584Y05450D02*
X23634Y05372D01*
X23948Y04750D02*
X24148Y04750D01*
X24048Y04750D02*
X24048Y05450D01*
X24048Y05372D02*
X23948Y05216D01*
X24412Y05450D02*
X24762Y05450D01*
X24762Y05450D02*
X24762Y05372D01*
X24762Y05372D02*
X24562Y05138D01*
X24562Y05138D02*
X24712Y05138D01*
X24712Y05138D02*
X24762Y05061D01*
X24762Y05061D02*
X24762Y04827D01*
X24762Y04827D02*
X24712Y04750D01*
X24712Y04750D02*
X24462Y04750D01*
X24462Y04750D02*
X24412Y04827D01*
X24976Y04750D02*
X25326Y05450D01*
X24976Y04827D02*
X24976Y05372D01*
X24976Y05372D02*
X25026Y05450D01*
X25026Y05450D02*
X25276Y05450D01*
X25276Y05450D02*
X25326Y05372D01*
X25326Y05372D02*
X25326Y04827D01*
X25326Y04827D02*
X25276Y04750D01*
X25276Y04750D02*
X25026Y04750D01*
X25026Y04750D02*
X24976Y04827D01*
X25890Y04750D02*
X25540Y04750D01*
X25540Y04750D02*
X25540Y04983D01*
X25540Y04983D02*
X25590Y05061D01*
X25590Y05061D02*
X25840Y05061D01*
X25840Y05061D02*
X25890Y05138D01*
X25890Y05138D02*
X25890Y05372D01*
X25890Y05372D02*
X25840Y05450D01*
X25840Y05450D02*
X25590Y05450D01*
X25590Y05450D02*
X25540Y05372D01*
G54D46*
X04915Y25250D02*
X04915Y24805D01*
X04915Y24805D02*
X04978Y24750D01*
X04978Y24750D02*
X05290Y24750D01*
X05290Y24750D02*
X05353Y24805D01*
X05353Y24805D02*
X05353Y25250D01*
X05968Y24750D02*
X05530Y24750D01*
X05530Y24750D02*
X05530Y24916D01*
X05530Y24916D02*
X05593Y24972D01*
X05593Y24972D02*
X05905Y24972D01*
X05905Y24972D02*
X05968Y25027D01*
X05968Y25027D02*
X05968Y25194D01*
X05968Y25194D02*
X05905Y25250D01*
X05905Y25250D02*
X05593Y25250D01*
X05593Y25250D02*
X05530Y25194D01*
X02763Y20950D02*
X02763Y20450D01*
X02763Y20450D02*
X03263Y20450D01*
X03378Y20450D02*
X03378Y20950D01*
X03378Y20950D02*
X03628Y20727D01*
X03628Y20727D02*
X03878Y20950D01*
X03878Y20950D02*
X03878Y20450D01*
X04431Y20450D02*
X03993Y20450D01*
X03993Y20450D02*
X03993Y20616D01*
X03993Y20616D02*
X04056Y20672D01*
X04056Y20672D02*
X04368Y20672D01*
X04368Y20672D02*
X04431Y20727D01*
X04431Y20727D02*
X04431Y20894D01*
X04431Y20894D02*
X04368Y20950D01*
X04368Y20950D02*
X04056Y20950D01*
X04056Y20950D02*
X03993Y20894D01*
X04608Y20561D02*
X04608Y20505D01*
X04608Y20505D02*
X04671Y20450D01*
X04671Y20450D02*
X04983Y20450D01*
X04983Y20450D02*
X05046Y20505D01*
X05046Y20505D02*
X05046Y20672D01*
X05046Y20672D02*
X04921Y20783D01*
X04921Y20783D02*
X04608Y20783D01*
X04608Y20783D02*
X04608Y20950D01*
X04608Y20950D02*
X05046Y20950D01*
X05286Y20450D02*
X05598Y20450D01*
X05598Y20450D02*
X05661Y20505D01*
X05661Y20505D02*
X05661Y20894D01*
X05661Y20894D02*
X05598Y20950D01*
X05598Y20950D02*
X05286Y20950D01*
X05286Y20950D02*
X05223Y20894D01*
X05223Y20894D02*
X05223Y20727D01*
X05223Y20727D02*
X05286Y20672D01*
X05286Y20672D02*
X05598Y20672D01*
X05598Y20672D02*
X05661Y20727D01*
X06276Y20894D02*
X06213Y20950D01*
X06213Y20950D02*
X05901Y20950D01*
X05901Y20950D02*
X05838Y20894D01*
X05838Y20894D02*
X05838Y20505D01*
X05838Y20505D02*
X05901Y20450D01*
X05901Y20450D02*
X06213Y20450D01*
X06213Y20450D02*
X06276Y20505D01*
X06276Y20505D02*
X06276Y20672D01*
X06276Y20672D02*
X06213Y20727D01*
X06213Y20727D02*
X05901Y20727D01*
X05901Y20727D02*
X05838Y20672D01*
X06516Y20672D02*
X06828Y20672D01*
X07068Y20561D02*
X07068Y20505D01*
X07068Y20505D02*
X07131Y20450D01*
X07131Y20450D02*
X07443Y20450D01*
X07443Y20450D02*
X07506Y20505D01*
X07506Y20505D02*
X07506Y20672D01*
X07506Y20672D02*
X07381Y20783D01*
X07381Y20783D02*
X07068Y20783D01*
X07068Y20783D02*
X07068Y20950D01*
X07068Y20950D02*
X07506Y20950D01*
X07683Y20950D02*
X07933Y20450D01*
X07933Y20450D02*
X08183Y20950D01*
X09802Y18355D02*
X09752Y18300D01*
X09752Y18300D02*
X09502Y18300D01*
X09502Y18300D02*
X09452Y18355D01*
X09452Y18355D02*
X09452Y18744D01*
X09452Y18744D02*
X09502Y18800D01*
X09502Y18800D02*
X09752Y18800D01*
X09752Y18800D02*
X09802Y18744D01*
X10206Y18300D02*
X10206Y18800D01*
X10206Y18800D02*
X09956Y18411D01*
X09956Y18411D02*
X10306Y18411D01*
G54D43*
X14045Y03825D02*
X14045Y04375D01*
X14045Y04375D02*
X14420Y04375D01*
X14420Y04375D02*
X14483Y04313D01*
X14483Y04313D02*
X14483Y04191D01*
X14483Y04191D02*
X14420Y04130D01*
X14420Y04130D02*
X14045Y04130D01*
X14420Y04130D02*
X14483Y04008D01*
X14483Y04008D02*
X14483Y03886D01*
X14483Y03886D02*
X14420Y03825D01*
X14420Y03825D02*
X14045Y03825D01*
X14680Y03825D02*
X14680Y04252D01*
X14680Y04252D02*
X14805Y04375D01*
X14805Y04375D02*
X14993Y04375D01*
X14993Y04375D02*
X15118Y04252D01*
X15118Y04252D02*
X15118Y03825D01*
X14680Y04130D02*
X15118Y04130D01*
X15315Y04375D02*
X15815Y04375D01*
X15565Y04375D02*
X15565Y03825D01*
X15950Y04375D02*
X16450Y04375D01*
X16200Y04375D02*
X16200Y03825D01*
X16710Y03825D02*
X16960Y03825D01*
X16835Y03825D02*
X16835Y04375D01*
X16835Y04313D02*
X16710Y04191D01*
G54D44*
X21825Y03940D02*
X21575Y03940D01*
X21575Y03940D02*
X21575Y04127D01*
X21575Y04127D02*
X21603Y04159D01*
X21603Y04159D02*
X21687Y04159D01*
X21687Y04159D02*
X21714Y04127D01*
X21714Y04127D02*
X21714Y03940D01*
X21714Y04034D02*
X21825Y04159D01*
X21770Y04267D02*
X21798Y04267D01*
X21798Y04267D02*
X21825Y04298D01*
X21825Y04298D02*
X21825Y04454D01*
X21825Y04454D02*
X21798Y04486D01*
X21798Y04486D02*
X21714Y04486D01*
X21714Y04486D02*
X21659Y04423D01*
X21659Y04423D02*
X21659Y04267D01*
X21659Y04267D02*
X21575Y04267D01*
X21575Y04267D02*
X21575Y04486D01*
X07625Y05940D02*
X07375Y05940D01*
X07375Y05940D02*
X07375Y06127D01*
X07375Y06127D02*
X07403Y06159D01*
X07403Y06159D02*
X07487Y06159D01*
X07487Y06159D02*
X07514Y06127D01*
X07514Y06127D02*
X07514Y05940D01*
X07514Y06034D02*
X07625Y06159D01*
X07625Y06423D02*
X07375Y06423D01*
X07375Y06423D02*
X07570Y06267D01*
X07570Y06267D02*
X07570Y06486D01*
X06940Y07275D02*
X06940Y07525D01*
X06940Y07525D02*
X07127Y07525D01*
X07127Y07525D02*
X07159Y07497D01*
X07159Y07497D02*
X07159Y07413D01*
X07159Y07413D02*
X07127Y07386D01*
X07127Y07386D02*
X06940Y07386D01*
X07034Y07386D02*
X07159Y07275D01*
X07267Y07525D02*
X07486Y07525D01*
X07486Y07525D02*
X07486Y07497D01*
X07486Y07497D02*
X07361Y07413D01*
X07361Y07413D02*
X07454Y07413D01*
X07454Y07413D02*
X07486Y07386D01*
X07486Y07386D02*
X07486Y07302D01*
X07486Y07302D02*
X07454Y07275D01*
X07454Y07275D02*
X07298Y07275D01*
X07298Y07275D02*
X07267Y07302D01*
X05659Y18302D02*
X05627Y18275D01*
X05627Y18275D02*
X05471Y18275D01*
X05471Y18275D02*
X05440Y18302D01*
X05440Y18302D02*
X05440Y18497D01*
X05440Y18497D02*
X05471Y18525D01*
X05471Y18525D02*
X05627Y18525D01*
X05627Y18525D02*
X05659Y18497D01*
X05767Y18525D02*
X05986Y18525D01*
X05986Y18525D02*
X05986Y18497D01*
X05986Y18497D02*
X05861Y18413D01*
X05861Y18413D02*
X05954Y18413D01*
X05954Y18413D02*
X05986Y18386D01*
X05986Y18386D02*
X05986Y18302D01*
X05986Y18302D02*
X05954Y18275D01*
X05954Y18275D02*
X05798Y18275D01*
X05798Y18275D02*
X05767Y18302D01*
X09859Y20202D02*
X09827Y20175D01*
X09827Y20175D02*
X09671Y20175D01*
X09671Y20175D02*
X09640Y20202D01*
X09640Y20202D02*
X09640Y20397D01*
X09640Y20397D02*
X09671Y20425D01*
X09671Y20425D02*
X09827Y20425D01*
X09827Y20425D02*
X09859Y20397D01*
X10029Y20175D02*
X10154Y20175D01*
X10092Y20175D02*
X10092Y20425D01*
X10092Y20397D02*
X10029Y20341D01*
G54D46*
X05558Y06175D02*
X05558Y05775D01*
X05558Y05775D02*
X05614Y05725D01*
X05614Y05725D02*
X05895Y05725D01*
X05895Y05725D02*
X05952Y05775D01*
X05952Y05775D02*
X05952Y06175D01*
X06399Y05725D02*
X06399Y06175D01*
X06399Y06175D02*
X06118Y05825D01*
X06118Y05825D02*
X06512Y05825D01*
X04300Y05025D02*
X04300Y05375D01*
X04300Y05375D02*
X04563Y05375D01*
X04563Y05375D02*
X04607Y05336D01*
X04607Y05336D02*
X04607Y05219D01*
X04607Y05219D02*
X04563Y05180D01*
X04563Y05180D02*
X04300Y05180D01*
X04792Y05025D02*
X04748Y05063D01*
X04748Y05063D02*
X04748Y05180D01*
X04748Y05180D02*
X04792Y05219D01*
X04792Y05219D02*
X05011Y05219D01*
X05011Y05219D02*
X05055Y05258D01*
X05055Y05258D02*
X05055Y05336D01*
X05055Y05336D02*
X05011Y05375D01*
X05011Y05375D02*
X04792Y05375D01*
X04792Y05375D02*
X04748Y05336D01*
X04748Y05336D02*
X04748Y05258D01*
X04748Y05258D02*
X04792Y05219D01*
X05011Y05219D02*
X05055Y05180D01*
X05055Y05180D02*
X05055Y05063D01*
X05055Y05063D02*
X05011Y05025D01*
X05011Y05025D02*
X04792Y05025D01*
X05503Y05025D02*
X05196Y05025D01*
X05196Y05025D02*
X05196Y05141D01*
X05196Y05141D02*
X05240Y05180D01*
X05240Y05180D02*
X05459Y05180D01*
X05459Y05180D02*
X05503Y05219D01*
X05503Y05219D02*
X05503Y05336D01*
X05503Y05336D02*
X05459Y05375D01*
X05459Y05375D02*
X05240Y05375D01*
X05240Y05375D02*
X05196Y05336D01*
X05644Y05025D02*
X05644Y05375D01*
X05644Y05375D02*
X05907Y05375D01*
X05907Y05375D02*
X05951Y05336D01*
X05951Y05336D02*
X05951Y05258D01*
X05951Y05258D02*
X05907Y05219D01*
X05907Y05219D02*
X05644Y05219D01*
X05907Y05219D02*
X05951Y05141D01*
X05951Y05141D02*
X05951Y05063D01*
X05951Y05063D02*
X05907Y05025D01*
X05907Y05025D02*
X05644Y05025D01*
X06136Y05025D02*
X06355Y05025D01*
X06355Y05025D02*
X06399Y05063D01*
X06399Y05063D02*
X06399Y05336D01*
X06399Y05336D02*
X06355Y05375D01*
X06355Y05375D02*
X06136Y05375D01*
X06136Y05375D02*
X06092Y05336D01*
X06092Y05336D02*
X06092Y05219D01*
X06092Y05219D02*
X06136Y05180D01*
X06136Y05180D02*
X06355Y05180D01*
X06355Y05180D02*
X06399Y05219D01*
X06847Y05336D02*
X06803Y05375D01*
X06803Y05375D02*
X06584Y05375D01*
X06584Y05375D02*
X06540Y05336D01*
X06540Y05336D02*
X06540Y05063D01*
X06540Y05063D02*
X06584Y05025D01*
X06584Y05025D02*
X06803Y05025D01*
X06803Y05025D02*
X06847Y05063D01*
X06847Y05063D02*
X06847Y05180D01*
X06847Y05180D02*
X06803Y05219D01*
X06803Y05219D02*
X06584Y05219D01*
X06584Y05219D02*
X06540Y05180D01*
X06988Y05375D02*
X07338Y05375D01*
X07163Y05375D02*
X07163Y05025D01*
X07480Y05025D02*
X07480Y05375D01*
X07436Y05375D02*
X07699Y05375D01*
X07699Y05375D02*
X07743Y05336D01*
X07743Y05336D02*
X07743Y05063D01*
X07743Y05063D02*
X07699Y05025D01*
X07699Y05025D02*
X07436Y05025D01*
G54D50*
X08847Y01533D02*
X08890Y01582D01*
X08890Y01582D02*
X08890Y01826D01*
X08890Y01826D02*
X08847Y01875D01*
X08847Y01875D02*
X08717Y01875D01*
X08717Y01875D02*
X08674Y01826D01*
X08674Y01826D02*
X08674Y01582D01*
X08674Y01582D02*
X08630Y01533D01*
X08630Y01533D02*
X08544Y01533D01*
X08544Y01533D02*
X08500Y01582D01*
X08500Y01582D02*
X08500Y01826D01*
X08500Y01826D02*
X08544Y01875D01*
X08500Y02001D02*
X08890Y02001D01*
X08890Y02001D02*
X08890Y02391D01*
X08890Y02811D02*
X08890Y02469D01*
X08890Y02469D02*
X08760Y02469D01*
X08760Y02469D02*
X08717Y02518D01*
X08717Y02518D02*
X08717Y02762D01*
X08717Y02762D02*
X08674Y02811D01*
X08674Y02811D02*
X08544Y02811D01*
X08544Y02811D02*
X08500Y02762D01*
X08500Y02762D02*
X08500Y02518D01*
X08500Y02518D02*
X08544Y02469D01*
X07092Y01041D02*
X07092Y01541D01*
X07092Y01541D02*
X07342Y01318D01*
X07342Y01318D02*
X07592Y01541D01*
X07592Y01541D02*
X07592Y01041D01*
X07682Y01041D02*
X08120Y01541D01*
X07682Y01096D02*
X07682Y01485D01*
X07682Y01485D02*
X07745Y01541D01*
X07745Y01541D02*
X08057Y01541D01*
X08057Y01541D02*
X08120Y01485D01*
X08120Y01485D02*
X08120Y01096D01*
X08120Y01096D02*
X08057Y01041D01*
X08057Y01041D02*
X07745Y01041D01*
X07745Y01041D02*
X07682Y01096D01*
X08585Y01041D02*
X08585Y01541D01*
X08585Y01541D02*
X08272Y01152D01*
X08272Y01152D02*
X08710Y01152D01*
X06020Y03710D02*
X06332Y03932D01*
X06332Y03932D02*
X06020Y04210D01*
X06547Y04210D02*
X06797Y03710D01*
X06797Y03710D02*
X07047Y04210D01*
X07137Y03710D02*
X07137Y04098D01*
X07137Y04098D02*
X07262Y04210D01*
X07262Y04210D02*
X07450Y04210D01*
X07450Y04210D02*
X07575Y04098D01*
X07575Y04098D02*
X07575Y03710D01*
X07137Y03987D02*
X07575Y03987D01*
X07727Y04210D02*
X07727Y03710D01*
X07727Y03710D02*
X08227Y03710D01*
X08317Y04210D02*
X08317Y03765D01*
X08317Y03765D02*
X08380Y03710D01*
X08380Y03710D02*
X08692Y03710D01*
X08692Y03710D02*
X08755Y03765D01*
X08755Y03765D02*
X08755Y04210D01*
X09345Y03710D02*
X08907Y03710D01*
X08907Y03710D02*
X08907Y04210D01*
X08907Y04210D02*
X09345Y04210D01*
X08907Y03987D02*
X09157Y03987D01*
X04957Y09063D02*
X05000Y09112D01*
X05000Y09112D02*
X05000Y09356D01*
X05000Y09356D02*
X04957Y09405D01*
X04957Y09405D02*
X04827Y09405D01*
X04827Y09405D02*
X04784Y09356D01*
X04784Y09356D02*
X04784Y09112D01*
X04784Y09112D02*
X04740Y09063D01*
X04740Y09063D02*
X04654Y09063D01*
X04654Y09063D02*
X04610Y09112D01*
X04610Y09112D02*
X04610Y09356D01*
X04610Y09356D02*
X04654Y09405D01*
X04610Y09531D02*
X05000Y09531D01*
X05000Y09531D02*
X05000Y09921D01*
X05000Y10097D02*
X05000Y10292D01*
X05000Y10194D02*
X04610Y10194D01*
X04654Y10194D02*
X04740Y10097D01*
X04892Y10259D02*
X04892Y10759D01*
X04892Y10759D02*
X05142Y10536D01*
X05142Y10536D02*
X05392Y10759D01*
X05392Y10759D02*
X05392Y10259D01*
X05482Y10259D02*
X05920Y10759D01*
X05482Y10314D02*
X05482Y10703D01*
X05482Y10703D02*
X05545Y10759D01*
X05545Y10759D02*
X05857Y10759D01*
X05857Y10759D02*
X05920Y10703D01*
X05920Y10703D02*
X05920Y10314D01*
X05920Y10314D02*
X05857Y10259D01*
X05857Y10259D02*
X05545Y10259D01*
X05545Y10259D02*
X05482Y10314D01*
X06385Y10259D02*
X06385Y10759D01*
X06385Y10759D02*
X06072Y10370D01*
X06072Y10370D02*
X06510Y10370D01*
X04320Y07590D02*
X04632Y07812D01*
X04632Y07812D02*
X04320Y08090D01*
X04847Y08090D02*
X05097Y07590D01*
X05097Y07590D02*
X05347Y08090D01*
X05437Y07590D02*
X05437Y07978D01*
X05437Y07978D02*
X05562Y08090D01*
X05562Y08090D02*
X05750Y08090D01*
X05750Y08090D02*
X05875Y07978D01*
X05875Y07978D02*
X05875Y07590D01*
X05437Y07867D02*
X05875Y07867D01*
X06027Y08090D02*
X06027Y07590D01*
X06027Y07590D02*
X06527Y07590D01*
X06617Y08090D02*
X06617Y07645D01*
X06617Y07645D02*
X06680Y07590D01*
X06680Y07590D02*
X06992Y07590D01*
X06992Y07590D02*
X07055Y07645D01*
X07055Y07645D02*
X07055Y08090D01*
X07645Y07590D02*
X07207Y07590D01*
X07207Y07590D02*
X07207Y08090D01*
X07207Y08090D02*
X07645Y08090D01*
X07207Y07867D02*
X07457Y07867D01*
X06550Y18150D02*
X06550Y18650D01*
X06487Y18650D02*
X06862Y18650D01*
X06862Y18650D02*
X06925Y18594D01*
X06925Y18594D02*
X06925Y18205D01*
X06925Y18205D02*
X06862Y18150D01*
X06862Y18150D02*
X06487Y18150D01*
X07077Y18650D02*
X07515Y18650D01*
X07515Y18650D02*
X07515Y18594D01*
X07515Y18594D02*
X07265Y18427D01*
X07265Y18427D02*
X07452Y18427D01*
X07452Y18427D02*
X07515Y18372D01*
X07515Y18372D02*
X07515Y18205D01*
X07515Y18205D02*
X07452Y18150D01*
X07452Y18150D02*
X07140Y18150D01*
X07140Y18150D02*
X07077Y18205D01*
X06682Y16050D02*
X06932Y16050D01*
X06807Y16050D02*
X06807Y16550D01*
X06807Y16494D02*
X06682Y16383D01*
X07147Y16050D02*
X07147Y16550D01*
X07147Y16550D02*
X07585Y16050D01*
X07585Y16050D02*
X07585Y16550D01*
X07737Y16161D02*
X07737Y16105D01*
X07737Y16105D02*
X07800Y16050D01*
X07800Y16050D02*
X08112Y16050D01*
X08112Y16050D02*
X08175Y16105D01*
X08175Y16105D02*
X08175Y16272D01*
X08175Y16272D02*
X08050Y16383D01*
X08050Y16383D02*
X07737Y16383D01*
X07737Y16383D02*
X07737Y16550D01*
X07737Y16550D02*
X08175Y16550D01*
X08390Y16050D02*
X08327Y16105D01*
X08327Y16105D02*
X08327Y16272D01*
X08327Y16272D02*
X08390Y16327D01*
X08390Y16327D02*
X08702Y16327D01*
X08702Y16327D02*
X08765Y16383D01*
X08765Y16383D02*
X08765Y16494D01*
X08765Y16494D02*
X08702Y16550D01*
X08702Y16550D02*
X08390Y16550D01*
X08390Y16550D02*
X08327Y16494D01*
X08327Y16494D02*
X08327Y16383D01*
X08327Y16383D02*
X08390Y16327D01*
X08702Y16327D02*
X08765Y16272D01*
X08765Y16272D02*
X08765Y16105D01*
X08765Y16105D02*
X08702Y16050D01*
X08702Y16050D02*
X08390Y16050D01*
X09355Y16050D02*
X08917Y16050D01*
X08917Y16050D02*
X08917Y16216D01*
X08917Y16216D02*
X08980Y16272D01*
X08980Y16272D02*
X09292Y16272D01*
X09292Y16272D02*
X09355Y16327D01*
X09355Y16327D02*
X09355Y16494D01*
X09355Y16494D02*
X09292Y16550D01*
X09292Y16550D02*
X08980Y16550D01*
X08980Y16550D02*
X08917Y16494D01*
X09507Y16050D02*
X09945Y16550D01*
X09507Y16105D02*
X09507Y16494D01*
X09507Y16494D02*
X09570Y16550D01*
X09570Y16550D02*
X09882Y16550D01*
X09882Y16550D02*
X09945Y16494D01*
X09945Y16494D02*
X09945Y16105D01*
X09945Y16105D02*
X09882Y16050D01*
X09882Y16050D02*
X09570Y16050D01*
X09570Y16050D02*
X09507Y16105D01*
X11950Y21750D02*
X11450Y21750D01*
X11450Y21687D02*
X11450Y22062D01*
X11450Y22062D02*
X11506Y22125D01*
X11506Y22125D02*
X11895Y22125D01*
X11895Y22125D02*
X11950Y22062D01*
X11950Y22062D02*
X11950Y21687D01*
X11950Y22715D02*
X11950Y22277D01*
X11950Y22277D02*
X11784Y22277D01*
X11784Y22277D02*
X11728Y22340D01*
X11728Y22340D02*
X11728Y22652D01*
X11728Y22652D02*
X11673Y22715D01*
X11673Y22715D02*
X11506Y22715D01*
X11506Y22715D02*
X11450Y22652D01*
X11450Y22652D02*
X11450Y22340D01*
X11450Y22340D02*
X11506Y22277D01*
X13700Y20882D02*
X13700Y21132D01*
X13700Y21007D02*
X13200Y21007D01*
X13256Y21007D02*
X13367Y20882D01*
X13700Y21347D02*
X13200Y21347D01*
X13200Y21347D02*
X13700Y21785D01*
X13700Y21785D02*
X13200Y21785D01*
X13589Y21937D02*
X13645Y21937D01*
X13645Y21937D02*
X13700Y22000D01*
X13700Y22000D02*
X13700Y22312D01*
X13700Y22312D02*
X13645Y22375D01*
X13645Y22375D02*
X13478Y22375D01*
X13478Y22375D02*
X13367Y22250D01*
X13367Y22250D02*
X13367Y21937D01*
X13367Y21937D02*
X13200Y21937D01*
X13200Y21937D02*
X13200Y22375D01*
X13700Y22840D02*
X13200Y22840D01*
X13200Y22840D02*
X13589Y22527D01*
X13589Y22527D02*
X13589Y22965D01*
X13700Y23117D02*
X13200Y23555D01*
X13645Y23117D02*
X13256Y23117D01*
X13256Y23117D02*
X13200Y23180D01*
X13200Y23180D02*
X13200Y23492D01*
X13200Y23492D02*
X13256Y23555D01*
X13256Y23555D02*
X13645Y23555D01*
X13645Y23555D02*
X13700Y23492D01*
X13700Y23492D02*
X13700Y23180D01*
X13700Y23180D02*
X13645Y23117D01*
X13700Y23770D02*
X13645Y23707D01*
X13645Y23707D02*
X13478Y23707D01*
X13478Y23707D02*
X13423Y23770D01*
X13423Y23770D02*
X13423Y24082D01*
X13423Y24082D02*
X13367Y24145D01*
X13367Y24145D02*
X13256Y24145D01*
X13256Y24145D02*
X13200Y24082D01*
X13200Y24082D02*
X13200Y23770D01*
X13200Y23770D02*
X13256Y23707D01*
X13256Y23707D02*
X13367Y23707D01*
X13367Y23707D02*
X13423Y23770D01*
X13423Y24082D02*
X13478Y24145D01*
X13478Y24145D02*
X13645Y24145D01*
X13645Y24145D02*
X13700Y24082D01*
X13700Y24082D02*
X13700Y23770D01*
X22650Y05100D02*
X22150Y05100D01*
X22150Y05037D02*
X22150Y05412D01*
X22150Y05412D02*
X22206Y05475D01*
X22206Y05475D02*
X22595Y05475D01*
X22595Y05475D02*
X22650Y05412D01*
X22650Y05412D02*
X22650Y05037D01*
X22650Y05752D02*
X22650Y06002D01*
X22650Y05877D02*
X22150Y05877D01*
X22206Y05877D02*
X22317Y05752D01*
X20750Y03017D02*
X21250Y03017D01*
X21250Y03017D02*
X21250Y03517D01*
X20750Y03607D02*
X21250Y03607D01*
X21250Y03607D02*
X21250Y04107D01*
X21250Y04322D02*
X21250Y04572D01*
X21250Y04447D02*
X20750Y04447D01*
X20806Y04447D02*
X20917Y04322D01*
X21250Y04787D02*
X20750Y04787D01*
X20750Y04787D02*
X21250Y05225D01*
X21250Y05225D02*
X20750Y05225D01*
X21250Y05690D02*
X20750Y05690D01*
X20750Y05690D02*
X21139Y05377D01*
X21139Y05377D02*
X21139Y05815D01*
X21250Y06092D02*
X21250Y06342D01*
X21250Y06217D02*
X20750Y06217D01*
X20806Y06217D02*
X20917Y06092D01*
X21250Y06870D02*
X20750Y06870D01*
X20750Y06870D02*
X21139Y06557D01*
X21139Y06557D02*
X21139Y06995D01*
X21250Y07210D02*
X21195Y07147D01*
X21195Y07147D02*
X21028Y07147D01*
X21028Y07147D02*
X20973Y07210D01*
X20973Y07210D02*
X20973Y07522D01*
X20973Y07522D02*
X20917Y07585D01*
X20917Y07585D02*
X20806Y07585D01*
X20806Y07585D02*
X20750Y07522D01*
X20750Y07522D02*
X20750Y07210D01*
X20750Y07210D02*
X20806Y07147D01*
X20806Y07147D02*
X20917Y07147D01*
X20917Y07147D02*
X20973Y07210D01*
X20973Y07522D02*
X21028Y07585D01*
X21028Y07585D02*
X21195Y07585D01*
X21195Y07585D02*
X21250Y07522D01*
X21250Y07522D02*
X21250Y07210D01*
X09189Y24037D02*
X09300Y24100D01*
X09300Y24100D02*
X09300Y24225D01*
X09300Y24225D02*
X09245Y24287D01*
X09245Y24287D02*
X08800Y24287D01*
X08800Y24162D02*
X08800Y24412D01*
X09300Y24752D02*
X09300Y25002D01*
X09300Y24877D02*
X08800Y24877D01*
X08856Y24877D02*
X08967Y24752D01*
X11689Y22312D02*
X11800Y22375D01*
X11800Y22375D02*
X11800Y22500D01*
X11800Y22500D02*
X11745Y22562D01*
X11745Y22562D02*
X11300Y22562D01*
X11300Y22437D02*
X11300Y22687D01*
X11800Y22902D02*
X11412Y22902D01*
X11412Y22902D02*
X11300Y23027D01*
X11300Y23027D02*
X11300Y23215D01*
X11300Y23215D02*
X11412Y23340D01*
X11412Y23340D02*
X11800Y23340D01*
X11523Y22902D02*
X11523Y23340D01*
X11745Y23930D02*
X11800Y23867D01*
X11800Y23867D02*
X11800Y23555D01*
X11800Y23555D02*
X11745Y23492D01*
X11745Y23492D02*
X11356Y23492D01*
X11356Y23492D02*
X11300Y23555D01*
X11300Y23555D02*
X11300Y23867D01*
X11300Y23867D02*
X11356Y23930D01*
X11800Y24082D02*
X11300Y24082D01*
X11300Y24457D02*
X11523Y24082D01*
X11523Y24082D02*
X11800Y24520D01*
X11800Y24672D02*
X11800Y25110D01*
X11800Y25700D02*
X11800Y25262D01*
X11800Y25262D02*
X11634Y25262D01*
X11634Y25262D02*
X11578Y25325D01*
X11578Y25325D02*
X11578Y25637D01*
X11578Y25637D02*
X11523Y25700D01*
X11523Y25700D02*
X11356Y25700D01*
X11356Y25700D02*
X11300Y25637D01*
X11300Y25637D02*
X11300Y25325D01*
X11300Y25325D02*
X11356Y25262D01*
X11800Y25852D02*
X11300Y25852D01*
X11300Y25852D02*
X11300Y26227D01*
X11300Y26227D02*
X11356Y26290D01*
X11356Y26290D02*
X11523Y26290D01*
X11523Y26290D02*
X11578Y26227D01*
X11578Y26227D02*
X11578Y25852D01*
X09246Y22150D02*
X09246Y22250D01*
X09233Y22250D02*
X09308Y22250D01*
X09308Y22250D02*
X09321Y22238D01*
X09321Y22238D02*
X09321Y22161D01*
X09321Y22161D02*
X09308Y22150D01*
X09308Y22150D02*
X09233Y22150D01*
X09379Y22150D02*
X09379Y22216D01*
X09379Y22194D02*
X09404Y22216D01*
X09404Y22216D02*
X09442Y22216D01*
X09442Y22216D02*
X09467Y22194D01*
X09563Y22250D02*
X09563Y22238D01*
X09563Y22205D02*
X09563Y22161D01*
X09563Y22161D02*
X09575Y22150D01*
X09575Y22150D02*
X09588Y22150D01*
X09696Y22250D02*
X09709Y22250D01*
X09709Y22250D02*
X09709Y22150D01*
X09696Y22150D02*
X09721Y22150D01*
X09842Y22250D02*
X09855Y22250D01*
X09855Y22250D02*
X09855Y22150D01*
X09842Y22150D02*
X09867Y22150D01*
X10147Y22150D02*
X10134Y22172D01*
X10134Y22172D02*
X10134Y22227D01*
X10134Y22227D02*
X10147Y22250D01*
X10255Y22150D02*
X10255Y22250D01*
X10330Y22250D02*
X10255Y22205D01*
X10255Y22205D02*
X10343Y22150D01*
X10414Y22150D02*
X10401Y22161D01*
X10401Y22161D02*
X10401Y22205D01*
X10401Y22205D02*
X10414Y22216D01*
X10414Y22216D02*
X10476Y22216D01*
X10476Y22216D02*
X10489Y22205D01*
X10489Y22205D02*
X10489Y22161D01*
X10489Y22161D02*
X10476Y22150D01*
X10476Y22150D02*
X10414Y22150D01*
X10547Y22150D02*
X10547Y22216D01*
X10547Y22205D02*
X10560Y22216D01*
X10560Y22216D02*
X10610Y22216D01*
X10610Y22216D02*
X10622Y22205D01*
X10622Y22205D02*
X10622Y22150D01*
X10768Y22161D02*
X10756Y22150D01*
X10756Y22150D02*
X10718Y22150D01*
X10718Y22150D02*
X10706Y22161D01*
X10706Y22161D02*
X10706Y22250D01*
X10706Y22216D02*
X10743Y22216D01*
X10852Y22150D02*
X10839Y22161D01*
X10839Y22161D02*
X10839Y22205D01*
X10839Y22205D02*
X10852Y22216D01*
X10852Y22216D02*
X10914Y22216D01*
X10914Y22216D02*
X10927Y22205D01*
X10927Y22205D02*
X10927Y22161D01*
X10927Y22161D02*
X10914Y22150D01*
X10914Y22150D02*
X10852Y22150D01*
X10985Y22216D02*
X10985Y22172D01*
X10985Y22172D02*
X11010Y22150D01*
X11010Y22150D02*
X11048Y22150D01*
X11048Y22150D02*
X11073Y22172D01*
X11073Y22172D02*
X11073Y22216D01*
X11131Y22150D02*
X11131Y22216D01*
X11131Y22194D02*
X11156Y22216D01*
X11156Y22216D02*
X11194Y22216D01*
X11194Y22216D02*
X11219Y22194D01*
X11315Y22150D02*
X11327Y22172D01*
X11327Y22172D02*
X11327Y22227D01*
X11327Y22227D02*
X11315Y22250D01*
X09602Y23161D02*
X09615Y23150D01*
X09615Y23150D02*
X09677Y23150D01*
X09677Y23150D02*
X09690Y23161D01*
X09690Y23161D02*
X09690Y23172D01*
X09690Y23172D02*
X09677Y23183D01*
X09677Y23183D02*
X09615Y23183D01*
X09615Y23183D02*
X09602Y23194D01*
X09602Y23194D02*
X09602Y23205D01*
X09602Y23205D02*
X09615Y23216D01*
X09615Y23216D02*
X09677Y23216D01*
X09677Y23216D02*
X09690Y23205D01*
X09748Y23183D02*
X09836Y23183D01*
X09836Y23183D02*
X09836Y23205D01*
X09836Y23205D02*
X09823Y23216D01*
X09823Y23216D02*
X09761Y23216D01*
X09761Y23216D02*
X09748Y23205D01*
X09748Y23205D02*
X09748Y23161D01*
X09748Y23161D02*
X09761Y23150D01*
X09761Y23150D02*
X09823Y23150D01*
X09823Y23150D02*
X09836Y23161D01*
X09894Y23183D02*
X09982Y23183D01*
X09982Y23183D02*
X09982Y23205D01*
X09982Y23205D02*
X09969Y23216D01*
X09969Y23216D02*
X09907Y23216D01*
X09907Y23216D02*
X09894Y23205D01*
X09894Y23205D02*
X09894Y23161D01*
X09894Y23161D02*
X09907Y23150D01*
X09907Y23150D02*
X09969Y23150D01*
X09969Y23150D02*
X09982Y23161D01*
X10186Y23250D02*
X10186Y23150D01*
X10186Y23150D02*
X10286Y23150D01*
X10332Y23216D02*
X10407Y23216D01*
X10407Y23216D02*
X10420Y23205D01*
X10420Y23205D02*
X10420Y23150D01*
X10420Y23150D02*
X10345Y23150D01*
X10345Y23150D02*
X10332Y23161D01*
X10332Y23161D02*
X10332Y23172D01*
X10332Y23172D02*
X10345Y23183D01*
X10345Y23183D02*
X10420Y23183D01*
X10478Y23216D02*
X10478Y23172D01*
X10478Y23172D02*
X10503Y23150D01*
X10503Y23150D02*
X10541Y23150D01*
X10541Y23150D02*
X10566Y23172D01*
X10566Y23216D02*
X10566Y23128D01*
X10566Y23128D02*
X10553Y23117D01*
X10553Y23117D02*
X10491Y23117D01*
X10491Y23117D02*
X10478Y23128D01*
X10624Y23183D02*
X10712Y23183D01*
X10712Y23183D02*
X10712Y23205D01*
X10712Y23205D02*
X10699Y23216D01*
X10699Y23216D02*
X10637Y23216D01*
X10637Y23216D02*
X10624Y23205D01*
X10624Y23205D02*
X10624Y23161D01*
X10624Y23161D02*
X10637Y23150D01*
X10637Y23150D02*
X10699Y23150D01*
X10699Y23150D02*
X10712Y23161D01*
X10770Y23150D02*
X10770Y23216D01*
X10770Y23194D02*
X10795Y23216D01*
X10795Y23216D02*
X10833Y23216D01*
X10833Y23216D02*
X10858Y23194D01*
X11125Y23150D02*
X11125Y23250D01*
X11125Y23250D02*
X11062Y23172D01*
X11062Y23172D02*
X11150Y23172D01*
X11296Y23238D02*
X11283Y23250D01*
X11283Y23250D02*
X11221Y23250D01*
X11221Y23250D02*
X11208Y23238D01*
X11208Y23238D02*
X11208Y23161D01*
X11208Y23161D02*
X11221Y23150D01*
X11221Y23150D02*
X11283Y23150D01*
X11283Y23150D02*
X11296Y23161D01*
X11296Y23161D02*
X11296Y23194D01*
X11296Y23194D02*
X11283Y23205D01*
X11283Y23205D02*
X11221Y23205D01*
X11221Y23205D02*
X11208Y23194D01*
G54D46*
X23858Y04175D02*
X23858Y03775D01*
X23858Y03775D02*
X23914Y03725D01*
X23914Y03725D02*
X24195Y03725D01*
X24195Y03725D02*
X24252Y03775D01*
X24252Y03775D02*
X24252Y04175D01*
X24418Y03825D02*
X24418Y03775D01*
X24418Y03775D02*
X24474Y03725D01*
X24474Y03725D02*
X24755Y03725D01*
X24755Y03725D02*
X24812Y03775D01*
X24812Y03775D02*
X24812Y03925D01*
X24812Y03925D02*
X24699Y04025D01*
X24699Y04025D02*
X24418Y04025D01*
X24418Y04025D02*
X24418Y04175D01*
X24418Y04175D02*
X24812Y04175D01*
X23092Y03025D02*
X23092Y03375D01*
X23048Y03375D02*
X23311Y03375D01*
X23311Y03375D02*
X23355Y03336D01*
X23355Y03336D02*
X23355Y03063D01*
X23355Y03063D02*
X23311Y03025D01*
X23311Y03025D02*
X23048Y03025D01*
X23496Y03063D02*
X23540Y03025D01*
X23540Y03025D02*
X23759Y03025D01*
X23759Y03025D02*
X23803Y03063D01*
X23803Y03063D02*
X23803Y03180D01*
X23803Y03180D02*
X23759Y03219D01*
X23759Y03219D02*
X23540Y03219D01*
X23540Y03219D02*
X23496Y03258D01*
X23496Y03258D02*
X23496Y03336D01*
X23496Y03336D02*
X23540Y03375D01*
X23540Y03375D02*
X23759Y03375D01*
X23759Y03375D02*
X23803Y03336D01*
X24032Y03025D02*
X24207Y03025D01*
X24119Y03025D02*
X24119Y03375D01*
X24119Y03336D02*
X24032Y03258D01*
X24392Y03375D02*
X24699Y03375D01*
X24699Y03375D02*
X24699Y03336D01*
X24699Y03336D02*
X24524Y03219D01*
X24524Y03219D02*
X24655Y03219D01*
X24655Y03219D02*
X24699Y03180D01*
X24699Y03180D02*
X24699Y03063D01*
X24699Y03063D02*
X24655Y03025D01*
X24655Y03025D02*
X24436Y03025D01*
X24436Y03025D02*
X24392Y03063D01*
X24840Y03025D02*
X25147Y03375D01*
X24840Y03063D02*
X24840Y03336D01*
X24840Y03336D02*
X24884Y03375D01*
X24884Y03375D02*
X25103Y03375D01*
X25103Y03375D02*
X25147Y03336D01*
X25147Y03336D02*
X25147Y03063D01*
X25147Y03063D02*
X25103Y03025D01*
X25103Y03025D02*
X24884Y03025D01*
X24884Y03025D02*
X24840Y03063D01*
X25595Y03025D02*
X25288Y03025D01*
X25288Y03025D02*
X25288Y03141D01*
X25288Y03141D02*
X25332Y03180D01*
X25332Y03180D02*
X25551Y03180D01*
X25551Y03180D02*
X25595Y03219D01*
X25595Y03219D02*
X25595Y03336D01*
X25595Y03336D02*
X25551Y03375D01*
X25551Y03375D02*
X25332Y03375D01*
X25332Y03375D02*
X25288Y03336D01*
G54D50*
X23857Y01363D02*
X23900Y01412D01*
X23900Y01412D02*
X23900Y01656D01*
X23900Y01656D02*
X23857Y01705D01*
X23857Y01705D02*
X23727Y01705D01*
X23727Y01705D02*
X23684Y01656D01*
X23684Y01656D02*
X23684Y01412D01*
X23684Y01412D02*
X23640Y01363D01*
X23640Y01363D02*
X23554Y01363D01*
X23554Y01363D02*
X23510Y01412D01*
X23510Y01412D02*
X23510Y01656D01*
X23510Y01656D02*
X23554Y01705D01*
X23510Y01831D02*
X23900Y01831D01*
X23900Y01831D02*
X23900Y02221D01*
X23510Y02299D02*
X23510Y02641D01*
X23510Y02641D02*
X23554Y02641D01*
X23554Y02641D02*
X23684Y02446D01*
X23684Y02446D02*
X23684Y02592D01*
X23684Y02592D02*
X23727Y02641D01*
X23727Y02641D02*
X23857Y02641D01*
X23857Y02641D02*
X23900Y02592D01*
X23900Y02592D02*
X23900Y02348D01*
X23900Y02348D02*
X23857Y02299D01*
X24087Y02559D02*
X24525Y03059D01*
X24087Y03059D02*
X24525Y02559D01*
X24677Y03059D02*
X25177Y03059D01*
X24927Y03059D02*
X24927Y02559D01*
X23220Y-00110D02*
X23532Y00112D01*
X23532Y00112D02*
X23220Y00390D01*
X23747Y00390D02*
X23997Y-00110D01*
X23997Y-00110D02*
X24247Y00390D01*
X24337Y-00110D02*
X24337Y00278D01*
X24337Y00278D02*
X24462Y00390D01*
X24462Y00390D02*
X24650Y00390D01*
X24650Y00390D02*
X24775Y00278D01*
X24775Y00278D02*
X24775Y-00110D01*
X24337Y00167D02*
X24775Y00167D01*
X24927Y00390D02*
X24927Y-00110D01*
X24927Y-00110D02*
X25427Y-00110D01*
X25517Y00390D02*
X25517Y-00055D01*
X25517Y-00055D02*
X25580Y-00110D01*
X25580Y-00110D02*
X25892Y-00110D01*
X25892Y-00110D02*
X25955Y-00055D01*
X25955Y-00055D02*
X25955Y00390D01*
X26545Y-00110D02*
X26107Y-00110D01*
X26107Y-00110D02*
X26107Y00390D01*
X26107Y00390D02*
X26545Y00390D01*
X26107Y00167D02*
X26357Y00167D01*
G54D44*
X04040Y06799D02*
X03760Y06799D01*
X03760Y06799D02*
X03760Y06934D01*
X03760Y06934D02*
X03792Y06957D01*
X03792Y06957D02*
X03885Y06957D01*
X03885Y06957D02*
X03916Y06934D01*
X03916Y06934D02*
X03916Y06799D01*
X03916Y06867D02*
X04040Y06957D01*
X04040Y07094D02*
X04040Y07184D01*
X04040Y07139D02*
X03760Y07139D01*
X03792Y07139D02*
X03854Y07094D01*
X04640Y06099D02*
X04360Y06099D01*
X04360Y06099D02*
X04360Y06234D01*
X04360Y06234D02*
X04392Y06257D01*
X04392Y06257D02*
X04485Y06257D01*
X04485Y06257D02*
X04516Y06234D01*
X04516Y06234D02*
X04516Y06099D01*
X04516Y06167D02*
X04640Y06257D01*
X04640Y06507D02*
X04640Y06349D01*
X04640Y06349D02*
X04547Y06349D01*
X04547Y06349D02*
X04516Y06372D01*
X04516Y06372D02*
X04516Y06484D01*
X04516Y06484D02*
X04485Y06507D01*
X04485Y06507D02*
X04392Y06507D01*
X04392Y06507D02*
X04360Y06484D01*
X04360Y06484D02*
X04360Y06372D01*
X04360Y06372D02*
X04392Y06349D01*
M02*
