G04 (Genere par PCBNEW (2007-07-09)) le 2/12/2007-22:10:58*
G01*
G70*
G90*
%MOIN*%
G04 Gerber Fmt 3.4, Leading zero omitted, Abs format*
%FSLAX34Y34*%
G04 APERTURE LIST*
%ADD10C,0.015000*%
%ADD11O,0.070000X0.055000*%
%ADD12O,0.070000X0.050000*%
%ADD13R,0.062000X0.090000*%
%ADD14O,0.062000X0.090000*%
%ADD15R,0.070000X0.070000*%
%ADD16C,0.070000*%
%ADD17C,0.050000*%
%ADD18C,0.060000*%
%ADD19O,0.056000X0.112000*%
%ADD20O,0.088500X0.177000*%
%ADD21C,0.066000*%
%ADD22O,0.059000X0.118100*%
%ADD23C,0.045000*%
%ADD24C,0.018000*%
%ADD25C,0.036000*%
%ADD26C,0.024000*%
%ADD27R,0.019700X0.100000*%
%ADD28R,0.042000X0.090000*%
%ADD29R,0.420000X0.350000*%
%ADD30R,0.055000X0.035000*%
%ADD31R,0.035000X0.055000*%
%ADD32R,0.020000X0.045000*%
%ADD33R,0.070800X0.055100*%
%ADD34R,0.078700X0.078700*%
%ADD35C,0.017000*%
%ADD36C,0.050000*%
%ADD37C,0.080000*%
%ADD38C,0.200000*%
%ADD39C,0.040000*%
%ADD40C,0.012000*%
%ADD41C,0.005000*%
%ADD42C,0.008000*%
%ADD43C,0.002600*%
%ADD44C,0.006000*%
%ADD45C,0.030000*%
%ADD46C,0.000100*%
%ADD47C,0.004000*%
G04 APERTURE END LIST*
G54D10*
X01250Y00000D02*
X01154Y-00478D01*
X01154Y-00478D02*
X00883Y-00883D01*
X00883Y-00883D02*
X00478Y-01154D01*
X00478Y-01154D02*
X00000Y-01250D01*
X00000Y-01250D02*
X-00478Y-01154D01*
X-00478Y-01154D02*
X-00883Y-00883D01*
X-00883Y-00883D02*
X-01154Y-00478D01*
X-01154Y-00478D02*
X-01250Y00000D01*
X-01250Y00000D02*
X-01154Y00478D01*
X-01154Y00478D02*
X-00883Y00883D01*
X-00883Y00883D02*
X-00478Y01154D01*
X-00478Y01154D02*
X00000Y01250D01*
X00000Y01250D02*
X00478Y01154D01*
X00478Y01154D02*
X00883Y00883D01*
X00883Y00883D02*
X01154Y00478D01*
X01154Y00478D02*
X01250Y00000D01*
X-02500Y00000D02*
X02500Y00000D01*
X00000Y02500D02*
X00000Y-02500D01*
X00000Y00000D02*
X00000Y26000D01*
X29000Y00000D02*
X00000Y00000D01*
X29000Y26000D02*
X29000Y00000D01*
X00000Y26000D02*
X29000Y26000D01*
X14800Y25900D02*
X25000Y25900D01*
X25000Y25900D02*
X25000Y21100D01*
X14800Y21100D02*
X14800Y25900D01*
X17000Y13100D02*
X24100Y13100D01*
X24100Y13100D02*
X24100Y12400D01*
X24100Y12400D02*
X17000Y12400D01*
X17000Y12400D02*
X17000Y13100D01*
X19900Y21100D02*
X19900Y11100D01*
X14400Y20300D02*
X14000Y20300D01*
X14000Y20300D02*
X14000Y19500D01*
X14000Y19500D02*
X14400Y19500D01*
X25400Y20300D02*
X25800Y20300D01*
X25800Y20300D02*
X25800Y19500D01*
X25800Y19500D02*
X25400Y19500D01*
X25400Y11100D02*
X25800Y11100D01*
X25800Y11100D02*
X25800Y11900D01*
X25800Y11900D02*
X25400Y11900D01*
X15400Y11100D02*
X15400Y11900D01*
X15400Y11900D02*
X15800Y11900D01*
X15800Y11100D02*
X15400Y11100D01*
X14400Y14500D02*
X14400Y21100D01*
X15800Y13100D02*
X14400Y14500D01*
X25400Y21100D02*
X14400Y21100D01*
X15800Y11100D02*
X15800Y13100D01*
X25400Y11100D02*
X15800Y11100D01*
X25400Y21100D02*
X25400Y11100D01*
X28090Y24500D02*
X28010Y24205D01*
X28010Y24205D02*
X27795Y23990D01*
X27795Y23990D02*
X27500Y23910D01*
X27500Y23910D02*
X27205Y23990D01*
X27205Y23990D02*
X26990Y24205D01*
X26990Y24205D02*
X26910Y24500D01*
X26910Y24500D02*
X26990Y24795D01*
X26990Y24795D02*
X27205Y25010D01*
X27205Y25010D02*
X27500Y25090D01*
X27500Y25090D02*
X27795Y25010D01*
X27795Y25010D02*
X28010Y24795D01*
X28010Y24795D02*
X28090Y24500D01*
X27500Y23000D02*
X27500Y-00500D01*
X27500Y23000D02*
X27500Y26600D01*
X01500Y01500D02*
X32400Y01500D01*
X01500Y24500D02*
X29500Y24500D01*
X28090Y01500D02*
X28010Y01205D01*
X28010Y01205D02*
X27795Y00990D01*
X27795Y00990D02*
X27500Y00910D01*
X27500Y00910D02*
X27205Y00990D01*
X27205Y00990D02*
X26990Y01205D01*
X26990Y01205D02*
X26910Y01500D01*
X26910Y01500D02*
X26990Y01795D01*
X26990Y01795D02*
X27205Y02010D01*
X27205Y02010D02*
X27500Y02090D01*
X27500Y02090D02*
X27795Y02010D01*
X27795Y02010D02*
X28010Y01795D01*
X28010Y01795D02*
X28090Y01500D01*
X02090Y01500D02*
X02010Y01205D01*
X02010Y01205D02*
X01795Y00990D01*
X01795Y00990D02*
X01500Y00910D01*
X01500Y00910D02*
X01205Y00990D01*
X01205Y00990D02*
X00990Y01205D01*
X00990Y01205D02*
X00910Y01500D01*
X00910Y01500D02*
X00990Y01795D01*
X00990Y01795D02*
X01205Y02010D01*
X01205Y02010D02*
X01500Y02090D01*
X01500Y02090D02*
X01795Y02010D01*
X01795Y02010D02*
X02010Y01795D01*
X02010Y01795D02*
X02090Y01500D01*
X02090Y24500D02*
X02010Y24205D01*
X02010Y24205D02*
X01795Y23990D01*
X01795Y23990D02*
X01500Y23910D01*
X01500Y23910D02*
X01205Y23990D01*
X01205Y23990D02*
X00990Y24205D01*
X00990Y24205D02*
X00910Y24500D01*
X00910Y24500D02*
X00990Y24795D01*
X00990Y24795D02*
X01205Y25010D01*
X01205Y25010D02*
X01500Y25090D01*
X01500Y25090D02*
X01795Y25010D01*
X01795Y25010D02*
X02010Y24795D01*
X02010Y24795D02*
X02090Y24500D01*
X29000Y00200D02*
X29000Y00000D01*
X29000Y00000D02*
X00000Y00000D01*
X00000Y00000D02*
X00000Y00200D01*
X00000Y25800D02*
X00000Y26000D01*
X00000Y26000D02*
X29000Y26000D01*
X29000Y26000D02*
X29000Y25800D01*
X29000Y00400D02*
X29000Y00200D01*
X00000Y00200D02*
X00000Y00400D01*
X00000Y25600D02*
X00000Y25800D01*
X29000Y25800D02*
X29000Y25600D01*
X00000Y01000D02*
X00000Y00400D01*
X29000Y00400D02*
X29000Y01000D01*
X00000Y25000D02*
X00000Y25600D01*
X29000Y25600D02*
X29000Y25000D01*
X29000Y22500D02*
X29000Y25000D01*
X00000Y25000D02*
X00000Y22000D01*
X00000Y22000D02*
X00000Y03500D01*
X00000Y03500D02*
X00000Y01500D01*
X00000Y01500D02*
X00000Y01000D01*
X29000Y01000D02*
X29000Y04000D01*
X29000Y04000D02*
X29000Y22500D01*
X22000Y04800D02*
X22500Y04800D01*
X22500Y04800D02*
X22500Y03800D01*
X22500Y03800D02*
X22000Y03800D01*
X22000Y05300D02*
X26000Y05300D01*
X26000Y05300D02*
X26000Y03300D01*
X26000Y03300D02*
X22000Y03300D01*
X22000Y03300D02*
X22000Y05300D01*
G54D41*
X06500Y20350D02*
X06500Y18900D01*
X06500Y18900D02*
X07000Y18900D01*
X07000Y18900D02*
X07000Y20350D01*
X05850Y20350D02*
X05850Y18900D01*
X05850Y18900D02*
X06350Y18900D01*
X06350Y18900D02*
X06350Y20350D01*
X05150Y20350D02*
X05150Y18900D01*
X05150Y18900D02*
X05650Y18900D01*
X05650Y18900D02*
X05650Y20350D01*
X04500Y20350D02*
X04500Y18900D01*
X04500Y18900D02*
X04950Y18900D01*
X04950Y18900D02*
X05000Y18900D01*
X05000Y18900D02*
X05000Y20350D01*
X03800Y20350D02*
X03800Y18900D01*
X03800Y18900D02*
X04300Y18900D01*
X04300Y18900D02*
X04300Y20350D01*
X03300Y20350D02*
X07500Y20350D01*
X07500Y20350D02*
X07500Y24350D01*
X07500Y24350D02*
X03300Y24350D01*
X03300Y24350D02*
X03300Y20350D01*
G54D42*
X23150Y-00050D02*
X24650Y-00050D01*
X24650Y-00050D02*
X24650Y-03300D01*
X24650Y-03300D02*
X23150Y-03300D01*
X23150Y-03300D02*
X23150Y-00050D01*
X23400Y00700D02*
X23400Y-00050D01*
X24400Y00700D02*
X24400Y-00050D01*
X08250Y18150D02*
X08250Y19650D01*
X08250Y19650D02*
X11500Y19650D01*
X11500Y19650D02*
X11500Y18150D01*
X11500Y18150D02*
X08250Y18150D01*
X07500Y18400D02*
X08250Y18400D01*
X07500Y19400D02*
X08250Y19400D01*
G54D40*
X13000Y04100D02*
X13400Y04100D01*
X18000Y04100D02*
X17600Y04100D01*
X17600Y04600D02*
X17600Y03600D01*
X17600Y03600D02*
X13400Y03600D01*
X13400Y03600D02*
X13400Y04600D01*
X13400Y04600D02*
X17600Y04600D01*
X13400Y04400D02*
X13600Y04600D01*
G54D41*
X20850Y03650D02*
X20825Y03607D01*
X20825Y03607D02*
X20775Y03607D01*
X20775Y03607D02*
X20750Y03650D01*
X20750Y03650D02*
X20775Y03693D01*
X20775Y03693D02*
X20825Y03693D01*
X20825Y03693D02*
X20850Y03650D01*
X20800Y03200D02*
X20800Y03600D01*
X20800Y03600D02*
X21400Y03600D01*
X21400Y03600D02*
X21400Y03200D01*
X21400Y02800D02*
X21400Y02400D01*
X21400Y02400D02*
X20800Y02400D01*
X20800Y02400D02*
X20800Y02800D01*
X07850Y05550D02*
X07825Y05507D01*
X07825Y05507D02*
X07775Y05507D01*
X07775Y05507D02*
X07750Y05550D01*
X07750Y05550D02*
X07775Y05593D01*
X07775Y05593D02*
X07825Y05593D01*
X07825Y05593D02*
X07850Y05550D01*
X07800Y06000D02*
X07800Y05600D01*
X07800Y05600D02*
X07200Y05600D01*
X07200Y05600D02*
X07200Y06000D01*
X07200Y06400D02*
X07200Y06800D01*
X07200Y06800D02*
X07800Y06800D01*
X07800Y06800D02*
X07800Y06400D01*
X07900Y07700D02*
X07875Y07657D01*
X07875Y07657D02*
X07825Y07657D01*
X07825Y07657D02*
X07800Y07700D01*
X07800Y07700D02*
X07825Y07743D01*
X07825Y07743D02*
X07875Y07743D01*
X07875Y07743D02*
X07900Y07700D01*
X07400Y07700D02*
X07800Y07700D01*
X07800Y07700D02*
X07800Y07100D01*
X07800Y07100D02*
X07400Y07100D01*
X07000Y07100D02*
X06600Y07100D01*
X06600Y07100D02*
X06600Y07700D01*
X06600Y07700D02*
X07000Y07700D01*
X04250Y06950D02*
X04225Y06907D01*
X04225Y06907D02*
X04175Y06907D01*
X04175Y06907D02*
X04150Y06950D01*
X04150Y06950D02*
X04175Y06993D01*
X04175Y06993D02*
X04225Y06993D01*
X04225Y06993D02*
X04250Y06950D01*
X04200Y06500D02*
X04200Y06900D01*
X04200Y06900D02*
X04800Y06900D01*
X04800Y06900D02*
X04800Y06500D01*
X04800Y06100D02*
X04800Y05700D01*
X04800Y05700D02*
X04200Y05700D01*
X04200Y05700D02*
X04200Y06100D01*
X05100Y07100D02*
X05075Y07057D01*
X05075Y07057D02*
X05025Y07057D01*
X05025Y07057D02*
X05000Y07100D01*
X05000Y07100D02*
X05025Y07143D01*
X05025Y07143D02*
X05075Y07143D01*
X05075Y07143D02*
X05100Y07100D01*
X05500Y07100D02*
X05100Y07100D01*
X05100Y07100D02*
X05100Y07700D01*
X05100Y07700D02*
X05500Y07700D01*
X05900Y07700D02*
X06300Y07700D01*
X06300Y07700D02*
X06300Y07100D01*
X06300Y07100D02*
X05900Y07100D01*
X05100Y18100D02*
X05075Y18057D01*
X05075Y18057D02*
X05025Y18057D01*
X05025Y18057D02*
X05000Y18100D01*
X05000Y18100D02*
X05025Y18143D01*
X05025Y18143D02*
X05075Y18143D01*
X05075Y18143D02*
X05100Y18100D01*
X05500Y18100D02*
X05100Y18100D01*
X05100Y18100D02*
X05100Y18700D01*
X05100Y18700D02*
X05500Y18700D01*
X05900Y18700D02*
X06300Y18700D01*
X06300Y18700D02*
X06300Y18100D01*
X06300Y18100D02*
X05900Y18100D01*
X09300Y20000D02*
X09275Y19957D01*
X09275Y19957D02*
X09225Y19957D01*
X09225Y19957D02*
X09200Y20000D01*
X09200Y20000D02*
X09225Y20043D01*
X09225Y20043D02*
X09275Y20043D01*
X09275Y20043D02*
X09300Y20000D01*
X09700Y20000D02*
X09300Y20000D01*
X09300Y20000D02*
X09300Y20600D01*
X09300Y20600D02*
X09700Y20600D01*
X10100Y20600D02*
X10500Y20600D01*
X10500Y20600D02*
X10500Y20000D01*
X10500Y20000D02*
X10100Y20000D01*
X04950Y04900D02*
X04950Y04850D01*
X04950Y04850D02*
X07050Y04850D01*
X07050Y06350D02*
X04950Y06350D01*
X04950Y06350D02*
X04950Y04900D01*
X04950Y05800D02*
X05150Y05800D01*
X05150Y05800D02*
X05150Y05400D01*
X05150Y05400D02*
X04950Y05400D01*
X07050Y06350D02*
X07050Y04850D01*
G54D43*
X08830Y02830D02*
X08570Y02830D01*
X08570Y02830D02*
X08570Y02570D01*
X08830Y02570D02*
X08570Y02570D01*
X08830Y02830D02*
X08830Y02570D01*
X07830Y02830D02*
X07570Y02830D01*
X07570Y02830D02*
X07570Y02570D01*
X07830Y02570D02*
X07570Y02570D01*
X07830Y02830D02*
X07830Y02570D01*
X06830Y02830D02*
X06570Y02830D01*
X06570Y02830D02*
X06570Y02570D01*
X06830Y02570D02*
X06570Y02570D01*
X06830Y02830D02*
X06830Y02570D01*
X05830Y02830D02*
X05570Y02830D01*
X05570Y02830D02*
X05570Y02570D01*
X05830Y02570D02*
X05570Y02570D01*
X05830Y02830D02*
X05830Y02570D01*
G54D44*
X08350Y02000D02*
X08300Y02050D01*
X08300Y02050D02*
X08200Y02150D01*
X08200Y02150D02*
X08100Y02050D01*
X08100Y02050D02*
X08050Y02000D01*
X08300Y03550D02*
X08300Y03600D01*
X08300Y03600D02*
X09100Y03600D01*
X08100Y03550D02*
X08300Y03550D01*
X08100Y03550D02*
X08100Y03600D01*
X09100Y01700D02*
X09100Y02000D01*
X09100Y02000D02*
X09100Y03300D01*
X09100Y03400D02*
X09100Y03600D01*
X09100Y03400D02*
X08950Y03400D01*
X08450Y03400D02*
X08450Y03300D01*
X08950Y03400D02*
X08950Y03300D01*
X08950Y03200D02*
X08450Y03200D01*
X08450Y03300D02*
X08450Y03200D01*
X07950Y03400D02*
X07950Y03300D01*
X07950Y03300D02*
X07950Y03200D01*
X08450Y03300D02*
X08300Y03300D01*
X08300Y03300D02*
X08100Y03300D01*
X08100Y03300D02*
X07950Y03300D01*
X08950Y03300D02*
X09100Y03300D01*
X08950Y03300D02*
X08950Y03200D01*
X09100Y03300D02*
X09100Y03400D01*
X09100Y01700D02*
X08800Y01700D01*
X08800Y01700D02*
X08800Y01650D01*
X08600Y01700D02*
X08600Y01650D01*
X08600Y01650D02*
X08800Y01650D01*
X07800Y01700D02*
X07800Y01650D01*
X07600Y01700D02*
X07600Y01650D01*
X08100Y01750D02*
X08100Y01700D01*
X08300Y01750D02*
X08300Y01700D01*
X07100Y03550D02*
X07300Y03550D01*
X07100Y03550D02*
X07100Y03600D01*
X06300Y03600D02*
X07100Y03600D01*
X06450Y03400D02*
X06450Y03300D01*
X06950Y03200D02*
X06450Y03200D01*
X07450Y03400D02*
X07450Y03300D01*
X07450Y03300D02*
X07450Y03200D01*
X06950Y03400D02*
X06950Y03300D01*
X06950Y03300D02*
X06950Y03200D01*
X07450Y03300D02*
X07300Y03300D01*
X07300Y03300D02*
X07100Y03300D01*
X07100Y03300D02*
X06950Y03300D01*
X06450Y03300D02*
X06450Y03200D01*
X06800Y01700D02*
X06800Y01650D01*
X06600Y01700D02*
X06300Y01700D01*
X06600Y01700D02*
X06600Y01650D01*
X06600Y01650D02*
X06800Y01650D01*
X07100Y01750D02*
X07100Y01700D01*
X07100Y01700D02*
X06800Y01700D01*
X07100Y01750D02*
X07300Y01750D01*
X07300Y01750D02*
X07300Y01700D01*
X07600Y01700D02*
X07300Y01700D01*
X07600Y01650D02*
X07800Y01650D01*
X08100Y01700D02*
X07800Y01700D01*
X08300Y01750D02*
X08100Y01750D01*
X08300Y01700D02*
X08600Y01700D01*
X08350Y02000D02*
X09100Y02000D01*
X08050Y02000D02*
X07300Y02000D01*
X07300Y02000D02*
X07100Y02000D01*
X08100Y02050D02*
X08100Y03300D01*
X08300Y02050D02*
X08300Y03300D01*
X07300Y02000D02*
X07300Y03300D01*
X07100Y02000D02*
X07100Y03300D01*
X07950Y03200D02*
X07450Y03200D01*
X07950Y03400D02*
X08450Y03400D01*
X08100Y03600D02*
X07300Y03600D01*
X07450Y03400D02*
X06950Y03400D01*
X07300Y03550D02*
X07300Y03600D01*
X05300Y02000D02*
X05300Y03300D01*
X05300Y03400D02*
X05300Y03600D01*
X06100Y03550D02*
X06300Y03550D01*
X06300Y03550D02*
X06300Y03600D01*
X06100Y03550D02*
X06100Y03600D01*
X05300Y03600D02*
X06100Y03600D01*
X05300Y03400D02*
X05450Y03400D01*
X05450Y03400D02*
X05450Y03300D01*
X05450Y03300D02*
X05450Y03200D01*
X05450Y03300D02*
X05300Y03300D01*
X05950Y03200D02*
X05450Y03200D01*
X05950Y03400D02*
X05950Y03300D01*
X06450Y03300D02*
X06300Y03300D01*
X06300Y03300D02*
X06100Y03300D01*
X06100Y03300D02*
X05950Y03300D01*
X05950Y03300D02*
X05950Y03200D01*
X06100Y02050D02*
X06100Y03300D01*
X06300Y02050D02*
X06200Y02150D01*
X06300Y02050D02*
X06300Y03300D01*
X06350Y02000D02*
X06300Y02050D01*
X06200Y02150D02*
X06050Y02000D01*
X06050Y02000D02*
X05300Y02000D01*
X06450Y03400D02*
X05950Y03400D01*
X05300Y03400D02*
X05300Y03300D01*
X06300Y01750D02*
X06300Y01700D01*
X06100Y01750D02*
X06300Y01750D01*
X06100Y01700D02*
X05800Y01700D01*
X06100Y01750D02*
X06100Y01700D01*
X05800Y01700D02*
X05800Y01650D01*
X05600Y01650D02*
X05800Y01650D01*
X05600Y01700D02*
X05600Y01650D01*
X05600Y01700D02*
X05300Y01700D01*
X05300Y01700D02*
X05300Y02000D01*
X07100Y02000D02*
X06350Y02000D01*
G54D43*
X04670Y10870D02*
X04930Y10870D01*
X04930Y10870D02*
X04930Y11130D01*
X04670Y11130D02*
X04930Y11130D01*
X04670Y10870D02*
X04670Y11130D01*
X05670Y10870D02*
X05930Y10870D01*
X05930Y10870D02*
X05930Y11130D01*
X05670Y11130D02*
X05930Y11130D01*
X05670Y10870D02*
X05670Y11130D01*
X06670Y10870D02*
X06930Y10870D01*
X06930Y10870D02*
X06930Y11130D01*
X06670Y11130D02*
X06930Y11130D01*
X06670Y10870D02*
X06670Y11130D01*
X07670Y10870D02*
X07930Y10870D01*
X07930Y10870D02*
X07930Y11130D01*
X07670Y11130D02*
X07930Y11130D01*
X07670Y10870D02*
X07670Y11130D01*
G54D44*
X05150Y11700D02*
X05200Y11650D01*
X05200Y11650D02*
X05300Y11550D01*
X05300Y11550D02*
X05400Y11650D01*
X05400Y11650D02*
X05450Y11700D01*
X05200Y10150D02*
X05200Y10100D01*
X05200Y10100D02*
X04400Y10100D01*
X05400Y10150D02*
X05200Y10150D01*
X05400Y10150D02*
X05400Y10100D01*
X04400Y12000D02*
X04400Y11700D01*
X04400Y11700D02*
X04400Y10400D01*
X04400Y10300D02*
X04400Y10100D01*
X04400Y10300D02*
X04550Y10300D01*
X05050Y10300D02*
X05050Y10400D01*
X04550Y10300D02*
X04550Y10400D01*
X04550Y10500D02*
X05050Y10500D01*
X05050Y10400D02*
X05050Y10500D01*
X05550Y10300D02*
X05550Y10400D01*
X05550Y10400D02*
X05550Y10500D01*
X05050Y10400D02*
X05200Y10400D01*
X05200Y10400D02*
X05400Y10400D01*
X05400Y10400D02*
X05550Y10400D01*
X04550Y10400D02*
X04400Y10400D01*
X04550Y10400D02*
X04550Y10500D01*
X04400Y10400D02*
X04400Y10300D01*
X04400Y12000D02*
X04700Y12000D01*
X04700Y12000D02*
X04700Y12050D01*
X04900Y12000D02*
X04900Y12050D01*
X04900Y12050D02*
X04700Y12050D01*
X05700Y12000D02*
X05700Y12050D01*
X05900Y12000D02*
X05900Y12050D01*
X05400Y11950D02*
X05400Y12000D01*
X05200Y11950D02*
X05200Y12000D01*
X06400Y10150D02*
X06200Y10150D01*
X06400Y10150D02*
X06400Y10100D01*
X07200Y10100D02*
X06400Y10100D01*
X07050Y10300D02*
X07050Y10400D01*
X06550Y10500D02*
X07050Y10500D01*
X06050Y10300D02*
X06050Y10400D01*
X06050Y10400D02*
X06050Y10500D01*
X06550Y10300D02*
X06550Y10400D01*
X06550Y10400D02*
X06550Y10500D01*
X06050Y10400D02*
X06200Y10400D01*
X06200Y10400D02*
X06400Y10400D01*
X06400Y10400D02*
X06550Y10400D01*
X07050Y10400D02*
X07050Y10500D01*
X06700Y12000D02*
X06700Y12050D01*
X06900Y12000D02*
X07200Y12000D01*
X06900Y12000D02*
X06900Y12050D01*
X06900Y12050D02*
X06700Y12050D01*
X06400Y11950D02*
X06400Y12000D01*
X06400Y12000D02*
X06700Y12000D01*
X06400Y11950D02*
X06200Y11950D01*
X06200Y11950D02*
X06200Y12000D01*
X05900Y12000D02*
X06200Y12000D01*
X05900Y12050D02*
X05700Y12050D01*
X05400Y12000D02*
X05700Y12000D01*
X05200Y11950D02*
X05400Y11950D01*
X05200Y12000D02*
X04900Y12000D01*
X05150Y11700D02*
X04400Y11700D01*
X05450Y11700D02*
X06200Y11700D01*
X06200Y11700D02*
X06400Y11700D01*
X05400Y11650D02*
X05400Y10400D01*
X05200Y11650D02*
X05200Y10400D01*
X06200Y11700D02*
X06200Y10400D01*
X06400Y11700D02*
X06400Y10400D01*
X05550Y10500D02*
X06050Y10500D01*
X05550Y10300D02*
X05050Y10300D01*
X05400Y10100D02*
X06200Y10100D01*
X06050Y10300D02*
X06550Y10300D01*
X06200Y10150D02*
X06200Y10100D01*
X08200Y11700D02*
X08200Y10400D01*
X08200Y10300D02*
X08200Y10100D01*
X07400Y10150D02*
X07200Y10150D01*
X07200Y10150D02*
X07200Y10100D01*
X07400Y10150D02*
X07400Y10100D01*
X08200Y10100D02*
X07400Y10100D01*
X08200Y10300D02*
X08050Y10300D01*
X08050Y10300D02*
X08050Y10400D01*
X08050Y10400D02*
X08050Y10500D01*
X08050Y10400D02*
X08200Y10400D01*
X07550Y10500D02*
X08050Y10500D01*
X07550Y10300D02*
X07550Y10400D01*
X07050Y10400D02*
X07200Y10400D01*
X07200Y10400D02*
X07400Y10400D01*
X07400Y10400D02*
X07550Y10400D01*
X07550Y10400D02*
X07550Y10500D01*
X07400Y11650D02*
X07400Y10400D01*
X07200Y11650D02*
X07300Y11550D01*
X07200Y11650D02*
X07200Y10400D01*
X07150Y11700D02*
X07200Y11650D01*
X07300Y11550D02*
X07450Y11700D01*
X07450Y11700D02*
X08200Y11700D01*
X07050Y10300D02*
X07550Y10300D01*
X08200Y10300D02*
X08200Y10400D01*
X07200Y11950D02*
X07200Y12000D01*
X07400Y11950D02*
X07200Y11950D01*
X07400Y12000D02*
X07700Y12000D01*
X07400Y11950D02*
X07400Y12000D01*
X07700Y12000D02*
X07700Y12050D01*
X07900Y12050D02*
X07700Y12050D01*
X07900Y12000D02*
X07900Y12050D01*
X07900Y12000D02*
X08200Y12000D01*
X08200Y12000D02*
X08200Y11700D01*
X06400Y11700D02*
X07150Y11700D01*
G54D43*
X06050Y15300D02*
X06350Y15300D01*
X06350Y15300D02*
X06350Y17500D01*
X06050Y17500D02*
X06350Y17500D01*
X06050Y15300D02*
X06050Y17500D01*
X05350Y16150D02*
X05700Y16150D01*
X05700Y16150D02*
X05700Y16650D01*
X05350Y16650D02*
X05700Y16650D01*
X05350Y16150D02*
X05350Y16650D01*
X09700Y16150D02*
X10050Y16150D01*
X10050Y16150D02*
X10050Y16650D01*
X09700Y16650D02*
X10050Y16650D01*
X09700Y16150D02*
X09700Y16650D01*
G54D44*
X07200Y16400D02*
X07700Y16400D01*
X07700Y16630D02*
X07700Y16400D01*
X07700Y16400D02*
X08150Y16630D01*
X08150Y16630D02*
X08150Y16170D01*
X08150Y16170D02*
X07700Y16400D01*
X07700Y16400D02*
X08600Y16400D01*
X07700Y16400D02*
X07700Y16170D01*
X05700Y15300D02*
X05700Y17500D01*
X09700Y17500D02*
X09700Y15300D01*
X05700Y17500D02*
X09700Y17500D01*
X09700Y15300D02*
X05700Y15300D01*
G54D36*
X10700Y16400D02*
X10150Y16400D01*
X04700Y16400D02*
X05250Y16400D01*
G54D43*
X13100Y21050D02*
X13100Y21250D01*
X13100Y21250D02*
X12100Y21250D01*
X12100Y21050D02*
X12100Y21250D01*
X13100Y21050D02*
X12100Y21050D01*
X12750Y22500D02*
X12750Y23250D01*
X12750Y23250D02*
X12450Y23250D01*
X12450Y22500D02*
X12450Y23250D01*
X12750Y22500D02*
X12450Y22500D01*
X12750Y20150D02*
X12750Y20900D01*
X12750Y20900D02*
X12450Y20900D01*
X12450Y20150D02*
X12450Y20900D01*
X12750Y20150D02*
X12450Y20150D01*
G54D44*
X13100Y22500D02*
X13100Y20900D01*
X13100Y22500D02*
X12100Y22500D01*
X12100Y20900D02*
X12100Y22500D01*
X12100Y20900D02*
X13100Y20900D01*
G54D45*
X12600Y23700D02*
X12600Y23300D01*
X12600Y19700D02*
X12600Y20100D01*
G54D44*
X12600Y21450D02*
X12600Y21700D01*
X12350Y22100D02*
X12850Y22100D01*
X12850Y22100D02*
X12600Y21700D01*
X12600Y21700D02*
X12600Y22300D01*
X12600Y21700D02*
X12350Y22100D01*
X12350Y21700D02*
X12600Y21700D01*
X12600Y21700D02*
X12850Y21700D01*
G54D43*
X20760Y05730D02*
X20760Y05509D01*
X20760Y05509D02*
X21440Y05509D01*
X21440Y05730D02*
X21440Y05509D01*
X20760Y05730D02*
X21440Y05730D01*
X20760Y04491D02*
X20760Y04270D01*
X20760Y04270D02*
X21440Y04270D01*
X21440Y04491D02*
X21440Y04270D01*
X20760Y04491D02*
X21440Y04491D01*
X20790Y05340D02*
X20790Y05100D01*
X20790Y05100D02*
X21410Y05100D01*
X21410Y05340D02*
X21410Y05100D01*
X20790Y05340D02*
X21410Y05340D01*
G54D44*
X21410Y04480D02*
X21410Y05520D01*
X20790Y04480D02*
X20790Y05520D01*
G54D42*
X21296Y04804D02*
X21100Y05196D01*
X21100Y05196D02*
X20904Y04804D01*
X20904Y04804D02*
X21296Y04804D01*
X11244Y25960D02*
X09356Y25960D01*
X09356Y25960D02*
X09356Y21670D01*
X09356Y21670D02*
X11244Y21670D01*
X11244Y21670D02*
X11244Y25960D01*
G54D46*
X10733Y21611D02*
X09867Y21611D01*
X09867Y21611D02*
X09867Y21808D01*
X09867Y21808D02*
X10733Y21808D01*
X10733Y21808D02*
X10733Y21611D01*
X10693Y23579D02*
X09907Y23579D01*
X09907Y23579D02*
X09907Y23697D01*
X09907Y23697D02*
X10693Y23697D01*
X10693Y23697D02*
X10693Y23579D01*
X09316Y22418D02*
X09159Y22418D01*
X09159Y22418D02*
X09159Y22890D01*
X09159Y22890D02*
X09316Y22890D01*
X09316Y22890D02*
X09316Y22418D01*
G54D47*
X11087Y25921D02*
X11087Y25685D01*
X11087Y25488D02*
X11087Y25251D01*
X11087Y25055D02*
X11087Y24818D01*
X11087Y24622D02*
X11087Y24385D01*
X09513Y25921D02*
X09513Y25685D01*
X09513Y25488D02*
X09513Y25251D01*
X09513Y25055D02*
X09513Y24818D01*
X09513Y24622D02*
X09513Y24385D01*
X11087Y24188D02*
X11087Y23953D01*
X10851Y23756D02*
X11087Y23756D01*
X09513Y24188D02*
X09513Y23953D01*
X09513Y23756D02*
X09749Y23756D01*
X10378Y23756D02*
X10614Y23756D01*
X09907Y23756D02*
X10143Y23756D01*
X10496Y25881D02*
X10496Y25330D01*
X10104Y25881D02*
X10104Y25330D01*
X10496Y25173D02*
X10496Y24622D01*
X10104Y25173D02*
X10104Y24622D01*
X10496Y24464D02*
X10496Y23914D01*
X10104Y24464D02*
X10104Y23914D01*
G54D41*
X10633Y22654D02*
X10607Y22527D01*
X10607Y22527D02*
X10535Y22419D01*
X10535Y22419D02*
X10427Y22347D01*
X10427Y22347D02*
X10300Y22321D01*
X10300Y22321D02*
X10173Y22347D01*
X10173Y22347D02*
X10065Y22419D01*
X10065Y22419D02*
X09993Y22527D01*
X09993Y22527D02*
X09967Y22654D01*
X09967Y22654D02*
X09993Y22781D01*
X09993Y22781D02*
X10065Y22889D01*
X10065Y22889D02*
X10173Y22961D01*
X10173Y22961D02*
X10300Y22987D01*
X10300Y22987D02*
X10427Y22961D01*
X10427Y22961D02*
X10535Y22889D01*
X10535Y22889D02*
X10607Y22781D01*
X10607Y22781D02*
X10633Y22654D01*
X10772Y22654D02*
X09828Y22654D01*
X10300Y23126D02*
X10300Y22182D01*
G54D42*
X06600Y14900D02*
X07000Y14900D01*
X07000Y14900D02*
X07900Y14500D01*
X07900Y14500D02*
X07900Y13300D01*
X07900Y13300D02*
X07000Y12900D01*
X07000Y12900D02*
X06200Y12900D01*
X06200Y12900D02*
X05300Y13300D01*
X05300Y13300D02*
X05300Y14500D01*
X05300Y14500D02*
X06200Y14900D01*
X06200Y14900D02*
X06600Y14900D01*
X07600Y13900D02*
X07578Y13693D01*
X07578Y13693D02*
X07513Y13494D01*
X07513Y13494D02*
X07409Y13313D01*
X07409Y13313D02*
X07269Y13157D01*
X07269Y13157D02*
X07100Y13034D01*
X07100Y13034D02*
X06909Y12949D01*
X06909Y12949D02*
X06704Y12906D01*
X06704Y12906D02*
X06496Y12906D01*
X06496Y12906D02*
X06291Y12949D01*
X06291Y12949D02*
X06100Y13034D01*
X06100Y13034D02*
X05931Y13157D01*
X05931Y13157D02*
X05791Y13313D01*
X05791Y13313D02*
X05687Y13494D01*
X05687Y13494D02*
X05622Y13693D01*
X05622Y13693D02*
X05600Y13900D01*
X05600Y13900D02*
X05622Y14107D01*
X05622Y14107D02*
X05687Y14306D01*
X05687Y14306D02*
X05791Y14487D01*
X05791Y14487D02*
X05931Y14643D01*
X05931Y14643D02*
X06100Y14766D01*
X06100Y14766D02*
X06291Y14851D01*
X06291Y14851D02*
X06496Y14894D01*
X06496Y14894D02*
X06704Y14894D01*
X06704Y14894D02*
X06909Y14851D01*
X06909Y14851D02*
X07100Y14766D01*
X07100Y14766D02*
X07269Y14643D01*
X07269Y14643D02*
X07409Y14487D01*
X07409Y14487D02*
X07513Y14306D01*
X07513Y14306D02*
X07578Y14107D01*
X07578Y14107D02*
X07600Y13900D01*
G54D41*
X22850Y02200D02*
X22850Y02150D01*
X22850Y02150D02*
X24950Y02150D01*
X24950Y03650D02*
X22850Y03650D01*
X22850Y03650D02*
X22850Y02200D01*
X22850Y03100D02*
X23050Y03100D01*
X23050Y03100D02*
X23050Y02700D01*
X23050Y02700D02*
X22850Y02700D01*
X24950Y03650D02*
X24950Y02150D01*
M02*
