G04 (Genere par PCBNEW (2007-07-09)) le 2/12/2007-22:25:35*
G01*
G70*
G90*
%MOIN*%
G04 Gerber Fmt 3.4, Leading zero omitted, Abs format*
%FSLAX34Y34*%
G04 APERTURE LIST*
%ADD10C,0.015000*%
%ADD11O,0.070000X0.055000*%
%ADD12O,0.070000X0.050000*%
%ADD13R,0.062000X0.090000*%
%ADD14O,0.062000X0.090000*%
%ADD15R,0.070000X0.070000*%
%ADD16C,0.070000*%
%ADD17C,0.050000*%
%ADD18C,0.060000*%
%ADD19O,0.056000X0.112000*%
%ADD20O,0.088500X0.177000*%
%ADD21C,0.066000*%
%ADD22O,0.059000X0.118100*%
%ADD23C,0.045000*%
%ADD24C,0.018000*%
%ADD25C,0.036000*%
%ADD26C,0.024000*%
G04 APERTURE END LIST*
G54D10*
X01250Y00000D02*
X01154Y-00478D01*
X01154Y-00478D02*
X00883Y-00883D01*
X00883Y-00883D02*
X00478Y-01154D01*
X00478Y-01154D02*
X00000Y-01250D01*
X00000Y-01250D02*
X-00478Y-01154D01*
X-00478Y-01154D02*
X-00883Y-00883D01*
X-00883Y-00883D02*
X-01154Y-00478D01*
X-01154Y-00478D02*
X-01250Y00000D01*
X-01250Y00000D02*
X-01154Y00478D01*
X-01154Y00478D02*
X-00883Y00883D01*
X-00883Y00883D02*
X-00478Y01154D01*
X-00478Y01154D02*
X00000Y01250D01*
X00000Y01250D02*
X00478Y01154D01*
X00478Y01154D02*
X00883Y00883D01*
X00883Y00883D02*
X01154Y00478D01*
X01154Y00478D02*
X01250Y00000D01*
X-02500Y00000D02*
X02500Y00000D01*
X00000Y02500D02*
X00000Y-02500D01*
X00000Y00000D02*
X00000Y26000D01*
X29000Y00000D02*
X00000Y00000D01*
X29000Y26000D02*
X29000Y00000D01*
X00000Y26000D02*
X29000Y26000D01*
G54D11*
X01000Y22500D03*
X02000Y22500D03*
X01000Y21500D03*
X02000Y21500D03*
X01000Y20500D03*
X02000Y20500D03*
X01000Y19500D03*
G54D12*
X02000Y19500D03*
G54D11*
X01000Y18500D03*
X02000Y18500D03*
X01000Y17500D03*
X02000Y17500D03*
X01000Y16500D03*
X02000Y16500D03*
X01000Y15500D03*
X02000Y15500D03*
X01000Y14500D03*
X02000Y14500D03*
X01000Y13500D03*
X02000Y13500D03*
X01000Y12500D03*
X02000Y12500D03*
X01000Y11500D03*
X02000Y11500D03*
X01000Y10500D03*
X02000Y10500D03*
X01000Y09500D03*
X02000Y09500D03*
X01000Y08500D03*
X02000Y08500D03*
X01000Y07500D03*
X02000Y07500D03*
X01000Y06500D03*
X02000Y06500D03*
X01000Y05500D03*
X02000Y05500D03*
X01000Y04500D03*
X02000Y04500D03*
X01000Y03500D03*
X02000Y03500D03*
X28000Y22500D03*
X27000Y22500D03*
X27000Y21500D03*
X28000Y21500D03*
X27000Y20500D03*
X28000Y20500D03*
X27000Y19500D03*
X28000Y19500D03*
X27000Y18500D03*
X28000Y18500D03*
X27000Y17500D03*
X28000Y17500D03*
X27000Y16500D03*
X28000Y16500D03*
X27000Y15500D03*
X28000Y15500D03*
X27000Y14500D03*
X28000Y14500D03*
X27000Y13500D03*
X28000Y13500D03*
X27000Y12500D03*
X28000Y12500D03*
X27000Y11500D03*
X28000Y11500D03*
X27000Y10500D03*
X28000Y10500D03*
X27000Y09500D03*
X28000Y09500D03*
X27000Y08500D03*
X28000Y08500D03*
X27000Y07500D03*
X28000Y07500D03*
X27000Y06500D03*
X28000Y06500D03*
X27000Y05500D03*
X28000Y05500D03*
X27000Y04500D03*
X28000Y04500D03*
X27000Y03500D03*
X28000Y03500D03*
G54D13*
X22800Y03600D03*
G54D14*
X23800Y03600D03*
X24800Y03600D03*
X25800Y03600D03*
X25800Y06600D03*
X24800Y06600D03*
X23800Y06600D03*
X22800Y06600D03*
G54D15*
X11750Y14300D03*
G54D16*
X09750Y14300D03*
G54D17*
X07500Y18400D03*
X07500Y19400D03*
G54D18*
X13000Y04100D03*
X18000Y04100D03*
G54D19*
X08700Y02700D03*
X07700Y02700D03*
X06700Y02700D03*
X05700Y02700D03*
X04800Y11000D03*
X05800Y11000D03*
X06800Y11000D03*
X07800Y11000D03*
G54D20*
X10700Y16400D03*
X04700Y16400D03*
G54D21*
X12600Y23700D03*
X12600Y19700D03*
G54D22*
X10300Y21709D03*
X10300Y23638D03*
X09238Y22654D03*
G54D19*
X23700Y01400D03*
X24700Y01400D03*
G54D23*
X26100Y09700D03*
X17600Y10300D03*
X18600Y10300D03*
X06800Y13500D03*
X21500Y10600D03*
X19600Y10600D03*
X18200Y11700D03*
X05700Y05900D03*
X06700Y08200D03*
X21500Y09100D03*
X04800Y08100D03*
X06000Y08400D03*
X06200Y09600D03*
X19000Y09400D03*
X20900Y05500D03*
X21900Y11700D03*
X23500Y10600D03*
X03700Y05600D03*
X02800Y06500D03*
X02800Y11800D03*
X07500Y08200D03*
X25000Y08100D03*
X20900Y04100D03*
X06500Y05700D03*
G54D24*
X26100Y09700D02*
X25900Y09900D01*
X25900Y09900D02*
X18300Y09900D01*
X18300Y09900D02*
X17900Y10300D01*
X17900Y10300D02*
X17600Y10300D01*
X27000Y10500D02*
X26700Y10200D01*
X26700Y10200D02*
X19300Y10200D01*
X19300Y10200D02*
X19200Y10300D01*
X19200Y10300D02*
X18600Y10300D01*
G54D25*
X07600Y14300D02*
X09750Y14300D01*
X06800Y13500D02*
X07600Y14300D01*
G54D24*
X21500Y10600D02*
X19600Y10600D01*
X06800Y11000D02*
X06800Y10700D01*
X06800Y10700D02*
X07300Y10200D01*
X07300Y10200D02*
X08300Y10200D01*
X08300Y10200D02*
X09800Y11700D01*
X09800Y11700D02*
X18200Y11700D01*
X05700Y07200D02*
X06700Y08200D01*
G54D25*
X06700Y08200D02*
X10400Y04500D01*
X13000Y04100D02*
X10800Y04100D01*
X10800Y04100D02*
X10400Y04500D01*
X05700Y05900D02*
X05700Y02700D01*
X05700Y05900D02*
X05700Y07200D01*
X05700Y07200D02*
X06700Y08200D01*
X05800Y11000D02*
X06800Y11000D01*
X27000Y03500D02*
X26900Y03600D01*
X26900Y03600D02*
X25800Y03600D01*
G54D26*
X25800Y03600D02*
X25800Y04100D01*
X24700Y05200D02*
X23000Y05200D01*
X25800Y04100D02*
X24700Y05200D01*
X23000Y05200D02*
X22700Y05200D01*
X21500Y06400D02*
X22700Y05200D01*
X21500Y06400D02*
X21500Y09100D01*
G54D24*
X06400Y09400D02*
X19000Y09400D01*
G54D26*
X04800Y08100D02*
X05700Y08100D01*
X05700Y08100D02*
X06000Y08400D01*
X06200Y09600D02*
X06400Y09400D01*
X06400Y09400D02*
X19000Y09400D01*
X22800Y03600D02*
X20900Y05500D01*
G54D24*
X27000Y11500D02*
X26800Y11700D01*
X26800Y11700D02*
X21900Y11700D01*
X28000Y11500D02*
X28000Y11400D01*
X28000Y11400D02*
X27600Y11000D01*
X27600Y11000D02*
X26400Y11000D01*
X26400Y11000D02*
X26000Y10600D01*
X26000Y10600D02*
X23500Y10600D01*
G54D26*
X03700Y05600D02*
X02800Y06500D01*
X02800Y11800D02*
X02600Y12000D01*
X02600Y12000D02*
X01400Y12000D01*
X01400Y12000D02*
X01400Y12100D01*
X01400Y12100D02*
X01000Y12500D01*
X07500Y08200D02*
X06700Y09000D01*
X06700Y09000D02*
X01400Y09000D01*
X01400Y09000D02*
X01400Y08900D01*
X01400Y08900D02*
X01000Y08500D01*
G54D25*
X23800Y06600D02*
X23800Y06900D01*
X23800Y06900D02*
X24400Y07500D01*
X24400Y07500D02*
X27000Y07500D01*
G54D26*
X25000Y08100D02*
X25100Y08000D01*
X25100Y08000D02*
X27600Y08000D01*
X27600Y08000D02*
X27600Y07900D01*
X27600Y07900D02*
X28000Y07500D01*
G54D25*
X07800Y11000D02*
X07800Y11500D01*
X07800Y11500D02*
X07400Y11900D01*
X07400Y11900D02*
X05200Y11900D01*
X05200Y11900D02*
X05200Y11400D01*
X05200Y11400D02*
X04800Y11000D01*
G54D26*
X20900Y04100D02*
X18000Y04100D01*
G54D24*
X06700Y02700D02*
X06700Y05500D01*
G54D25*
X06500Y05700D02*
X06700Y05500D01*
X06700Y05500D02*
X06700Y02700D01*
M02*
