G04 (Genere par PCBNEW (2007-07-09)) le 20/1/2008-12:32:41*
G01*
G70*
G90*
%MOIN*%
G04 Gerber Fmt 3.4, Leading zero omitted, Abs format*
%FSLAX34Y34*%
G04 APERTURE LIST*
%ADD10C,0.015000*%
%ADD11O,0.080000X0.055000*%
%ADD12R,0.196900X0.196900*%
%ADD13O,0.070000X0.400000*%
%ADD14R,0.062000X0.090000*%
%ADD15O,0.062000X0.090000*%
%ADD16R,0.070000X0.070000*%
%ADD17C,0.070000*%
%ADD18O,0.056000X0.112000*%
%ADD19O,0.088500X0.177000*%
%ADD20O,0.059000X0.118100*%
%ADD21O,0.177000X0.088500*%
%ADD22R,0.065000X0.065000*%
%ADD23C,0.065000*%
%ADD24C,0.045000*%
%ADD25C,0.050000*%
%ADD26C,0.036000*%
%ADD27C,0.042000*%
%ADD28C,0.032000*%
%ADD29C,0.024000*%
%ADD30C,0.082000*%
%ADD31C,0.080000*%
%ADD32C,0.018000*%
%ADD33C,0.005000*%
%ADD34R,0.039400X0.100000*%
%ADD35R,0.027600X0.100000*%
%ADD36R,0.019700X0.100000*%
%ADD37R,0.100000X0.196900*%
%ADD38R,0.042000X0.090000*%
%ADD39R,0.420000X0.350000*%
%ADD40R,0.055000X0.035000*%
%ADD41R,0.035000X0.055000*%
%ADD42R,0.020000X0.045000*%
%ADD43R,0.070800X0.055100*%
%ADD44R,0.070000X0.085000*%
%ADD45R,0.036000X0.036000*%
%ADD46C,0.017000*%
%ADD47C,0.150000*%
%ADD48C,0.060000*%
%ADD49C,0.012000*%
%ADD50C,0.001000*%
%ADD51C,0.008000*%
%ADD52C,0.002600*%
%ADD53C,0.006000*%
%ADD54C,0.000100*%
%ADD55C,0.004000*%
%ADD56C,0.003500*%
G04 APERTURE END LIST*
G54D10*
X12050Y44100D02*
X11954Y43622D01*
X11954Y43622D02*
X11683Y43217D01*
X11683Y43217D02*
X11278Y42946D01*
X11278Y42946D02*
X10800Y42850D01*
X10800Y42850D02*
X10322Y42946D01*
X10322Y42946D02*
X09917Y43217D01*
X09917Y43217D02*
X09646Y43622D01*
X09646Y43622D02*
X09550Y44100D01*
X09550Y44100D02*
X09646Y44578D01*
X09646Y44578D02*
X09917Y44983D01*
X09917Y44983D02*
X10322Y45254D01*
X10322Y45254D02*
X10800Y45350D01*
X10800Y45350D02*
X11278Y45254D01*
X11278Y45254D02*
X11683Y44983D01*
X11683Y44983D02*
X11954Y44578D01*
X11954Y44578D02*
X12050Y44100D01*
X08300Y44100D02*
X13300Y44100D01*
X10800Y46600D02*
X10800Y41600D01*
X14050Y-19900D02*
X13954Y-20378D01*
X13954Y-20378D02*
X13683Y-20783D01*
X13683Y-20783D02*
X13278Y-21054D01*
X13278Y-21054D02*
X12800Y-21150D01*
X12800Y-21150D02*
X12322Y-21054D01*
X12322Y-21054D02*
X11917Y-20783D01*
X11917Y-20783D02*
X11646Y-20378D01*
X11646Y-20378D02*
X11550Y-19900D01*
X11550Y-19900D02*
X11646Y-19422D01*
X11646Y-19422D02*
X11917Y-19017D01*
X11917Y-19017D02*
X12322Y-18746D01*
X12322Y-18746D02*
X12800Y-18650D01*
X12800Y-18650D02*
X13278Y-18746D01*
X13278Y-18746D02*
X13683Y-19017D01*
X13683Y-19017D02*
X13954Y-19422D01*
X13954Y-19422D02*
X14050Y-19900D01*
X10300Y-19900D02*
X15300Y-19900D01*
X12800Y-17400D02*
X12800Y-22400D01*
X71050Y00100D02*
X70954Y-00378D01*
X70954Y-00378D02*
X70683Y-00783D01*
X70683Y-00783D02*
X70278Y-01054D01*
X70278Y-01054D02*
X69800Y-01150D01*
X69800Y-01150D02*
X69322Y-01054D01*
X69322Y-01054D02*
X68917Y-00783D01*
X68917Y-00783D02*
X68646Y-00378D01*
X68646Y-00378D02*
X68550Y00100D01*
X68550Y00100D02*
X68646Y00578D01*
X68646Y00578D02*
X68917Y00983D01*
X68917Y00983D02*
X69322Y01254D01*
X69322Y01254D02*
X69800Y01350D01*
X69800Y01350D02*
X70278Y01254D01*
X70278Y01254D02*
X70683Y00983D01*
X70683Y00983D02*
X70954Y00578D01*
X70954Y00578D02*
X71050Y00100D01*
X67300Y00100D02*
X72300Y00100D01*
X69800Y02600D02*
X69800Y-02400D01*
X71050Y26100D02*
X70954Y25622D01*
X70954Y25622D02*
X70683Y25217D01*
X70683Y25217D02*
X70278Y24946D01*
X70278Y24946D02*
X69800Y24850D01*
X69800Y24850D02*
X69322Y24946D01*
X69322Y24946D02*
X68917Y25217D01*
X68917Y25217D02*
X68646Y25622D01*
X68646Y25622D02*
X68550Y26100D01*
X68550Y26100D02*
X68646Y26578D01*
X68646Y26578D02*
X68917Y26983D01*
X68917Y26983D02*
X69322Y27254D01*
X69322Y27254D02*
X69800Y27350D01*
X69800Y27350D02*
X70278Y27254D01*
X70278Y27254D02*
X70683Y26983D01*
X70683Y26983D02*
X70954Y26578D01*
X70954Y26578D02*
X71050Y26100D01*
X67300Y26100D02*
X72300Y26100D01*
X69800Y28600D02*
X69800Y23600D01*
X-19950Y26100D02*
X-20046Y25622D01*
X-20046Y25622D02*
X-20317Y25217D01*
X-20317Y25217D02*
X-20722Y24946D01*
X-20722Y24946D02*
X-21200Y24850D01*
X-21200Y24850D02*
X-21678Y24946D01*
X-21678Y24946D02*
X-22083Y25217D01*
X-22083Y25217D02*
X-22354Y25622D01*
X-22354Y25622D02*
X-22450Y26100D01*
X-22450Y26100D02*
X-22354Y26578D01*
X-22354Y26578D02*
X-22083Y26983D01*
X-22083Y26983D02*
X-21678Y27254D01*
X-21678Y27254D02*
X-21200Y27350D01*
X-21200Y27350D02*
X-20722Y27254D01*
X-20722Y27254D02*
X-20317Y26983D01*
X-20317Y26983D02*
X-20046Y26578D01*
X-20046Y26578D02*
X-19950Y26100D01*
X-23700Y26100D02*
X-18700Y26100D01*
X-21200Y28600D02*
X-21200Y23600D01*
X-19950Y00100D02*
X-20046Y-00378D01*
X-20046Y-00378D02*
X-20317Y-00783D01*
X-20317Y-00783D02*
X-20722Y-01054D01*
X-20722Y-01054D02*
X-21200Y-01150D01*
X-21200Y-01150D02*
X-21678Y-01054D01*
X-21678Y-01054D02*
X-22083Y-00783D01*
X-22083Y-00783D02*
X-22354Y-00378D01*
X-22354Y-00378D02*
X-22450Y00100D01*
X-22450Y00100D02*
X-22354Y00578D01*
X-22354Y00578D02*
X-22083Y00983D01*
X-22083Y00983D02*
X-21678Y01254D01*
X-21678Y01254D02*
X-21200Y01350D01*
X-21200Y01350D02*
X-20722Y01254D01*
X-20722Y01254D02*
X-20317Y00983D01*
X-20317Y00983D02*
X-20046Y00578D01*
X-20046Y00578D02*
X-19950Y00100D01*
X-23700Y00100D02*
X-18700Y00100D01*
X-21200Y02600D02*
X-21200Y-02400D01*
X29000Y00000D02*
X29000Y26000D01*
X01250Y00000D02*
X01154Y-00478D01*
X01154Y-00478D02*
X00883Y-00883D01*
X00883Y-00883D02*
X00478Y-01154D01*
X00478Y-01154D02*
X00000Y-01250D01*
X00000Y-01250D02*
X-00478Y-01154D01*
X-00478Y-01154D02*
X-00883Y-00883D01*
X-00883Y-00883D02*
X-01154Y-00478D01*
X-01154Y-00478D02*
X-01250Y00000D01*
X-01250Y00000D02*
X-01154Y00478D01*
X-01154Y00478D02*
X-00883Y00883D01*
X-00883Y00883D02*
X-00478Y01154D01*
X-00478Y01154D02*
X00000Y01250D01*
X00000Y01250D02*
X00478Y01154D01*
X00478Y01154D02*
X00883Y00883D01*
X00883Y00883D02*
X01154Y00478D01*
X01154Y00478D02*
X01250Y00000D01*
X-02500Y00000D02*
X02500Y00000D01*
X00000Y02500D02*
X00000Y-02500D01*
X00000Y00000D02*
X00000Y26000D01*
X29000Y00000D02*
X00000Y00000D01*
X00000Y26000D02*
X29000Y26000D01*
G54D11*
X01000Y22500D03*
X02000Y22500D03*
X01000Y21500D03*
X02000Y21500D03*
X01000Y20500D03*
X02000Y20500D03*
X01000Y19500D03*
X02000Y19500D03*
X01000Y18500D03*
X02000Y18500D03*
X01000Y17500D03*
X02000Y17500D03*
X01000Y16500D03*
X02000Y16500D03*
X01000Y15500D03*
X02000Y15500D03*
X01000Y14500D03*
X02000Y14500D03*
X01000Y13500D03*
X02000Y13500D03*
X01000Y12500D03*
X02000Y12500D03*
X01000Y11500D03*
X02000Y11500D03*
X01000Y10500D03*
X02000Y10500D03*
X01000Y09500D03*
X02000Y09500D03*
X01000Y08500D03*
X02000Y08500D03*
X01000Y07500D03*
X02000Y07500D03*
X01000Y06500D03*
X02000Y06500D03*
X01000Y05500D03*
X02000Y05500D03*
X01000Y04500D03*
X02000Y04500D03*
X01000Y03500D03*
X02000Y03500D03*
X28000Y22500D03*
X27000Y22500D03*
X27000Y21500D03*
X28000Y21500D03*
X27000Y20500D03*
X28000Y20500D03*
X27000Y19500D03*
X28000Y19500D03*
X27000Y18500D03*
X28000Y18500D03*
X27000Y17500D03*
X28000Y17500D03*
X27000Y16500D03*
X28000Y16500D03*
X27000Y15500D03*
X28000Y15500D03*
X27000Y14500D03*
X28000Y14500D03*
X27000Y13500D03*
X28000Y13500D03*
X27000Y12500D03*
X28000Y12500D03*
X27000Y11500D03*
X28000Y11500D03*
X27000Y10500D03*
X28000Y10500D03*
X27000Y09500D03*
X28000Y09500D03*
X27000Y08500D03*
X28000Y08500D03*
X27000Y07500D03*
X28000Y07500D03*
X27000Y06500D03*
X28000Y06500D03*
X27000Y05500D03*
X28000Y05500D03*
X27000Y04500D03*
X28000Y04500D03*
X27000Y03500D03*
X28000Y03500D03*
G54D12*
X27500Y24500D03*
X27500Y01500D03*
X01500Y01500D03*
X01500Y24500D03*
G54D13*
X20150Y04200D03*
X14150Y04200D03*
G54D14*
X22800Y03600D03*
G54D15*
X23800Y03600D03*
X24800Y03600D03*
X25800Y03600D03*
X25800Y06600D03*
X24800Y06600D03*
X23800Y06600D03*
X22800Y06600D03*
G54D16*
X12550Y13200D03*
G54D17*
X10550Y13200D03*
G54D18*
X08700Y02700D03*
X07700Y02700D03*
X06700Y02700D03*
X05700Y02700D03*
X04800Y09100D03*
X05800Y09100D03*
X06800Y09100D03*
X07800Y09100D03*
G54D19*
X10400Y16800D03*
X04400Y16800D03*
G54D20*
X13400Y22909D03*
X13400Y24838D03*
X12338Y23854D03*
G54D18*
X23700Y01400D03*
X24700Y01400D03*
G54D21*
X13200Y21350D03*
X13200Y15350D03*
G54D22*
X06750Y18400D03*
G54D23*
X06750Y19400D03*
G54D24*
X19600Y08350D03*
X22400Y08300D03*
X04400Y05400D03*
X03800Y03700D03*
X04650Y06650D03*
X08350Y07500D03*
X20150Y07150D03*
X21400Y10050D03*
X23450Y10150D03*
X18500Y09850D03*
X17550Y09850D03*
X24350Y07400D03*
X25150Y08000D03*
X03250Y20300D03*
X06350Y07250D03*
G54D25*
X01000Y22500D02*
X02000Y22500D01*
G54D26*
X27000Y03500D02*
X26900Y03600D01*
X26900Y03600D02*
X25800Y03600D01*
G54D27*
X25800Y03600D02*
X25800Y03300D01*
X25800Y03300D02*
X25100Y02600D01*
X25100Y02600D02*
X22800Y02600D01*
X22800Y02600D02*
X21700Y01500D01*
X21700Y01500D02*
X14700Y01500D01*
X14700Y01500D02*
X14150Y02050D01*
X14150Y02050D02*
X14150Y04200D01*
G54D26*
X25800Y03600D02*
X25800Y03850D01*
X20750Y08150D02*
X20750Y08150D01*
X21900Y07000D02*
X21900Y07000D01*
X21900Y07000D02*
X20750Y08150D01*
X21900Y05200D02*
X21900Y07000D01*
X22400Y04700D02*
X21900Y05200D01*
X24950Y04700D02*
X22400Y04700D01*
X25800Y03850D02*
X24950Y04700D01*
G54D28*
X20750Y08150D02*
X19800Y08150D01*
X19800Y08150D02*
X19600Y08350D01*
X21900Y07050D02*
X21900Y07000D01*
X21900Y07800D02*
X21900Y07050D01*
X22400Y08300D02*
X21900Y07800D01*
X04400Y05400D02*
X05700Y04100D01*
X05700Y04100D02*
X05700Y02700D01*
X04400Y05400D02*
X03600Y06200D01*
X05800Y09050D02*
X05800Y09100D01*
X05800Y08250D02*
X05800Y09050D01*
X05400Y07850D02*
X05800Y08250D01*
X04450Y07850D02*
X05400Y07850D01*
X03600Y07000D02*
X04450Y07850D01*
X03600Y06200D02*
X03600Y07000D01*
G54D29*
X01000Y12400D02*
X01000Y12500D01*
X01400Y12000D02*
X01000Y12400D01*
X02500Y12000D02*
X01400Y12000D01*
X02900Y11600D02*
X02500Y12000D01*
X02900Y04600D02*
X02900Y11600D01*
X03800Y03700D02*
X02900Y04600D01*
G54D28*
X07950Y07900D02*
X08350Y07500D01*
X06300Y07900D02*
X07950Y07900D01*
X05450Y07050D02*
X06300Y07900D01*
X05050Y07050D02*
X05450Y07050D01*
X05050Y07050D02*
X04650Y06650D01*
G54D30*
X02650Y03500D02*
X01000Y03500D01*
X20150Y07200D02*
X18200Y07200D01*
X18200Y07200D02*
X13150Y07200D01*
X13150Y07200D02*
X10200Y04250D01*
X10200Y04250D02*
X10200Y01950D01*
X10200Y01950D02*
X09500Y01250D01*
X09500Y01250D02*
X04900Y01250D01*
X04900Y01250D02*
X02650Y03500D01*
X20150Y07200D02*
X20150Y07200D01*
G54D27*
X22800Y03600D02*
X22000Y03600D01*
X22000Y03600D02*
X21250Y04350D01*
X21250Y04350D02*
X21250Y06100D01*
X21250Y06100D02*
X20150Y07200D01*
G54D30*
X20150Y07150D02*
X20150Y07200D01*
G54D28*
X27000Y11500D02*
X22000Y11500D01*
X22000Y11500D02*
X21400Y10900D01*
X21400Y10900D02*
X21400Y10050D01*
X28000Y11500D02*
X27500Y11000D01*
X23450Y10550D02*
X23450Y10150D01*
X23900Y11000D02*
X23450Y10550D01*
X25850Y11000D02*
X23900Y11000D01*
X27500Y11000D02*
X25850Y11000D01*
X27000Y10500D02*
X24900Y10500D01*
X18850Y09500D02*
X18500Y09850D01*
X23900Y09500D02*
X18850Y09500D01*
X24900Y10500D02*
X23900Y09500D01*
X28000Y10500D02*
X27950Y10500D01*
X27950Y10500D02*
X27450Y10000D01*
X27450Y10000D02*
X26000Y10000D01*
X26000Y10000D02*
X24950Y08950D01*
X24950Y08950D02*
X18200Y08950D01*
X18200Y08950D02*
X17550Y09600D01*
X17550Y09600D02*
X17550Y09850D01*
X24350Y07400D02*
X24450Y07500D01*
X24450Y07500D02*
X27000Y07500D01*
X28000Y07500D02*
X28000Y07650D01*
X27650Y08000D02*
X25150Y08000D01*
X28000Y07650D02*
X27650Y08000D01*
G54D30*
X07800Y09100D02*
X07800Y10250D01*
X04800Y10100D02*
X04800Y09100D01*
X05250Y10550D02*
X04800Y10100D01*
X07500Y10550D02*
X05250Y10550D01*
X07800Y10250D02*
X07500Y10550D01*
X03250Y20350D02*
X03250Y20250D01*
X03600Y20700D02*
X03650Y20750D01*
X03650Y20750D02*
X03250Y20350D01*
G54D26*
X03600Y20600D02*
X03600Y20700D01*
X03500Y20600D02*
X03600Y20600D01*
X03200Y20300D02*
X03500Y20600D01*
X03250Y20300D02*
X03200Y20300D01*
G54D31*
X03650Y20750D02*
X10350Y20750D01*
X13200Y17900D02*
X13200Y15350D01*
X10350Y20750D02*
X13200Y17900D01*
G54D32*
X06700Y02700D02*
X06700Y05500D01*
G54D26*
X06700Y05500D02*
X06700Y04500D01*
X06700Y04500D02*
X06700Y02700D01*
G54D28*
X06700Y05500D02*
X06700Y06900D01*
X06700Y06900D02*
X06350Y07250D01*
G54D33*
X12550Y22700D02*
X12550Y22350D01*
X12550Y25350D02*
X12550Y25000D01*
X12500Y22700D02*
X12500Y22350D01*
X12500Y25350D02*
X12500Y25000D01*
X12450Y22700D02*
X12450Y22350D01*
X12450Y25350D02*
X12450Y25000D01*
X12400Y22700D02*
X12400Y22350D01*
X12400Y25350D02*
X12400Y25000D01*
X12350Y22700D02*
X12350Y22350D01*
X12350Y25350D02*
X12350Y25000D01*
X12300Y22700D02*
X12300Y22350D01*
X12300Y25350D02*
X12300Y25000D01*
X12250Y22700D02*
X12250Y22350D01*
X12250Y25350D02*
X12250Y25000D01*
X12200Y22700D02*
X12200Y22350D01*
X12200Y25350D02*
X12200Y25000D01*
X12150Y22700D02*
X12150Y22350D01*
X12150Y25350D02*
X12150Y25000D01*
X12100Y22700D02*
X12100Y22350D01*
X12100Y25350D02*
X12100Y25000D01*
X12050Y22700D02*
X12050Y22350D01*
X12050Y25350D02*
X12050Y25000D01*
X12000Y22700D02*
X12000Y22350D01*
X12000Y25350D02*
X12000Y25000D01*
X11950Y22700D02*
X11950Y22350D01*
X11950Y25350D02*
X11950Y25000D01*
X11900Y22700D02*
X11900Y22350D01*
X11900Y25350D02*
X11900Y25000D01*
X11850Y22700D02*
X11850Y22350D01*
X11850Y25350D02*
X11850Y25000D01*
X11800Y22700D02*
X11800Y22350D01*
X11800Y25350D02*
X11800Y25000D01*
X11750Y22700D02*
X11750Y20800D01*
X11750Y25350D02*
X11750Y25000D01*
X11700Y22700D02*
X11700Y20750D01*
X11700Y25350D02*
X11700Y25000D01*
X11650Y22700D02*
X11650Y20800D01*
X11650Y25350D02*
X11650Y25000D01*
X11600Y22700D02*
X11600Y20850D01*
X11600Y25350D02*
X11600Y25000D01*
X11550Y22700D02*
X11550Y20900D01*
X11550Y25350D02*
X11550Y25000D01*
X11500Y25350D02*
X11500Y20950D01*
X11450Y25350D02*
X11450Y21000D01*
X11400Y25350D02*
X11400Y21050D01*
X11350Y25350D02*
X11350Y21100D01*
X11300Y25350D02*
X11300Y21150D01*
X11250Y25350D02*
X11250Y21200D01*
X11200Y25350D02*
X11200Y21250D01*
X11150Y25350D02*
X11150Y21300D01*
X11100Y25350D02*
X11100Y21350D01*
X11050Y25350D02*
X11050Y21400D01*
X11000Y25350D02*
X11000Y21450D01*
X10950Y25350D02*
X10950Y21500D01*
X10900Y25350D02*
X10900Y21500D01*
X10850Y25350D02*
X10850Y21550D01*
X10800Y25350D02*
X10800Y21600D01*
X10750Y25350D02*
X10750Y21600D01*
X10700Y25350D02*
X10700Y21650D01*
X10650Y25350D02*
X10650Y21650D01*
X10600Y25350D02*
X10600Y21650D01*
X10550Y25350D02*
X10550Y21700D01*
X10500Y25350D02*
X10500Y21700D01*
X10450Y25350D02*
X10450Y21700D01*
X10400Y25350D02*
X10400Y21700D01*
X10350Y25350D02*
X10350Y21700D01*
X10300Y25350D02*
X10300Y21700D01*
X10250Y25350D02*
X10250Y21700D01*
X10200Y25350D02*
X10200Y21700D01*
X10150Y25350D02*
X10150Y21700D01*
X10100Y25350D02*
X10100Y21700D01*
X10050Y25350D02*
X10050Y21700D01*
X10000Y25350D02*
X10000Y21700D01*
X09950Y25350D02*
X09950Y21700D01*
X09900Y25350D02*
X09900Y21700D01*
X09850Y25350D02*
X09850Y21700D01*
X09800Y25350D02*
X09800Y21700D01*
X09750Y25350D02*
X09750Y21700D01*
X09700Y25350D02*
X09700Y21700D01*
X09650Y25350D02*
X09650Y21700D01*
X09600Y25350D02*
X09600Y21700D01*
X09550Y25350D02*
X09550Y21700D01*
X09500Y25350D02*
X09500Y21700D01*
X09450Y25350D02*
X09450Y21700D01*
X09400Y25350D02*
X09400Y21700D01*
X09350Y25350D02*
X09350Y21700D01*
X09300Y25350D02*
X09300Y21700D01*
X09250Y25350D02*
X09250Y21700D01*
X09200Y25350D02*
X09200Y21700D01*
X09150Y25350D02*
X09150Y21700D01*
X09100Y25350D02*
X09100Y21700D01*
X09050Y25350D02*
X09050Y21700D01*
X09000Y25350D02*
X09000Y21700D01*
X08950Y25350D02*
X08950Y21700D01*
X08900Y25350D02*
X08900Y21700D01*
X08850Y25350D02*
X08850Y21700D01*
X08800Y25350D02*
X08800Y21700D01*
X08750Y25350D02*
X08750Y21700D01*
X08700Y25350D02*
X08700Y21700D01*
X08650Y25350D02*
X08650Y21700D01*
X08600Y25350D02*
X08600Y21700D01*
X08550Y25350D02*
X08550Y21700D01*
X08500Y25350D02*
X08500Y21700D01*
X08450Y25350D02*
X08450Y21700D01*
X08400Y25350D02*
X08400Y21700D01*
X08350Y25350D02*
X08350Y21700D01*
X08300Y25350D02*
X08300Y21700D01*
X08250Y25350D02*
X08250Y21700D01*
X08200Y25350D02*
X08200Y21700D01*
X08150Y25350D02*
X08150Y21700D01*
X08100Y25350D02*
X08100Y21700D01*
X08050Y25350D02*
X08050Y21700D01*
X08000Y25350D02*
X08000Y21700D01*
X07950Y25350D02*
X07950Y21700D01*
X07900Y25350D02*
X07900Y21700D01*
X07850Y25350D02*
X07850Y21700D01*
X07800Y25350D02*
X07800Y21700D01*
X07750Y25350D02*
X07750Y21700D01*
X07700Y25350D02*
X07700Y21700D01*
X07650Y25350D02*
X07650Y21700D01*
X07600Y25350D02*
X07600Y21700D01*
X07550Y25350D02*
X07550Y21700D01*
X07500Y25350D02*
X07500Y21700D01*
X07450Y25350D02*
X07450Y21700D01*
X07400Y25350D02*
X07400Y21700D01*
X07350Y25350D02*
X07350Y21700D01*
X07300Y25350D02*
X07300Y21700D01*
X07250Y25350D02*
X07250Y21700D01*
X07200Y25350D02*
X07200Y21700D01*
X07150Y25350D02*
X07150Y21700D01*
X07100Y25350D02*
X07100Y21700D01*
X07050Y25350D02*
X07050Y21700D01*
X07000Y25350D02*
X07000Y21700D01*
X06950Y25350D02*
X06950Y21700D01*
X06900Y25350D02*
X06900Y21700D01*
X06850Y25350D02*
X06850Y21700D01*
X06800Y25350D02*
X06800Y21700D01*
X06750Y25350D02*
X06750Y21700D01*
X06700Y25350D02*
X06700Y21700D01*
X06650Y25350D02*
X06650Y21700D01*
X06600Y25350D02*
X06600Y21700D01*
X06550Y25350D02*
X06550Y21700D01*
X06500Y25350D02*
X06500Y21700D01*
X06450Y25350D02*
X06450Y21700D01*
X06400Y25350D02*
X06400Y21700D01*
X06350Y25350D02*
X06350Y21700D01*
X06300Y25350D02*
X06300Y21700D01*
X06250Y25350D02*
X06250Y21700D01*
X06200Y25350D02*
X06200Y21700D01*
X06150Y25350D02*
X06150Y21700D01*
X06100Y25350D02*
X06100Y21700D01*
X06050Y25350D02*
X06050Y21700D01*
X06000Y25350D02*
X06000Y21700D01*
X05950Y25350D02*
X05950Y21700D01*
X05900Y25350D02*
X05900Y21700D01*
X05850Y25350D02*
X05850Y21700D01*
X05800Y25350D02*
X05800Y21700D01*
X05750Y25350D02*
X05750Y21700D01*
X05700Y25350D02*
X05700Y21700D01*
X05650Y25350D02*
X05650Y21700D01*
X05600Y25350D02*
X05600Y21700D01*
X05550Y25350D02*
X05550Y21700D01*
X05500Y25350D02*
X05500Y21700D01*
X05450Y25350D02*
X05450Y21700D01*
X05400Y25350D02*
X05400Y21700D01*
X05350Y25350D02*
X05350Y21700D01*
X05300Y25350D02*
X05300Y21700D01*
X05250Y25350D02*
X05250Y21700D01*
X05200Y25350D02*
X05200Y21700D01*
X05150Y25350D02*
X05150Y21700D01*
X05100Y25350D02*
X05100Y21700D01*
X05050Y25350D02*
X05050Y21700D01*
X05000Y25350D02*
X05000Y21700D01*
X04950Y25350D02*
X04950Y21700D01*
X04900Y25350D02*
X04900Y21700D01*
X04850Y25350D02*
X04850Y21700D01*
X04800Y25350D02*
X04800Y21700D01*
X04750Y25350D02*
X04750Y21700D01*
X04700Y25350D02*
X04700Y21700D01*
X04650Y25350D02*
X04650Y21700D01*
X04600Y25350D02*
X04600Y21700D01*
X04550Y25350D02*
X04550Y21700D01*
X04500Y25350D02*
X04500Y21700D01*
X04450Y25350D02*
X04450Y21700D01*
X04400Y25350D02*
X04400Y21700D01*
X04350Y25350D02*
X04350Y21700D01*
X04300Y25350D02*
X04300Y21700D01*
X04250Y25350D02*
X04250Y21700D01*
X04200Y25350D02*
X04200Y21700D01*
X04150Y25350D02*
X04150Y21700D01*
X04100Y25350D02*
X04100Y21700D01*
X04050Y25350D02*
X04050Y21700D01*
X04000Y25350D02*
X04000Y21700D01*
X03950Y25350D02*
X03950Y21700D01*
X03900Y25350D02*
X03900Y21700D01*
X03850Y25350D02*
X03850Y21700D01*
X03800Y25350D02*
X03800Y21700D01*
X03750Y25350D02*
X03750Y21700D01*
X03700Y25350D02*
X03700Y21700D01*
X03650Y25350D02*
X03650Y21700D01*
X03600Y25350D02*
X03600Y21700D01*
X03550Y25350D02*
X03550Y21700D01*
X03500Y25350D02*
X03500Y21700D01*
X03450Y25350D02*
X03450Y21700D01*
X03400Y25350D02*
X03400Y21700D01*
X03350Y25350D02*
X03350Y21650D01*
X03300Y25350D02*
X03300Y21650D01*
X03250Y25350D02*
X03250Y21600D01*
X03200Y25350D02*
X03200Y21600D01*
X03150Y25350D02*
X03150Y21550D01*
X03100Y25350D02*
X03100Y21550D01*
X03050Y25350D02*
X03050Y21500D01*
X03000Y22950D02*
X03000Y21450D01*
X02950Y22950D02*
X02950Y21400D01*
X11650Y20800D02*
X11750Y20800D01*
X11600Y20850D02*
X11750Y20850D01*
X11550Y20900D02*
X11750Y20900D01*
X11500Y20950D02*
X11750Y20950D01*
X11450Y21000D02*
X11750Y21000D01*
X11400Y21050D02*
X11750Y21050D01*
X11350Y21100D02*
X11750Y21100D01*
X11300Y21150D02*
X11750Y21150D01*
X11250Y21200D02*
X11750Y21200D01*
X11200Y21250D02*
X11750Y21250D01*
X11150Y21300D02*
X11750Y21300D01*
X11100Y21350D02*
X11750Y21350D01*
X11050Y21400D02*
X11750Y21400D01*
X11000Y21450D02*
X11750Y21450D01*
X02950Y21450D02*
X03000Y21450D01*
X10900Y21500D02*
X11750Y21500D01*
X02950Y21500D02*
X03050Y21500D01*
X10850Y21550D02*
X11750Y21550D01*
X02950Y21550D02*
X03150Y21550D01*
X10750Y21600D02*
X11750Y21600D01*
X02950Y21600D02*
X03250Y21600D01*
X10600Y21650D02*
X11750Y21650D01*
X02950Y21650D02*
X03350Y21650D01*
X02950Y21700D02*
X11750Y21700D01*
X02950Y21750D02*
X11750Y21750D01*
X02950Y21800D02*
X11750Y21800D01*
X02950Y21850D02*
X11750Y21850D01*
X02950Y21900D02*
X11750Y21900D01*
X02950Y21950D02*
X11750Y21950D01*
X02950Y22000D02*
X11750Y22000D01*
X02950Y22050D02*
X11750Y22050D01*
X02950Y22100D02*
X11750Y22100D01*
X02950Y22150D02*
X11750Y22150D01*
X02950Y22200D02*
X11750Y22200D01*
X02950Y22250D02*
X11750Y22250D01*
X02950Y22300D02*
X11750Y22300D01*
X02950Y22350D02*
X12550Y22350D01*
X02950Y22400D02*
X12550Y22400D01*
X02950Y22450D02*
X12550Y22450D01*
X02950Y22500D02*
X12550Y22500D01*
X02950Y22550D02*
X12550Y22550D01*
X02950Y22600D02*
X12550Y22600D01*
X02950Y22650D02*
X12550Y22650D01*
X02950Y22700D02*
X12550Y22700D01*
X02950Y22750D02*
X11500Y22750D01*
X02950Y22800D02*
X11500Y22800D01*
X02950Y22850D02*
X11500Y22850D01*
X02950Y22900D02*
X11500Y22900D01*
X02950Y22950D02*
X11500Y22950D01*
X03050Y23000D02*
X11500Y23000D01*
X03050Y23050D02*
X11500Y23050D01*
X03050Y23100D02*
X11500Y23100D01*
X03050Y23150D02*
X11500Y23150D01*
X03050Y23200D02*
X11500Y23200D01*
X03050Y23250D02*
X11500Y23250D01*
X03050Y23300D02*
X11500Y23300D01*
X03050Y23350D02*
X11500Y23350D01*
X03050Y23400D02*
X11500Y23400D01*
X03050Y23450D02*
X11500Y23450D01*
X03050Y23500D02*
X11500Y23500D01*
X03050Y23550D02*
X11500Y23550D01*
X03050Y23600D02*
X11500Y23600D01*
X03050Y23650D02*
X11500Y23650D01*
X03050Y23700D02*
X11500Y23700D01*
X03050Y23750D02*
X11500Y23750D01*
X03050Y23800D02*
X11500Y23800D01*
X03050Y23850D02*
X11500Y23850D01*
X03050Y23900D02*
X11500Y23900D01*
X03050Y23950D02*
X11500Y23950D01*
X03050Y24000D02*
X11500Y24000D01*
X03050Y24050D02*
X11500Y24050D01*
X03050Y24100D02*
X11500Y24100D01*
X03050Y24150D02*
X11500Y24150D01*
X03050Y24200D02*
X11500Y24200D01*
X03050Y24250D02*
X11500Y24250D01*
X03050Y24300D02*
X11500Y24300D01*
X03050Y24350D02*
X11500Y24350D01*
X03050Y24400D02*
X11500Y24400D01*
X03050Y24450D02*
X11500Y24450D01*
X03050Y24500D02*
X11500Y24500D01*
X03050Y24550D02*
X11500Y24550D01*
X03050Y24600D02*
X11500Y24600D01*
X03050Y24650D02*
X11500Y24650D01*
X03050Y24700D02*
X11500Y24700D01*
X03050Y24750D02*
X11500Y24750D01*
X03050Y24800D02*
X11500Y24800D01*
X03050Y24850D02*
X11500Y24850D01*
X03050Y24900D02*
X11500Y24900D01*
X03050Y24950D02*
X11500Y24950D01*
X03050Y25000D02*
X12550Y25000D01*
X03050Y25050D02*
X12550Y25050D01*
X03050Y25100D02*
X12550Y25100D01*
X03050Y25150D02*
X12550Y25150D01*
X03050Y25200D02*
X12550Y25200D01*
X03050Y25250D02*
X12550Y25250D01*
X03050Y25300D02*
X12550Y25300D01*
X03050Y25350D02*
X12550Y25350D01*
X19250Y06250D02*
X19250Y02250D01*
X19200Y06250D02*
X19200Y02250D01*
X19150Y06250D02*
X19150Y02250D01*
X19100Y06250D02*
X19100Y02250D01*
X19050Y06250D02*
X19050Y02250D01*
X19000Y06250D02*
X19000Y02250D01*
X18950Y06250D02*
X18950Y02250D01*
X18900Y06250D02*
X18900Y02250D01*
X18850Y06250D02*
X18850Y02250D01*
X18800Y06250D02*
X18800Y02250D01*
X18750Y06250D02*
X18750Y02250D01*
X18700Y06250D02*
X18700Y02250D01*
X18650Y06250D02*
X18650Y02250D01*
X18600Y06250D02*
X18600Y02250D01*
X18550Y06250D02*
X18550Y02250D01*
X18500Y06250D02*
X18500Y02250D01*
X18450Y06250D02*
X18450Y02250D01*
X18400Y06250D02*
X18400Y02250D01*
X18350Y06250D02*
X18350Y02250D01*
X18300Y06250D02*
X18300Y02250D01*
X18250Y06250D02*
X18250Y02250D01*
X18200Y06250D02*
X18200Y02250D01*
X18150Y06250D02*
X18150Y02250D01*
X18100Y06250D02*
X18100Y02250D01*
X18050Y06250D02*
X18050Y02250D01*
X18000Y06250D02*
X18000Y02250D01*
X17950Y06250D02*
X17950Y02250D01*
X17900Y06250D02*
X17900Y02250D01*
X17850Y06250D02*
X17850Y02250D01*
X17800Y06250D02*
X17800Y02250D01*
X17750Y06250D02*
X17750Y02250D01*
X17700Y06250D02*
X17700Y02250D01*
X17650Y06250D02*
X17650Y02250D01*
X17600Y06250D02*
X17600Y02250D01*
X17550Y06250D02*
X17550Y02250D01*
X17500Y06250D02*
X17500Y02250D01*
X17450Y06250D02*
X17450Y02250D01*
X17400Y06250D02*
X17400Y02250D01*
X17350Y06250D02*
X17350Y02250D01*
X17300Y06250D02*
X17300Y02250D01*
X17250Y06250D02*
X17250Y02250D01*
X17200Y06250D02*
X17200Y02250D01*
X17150Y06250D02*
X17150Y02250D01*
X17100Y06250D02*
X17100Y02250D01*
X17050Y06250D02*
X17050Y02250D01*
X17000Y06250D02*
X17000Y02250D01*
X16950Y06250D02*
X16950Y02250D01*
X16900Y06250D02*
X16900Y02250D01*
X16850Y06250D02*
X16850Y02250D01*
X16800Y06250D02*
X16800Y02250D01*
X16750Y06250D02*
X16750Y02250D01*
X16700Y06250D02*
X16700Y02250D01*
X16650Y06250D02*
X16650Y02250D01*
X16600Y06250D02*
X16600Y02250D01*
X16550Y06250D02*
X16550Y02250D01*
X16500Y06250D02*
X16500Y02250D01*
X16450Y06250D02*
X16450Y02250D01*
X16400Y06250D02*
X16400Y02250D01*
X16350Y06250D02*
X16350Y02250D01*
X16300Y06250D02*
X16300Y02250D01*
X16250Y06250D02*
X16250Y02250D01*
X16200Y06250D02*
X16200Y02250D01*
X16150Y06250D02*
X16150Y02250D01*
X16100Y06250D02*
X16100Y02250D01*
X16050Y06250D02*
X16050Y02250D01*
X16000Y06250D02*
X16000Y02250D01*
X15950Y06250D02*
X15950Y02250D01*
X15900Y06250D02*
X15900Y02250D01*
X15850Y06250D02*
X15850Y02250D01*
X15800Y06250D02*
X15800Y02250D01*
X15750Y06250D02*
X15750Y02250D01*
X15700Y06250D02*
X15700Y02250D01*
X15650Y06250D02*
X15650Y02250D01*
X15600Y06250D02*
X15600Y02250D01*
X15550Y06250D02*
X15550Y02250D01*
X15500Y06250D02*
X15500Y02250D01*
X15450Y06250D02*
X15450Y02250D01*
X15400Y06250D02*
X15400Y02250D01*
X15350Y06250D02*
X15350Y02250D01*
X15300Y06250D02*
X15300Y02250D01*
X15250Y06250D02*
X15250Y02250D01*
X15200Y06250D02*
X15200Y02250D01*
X15150Y06250D02*
X15150Y02250D01*
X15100Y06250D02*
X15100Y02250D01*
X15050Y06250D02*
X15050Y02250D01*
X15050Y02250D02*
X19250Y02250D01*
X15050Y02300D02*
X19250Y02300D01*
X15050Y02350D02*
X19250Y02350D01*
X15050Y02400D02*
X19250Y02400D01*
X15050Y02450D02*
X19250Y02450D01*
X15050Y02500D02*
X19250Y02500D01*
X15050Y02550D02*
X19250Y02550D01*
X15050Y02600D02*
X19250Y02600D01*
X15050Y02650D02*
X19250Y02650D01*
X15050Y02700D02*
X19250Y02700D01*
X15050Y02750D02*
X19250Y02750D01*
X15050Y02800D02*
X19250Y02800D01*
X15050Y02850D02*
X19250Y02850D01*
X15050Y02900D02*
X19250Y02900D01*
X15050Y02950D02*
X19250Y02950D01*
X15050Y03000D02*
X19250Y03000D01*
X15050Y03050D02*
X19250Y03050D01*
X15050Y03100D02*
X19250Y03100D01*
X15050Y03150D02*
X19250Y03150D01*
X15050Y03200D02*
X19250Y03200D01*
X15050Y03250D02*
X19250Y03250D01*
X15050Y03300D02*
X19250Y03300D01*
X15050Y03350D02*
X19250Y03350D01*
X15050Y03400D02*
X19250Y03400D01*
X15050Y03450D02*
X19250Y03450D01*
X15050Y03500D02*
X19250Y03500D01*
X15050Y03550D02*
X19250Y03550D01*
X15050Y03600D02*
X19250Y03600D01*
X15050Y03650D02*
X19250Y03650D01*
X15050Y03700D02*
X19250Y03700D01*
X15050Y03750D02*
X19250Y03750D01*
X15050Y03800D02*
X19250Y03800D01*
X15050Y03850D02*
X19250Y03850D01*
X15050Y03900D02*
X19250Y03900D01*
X15050Y03950D02*
X19250Y03950D01*
X15050Y04000D02*
X19250Y04000D01*
X15050Y04050D02*
X19250Y04050D01*
X15050Y04100D02*
X19250Y04100D01*
X15050Y04150D02*
X19250Y04150D01*
X15050Y04200D02*
X19250Y04200D01*
X15050Y04250D02*
X19250Y04250D01*
X15050Y04300D02*
X19250Y04300D01*
X15050Y04350D02*
X19250Y04350D01*
X15050Y04400D02*
X19250Y04400D01*
X15050Y04450D02*
X19250Y04450D01*
X15050Y04500D02*
X19250Y04500D01*
X15050Y04550D02*
X19250Y04550D01*
X15050Y04600D02*
X19250Y04600D01*
X15050Y04650D02*
X19250Y04650D01*
X15050Y04700D02*
X19250Y04700D01*
X15050Y04750D02*
X19250Y04750D01*
X15050Y04800D02*
X19250Y04800D01*
X15050Y04850D02*
X19250Y04850D01*
X15050Y04900D02*
X19250Y04900D01*
X15050Y04950D02*
X19250Y04950D01*
X15050Y05000D02*
X19250Y05000D01*
X15050Y05050D02*
X19250Y05050D01*
X15050Y05100D02*
X19250Y05100D01*
X15050Y05150D02*
X19250Y05150D01*
X15050Y05200D02*
X19250Y05200D01*
X15050Y05250D02*
X19250Y05250D01*
X15050Y05300D02*
X19250Y05300D01*
X15050Y05350D02*
X19250Y05350D01*
X15050Y05400D02*
X19250Y05400D01*
X15050Y05450D02*
X19250Y05450D01*
X15050Y05500D02*
X19250Y05500D01*
X15050Y05550D02*
X19250Y05550D01*
X15050Y05600D02*
X19250Y05600D01*
X15050Y05650D02*
X19250Y05650D01*
X15050Y05700D02*
X19250Y05700D01*
X15050Y05750D02*
X19250Y05750D01*
X15050Y05800D02*
X19250Y05800D01*
X15050Y05850D02*
X19250Y05850D01*
X15050Y05900D02*
X19250Y05900D01*
X15050Y05950D02*
X19250Y05950D01*
X15050Y06000D02*
X19250Y06000D01*
X15050Y06050D02*
X19250Y06050D01*
X15050Y06100D02*
X19250Y06100D01*
X15050Y06150D02*
X19250Y06150D01*
X15050Y06200D02*
X19250Y06200D01*
X15050Y06250D02*
X19250Y06250D01*
X22850Y01600D02*
X22850Y00650D01*
X22800Y01550D02*
X22800Y00650D01*
X22750Y01500D02*
X22750Y00650D01*
X22700Y01450D02*
X22700Y00650D01*
X22650Y01400D02*
X22650Y00650D01*
X22600Y01350D02*
X22600Y00650D01*
X22550Y01300D02*
X22550Y00650D01*
X22500Y01250D02*
X22500Y00650D01*
X22450Y01200D02*
X22450Y00650D01*
X22400Y01150D02*
X22400Y00650D01*
X22350Y01100D02*
X22350Y00650D01*
X22300Y01050D02*
X22300Y00650D01*
X22250Y01000D02*
X22250Y00650D01*
X22200Y00950D02*
X22200Y00650D01*
X22150Y00900D02*
X22150Y00650D01*
X22100Y00850D02*
X22100Y00650D01*
X22050Y00850D02*
X22050Y00650D01*
X22000Y00800D02*
X22000Y00650D01*
X21950Y00800D02*
X21950Y00650D01*
X21900Y00750D02*
X21900Y00650D01*
X21850Y00750D02*
X21850Y00650D01*
X21800Y00750D02*
X21800Y00650D01*
X21750Y00750D02*
X21750Y00650D01*
X21700Y00750D02*
X21700Y00650D01*
X21650Y00750D02*
X21650Y00650D01*
X21600Y00750D02*
X21600Y00650D01*
X21550Y00750D02*
X21550Y00650D01*
X21500Y00750D02*
X21500Y00650D01*
X21450Y00750D02*
X21450Y00650D01*
X21400Y00750D02*
X21400Y00650D01*
X21350Y00750D02*
X21350Y00650D01*
X21300Y00750D02*
X21300Y00650D01*
X21250Y00750D02*
X21250Y00650D01*
X21200Y00750D02*
X21200Y00650D01*
X21150Y00750D02*
X21150Y00650D01*
X21100Y00750D02*
X21100Y00650D01*
X21050Y00750D02*
X21050Y00650D01*
X21000Y00750D02*
X21000Y00650D01*
X20950Y00750D02*
X20950Y00650D01*
X20900Y00750D02*
X20900Y00650D01*
X20850Y00750D02*
X20850Y00650D01*
X20800Y00750D02*
X20800Y00650D01*
X20750Y00750D02*
X20750Y00650D01*
X20700Y00750D02*
X20700Y00650D01*
X20650Y00750D02*
X20650Y00650D01*
X20600Y00750D02*
X20600Y00650D01*
X20550Y00750D02*
X20550Y00650D01*
X20500Y00750D02*
X20500Y00650D01*
X20450Y00750D02*
X20450Y00650D01*
X20400Y00750D02*
X20400Y00650D01*
X20350Y00750D02*
X20350Y00650D01*
X20300Y00750D02*
X20300Y00650D01*
X20250Y00750D02*
X20250Y00650D01*
X20200Y00750D02*
X20200Y00650D01*
X20150Y00750D02*
X20150Y00650D01*
X20100Y00750D02*
X20100Y00650D01*
X20050Y00750D02*
X20050Y00650D01*
X20000Y00750D02*
X20000Y00650D01*
X19950Y00750D02*
X19950Y00650D01*
X19900Y00750D02*
X19900Y00650D01*
X19850Y00750D02*
X19850Y00650D01*
X19800Y00750D02*
X19800Y00650D01*
X19750Y00750D02*
X19750Y00650D01*
X19700Y00750D02*
X19700Y00650D01*
X19650Y00750D02*
X19650Y00650D01*
X19600Y00750D02*
X19600Y00650D01*
X19550Y00750D02*
X19550Y00650D01*
X19500Y00750D02*
X19500Y00650D01*
X19450Y00750D02*
X19450Y00650D01*
X19400Y00750D02*
X19400Y00650D01*
X19350Y00750D02*
X19350Y00650D01*
X19300Y00750D02*
X19300Y00650D01*
X19250Y00750D02*
X19250Y00650D01*
X19200Y00750D02*
X19200Y00650D01*
X19150Y00750D02*
X19150Y00650D01*
X19100Y00750D02*
X19100Y00650D01*
X19050Y00750D02*
X19050Y00650D01*
X19000Y00750D02*
X19000Y00650D01*
X18950Y00750D02*
X18950Y00650D01*
X18900Y00750D02*
X18900Y00650D01*
X18850Y00750D02*
X18850Y00650D01*
X18800Y00750D02*
X18800Y00650D01*
X18750Y00750D02*
X18750Y00650D01*
X18700Y00750D02*
X18700Y00650D01*
X18650Y00750D02*
X18650Y00650D01*
X18600Y00750D02*
X18600Y00650D01*
X18550Y00750D02*
X18550Y00650D01*
X18500Y00750D02*
X18500Y00650D01*
X18450Y00750D02*
X18450Y00650D01*
X18400Y00750D02*
X18400Y00650D01*
X18350Y00750D02*
X18350Y00650D01*
X18300Y00750D02*
X18300Y00650D01*
X18250Y00750D02*
X18250Y00650D01*
X18200Y00750D02*
X18200Y00650D01*
X18150Y00750D02*
X18150Y00650D01*
X18100Y00750D02*
X18100Y00650D01*
X18050Y00750D02*
X18050Y00650D01*
X18000Y00750D02*
X18000Y00650D01*
X17950Y00750D02*
X17950Y00650D01*
X17900Y00750D02*
X17900Y00650D01*
X17850Y00750D02*
X17850Y00650D01*
X17800Y00750D02*
X17800Y00650D01*
X17750Y00750D02*
X17750Y00650D01*
X17700Y00750D02*
X17700Y00650D01*
X17650Y00750D02*
X17650Y00650D01*
X17600Y00750D02*
X17600Y00650D01*
X17550Y00750D02*
X17550Y00650D01*
X17500Y00750D02*
X17500Y00650D01*
X17450Y00750D02*
X17450Y00650D01*
X17400Y00750D02*
X17400Y00650D01*
X17350Y00750D02*
X17350Y00650D01*
X17300Y00750D02*
X17300Y00650D01*
X17250Y00750D02*
X17250Y00650D01*
X17200Y00750D02*
X17200Y00650D01*
X17150Y00750D02*
X17150Y00650D01*
X17100Y00750D02*
X17100Y00650D01*
X17050Y00750D02*
X17050Y00650D01*
X17000Y00750D02*
X17000Y00650D01*
X16950Y00750D02*
X16950Y00650D01*
X16900Y00750D02*
X16900Y00650D01*
X16850Y00750D02*
X16850Y00650D01*
X16800Y00750D02*
X16800Y00650D01*
X16750Y00750D02*
X16750Y00650D01*
X16700Y00750D02*
X16700Y00650D01*
X16650Y00750D02*
X16650Y00650D01*
X16600Y00750D02*
X16600Y00650D01*
X16550Y00750D02*
X16550Y00650D01*
X16500Y00750D02*
X16500Y00650D01*
X16450Y00750D02*
X16450Y00650D01*
X16400Y00750D02*
X16400Y00650D01*
X16350Y00750D02*
X16350Y00650D01*
X16300Y00750D02*
X16300Y00650D01*
X16250Y00750D02*
X16250Y00650D01*
X16200Y00750D02*
X16200Y00650D01*
X16150Y00750D02*
X16150Y00650D01*
X16100Y00750D02*
X16100Y00650D01*
X16050Y00750D02*
X16050Y00650D01*
X16000Y00750D02*
X16000Y00650D01*
X15950Y00750D02*
X15950Y00650D01*
X15900Y00750D02*
X15900Y00650D01*
X15850Y00750D02*
X15850Y00650D01*
X15800Y00750D02*
X15800Y00650D01*
X15750Y00750D02*
X15750Y00650D01*
X15700Y00750D02*
X15700Y00650D01*
X15650Y00750D02*
X15650Y00650D01*
X15600Y00750D02*
X15600Y00650D01*
X15550Y00750D02*
X15550Y00650D01*
X15500Y00750D02*
X15500Y00650D01*
X15450Y00750D02*
X15450Y00650D01*
X15400Y00750D02*
X15400Y00650D01*
X15350Y00750D02*
X15350Y00650D01*
X15300Y00750D02*
X15300Y00650D01*
X15250Y00750D02*
X15250Y00650D01*
X15200Y00750D02*
X15200Y00650D01*
X15150Y00750D02*
X15150Y00650D01*
X15100Y00750D02*
X15100Y00650D01*
X15050Y00750D02*
X15050Y00650D01*
X15000Y00750D02*
X15000Y00650D01*
X14950Y00750D02*
X14950Y00650D01*
X14900Y00750D02*
X14900Y00650D01*
X14850Y00750D02*
X14850Y00650D01*
X14800Y00750D02*
X14800Y00650D01*
X14750Y00750D02*
X14750Y00650D01*
X14700Y00750D02*
X14700Y00650D01*
X14650Y00750D02*
X14650Y00650D01*
X14600Y00750D02*
X14600Y00650D01*
X14550Y00750D02*
X14550Y00650D01*
X14500Y00750D02*
X14500Y00650D01*
X14450Y00800D02*
X14450Y00650D01*
X14400Y00800D02*
X14400Y00650D01*
X14350Y00850D02*
X14350Y00650D01*
X14300Y00850D02*
X14300Y00650D01*
X14250Y00900D02*
X14250Y00650D01*
X14200Y00950D02*
X14200Y00650D01*
X14150Y01000D02*
X14150Y00650D01*
X14100Y01050D02*
X14100Y00650D01*
X14050Y01100D02*
X14050Y00650D01*
X14000Y01150D02*
X14000Y00650D01*
X13950Y01200D02*
X13950Y00650D01*
X13900Y01250D02*
X13900Y00650D01*
X13850Y01300D02*
X13850Y00650D01*
X13800Y01350D02*
X13800Y00650D01*
X13750Y01400D02*
X13750Y00650D01*
X13700Y01450D02*
X13700Y00650D01*
X13650Y01500D02*
X13650Y00650D01*
X13600Y01550D02*
X13600Y00650D01*
X13550Y01600D02*
X13550Y00650D01*
X13500Y01650D02*
X13500Y00650D01*
X13450Y01650D02*
X13450Y00650D01*
X13400Y01650D02*
X13400Y00650D01*
X13350Y01650D02*
X13350Y00650D01*
X13300Y01650D02*
X13300Y00650D01*
X13250Y05950D02*
X13250Y00650D01*
X13200Y05900D02*
X13200Y00650D01*
X13150Y05850D02*
X13150Y00650D01*
X13100Y05800D02*
X13100Y00650D01*
X13050Y05750D02*
X13050Y00650D01*
X13000Y05700D02*
X13000Y00650D01*
X12950Y05650D02*
X12950Y00650D01*
X12900Y05600D02*
X12900Y00650D01*
X12850Y05550D02*
X12850Y00650D01*
X12800Y05500D02*
X12800Y00650D01*
X12750Y05450D02*
X12750Y00650D01*
X12700Y05400D02*
X12700Y00650D01*
X12650Y05350D02*
X12650Y00650D01*
X12600Y05300D02*
X12600Y00650D01*
X12550Y05250D02*
X12550Y00650D01*
X12500Y05200D02*
X12500Y00650D01*
X12450Y05150D02*
X12450Y00650D01*
X12400Y05100D02*
X12400Y00650D01*
X12350Y05050D02*
X12350Y00650D01*
X12300Y05000D02*
X12300Y00650D01*
X12250Y04950D02*
X12250Y00650D01*
X12200Y04900D02*
X12200Y00650D01*
X12150Y04850D02*
X12150Y00650D01*
X12100Y04800D02*
X12100Y00650D01*
X12050Y04750D02*
X12050Y00650D01*
X12000Y04700D02*
X12000Y00650D01*
X11950Y04650D02*
X11950Y00650D01*
X11900Y04600D02*
X11900Y00650D01*
X11850Y04550D02*
X11850Y00650D01*
X11800Y04500D02*
X11800Y00650D01*
X11750Y04450D02*
X11750Y00650D01*
X11700Y04400D02*
X11700Y00650D01*
X11650Y04350D02*
X11650Y00650D01*
X11600Y04300D02*
X11600Y00650D01*
X11550Y04250D02*
X11550Y00650D01*
X11500Y04200D02*
X11500Y00650D01*
X11450Y04150D02*
X11450Y00650D01*
X11400Y04100D02*
X11400Y00650D01*
X11350Y04050D02*
X11350Y00650D01*
X11300Y04000D02*
X11300Y00650D01*
X11250Y03950D02*
X11250Y00650D01*
X11200Y03900D02*
X11200Y00650D01*
X11150Y03850D02*
X11150Y00650D01*
X11100Y01650D02*
X11100Y00650D01*
X11050Y01550D02*
X11050Y00650D01*
X11000Y01450D02*
X11000Y00650D01*
X10950Y01350D02*
X10950Y00650D01*
X10900Y01300D02*
X10900Y00650D01*
X10850Y01250D02*
X10850Y00650D01*
X10800Y01200D02*
X10800Y00650D01*
X10750Y01150D02*
X10750Y00650D01*
X10700Y01100D02*
X10700Y00650D01*
X10650Y01050D02*
X10650Y00650D01*
X10600Y01000D02*
X10600Y00650D01*
X10550Y00950D02*
X10550Y00650D01*
X10500Y00900D02*
X10500Y00650D01*
X10450Y00850D02*
X10450Y00650D01*
X10400Y00800D02*
X10400Y00650D01*
X10350Y00750D02*
X10350Y00650D01*
X10300Y00700D02*
X10300Y00650D01*
X10250Y00650D02*
X22850Y00650D01*
X10300Y00700D02*
X22850Y00700D01*
X10350Y00750D02*
X22850Y00750D01*
X21950Y00800D02*
X22850Y00800D01*
X10400Y00800D02*
X14450Y00800D01*
X22050Y00850D02*
X22850Y00850D01*
X10450Y00850D02*
X14350Y00850D01*
X22150Y00900D02*
X22850Y00900D01*
X10500Y00900D02*
X14250Y00900D01*
X22200Y00950D02*
X22850Y00950D01*
X10550Y00950D02*
X14200Y00950D01*
X22250Y01000D02*
X22850Y01000D01*
X10600Y01000D02*
X14150Y01000D01*
X22300Y01050D02*
X22850Y01050D01*
X10650Y01050D02*
X14100Y01050D01*
X22350Y01100D02*
X22850Y01100D01*
X10700Y01100D02*
X14050Y01100D01*
X22400Y01150D02*
X22850Y01150D01*
X10750Y01150D02*
X14000Y01150D01*
X22450Y01200D02*
X22850Y01200D01*
X10800Y01200D02*
X13950Y01200D01*
X22500Y01250D02*
X22850Y01250D01*
X10850Y01250D02*
X13900Y01250D01*
X22550Y01300D02*
X22850Y01300D01*
X10900Y01300D02*
X13850Y01300D01*
X22600Y01350D02*
X22850Y01350D01*
X10950Y01350D02*
X13800Y01350D01*
X22650Y01400D02*
X22850Y01400D01*
X11000Y01400D02*
X13750Y01400D01*
X22700Y01450D02*
X22850Y01450D01*
X11000Y01450D02*
X13700Y01450D01*
X22750Y01500D02*
X22850Y01500D01*
X11050Y01500D02*
X13650Y01500D01*
X22800Y01550D02*
X22850Y01550D01*
X11050Y01550D02*
X13600Y01550D01*
X11100Y01600D02*
X13550Y01600D01*
X11100Y01650D02*
X13500Y01650D01*
X11150Y01700D02*
X13250Y01700D01*
X11150Y01750D02*
X13250Y01750D01*
X11150Y01800D02*
X13250Y01800D01*
X11150Y01850D02*
X13250Y01850D01*
X11150Y01900D02*
X13250Y01900D01*
X11150Y01950D02*
X13250Y01950D01*
X11150Y02000D02*
X13250Y02000D01*
X11150Y02050D02*
X13250Y02050D01*
X11150Y02100D02*
X13250Y02100D01*
X11150Y02150D02*
X13250Y02150D01*
X11150Y02200D02*
X13250Y02200D01*
X11150Y02250D02*
X13250Y02250D01*
X11150Y02300D02*
X13250Y02300D01*
X11150Y02350D02*
X13250Y02350D01*
X11150Y02400D02*
X13250Y02400D01*
X11150Y02450D02*
X13250Y02450D01*
X11150Y02500D02*
X13250Y02500D01*
X11150Y02550D02*
X13250Y02550D01*
X11150Y02600D02*
X13250Y02600D01*
X11150Y02650D02*
X13250Y02650D01*
X11150Y02700D02*
X13250Y02700D01*
X11150Y02750D02*
X13250Y02750D01*
X11150Y02800D02*
X13250Y02800D01*
X11150Y02850D02*
X13250Y02850D01*
X11150Y02900D02*
X13250Y02900D01*
X11150Y02950D02*
X13250Y02950D01*
X11150Y03000D02*
X13250Y03000D01*
X11150Y03050D02*
X13250Y03050D01*
X11150Y03100D02*
X13250Y03100D01*
X11150Y03150D02*
X13250Y03150D01*
X11150Y03200D02*
X13250Y03200D01*
X11150Y03250D02*
X13250Y03250D01*
X11150Y03300D02*
X13250Y03300D01*
X11150Y03350D02*
X13250Y03350D01*
X11150Y03400D02*
X13250Y03400D01*
X11150Y03450D02*
X13250Y03450D01*
X11150Y03500D02*
X13250Y03500D01*
X11150Y03550D02*
X13250Y03550D01*
X11150Y03600D02*
X13250Y03600D01*
X11150Y03650D02*
X13250Y03650D01*
X11150Y03700D02*
X13250Y03700D01*
X11150Y03750D02*
X13250Y03750D01*
X11150Y03800D02*
X13250Y03800D01*
X11150Y03850D02*
X13250Y03850D01*
X11200Y03900D02*
X13250Y03900D01*
X11250Y03950D02*
X13250Y03950D01*
X11300Y04000D02*
X13250Y04000D01*
X11350Y04050D02*
X13250Y04050D01*
X11400Y04100D02*
X13250Y04100D01*
X11450Y04150D02*
X13250Y04150D01*
X11500Y04200D02*
X13250Y04200D01*
X11550Y04250D02*
X13250Y04250D01*
X11600Y04300D02*
X13250Y04300D01*
X11650Y04350D02*
X13250Y04350D01*
X11700Y04400D02*
X13250Y04400D01*
X11750Y04450D02*
X13250Y04450D01*
X11800Y04500D02*
X13250Y04500D01*
X11850Y04550D02*
X13250Y04550D01*
X11900Y04600D02*
X13250Y04600D01*
X11950Y04650D02*
X13250Y04650D01*
X12000Y04700D02*
X13250Y04700D01*
X12050Y04750D02*
X13250Y04750D01*
X12100Y04800D02*
X13250Y04800D01*
X12150Y04850D02*
X13250Y04850D01*
X12200Y04900D02*
X13250Y04900D01*
X12250Y04950D02*
X13250Y04950D01*
X12300Y05000D02*
X13250Y05000D01*
X12350Y05050D02*
X13250Y05050D01*
X12400Y05100D02*
X13250Y05100D01*
X12450Y05150D02*
X13250Y05150D01*
X12500Y05200D02*
X13250Y05200D01*
X12550Y05250D02*
X13250Y05250D01*
X12600Y05300D02*
X13250Y05300D01*
X12650Y05350D02*
X13250Y05350D01*
X12700Y05400D02*
X13250Y05400D01*
X12750Y05450D02*
X13250Y05450D01*
X12800Y05500D02*
X13250Y05500D01*
X12850Y05550D02*
X13250Y05550D01*
X12900Y05600D02*
X13250Y05600D01*
X12950Y05650D02*
X13250Y05650D01*
X13000Y05700D02*
X13250Y05700D01*
X13050Y05750D02*
X13250Y05750D01*
X13100Y05800D02*
X13250Y05800D01*
X13150Y05850D02*
X13250Y05850D01*
X13200Y05900D02*
X13250Y05900D01*
X26050Y22950D02*
X26050Y12250D01*
X26000Y22950D02*
X26000Y12250D01*
X25950Y25350D02*
X25950Y12250D01*
X25900Y25350D02*
X25900Y12250D01*
X25850Y25350D02*
X25850Y12250D01*
X25800Y25350D02*
X25800Y12250D01*
X25750Y25350D02*
X25750Y12250D01*
X25700Y25350D02*
X25700Y12250D01*
X25650Y25350D02*
X25650Y12250D01*
X25600Y25350D02*
X25600Y12250D01*
X25550Y25350D02*
X25550Y12250D01*
X25500Y25350D02*
X25500Y12250D01*
X25450Y25350D02*
X25450Y12250D01*
X25400Y25350D02*
X25400Y12250D01*
X25350Y25350D02*
X25350Y12250D01*
X25300Y25350D02*
X25300Y12250D01*
X25250Y25350D02*
X25250Y12250D01*
X25200Y25350D02*
X25200Y12250D01*
X25150Y25350D02*
X25150Y12250D01*
X25100Y25350D02*
X25100Y12250D01*
X25050Y25350D02*
X25050Y12250D01*
X25000Y25350D02*
X25000Y12250D01*
X24950Y25350D02*
X24950Y12250D01*
X24900Y25350D02*
X24900Y12250D01*
X24850Y25350D02*
X24850Y12250D01*
X24800Y25350D02*
X24800Y12250D01*
X24750Y25350D02*
X24750Y12250D01*
X24700Y25350D02*
X24700Y12250D01*
X24650Y25350D02*
X24650Y12250D01*
X24600Y25350D02*
X24600Y12250D01*
X24550Y25350D02*
X24550Y12250D01*
X24500Y25350D02*
X24500Y12250D01*
X24450Y25350D02*
X24450Y12250D01*
X24400Y25350D02*
X24400Y12250D01*
X24350Y25350D02*
X24350Y12250D01*
X24300Y25350D02*
X24300Y12250D01*
X24250Y25350D02*
X24250Y12250D01*
X24200Y25350D02*
X24200Y12250D01*
X24150Y25350D02*
X24150Y12250D01*
X24100Y25350D02*
X24100Y12250D01*
X24050Y25350D02*
X24050Y12250D01*
X24000Y25350D02*
X24000Y12250D01*
X23950Y25350D02*
X23950Y12250D01*
X23900Y25350D02*
X23900Y12250D01*
X23850Y25350D02*
X23850Y12250D01*
X23800Y25350D02*
X23800Y12250D01*
X23750Y25350D02*
X23750Y12250D01*
X23700Y25350D02*
X23700Y12250D01*
X23650Y25350D02*
X23650Y12250D01*
X23600Y25350D02*
X23600Y12250D01*
X23550Y25350D02*
X23550Y12250D01*
X23500Y25350D02*
X23500Y12250D01*
X23450Y25350D02*
X23450Y12250D01*
X23400Y25350D02*
X23400Y12250D01*
X23350Y25350D02*
X23350Y12250D01*
X23300Y25350D02*
X23300Y12250D01*
X23250Y25350D02*
X23250Y12250D01*
X23200Y25350D02*
X23200Y12250D01*
X23150Y25350D02*
X23150Y12250D01*
X23100Y25350D02*
X23100Y12250D01*
X23050Y25350D02*
X23050Y12250D01*
X23000Y25350D02*
X23000Y12250D01*
X22950Y25350D02*
X22950Y12250D01*
X22900Y25350D02*
X22900Y12250D01*
X22850Y25350D02*
X22850Y12250D01*
X22800Y25350D02*
X22800Y12250D01*
X22750Y25350D02*
X22750Y12250D01*
X22700Y25350D02*
X22700Y12250D01*
X22650Y25350D02*
X22650Y12250D01*
X22600Y25350D02*
X22600Y12250D01*
X22550Y25350D02*
X22550Y12250D01*
X22500Y25350D02*
X22500Y12250D01*
X22450Y25350D02*
X22450Y12250D01*
X22400Y25350D02*
X22400Y12250D01*
X22350Y25350D02*
X22350Y12250D01*
X22300Y25350D02*
X22300Y12250D01*
X22250Y25350D02*
X22250Y12250D01*
X22200Y25350D02*
X22200Y12250D01*
X22150Y25350D02*
X22150Y12250D01*
X22100Y25350D02*
X22100Y12250D01*
X22050Y25350D02*
X22050Y12250D01*
X22000Y25350D02*
X22000Y12250D01*
X21950Y25350D02*
X21950Y12250D01*
X21900Y25350D02*
X21900Y12200D01*
X21850Y25350D02*
X21850Y12200D01*
X21800Y25350D02*
X21800Y12200D01*
X21750Y25350D02*
X21750Y12200D01*
X21700Y25350D02*
X21700Y12150D01*
X21650Y25350D02*
X21650Y12150D01*
X21600Y25350D02*
X21600Y12100D01*
X21550Y25350D02*
X21550Y12050D01*
X21500Y25350D02*
X21500Y12000D01*
X21450Y25350D02*
X21450Y11950D01*
X21400Y25350D02*
X21400Y11900D01*
X21350Y25350D02*
X21350Y11850D01*
X21300Y25350D02*
X21300Y11800D01*
X21250Y25350D02*
X21250Y11750D01*
X21200Y25350D02*
X21200Y11700D01*
X21150Y25350D02*
X21150Y11650D01*
X21100Y25350D02*
X21100Y11600D01*
X21050Y25350D02*
X21050Y11550D01*
X21000Y25350D02*
X21000Y11500D01*
X20950Y25350D02*
X20950Y11450D01*
X20900Y25350D02*
X20900Y11400D01*
X20850Y25350D02*
X20850Y11350D01*
X20800Y25350D02*
X20800Y11300D01*
X20750Y25350D02*
X20750Y11200D01*
X20700Y25350D02*
X20700Y11000D01*
X20650Y25350D02*
X20650Y10200D01*
X20600Y25350D02*
X20600Y10200D01*
X20550Y25350D02*
X20550Y10200D01*
X20500Y25350D02*
X20500Y10200D01*
X20450Y25350D02*
X20450Y10200D01*
X20400Y25350D02*
X20400Y10200D01*
X20350Y25350D02*
X20350Y10200D01*
X20300Y25350D02*
X20300Y10200D01*
X20250Y25350D02*
X20250Y10200D01*
X20200Y25350D02*
X20200Y10200D01*
X20150Y25350D02*
X20150Y10200D01*
X20100Y25350D02*
X20100Y10200D01*
X20050Y25350D02*
X20050Y10200D01*
X20000Y25350D02*
X20000Y10200D01*
X19950Y25350D02*
X19950Y10200D01*
X19900Y25350D02*
X19900Y10200D01*
X19850Y25350D02*
X19850Y10200D01*
X19800Y25350D02*
X19800Y10200D01*
X19750Y25350D02*
X19750Y10200D01*
X19700Y25350D02*
X19700Y10200D01*
X19650Y25350D02*
X19650Y10200D01*
X19600Y25350D02*
X19600Y10200D01*
X19550Y25350D02*
X19550Y10200D01*
X19500Y25350D02*
X19500Y10200D01*
X19450Y25350D02*
X19450Y10200D01*
X19400Y25350D02*
X19400Y10200D01*
X19350Y25350D02*
X19350Y10200D01*
X19300Y25350D02*
X19300Y10200D01*
X19250Y25350D02*
X19250Y10200D01*
X19200Y25350D02*
X19200Y10200D01*
X19150Y25350D02*
X19150Y10250D01*
X19100Y25350D02*
X19100Y10300D01*
X19050Y25350D02*
X19050Y10400D01*
X19000Y25350D02*
X19000Y10450D01*
X18950Y25350D02*
X18950Y10450D01*
X18900Y25350D02*
X18900Y10500D01*
X18850Y08250D02*
X18850Y08150D01*
X18850Y25350D02*
X18850Y10550D01*
X18800Y08250D02*
X18800Y08150D01*
X18800Y25350D02*
X18800Y10550D01*
X18750Y08250D02*
X18750Y08150D01*
X18750Y25350D02*
X18750Y10600D01*
X18700Y08250D02*
X18700Y08150D01*
X18700Y25350D02*
X18700Y10600D01*
X18650Y08250D02*
X18650Y08150D01*
X18650Y25350D02*
X18650Y10600D01*
X18600Y08250D02*
X18600Y08150D01*
X18600Y25350D02*
X18600Y10600D01*
X18550Y08250D02*
X18550Y08150D01*
X18550Y25350D02*
X18550Y10600D01*
X18500Y08250D02*
X18500Y08150D01*
X18500Y25350D02*
X18500Y10600D01*
X18450Y08250D02*
X18450Y08150D01*
X18450Y25350D02*
X18450Y10600D01*
X18400Y08250D02*
X18400Y08150D01*
X18400Y25350D02*
X18400Y10600D01*
X18350Y08250D02*
X18350Y08150D01*
X18350Y25350D02*
X18350Y10600D01*
X18300Y08250D02*
X18300Y08150D01*
X18300Y25350D02*
X18300Y10600D01*
X18250Y08250D02*
X18250Y08150D01*
X18250Y25350D02*
X18250Y10600D01*
X18200Y08250D02*
X18200Y08150D01*
X18200Y25350D02*
X18200Y10550D01*
X18150Y08250D02*
X18150Y08150D01*
X18150Y25350D02*
X18150Y10550D01*
X18100Y08250D02*
X18100Y08150D01*
X18100Y25350D02*
X18100Y10500D01*
X18050Y08250D02*
X18050Y08150D01*
X18050Y25350D02*
X18050Y10450D01*
X18000Y08250D02*
X18000Y08150D01*
X18000Y25350D02*
X18000Y10450D01*
X17950Y08300D02*
X17950Y08150D01*
X17950Y25350D02*
X17950Y10500D01*
X17900Y08300D02*
X17900Y08150D01*
X17900Y25350D02*
X17900Y10550D01*
X17850Y08350D02*
X17850Y08150D01*
X17850Y25350D02*
X17850Y10550D01*
X17800Y08350D02*
X17800Y08150D01*
X17800Y25350D02*
X17800Y10600D01*
X17750Y08400D02*
X17750Y08150D01*
X17750Y25350D02*
X17750Y10600D01*
X17700Y08450D02*
X17700Y08150D01*
X17700Y25350D02*
X17700Y10600D01*
X17650Y08500D02*
X17650Y08150D01*
X17650Y25350D02*
X17650Y10600D01*
X17600Y08550D02*
X17600Y08150D01*
X17600Y25350D02*
X17600Y10600D01*
X17550Y08600D02*
X17550Y08150D01*
X17550Y25350D02*
X17550Y10600D01*
X17500Y08650D02*
X17500Y08150D01*
X17500Y25350D02*
X17500Y10600D01*
X17450Y08700D02*
X17450Y08150D01*
X17450Y25350D02*
X17450Y10600D01*
X17400Y08750D02*
X17400Y08150D01*
X17400Y25350D02*
X17400Y10600D01*
X17350Y08800D02*
X17350Y08150D01*
X17350Y25350D02*
X17350Y10600D01*
X17300Y08850D02*
X17300Y08150D01*
X17300Y25350D02*
X17300Y10600D01*
X17250Y08900D02*
X17250Y08150D01*
X17250Y25350D02*
X17250Y10550D01*
X17200Y08950D02*
X17200Y08150D01*
X17200Y25350D02*
X17200Y10550D01*
X17150Y09000D02*
X17150Y08150D01*
X17150Y25350D02*
X17150Y10500D01*
X17100Y09050D02*
X17100Y08150D01*
X17100Y25350D02*
X17100Y10450D01*
X17050Y09100D02*
X17050Y08150D01*
X17050Y25350D02*
X17050Y10450D01*
X17000Y09150D02*
X17000Y08150D01*
X17000Y25350D02*
X17000Y10400D01*
X16950Y09250D02*
X16950Y08150D01*
X16950Y25350D02*
X16950Y10300D01*
X16900Y09350D02*
X16900Y08150D01*
X16900Y25350D02*
X16900Y10250D01*
X16850Y09550D02*
X16850Y08150D01*
X16850Y25350D02*
X16850Y10150D01*
X16800Y25350D02*
X16800Y08150D01*
X16750Y25350D02*
X16750Y08150D01*
X16700Y25350D02*
X16700Y08150D01*
X16650Y25350D02*
X16650Y08150D01*
X16600Y25350D02*
X16600Y08150D01*
X16550Y25350D02*
X16550Y08150D01*
X16500Y25350D02*
X16500Y08150D01*
X16450Y25350D02*
X16450Y08150D01*
X16400Y25350D02*
X16400Y08150D01*
X16350Y25350D02*
X16350Y08150D01*
X16300Y25350D02*
X16300Y08150D01*
X16250Y25350D02*
X16250Y08150D01*
X16200Y25350D02*
X16200Y08150D01*
X16150Y25350D02*
X16150Y08150D01*
X16100Y25350D02*
X16100Y08150D01*
X16050Y25350D02*
X16050Y08150D01*
X16000Y25350D02*
X16000Y08150D01*
X15950Y25350D02*
X15950Y08150D01*
X15900Y25350D02*
X15900Y08150D01*
X15850Y25350D02*
X15850Y08150D01*
X15800Y25350D02*
X15800Y08150D01*
X15750Y25350D02*
X15750Y08150D01*
X15700Y25350D02*
X15700Y08150D01*
X15650Y25350D02*
X15650Y08150D01*
X15600Y25350D02*
X15600Y08150D01*
X15550Y25350D02*
X15550Y08150D01*
X15500Y25350D02*
X15500Y08150D01*
X15450Y25350D02*
X15450Y08150D01*
X15400Y25350D02*
X15400Y08150D01*
X15350Y25350D02*
X15350Y08150D01*
X15300Y25350D02*
X15300Y08150D01*
X15250Y25350D02*
X15250Y08150D01*
X15200Y25350D02*
X15200Y08150D01*
X15150Y25350D02*
X15150Y08150D01*
X15100Y25350D02*
X15100Y08150D01*
X15050Y25350D02*
X15050Y08150D01*
X15000Y25350D02*
X15000Y08150D01*
X14950Y25350D02*
X14950Y08150D01*
X14900Y25350D02*
X14900Y08150D01*
X14850Y25350D02*
X14850Y08150D01*
X14800Y25350D02*
X14800Y08150D01*
X14750Y25350D02*
X14750Y08150D01*
X14700Y25350D02*
X14700Y08150D01*
X14650Y25350D02*
X14650Y08150D01*
X14600Y14350D02*
X14600Y08150D01*
X14600Y20350D02*
X14600Y16350D01*
X14600Y25350D02*
X14600Y22350D01*
X14550Y14350D02*
X14550Y08150D01*
X14550Y20350D02*
X14550Y16350D01*
X14550Y25350D02*
X14550Y22350D01*
X14500Y14350D02*
X14500Y08150D01*
X14500Y20350D02*
X14500Y16350D01*
X14500Y25350D02*
X14500Y22350D01*
X14450Y14350D02*
X14450Y08150D01*
X14450Y20350D02*
X14450Y16350D01*
X14450Y25350D02*
X14450Y22350D01*
X14400Y14350D02*
X14400Y08150D01*
X14400Y20350D02*
X14400Y16350D01*
X14400Y25350D02*
X14400Y22350D01*
X14350Y14350D02*
X14350Y08150D01*
X14350Y20350D02*
X14350Y16350D01*
X14350Y25350D02*
X14350Y22350D01*
X14300Y14350D02*
X14300Y08150D01*
X14300Y20350D02*
X14300Y16350D01*
X14300Y25350D02*
X14300Y22350D01*
X14250Y14350D02*
X14250Y08150D01*
X14250Y20350D02*
X14250Y16350D01*
X14250Y25350D02*
X14250Y22350D01*
X14200Y14350D02*
X14200Y08150D01*
X14200Y20350D02*
X14200Y16350D01*
X14150Y14350D02*
X14150Y08150D01*
X14150Y20350D02*
X14150Y16350D01*
X14100Y14350D02*
X14100Y08150D01*
X14100Y20350D02*
X14100Y18150D01*
X14050Y14350D02*
X14050Y08150D01*
X14050Y20350D02*
X14050Y18300D01*
X14000Y14350D02*
X14000Y08150D01*
X14000Y20350D02*
X14000Y18400D01*
X13950Y14350D02*
X13950Y08150D01*
X13950Y20350D02*
X13950Y18450D01*
X13900Y14350D02*
X13900Y08150D01*
X13900Y20350D02*
X13900Y18550D01*
X13850Y14350D02*
X13850Y08150D01*
X13850Y20350D02*
X13850Y18600D01*
X13800Y14350D02*
X13800Y08150D01*
X13800Y20350D02*
X13800Y18650D01*
X13750Y14350D02*
X13750Y08150D01*
X13750Y20350D02*
X13750Y18700D01*
X13700Y14350D02*
X13700Y08150D01*
X13700Y20350D02*
X13700Y18750D01*
X13650Y14350D02*
X13650Y08150D01*
X13650Y20350D02*
X13650Y18800D01*
X13600Y14350D02*
X13600Y08150D01*
X13600Y20350D02*
X13600Y18850D01*
X13550Y14350D02*
X13550Y08150D01*
X13550Y20350D02*
X13550Y18900D01*
X13500Y14350D02*
X13500Y08150D01*
X13500Y20350D02*
X13500Y18950D01*
X13450Y14350D02*
X13450Y08150D01*
X13450Y20350D02*
X13450Y19000D01*
X13400Y12300D02*
X13400Y08150D01*
X13400Y14350D02*
X13400Y14100D01*
X13400Y20350D02*
X13400Y19050D01*
X13350Y12300D02*
X13350Y08150D01*
X13350Y14350D02*
X13350Y14100D01*
X13350Y20350D02*
X13350Y19100D01*
X13300Y12300D02*
X13300Y08150D01*
X13300Y14350D02*
X13300Y14100D01*
X13300Y20350D02*
X13300Y19150D01*
X13250Y12300D02*
X13250Y08150D01*
X13250Y14350D02*
X13250Y14100D01*
X13250Y20350D02*
X13250Y19200D01*
X13200Y12300D02*
X13200Y08150D01*
X13200Y14350D02*
X13200Y14100D01*
X13200Y20350D02*
X13200Y19250D01*
X13150Y12300D02*
X13150Y08150D01*
X13150Y14350D02*
X13150Y14100D01*
X13150Y20350D02*
X13150Y19300D01*
X13100Y12300D02*
X13100Y08150D01*
X13100Y14350D02*
X13100Y14100D01*
X13100Y20350D02*
X13100Y19350D01*
X13050Y12300D02*
X13050Y08150D01*
X13050Y14350D02*
X13050Y14100D01*
X13050Y20350D02*
X13050Y19400D01*
X13000Y12300D02*
X13000Y08150D01*
X13000Y14350D02*
X13000Y14100D01*
X13000Y20350D02*
X13000Y19450D01*
X12950Y12300D02*
X12950Y08150D01*
X12950Y14350D02*
X12950Y14100D01*
X12950Y20350D02*
X12950Y19500D01*
X12900Y12300D02*
X12900Y08150D01*
X12900Y14350D02*
X12900Y14100D01*
X12900Y20350D02*
X12900Y19550D01*
X12850Y12300D02*
X12850Y08100D01*
X12850Y14350D02*
X12850Y14100D01*
X12850Y20350D02*
X12850Y19600D01*
X12800Y12300D02*
X12800Y08100D01*
X12800Y14350D02*
X12800Y14100D01*
X12800Y20350D02*
X12800Y19650D01*
X12750Y12300D02*
X12750Y08050D01*
X12750Y14350D02*
X12750Y14100D01*
X12750Y20350D02*
X12750Y19700D01*
X12700Y12300D02*
X12700Y08050D01*
X12700Y14350D02*
X12700Y14100D01*
X12700Y20350D02*
X12700Y19750D01*
X12650Y12300D02*
X12650Y08000D01*
X12650Y14350D02*
X12650Y14100D01*
X12650Y20350D02*
X12650Y19800D01*
X12600Y12300D02*
X12600Y08000D01*
X12600Y14350D02*
X12600Y14100D01*
X12600Y20350D02*
X12600Y19850D01*
X12550Y12300D02*
X12550Y07950D01*
X12550Y14350D02*
X12550Y14100D01*
X12550Y20350D02*
X12550Y19900D01*
X12500Y12300D02*
X12500Y07900D01*
X12500Y14350D02*
X12500Y14100D01*
X12500Y20350D02*
X12500Y19950D01*
X12450Y12300D02*
X12450Y07850D01*
X12450Y14350D02*
X12450Y14100D01*
X12450Y20350D02*
X12450Y20000D01*
X12400Y12300D02*
X12400Y07800D01*
X12400Y14350D02*
X12400Y14100D01*
X12400Y20350D02*
X12400Y20050D01*
X12350Y12300D02*
X12350Y07750D01*
X12350Y14350D02*
X12350Y14100D01*
X12350Y20350D02*
X12350Y20100D01*
X12300Y12300D02*
X12300Y07700D01*
X12300Y14350D02*
X12300Y14100D01*
X12300Y20350D02*
X12300Y20150D01*
X12250Y12300D02*
X12250Y07650D01*
X12250Y14350D02*
X12250Y14100D01*
X12250Y17500D02*
X12250Y16350D01*
X12250Y20350D02*
X12250Y20200D01*
X12200Y12300D02*
X12200Y07600D01*
X12200Y14350D02*
X12200Y14100D01*
X12200Y17550D02*
X12200Y16350D01*
X12200Y20350D02*
X12200Y20250D01*
X12150Y12300D02*
X12150Y07550D01*
X12150Y14350D02*
X12150Y14100D01*
X12150Y17600D02*
X12150Y16350D01*
X12150Y20350D02*
X12150Y20300D01*
X12100Y12300D02*
X12100Y07500D01*
X12100Y14350D02*
X12100Y14100D01*
X12100Y17650D02*
X12100Y16350D01*
X12050Y12300D02*
X12050Y07450D01*
X12050Y14350D02*
X12050Y14100D01*
X12050Y17700D02*
X12050Y16350D01*
X12000Y12300D02*
X12000Y07400D01*
X12000Y14350D02*
X12000Y14100D01*
X12000Y17750D02*
X12000Y16350D01*
X11950Y12300D02*
X11950Y07350D01*
X11950Y14350D02*
X11950Y14100D01*
X11950Y17800D02*
X11950Y16350D01*
X11900Y12300D02*
X11900Y07300D01*
X11900Y14350D02*
X11900Y14100D01*
X11900Y17850D02*
X11900Y16350D01*
X11850Y12300D02*
X11850Y07250D01*
X11850Y14350D02*
X11850Y14100D01*
X11850Y17900D02*
X11850Y16350D01*
X11800Y12300D02*
X11800Y07200D01*
X11800Y14350D02*
X11800Y14100D01*
X11800Y17950D02*
X11800Y16350D01*
X11750Y12300D02*
X11750Y07150D01*
X11750Y18000D02*
X11750Y14100D01*
X11700Y12300D02*
X11700Y07100D01*
X11700Y18050D02*
X11700Y14100D01*
X11650Y18100D02*
X11650Y07050D01*
X11600Y18150D02*
X11600Y07000D01*
X11550Y18200D02*
X11550Y06950D01*
X11500Y18250D02*
X11500Y06900D01*
X11450Y18300D02*
X11450Y06850D01*
X11400Y12950D02*
X11400Y06800D01*
X11400Y18350D02*
X11400Y13450D01*
X11350Y12800D02*
X11350Y06750D01*
X11350Y15350D02*
X11350Y13600D01*
X11350Y18400D02*
X11350Y18250D01*
X11300Y12700D02*
X11300Y06700D01*
X11300Y15350D02*
X11300Y13700D01*
X11300Y18450D02*
X11300Y18250D01*
X11250Y12650D02*
X11250Y06650D01*
X11250Y15350D02*
X11250Y13750D01*
X11250Y18500D02*
X11250Y18250D01*
X11200Y12600D02*
X11200Y06600D01*
X11200Y15350D02*
X11200Y13800D01*
X11200Y18550D02*
X11200Y18250D01*
X11150Y12550D02*
X11150Y06550D01*
X11150Y15350D02*
X11150Y13850D01*
X11150Y18600D02*
X11150Y18250D01*
X11100Y12500D02*
X11100Y06500D01*
X11100Y15350D02*
X11100Y13900D01*
X11100Y18650D02*
X11100Y18250D01*
X11050Y12450D02*
X11050Y06450D01*
X11050Y15350D02*
X11050Y13950D01*
X11050Y18700D02*
X11050Y18250D01*
X11000Y12400D02*
X11000Y06400D01*
X11000Y15350D02*
X11000Y14000D01*
X11000Y18750D02*
X11000Y18250D01*
X10950Y12400D02*
X10950Y06350D01*
X10950Y15350D02*
X10950Y14000D01*
X10950Y18800D02*
X10950Y18250D01*
X10900Y12350D02*
X10900Y06300D01*
X10900Y15350D02*
X10900Y14050D01*
X10900Y18850D02*
X10900Y18250D01*
X10850Y12350D02*
X10850Y06250D01*
X10850Y15350D02*
X10850Y14050D01*
X10850Y18900D02*
X10850Y18250D01*
X10800Y12350D02*
X10800Y06200D01*
X10800Y15350D02*
X10800Y14050D01*
X10800Y18950D02*
X10800Y18250D01*
X10750Y12300D02*
X10750Y06150D01*
X10750Y15350D02*
X10750Y14100D01*
X10750Y19000D02*
X10750Y18250D01*
X10700Y12300D02*
X10700Y06100D01*
X10700Y15350D02*
X10700Y14100D01*
X10700Y19050D02*
X10700Y18250D01*
X10650Y12300D02*
X10650Y06050D01*
X10650Y15350D02*
X10650Y14100D01*
X10650Y19100D02*
X10650Y18250D01*
X10600Y12300D02*
X10600Y06000D01*
X10600Y15350D02*
X10600Y14100D01*
X10600Y19150D02*
X10600Y18250D01*
X10550Y12300D02*
X10550Y05950D01*
X10550Y15350D02*
X10550Y14100D01*
X10550Y19200D02*
X10550Y18250D01*
X10500Y12300D02*
X10500Y05900D01*
X10500Y15350D02*
X10500Y14100D01*
X10500Y19250D02*
X10500Y18250D01*
X10450Y12300D02*
X10450Y05850D01*
X10450Y15350D02*
X10450Y14100D01*
X10450Y19300D02*
X10450Y18250D01*
X10400Y12300D02*
X10400Y05800D01*
X10400Y15350D02*
X10400Y14100D01*
X10400Y19350D02*
X10400Y18250D01*
X10350Y12300D02*
X10350Y05750D01*
X10350Y15350D02*
X10350Y14100D01*
X10350Y19400D02*
X10350Y18250D01*
X10300Y12350D02*
X10300Y05700D01*
X10300Y15350D02*
X10300Y14050D01*
X10300Y19450D02*
X10300Y18250D01*
X10250Y12350D02*
X10250Y05650D01*
X10250Y15350D02*
X10250Y14050D01*
X10250Y19500D02*
X10250Y18250D01*
X10200Y12350D02*
X10200Y05600D01*
X10200Y15350D02*
X10200Y14050D01*
X10200Y19550D02*
X10200Y18250D01*
X10150Y12400D02*
X10150Y05550D01*
X10150Y15350D02*
X10150Y14000D01*
X10150Y19600D02*
X10150Y18250D01*
X10100Y12400D02*
X10100Y05500D01*
X10100Y15350D02*
X10100Y14000D01*
X10100Y19650D02*
X10100Y18250D01*
X10050Y12450D02*
X10050Y05450D01*
X10050Y15350D02*
X10050Y13950D01*
X10050Y19700D02*
X10050Y18250D01*
X10000Y12500D02*
X10000Y05400D01*
X10000Y15350D02*
X10000Y13900D01*
X10000Y19750D02*
X10000Y18250D01*
X09950Y12550D02*
X09950Y05350D01*
X09950Y15350D02*
X09950Y13850D01*
X09950Y19800D02*
X09950Y18250D01*
X09900Y12600D02*
X09900Y05300D01*
X09900Y15350D02*
X09900Y13800D01*
X09900Y19800D02*
X09900Y18250D01*
X09850Y12650D02*
X09850Y05250D01*
X09850Y15350D02*
X09850Y13750D01*
X09850Y19800D02*
X09850Y18250D01*
X09800Y12700D02*
X09800Y05200D01*
X09800Y15350D02*
X09800Y13700D01*
X09800Y19800D02*
X09800Y18250D01*
X09750Y12800D02*
X09750Y05150D01*
X09750Y15350D02*
X09750Y13600D01*
X09750Y19800D02*
X09750Y18250D01*
X09700Y12950D02*
X09700Y05100D01*
X09700Y15350D02*
X09700Y13450D01*
X09700Y19800D02*
X09700Y18250D01*
X09650Y15350D02*
X09650Y05050D01*
X09650Y19800D02*
X09650Y18250D01*
X09600Y15350D02*
X09600Y05000D01*
X09600Y19800D02*
X09600Y18250D01*
X09550Y15350D02*
X09550Y04950D01*
X09550Y19800D02*
X09550Y18250D01*
X09500Y15350D02*
X09500Y04900D01*
X09500Y19800D02*
X09500Y18250D01*
X09450Y15350D02*
X09450Y04850D01*
X09450Y19800D02*
X09450Y18250D01*
X09400Y19800D02*
X09400Y04750D01*
X09350Y19800D02*
X09350Y04650D01*
X09300Y19800D02*
X09300Y04550D01*
X09250Y19800D02*
X09250Y03800D01*
X09200Y19800D02*
X09200Y03800D01*
X09150Y19800D02*
X09150Y03800D01*
X09100Y19800D02*
X09100Y03800D01*
X09050Y07200D02*
X09050Y03800D01*
X09050Y19800D02*
X09050Y07800D01*
X09000Y07100D02*
X09000Y03800D01*
X09000Y19800D02*
X09000Y07900D01*
X08950Y07050D02*
X08950Y03800D01*
X08950Y19800D02*
X08950Y07950D01*
X08900Y06950D02*
X08900Y03800D01*
X08900Y19800D02*
X08900Y08050D01*
X08850Y06900D02*
X08850Y03800D01*
X08850Y19800D02*
X08850Y08100D01*
X08800Y06900D02*
X08800Y03800D01*
X08800Y19800D02*
X08800Y08100D01*
X08750Y06850D02*
X08750Y03800D01*
X08750Y19800D02*
X08750Y08150D01*
X08700Y06800D02*
X08700Y03800D01*
X08700Y08800D02*
X08700Y08200D01*
X08700Y19800D02*
X08700Y10550D01*
X08650Y06800D02*
X08650Y03800D01*
X08650Y08700D02*
X08650Y08200D01*
X08650Y19800D02*
X08650Y10650D01*
X08600Y06750D02*
X08600Y03800D01*
X08600Y19800D02*
X08600Y10750D01*
X08550Y06750D02*
X08550Y03800D01*
X08550Y19800D02*
X08550Y10850D01*
X08500Y06750D02*
X08500Y03800D01*
X08500Y19800D02*
X08500Y10900D01*
X08450Y06750D02*
X08450Y03800D01*
X08450Y19800D02*
X08450Y10950D01*
X08400Y06750D02*
X08400Y03800D01*
X08400Y19800D02*
X08400Y11000D01*
X08350Y06750D02*
X08350Y03800D01*
X08350Y19800D02*
X08350Y11050D01*
X08300Y06750D02*
X08300Y03800D01*
X08300Y19800D02*
X08300Y11100D01*
X08250Y06750D02*
X08250Y03800D01*
X08250Y19800D02*
X08250Y11150D01*
X08200Y06750D02*
X08200Y03800D01*
X08200Y19800D02*
X08200Y11200D01*
X08150Y06750D02*
X08150Y03800D01*
X08150Y19800D02*
X08150Y11250D01*
X08100Y06750D02*
X08100Y03800D01*
X08100Y19800D02*
X08100Y11300D01*
X08050Y06800D02*
X08050Y03800D01*
X08050Y19800D02*
X08050Y11350D01*
X08000Y06800D02*
X08000Y03800D01*
X08000Y19800D02*
X08000Y11350D01*
X07950Y06850D02*
X07950Y03800D01*
X07950Y19800D02*
X07950Y11400D01*
X07900Y06900D02*
X07900Y03800D01*
X07900Y19800D02*
X07900Y11400D01*
X07850Y06900D02*
X07850Y03800D01*
X07850Y19800D02*
X07850Y11450D01*
X07800Y06950D02*
X07800Y03800D01*
X07800Y19800D02*
X07800Y11450D01*
X07750Y07050D02*
X07750Y03800D01*
X07750Y19800D02*
X07750Y11500D01*
X07700Y07100D02*
X07700Y03800D01*
X07700Y19800D02*
X07700Y11500D01*
X07650Y07200D02*
X07650Y03800D01*
X07650Y19800D02*
X07650Y11500D01*
X07600Y07200D02*
X07600Y03800D01*
X07600Y17500D02*
X07600Y11500D01*
X07600Y19800D02*
X07600Y19300D01*
X07550Y07200D02*
X07550Y03800D01*
X07550Y17500D02*
X07550Y11500D01*
X07550Y19800D02*
X07550Y19700D01*
X07500Y07200D02*
X07500Y03800D01*
X07500Y17500D02*
X07500Y11500D01*
X07450Y07200D02*
X07450Y03800D01*
X07450Y17500D02*
X07450Y11500D01*
X07400Y07200D02*
X07400Y05600D01*
X07400Y17500D02*
X07400Y11500D01*
X07350Y07200D02*
X07350Y07150D01*
X07350Y17500D02*
X07350Y11500D01*
X07300Y17500D02*
X07300Y11500D01*
X07250Y17500D02*
X07250Y11500D01*
X07200Y17500D02*
X07200Y11500D01*
X07150Y17500D02*
X07150Y11500D01*
X07100Y17500D02*
X07100Y11500D01*
X07050Y17500D02*
X07050Y11500D01*
X07000Y17500D02*
X07000Y11500D01*
X06950Y17500D02*
X06950Y11500D01*
X06900Y17500D02*
X06900Y11500D01*
X06850Y17500D02*
X06850Y11500D01*
X06800Y17500D02*
X06800Y11500D01*
X06750Y17500D02*
X06750Y11500D01*
X06700Y17500D02*
X06700Y11500D01*
X06650Y17500D02*
X06650Y11500D01*
X06600Y17500D02*
X06600Y11500D01*
X06550Y17500D02*
X06550Y11500D01*
X06500Y17500D02*
X06500Y11500D01*
X06450Y17500D02*
X06450Y11500D01*
X06400Y17500D02*
X06400Y11500D01*
X06350Y17500D02*
X06350Y11500D01*
X06300Y17500D02*
X06300Y11500D01*
X06250Y17500D02*
X06250Y11500D01*
X06200Y17500D02*
X06200Y11500D01*
X06150Y17500D02*
X06150Y11500D01*
X06100Y17500D02*
X06100Y11500D01*
X06050Y17500D02*
X06050Y11500D01*
X06000Y17500D02*
X06000Y11500D01*
X05950Y17500D02*
X05950Y11500D01*
X05950Y19800D02*
X05950Y19700D01*
X05900Y17500D02*
X05900Y11500D01*
X05900Y19800D02*
X05900Y19300D01*
X05850Y19800D02*
X05850Y11500D01*
X05800Y19800D02*
X05800Y11500D01*
X05750Y19800D02*
X05750Y11500D01*
X05700Y19800D02*
X05700Y11500D01*
X05650Y19800D02*
X05650Y11500D01*
X05600Y19800D02*
X05600Y11500D01*
X05550Y19800D02*
X05550Y11500D01*
X05500Y19800D02*
X05500Y11500D01*
X05450Y19800D02*
X05450Y11500D01*
X05400Y19800D02*
X05400Y11500D01*
X05350Y15350D02*
X05350Y11500D01*
X05350Y19800D02*
X05350Y18250D01*
X05300Y15350D02*
X05300Y11500D01*
X05300Y19800D02*
X05300Y18250D01*
X05250Y15350D02*
X05250Y11500D01*
X05250Y19800D02*
X05250Y18250D01*
X05200Y15350D02*
X05200Y11500D01*
X05200Y19800D02*
X05200Y18250D01*
X05150Y15350D02*
X05150Y11500D01*
X05150Y19800D02*
X05150Y18250D01*
X05100Y15350D02*
X05100Y11500D01*
X05100Y19800D02*
X05100Y18250D01*
X05050Y15350D02*
X05050Y11500D01*
X05050Y19800D02*
X05050Y18250D01*
X05000Y15350D02*
X05000Y11500D01*
X05000Y19800D02*
X05000Y18250D01*
X04950Y15350D02*
X04950Y11450D01*
X04950Y19800D02*
X04950Y18250D01*
X04900Y15350D02*
X04900Y11450D01*
X04900Y19800D02*
X04900Y18250D01*
X04850Y15350D02*
X04850Y11400D01*
X04850Y19800D02*
X04850Y18250D01*
X04800Y15350D02*
X04800Y11400D01*
X04800Y19800D02*
X04800Y18250D01*
X04750Y15350D02*
X04750Y11350D01*
X04750Y19800D02*
X04750Y18250D01*
X04700Y15350D02*
X04700Y11350D01*
X04700Y19800D02*
X04700Y18250D01*
X04650Y15350D02*
X04650Y11300D01*
X04650Y19800D02*
X04650Y18250D01*
X04600Y15350D02*
X04600Y11250D01*
X04600Y19800D02*
X04600Y18250D01*
X04550Y15350D02*
X04550Y11200D01*
X04550Y19800D02*
X04550Y18250D01*
X04500Y15350D02*
X04500Y11150D01*
X04500Y19800D02*
X04500Y18250D01*
X04450Y15350D02*
X04450Y11100D01*
X04450Y19800D02*
X04450Y18250D01*
X04400Y15350D02*
X04400Y11050D01*
X04400Y19800D02*
X04400Y18250D01*
X04350Y15350D02*
X04350Y11000D01*
X04350Y19800D02*
X04350Y18250D01*
X04300Y15350D02*
X04300Y10950D01*
X04300Y19800D02*
X04300Y18250D01*
X04250Y15350D02*
X04250Y10900D01*
X04250Y19800D02*
X04250Y18250D01*
X04200Y15350D02*
X04200Y10850D01*
X04200Y19800D02*
X04200Y18250D01*
X04150Y15350D02*
X04150Y10800D01*
X04150Y19800D02*
X04150Y18250D01*
X04100Y15350D02*
X04100Y10750D01*
X04100Y19800D02*
X04100Y18250D01*
X04050Y15350D02*
X04050Y10700D01*
X04050Y19750D02*
X04050Y18250D01*
X04000Y15350D02*
X04000Y10600D01*
X04000Y19650D02*
X04000Y18250D01*
X03950Y08700D02*
X03950Y08350D01*
X03950Y15350D02*
X03950Y10500D01*
X03950Y19600D02*
X03950Y18250D01*
X03900Y08800D02*
X03900Y08300D01*
X03900Y15350D02*
X03900Y10400D01*
X03900Y19550D02*
X03900Y18250D01*
X03850Y15350D02*
X03850Y08250D01*
X03850Y19500D02*
X03850Y18250D01*
X03800Y15350D02*
X03800Y08200D01*
X03800Y19450D02*
X03800Y18250D01*
X03750Y15350D02*
X03750Y08150D01*
X03750Y19450D02*
X03750Y18250D01*
X03700Y15350D02*
X03700Y08100D01*
X03700Y19400D02*
X03700Y18250D01*
X03650Y15350D02*
X03650Y08050D01*
X03650Y19400D02*
X03650Y18250D01*
X03600Y15350D02*
X03600Y08000D01*
X03600Y19350D02*
X03600Y18250D01*
X03550Y15350D02*
X03550Y07950D01*
X03550Y19350D02*
X03550Y18250D01*
X03500Y15350D02*
X03500Y11850D01*
X03500Y19300D02*
X03500Y18250D01*
X03450Y15350D02*
X03450Y11950D01*
X03450Y19300D02*
X03450Y18250D01*
X03400Y19300D02*
X03400Y12050D01*
X03350Y19300D02*
X03350Y12100D01*
X03300Y19300D02*
X03300Y12150D01*
X03250Y19300D02*
X03250Y12200D01*
X03200Y19300D02*
X03200Y12250D01*
X03150Y19300D02*
X03150Y12300D01*
X03100Y19300D02*
X03100Y12350D01*
X03050Y19300D02*
X03050Y12400D01*
X03000Y19300D02*
X03000Y12450D01*
X02950Y19350D02*
X02950Y12500D01*
X07450Y03800D02*
X09250Y03800D01*
X07450Y03850D02*
X09250Y03850D01*
X07450Y03900D02*
X09250Y03900D01*
X07450Y03950D02*
X09250Y03950D01*
X07450Y04000D02*
X09250Y04000D01*
X07450Y04050D02*
X09250Y04050D01*
X07450Y04100D02*
X09250Y04100D01*
X07450Y04150D02*
X09250Y04150D01*
X07450Y04200D02*
X09250Y04200D01*
X07450Y04250D02*
X09250Y04250D01*
X07450Y04300D02*
X09250Y04300D01*
X07450Y04350D02*
X09250Y04350D01*
X07450Y04400D02*
X09250Y04400D01*
X07450Y04450D02*
X09250Y04450D01*
X07450Y04500D02*
X09250Y04500D01*
X07450Y04550D02*
X09300Y04550D01*
X07450Y04600D02*
X09300Y04600D01*
X07450Y04650D02*
X09350Y04650D01*
X07450Y04700D02*
X09350Y04700D01*
X07450Y04750D02*
X09400Y04750D01*
X07450Y04800D02*
X09400Y04800D01*
X07450Y04850D02*
X09450Y04850D01*
X07450Y04900D02*
X09500Y04900D01*
X07450Y04950D02*
X09550Y04950D01*
X07450Y05000D02*
X09600Y05000D01*
X07450Y05050D02*
X09650Y05050D01*
X07450Y05100D02*
X09700Y05100D01*
X07450Y05150D02*
X09750Y05150D01*
X07450Y05200D02*
X09800Y05200D01*
X07450Y05250D02*
X09850Y05250D01*
X07450Y05300D02*
X09900Y05300D01*
X07450Y05350D02*
X09950Y05350D01*
X07450Y05400D02*
X10000Y05400D01*
X07450Y05450D02*
X10050Y05450D01*
X07450Y05500D02*
X10100Y05500D01*
X07450Y05550D02*
X10150Y05550D01*
X07400Y05600D02*
X10200Y05600D01*
X07400Y05650D02*
X10250Y05650D01*
X07400Y05700D02*
X10300Y05700D01*
X07400Y05750D02*
X10350Y05750D01*
X07400Y05800D02*
X10400Y05800D01*
X07400Y05850D02*
X10450Y05850D01*
X07400Y05900D02*
X10500Y05900D01*
X07400Y05950D02*
X10550Y05950D01*
X07400Y06000D02*
X10600Y06000D01*
X07400Y06050D02*
X10650Y06050D01*
X07400Y06100D02*
X10700Y06100D01*
X07400Y06150D02*
X10750Y06150D01*
X07400Y06200D02*
X10800Y06200D01*
X07400Y06250D02*
X10850Y06250D01*
X07400Y06300D02*
X10900Y06300D01*
X07400Y06350D02*
X10950Y06350D01*
X07400Y06400D02*
X11000Y06400D01*
X07400Y06450D02*
X11050Y06450D01*
X07400Y06500D02*
X11100Y06500D01*
X07400Y06550D02*
X11150Y06550D01*
X07400Y06600D02*
X11200Y06600D01*
X07400Y06650D02*
X11250Y06650D01*
X07400Y06700D02*
X11300Y06700D01*
X07400Y06750D02*
X11350Y06750D01*
X08650Y06800D02*
X11400Y06800D01*
X07400Y06800D02*
X08050Y06800D01*
X08750Y06850D02*
X11450Y06850D01*
X07400Y06850D02*
X07950Y06850D01*
X08800Y06900D02*
X11500Y06900D01*
X07400Y06900D02*
X07900Y06900D01*
X08900Y06950D02*
X11550Y06950D01*
X07400Y06950D02*
X07800Y06950D01*
X08950Y07000D02*
X11600Y07000D01*
X07400Y07000D02*
X07750Y07000D01*
X08950Y07050D02*
X11650Y07050D01*
X07400Y07050D02*
X07750Y07050D01*
X09000Y07100D02*
X11700Y07100D01*
X07400Y07100D02*
X07700Y07100D01*
X09050Y07150D02*
X11750Y07150D01*
X07350Y07150D02*
X07650Y07150D01*
X09050Y07200D02*
X11800Y07200D01*
X07350Y07200D02*
X07650Y07200D01*
X09100Y07250D02*
X11850Y07250D01*
X09100Y07300D02*
X11900Y07300D01*
X09100Y07350D02*
X11950Y07350D01*
X09100Y07400D02*
X12000Y07400D01*
X09100Y07450D02*
X12050Y07450D01*
X09100Y07500D02*
X12100Y07500D01*
X09100Y07550D02*
X12150Y07550D01*
X09100Y07600D02*
X12200Y07600D01*
X09100Y07650D02*
X12250Y07650D01*
X09100Y07700D02*
X12300Y07700D01*
X09100Y07750D02*
X12350Y07750D01*
X09050Y07800D02*
X12400Y07800D01*
X09050Y07850D02*
X12450Y07850D01*
X09000Y07900D02*
X12500Y07900D01*
X08950Y07950D02*
X12550Y07950D01*
X08950Y08000D02*
X12650Y08000D01*
X03550Y08000D02*
X03600Y08000D01*
X08900Y08050D02*
X12750Y08050D01*
X03550Y08050D02*
X03650Y08050D01*
X08800Y08100D02*
X12850Y08100D01*
X03550Y08100D02*
X03700Y08100D01*
X08750Y08150D02*
X18850Y08150D01*
X03550Y08150D02*
X03750Y08150D01*
X08650Y08200D02*
X18850Y08200D01*
X03550Y08200D02*
X03800Y08200D01*
X08650Y08250D02*
X18850Y08250D01*
X03550Y08250D02*
X03850Y08250D01*
X08650Y08300D02*
X17950Y08300D01*
X03550Y08300D02*
X03900Y08300D01*
X08650Y08350D02*
X17850Y08350D01*
X03550Y08350D02*
X03950Y08350D01*
X08650Y08400D02*
X17750Y08400D01*
X03550Y08400D02*
X03950Y08400D01*
X08650Y08450D02*
X17700Y08450D01*
X03550Y08450D02*
X03950Y08450D01*
X08650Y08500D02*
X17650Y08500D01*
X03550Y08500D02*
X03950Y08500D01*
X08650Y08550D02*
X17600Y08550D01*
X03550Y08550D02*
X03950Y08550D01*
X08650Y08600D02*
X17550Y08600D01*
X03550Y08600D02*
X03950Y08600D01*
X08650Y08650D02*
X17500Y08650D01*
X03550Y08650D02*
X03950Y08650D01*
X08650Y08700D02*
X17450Y08700D01*
X03550Y08700D02*
X03950Y08700D01*
X08700Y08750D02*
X17400Y08750D01*
X03550Y08750D02*
X03900Y08750D01*
X08700Y08800D02*
X17350Y08800D01*
X03550Y08800D02*
X03900Y08800D01*
X08750Y08850D02*
X17300Y08850D01*
X03550Y08850D02*
X03850Y08850D01*
X08750Y08900D02*
X17250Y08900D01*
X03550Y08900D02*
X03850Y08900D01*
X08750Y08950D02*
X17200Y08950D01*
X03550Y08950D02*
X03850Y08950D01*
X08750Y09000D02*
X17150Y09000D01*
X03550Y09000D02*
X03850Y09000D01*
X08750Y09050D02*
X17100Y09050D01*
X03550Y09050D02*
X03850Y09050D01*
X08750Y09100D02*
X17050Y09100D01*
X03550Y09100D02*
X03850Y09100D01*
X08750Y09150D02*
X17000Y09150D01*
X03550Y09150D02*
X03850Y09150D01*
X08750Y09200D02*
X16950Y09200D01*
X03550Y09200D02*
X03850Y09200D01*
X08750Y09250D02*
X16950Y09250D01*
X03550Y09250D02*
X03850Y09250D01*
X08750Y09300D02*
X16900Y09300D01*
X03550Y09300D02*
X03850Y09300D01*
X08750Y09350D02*
X16900Y09350D01*
X03550Y09350D02*
X03850Y09350D01*
X08750Y09400D02*
X16850Y09400D01*
X03550Y09400D02*
X03850Y09400D01*
X08750Y09450D02*
X16850Y09450D01*
X03550Y09450D02*
X03850Y09450D01*
X08750Y09500D02*
X16850Y09500D01*
X03550Y09500D02*
X03850Y09500D01*
X08750Y09550D02*
X16850Y09550D01*
X03550Y09550D02*
X03850Y09550D01*
X08750Y09600D02*
X16800Y09600D01*
X03550Y09600D02*
X03850Y09600D01*
X08750Y09650D02*
X16800Y09650D01*
X03550Y09650D02*
X03850Y09650D01*
X08750Y09700D02*
X16800Y09700D01*
X03550Y09700D02*
X03850Y09700D01*
X08750Y09750D02*
X16800Y09750D01*
X03550Y09750D02*
X03850Y09750D01*
X08750Y09800D02*
X16800Y09800D01*
X03550Y09800D02*
X03850Y09800D01*
X08750Y09850D02*
X16800Y09850D01*
X03550Y09850D02*
X03850Y09850D01*
X08750Y09900D02*
X16800Y09900D01*
X03550Y09900D02*
X03850Y09900D01*
X08750Y09950D02*
X16800Y09950D01*
X03550Y09950D02*
X03850Y09950D01*
X08750Y10000D02*
X16800Y10000D01*
X03550Y10000D02*
X03850Y10000D01*
X08750Y10050D02*
X16800Y10050D01*
X03550Y10050D02*
X03850Y10050D01*
X08750Y10100D02*
X16800Y10100D01*
X03550Y10100D02*
X03850Y10100D01*
X08750Y10150D02*
X16850Y10150D01*
X03550Y10150D02*
X03850Y10150D01*
X19200Y10200D02*
X20650Y10200D01*
X08750Y10200D02*
X16850Y10200D01*
X03550Y10200D02*
X03850Y10200D01*
X19150Y10250D02*
X20650Y10250D01*
X08750Y10250D02*
X16900Y10250D01*
X03550Y10250D02*
X03850Y10250D01*
X19100Y10300D02*
X20650Y10300D01*
X08750Y10300D02*
X16950Y10300D01*
X03550Y10300D02*
X03850Y10300D01*
X19100Y10350D02*
X20650Y10350D01*
X08750Y10350D02*
X16950Y10350D01*
X03550Y10350D02*
X03850Y10350D01*
X19050Y10400D02*
X20650Y10400D01*
X08750Y10400D02*
X17000Y10400D01*
X03550Y10400D02*
X03900Y10400D01*
X18950Y10450D02*
X20650Y10450D01*
X18000Y10450D02*
X18050Y10450D01*
X08750Y10450D02*
X17100Y10450D01*
X03550Y10450D02*
X03900Y10450D01*
X18900Y10500D02*
X20650Y10500D01*
X17950Y10500D02*
X18100Y10500D01*
X08750Y10500D02*
X17150Y10500D01*
X03550Y10500D02*
X03950Y10500D01*
X18800Y10550D02*
X20650Y10550D01*
X17850Y10550D02*
X18200Y10550D01*
X08700Y10550D02*
X17250Y10550D01*
X03550Y10550D02*
X03950Y10550D01*
X08700Y10600D02*
X20650Y10600D01*
X03550Y10600D02*
X04000Y10600D01*
X08650Y10650D02*
X20650Y10650D01*
X03550Y10650D02*
X04000Y10650D01*
X08650Y10700D02*
X20650Y10700D01*
X03550Y10700D02*
X04050Y10700D01*
X08600Y10750D02*
X20650Y10750D01*
X03550Y10750D02*
X04100Y10750D01*
X08600Y10800D02*
X20650Y10800D01*
X03550Y10800D02*
X04150Y10800D01*
X08550Y10850D02*
X20650Y10850D01*
X03550Y10850D02*
X04200Y10850D01*
X08500Y10900D02*
X20650Y10900D01*
X03550Y10900D02*
X04250Y10900D01*
X08450Y10950D02*
X20650Y10950D01*
X03550Y10950D02*
X04300Y10950D01*
X08400Y11000D02*
X20700Y11000D01*
X03550Y11000D02*
X04350Y11000D01*
X08350Y11050D02*
X20700Y11050D01*
X03550Y11050D02*
X04400Y11050D01*
X08300Y11100D02*
X20700Y11100D01*
X03550Y11100D02*
X04450Y11100D01*
X08250Y11150D02*
X20700Y11150D01*
X03550Y11150D02*
X04500Y11150D01*
X08200Y11200D02*
X20750Y11200D01*
X03550Y11200D02*
X04550Y11200D01*
X08150Y11250D02*
X20750Y11250D01*
X03550Y11250D02*
X04600Y11250D01*
X08100Y11300D02*
X20800Y11300D01*
X03550Y11300D02*
X04650Y11300D01*
X08000Y11350D02*
X20850Y11350D01*
X03550Y11350D02*
X04750Y11350D01*
X07900Y11400D02*
X20900Y11400D01*
X03550Y11400D02*
X04850Y11400D01*
X07800Y11450D02*
X20950Y11450D01*
X03550Y11450D02*
X04950Y11450D01*
X03550Y11500D02*
X21000Y11500D01*
X03550Y11550D02*
X21050Y11550D01*
X03550Y11600D02*
X21100Y11600D01*
X03550Y11650D02*
X21150Y11650D01*
X03550Y11700D02*
X21200Y11700D01*
X03550Y11750D02*
X21250Y11750D01*
X03550Y11800D02*
X21300Y11800D01*
X03500Y11850D02*
X21350Y11850D01*
X03500Y11900D02*
X21400Y11900D01*
X03450Y11950D02*
X21450Y11950D01*
X03450Y12000D02*
X21500Y12000D01*
X03400Y12050D02*
X21550Y12050D01*
X03350Y12100D02*
X21600Y12100D01*
X03300Y12150D02*
X21700Y12150D01*
X03250Y12200D02*
X21900Y12200D01*
X03200Y12250D02*
X26050Y12250D01*
X03150Y12300D02*
X26050Y12300D01*
X13450Y12350D02*
X26050Y12350D01*
X10800Y12350D02*
X11650Y12350D01*
X03100Y12350D02*
X10300Y12350D01*
X13450Y12400D02*
X26050Y12400D01*
X10950Y12400D02*
X11650Y12400D01*
X03050Y12400D02*
X10150Y12400D01*
X13450Y12450D02*
X26050Y12450D01*
X11050Y12450D02*
X11650Y12450D01*
X03000Y12450D02*
X10050Y12450D01*
X13450Y12500D02*
X26050Y12500D01*
X11100Y12500D02*
X11650Y12500D01*
X02950Y12500D02*
X10000Y12500D01*
X13450Y12550D02*
X26050Y12550D01*
X11150Y12550D02*
X11650Y12550D01*
X02950Y12550D02*
X09950Y12550D01*
X13450Y12600D02*
X26050Y12600D01*
X11200Y12600D02*
X11650Y12600D01*
X02950Y12600D02*
X09900Y12600D01*
X13450Y12650D02*
X26050Y12650D01*
X11250Y12650D02*
X11650Y12650D01*
X02950Y12650D02*
X09850Y12650D01*
X13450Y12700D02*
X26050Y12700D01*
X11300Y12700D02*
X11650Y12700D01*
X02950Y12700D02*
X09800Y12700D01*
X13450Y12750D02*
X26050Y12750D01*
X11350Y12750D02*
X11650Y12750D01*
X02950Y12750D02*
X09750Y12750D01*
X13450Y12800D02*
X26050Y12800D01*
X11350Y12800D02*
X11650Y12800D01*
X02950Y12800D02*
X09750Y12800D01*
X13450Y12850D02*
X26050Y12850D01*
X11400Y12850D02*
X11650Y12850D01*
X02950Y12850D02*
X09700Y12850D01*
X13450Y12900D02*
X26050Y12900D01*
X11400Y12900D02*
X11650Y12900D01*
X02950Y12900D02*
X09700Y12900D01*
X13450Y12950D02*
X26050Y12950D01*
X11400Y12950D02*
X11650Y12950D01*
X02950Y12950D02*
X09700Y12950D01*
X13450Y13000D02*
X26050Y13000D01*
X11450Y13000D02*
X11650Y13000D01*
X02950Y13000D02*
X09650Y13000D01*
X13450Y13050D02*
X26050Y13050D01*
X11450Y13050D02*
X11650Y13050D01*
X02950Y13050D02*
X09650Y13050D01*
X13450Y13100D02*
X26050Y13100D01*
X11450Y13100D02*
X11650Y13100D01*
X02950Y13100D02*
X09650Y13100D01*
X13450Y13150D02*
X26050Y13150D01*
X11450Y13150D02*
X11650Y13150D01*
X02950Y13150D02*
X09650Y13150D01*
X13450Y13200D02*
X26050Y13200D01*
X11450Y13200D02*
X11650Y13200D01*
X02950Y13200D02*
X09650Y13200D01*
X13450Y13250D02*
X26050Y13250D01*
X11450Y13250D02*
X11650Y13250D01*
X02950Y13250D02*
X09650Y13250D01*
X13450Y13300D02*
X26050Y13300D01*
X11450Y13300D02*
X11650Y13300D01*
X02950Y13300D02*
X09650Y13300D01*
X13450Y13350D02*
X26050Y13350D01*
X11450Y13350D02*
X11650Y13350D01*
X02950Y13350D02*
X09650Y13350D01*
X13450Y13400D02*
X26050Y13400D01*
X11450Y13400D02*
X11650Y13400D01*
X02950Y13400D02*
X09650Y13400D01*
X13450Y13450D02*
X26050Y13450D01*
X11400Y13450D02*
X11650Y13450D01*
X02950Y13450D02*
X09700Y13450D01*
X13450Y13500D02*
X26050Y13500D01*
X11400Y13500D02*
X11650Y13500D01*
X02950Y13500D02*
X09700Y13500D01*
X13450Y13550D02*
X26050Y13550D01*
X11400Y13550D02*
X11650Y13550D01*
X02950Y13550D02*
X09700Y13550D01*
X13450Y13600D02*
X26050Y13600D01*
X11350Y13600D02*
X11650Y13600D01*
X02950Y13600D02*
X09750Y13600D01*
X13450Y13650D02*
X26050Y13650D01*
X11350Y13650D02*
X11650Y13650D01*
X02950Y13650D02*
X09750Y13650D01*
X13450Y13700D02*
X26050Y13700D01*
X11300Y13700D02*
X11650Y13700D01*
X02950Y13700D02*
X09800Y13700D01*
X13450Y13750D02*
X26050Y13750D01*
X11250Y13750D02*
X11650Y13750D01*
X02950Y13750D02*
X09850Y13750D01*
X13450Y13800D02*
X26050Y13800D01*
X11200Y13800D02*
X11650Y13800D01*
X02950Y13800D02*
X09900Y13800D01*
X13450Y13850D02*
X26050Y13850D01*
X11150Y13850D02*
X11650Y13850D01*
X02950Y13850D02*
X09950Y13850D01*
X13450Y13900D02*
X26050Y13900D01*
X11100Y13900D02*
X11650Y13900D01*
X02950Y13900D02*
X10000Y13900D01*
X13450Y13950D02*
X26050Y13950D01*
X11050Y13950D02*
X11650Y13950D01*
X02950Y13950D02*
X10050Y13950D01*
X13450Y14000D02*
X26050Y14000D01*
X10950Y14000D02*
X11650Y14000D01*
X02950Y14000D02*
X10150Y14000D01*
X13450Y14050D02*
X26050Y14050D01*
X10800Y14050D02*
X11650Y14050D01*
X02950Y14050D02*
X10300Y14050D01*
X02950Y14100D02*
X26050Y14100D01*
X02950Y14150D02*
X26050Y14150D01*
X02950Y14200D02*
X26050Y14200D01*
X02950Y14250D02*
X26050Y14250D01*
X02950Y14300D02*
X26050Y14300D01*
X02950Y14350D02*
X26050Y14350D01*
X14650Y14400D02*
X26050Y14400D01*
X02950Y14400D02*
X11750Y14400D01*
X14650Y14450D02*
X26050Y14450D01*
X02950Y14450D02*
X11750Y14450D01*
X14650Y14500D02*
X26050Y14500D01*
X02950Y14500D02*
X11750Y14500D01*
X14650Y14550D02*
X26050Y14550D01*
X02950Y14550D02*
X11750Y14550D01*
X14650Y14600D02*
X26050Y14600D01*
X02950Y14600D02*
X11750Y14600D01*
X14650Y14650D02*
X26050Y14650D01*
X02950Y14650D02*
X11750Y14650D01*
X14650Y14700D02*
X26050Y14700D01*
X02950Y14700D02*
X11750Y14700D01*
X14650Y14750D02*
X26050Y14750D01*
X02950Y14750D02*
X11750Y14750D01*
X14650Y14800D02*
X26050Y14800D01*
X02950Y14800D02*
X11750Y14800D01*
X14650Y14850D02*
X26050Y14850D01*
X02950Y14850D02*
X11750Y14850D01*
X14650Y14900D02*
X26050Y14900D01*
X02950Y14900D02*
X11750Y14900D01*
X14650Y14950D02*
X26050Y14950D01*
X02950Y14950D02*
X11750Y14950D01*
X14650Y15000D02*
X26050Y15000D01*
X02950Y15000D02*
X11750Y15000D01*
X14650Y15050D02*
X26050Y15050D01*
X02950Y15050D02*
X11750Y15050D01*
X14650Y15100D02*
X26050Y15100D01*
X02950Y15100D02*
X11750Y15100D01*
X14650Y15150D02*
X26050Y15150D01*
X02950Y15150D02*
X11750Y15150D01*
X14650Y15200D02*
X26050Y15200D01*
X02950Y15200D02*
X11750Y15200D01*
X14650Y15250D02*
X26050Y15250D01*
X02950Y15250D02*
X11750Y15250D01*
X14650Y15300D02*
X26050Y15300D01*
X02950Y15300D02*
X11750Y15300D01*
X14650Y15350D02*
X26050Y15350D01*
X02950Y15350D02*
X11750Y15350D01*
X14650Y15400D02*
X26050Y15400D01*
X11400Y15400D02*
X11750Y15400D01*
X05400Y15400D02*
X09400Y15400D01*
X02950Y15400D02*
X03400Y15400D01*
X14650Y15450D02*
X26050Y15450D01*
X11400Y15450D02*
X11750Y15450D01*
X05400Y15450D02*
X09400Y15450D01*
X02950Y15450D02*
X03400Y15450D01*
X14650Y15500D02*
X26050Y15500D01*
X11400Y15500D02*
X11750Y15500D01*
X05400Y15500D02*
X09400Y15500D01*
X02950Y15500D02*
X03400Y15500D01*
X14650Y15550D02*
X26050Y15550D01*
X11400Y15550D02*
X11750Y15550D01*
X05400Y15550D02*
X09400Y15550D01*
X02950Y15550D02*
X03400Y15550D01*
X14650Y15600D02*
X26050Y15600D01*
X11400Y15600D02*
X11750Y15600D01*
X05400Y15600D02*
X09400Y15600D01*
X02950Y15600D02*
X03400Y15600D01*
X14650Y15650D02*
X26050Y15650D01*
X11400Y15650D02*
X11750Y15650D01*
X05400Y15650D02*
X09400Y15650D01*
X02950Y15650D02*
X03400Y15650D01*
X14650Y15700D02*
X26050Y15700D01*
X11400Y15700D02*
X11750Y15700D01*
X05400Y15700D02*
X09400Y15700D01*
X02950Y15700D02*
X03400Y15700D01*
X14650Y15750D02*
X26050Y15750D01*
X11400Y15750D02*
X11750Y15750D01*
X05400Y15750D02*
X09400Y15750D01*
X02950Y15750D02*
X03400Y15750D01*
X14650Y15800D02*
X26050Y15800D01*
X11400Y15800D02*
X11750Y15800D01*
X05400Y15800D02*
X09400Y15800D01*
X02950Y15800D02*
X03400Y15800D01*
X14650Y15850D02*
X26050Y15850D01*
X11400Y15850D02*
X11750Y15850D01*
X05400Y15850D02*
X09400Y15850D01*
X02950Y15850D02*
X03400Y15850D01*
X14650Y15900D02*
X26050Y15900D01*
X11400Y15900D02*
X11750Y15900D01*
X05400Y15900D02*
X09400Y15900D01*
X02950Y15900D02*
X03400Y15900D01*
X14650Y15950D02*
X26050Y15950D01*
X11400Y15950D02*
X11750Y15950D01*
X05400Y15950D02*
X09400Y15950D01*
X02950Y15950D02*
X03400Y15950D01*
X14650Y16000D02*
X26050Y16000D01*
X11400Y16000D02*
X11750Y16000D01*
X05400Y16000D02*
X09400Y16000D01*
X02950Y16000D02*
X03400Y16000D01*
X14650Y16050D02*
X26050Y16050D01*
X11400Y16050D02*
X11750Y16050D01*
X05400Y16050D02*
X09400Y16050D01*
X02950Y16050D02*
X03400Y16050D01*
X14650Y16100D02*
X26050Y16100D01*
X11400Y16100D02*
X11750Y16100D01*
X05400Y16100D02*
X09400Y16100D01*
X02950Y16100D02*
X03400Y16100D01*
X14650Y16150D02*
X26050Y16150D01*
X11400Y16150D02*
X11750Y16150D01*
X05400Y16150D02*
X09400Y16150D01*
X02950Y16150D02*
X03400Y16150D01*
X14650Y16200D02*
X26050Y16200D01*
X11400Y16200D02*
X11750Y16200D01*
X05400Y16200D02*
X09400Y16200D01*
X02950Y16200D02*
X03400Y16200D01*
X14650Y16250D02*
X26050Y16250D01*
X11400Y16250D02*
X11750Y16250D01*
X05400Y16250D02*
X09400Y16250D01*
X02950Y16250D02*
X03400Y16250D01*
X14650Y16300D02*
X26050Y16300D01*
X11400Y16300D02*
X11750Y16300D01*
X05400Y16300D02*
X09400Y16300D01*
X02950Y16300D02*
X03400Y16300D01*
X14150Y16350D02*
X26050Y16350D01*
X11400Y16350D02*
X12250Y16350D01*
X05400Y16350D02*
X09400Y16350D01*
X02950Y16350D02*
X03400Y16350D01*
X14150Y16400D02*
X26050Y16400D01*
X11400Y16400D02*
X12250Y16400D01*
X05400Y16400D02*
X09400Y16400D01*
X02950Y16400D02*
X03400Y16400D01*
X14150Y16450D02*
X26050Y16450D01*
X11400Y16450D02*
X12250Y16450D01*
X05400Y16450D02*
X09400Y16450D01*
X02950Y16450D02*
X03400Y16450D01*
X14150Y16500D02*
X26050Y16500D01*
X11400Y16500D02*
X12250Y16500D01*
X05400Y16500D02*
X09400Y16500D01*
X02950Y16500D02*
X03400Y16500D01*
X14150Y16550D02*
X26050Y16550D01*
X11400Y16550D02*
X12250Y16550D01*
X05400Y16550D02*
X09400Y16550D01*
X02950Y16550D02*
X03400Y16550D01*
X14150Y16600D02*
X26050Y16600D01*
X11400Y16600D02*
X12250Y16600D01*
X05400Y16600D02*
X09400Y16600D01*
X02950Y16600D02*
X03400Y16600D01*
X14150Y16650D02*
X26050Y16650D01*
X11400Y16650D02*
X12250Y16650D01*
X05400Y16650D02*
X09400Y16650D01*
X02950Y16650D02*
X03400Y16650D01*
X14150Y16700D02*
X26050Y16700D01*
X11400Y16700D02*
X12250Y16700D01*
X05400Y16700D02*
X09400Y16700D01*
X02950Y16700D02*
X03400Y16700D01*
X14150Y16750D02*
X26050Y16750D01*
X11400Y16750D02*
X12250Y16750D01*
X05400Y16750D02*
X09400Y16750D01*
X02950Y16750D02*
X03400Y16750D01*
X14150Y16800D02*
X26050Y16800D01*
X11400Y16800D02*
X12250Y16800D01*
X05400Y16800D02*
X09400Y16800D01*
X02950Y16800D02*
X03400Y16800D01*
X14150Y16850D02*
X26050Y16850D01*
X11400Y16850D02*
X12250Y16850D01*
X05400Y16850D02*
X09400Y16850D01*
X02950Y16850D02*
X03400Y16850D01*
X14150Y16900D02*
X26050Y16900D01*
X11400Y16900D02*
X12250Y16900D01*
X05400Y16900D02*
X09400Y16900D01*
X02950Y16900D02*
X03400Y16900D01*
X14150Y16950D02*
X26050Y16950D01*
X11400Y16950D02*
X12250Y16950D01*
X05400Y16950D02*
X09400Y16950D01*
X02950Y16950D02*
X03400Y16950D01*
X14150Y17000D02*
X26050Y17000D01*
X11400Y17000D02*
X12250Y17000D01*
X05400Y17000D02*
X09400Y17000D01*
X02950Y17000D02*
X03400Y17000D01*
X14150Y17050D02*
X26050Y17050D01*
X11400Y17050D02*
X12250Y17050D01*
X05400Y17050D02*
X09400Y17050D01*
X02950Y17050D02*
X03400Y17050D01*
X14150Y17100D02*
X26050Y17100D01*
X11400Y17100D02*
X12250Y17100D01*
X05400Y17100D02*
X09400Y17100D01*
X02950Y17100D02*
X03400Y17100D01*
X14150Y17150D02*
X26050Y17150D01*
X11400Y17150D02*
X12250Y17150D01*
X05400Y17150D02*
X09400Y17150D01*
X02950Y17150D02*
X03400Y17150D01*
X14150Y17200D02*
X26050Y17200D01*
X11400Y17200D02*
X12250Y17200D01*
X05400Y17200D02*
X09400Y17200D01*
X02950Y17200D02*
X03400Y17200D01*
X14150Y17250D02*
X26050Y17250D01*
X11400Y17250D02*
X12250Y17250D01*
X05400Y17250D02*
X09400Y17250D01*
X02950Y17250D02*
X03400Y17250D01*
X14150Y17300D02*
X26050Y17300D01*
X11400Y17300D02*
X12250Y17300D01*
X05400Y17300D02*
X09400Y17300D01*
X02950Y17300D02*
X03400Y17300D01*
X14150Y17350D02*
X26050Y17350D01*
X11400Y17350D02*
X12250Y17350D01*
X05400Y17350D02*
X09400Y17350D01*
X02950Y17350D02*
X03400Y17350D01*
X14150Y17400D02*
X26050Y17400D01*
X11400Y17400D02*
X12250Y17400D01*
X05400Y17400D02*
X09400Y17400D01*
X02950Y17400D02*
X03400Y17400D01*
X14150Y17450D02*
X26050Y17450D01*
X11400Y17450D02*
X12250Y17450D01*
X05400Y17450D02*
X09400Y17450D01*
X02950Y17450D02*
X03400Y17450D01*
X14150Y17500D02*
X26050Y17500D01*
X11400Y17500D02*
X12250Y17500D01*
X05400Y17500D02*
X09400Y17500D01*
X02950Y17500D02*
X03400Y17500D01*
X14150Y17550D02*
X26050Y17550D01*
X11400Y17550D02*
X12200Y17550D01*
X07650Y17550D02*
X09400Y17550D01*
X05400Y17550D02*
X05850Y17550D01*
X02950Y17550D02*
X03400Y17550D01*
X14150Y17600D02*
X26050Y17600D01*
X11400Y17600D02*
X12150Y17600D01*
X07650Y17600D02*
X09400Y17600D01*
X05400Y17600D02*
X05850Y17600D01*
X02950Y17600D02*
X03400Y17600D01*
X14150Y17650D02*
X26050Y17650D01*
X11400Y17650D02*
X12100Y17650D01*
X07650Y17650D02*
X09400Y17650D01*
X05400Y17650D02*
X05850Y17650D01*
X02950Y17650D02*
X03400Y17650D01*
X14150Y17700D02*
X26050Y17700D01*
X11400Y17700D02*
X12050Y17700D01*
X07650Y17700D02*
X09400Y17700D01*
X05400Y17700D02*
X05850Y17700D01*
X02950Y17700D02*
X03400Y17700D01*
X14150Y17750D02*
X26050Y17750D01*
X11400Y17750D02*
X12000Y17750D01*
X07650Y17750D02*
X09400Y17750D01*
X05400Y17750D02*
X05850Y17750D01*
X02950Y17750D02*
X03400Y17750D01*
X14150Y17800D02*
X26050Y17800D01*
X11400Y17800D02*
X11950Y17800D01*
X07650Y17800D02*
X09400Y17800D01*
X05400Y17800D02*
X05850Y17800D01*
X02950Y17800D02*
X03400Y17800D01*
X14150Y17850D02*
X26050Y17850D01*
X11400Y17850D02*
X11900Y17850D01*
X07650Y17850D02*
X09400Y17850D01*
X05400Y17850D02*
X05850Y17850D01*
X02950Y17850D02*
X03400Y17850D01*
X14150Y17900D02*
X26050Y17900D01*
X11400Y17900D02*
X11850Y17900D01*
X07650Y17900D02*
X09400Y17900D01*
X05400Y17900D02*
X05850Y17900D01*
X02950Y17900D02*
X03400Y17900D01*
X14150Y17950D02*
X26050Y17950D01*
X11400Y17950D02*
X11800Y17950D01*
X07650Y17950D02*
X09400Y17950D01*
X05400Y17950D02*
X05850Y17950D01*
X02950Y17950D02*
X03400Y17950D01*
X14150Y18000D02*
X26050Y18000D01*
X11400Y18000D02*
X11750Y18000D01*
X07650Y18000D02*
X09400Y18000D01*
X05400Y18000D02*
X05850Y18000D01*
X02950Y18000D02*
X03400Y18000D01*
X14150Y18050D02*
X26050Y18050D01*
X11400Y18050D02*
X11700Y18050D01*
X07650Y18050D02*
X09400Y18050D01*
X05400Y18050D02*
X05850Y18050D01*
X02950Y18050D02*
X03400Y18050D01*
X14150Y18100D02*
X26050Y18100D01*
X11400Y18100D02*
X11650Y18100D01*
X07650Y18100D02*
X09400Y18100D01*
X05400Y18100D02*
X05850Y18100D01*
X02950Y18100D02*
X03400Y18100D01*
X14100Y18150D02*
X26050Y18150D01*
X11400Y18150D02*
X11600Y18150D01*
X07650Y18150D02*
X09400Y18150D01*
X05400Y18150D02*
X05850Y18150D01*
X02950Y18150D02*
X03400Y18150D01*
X14100Y18200D02*
X26050Y18200D01*
X11400Y18200D02*
X11550Y18200D01*
X07650Y18200D02*
X09400Y18200D01*
X05400Y18200D02*
X05850Y18200D01*
X02950Y18200D02*
X03400Y18200D01*
X14100Y18250D02*
X26050Y18250D01*
X07650Y18250D02*
X11500Y18250D01*
X02950Y18250D02*
X05850Y18250D01*
X14050Y18300D02*
X26050Y18300D01*
X07650Y18300D02*
X11450Y18300D01*
X02950Y18300D02*
X05850Y18300D01*
X14050Y18350D02*
X26050Y18350D01*
X07650Y18350D02*
X11400Y18350D01*
X02950Y18350D02*
X05850Y18350D01*
X14000Y18400D02*
X26050Y18400D01*
X07650Y18400D02*
X11350Y18400D01*
X02950Y18400D02*
X05850Y18400D01*
X13950Y18450D02*
X26050Y18450D01*
X07650Y18450D02*
X11300Y18450D01*
X02950Y18450D02*
X05850Y18450D01*
X13950Y18500D02*
X26050Y18500D01*
X07650Y18500D02*
X11250Y18500D01*
X02950Y18500D02*
X05850Y18500D01*
X13900Y18550D02*
X26050Y18550D01*
X07650Y18550D02*
X11200Y18550D01*
X02950Y18550D02*
X05850Y18550D01*
X13850Y18600D02*
X26050Y18600D01*
X07650Y18600D02*
X11150Y18600D01*
X02950Y18600D02*
X05850Y18600D01*
X13800Y18650D02*
X26050Y18650D01*
X07650Y18650D02*
X11100Y18650D01*
X02950Y18650D02*
X05850Y18650D01*
X13750Y18700D02*
X26050Y18700D01*
X07650Y18700D02*
X11050Y18700D01*
X02950Y18700D02*
X05850Y18700D01*
X13700Y18750D02*
X26050Y18750D01*
X07650Y18750D02*
X11000Y18750D01*
X02950Y18750D02*
X05850Y18750D01*
X13650Y18800D02*
X26050Y18800D01*
X07650Y18800D02*
X10950Y18800D01*
X02950Y18800D02*
X05850Y18800D01*
X13600Y18850D02*
X26050Y18850D01*
X07650Y18850D02*
X10900Y18850D01*
X02950Y18850D02*
X05850Y18850D01*
X13550Y18900D02*
X26050Y18900D01*
X07650Y18900D02*
X10850Y18900D01*
X02950Y18900D02*
X05850Y18900D01*
X13500Y18950D02*
X26050Y18950D01*
X07650Y18950D02*
X10800Y18950D01*
X02950Y18950D02*
X05850Y18950D01*
X13450Y19000D02*
X26050Y19000D01*
X07650Y19000D02*
X10750Y19000D01*
X02950Y19000D02*
X05850Y19000D01*
X13400Y19050D02*
X26050Y19050D01*
X07650Y19050D02*
X10700Y19050D01*
X02950Y19050D02*
X05850Y19050D01*
X13350Y19100D02*
X26050Y19100D01*
X07650Y19100D02*
X10650Y19100D01*
X02950Y19100D02*
X05850Y19100D01*
X13300Y19150D02*
X26050Y19150D01*
X07650Y19150D02*
X10600Y19150D01*
X02950Y19150D02*
X05850Y19150D01*
X13250Y19200D02*
X26050Y19200D01*
X07650Y19200D02*
X10550Y19200D01*
X02950Y19200D02*
X05850Y19200D01*
X13200Y19250D02*
X26050Y19250D01*
X07650Y19250D02*
X10500Y19250D01*
X02950Y19250D02*
X05850Y19250D01*
X13150Y19300D02*
X26050Y19300D01*
X07600Y19300D02*
X10450Y19300D01*
X02950Y19300D02*
X05900Y19300D01*
X13100Y19350D02*
X26050Y19350D01*
X07600Y19350D02*
X10400Y19350D01*
X03550Y19350D02*
X05900Y19350D01*
X13050Y19400D02*
X26050Y19400D01*
X07600Y19400D02*
X10350Y19400D01*
X03650Y19400D02*
X05900Y19400D01*
X13000Y19450D02*
X26050Y19450D01*
X07600Y19450D02*
X10300Y19450D01*
X03750Y19450D02*
X05900Y19450D01*
X12950Y19500D02*
X26050Y19500D01*
X07600Y19500D02*
X10250Y19500D01*
X03850Y19500D02*
X05900Y19500D01*
X12900Y19550D02*
X26050Y19550D01*
X07600Y19550D02*
X10200Y19550D01*
X03900Y19550D02*
X05900Y19550D01*
X12850Y19600D02*
X26050Y19600D01*
X07600Y19600D02*
X10150Y19600D01*
X03950Y19600D02*
X05900Y19600D01*
X12800Y19650D02*
X26050Y19650D01*
X07600Y19650D02*
X10100Y19650D01*
X04000Y19650D02*
X05900Y19650D01*
X12750Y19700D02*
X26050Y19700D01*
X07550Y19700D02*
X10050Y19700D01*
X04050Y19700D02*
X05950Y19700D01*
X12700Y19750D02*
X26050Y19750D01*
X07550Y19750D02*
X10000Y19750D01*
X04050Y19750D02*
X05950Y19750D01*
X12650Y19800D02*
X26050Y19800D01*
X07500Y19800D02*
X09950Y19800D01*
X04100Y19800D02*
X06000Y19800D01*
X12600Y19850D02*
X26050Y19850D01*
X12550Y19900D02*
X26050Y19900D01*
X12500Y19950D02*
X26050Y19950D01*
X12450Y20000D02*
X26050Y20000D01*
X12400Y20050D02*
X26050Y20050D01*
X12350Y20100D02*
X26050Y20100D01*
X12300Y20150D02*
X26050Y20150D01*
X12250Y20200D02*
X26050Y20200D01*
X12200Y20250D02*
X26050Y20250D01*
X12150Y20300D02*
X26050Y20300D01*
X12100Y20350D02*
X26050Y20350D01*
X14650Y20400D02*
X26050Y20400D01*
X14650Y20450D02*
X26050Y20450D01*
X14650Y20500D02*
X26050Y20500D01*
X14650Y20550D02*
X26050Y20550D01*
X14650Y20600D02*
X26050Y20600D01*
X14650Y20650D02*
X26050Y20650D01*
X14650Y20700D02*
X26050Y20700D01*
X14650Y20750D02*
X26050Y20750D01*
X14650Y20800D02*
X26050Y20800D01*
X14650Y20850D02*
X26050Y20850D01*
X14650Y20900D02*
X26050Y20900D01*
X14650Y20950D02*
X26050Y20950D01*
X14650Y21000D02*
X26050Y21000D01*
X14650Y21050D02*
X26050Y21050D01*
X14650Y21100D02*
X26050Y21100D01*
X14650Y21150D02*
X26050Y21150D01*
X14650Y21200D02*
X26050Y21200D01*
X14650Y21250D02*
X26050Y21250D01*
X14650Y21300D02*
X26050Y21300D01*
X14650Y21350D02*
X26050Y21350D01*
X14650Y21400D02*
X26050Y21400D01*
X14650Y21450D02*
X26050Y21450D01*
X14650Y21500D02*
X26050Y21500D01*
X14650Y21550D02*
X26050Y21550D01*
X14650Y21600D02*
X26050Y21600D01*
X14650Y21650D02*
X26050Y21650D01*
X14650Y21700D02*
X26050Y21700D01*
X14650Y21750D02*
X26050Y21750D01*
X14650Y21800D02*
X26050Y21800D01*
X14650Y21850D02*
X26050Y21850D01*
X14650Y21900D02*
X26050Y21900D01*
X14650Y21950D02*
X26050Y21950D01*
X14650Y22000D02*
X26050Y22000D01*
X14650Y22050D02*
X26050Y22050D01*
X14650Y22100D02*
X26050Y22100D01*
X14650Y22150D02*
X26050Y22150D01*
X14650Y22200D02*
X26050Y22200D01*
X14650Y22250D02*
X26050Y22250D01*
X14650Y22300D02*
X26050Y22300D01*
X14250Y22350D02*
X26050Y22350D01*
X14250Y22400D02*
X26050Y22400D01*
X14250Y22450D02*
X26050Y22450D01*
X14250Y22500D02*
X26050Y22500D01*
X14250Y22550D02*
X26050Y22550D01*
X14250Y22600D02*
X26050Y22600D01*
X14250Y22650D02*
X26050Y22650D01*
X14250Y22700D02*
X26050Y22700D01*
X14250Y22750D02*
X26050Y22750D01*
X14250Y22800D02*
X26050Y22800D01*
X14250Y22850D02*
X26050Y22850D01*
X14250Y22900D02*
X26050Y22900D01*
X14250Y22950D02*
X26050Y22950D01*
X14250Y23000D02*
X25950Y23000D01*
X14250Y23050D02*
X25950Y23050D01*
X14250Y23100D02*
X25950Y23100D01*
X14250Y23150D02*
X25950Y23150D01*
X14250Y23200D02*
X25950Y23200D01*
X14250Y23250D02*
X25950Y23250D01*
X14250Y23300D02*
X25950Y23300D01*
X14250Y23350D02*
X25950Y23350D01*
X14250Y23400D02*
X25950Y23400D01*
X14250Y23450D02*
X25950Y23450D01*
X14250Y23500D02*
X25950Y23500D01*
X14250Y23550D02*
X25950Y23550D01*
X14250Y23600D02*
X25950Y23600D01*
X14250Y23650D02*
X25950Y23650D01*
X14250Y23700D02*
X25950Y23700D01*
X14250Y23750D02*
X25950Y23750D01*
X14250Y23800D02*
X25950Y23800D01*
X14250Y23850D02*
X25950Y23850D01*
X14250Y23900D02*
X25950Y23900D01*
X14250Y23950D02*
X25950Y23950D01*
X14250Y24000D02*
X25950Y24000D01*
X14250Y24050D02*
X25950Y24050D01*
X14250Y24100D02*
X25950Y24100D01*
X14250Y24150D02*
X25950Y24150D01*
X14250Y24200D02*
X25950Y24200D01*
X14250Y24250D02*
X25950Y24250D01*
X14250Y24300D02*
X25950Y24300D01*
X14250Y24350D02*
X25950Y24350D01*
X14250Y24400D02*
X25950Y24400D01*
X14250Y24450D02*
X25950Y24450D01*
X14250Y24500D02*
X25950Y24500D01*
X14250Y24550D02*
X25950Y24550D01*
X14250Y24600D02*
X25950Y24600D01*
X14250Y24650D02*
X25950Y24650D01*
X14250Y24700D02*
X25950Y24700D01*
X14250Y24750D02*
X25950Y24750D01*
X14250Y24800D02*
X25950Y24800D01*
X14250Y24850D02*
X25950Y24850D01*
X14250Y24900D02*
X25950Y24900D01*
X14250Y24950D02*
X25950Y24950D01*
X14250Y25000D02*
X25950Y25000D01*
X14250Y25050D02*
X25950Y25050D01*
X14250Y25100D02*
X25950Y25100D01*
X14250Y25150D02*
X25950Y25150D01*
X14250Y25200D02*
X25950Y25200D01*
X14250Y25250D02*
X25950Y25250D01*
X14250Y25300D02*
X25950Y25300D01*
X14250Y25350D02*
X25950Y25350D01*
M02*
