M48
;DRILL file {PCBNEW (2007-07-09)} date 20/1/2008-12:32:33
;FORMAT={2:4 / absolute / pollici / decimal format}
R,T
VER,1
FMAT,2
INCH,TZ
TCST,OFF
ICI,OFF
ATC,ON
T1C0.012
T2C0.015
T3C0.016
T4C0.032
T5C0.036
T6C0.040
T7C0.059
T8C0.118
%
M47
G05
M72
T1
X4.560Y-2.484
T2
X5.180Y-0.835
X5.460Y-0.830
X3.660Y-0.540
X3.600Y-0.370
X3.685Y-0.665
X4.055Y-0.750
X5.235Y-0.715
X5.360Y-1.005
X5.565Y-1.015
X5.070Y-0.985
X4.975Y-0.985
X5.655Y-0.740
X5.735Y-0.800
X3.545Y-2.030
X3.855Y-0.725
T3
X4.560Y-2.291
X4.454Y-2.385
T4
X5.235Y-0.420
X4.635Y-0.420
X5.500Y-0.360
X5.600Y-0.360
X5.700Y-0.360
X5.800Y-0.360
X5.800Y-0.660
X5.700Y-0.660
X5.600Y-0.660
X5.500Y-0.660
X3.895Y-1.840
X3.895Y-1.940
X3.320Y-2.250G85X3.320Y-2.250
G05
X3.420Y-2.250G85X3.420Y-2.250
G05
X3.320Y-2.150G85X3.320Y-2.150
G05
X3.420Y-2.150G85X3.420Y-2.150
G05
X3.320Y-2.050G85X3.320Y-2.050
G05
X3.420Y-2.050G85X3.420Y-2.050
G05
X3.320Y-1.950G85X3.320Y-1.950
G05
X3.420Y-1.950G85X3.420Y-1.950
G05
X3.320Y-1.850G85X3.320Y-1.850
G05
X3.420Y-1.850G85X3.420Y-1.850
G05
X3.320Y-1.750G85X3.320Y-1.750
G05
X3.420Y-1.750G85X3.420Y-1.750
G05
X3.320Y-1.650G85X3.320Y-1.650
G05
X3.420Y-1.650G85X3.420Y-1.650
G05
X3.320Y-1.550G85X3.320Y-1.550
G05
X3.420Y-1.550G85X3.420Y-1.550
G05
X3.320Y-1.450G85X3.320Y-1.450
G05
X3.420Y-1.450G85X3.420Y-1.450
G05
X3.320Y-1.350G85X3.320Y-1.350
G05
X3.420Y-1.350G85X3.420Y-1.350
G05
X3.320Y-1.250G85X3.320Y-1.250
G05
X3.420Y-1.250G85X3.420Y-1.250
G05
X3.320Y-1.150G85X3.320Y-1.150
G05
X3.420Y-1.150G85X3.420Y-1.150
G05
X3.320Y-1.050G85X3.320Y-1.050
G05
X3.420Y-1.050G85X3.420Y-1.050
G05
X3.320Y-0.950G85X3.320Y-0.950
G05
X3.420Y-0.950G85X3.420Y-0.950
G05
X3.320Y-0.850G85X3.320Y-0.850
G05
X3.420Y-0.850G85X3.420Y-0.850
G05
X3.320Y-0.750G85X3.320Y-0.750
G05
X3.420Y-0.750G85X3.420Y-0.750
G05
X3.320Y-0.650G85X3.320Y-0.650
G05
X3.420Y-0.650G85X3.420Y-0.650
G05
X3.320Y-0.550G85X3.320Y-0.550
G05
X3.420Y-0.550G85X3.420Y-0.550
G05
X3.320Y-0.450G85X3.320Y-0.450
G05
X3.420Y-0.450G85X3.420Y-0.450
G05
X3.320Y-0.350G85X3.320Y-0.350
G05
X3.420Y-0.350G85X3.420Y-0.350
G05
X6.020Y-2.250G85X6.020Y-2.250
G05
X5.920Y-2.250G85X5.920Y-2.250
G05
X5.920Y-2.150G85X5.920Y-2.150
G05
X6.020Y-2.150G85X6.020Y-2.150
G05
X5.920Y-2.050G85X5.920Y-2.050
G05
X6.020Y-2.050G85X6.020Y-2.050
G05
X5.920Y-1.950G85X5.920Y-1.950
G05
X6.020Y-1.950G85X6.020Y-1.950
G05
X5.920Y-1.850G85X5.920Y-1.850
G05
X6.020Y-1.850G85X6.020Y-1.850
G05
X5.920Y-1.750G85X5.920Y-1.750
G05
X6.020Y-1.750G85X6.020Y-1.750
G05
X5.920Y-1.650G85X5.920Y-1.650
G05
X6.020Y-1.650G85X6.020Y-1.650
G05
X5.920Y-1.550G85X5.920Y-1.550
G05
X6.020Y-1.550G85X6.020Y-1.550
G05
X5.920Y-1.450G85X5.920Y-1.450
G05
X6.020Y-1.450G85X6.020Y-1.450
G05
X5.920Y-1.350G85X5.920Y-1.350
G05
X6.020Y-1.350G85X6.020Y-1.350
G05
X5.920Y-1.250G85X5.920Y-1.250
G05
X6.020Y-1.250G85X6.020Y-1.250
G05
X5.920Y-1.150G85X5.920Y-1.150
G05
X6.020Y-1.150G85X6.020Y-1.150
G05
X5.920Y-1.050G85X5.920Y-1.050
G05
X6.020Y-1.050G85X6.020Y-1.050
G05
X5.920Y-0.950G85X5.920Y-0.950
G05
X6.020Y-0.950G85X6.020Y-0.950
G05
X5.920Y-0.850G85X5.920Y-0.850
G05
X6.020Y-0.850G85X6.020Y-0.850
G05
X5.920Y-0.750G85X5.920Y-0.750
G05
X6.020Y-0.750G85X6.020Y-0.750
G05
X5.920Y-0.650G85X5.920Y-0.650
G05
X6.020Y-0.650G85X6.020Y-0.650
G05
X5.920Y-0.550G85X5.920Y-0.550
G05
X6.020Y-0.550G85X6.020Y-0.550
G05
X5.920Y-0.450G85X5.920Y-0.450
G05
X6.020Y-0.450G85X6.020Y-0.450
G05
X5.920Y-0.350G85X5.920Y-0.350
G05
X6.020Y-0.350G85X6.020Y-0.350
G05
T5
X4.090Y-0.270
X3.990Y-0.270
X3.890Y-0.270
X3.790Y-0.270
X3.700Y-0.910
X3.800Y-0.910
X3.900Y-0.910
X4.000Y-0.910
X5.590Y-0.140
X5.690Y-0.140
T6
X4.475Y-1.320
X4.275Y-1.320
T7
X4.260Y-1.680
X3.660Y-1.680
X4.540Y-2.135
X4.540Y-1.535
T8
X5.970Y-2.450
X5.970Y-0.150
X3.370Y-0.150
X3.370Y-2.450
T0
M30
