G04 (Genere par PCBNEW (2007-07-09)) le 20/1/2008-12:32:42*
G01*
G70*
G90*
%MOIN*%
G04 Gerber Fmt 3.4, Leading zero omitted, Abs format*
%FSLAX34Y34*%
G04 APERTURE LIST*
%ADD10C,0.015000*%
%ADD11O,0.080000X0.055000*%
%ADD12R,0.196900X0.196900*%
%ADD13O,0.070000X0.400000*%
%ADD14R,0.062000X0.090000*%
%ADD15O,0.062000X0.090000*%
%ADD16R,0.070000X0.070000*%
%ADD17C,0.070000*%
%ADD18O,0.056000X0.112000*%
%ADD19O,0.088500X0.177000*%
%ADD20O,0.059000X0.118100*%
%ADD21O,0.177000X0.088500*%
%ADD22R,0.065000X0.065000*%
%ADD23C,0.065000*%
%ADD24C,0.045000*%
%ADD25C,0.050000*%
%ADD26C,0.036000*%
%ADD27C,0.042000*%
%ADD28C,0.032000*%
%ADD29C,0.024000*%
%ADD30C,0.082000*%
%ADD31C,0.080000*%
%ADD32C,0.018000*%
%ADD33C,0.005000*%
%ADD34R,0.039400X0.100000*%
%ADD35R,0.027600X0.100000*%
%ADD36R,0.019700X0.100000*%
%ADD37R,0.100000X0.196900*%
%ADD38R,0.042000X0.090000*%
%ADD39R,0.420000X0.350000*%
%ADD40R,0.055000X0.035000*%
%ADD41R,0.035000X0.055000*%
%ADD42R,0.020000X0.045000*%
%ADD43R,0.070800X0.055100*%
%ADD44R,0.070000X0.085000*%
%ADD45R,0.036000X0.036000*%
%ADD46C,0.017000*%
%ADD47C,0.150000*%
%ADD48C,0.060000*%
%ADD49C,0.012000*%
%ADD50C,0.001000*%
%ADD51C,0.008000*%
%ADD52C,0.002600*%
%ADD53C,0.006000*%
%ADD54C,0.000100*%
%ADD55C,0.004000*%
%ADD56C,0.003500*%
G04 APERTURE END LIST*
G54D10*
X12050Y44100D02*
X11954Y43622D01*
X11954Y43622D02*
X11683Y43217D01*
X11683Y43217D02*
X11278Y42946D01*
X11278Y42946D02*
X10800Y42850D01*
X10800Y42850D02*
X10322Y42946D01*
X10322Y42946D02*
X09917Y43217D01*
X09917Y43217D02*
X09646Y43622D01*
X09646Y43622D02*
X09550Y44100D01*
X09550Y44100D02*
X09646Y44578D01*
X09646Y44578D02*
X09917Y44983D01*
X09917Y44983D02*
X10322Y45254D01*
X10322Y45254D02*
X10800Y45350D01*
X10800Y45350D02*
X11278Y45254D01*
X11278Y45254D02*
X11683Y44983D01*
X11683Y44983D02*
X11954Y44578D01*
X11954Y44578D02*
X12050Y44100D01*
X08300Y44100D02*
X13300Y44100D01*
X10800Y46600D02*
X10800Y41600D01*
X14050Y-19900D02*
X13954Y-20378D01*
X13954Y-20378D02*
X13683Y-20783D01*
X13683Y-20783D02*
X13278Y-21054D01*
X13278Y-21054D02*
X12800Y-21150D01*
X12800Y-21150D02*
X12322Y-21054D01*
X12322Y-21054D02*
X11917Y-20783D01*
X11917Y-20783D02*
X11646Y-20378D01*
X11646Y-20378D02*
X11550Y-19900D01*
X11550Y-19900D02*
X11646Y-19422D01*
X11646Y-19422D02*
X11917Y-19017D01*
X11917Y-19017D02*
X12322Y-18746D01*
X12322Y-18746D02*
X12800Y-18650D01*
X12800Y-18650D02*
X13278Y-18746D01*
X13278Y-18746D02*
X13683Y-19017D01*
X13683Y-19017D02*
X13954Y-19422D01*
X13954Y-19422D02*
X14050Y-19900D01*
X10300Y-19900D02*
X15300Y-19900D01*
X12800Y-17400D02*
X12800Y-22400D01*
X71050Y00100D02*
X70954Y-00378D01*
X70954Y-00378D02*
X70683Y-00783D01*
X70683Y-00783D02*
X70278Y-01054D01*
X70278Y-01054D02*
X69800Y-01150D01*
X69800Y-01150D02*
X69322Y-01054D01*
X69322Y-01054D02*
X68917Y-00783D01*
X68917Y-00783D02*
X68646Y-00378D01*
X68646Y-00378D02*
X68550Y00100D01*
X68550Y00100D02*
X68646Y00578D01*
X68646Y00578D02*
X68917Y00983D01*
X68917Y00983D02*
X69322Y01254D01*
X69322Y01254D02*
X69800Y01350D01*
X69800Y01350D02*
X70278Y01254D01*
X70278Y01254D02*
X70683Y00983D01*
X70683Y00983D02*
X70954Y00578D01*
X70954Y00578D02*
X71050Y00100D01*
X67300Y00100D02*
X72300Y00100D01*
X69800Y02600D02*
X69800Y-02400D01*
X71050Y26100D02*
X70954Y25622D01*
X70954Y25622D02*
X70683Y25217D01*
X70683Y25217D02*
X70278Y24946D01*
X70278Y24946D02*
X69800Y24850D01*
X69800Y24850D02*
X69322Y24946D01*
X69322Y24946D02*
X68917Y25217D01*
X68917Y25217D02*
X68646Y25622D01*
X68646Y25622D02*
X68550Y26100D01*
X68550Y26100D02*
X68646Y26578D01*
X68646Y26578D02*
X68917Y26983D01*
X68917Y26983D02*
X69322Y27254D01*
X69322Y27254D02*
X69800Y27350D01*
X69800Y27350D02*
X70278Y27254D01*
X70278Y27254D02*
X70683Y26983D01*
X70683Y26983D02*
X70954Y26578D01*
X70954Y26578D02*
X71050Y26100D01*
X67300Y26100D02*
X72300Y26100D01*
X69800Y28600D02*
X69800Y23600D01*
X-19950Y26100D02*
X-20046Y25622D01*
X-20046Y25622D02*
X-20317Y25217D01*
X-20317Y25217D02*
X-20722Y24946D01*
X-20722Y24946D02*
X-21200Y24850D01*
X-21200Y24850D02*
X-21678Y24946D01*
X-21678Y24946D02*
X-22083Y25217D01*
X-22083Y25217D02*
X-22354Y25622D01*
X-22354Y25622D02*
X-22450Y26100D01*
X-22450Y26100D02*
X-22354Y26578D01*
X-22354Y26578D02*
X-22083Y26983D01*
X-22083Y26983D02*
X-21678Y27254D01*
X-21678Y27254D02*
X-21200Y27350D01*
X-21200Y27350D02*
X-20722Y27254D01*
X-20722Y27254D02*
X-20317Y26983D01*
X-20317Y26983D02*
X-20046Y26578D01*
X-20046Y26578D02*
X-19950Y26100D01*
X-23700Y26100D02*
X-18700Y26100D01*
X-21200Y28600D02*
X-21200Y23600D01*
X-19950Y00100D02*
X-20046Y-00378D01*
X-20046Y-00378D02*
X-20317Y-00783D01*
X-20317Y-00783D02*
X-20722Y-01054D01*
X-20722Y-01054D02*
X-21200Y-01150D01*
X-21200Y-01150D02*
X-21678Y-01054D01*
X-21678Y-01054D02*
X-22083Y-00783D01*
X-22083Y-00783D02*
X-22354Y-00378D01*
X-22354Y-00378D02*
X-22450Y00100D01*
X-22450Y00100D02*
X-22354Y00578D01*
X-22354Y00578D02*
X-22083Y00983D01*
X-22083Y00983D02*
X-21678Y01254D01*
X-21678Y01254D02*
X-21200Y01350D01*
X-21200Y01350D02*
X-20722Y01254D01*
X-20722Y01254D02*
X-20317Y00983D01*
X-20317Y00983D02*
X-20046Y00578D01*
X-20046Y00578D02*
X-19950Y00100D01*
X-23700Y00100D02*
X-18700Y00100D01*
X-21200Y02600D02*
X-21200Y-02400D01*
X29000Y00000D02*
X29000Y26000D01*
X01250Y00000D02*
X01154Y-00478D01*
X01154Y-00478D02*
X00883Y-00883D01*
X00883Y-00883D02*
X00478Y-01154D01*
X00478Y-01154D02*
X00000Y-01250D01*
X00000Y-01250D02*
X-00478Y-01154D01*
X-00478Y-01154D02*
X-00883Y-00883D01*
X-00883Y-00883D02*
X-01154Y-00478D01*
X-01154Y-00478D02*
X-01250Y00000D01*
X-01250Y00000D02*
X-01154Y00478D01*
X-01154Y00478D02*
X-00883Y00883D01*
X-00883Y00883D02*
X-00478Y01154D01*
X-00478Y01154D02*
X00000Y01250D01*
X00000Y01250D02*
X00478Y01154D01*
X00478Y01154D02*
X00883Y00883D01*
X00883Y00883D02*
X01154Y00478D01*
X01154Y00478D02*
X01250Y00000D01*
X-02500Y00000D02*
X02500Y00000D01*
X00000Y02500D02*
X00000Y-02500D01*
X00000Y00000D02*
X00000Y26000D01*
X29000Y00000D02*
X00000Y00000D01*
X00000Y26000D02*
X29000Y26000D01*
X25300Y26000D02*
X25300Y23700D01*
X25300Y23700D02*
X25300Y19300D01*
X25300Y19300D02*
X25300Y19100D01*
X25300Y19100D02*
X21000Y19100D01*
X21000Y19100D02*
X21000Y26000D01*
X05300Y27600D02*
X05400Y27600D01*
X09200Y27600D02*
X09100Y27600D01*
X11600Y27600D02*
X11700Y27600D01*
X02900Y27600D02*
X02800Y27600D01*
X09200Y26000D02*
X09200Y27600D01*
X09200Y27600D02*
X11600Y27600D01*
X11600Y27600D02*
X11600Y26000D01*
X02900Y26000D02*
X02900Y27600D01*
X02900Y27600D02*
X05300Y27600D01*
X05300Y27600D02*
X05300Y26000D01*
X09200Y26000D02*
X09200Y20200D01*
X09200Y20200D02*
X11600Y20200D01*
X11600Y20200D02*
X11600Y26000D01*
X02900Y26000D02*
X02900Y20200D01*
X02900Y20200D02*
X05300Y20200D01*
X05300Y20200D02*
X05300Y26000D01*
X00000Y00000D02*
X28500Y00000D01*
X29000Y01000D02*
X29000Y00000D01*
X29000Y00000D02*
X28500Y00000D01*
X00000Y26000D02*
X29000Y26000D01*
X29000Y26000D02*
X29000Y25000D01*
X02090Y01500D02*
X02010Y01205D01*
X02010Y01205D02*
X01795Y00990D01*
X01795Y00990D02*
X01500Y00910D01*
X01500Y00910D02*
X01205Y00990D01*
X01205Y00990D02*
X00990Y01205D01*
X00990Y01205D02*
X00910Y01500D01*
X00910Y01500D02*
X00990Y01795D01*
X00990Y01795D02*
X01205Y02010D01*
X01205Y02010D02*
X01500Y02090D01*
X01500Y02090D02*
X01795Y02010D01*
X01795Y02010D02*
X02010Y01795D01*
X02010Y01795D02*
X02090Y01500D01*
X02090Y24500D02*
X02010Y24205D01*
X02010Y24205D02*
X01795Y23990D01*
X01795Y23990D02*
X01500Y23910D01*
X01500Y23910D02*
X01205Y23990D01*
X01205Y23990D02*
X00990Y24205D01*
X00990Y24205D02*
X00910Y24500D01*
X00910Y24500D02*
X00990Y24795D01*
X00990Y24795D02*
X01205Y25010D01*
X01205Y25010D02*
X01500Y25090D01*
X01500Y25090D02*
X01795Y25010D01*
X01795Y25010D02*
X02010Y24795D01*
X02010Y24795D02*
X02090Y24500D01*
X00000Y00000D02*
X00000Y00200D01*
X00000Y25800D02*
X00000Y26000D01*
X00000Y00200D02*
X00000Y00400D01*
X00000Y25600D02*
X00000Y25800D01*
X00000Y01000D02*
X00000Y00400D01*
X00000Y25000D02*
X00000Y25600D01*
X29000Y22500D02*
X29000Y25000D01*
X00000Y25000D02*
X00000Y22000D01*
X00000Y22000D02*
X00000Y03500D01*
X00000Y03500D02*
X00000Y01500D01*
X00000Y01500D02*
X00000Y01000D01*
X29000Y01000D02*
X29000Y04000D01*
X29000Y04000D02*
X29000Y22500D01*
X20154Y04400D02*
X20066Y03568D01*
X20066Y03568D02*
X19807Y02772D01*
X19807Y02772D02*
X19389Y02047D01*
X19389Y02047D02*
X18829Y01425D01*
X18829Y01425D02*
X18152Y00933D01*
X18152Y00933D02*
X17387Y00592D01*
X17387Y00592D02*
X16568Y00418D01*
X16568Y00418D02*
X15732Y00418D01*
X15732Y00418D02*
X14913Y00592D01*
X14913Y00592D02*
X14148Y00933D01*
X14148Y00933D02*
X13471Y01425D01*
X13471Y01425D02*
X12911Y02047D01*
X12911Y02047D02*
X12493Y02772D01*
X12493Y02772D02*
X12234Y03568D01*
X12234Y03568D02*
X12146Y04400D01*
X12146Y04400D02*
X12234Y05232D01*
X12234Y05232D02*
X12493Y06028D01*
X12493Y06028D02*
X12911Y06753D01*
X12911Y06753D02*
X13471Y07375D01*
X13471Y07375D02*
X14148Y07867D01*
X14148Y07867D02*
X14913Y08208D01*
X14913Y08208D02*
X15732Y08382D01*
X15732Y08382D02*
X16568Y08382D01*
X16568Y08382D02*
X17387Y08208D01*
X17387Y08208D02*
X18152Y07867D01*
X18152Y07867D02*
X18829Y07375D01*
X18829Y07375D02*
X19389Y06753D01*
X19389Y06753D02*
X19807Y06028D01*
X19807Y06028D02*
X20066Y05232D01*
X20066Y05232D02*
X20154Y04400D01*
X15150Y26100D02*
X25125Y26100D01*
X15150Y21300D02*
X15150Y26100D01*
X24575Y12600D02*
X24575Y12400D01*
X24575Y12400D02*
X17125Y12400D01*
X17125Y12400D02*
X17125Y12625D01*
X24250Y13300D02*
X24575Y13300D01*
X24575Y13300D02*
X24575Y12600D01*
X15925Y13300D02*
X15025Y14200D01*
X15025Y21300D02*
X25525Y21300D01*
X14525Y19700D02*
X14525Y20500D01*
X14525Y20500D02*
X15025Y20500D01*
X15025Y19700D02*
X14525Y19700D01*
X15025Y14200D02*
X15025Y21300D01*
X25125Y26100D02*
X25125Y21300D01*
X17125Y13300D02*
X24225Y13300D01*
X17125Y12600D02*
X17125Y13300D01*
X20025Y21300D02*
X20025Y11300D01*
X25525Y20500D02*
X25925Y20500D01*
X25925Y20500D02*
X25925Y19700D01*
X25925Y19700D02*
X25525Y19700D01*
X25525Y11300D02*
X25925Y11300D01*
X25925Y11300D02*
X25925Y12100D01*
X25925Y12100D02*
X25525Y12100D01*
X15525Y11300D02*
X15525Y12100D01*
X15525Y12100D02*
X15925Y12100D01*
X15925Y11300D02*
X15525Y11300D01*
X15925Y11300D02*
X15925Y13300D01*
X25525Y11300D02*
X15925Y11300D01*
X25525Y21300D02*
X25525Y11300D01*
X05300Y14100D02*
X05300Y12100D01*
X08300Y14100D02*
X08300Y12100D01*
X04300Y14100D02*
X05300Y14100D01*
X04300Y12100D02*
X05300Y12100D01*
X09300Y12100D02*
X08300Y12100D01*
X09300Y14100D02*
X08300Y14100D01*
X09300Y10600D02*
X04300Y10600D01*
X04300Y10600D02*
X04300Y15600D01*
X04300Y15600D02*
X09300Y15600D01*
X09300Y15600D02*
X09300Y10600D01*
X22300Y05600D02*
X22800Y05600D01*
X22800Y05600D02*
X22800Y04600D01*
X22800Y04600D02*
X22300Y04600D01*
X22300Y06100D02*
X26300Y06100D01*
X26300Y06100D02*
X26300Y04100D01*
X26300Y04100D02*
X22300Y04100D01*
X22300Y04100D02*
X22300Y06100D01*
G54D33*
X06500Y21300D02*
X06500Y19850D01*
X06500Y19850D02*
X07000Y19850D01*
X07000Y19850D02*
X07000Y21300D01*
X05850Y21300D02*
X05850Y19850D01*
X05850Y19850D02*
X06350Y19850D01*
X06350Y19850D02*
X06350Y21300D01*
X05150Y21300D02*
X05150Y19850D01*
X05150Y19850D02*
X05650Y19850D01*
X05650Y19850D02*
X05650Y21300D01*
X04500Y21300D02*
X04500Y19850D01*
X04500Y19850D02*
X04950Y19850D01*
X04950Y19850D02*
X05000Y19850D01*
X05000Y19850D02*
X05000Y21300D01*
X03800Y21300D02*
X03800Y19850D01*
X03800Y19850D02*
X04300Y19850D01*
X04300Y19850D02*
X04300Y21300D01*
X03300Y21300D02*
X07500Y21300D01*
X07500Y21300D02*
X07500Y25300D01*
X07500Y25300D02*
X03300Y25300D01*
X03300Y25300D02*
X03300Y21300D01*
X21450Y04850D02*
X21425Y04807D01*
X21425Y04807D02*
X21375Y04807D01*
X21375Y04807D02*
X21350Y04850D01*
X21350Y04850D02*
X21375Y04893D01*
X21375Y04893D02*
X21425Y04893D01*
X21425Y04893D02*
X21450Y04850D01*
X21400Y04400D02*
X21400Y04800D01*
X21400Y04800D02*
X22000Y04800D01*
X22000Y04800D02*
X22000Y04400D01*
X22000Y04000D02*
X22000Y03600D01*
X22000Y03600D02*
X21400Y03600D01*
X21400Y03600D02*
X21400Y04000D01*
X07850Y05550D02*
X07825Y05507D01*
X07825Y05507D02*
X07775Y05507D01*
X07775Y05507D02*
X07750Y05550D01*
X07750Y05550D02*
X07775Y05593D01*
X07775Y05593D02*
X07825Y05593D01*
X07825Y05593D02*
X07850Y05550D01*
X07800Y06000D02*
X07800Y05600D01*
X07800Y05600D02*
X07200Y05600D01*
X07200Y05600D02*
X07200Y06000D01*
X07200Y06400D02*
X07200Y06800D01*
X07200Y06800D02*
X07800Y06800D01*
X07800Y06800D02*
X07800Y06400D01*
X07900Y07700D02*
X07875Y07657D01*
X07875Y07657D02*
X07825Y07657D01*
X07825Y07657D02*
X07800Y07700D01*
X07800Y07700D02*
X07825Y07743D01*
X07825Y07743D02*
X07875Y07743D01*
X07875Y07743D02*
X07900Y07700D01*
X07400Y07700D02*
X07800Y07700D01*
X07800Y07700D02*
X07800Y07100D01*
X07800Y07100D02*
X07400Y07100D01*
X07000Y07100D02*
X06600Y07100D01*
X06600Y07100D02*
X06600Y07700D01*
X06600Y07700D02*
X07000Y07700D01*
X07950Y19550D02*
X07925Y19507D01*
X07925Y19507D02*
X07875Y19507D01*
X07875Y19507D02*
X07850Y19550D01*
X07850Y19550D02*
X07875Y19593D01*
X07875Y19593D02*
X07925Y19593D01*
X07925Y19593D02*
X07950Y19550D01*
X07900Y19100D02*
X07900Y19500D01*
X07900Y19500D02*
X08500Y19500D01*
X08500Y19500D02*
X08500Y19100D01*
X08500Y18700D02*
X08500Y18300D01*
X08500Y18300D02*
X07900Y18300D01*
X07900Y18300D02*
X07900Y18700D01*
X10950Y15550D02*
X10925Y15507D01*
X10925Y15507D02*
X10875Y15507D01*
X10875Y15507D02*
X10850Y15550D01*
X10850Y15550D02*
X10875Y15593D01*
X10875Y15593D02*
X10925Y15593D01*
X10925Y15593D02*
X10950Y15550D01*
X11350Y15550D02*
X10950Y15550D01*
X10950Y15550D02*
X10950Y16150D01*
X10950Y16150D02*
X11350Y16150D01*
X11750Y16150D02*
X12150Y16150D01*
X12150Y16150D02*
X12150Y15550D01*
X12150Y15550D02*
X11750Y15550D01*
X04950Y04900D02*
X04950Y04850D01*
X04950Y04850D02*
X07050Y04850D01*
X07050Y06350D02*
X04950Y06350D01*
X04950Y06350D02*
X04950Y04900D01*
X04950Y05800D02*
X05150Y05800D01*
X05150Y05800D02*
X05150Y05400D01*
X05150Y05400D02*
X04950Y05400D01*
X07050Y06350D02*
X07050Y04850D01*
G54D52*
X08830Y02830D02*
X08570Y02830D01*
X08570Y02830D02*
X08570Y02570D01*
X08830Y02570D02*
X08570Y02570D01*
X08830Y02830D02*
X08830Y02570D01*
X07830Y02830D02*
X07570Y02830D01*
X07570Y02830D02*
X07570Y02570D01*
X07830Y02570D02*
X07570Y02570D01*
X07830Y02830D02*
X07830Y02570D01*
X06830Y02830D02*
X06570Y02830D01*
X06570Y02830D02*
X06570Y02570D01*
X06830Y02570D02*
X06570Y02570D01*
X06830Y02830D02*
X06830Y02570D01*
X05830Y02830D02*
X05570Y02830D01*
X05570Y02830D02*
X05570Y02570D01*
X05830Y02570D02*
X05570Y02570D01*
X05830Y02830D02*
X05830Y02570D01*
G54D53*
X08350Y02000D02*
X08300Y02050D01*
X08300Y02050D02*
X08200Y02150D01*
X08200Y02150D02*
X08100Y02050D01*
X08100Y02050D02*
X08050Y02000D01*
X08300Y03550D02*
X08300Y03600D01*
X08300Y03600D02*
X09100Y03600D01*
X08100Y03550D02*
X08300Y03550D01*
X08100Y03550D02*
X08100Y03600D01*
X09100Y01700D02*
X09100Y02000D01*
X09100Y02000D02*
X09100Y03300D01*
X09100Y03400D02*
X09100Y03600D01*
X09100Y03400D02*
X08950Y03400D01*
X08450Y03400D02*
X08450Y03300D01*
X08950Y03400D02*
X08950Y03300D01*
X08950Y03200D02*
X08450Y03200D01*
X08450Y03300D02*
X08450Y03200D01*
X07950Y03400D02*
X07950Y03300D01*
X07950Y03300D02*
X07950Y03200D01*
X08450Y03300D02*
X08300Y03300D01*
X08300Y03300D02*
X08100Y03300D01*
X08100Y03300D02*
X07950Y03300D01*
X08950Y03300D02*
X09100Y03300D01*
X08950Y03300D02*
X08950Y03200D01*
X09100Y03300D02*
X09100Y03400D01*
X09100Y01700D02*
X08800Y01700D01*
X08800Y01700D02*
X08800Y01650D01*
X08600Y01700D02*
X08600Y01650D01*
X08600Y01650D02*
X08800Y01650D01*
X07800Y01700D02*
X07800Y01650D01*
X07600Y01700D02*
X07600Y01650D01*
X08100Y01750D02*
X08100Y01700D01*
X08300Y01750D02*
X08300Y01700D01*
X07100Y03550D02*
X07300Y03550D01*
X07100Y03550D02*
X07100Y03600D01*
X06300Y03600D02*
X07100Y03600D01*
X06450Y03400D02*
X06450Y03300D01*
X06950Y03200D02*
X06450Y03200D01*
X07450Y03400D02*
X07450Y03300D01*
X07450Y03300D02*
X07450Y03200D01*
X06950Y03400D02*
X06950Y03300D01*
X06950Y03300D02*
X06950Y03200D01*
X07450Y03300D02*
X07300Y03300D01*
X07300Y03300D02*
X07100Y03300D01*
X07100Y03300D02*
X06950Y03300D01*
X06450Y03300D02*
X06450Y03200D01*
X06800Y01700D02*
X06800Y01650D01*
X06600Y01700D02*
X06300Y01700D01*
X06600Y01700D02*
X06600Y01650D01*
X06600Y01650D02*
X06800Y01650D01*
X07100Y01750D02*
X07100Y01700D01*
X07100Y01700D02*
X06800Y01700D01*
X07100Y01750D02*
X07300Y01750D01*
X07300Y01750D02*
X07300Y01700D01*
X07600Y01700D02*
X07300Y01700D01*
X07600Y01650D02*
X07800Y01650D01*
X08100Y01700D02*
X07800Y01700D01*
X08300Y01750D02*
X08100Y01750D01*
X08300Y01700D02*
X08600Y01700D01*
X08350Y02000D02*
X09100Y02000D01*
X08050Y02000D02*
X07300Y02000D01*
X07300Y02000D02*
X07100Y02000D01*
X08100Y02050D02*
X08100Y03300D01*
X08300Y02050D02*
X08300Y03300D01*
X07300Y02000D02*
X07300Y03300D01*
X07100Y02000D02*
X07100Y03300D01*
X07950Y03200D02*
X07450Y03200D01*
X07950Y03400D02*
X08450Y03400D01*
X08100Y03600D02*
X07300Y03600D01*
X07450Y03400D02*
X06950Y03400D01*
X07300Y03550D02*
X07300Y03600D01*
X05300Y02000D02*
X05300Y03300D01*
X05300Y03400D02*
X05300Y03600D01*
X06100Y03550D02*
X06300Y03550D01*
X06300Y03550D02*
X06300Y03600D01*
X06100Y03550D02*
X06100Y03600D01*
X05300Y03600D02*
X06100Y03600D01*
X05300Y03400D02*
X05450Y03400D01*
X05450Y03400D02*
X05450Y03300D01*
X05450Y03300D02*
X05450Y03200D01*
X05450Y03300D02*
X05300Y03300D01*
X05950Y03200D02*
X05450Y03200D01*
X05950Y03400D02*
X05950Y03300D01*
X06450Y03300D02*
X06300Y03300D01*
X06300Y03300D02*
X06100Y03300D01*
X06100Y03300D02*
X05950Y03300D01*
X05950Y03300D02*
X05950Y03200D01*
X06100Y02050D02*
X06100Y03300D01*
X06300Y02050D02*
X06200Y02150D01*
X06300Y02050D02*
X06300Y03300D01*
X06350Y02000D02*
X06300Y02050D01*
X06200Y02150D02*
X06050Y02000D01*
X06050Y02000D02*
X05300Y02000D01*
X06450Y03400D02*
X05950Y03400D01*
X05300Y03400D02*
X05300Y03300D01*
X06300Y01750D02*
X06300Y01700D01*
X06100Y01750D02*
X06300Y01750D01*
X06100Y01700D02*
X05800Y01700D01*
X06100Y01750D02*
X06100Y01700D01*
X05800Y01700D02*
X05800Y01650D01*
X05600Y01650D02*
X05800Y01650D01*
X05600Y01700D02*
X05600Y01650D01*
X05600Y01700D02*
X05300Y01700D01*
X05300Y01700D02*
X05300Y02000D01*
X07100Y02000D02*
X06350Y02000D01*
G54D52*
X04670Y08970D02*
X04930Y08970D01*
X04930Y08970D02*
X04930Y09230D01*
X04670Y09230D02*
X04930Y09230D01*
X04670Y08970D02*
X04670Y09230D01*
X05670Y08970D02*
X05930Y08970D01*
X05930Y08970D02*
X05930Y09230D01*
X05670Y09230D02*
X05930Y09230D01*
X05670Y08970D02*
X05670Y09230D01*
X06670Y08970D02*
X06930Y08970D01*
X06930Y08970D02*
X06930Y09230D01*
X06670Y09230D02*
X06930Y09230D01*
X06670Y08970D02*
X06670Y09230D01*
X07670Y08970D02*
X07930Y08970D01*
X07930Y08970D02*
X07930Y09230D01*
X07670Y09230D02*
X07930Y09230D01*
X07670Y08970D02*
X07670Y09230D01*
G54D53*
X05150Y09800D02*
X05200Y09750D01*
X05200Y09750D02*
X05300Y09650D01*
X05300Y09650D02*
X05400Y09750D01*
X05400Y09750D02*
X05450Y09800D01*
X05200Y08250D02*
X05200Y08200D01*
X05200Y08200D02*
X04400Y08200D01*
X05400Y08250D02*
X05200Y08250D01*
X05400Y08250D02*
X05400Y08200D01*
X04400Y10100D02*
X04400Y09800D01*
X04400Y09800D02*
X04400Y08500D01*
X04400Y08400D02*
X04400Y08200D01*
X04400Y08400D02*
X04550Y08400D01*
X05050Y08400D02*
X05050Y08500D01*
X04550Y08400D02*
X04550Y08500D01*
X04550Y08600D02*
X05050Y08600D01*
X05050Y08500D02*
X05050Y08600D01*
X05550Y08400D02*
X05550Y08500D01*
X05550Y08500D02*
X05550Y08600D01*
X05050Y08500D02*
X05200Y08500D01*
X05200Y08500D02*
X05400Y08500D01*
X05400Y08500D02*
X05550Y08500D01*
X04550Y08500D02*
X04400Y08500D01*
X04550Y08500D02*
X04550Y08600D01*
X04400Y08500D02*
X04400Y08400D01*
X04400Y10100D02*
X04700Y10100D01*
X04700Y10100D02*
X04700Y10150D01*
X04900Y10100D02*
X04900Y10150D01*
X04900Y10150D02*
X04700Y10150D01*
X05700Y10100D02*
X05700Y10150D01*
X05900Y10100D02*
X05900Y10150D01*
X05400Y10050D02*
X05400Y10100D01*
X05200Y10050D02*
X05200Y10100D01*
X06400Y08250D02*
X06200Y08250D01*
X06400Y08250D02*
X06400Y08200D01*
X07200Y08200D02*
X06400Y08200D01*
X07050Y08400D02*
X07050Y08500D01*
X06550Y08600D02*
X07050Y08600D01*
X06050Y08400D02*
X06050Y08500D01*
X06050Y08500D02*
X06050Y08600D01*
X06550Y08400D02*
X06550Y08500D01*
X06550Y08500D02*
X06550Y08600D01*
X06050Y08500D02*
X06200Y08500D01*
X06200Y08500D02*
X06400Y08500D01*
X06400Y08500D02*
X06550Y08500D01*
X07050Y08500D02*
X07050Y08600D01*
X06700Y10100D02*
X06700Y10150D01*
X06900Y10100D02*
X07200Y10100D01*
X06900Y10100D02*
X06900Y10150D01*
X06900Y10150D02*
X06700Y10150D01*
X06400Y10050D02*
X06400Y10100D01*
X06400Y10100D02*
X06700Y10100D01*
X06400Y10050D02*
X06200Y10050D01*
X06200Y10050D02*
X06200Y10100D01*
X05900Y10100D02*
X06200Y10100D01*
X05900Y10150D02*
X05700Y10150D01*
X05400Y10100D02*
X05700Y10100D01*
X05200Y10050D02*
X05400Y10050D01*
X05200Y10100D02*
X04900Y10100D01*
X05150Y09800D02*
X04400Y09800D01*
X05450Y09800D02*
X06200Y09800D01*
X06200Y09800D02*
X06400Y09800D01*
X05400Y09750D02*
X05400Y08500D01*
X05200Y09750D02*
X05200Y08500D01*
X06200Y09800D02*
X06200Y08500D01*
X06400Y09800D02*
X06400Y08500D01*
X05550Y08600D02*
X06050Y08600D01*
X05550Y08400D02*
X05050Y08400D01*
X05400Y08200D02*
X06200Y08200D01*
X06050Y08400D02*
X06550Y08400D01*
X06200Y08250D02*
X06200Y08200D01*
X08200Y09800D02*
X08200Y08500D01*
X08200Y08400D02*
X08200Y08200D01*
X07400Y08250D02*
X07200Y08250D01*
X07200Y08250D02*
X07200Y08200D01*
X07400Y08250D02*
X07400Y08200D01*
X08200Y08200D02*
X07400Y08200D01*
X08200Y08400D02*
X08050Y08400D01*
X08050Y08400D02*
X08050Y08500D01*
X08050Y08500D02*
X08050Y08600D01*
X08050Y08500D02*
X08200Y08500D01*
X07550Y08600D02*
X08050Y08600D01*
X07550Y08400D02*
X07550Y08500D01*
X07050Y08500D02*
X07200Y08500D01*
X07200Y08500D02*
X07400Y08500D01*
X07400Y08500D02*
X07550Y08500D01*
X07550Y08500D02*
X07550Y08600D01*
X07400Y09750D02*
X07400Y08500D01*
X07200Y09750D02*
X07300Y09650D01*
X07200Y09750D02*
X07200Y08500D01*
X07150Y09800D02*
X07200Y09750D01*
X07300Y09650D02*
X07450Y09800D01*
X07450Y09800D02*
X08200Y09800D01*
X07050Y08400D02*
X07550Y08400D01*
X08200Y08400D02*
X08200Y08500D01*
X07200Y10050D02*
X07200Y10100D01*
X07400Y10050D02*
X07200Y10050D01*
X07400Y10100D02*
X07700Y10100D01*
X07400Y10050D02*
X07400Y10100D01*
X07700Y10100D02*
X07700Y10150D01*
X07900Y10150D02*
X07700Y10150D01*
X07900Y10100D02*
X07900Y10150D01*
X07900Y10100D02*
X08200Y10100D01*
X08200Y10100D02*
X08200Y09800D01*
X06400Y09800D02*
X07150Y09800D01*
G54D52*
X05750Y15700D02*
X06050Y15700D01*
X06050Y15700D02*
X06050Y17900D01*
X05750Y17900D02*
X06050Y17900D01*
X05750Y15700D02*
X05750Y17900D01*
X05050Y16550D02*
X05400Y16550D01*
X05400Y16550D02*
X05400Y17050D01*
X05050Y17050D02*
X05400Y17050D01*
X05050Y16550D02*
X05050Y17050D01*
X09400Y16550D02*
X09750Y16550D01*
X09750Y16550D02*
X09750Y17050D01*
X09400Y17050D02*
X09750Y17050D01*
X09400Y16550D02*
X09400Y17050D01*
G54D53*
X06900Y16800D02*
X07400Y16800D01*
X07400Y17030D02*
X07400Y16800D01*
X07400Y16800D02*
X07850Y17030D01*
X07850Y17030D02*
X07850Y16570D01*
X07850Y16570D02*
X07400Y16800D01*
X07400Y16800D02*
X08300Y16800D01*
X07400Y16800D02*
X07400Y16570D01*
X05400Y15700D02*
X05400Y17900D01*
X09400Y17900D02*
X09400Y15700D01*
X05400Y17900D02*
X09400Y17900D01*
X09400Y15700D02*
X05400Y15700D01*
G54D25*
X10400Y16800D02*
X09850Y16800D01*
X04400Y16800D02*
X04950Y16800D01*
G54D52*
X21360Y06830D02*
X21360Y06609D01*
X21360Y06609D02*
X22040Y06609D01*
X22040Y06830D02*
X22040Y06609D01*
X21360Y06830D02*
X22040Y06830D01*
X21360Y05591D02*
X21360Y05370D01*
X21360Y05370D02*
X22040Y05370D01*
X22040Y05591D02*
X22040Y05370D01*
X21360Y05591D02*
X22040Y05591D01*
X21390Y06440D02*
X21390Y06200D01*
X21390Y06200D02*
X22010Y06200D01*
X22010Y06440D02*
X22010Y06200D01*
X21390Y06440D02*
X22010Y06440D01*
G54D53*
X22010Y05580D02*
X22010Y06620D01*
X21390Y05580D02*
X21390Y06620D01*
G54D51*
X21896Y05904D02*
X21700Y06296D01*
X21700Y06296D02*
X21504Y05904D01*
X21504Y05904D02*
X21896Y05904D01*
X14344Y27160D02*
X12456Y27160D01*
X12456Y27160D02*
X12456Y22870D01*
X12456Y22870D02*
X14344Y22870D01*
X14344Y22870D02*
X14344Y27160D01*
G54D54*
X13833Y22811D02*
X12967Y22811D01*
X12967Y22811D02*
X12967Y23008D01*
X12967Y23008D02*
X13833Y23008D01*
X13833Y23008D02*
X13833Y22811D01*
X13793Y24779D02*
X13007Y24779D01*
X13007Y24779D02*
X13007Y24897D01*
X13007Y24897D02*
X13793Y24897D01*
X13793Y24897D02*
X13793Y24779D01*
X12416Y23618D02*
X12259Y23618D01*
X12259Y23618D02*
X12259Y24090D01*
X12259Y24090D02*
X12416Y24090D01*
X12416Y24090D02*
X12416Y23618D01*
G54D55*
X14187Y27121D02*
X14187Y26885D01*
X14187Y26688D02*
X14187Y26451D01*
X14187Y26255D02*
X14187Y26018D01*
X14187Y25822D02*
X14187Y25585D01*
X12613Y27121D02*
X12613Y26885D01*
X12613Y26688D02*
X12613Y26451D01*
X12613Y26255D02*
X12613Y26018D01*
X12613Y25822D02*
X12613Y25585D01*
X14187Y25388D02*
X14187Y25153D01*
X13951Y24956D02*
X14187Y24956D01*
X12613Y25388D02*
X12613Y25153D01*
X12613Y24956D02*
X12849Y24956D01*
X13478Y24956D02*
X13714Y24956D01*
X13007Y24956D02*
X13243Y24956D01*
X13596Y27081D02*
X13596Y26530D01*
X13204Y27081D02*
X13204Y26530D01*
X13596Y26373D02*
X13596Y25822D01*
X13204Y26373D02*
X13204Y25822D01*
X13596Y25664D02*
X13596Y25114D01*
X13204Y25664D02*
X13204Y25114D01*
G54D33*
X13733Y23854D02*
X13707Y23727D01*
X13707Y23727D02*
X13635Y23619D01*
X13635Y23619D02*
X13527Y23547D01*
X13527Y23547D02*
X13400Y23521D01*
X13400Y23521D02*
X13273Y23547D01*
X13273Y23547D02*
X13165Y23619D01*
X13165Y23619D02*
X13093Y23727D01*
X13093Y23727D02*
X13067Y23854D01*
X13067Y23854D02*
X13093Y23981D01*
X13093Y23981D02*
X13165Y24089D01*
X13165Y24089D02*
X13273Y24161D01*
X13273Y24161D02*
X13400Y24187D01*
X13400Y24187D02*
X13527Y24161D01*
X13527Y24161D02*
X13635Y24089D01*
X13635Y24089D02*
X13707Y23981D01*
X13707Y23981D02*
X13733Y23854D01*
X13872Y23854D02*
X12928Y23854D01*
X13400Y24326D02*
X13400Y23382D01*
X23250Y02900D02*
X23250Y02850D01*
X23250Y02850D02*
X25350Y02850D01*
X25350Y04350D02*
X23250Y04350D01*
X23250Y04350D02*
X23250Y02900D01*
X23250Y03800D02*
X23450Y03800D01*
X23450Y03800D02*
X23450Y03400D01*
X23450Y03400D02*
X23250Y03400D01*
X25350Y04350D02*
X25350Y02850D01*
G54D52*
X23570Y01270D02*
X23830Y01270D01*
X23830Y01270D02*
X23830Y01530D01*
X23570Y01530D02*
X23830Y01530D01*
X23570Y01270D02*
X23570Y01530D01*
X24570Y01270D02*
X24830Y01270D01*
X24830Y01270D02*
X24830Y01530D01*
X24570Y01530D02*
X24830Y01530D01*
X24570Y01270D02*
X24570Y01530D01*
G54D53*
X23300Y02400D02*
X23300Y02100D01*
X23300Y02100D02*
X24050Y02100D01*
X24050Y02100D02*
X24100Y02050D01*
X24100Y02050D02*
X24200Y01950D01*
X24200Y01950D02*
X24300Y02050D01*
X24300Y02050D02*
X24350Y02100D01*
X24100Y00550D02*
X24100Y00500D01*
X24100Y00500D02*
X23300Y00500D01*
X24300Y00550D02*
X24100Y00550D01*
X24300Y00550D02*
X24300Y00500D01*
X25100Y00500D02*
X24300Y00500D01*
X24350Y02100D02*
X25100Y02100D01*
X25100Y02100D02*
X25100Y02400D01*
X23300Y02100D02*
X23300Y00800D01*
X23300Y00700D02*
X23300Y00500D01*
X23300Y00700D02*
X23450Y00700D01*
X25100Y00700D02*
X25100Y00500D01*
X25100Y00700D02*
X24950Y00700D01*
X25100Y02100D02*
X25100Y00800D01*
X24950Y00700D02*
X24950Y00800D01*
X24450Y00900D02*
X24950Y00900D01*
X23950Y00700D02*
X23950Y00800D01*
X23450Y00700D02*
X23450Y00800D01*
X23450Y00900D02*
X23950Y00900D01*
X23950Y00700D02*
X24450Y00700D01*
X23950Y00800D02*
X23950Y00900D01*
X24450Y00700D02*
X24450Y00800D01*
X24450Y00800D02*
X24450Y00900D01*
X24300Y00800D02*
X24450Y00800D01*
X24300Y00800D02*
X24300Y02050D01*
X23950Y00800D02*
X24100Y00800D01*
X24100Y00800D02*
X24300Y00800D01*
X24100Y00800D02*
X24100Y02050D01*
X24950Y00800D02*
X25100Y00800D01*
X24950Y00800D02*
X24950Y00900D01*
X25100Y00800D02*
X25100Y00700D01*
X23450Y00800D02*
X23300Y00800D01*
X23450Y00800D02*
X23450Y00900D01*
X23300Y00800D02*
X23300Y00700D01*
X23300Y02400D02*
X23600Y02400D01*
X23600Y02400D02*
X23600Y02450D01*
X23800Y02400D02*
X23800Y02450D01*
X23800Y02450D02*
X23600Y02450D01*
X24600Y02400D02*
X24600Y02450D01*
X24800Y02400D02*
X25100Y02400D01*
X24800Y02400D02*
X24800Y02450D01*
X24800Y02450D02*
X24600Y02450D01*
X24300Y02350D02*
X24300Y02400D01*
X24300Y02400D02*
X24600Y02400D01*
X24300Y02350D02*
X24100Y02350D01*
X24100Y02350D02*
X24100Y02400D01*
X24100Y02400D02*
X23800Y02400D01*
G54D52*
X10348Y13967D02*
X10565Y13967D01*
X10565Y13967D02*
X10565Y14833D01*
X10348Y14833D02*
X10565Y14833D01*
X10348Y13967D02*
X10348Y14833D01*
X12335Y13967D02*
X12552Y13967D01*
X12552Y13967D02*
X12552Y14833D01*
X12335Y14833D02*
X12552Y14833D01*
X12335Y13967D02*
X12335Y14833D01*
G54D55*
X12331Y15155D02*
X12331Y13645D01*
X12331Y13645D02*
X10569Y13645D01*
X10569Y13645D02*
X10569Y15155D01*
X10569Y15155D02*
X12331Y15155D01*
G54D33*
X04950Y03450D02*
X04925Y03407D01*
X04925Y03407D02*
X04875Y03407D01*
X04875Y03407D02*
X04850Y03450D01*
X04850Y03450D02*
X04875Y03493D01*
X04875Y03493D02*
X04925Y03493D01*
X04925Y03493D02*
X04950Y03450D01*
X04900Y03900D02*
X04900Y03500D01*
X04900Y03500D02*
X04300Y03500D01*
X04300Y03500D02*
X04300Y03900D01*
X04300Y04300D02*
X04300Y04700D01*
X04300Y04700D02*
X04900Y04700D01*
X04900Y04700D02*
X04900Y04300D01*
X06100Y08200D02*
X06075Y08157D01*
X06075Y08157D02*
X06025Y08157D01*
X06025Y08157D02*
X06000Y08200D01*
X06000Y08200D02*
X06025Y08243D01*
X06025Y08243D02*
X06075Y08243D01*
X06075Y08243D02*
X06100Y08200D01*
X05600Y08200D02*
X06000Y08200D01*
X06000Y08200D02*
X06000Y07600D01*
X06000Y07600D02*
X05600Y07600D01*
X05200Y07600D02*
X04800Y07600D01*
X04800Y07600D02*
X04800Y08200D01*
X04800Y08200D02*
X05200Y08200D01*
X04200Y01900D02*
X04200Y00700D01*
X04200Y00700D02*
X03900Y00700D01*
X03900Y00700D02*
X03900Y01900D01*
X03900Y01900D02*
X04200Y01900D01*
X08000Y17900D02*
X07975Y17857D01*
X07975Y17857D02*
X07925Y17857D01*
X07925Y17857D02*
X07900Y17900D01*
X07900Y17900D02*
X07925Y17943D01*
X07925Y17943D02*
X07975Y17943D01*
X07975Y17943D02*
X08000Y17900D01*
X07500Y17900D02*
X07900Y17900D01*
X07900Y17900D02*
X07900Y17300D01*
X07900Y17300D02*
X07500Y17300D01*
X07100Y17300D02*
X06700Y17300D01*
X06700Y17300D02*
X06700Y17900D01*
X06700Y17900D02*
X07100Y17900D01*
X06350Y19250D02*
X06325Y19207D01*
X06325Y19207D02*
X06275Y19207D01*
X06275Y19207D02*
X06250Y19250D01*
X06250Y19250D02*
X06275Y19293D01*
X06275Y19293D02*
X06325Y19293D01*
X06325Y19293D02*
X06350Y19250D01*
X05850Y19250D02*
X06250Y19250D01*
X06250Y19250D02*
X06250Y18650D01*
X06250Y18650D02*
X05850Y18650D01*
X05450Y18650D02*
X05050Y18650D01*
X05050Y18650D02*
X05050Y19250D01*
X05050Y19250D02*
X05450Y19250D01*
X08000Y17150D02*
X07975Y17107D01*
X07975Y17107D02*
X07925Y17107D01*
X07925Y17107D02*
X07900Y17150D01*
X07900Y17150D02*
X07925Y17193D01*
X07925Y17193D02*
X07975Y17193D01*
X07975Y17193D02*
X08000Y17150D01*
X07500Y17150D02*
X07900Y17150D01*
X07900Y17150D02*
X07900Y16550D01*
X07900Y16550D02*
X07500Y16550D01*
X07100Y16550D02*
X06700Y16550D01*
X06700Y16550D02*
X06700Y17150D01*
X06700Y17150D02*
X07100Y17150D01*
X03650Y05050D02*
X03625Y05007D01*
X03625Y05007D02*
X03575Y05007D01*
X03575Y05007D02*
X03550Y05050D01*
X03550Y05050D02*
X03575Y05093D01*
X03575Y05093D02*
X03625Y05093D01*
X03625Y05093D02*
X03650Y05050D01*
X03600Y05500D02*
X03600Y05100D01*
X03600Y05100D02*
X03000Y05100D01*
X03000Y05100D02*
X03000Y05500D01*
X03000Y05900D02*
X03000Y06300D01*
X03000Y06300D02*
X03600Y06300D01*
X03600Y06300D02*
X03600Y05900D01*
X03100Y04200D02*
X03075Y04157D01*
X03075Y04157D02*
X03025Y04157D01*
X03025Y04157D02*
X03000Y04200D01*
X03000Y04200D02*
X03025Y04243D01*
X03025Y04243D02*
X03075Y04243D01*
X03075Y04243D02*
X03100Y04200D01*
X03500Y04200D02*
X03100Y04200D01*
X03100Y04200D02*
X03100Y04800D01*
X03100Y04800D02*
X03500Y04800D01*
X03900Y04800D02*
X04300Y04800D01*
X04300Y04800D02*
X04300Y04200D01*
X04300Y04200D02*
X03900Y04200D01*
X23600Y07850D02*
X23575Y07807D01*
X23575Y07807D02*
X23525Y07807D01*
X23525Y07807D02*
X23500Y07850D01*
X23500Y07850D02*
X23525Y07893D01*
X23525Y07893D02*
X23575Y07893D01*
X23575Y07893D02*
X23600Y07850D01*
X24000Y07850D02*
X23600Y07850D01*
X23600Y07850D02*
X23600Y08450D01*
X23600Y08450D02*
X24000Y08450D01*
X24400Y08450D02*
X24800Y08450D01*
X24800Y08450D02*
X24800Y07850D01*
X24800Y07850D02*
X24400Y07850D01*
G54D52*
X14300Y16700D02*
X14300Y17000D01*
X14300Y17000D02*
X12100Y17000D01*
X12100Y16700D02*
X12100Y17000D01*
X14300Y16700D02*
X12100Y16700D01*
X13450Y16000D02*
X13450Y16350D01*
X13450Y16350D02*
X12950Y16350D01*
X12950Y16000D02*
X12950Y16350D01*
X13450Y16000D02*
X12950Y16000D01*
X13450Y20350D02*
X13450Y20700D01*
X13450Y20700D02*
X12950Y20700D01*
X12950Y20350D02*
X12950Y20700D01*
X13450Y20350D02*
X12950Y20350D01*
G54D53*
X13200Y17850D02*
X13200Y18350D01*
X12970Y18350D02*
X13200Y18350D01*
X13200Y18350D02*
X12970Y18800D01*
X12970Y18800D02*
X13430Y18800D01*
X13430Y18800D02*
X13200Y18350D01*
X13200Y18350D02*
X13200Y19250D01*
X13200Y18350D02*
X13430Y18350D01*
X14300Y16350D02*
X12100Y16350D01*
X12100Y20350D02*
X14300Y20350D01*
X12100Y16350D02*
X12100Y20350D01*
X14300Y20350D02*
X14300Y16350D01*
G54D25*
X13200Y21350D02*
X13200Y20800D01*
X13200Y15350D02*
X13200Y15900D01*
G54D51*
X07500Y20400D02*
X07500Y17400D01*
X07500Y17400D02*
X11750Y17400D01*
X11750Y17400D02*
X11750Y20400D01*
X11750Y20400D02*
X07500Y20400D01*
X06750Y18400D02*
X07500Y18400D01*
X06750Y19400D02*
X07500Y19400D01*
G54D50*
X00600Y22225D02*
X00600Y22775D01*
X00600Y22775D02*
X01400Y22775D01*
X01400Y22775D02*
X01400Y22225D01*
X01400Y22225D02*
X00600Y22225D01*
X01600Y22225D02*
X01600Y22775D01*
X01600Y22775D02*
X02400Y22775D01*
X02400Y22775D02*
X02400Y22225D01*
X02400Y22225D02*
X01600Y22225D01*
X00600Y21225D02*
X00600Y21775D01*
X00600Y21775D02*
X01400Y21775D01*
X01400Y21775D02*
X01400Y21225D01*
X01400Y21225D02*
X00600Y21225D01*
X01600Y21225D02*
X01600Y21775D01*
X01600Y21775D02*
X02400Y21775D01*
X02400Y21775D02*
X02400Y21225D01*
X02400Y21225D02*
X01600Y21225D01*
X00600Y20225D02*
X00600Y20775D01*
X00600Y20775D02*
X01400Y20775D01*
X01400Y20775D02*
X01400Y20225D01*
X01400Y20225D02*
X00600Y20225D01*
X01600Y20225D02*
X01600Y20775D01*
X01600Y20775D02*
X02400Y20775D01*
X02400Y20775D02*
X02400Y20225D01*
X02400Y20225D02*
X01600Y20225D01*
X00600Y19225D02*
X00600Y19775D01*
X00600Y19775D02*
X01400Y19775D01*
X01400Y19775D02*
X01400Y19225D01*
X01400Y19225D02*
X00600Y19225D01*
X01600Y19225D02*
X01600Y19775D01*
X01600Y19775D02*
X02400Y19775D01*
X02400Y19775D02*
X02400Y19225D01*
X02400Y19225D02*
X01600Y19225D01*
X00600Y18225D02*
X00600Y18775D01*
X00600Y18775D02*
X01400Y18775D01*
X01400Y18775D02*
X01400Y18225D01*
X01400Y18225D02*
X00600Y18225D01*
X01600Y18225D02*
X01600Y18775D01*
X01600Y18775D02*
X02400Y18775D01*
X02400Y18775D02*
X02400Y18225D01*
X02400Y18225D02*
X01600Y18225D01*
X00600Y17225D02*
X00600Y17775D01*
X00600Y17775D02*
X01400Y17775D01*
X01400Y17775D02*
X01400Y17225D01*
X01400Y17225D02*
X00600Y17225D01*
X01600Y17225D02*
X01600Y17775D01*
X01600Y17775D02*
X02400Y17775D01*
X02400Y17775D02*
X02400Y17225D01*
X02400Y17225D02*
X01600Y17225D01*
X00600Y16225D02*
X00600Y16775D01*
X00600Y16775D02*
X01400Y16775D01*
X01400Y16775D02*
X01400Y16225D01*
X01400Y16225D02*
X00600Y16225D01*
X01600Y16225D02*
X01600Y16775D01*
X01600Y16775D02*
X02400Y16775D01*
X02400Y16775D02*
X02400Y16225D01*
X02400Y16225D02*
X01600Y16225D01*
X00600Y15225D02*
X00600Y15775D01*
X00600Y15775D02*
X01400Y15775D01*
X01400Y15775D02*
X01400Y15225D01*
X01400Y15225D02*
X00600Y15225D01*
X01600Y15225D02*
X01600Y15775D01*
X01600Y15775D02*
X02400Y15775D01*
X02400Y15775D02*
X02400Y15225D01*
X02400Y15225D02*
X01600Y15225D01*
X00600Y14225D02*
X00600Y14775D01*
X00600Y14775D02*
X01400Y14775D01*
X01400Y14775D02*
X01400Y14225D01*
X01400Y14225D02*
X00600Y14225D01*
X01600Y14225D02*
X01600Y14775D01*
X01600Y14775D02*
X02400Y14775D01*
X02400Y14775D02*
X02400Y14225D01*
X02400Y14225D02*
X01600Y14225D01*
X00600Y13225D02*
X00600Y13775D01*
X00600Y13775D02*
X01400Y13775D01*
X01400Y13775D02*
X01400Y13225D01*
X01400Y13225D02*
X00600Y13225D01*
X01600Y13225D02*
X01600Y13775D01*
X01600Y13775D02*
X02400Y13775D01*
X02400Y13775D02*
X02400Y13225D01*
X02400Y13225D02*
X01600Y13225D01*
X00600Y12225D02*
X00600Y12775D01*
X00600Y12775D02*
X01400Y12775D01*
X01400Y12775D02*
X01400Y12225D01*
X01400Y12225D02*
X00600Y12225D01*
X01600Y12225D02*
X01600Y12775D01*
X01600Y12775D02*
X02400Y12775D01*
X02400Y12775D02*
X02400Y12225D01*
X02400Y12225D02*
X01600Y12225D01*
X00600Y11225D02*
X00600Y11775D01*
X00600Y11775D02*
X01400Y11775D01*
X01400Y11775D02*
X01400Y11225D01*
X01400Y11225D02*
X00600Y11225D01*
X01600Y11225D02*
X01600Y11775D01*
X01600Y11775D02*
X02400Y11775D01*
X02400Y11775D02*
X02400Y11225D01*
X02400Y11225D02*
X01600Y11225D01*
X00600Y10225D02*
X00600Y10775D01*
X00600Y10775D02*
X01400Y10775D01*
X01400Y10775D02*
X01400Y10225D01*
X01400Y10225D02*
X00600Y10225D01*
X01600Y10225D02*
X01600Y10775D01*
X01600Y10775D02*
X02400Y10775D01*
X02400Y10775D02*
X02400Y10225D01*
X02400Y10225D02*
X01600Y10225D01*
X00600Y09225D02*
X00600Y09775D01*
X00600Y09775D02*
X01400Y09775D01*
X01400Y09775D02*
X01400Y09225D01*
X01400Y09225D02*
X00600Y09225D01*
X01600Y09225D02*
X01600Y09775D01*
X01600Y09775D02*
X02400Y09775D01*
X02400Y09775D02*
X02400Y09225D01*
X02400Y09225D02*
X01600Y09225D01*
X00600Y08225D02*
X00600Y08775D01*
X00600Y08775D02*
X01400Y08775D01*
X01400Y08775D02*
X01400Y08225D01*
X01400Y08225D02*
X00600Y08225D01*
X01600Y08225D02*
X01600Y08775D01*
X01600Y08775D02*
X02400Y08775D01*
X02400Y08775D02*
X02400Y08225D01*
X02400Y08225D02*
X01600Y08225D01*
X00600Y07225D02*
X00600Y07775D01*
X00600Y07775D02*
X01400Y07775D01*
X01400Y07775D02*
X01400Y07225D01*
X01400Y07225D02*
X00600Y07225D01*
X01600Y07225D02*
X01600Y07775D01*
X01600Y07775D02*
X02400Y07775D01*
X02400Y07775D02*
X02400Y07225D01*
X02400Y07225D02*
X01600Y07225D01*
X00600Y06225D02*
X00600Y06775D01*
X00600Y06775D02*
X01400Y06775D01*
X01400Y06775D02*
X01400Y06225D01*
X01400Y06225D02*
X00600Y06225D01*
X01600Y06225D02*
X01600Y06775D01*
X01600Y06775D02*
X02400Y06775D01*
X02400Y06775D02*
X02400Y06225D01*
X02400Y06225D02*
X01600Y06225D01*
X00600Y05225D02*
X00600Y05775D01*
X00600Y05775D02*
X01400Y05775D01*
X01400Y05775D02*
X01400Y05225D01*
X01400Y05225D02*
X00600Y05225D01*
X01600Y05225D02*
X01600Y05775D01*
X01600Y05775D02*
X02400Y05775D01*
X02400Y05775D02*
X02400Y05225D01*
X02400Y05225D02*
X01600Y05225D01*
X00600Y04225D02*
X00600Y04775D01*
X00600Y04775D02*
X01400Y04775D01*
X01400Y04775D02*
X01400Y04225D01*
X01400Y04225D02*
X00600Y04225D01*
X01600Y04225D02*
X01600Y04775D01*
X01600Y04775D02*
X02400Y04775D01*
X02400Y04775D02*
X02400Y04225D01*
X02400Y04225D02*
X01600Y04225D01*
X00600Y03225D02*
X00600Y03775D01*
X00600Y03775D02*
X01400Y03775D01*
X01400Y03775D02*
X01400Y03225D01*
X01400Y03225D02*
X00600Y03225D01*
X01600Y03225D02*
X01600Y03775D01*
X01600Y03775D02*
X02400Y03775D01*
X02400Y03775D02*
X02400Y03225D01*
X02400Y03225D02*
X01600Y03225D01*
X27600Y22225D02*
X27600Y22775D01*
X27600Y22775D02*
X28400Y22775D01*
X28400Y22775D02*
X28400Y22225D01*
X28400Y22225D02*
X27600Y22225D01*
X26600Y22225D02*
X26600Y22775D01*
X26600Y22775D02*
X27400Y22775D01*
X27400Y22775D02*
X27400Y22225D01*
X27400Y22225D02*
X26600Y22225D01*
X26600Y21225D02*
X26600Y21775D01*
X26600Y21775D02*
X27400Y21775D01*
X27400Y21775D02*
X27400Y21225D01*
X27400Y21225D02*
X26600Y21225D01*
X27600Y21225D02*
X27600Y21775D01*
X27600Y21775D02*
X28400Y21775D01*
X28400Y21775D02*
X28400Y21225D01*
X28400Y21225D02*
X27600Y21225D01*
X26600Y20225D02*
X26600Y20775D01*
X26600Y20775D02*
X27400Y20775D01*
X27400Y20775D02*
X27400Y20225D01*
X27400Y20225D02*
X26600Y20225D01*
X27600Y20225D02*
X27600Y20775D01*
X27600Y20775D02*
X28400Y20775D01*
X28400Y20775D02*
X28400Y20225D01*
X28400Y20225D02*
X27600Y20225D01*
X26600Y19225D02*
X26600Y19775D01*
X26600Y19775D02*
X27400Y19775D01*
X27400Y19775D02*
X27400Y19225D01*
X27400Y19225D02*
X26600Y19225D01*
X27600Y19225D02*
X27600Y19775D01*
X27600Y19775D02*
X28400Y19775D01*
X28400Y19775D02*
X28400Y19225D01*
X28400Y19225D02*
X27600Y19225D01*
X26600Y18225D02*
X26600Y18775D01*
X26600Y18775D02*
X27400Y18775D01*
X27400Y18775D02*
X27400Y18225D01*
X27400Y18225D02*
X26600Y18225D01*
X27600Y18225D02*
X27600Y18775D01*
X27600Y18775D02*
X28400Y18775D01*
X28400Y18775D02*
X28400Y18225D01*
X28400Y18225D02*
X27600Y18225D01*
X26600Y17225D02*
X26600Y17775D01*
X26600Y17775D02*
X27400Y17775D01*
X27400Y17775D02*
X27400Y17225D01*
X27400Y17225D02*
X26600Y17225D01*
X27600Y17225D02*
X27600Y17775D01*
X27600Y17775D02*
X28400Y17775D01*
X28400Y17775D02*
X28400Y17225D01*
X28400Y17225D02*
X27600Y17225D01*
X26600Y16225D02*
X26600Y16775D01*
X26600Y16775D02*
X27400Y16775D01*
X27400Y16775D02*
X27400Y16225D01*
X27400Y16225D02*
X26600Y16225D01*
X27600Y16225D02*
X27600Y16775D01*
X27600Y16775D02*
X28400Y16775D01*
X28400Y16775D02*
X28400Y16225D01*
X28400Y16225D02*
X27600Y16225D01*
X26600Y15225D02*
X26600Y15775D01*
X26600Y15775D02*
X27400Y15775D01*
X27400Y15775D02*
X27400Y15225D01*
X27400Y15225D02*
X26600Y15225D01*
X27600Y15225D02*
X27600Y15775D01*
X27600Y15775D02*
X28400Y15775D01*
X28400Y15775D02*
X28400Y15225D01*
X28400Y15225D02*
X27600Y15225D01*
X26600Y14225D02*
X26600Y14775D01*
X26600Y14775D02*
X27400Y14775D01*
X27400Y14775D02*
X27400Y14225D01*
X27400Y14225D02*
X26600Y14225D01*
X27600Y14225D02*
X27600Y14775D01*
X27600Y14775D02*
X28400Y14775D01*
X28400Y14775D02*
X28400Y14225D01*
X28400Y14225D02*
X27600Y14225D01*
X26600Y13225D02*
X26600Y13775D01*
X26600Y13775D02*
X27400Y13775D01*
X27400Y13775D02*
X27400Y13225D01*
X27400Y13225D02*
X26600Y13225D01*
X27600Y13225D02*
X27600Y13775D01*
X27600Y13775D02*
X28400Y13775D01*
X28400Y13775D02*
X28400Y13225D01*
X28400Y13225D02*
X27600Y13225D01*
X26600Y12225D02*
X26600Y12775D01*
X26600Y12775D02*
X27400Y12775D01*
X27400Y12775D02*
X27400Y12225D01*
X27400Y12225D02*
X26600Y12225D01*
X27600Y12225D02*
X27600Y12775D01*
X27600Y12775D02*
X28400Y12775D01*
X28400Y12775D02*
X28400Y12225D01*
X28400Y12225D02*
X27600Y12225D01*
X26600Y11225D02*
X26600Y11775D01*
X26600Y11775D02*
X27400Y11775D01*
X27400Y11775D02*
X27400Y11225D01*
X27400Y11225D02*
X26600Y11225D01*
X27600Y11225D02*
X27600Y11775D01*
X27600Y11775D02*
X28400Y11775D01*
X28400Y11775D02*
X28400Y11225D01*
X28400Y11225D02*
X27600Y11225D01*
X26600Y10225D02*
X26600Y10775D01*
X26600Y10775D02*
X27400Y10775D01*
X27400Y10775D02*
X27400Y10225D01*
X27400Y10225D02*
X26600Y10225D01*
X27600Y10225D02*
X27600Y10775D01*
X27600Y10775D02*
X28400Y10775D01*
X28400Y10775D02*
X28400Y10225D01*
X28400Y10225D02*
X27600Y10225D01*
X26600Y09225D02*
X26600Y09775D01*
X26600Y09775D02*
X27400Y09775D01*
X27400Y09775D02*
X27400Y09225D01*
X27400Y09225D02*
X26600Y09225D01*
X27600Y09225D02*
X27600Y09775D01*
X27600Y09775D02*
X28400Y09775D01*
X28400Y09775D02*
X28400Y09225D01*
X28400Y09225D02*
X27600Y09225D01*
X26600Y08225D02*
X26600Y08775D01*
X26600Y08775D02*
X27400Y08775D01*
X27400Y08775D02*
X27400Y08225D01*
X27400Y08225D02*
X26600Y08225D01*
X27600Y08225D02*
X27600Y08775D01*
X27600Y08775D02*
X28400Y08775D01*
X28400Y08775D02*
X28400Y08225D01*
X28400Y08225D02*
X27600Y08225D01*
X26600Y07225D02*
X26600Y07775D01*
X26600Y07775D02*
X27400Y07775D01*
X27400Y07775D02*
X27400Y07225D01*
X27400Y07225D02*
X26600Y07225D01*
X27600Y07225D02*
X27600Y07775D01*
X27600Y07775D02*
X28400Y07775D01*
X28400Y07775D02*
X28400Y07225D01*
X28400Y07225D02*
X27600Y07225D01*
X26600Y06225D02*
X26600Y06775D01*
X26600Y06775D02*
X27400Y06775D01*
X27400Y06775D02*
X27400Y06225D01*
X27400Y06225D02*
X26600Y06225D01*
X27600Y06225D02*
X27600Y06775D01*
X27600Y06775D02*
X28400Y06775D01*
X28400Y06775D02*
X28400Y06225D01*
X28400Y06225D02*
X27600Y06225D01*
X26600Y05225D02*
X26600Y05775D01*
X26600Y05775D02*
X27400Y05775D01*
X27400Y05775D02*
X27400Y05225D01*
X27400Y05225D02*
X26600Y05225D01*
X27600Y05225D02*
X27600Y05775D01*
X27600Y05775D02*
X28400Y05775D01*
X28400Y05775D02*
X28400Y05225D01*
X28400Y05225D02*
X27600Y05225D01*
X26600Y04225D02*
X26600Y04775D01*
X26600Y04775D02*
X27400Y04775D01*
X27400Y04775D02*
X27400Y04225D01*
X27400Y04225D02*
X26600Y04225D01*
X27600Y04225D02*
X27600Y04775D01*
X27600Y04775D02*
X28400Y04775D01*
X28400Y04775D02*
X28400Y04225D01*
X28400Y04225D02*
X27600Y04225D01*
X26600Y03225D02*
X26600Y03775D01*
X26600Y03775D02*
X27400Y03775D01*
X27400Y03775D02*
X27400Y03225D01*
X27400Y03225D02*
X26600Y03225D01*
X27600Y03225D02*
X27600Y03775D01*
X27600Y03775D02*
X28400Y03775D01*
X28400Y03775D02*
X28400Y03225D01*
X28400Y03225D02*
X27600Y03225D01*
X26516Y23516D02*
X26516Y25484D01*
X26516Y25484D02*
X28484Y25484D01*
X28484Y25484D02*
X28484Y23516D01*
X28484Y23516D02*
X26516Y23516D01*
X26516Y00516D02*
X26516Y02484D01*
X26516Y02484D02*
X28484Y02484D01*
X28484Y02484D02*
X28484Y00516D01*
X28484Y00516D02*
X26516Y00516D01*
X00516Y00516D02*
X00516Y02484D01*
X00516Y02484D02*
X02484Y02484D01*
X02484Y02484D02*
X02484Y00516D01*
X02484Y00516D02*
X00516Y00516D01*
X00516Y23516D02*
X00516Y25484D01*
X00516Y25484D02*
X02484Y25484D01*
X02484Y25484D02*
X02484Y23516D01*
X02484Y23516D02*
X00516Y23516D01*
X20500Y06200D02*
X20500Y02200D01*
X20500Y02200D02*
X19800Y02200D01*
X19800Y02200D02*
X19800Y06200D01*
X19800Y06200D02*
X20500Y06200D01*
X14500Y06200D02*
X14500Y02200D01*
X14500Y02200D02*
X13800Y02200D01*
X13800Y02200D02*
X13800Y06200D01*
X13800Y06200D02*
X14500Y06200D01*
X05300Y12116D02*
X04300Y12116D01*
X04300Y12116D02*
X04300Y14084D01*
X04300Y14084D02*
X05300Y14084D01*
X05300Y14084D02*
X05300Y12116D01*
X09300Y12116D02*
X08300Y12116D01*
X08300Y12116D02*
X08300Y14084D01*
X08300Y14084D02*
X09300Y14084D01*
X09300Y14084D02*
X09300Y12116D01*
X22490Y03150D02*
X22490Y04050D01*
X22490Y04050D02*
X23110Y04050D01*
X23110Y04050D02*
X23110Y03150D01*
X23110Y03150D02*
X22490Y03150D01*
X23490Y03150D02*
X23490Y04050D01*
X23490Y04050D02*
X24110Y04050D01*
X24110Y04050D02*
X24110Y03150D01*
X24110Y03150D02*
X23490Y03150D01*
X24490Y03150D02*
X24490Y04050D01*
X24490Y04050D02*
X25110Y04050D01*
X25110Y04050D02*
X25110Y03150D01*
X25110Y03150D02*
X24490Y03150D01*
X25490Y03150D02*
X25490Y04050D01*
X25490Y04050D02*
X26110Y04050D01*
X26110Y04050D02*
X26110Y03150D01*
X26110Y03150D02*
X25490Y03150D01*
X25490Y06150D02*
X25490Y07050D01*
X25490Y07050D02*
X26110Y07050D01*
X26110Y07050D02*
X26110Y06150D01*
X26110Y06150D02*
X25490Y06150D01*
X24490Y06150D02*
X24490Y07050D01*
X24490Y07050D02*
X25110Y07050D01*
X25110Y07050D02*
X25110Y06150D01*
X25110Y06150D02*
X24490Y06150D01*
X23490Y06150D02*
X23490Y07050D01*
X23490Y07050D02*
X24110Y07050D01*
X24110Y07050D02*
X24110Y06150D01*
X24110Y06150D02*
X23490Y06150D01*
X22490Y06150D02*
X22490Y07050D01*
X22490Y07050D02*
X23110Y07050D01*
X23110Y07050D02*
X23110Y06150D01*
X23110Y06150D02*
X22490Y06150D01*
X12900Y12850D02*
X12200Y12850D01*
X12200Y12850D02*
X12200Y13550D01*
X12200Y13550D02*
X12900Y13550D01*
X12900Y13550D02*
X12900Y12850D01*
X10900Y13200D02*
X10892Y13128D01*
X10892Y13128D02*
X10869Y13058D01*
X10869Y13058D02*
X10833Y12995D01*
X10833Y12995D02*
X10784Y12940D01*
X10784Y12940D02*
X10725Y12897D01*
X10725Y12897D02*
X10658Y12868D01*
X10658Y12868D02*
X10586Y12852D01*
X10586Y12852D02*
X10514Y12852D01*
X10514Y12852D02*
X10442Y12868D01*
X10442Y12868D02*
X10375Y12897D01*
X10375Y12897D02*
X10316Y12940D01*
X10316Y12940D02*
X10267Y12995D01*
X10267Y12995D02*
X10231Y13058D01*
X10231Y13058D02*
X10208Y13128D01*
X10208Y13128D02*
X10200Y13200D01*
X10200Y13200D02*
X10208Y13272D01*
X10208Y13272D02*
X10231Y13342D01*
X10231Y13342D02*
X10267Y13405D01*
X10267Y13405D02*
X10316Y13460D01*
X10316Y13460D02*
X10375Y13503D01*
X10375Y13503D02*
X10442Y13532D01*
X10442Y13532D02*
X10514Y13548D01*
X10514Y13548D02*
X10586Y13548D01*
X10586Y13548D02*
X10658Y13532D01*
X10658Y13532D02*
X10725Y13503D01*
X10725Y13503D02*
X10784Y13460D01*
X10784Y13460D02*
X10833Y13405D01*
X10833Y13405D02*
X10869Y13342D01*
X10869Y13342D02*
X10892Y13272D01*
X10892Y13272D02*
X10900Y13200D01*
X08980Y03260D02*
X08980Y02140D01*
X08980Y02140D02*
X08420Y02140D01*
X08420Y02140D02*
X08420Y03260D01*
X08420Y03260D02*
X08980Y03260D01*
X07980Y03260D02*
X07980Y02140D01*
X07980Y02140D02*
X07420Y02140D01*
X07420Y02140D02*
X07420Y03260D01*
X07420Y03260D02*
X07980Y03260D01*
X06980Y03260D02*
X06980Y02140D01*
X06980Y02140D02*
X06420Y02140D01*
X06420Y02140D02*
X06420Y03260D01*
X06420Y03260D02*
X06980Y03260D01*
X05980Y03260D02*
X05980Y02140D01*
X05980Y02140D02*
X05420Y02140D01*
X05420Y02140D02*
X05420Y03260D01*
X05420Y03260D02*
X05980Y03260D01*
X04520Y08540D02*
X04520Y09660D01*
X04520Y09660D02*
X05080Y09660D01*
X05080Y09660D02*
X05080Y08540D01*
X05080Y08540D02*
X04520Y08540D01*
X05520Y08540D02*
X05520Y09660D01*
X05520Y09660D02*
X06080Y09660D01*
X06080Y09660D02*
X06080Y08540D01*
X06080Y08540D02*
X05520Y08540D01*
X06520Y08540D02*
X06520Y09660D01*
X06520Y09660D02*
X07080Y09660D01*
X07080Y09660D02*
X07080Y08540D01*
X07080Y08540D02*
X06520Y08540D01*
X07520Y08540D02*
X07520Y09660D01*
X07520Y09660D02*
X08080Y09660D01*
X08080Y09660D02*
X08080Y08540D01*
X08080Y08540D02*
X07520Y08540D01*
X09958Y15915D02*
X09958Y17685D01*
X09958Y17685D02*
X10842Y17685D01*
X10842Y17685D02*
X10842Y15915D01*
X10842Y15915D02*
X09958Y15915D01*
X03958Y15915D02*
X03958Y17685D01*
X03958Y17685D02*
X04842Y17685D01*
X04842Y17685D02*
X04842Y15915D01*
X04842Y15915D02*
X03958Y15915D01*
X13695Y23499D02*
X13695Y22319D01*
X13695Y22319D02*
X13105Y22319D01*
X13105Y22319D02*
X13105Y23499D01*
X13105Y23499D02*
X13695Y23499D01*
X13695Y25428D02*
X13695Y24248D01*
X13695Y24248D02*
X13105Y24248D01*
X13105Y24248D02*
X13105Y25428D01*
X13105Y25428D02*
X13695Y25428D01*
X12633Y24444D02*
X12633Y23264D01*
X12633Y23264D02*
X12043Y23264D01*
X12043Y23264D02*
X12043Y24444D01*
X12043Y24444D02*
X12633Y24444D01*
X23420Y00840D02*
X23420Y01960D01*
X23420Y01960D02*
X23980Y01960D01*
X23980Y01960D02*
X23980Y00840D01*
X23980Y00840D02*
X23420Y00840D01*
X24420Y00840D02*
X24420Y01960D01*
X24420Y01960D02*
X24980Y01960D01*
X24980Y01960D02*
X24980Y00840D01*
X24980Y00840D02*
X24420Y00840D01*
X14085Y20908D02*
X12315Y20908D01*
X12315Y20908D02*
X12315Y21792D01*
X12315Y21792D02*
X14085Y21792D01*
X14085Y21792D02*
X14085Y20908D01*
X14085Y14908D02*
X12315Y14908D01*
X12315Y14908D02*
X12315Y15792D01*
X12315Y15792D02*
X14085Y15792D01*
X14085Y15792D02*
X14085Y14908D01*
X07075Y18075D02*
X06425Y18075D01*
X06425Y18075D02*
X06425Y18725D01*
X06425Y18725D02*
X07075Y18725D01*
X07075Y18725D02*
X07075Y18075D01*
X07075Y19400D02*
X07067Y19333D01*
X07067Y19333D02*
X07046Y19268D01*
X07046Y19268D02*
X07012Y19209D01*
X07012Y19209D02*
X06967Y19159D01*
X06967Y19159D02*
X06912Y19119D01*
X06912Y19119D02*
X06850Y19091D01*
X06850Y19091D02*
X06783Y19077D01*
X06783Y19077D02*
X06717Y19077D01*
X06717Y19077D02*
X06650Y19091D01*
X06650Y19091D02*
X06588Y19119D01*
X06588Y19119D02*
X06533Y19159D01*
X06533Y19159D02*
X06488Y19209D01*
X06488Y19209D02*
X06454Y19268D01*
X06454Y19268D02*
X06433Y19333D01*
X06433Y19333D02*
X06425Y19400D01*
X06425Y19400D02*
X06433Y19467D01*
X06433Y19467D02*
X06454Y19532D01*
X06454Y19532D02*
X06488Y19591D01*
X06488Y19591D02*
X06533Y19641D01*
X06533Y19641D02*
X06588Y19681D01*
X06588Y19681D02*
X06650Y19709D01*
X06650Y19709D02*
X06717Y19723D01*
X06717Y19723D02*
X06783Y19723D01*
X06783Y19723D02*
X06850Y19709D01*
X06850Y19709D02*
X06912Y19681D01*
X06912Y19681D02*
X06967Y19641D01*
X06967Y19641D02*
X07012Y19591D01*
X07012Y19591D02*
X07046Y19532D01*
X07046Y19532D02*
X07067Y19467D01*
X07067Y19467D02*
X07075Y19400D01*
G54D49*
X12876Y27800D02*
X12876Y27266D01*
X12876Y27266D02*
X12951Y27200D01*
X12951Y27200D02*
X13326Y27200D01*
X13326Y27200D02*
X13401Y27266D01*
X13401Y27266D02*
X13401Y27800D01*
X13812Y27200D02*
X14112Y27200D01*
X13962Y27200D02*
X13962Y27800D01*
X13962Y27733D02*
X13812Y27600D01*
X-00982Y27200D02*
X-00982Y27800D01*
X-00982Y27800D02*
X-00457Y27800D01*
X-00982Y27533D02*
X-00682Y27533D01*
X-00121Y27200D02*
X-00196Y27266D01*
X-00196Y27266D02*
X-00196Y27733D01*
X-00196Y27733D02*
X-00121Y27800D01*
X-00121Y27800D02*
X00254Y27800D01*
X00254Y27800D02*
X00329Y27733D01*
X00329Y27733D02*
X00329Y27266D01*
X00329Y27266D02*
X00254Y27200D01*
X00254Y27200D02*
X-00121Y27200D01*
X00590Y27200D02*
X01115Y27800D01*
X00590Y27800D02*
X01115Y27200D01*
X01376Y27200D02*
X01376Y27800D01*
X01376Y27800D02*
X01826Y27800D01*
X01826Y27800D02*
X01901Y27733D01*
X01901Y27733D02*
X01901Y27600D01*
X01901Y27600D02*
X01826Y27533D01*
X01826Y27533D02*
X01376Y27533D01*
X01826Y27533D02*
X01901Y27400D01*
X01901Y27400D02*
X01901Y27266D01*
X01901Y27266D02*
X01826Y27200D01*
X01826Y27200D02*
X01376Y27200D01*
X02237Y27200D02*
X02162Y27266D01*
X02162Y27266D02*
X02162Y27733D01*
X02162Y27733D02*
X02237Y27800D01*
X02237Y27800D02*
X02612Y27800D01*
X02612Y27800D02*
X02687Y27733D01*
X02687Y27733D02*
X02687Y27266D01*
X02687Y27266D02*
X02612Y27200D01*
X02612Y27200D02*
X02237Y27200D01*
X02948Y27200D02*
X02948Y27666D01*
X02948Y27666D02*
X03098Y27800D01*
X03098Y27800D02*
X03323Y27800D01*
X03323Y27800D02*
X03473Y27666D01*
X03473Y27666D02*
X03473Y27200D01*
X02948Y27533D02*
X03473Y27533D01*
X03734Y27200D02*
X03734Y27800D01*
X03734Y27800D02*
X04184Y27800D01*
X04184Y27800D02*
X04259Y27733D01*
X04259Y27733D02*
X04259Y27533D01*
X04259Y27533D02*
X04184Y27466D01*
X04184Y27466D02*
X03734Y27466D01*
X03959Y27466D02*
X04259Y27200D01*
X04595Y27200D02*
X04595Y27800D01*
X04520Y27800D02*
X04970Y27800D01*
X04970Y27800D02*
X05045Y27733D01*
X05045Y27733D02*
X05045Y27266D01*
X05045Y27266D02*
X04970Y27200D01*
X04970Y27200D02*
X04520Y27200D01*
X10100Y22083D02*
X10634Y22083D01*
X10634Y22083D02*
X10700Y22158D01*
X10700Y22158D02*
X10700Y22533D01*
X10700Y22533D02*
X10634Y22608D01*
X10634Y22608D02*
X10100Y22608D01*
X10634Y22869D02*
X10700Y22944D01*
X10700Y22944D02*
X10700Y23319D01*
X10700Y23319D02*
X10634Y23394D01*
X10634Y23394D02*
X10434Y23394D01*
X10434Y23394D02*
X10367Y23319D01*
X10367Y23319D02*
X10367Y22944D01*
X10367Y22944D02*
X10300Y22869D01*
X10300Y22869D02*
X10167Y22869D01*
X10167Y22869D02*
X10100Y22944D01*
X10100Y22944D02*
X10100Y23319D01*
X10100Y23319D02*
X10167Y23394D01*
X10700Y23655D02*
X10100Y23655D01*
X10100Y23655D02*
X10100Y24105D01*
X10100Y24105D02*
X10167Y24180D01*
X10167Y24180D02*
X10300Y24180D01*
X10300Y24180D02*
X10367Y24105D01*
X10367Y24105D02*
X10367Y23655D01*
X10367Y24105D02*
X10500Y24180D01*
X10500Y24180D02*
X10634Y24180D01*
X10634Y24180D02*
X10700Y24105D01*
X10700Y24105D02*
X10700Y23655D01*
X03590Y00700D02*
X03590Y01166D01*
X03590Y01166D02*
X03740Y01300D01*
X03740Y01300D02*
X03965Y01300D01*
X03965Y01300D02*
X04115Y01166D01*
X04115Y01166D02*
X04115Y00700D01*
X03590Y01033D02*
X04115Y01033D01*
X04376Y01300D02*
X04376Y00700D01*
X04376Y00700D02*
X04976Y00700D01*
X05237Y00700D02*
X05537Y00700D01*
X05387Y00700D02*
X05387Y01300D01*
X05237Y01300D02*
X05537Y01300D01*
X05948Y00700D02*
X05948Y01300D01*
X05948Y01300D02*
X06248Y01033D01*
X06248Y01033D02*
X06548Y01300D01*
X06548Y01300D02*
X06548Y00700D01*
X03900Y22283D02*
X04434Y22283D01*
X04434Y22283D02*
X04500Y22358D01*
X04500Y22358D02*
X04500Y22733D01*
X04500Y22733D02*
X04434Y22808D01*
X04434Y22808D02*
X03900Y22808D01*
X04434Y23069D02*
X04500Y23144D01*
X04500Y23144D02*
X04500Y23519D01*
X04500Y23519D02*
X04434Y23594D01*
X04434Y23594D02*
X04234Y23594D01*
X04234Y23594D02*
X04167Y23519D01*
X04167Y23519D02*
X04167Y23144D01*
X04167Y23144D02*
X04100Y23069D01*
X04100Y23069D02*
X03967Y23069D01*
X03967Y23069D02*
X03900Y23144D01*
X03900Y23144D02*
X03900Y23519D01*
X03900Y23519D02*
X03967Y23594D01*
X04500Y23855D02*
X03900Y23855D01*
X03900Y23855D02*
X03900Y24305D01*
X03900Y24305D02*
X03967Y24380D01*
X03967Y24380D02*
X04100Y24380D01*
X04100Y24380D02*
X04167Y24305D01*
X04167Y24305D02*
X04167Y23855D01*
X04167Y24305D02*
X04300Y24380D01*
X04300Y24380D02*
X04434Y24380D01*
X04434Y24380D02*
X04500Y24305D01*
X04500Y24305D02*
X04500Y23855D01*
X22508Y22400D02*
X21983Y22400D01*
X21983Y22400D02*
X21983Y23000D01*
X21983Y23000D02*
X22508Y23000D01*
X21983Y22733D02*
X22283Y22733D01*
X22769Y23000D02*
X23369Y23000D01*
X23069Y23000D02*
X23069Y22400D01*
X23555Y22400D02*
X23555Y23000D01*
X24080Y22400D02*
X24080Y23000D01*
X23555Y22666D02*
X24080Y22666D01*
X23601Y12800D02*
X23601Y12733D01*
X23601Y12533D02*
X23601Y12067D01*
X23601Y12067D02*
X23526Y12000D01*
X23526Y12000D02*
X23451Y12067D01*
X24687Y12733D02*
X24612Y12800D01*
X24612Y12800D02*
X24237Y12800D01*
X24237Y12800D02*
X24162Y12733D01*
X24162Y12733D02*
X24162Y12266D01*
X24162Y12266D02*
X24237Y12200D01*
X24237Y12200D02*
X24612Y12200D01*
X24612Y12200D02*
X24687Y12266D01*
X24687Y12266D02*
X24687Y12466D01*
X24687Y12466D02*
X24612Y12533D01*
X24612Y12533D02*
X24237Y12533D01*
X24237Y12533D02*
X24162Y12466D01*
X03101Y13300D02*
X03101Y13233D01*
X03101Y13033D02*
X03101Y12567D01*
X03101Y12567D02*
X03026Y12500D01*
X03026Y12500D02*
X02951Y12567D01*
X03662Y13300D02*
X04187Y13300D01*
X04187Y13300D02*
X03662Y12700D01*
X15347Y04400D02*
X15347Y05000D01*
X15347Y05000D02*
X15797Y05000D01*
X15797Y05000D02*
X15872Y04933D01*
X15872Y04933D02*
X15872Y04800D01*
X15872Y04800D02*
X15797Y04733D01*
X15797Y04733D02*
X15347Y04733D01*
X15797Y04733D02*
X15872Y04600D01*
X15872Y04600D02*
X15872Y04466D01*
X15872Y04466D02*
X15797Y04400D01*
X15797Y04400D02*
X15347Y04400D01*
X16133Y04400D02*
X16133Y04866D01*
X16133Y04866D02*
X16283Y05000D01*
X16283Y05000D02*
X16508Y05000D01*
X16508Y05000D02*
X16658Y04866D01*
X16658Y04866D02*
X16658Y04400D01*
X16133Y04733D02*
X16658Y04733D01*
X16919Y05000D02*
X17519Y05000D01*
X17219Y05000D02*
X17219Y04400D01*
X17705Y05000D02*
X18305Y05000D01*
X18005Y05000D02*
X18005Y04400D01*
X18641Y04400D02*
X18941Y04400D01*
X18791Y04400D02*
X18791Y05000D01*
X18791Y04933D02*
X18641Y04800D01*
X15979Y05466D02*
X15904Y05400D01*
X15904Y05400D02*
X15529Y05400D01*
X15529Y05400D02*
X15454Y05466D01*
X15454Y05466D02*
X15454Y05933D01*
X15454Y05933D02*
X15529Y06000D01*
X15529Y06000D02*
X15904Y06000D01*
X15904Y06000D02*
X15979Y05933D01*
X16240Y05400D02*
X16240Y06000D01*
X16240Y06000D02*
X16690Y06000D01*
X16690Y06000D02*
X16765Y05933D01*
X16765Y05933D02*
X16765Y05733D01*
X16765Y05733D02*
X16690Y05666D01*
X16690Y05666D02*
X16240Y05666D01*
X16465Y05666D02*
X16765Y05400D01*
X17551Y05400D02*
X17026Y05400D01*
X17026Y05400D02*
X17026Y05600D01*
X17026Y05600D02*
X17101Y05666D01*
X17101Y05666D02*
X17476Y05666D01*
X17476Y05666D02*
X17551Y05733D01*
X17551Y05733D02*
X17551Y05933D01*
X17551Y05933D02*
X17476Y06000D01*
X17476Y06000D02*
X17101Y06000D01*
X17101Y06000D02*
X17026Y05933D01*
X17812Y05400D02*
X18337Y06000D01*
X17812Y05466D02*
X17812Y05933D01*
X17812Y05933D02*
X17887Y06000D01*
X17887Y06000D02*
X18262Y06000D01*
X18262Y06000D02*
X18337Y05933D01*
X18337Y05933D02*
X18337Y05466D01*
X18337Y05466D02*
X18262Y05400D01*
X18262Y05400D02*
X17887Y05400D01*
X17887Y05400D02*
X17812Y05466D01*
X18598Y06000D02*
X19123Y06000D01*
X19123Y06000D02*
X19123Y05933D01*
X19123Y05933D02*
X18823Y05733D01*
X18823Y05733D02*
X19048Y05733D01*
X19048Y05733D02*
X19123Y05666D01*
X19123Y05666D02*
X19123Y05466D01*
X19123Y05466D02*
X19048Y05400D01*
X19048Y05400D02*
X18673Y05400D01*
X18673Y05400D02*
X18598Y05466D01*
X19909Y05400D02*
X19384Y05400D01*
X19384Y05400D02*
X19384Y05600D01*
X19384Y05600D02*
X19459Y05666D01*
X19459Y05666D02*
X19834Y05666D01*
X19834Y05666D02*
X19909Y05733D01*
X19909Y05733D02*
X19909Y05933D01*
X19909Y05933D02*
X19834Y06000D01*
X19834Y06000D02*
X19459Y06000D01*
X19459Y06000D02*
X19384Y05933D01*
X14384Y17197D02*
X14450Y17122D01*
X14450Y17122D02*
X14450Y16747D01*
X14450Y16747D02*
X14384Y16672D01*
X14384Y16672D02*
X13917Y16672D01*
X13917Y16672D02*
X13850Y16747D01*
X13850Y16747D02*
X13850Y17122D01*
X13850Y17122D02*
X13917Y17197D01*
X14450Y17533D02*
X14384Y17458D01*
X14384Y17458D02*
X13917Y17458D01*
X13917Y17458D02*
X13850Y17533D01*
X13850Y17533D02*
X13850Y17908D01*
X13850Y17908D02*
X13917Y17983D01*
X13917Y17983D02*
X14384Y17983D01*
X14384Y17983D02*
X14450Y17908D01*
X14450Y17908D02*
X14450Y17533D01*
X14450Y18244D02*
X13850Y18244D01*
X13850Y18244D02*
X14450Y18769D01*
X14450Y18769D02*
X13850Y18769D01*
X14450Y19030D02*
X13850Y19030D01*
X13850Y19030D02*
X14450Y19555D01*
X14450Y19555D02*
X13850Y19555D01*
X14450Y19966D02*
X14450Y20266D01*
X14450Y20116D02*
X13850Y20116D01*
X13917Y20116D02*
X14050Y19966D01*
X13109Y18676D02*
X13175Y18751D01*
X13175Y18751D02*
X13175Y19126D01*
X13175Y19126D02*
X13109Y19201D01*
X13109Y19201D02*
X12909Y19201D01*
X12909Y19201D02*
X12842Y19126D01*
X12842Y19126D02*
X12842Y18751D01*
X12842Y18751D02*
X12775Y18676D01*
X12775Y18676D02*
X12642Y18676D01*
X12642Y18676D02*
X12575Y18751D01*
X12575Y18751D02*
X12575Y19126D01*
X12575Y19126D02*
X12642Y19201D01*
X13175Y19537D02*
X12575Y19537D01*
X12575Y19462D02*
X12575Y19912D01*
X12575Y19912D02*
X12642Y19987D01*
X12642Y19987D02*
X13109Y19987D01*
X13109Y19987D02*
X13175Y19912D01*
X13175Y19912D02*
X13175Y19462D01*
X03000Y15476D02*
X03600Y15476D01*
X03600Y15476D02*
X03600Y16076D01*
X03600Y16412D02*
X03600Y16712D01*
X03600Y16562D02*
X03000Y16562D01*
X03067Y16562D02*
X03200Y16412D01*
X02000Y08332D02*
X02000Y08857D01*
X02000Y08857D02*
X02067Y08857D01*
X02067Y08857D02*
X02267Y08557D01*
X02267Y08557D02*
X02267Y08782D01*
X02267Y08782D02*
X02334Y08857D01*
X02334Y08857D02*
X02534Y08857D01*
X02534Y08857D02*
X02600Y08782D01*
X02600Y08782D02*
X02600Y08407D01*
X02600Y08407D02*
X02534Y08332D01*
X02067Y09643D02*
X02000Y09568D01*
X02000Y09568D02*
X02000Y09193D01*
X02000Y09193D02*
X02067Y09118D01*
X02067Y09118D02*
X02534Y09118D01*
X02534Y09118D02*
X02600Y09193D01*
X02600Y09193D02*
X02600Y09568D01*
X02600Y09568D02*
X02534Y09643D01*
X02534Y09643D02*
X02334Y09643D01*
X02334Y09643D02*
X02267Y09568D01*
X02267Y09568D02*
X02267Y09193D01*
X02267Y09193D02*
X02334Y09118D01*
X02000Y09904D02*
X02000Y10429D01*
X02000Y10429D02*
X02067Y10429D01*
X02067Y10429D02*
X02267Y10129D01*
X02267Y10129D02*
X02267Y10354D01*
X02267Y10354D02*
X02334Y10429D01*
X02334Y10429D02*
X02534Y10429D01*
X02534Y10429D02*
X02600Y10354D01*
X02600Y10354D02*
X02600Y09979D01*
X02600Y09979D02*
X02534Y09904D01*
X02600Y10840D02*
X02600Y11140D01*
X02600Y10990D02*
X02000Y10990D01*
X02067Y10990D02*
X02200Y10840D01*
X02600Y11476D02*
X02000Y11476D01*
X02000Y11476D02*
X02000Y11926D01*
X02000Y11926D02*
X02067Y12001D01*
X02067Y12001D02*
X02200Y12001D01*
X02200Y12001D02*
X02267Y11926D01*
X02267Y11926D02*
X02267Y11476D01*
X02267Y11926D02*
X02400Y12001D01*
X02400Y12001D02*
X02534Y12001D01*
X02534Y12001D02*
X02600Y11926D01*
X02600Y11926D02*
X02600Y11476D01*
X02000Y12262D02*
X02000Y12787D01*
X02000Y12787D02*
X02067Y12787D01*
X02067Y12787D02*
X02267Y12487D01*
X02267Y12487D02*
X02267Y12712D01*
X02267Y12712D02*
X02334Y12787D01*
X02334Y12787D02*
X02534Y12787D01*
X02534Y12787D02*
X02600Y12712D01*
X02600Y12712D02*
X02600Y12337D01*
X02600Y12337D02*
X02534Y12262D01*
X02000Y13048D02*
X02000Y13573D01*
X02000Y13573D02*
X02067Y13573D01*
X02067Y13573D02*
X02267Y13273D01*
X02267Y13273D02*
X02267Y13498D01*
X02267Y13498D02*
X02334Y13573D01*
X02334Y13573D02*
X02534Y13573D01*
X02534Y13573D02*
X02600Y13498D01*
X02600Y13498D02*
X02600Y13123D01*
X02600Y13123D02*
X02534Y13048D01*
X02600Y13834D02*
X02000Y14359D01*
X02534Y13834D02*
X02067Y13834D01*
X02067Y13834D02*
X02000Y13909D01*
X02000Y13909D02*
X02000Y14284D01*
X02000Y14284D02*
X02067Y14359D01*
X02067Y14359D02*
X02534Y14359D01*
X02534Y14359D02*
X02600Y14284D01*
X02600Y14284D02*
X02600Y13909D01*
X02600Y13909D02*
X02534Y13834D01*
X02000Y14620D02*
X02600Y14620D01*
X02600Y14620D02*
X02600Y15220D01*
X02000Y15406D02*
X02600Y15406D01*
X02600Y15406D02*
X02600Y16006D01*
X21450Y04604D02*
X22073Y04604D01*
X22073Y04604D02*
X22150Y04660D01*
X22150Y04660D02*
X22150Y04941D01*
X22150Y04941D02*
X22073Y04998D01*
X22073Y04998D02*
X21450Y04998D01*
X21450Y05224D02*
X21450Y05618D01*
X21450Y05618D02*
X21528Y05618D01*
X21528Y05618D02*
X21762Y05393D01*
X21762Y05393D02*
X21762Y05561D01*
X21762Y05561D02*
X21839Y05618D01*
X21839Y05618D02*
X22073Y05618D01*
X22073Y05618D02*
X22150Y05561D01*
X22150Y05561D02*
X22150Y05280D01*
X22150Y05280D02*
X22073Y05224D01*
X22770Y04750D02*
X22770Y05450D01*
X22720Y05450D02*
X23020Y05450D01*
X23020Y05450D02*
X23070Y05372D01*
X23070Y05372D02*
X23070Y04827D01*
X23070Y04827D02*
X23020Y04750D01*
X23020Y04750D02*
X22720Y04750D01*
X23284Y04827D02*
X23334Y04750D01*
X23334Y04750D02*
X23584Y04750D01*
X23584Y04750D02*
X23634Y04827D01*
X23634Y04827D02*
X23634Y05061D01*
X23634Y05061D02*
X23584Y05138D01*
X23584Y05138D02*
X23334Y05138D01*
X23334Y05138D02*
X23284Y05216D01*
X23284Y05216D02*
X23284Y05372D01*
X23284Y05372D02*
X23334Y05450D01*
X23334Y05450D02*
X23584Y05450D01*
X23584Y05450D02*
X23634Y05372D01*
X23948Y04750D02*
X24148Y04750D01*
X24048Y04750D02*
X24048Y05450D01*
X24048Y05372D02*
X23948Y05216D01*
X24412Y05450D02*
X24762Y05450D01*
X24762Y05450D02*
X24762Y05372D01*
X24762Y05372D02*
X24562Y05138D01*
X24562Y05138D02*
X24712Y05138D01*
X24712Y05138D02*
X24762Y05061D01*
X24762Y05061D02*
X24762Y04827D01*
X24762Y04827D02*
X24712Y04750D01*
X24712Y04750D02*
X24462Y04750D01*
X24462Y04750D02*
X24412Y04827D01*
X24976Y04750D02*
X25326Y05450D01*
X24976Y04827D02*
X24976Y05372D01*
X24976Y05372D02*
X25026Y05450D01*
X25026Y05450D02*
X25276Y05450D01*
X25276Y05450D02*
X25326Y05372D01*
X25326Y05372D02*
X25326Y04827D01*
X25326Y04827D02*
X25276Y04750D01*
X25276Y04750D02*
X25026Y04750D01*
X25026Y04750D02*
X24976Y04827D01*
X25890Y04750D02*
X25540Y04750D01*
X25540Y04750D02*
X25540Y04983D01*
X25540Y04983D02*
X25590Y05061D01*
X25590Y05061D02*
X25840Y05061D01*
X25840Y05061D02*
X25890Y05138D01*
X25890Y05138D02*
X25890Y05372D01*
X25890Y05372D02*
X25840Y05450D01*
X25840Y05450D02*
X25590Y05450D01*
X25590Y05450D02*
X25540Y05372D01*
G54D53*
X04915Y26200D02*
X04915Y25755D01*
X04915Y25755D02*
X04978Y25700D01*
X04978Y25700D02*
X05290Y25700D01*
X05290Y25700D02*
X05353Y25755D01*
X05353Y25755D02*
X05353Y26200D01*
X05968Y25700D02*
X05530Y25700D01*
X05530Y25700D02*
X05530Y25866D01*
X05530Y25866D02*
X05593Y25922D01*
X05593Y25922D02*
X05905Y25922D01*
X05905Y25922D02*
X05968Y25977D01*
X05968Y25977D02*
X05968Y26144D01*
X05968Y26144D02*
X05905Y26200D01*
X05905Y26200D02*
X05593Y26200D01*
X05593Y26200D02*
X05530Y26144D01*
X02763Y21900D02*
X02763Y21400D01*
X02763Y21400D02*
X03263Y21400D01*
X03378Y21400D02*
X03378Y21900D01*
X03378Y21900D02*
X03628Y21677D01*
X03628Y21677D02*
X03878Y21900D01*
X03878Y21900D02*
X03878Y21400D01*
X04431Y21400D02*
X03993Y21400D01*
X03993Y21400D02*
X03993Y21566D01*
X03993Y21566D02*
X04056Y21622D01*
X04056Y21622D02*
X04368Y21622D01*
X04368Y21622D02*
X04431Y21677D01*
X04431Y21677D02*
X04431Y21844D01*
X04431Y21844D02*
X04368Y21900D01*
X04368Y21900D02*
X04056Y21900D01*
X04056Y21900D02*
X03993Y21844D01*
X04608Y21511D02*
X04608Y21455D01*
X04608Y21455D02*
X04671Y21400D01*
X04671Y21400D02*
X04983Y21400D01*
X04983Y21400D02*
X05046Y21455D01*
X05046Y21455D02*
X05046Y21622D01*
X05046Y21622D02*
X04921Y21733D01*
X04921Y21733D02*
X04608Y21733D01*
X04608Y21733D02*
X04608Y21900D01*
X04608Y21900D02*
X05046Y21900D01*
X05286Y21400D02*
X05598Y21400D01*
X05598Y21400D02*
X05661Y21455D01*
X05661Y21455D02*
X05661Y21844D01*
X05661Y21844D02*
X05598Y21900D01*
X05598Y21900D02*
X05286Y21900D01*
X05286Y21900D02*
X05223Y21844D01*
X05223Y21844D02*
X05223Y21677D01*
X05223Y21677D02*
X05286Y21622D01*
X05286Y21622D02*
X05598Y21622D01*
X05598Y21622D02*
X05661Y21677D01*
X06276Y21844D02*
X06213Y21900D01*
X06213Y21900D02*
X05901Y21900D01*
X05901Y21900D02*
X05838Y21844D01*
X05838Y21844D02*
X05838Y21455D01*
X05838Y21455D02*
X05901Y21400D01*
X05901Y21400D02*
X06213Y21400D01*
X06213Y21400D02*
X06276Y21455D01*
X06276Y21455D02*
X06276Y21622D01*
X06276Y21622D02*
X06213Y21677D01*
X06213Y21677D02*
X05901Y21677D01*
X05901Y21677D02*
X05838Y21622D01*
X06516Y21622D02*
X06828Y21622D01*
X07068Y21511D02*
X07068Y21455D01*
X07068Y21455D02*
X07131Y21400D01*
X07131Y21400D02*
X07443Y21400D01*
X07443Y21400D02*
X07506Y21455D01*
X07506Y21455D02*
X07506Y21622D01*
X07506Y21622D02*
X07381Y21733D01*
X07381Y21733D02*
X07068Y21733D01*
X07068Y21733D02*
X07068Y21900D01*
X07068Y21900D02*
X07506Y21900D01*
X07683Y21900D02*
X07933Y21400D01*
X07933Y21400D02*
X08183Y21900D01*
G54D33*
X21825Y03940D02*
X21575Y03940D01*
X21575Y03940D02*
X21575Y04127D01*
X21575Y04127D02*
X21603Y04159D01*
X21603Y04159D02*
X21687Y04159D01*
X21687Y04159D02*
X21714Y04127D01*
X21714Y04127D02*
X21714Y03940D01*
X21714Y04034D02*
X21825Y04159D01*
X21770Y04267D02*
X21798Y04267D01*
X21798Y04267D02*
X21825Y04298D01*
X21825Y04298D02*
X21825Y04454D01*
X21825Y04454D02*
X21798Y04486D01*
X21798Y04486D02*
X21714Y04486D01*
X21714Y04486D02*
X21659Y04423D01*
X21659Y04423D02*
X21659Y04267D01*
X21659Y04267D02*
X21575Y04267D01*
X21575Y04267D02*
X21575Y04486D01*
X07625Y05940D02*
X07375Y05940D01*
X07375Y05940D02*
X07375Y06127D01*
X07375Y06127D02*
X07403Y06159D01*
X07403Y06159D02*
X07487Y06159D01*
X07487Y06159D02*
X07514Y06127D01*
X07514Y06127D02*
X07514Y05940D01*
X07514Y06034D02*
X07625Y06159D01*
X07625Y06423D02*
X07375Y06423D01*
X07375Y06423D02*
X07570Y06267D01*
X07570Y06267D02*
X07570Y06486D01*
X06940Y07275D02*
X06940Y07525D01*
X06940Y07525D02*
X07127Y07525D01*
X07127Y07525D02*
X07159Y07497D01*
X07159Y07497D02*
X07159Y07413D01*
X07159Y07413D02*
X07127Y07386D01*
X07127Y07386D02*
X06940Y07386D01*
X07034Y07386D02*
X07159Y07275D01*
X07267Y07525D02*
X07486Y07525D01*
X07486Y07525D02*
X07486Y07497D01*
X07486Y07497D02*
X07361Y07413D01*
X07361Y07413D02*
X07454Y07413D01*
X07454Y07413D02*
X07486Y07386D01*
X07486Y07386D02*
X07486Y07302D01*
X07486Y07302D02*
X07454Y07275D01*
X07454Y07275D02*
X07298Y07275D01*
X07298Y07275D02*
X07267Y07302D01*
X08298Y18859D02*
X08325Y18827D01*
X08325Y18827D02*
X08325Y18671D01*
X08325Y18671D02*
X08298Y18640D01*
X08298Y18640D02*
X08103Y18640D01*
X08103Y18640D02*
X08075Y18671D01*
X08075Y18671D02*
X08075Y18827D01*
X08075Y18827D02*
X08103Y18859D01*
X08075Y18967D02*
X08075Y19186D01*
X08075Y19186D02*
X08103Y19186D01*
X08103Y19186D02*
X08187Y19061D01*
X08187Y19061D02*
X08187Y19154D01*
X08187Y19154D02*
X08214Y19186D01*
X08214Y19186D02*
X08298Y19186D01*
X08298Y19186D02*
X08325Y19154D01*
X08325Y19154D02*
X08325Y18998D01*
X08325Y18998D02*
X08298Y18967D01*
X11509Y15752D02*
X11477Y15725D01*
X11477Y15725D02*
X11321Y15725D01*
X11321Y15725D02*
X11290Y15752D01*
X11290Y15752D02*
X11290Y15947D01*
X11290Y15947D02*
X11321Y15975D01*
X11321Y15975D02*
X11477Y15975D01*
X11477Y15975D02*
X11509Y15947D01*
X11679Y15725D02*
X11804Y15725D01*
X11742Y15725D02*
X11742Y15975D01*
X11742Y15947D02*
X11679Y15891D01*
G54D53*
X05558Y06175D02*
X05558Y05775D01*
X05558Y05775D02*
X05614Y05725D01*
X05614Y05725D02*
X05895Y05725D01*
X05895Y05725D02*
X05952Y05775D01*
X05952Y05775D02*
X05952Y06175D01*
X06399Y05725D02*
X06399Y06175D01*
X06399Y06175D02*
X06118Y05825D01*
X06118Y05825D02*
X06512Y05825D01*
X04300Y05025D02*
X04300Y05375D01*
X04300Y05375D02*
X04563Y05375D01*
X04563Y05375D02*
X04607Y05336D01*
X04607Y05336D02*
X04607Y05219D01*
X04607Y05219D02*
X04563Y05180D01*
X04563Y05180D02*
X04300Y05180D01*
X04792Y05025D02*
X04748Y05063D01*
X04748Y05063D02*
X04748Y05180D01*
X04748Y05180D02*
X04792Y05219D01*
X04792Y05219D02*
X05011Y05219D01*
X05011Y05219D02*
X05055Y05258D01*
X05055Y05258D02*
X05055Y05336D01*
X05055Y05336D02*
X05011Y05375D01*
X05011Y05375D02*
X04792Y05375D01*
X04792Y05375D02*
X04748Y05336D01*
X04748Y05336D02*
X04748Y05258D01*
X04748Y05258D02*
X04792Y05219D01*
X05011Y05219D02*
X05055Y05180D01*
X05055Y05180D02*
X05055Y05063D01*
X05055Y05063D02*
X05011Y05025D01*
X05011Y05025D02*
X04792Y05025D01*
X05503Y05025D02*
X05196Y05025D01*
X05196Y05025D02*
X05196Y05141D01*
X05196Y05141D02*
X05240Y05180D01*
X05240Y05180D02*
X05459Y05180D01*
X05459Y05180D02*
X05503Y05219D01*
X05503Y05219D02*
X05503Y05336D01*
X05503Y05336D02*
X05459Y05375D01*
X05459Y05375D02*
X05240Y05375D01*
X05240Y05375D02*
X05196Y05336D01*
X05644Y05025D02*
X05644Y05375D01*
X05644Y05375D02*
X05907Y05375D01*
X05907Y05375D02*
X05951Y05336D01*
X05951Y05336D02*
X05951Y05258D01*
X05951Y05258D02*
X05907Y05219D01*
X05907Y05219D02*
X05644Y05219D01*
X05907Y05219D02*
X05951Y05141D01*
X05951Y05141D02*
X05951Y05063D01*
X05951Y05063D02*
X05907Y05025D01*
X05907Y05025D02*
X05644Y05025D01*
X06136Y05025D02*
X06355Y05025D01*
X06355Y05025D02*
X06399Y05063D01*
X06399Y05063D02*
X06399Y05336D01*
X06399Y05336D02*
X06355Y05375D01*
X06355Y05375D02*
X06136Y05375D01*
X06136Y05375D02*
X06092Y05336D01*
X06092Y05336D02*
X06092Y05219D01*
X06092Y05219D02*
X06136Y05180D01*
X06136Y05180D02*
X06355Y05180D01*
X06355Y05180D02*
X06399Y05219D01*
X06847Y05336D02*
X06803Y05375D01*
X06803Y05375D02*
X06584Y05375D01*
X06584Y05375D02*
X06540Y05336D01*
X06540Y05336D02*
X06540Y05063D01*
X06540Y05063D02*
X06584Y05025D01*
X06584Y05025D02*
X06803Y05025D01*
X06803Y05025D02*
X06847Y05063D01*
X06847Y05063D02*
X06847Y05180D01*
X06847Y05180D02*
X06803Y05219D01*
X06803Y05219D02*
X06584Y05219D01*
X06584Y05219D02*
X06540Y05180D01*
X06988Y05375D02*
X07338Y05375D01*
X07163Y05375D02*
X07163Y05025D01*
X07480Y05025D02*
X07480Y05375D01*
X07436Y05375D02*
X07699Y05375D01*
X07699Y05375D02*
X07743Y05336D01*
X07743Y05336D02*
X07743Y05063D01*
X07743Y05063D02*
X07699Y05025D01*
X07699Y05025D02*
X07436Y05025D01*
G54D56*
X08847Y01533D02*
X08890Y01582D01*
X08890Y01582D02*
X08890Y01826D01*
X08890Y01826D02*
X08847Y01875D01*
X08847Y01875D02*
X08717Y01875D01*
X08717Y01875D02*
X08674Y01826D01*
X08674Y01826D02*
X08674Y01582D01*
X08674Y01582D02*
X08630Y01533D01*
X08630Y01533D02*
X08544Y01533D01*
X08544Y01533D02*
X08500Y01582D01*
X08500Y01582D02*
X08500Y01826D01*
X08500Y01826D02*
X08544Y01875D01*
X08500Y02001D02*
X08890Y02001D01*
X08890Y02001D02*
X08890Y02391D01*
X08890Y02811D02*
X08890Y02469D01*
X08890Y02469D02*
X08760Y02469D01*
X08760Y02469D02*
X08717Y02518D01*
X08717Y02518D02*
X08717Y02762D01*
X08717Y02762D02*
X08674Y02811D01*
X08674Y02811D02*
X08544Y02811D01*
X08544Y02811D02*
X08500Y02762D01*
X08500Y02762D02*
X08500Y02518D01*
X08500Y02518D02*
X08544Y02469D01*
X07092Y01041D02*
X07092Y01541D01*
X07092Y01541D02*
X07342Y01318D01*
X07342Y01318D02*
X07592Y01541D01*
X07592Y01541D02*
X07592Y01041D01*
X07682Y01041D02*
X08120Y01541D01*
X07682Y01096D02*
X07682Y01485D01*
X07682Y01485D02*
X07745Y01541D01*
X07745Y01541D02*
X08057Y01541D01*
X08057Y01541D02*
X08120Y01485D01*
X08120Y01485D02*
X08120Y01096D01*
X08120Y01096D02*
X08057Y01041D01*
X08057Y01041D02*
X07745Y01041D01*
X07745Y01041D02*
X07682Y01096D01*
X08585Y01041D02*
X08585Y01541D01*
X08585Y01541D02*
X08272Y01152D01*
X08272Y01152D02*
X08710Y01152D01*
X06020Y03710D02*
X06332Y03932D01*
X06332Y03932D02*
X06020Y04210D01*
X06547Y04210D02*
X06797Y03710D01*
X06797Y03710D02*
X07047Y04210D01*
X07137Y03710D02*
X07137Y04098D01*
X07137Y04098D02*
X07262Y04210D01*
X07262Y04210D02*
X07450Y04210D01*
X07450Y04210D02*
X07575Y04098D01*
X07575Y04098D02*
X07575Y03710D01*
X07137Y03987D02*
X07575Y03987D01*
X07727Y04210D02*
X07727Y03710D01*
X07727Y03710D02*
X08227Y03710D01*
X08317Y04210D02*
X08317Y03765D01*
X08317Y03765D02*
X08380Y03710D01*
X08380Y03710D02*
X08692Y03710D01*
X08692Y03710D02*
X08755Y03765D01*
X08755Y03765D02*
X08755Y04210D01*
X09345Y03710D02*
X08907Y03710D01*
X08907Y03710D02*
X08907Y04210D01*
X08907Y04210D02*
X09345Y04210D01*
X08907Y03987D02*
X09157Y03987D01*
X04957Y09063D02*
X05000Y09112D01*
X05000Y09112D02*
X05000Y09356D01*
X05000Y09356D02*
X04957Y09405D01*
X04957Y09405D02*
X04827Y09405D01*
X04827Y09405D02*
X04784Y09356D01*
X04784Y09356D02*
X04784Y09112D01*
X04784Y09112D02*
X04740Y09063D01*
X04740Y09063D02*
X04654Y09063D01*
X04654Y09063D02*
X04610Y09112D01*
X04610Y09112D02*
X04610Y09356D01*
X04610Y09356D02*
X04654Y09405D01*
X04610Y09531D02*
X05000Y09531D01*
X05000Y09531D02*
X05000Y09921D01*
X05000Y10097D02*
X05000Y10292D01*
X05000Y10194D02*
X04610Y10194D01*
X04654Y10194D02*
X04740Y10097D01*
X04892Y10259D02*
X04892Y10759D01*
X04892Y10759D02*
X05142Y10536D01*
X05142Y10536D02*
X05392Y10759D01*
X05392Y10759D02*
X05392Y10259D01*
X05482Y10259D02*
X05920Y10759D01*
X05482Y10314D02*
X05482Y10703D01*
X05482Y10703D02*
X05545Y10759D01*
X05545Y10759D02*
X05857Y10759D01*
X05857Y10759D02*
X05920Y10703D01*
X05920Y10703D02*
X05920Y10314D01*
X05920Y10314D02*
X05857Y10259D01*
X05857Y10259D02*
X05545Y10259D01*
X05545Y10259D02*
X05482Y10314D01*
X06385Y10259D02*
X06385Y10759D01*
X06385Y10759D02*
X06072Y10370D01*
X06072Y10370D02*
X06510Y10370D01*
X04320Y07590D02*
X04632Y07812D01*
X04632Y07812D02*
X04320Y08090D01*
X04847Y08090D02*
X05097Y07590D01*
X05097Y07590D02*
X05347Y08090D01*
X05437Y07590D02*
X05437Y07978D01*
X05437Y07978D02*
X05562Y08090D01*
X05562Y08090D02*
X05750Y08090D01*
X05750Y08090D02*
X05875Y07978D01*
X05875Y07978D02*
X05875Y07590D01*
X05437Y07867D02*
X05875Y07867D01*
X06027Y08090D02*
X06027Y07590D01*
X06027Y07590D02*
X06527Y07590D01*
X06617Y08090D02*
X06617Y07645D01*
X06617Y07645D02*
X06680Y07590D01*
X06680Y07590D02*
X06992Y07590D01*
X06992Y07590D02*
X07055Y07645D01*
X07055Y07645D02*
X07055Y08090D01*
X07645Y07590D02*
X07207Y07590D01*
X07207Y07590D02*
X07207Y08090D01*
X07207Y08090D02*
X07645Y08090D01*
X07207Y07867D02*
X07457Y07867D01*
X06250Y18050D02*
X06250Y18550D01*
X06187Y18550D02*
X06562Y18550D01*
X06562Y18550D02*
X06625Y18494D01*
X06625Y18494D02*
X06625Y18105D01*
X06625Y18105D02*
X06562Y18050D01*
X06562Y18050D02*
X06187Y18050D01*
X06777Y18550D02*
X07215Y18550D01*
X07215Y18550D02*
X07215Y18494D01*
X07215Y18494D02*
X06965Y18327D01*
X06965Y18327D02*
X07152Y18327D01*
X07152Y18327D02*
X07215Y18272D01*
X07215Y18272D02*
X07215Y18105D01*
X07215Y18105D02*
X07152Y18050D01*
X07152Y18050D02*
X06840Y18050D01*
X06840Y18050D02*
X06777Y18105D01*
X06382Y15950D02*
X06632Y15950D01*
X06507Y15950D02*
X06507Y16450D01*
X06507Y16394D02*
X06382Y16283D01*
X06847Y15950D02*
X06847Y16450D01*
X06847Y16450D02*
X07285Y15950D01*
X07285Y15950D02*
X07285Y16450D01*
X07437Y16061D02*
X07437Y16005D01*
X07437Y16005D02*
X07500Y15950D01*
X07500Y15950D02*
X07812Y15950D01*
X07812Y15950D02*
X07875Y16005D01*
X07875Y16005D02*
X07875Y16172D01*
X07875Y16172D02*
X07750Y16283D01*
X07750Y16283D02*
X07437Y16283D01*
X07437Y16283D02*
X07437Y16450D01*
X07437Y16450D02*
X07875Y16450D01*
X08090Y15950D02*
X08027Y16005D01*
X08027Y16005D02*
X08027Y16172D01*
X08027Y16172D02*
X08090Y16227D01*
X08090Y16227D02*
X08402Y16227D01*
X08402Y16227D02*
X08465Y16283D01*
X08465Y16283D02*
X08465Y16394D01*
X08465Y16394D02*
X08402Y16450D01*
X08402Y16450D02*
X08090Y16450D01*
X08090Y16450D02*
X08027Y16394D01*
X08027Y16394D02*
X08027Y16283D01*
X08027Y16283D02*
X08090Y16227D01*
X08402Y16227D02*
X08465Y16172D01*
X08465Y16172D02*
X08465Y16005D01*
X08465Y16005D02*
X08402Y15950D01*
X08402Y15950D02*
X08090Y15950D01*
X09055Y15950D02*
X08617Y15950D01*
X08617Y15950D02*
X08617Y16116D01*
X08617Y16116D02*
X08680Y16172D01*
X08680Y16172D02*
X08992Y16172D01*
X08992Y16172D02*
X09055Y16227D01*
X09055Y16227D02*
X09055Y16394D01*
X09055Y16394D02*
X08992Y16450D01*
X08992Y16450D02*
X08680Y16450D01*
X08680Y16450D02*
X08617Y16394D01*
X09207Y15950D02*
X09645Y16450D01*
X09207Y16005D02*
X09207Y16394D01*
X09207Y16394D02*
X09270Y16450D01*
X09270Y16450D02*
X09582Y16450D01*
X09582Y16450D02*
X09645Y16394D01*
X09645Y16394D02*
X09645Y16005D01*
X09645Y16005D02*
X09582Y15950D01*
X09582Y15950D02*
X09270Y15950D01*
X09270Y15950D02*
X09207Y16005D01*
X22650Y05100D02*
X22150Y05100D01*
X22150Y05037D02*
X22150Y05412D01*
X22150Y05412D02*
X22206Y05475D01*
X22206Y05475D02*
X22595Y05475D01*
X22595Y05475D02*
X22650Y05412D01*
X22650Y05412D02*
X22650Y05037D01*
X22650Y05752D02*
X22650Y06002D01*
X22650Y05877D02*
X22150Y05877D01*
X22206Y05877D02*
X22317Y05752D01*
X20750Y03017D02*
X21250Y03017D01*
X21250Y03017D02*
X21250Y03517D01*
X20750Y03607D02*
X21250Y03607D01*
X21250Y03607D02*
X21250Y04107D01*
X21250Y04322D02*
X21250Y04572D01*
X21250Y04447D02*
X20750Y04447D01*
X20806Y04447D02*
X20917Y04322D01*
X21250Y04787D02*
X20750Y04787D01*
X20750Y04787D02*
X21250Y05225D01*
X21250Y05225D02*
X20750Y05225D01*
X21250Y05690D02*
X20750Y05690D01*
X20750Y05690D02*
X21139Y05377D01*
X21139Y05377D02*
X21139Y05815D01*
X21250Y06092D02*
X21250Y06342D01*
X21250Y06217D02*
X20750Y06217D01*
X20806Y06217D02*
X20917Y06092D01*
X21250Y06870D02*
X20750Y06870D01*
X20750Y06870D02*
X21139Y06557D01*
X21139Y06557D02*
X21139Y06995D01*
X21250Y07210D02*
X21195Y07147D01*
X21195Y07147D02*
X21028Y07147D01*
X21028Y07147D02*
X20973Y07210D01*
X20973Y07210D02*
X20973Y07522D01*
X20973Y07522D02*
X20917Y07585D01*
X20917Y07585D02*
X20806Y07585D01*
X20806Y07585D02*
X20750Y07522D01*
X20750Y07522D02*
X20750Y07210D01*
X20750Y07210D02*
X20806Y07147D01*
X20806Y07147D02*
X20917Y07147D01*
X20917Y07147D02*
X20973Y07210D01*
X20973Y07522D02*
X21028Y07585D01*
X21028Y07585D02*
X21195Y07585D01*
X21195Y07585D02*
X21250Y07522D01*
X21250Y07522D02*
X21250Y07210D01*
X12289Y25237D02*
X12400Y25300D01*
X12400Y25300D02*
X12400Y25425D01*
X12400Y25425D02*
X12345Y25487D01*
X12345Y25487D02*
X11900Y25487D01*
X11900Y25362D02*
X11900Y25612D01*
X12400Y25952D02*
X12400Y26202D01*
X12400Y26077D02*
X11900Y26077D01*
X11956Y26077D02*
X12067Y25952D01*
X14789Y23512D02*
X14900Y23575D01*
X14900Y23575D02*
X14900Y23700D01*
X14900Y23700D02*
X14845Y23762D01*
X14845Y23762D02*
X14400Y23762D01*
X14400Y23637D02*
X14400Y23887D01*
X14900Y24102D02*
X14512Y24102D01*
X14512Y24102D02*
X14400Y24227D01*
X14400Y24227D02*
X14400Y24415D01*
X14400Y24415D02*
X14512Y24540D01*
X14512Y24540D02*
X14900Y24540D01*
X14623Y24102D02*
X14623Y24540D01*
X14845Y25130D02*
X14900Y25067D01*
X14900Y25067D02*
X14900Y24755D01*
X14900Y24755D02*
X14845Y24692D01*
X14845Y24692D02*
X14456Y24692D01*
X14456Y24692D02*
X14400Y24755D01*
X14400Y24755D02*
X14400Y25067D01*
X14400Y25067D02*
X14456Y25130D01*
X14900Y25282D02*
X14400Y25282D01*
X14400Y25657D02*
X14623Y25282D01*
X14623Y25282D02*
X14900Y25720D01*
X14900Y25872D02*
X14900Y26310D01*
X14900Y26900D02*
X14900Y26462D01*
X14900Y26462D02*
X14734Y26462D01*
X14734Y26462D02*
X14678Y26525D01*
X14678Y26525D02*
X14678Y26837D01*
X14678Y26837D02*
X14623Y26900D01*
X14623Y26900D02*
X14456Y26900D01*
X14456Y26900D02*
X14400Y26837D01*
X14400Y26837D02*
X14400Y26525D01*
X14400Y26525D02*
X14456Y26462D01*
X14900Y27052D02*
X14400Y27052D01*
X14400Y27052D02*
X14400Y27427D01*
X14400Y27427D02*
X14456Y27490D01*
X14456Y27490D02*
X14623Y27490D01*
X14623Y27490D02*
X14678Y27427D01*
X14678Y27427D02*
X14678Y27052D01*
X12346Y23350D02*
X12346Y23450D01*
X12333Y23450D02*
X12408Y23450D01*
X12408Y23450D02*
X12421Y23438D01*
X12421Y23438D02*
X12421Y23361D01*
X12421Y23361D02*
X12408Y23350D01*
X12408Y23350D02*
X12333Y23350D01*
X12479Y23350D02*
X12479Y23416D01*
X12479Y23394D02*
X12504Y23416D01*
X12504Y23416D02*
X12542Y23416D01*
X12542Y23416D02*
X12567Y23394D01*
X12663Y23450D02*
X12663Y23438D01*
X12663Y23405D02*
X12663Y23361D01*
X12663Y23361D02*
X12675Y23350D01*
X12675Y23350D02*
X12688Y23350D01*
X12796Y23450D02*
X12809Y23450D01*
X12809Y23450D02*
X12809Y23350D01*
X12796Y23350D02*
X12821Y23350D01*
X12942Y23450D02*
X12955Y23450D01*
X12955Y23450D02*
X12955Y23350D01*
X12942Y23350D02*
X12967Y23350D01*
X13247Y23350D02*
X13234Y23372D01*
X13234Y23372D02*
X13234Y23427D01*
X13234Y23427D02*
X13247Y23450D01*
X13355Y23350D02*
X13355Y23450D01*
X13430Y23450D02*
X13355Y23405D01*
X13355Y23405D02*
X13443Y23350D01*
X13514Y23350D02*
X13501Y23361D01*
X13501Y23361D02*
X13501Y23405D01*
X13501Y23405D02*
X13514Y23416D01*
X13514Y23416D02*
X13576Y23416D01*
X13576Y23416D02*
X13589Y23405D01*
X13589Y23405D02*
X13589Y23361D01*
X13589Y23361D02*
X13576Y23350D01*
X13576Y23350D02*
X13514Y23350D01*
X13647Y23350D02*
X13647Y23416D01*
X13647Y23405D02*
X13660Y23416D01*
X13660Y23416D02*
X13710Y23416D01*
X13710Y23416D02*
X13722Y23405D01*
X13722Y23405D02*
X13722Y23350D01*
X13868Y23361D02*
X13856Y23350D01*
X13856Y23350D02*
X13818Y23350D01*
X13818Y23350D02*
X13806Y23361D01*
X13806Y23361D02*
X13806Y23450D01*
X13806Y23416D02*
X13843Y23416D01*
X13952Y23350D02*
X13939Y23361D01*
X13939Y23361D02*
X13939Y23405D01*
X13939Y23405D02*
X13952Y23416D01*
X13952Y23416D02*
X14014Y23416D01*
X14014Y23416D02*
X14027Y23405D01*
X14027Y23405D02*
X14027Y23361D01*
X14027Y23361D02*
X14014Y23350D01*
X14014Y23350D02*
X13952Y23350D01*
X14085Y23416D02*
X14085Y23372D01*
X14085Y23372D02*
X14110Y23350D01*
X14110Y23350D02*
X14148Y23350D01*
X14148Y23350D02*
X14173Y23372D01*
X14173Y23372D02*
X14173Y23416D01*
X14231Y23350D02*
X14231Y23416D01*
X14231Y23394D02*
X14256Y23416D01*
X14256Y23416D02*
X14294Y23416D01*
X14294Y23416D02*
X14319Y23394D01*
X14415Y23350D02*
X14427Y23372D01*
X14427Y23372D02*
X14427Y23427D01*
X14427Y23427D02*
X14415Y23450D01*
X12702Y24361D02*
X12715Y24350D01*
X12715Y24350D02*
X12777Y24350D01*
X12777Y24350D02*
X12790Y24361D01*
X12790Y24361D02*
X12790Y24372D01*
X12790Y24372D02*
X12777Y24383D01*
X12777Y24383D02*
X12715Y24383D01*
X12715Y24383D02*
X12702Y24394D01*
X12702Y24394D02*
X12702Y24405D01*
X12702Y24405D02*
X12715Y24416D01*
X12715Y24416D02*
X12777Y24416D01*
X12777Y24416D02*
X12790Y24405D01*
X12848Y24383D02*
X12936Y24383D01*
X12936Y24383D02*
X12936Y24405D01*
X12936Y24405D02*
X12923Y24416D01*
X12923Y24416D02*
X12861Y24416D01*
X12861Y24416D02*
X12848Y24405D01*
X12848Y24405D02*
X12848Y24361D01*
X12848Y24361D02*
X12861Y24350D01*
X12861Y24350D02*
X12923Y24350D01*
X12923Y24350D02*
X12936Y24361D01*
X12994Y24383D02*
X13082Y24383D01*
X13082Y24383D02*
X13082Y24405D01*
X13082Y24405D02*
X13069Y24416D01*
X13069Y24416D02*
X13007Y24416D01*
X13007Y24416D02*
X12994Y24405D01*
X12994Y24405D02*
X12994Y24361D01*
X12994Y24361D02*
X13007Y24350D01*
X13007Y24350D02*
X13069Y24350D01*
X13069Y24350D02*
X13082Y24361D01*
X13286Y24450D02*
X13286Y24350D01*
X13286Y24350D02*
X13386Y24350D01*
X13432Y24416D02*
X13507Y24416D01*
X13507Y24416D02*
X13520Y24405D01*
X13520Y24405D02*
X13520Y24350D01*
X13520Y24350D02*
X13445Y24350D01*
X13445Y24350D02*
X13432Y24361D01*
X13432Y24361D02*
X13432Y24372D01*
X13432Y24372D02*
X13445Y24383D01*
X13445Y24383D02*
X13520Y24383D01*
X13578Y24416D02*
X13578Y24372D01*
X13578Y24372D02*
X13603Y24350D01*
X13603Y24350D02*
X13641Y24350D01*
X13641Y24350D02*
X13666Y24372D01*
X13666Y24416D02*
X13666Y24328D01*
X13666Y24328D02*
X13653Y24317D01*
X13653Y24317D02*
X13591Y24317D01*
X13591Y24317D02*
X13578Y24328D01*
X13724Y24383D02*
X13812Y24383D01*
X13812Y24383D02*
X13812Y24405D01*
X13812Y24405D02*
X13799Y24416D01*
X13799Y24416D02*
X13737Y24416D01*
X13737Y24416D02*
X13724Y24405D01*
X13724Y24405D02*
X13724Y24361D01*
X13724Y24361D02*
X13737Y24350D01*
X13737Y24350D02*
X13799Y24350D01*
X13799Y24350D02*
X13812Y24361D01*
X13870Y24350D02*
X13870Y24416D01*
X13870Y24394D02*
X13895Y24416D01*
X13895Y24416D02*
X13933Y24416D01*
X13933Y24416D02*
X13958Y24394D01*
X14225Y24350D02*
X14225Y24450D01*
X14225Y24450D02*
X14162Y24372D01*
X14162Y24372D02*
X14250Y24372D01*
X14396Y24438D02*
X14383Y24450D01*
X14383Y24450D02*
X14321Y24450D01*
X14321Y24450D02*
X14308Y24438D01*
X14308Y24438D02*
X14308Y24361D01*
X14308Y24361D02*
X14321Y24350D01*
X14321Y24350D02*
X14383Y24350D01*
X14383Y24350D02*
X14396Y24361D01*
X14396Y24361D02*
X14396Y24394D01*
X14396Y24394D02*
X14383Y24405D01*
X14383Y24405D02*
X14321Y24405D01*
X14321Y24405D02*
X14308Y24394D01*
G54D53*
X23858Y04175D02*
X23858Y03775D01*
X23858Y03775D02*
X23914Y03725D01*
X23914Y03725D02*
X24195Y03725D01*
X24195Y03725D02*
X24252Y03775D01*
X24252Y03775D02*
X24252Y04175D01*
X24418Y03825D02*
X24418Y03775D01*
X24418Y03775D02*
X24474Y03725D01*
X24474Y03725D02*
X24755Y03725D01*
X24755Y03725D02*
X24812Y03775D01*
X24812Y03775D02*
X24812Y03925D01*
X24812Y03925D02*
X24699Y04025D01*
X24699Y04025D02*
X24418Y04025D01*
X24418Y04025D02*
X24418Y04175D01*
X24418Y04175D02*
X24812Y04175D01*
X23092Y03025D02*
X23092Y03375D01*
X23048Y03375D02*
X23311Y03375D01*
X23311Y03375D02*
X23355Y03336D01*
X23355Y03336D02*
X23355Y03063D01*
X23355Y03063D02*
X23311Y03025D01*
X23311Y03025D02*
X23048Y03025D01*
X23496Y03063D02*
X23540Y03025D01*
X23540Y03025D02*
X23759Y03025D01*
X23759Y03025D02*
X23803Y03063D01*
X23803Y03063D02*
X23803Y03180D01*
X23803Y03180D02*
X23759Y03219D01*
X23759Y03219D02*
X23540Y03219D01*
X23540Y03219D02*
X23496Y03258D01*
X23496Y03258D02*
X23496Y03336D01*
X23496Y03336D02*
X23540Y03375D01*
X23540Y03375D02*
X23759Y03375D01*
X23759Y03375D02*
X23803Y03336D01*
X24032Y03025D02*
X24207Y03025D01*
X24119Y03025D02*
X24119Y03375D01*
X24119Y03336D02*
X24032Y03258D01*
X24392Y03375D02*
X24699Y03375D01*
X24699Y03375D02*
X24699Y03336D01*
X24699Y03336D02*
X24524Y03219D01*
X24524Y03219D02*
X24655Y03219D01*
X24655Y03219D02*
X24699Y03180D01*
X24699Y03180D02*
X24699Y03063D01*
X24699Y03063D02*
X24655Y03025D01*
X24655Y03025D02*
X24436Y03025D01*
X24436Y03025D02*
X24392Y03063D01*
X24840Y03025D02*
X25147Y03375D01*
X24840Y03063D02*
X24840Y03336D01*
X24840Y03336D02*
X24884Y03375D01*
X24884Y03375D02*
X25103Y03375D01*
X25103Y03375D02*
X25147Y03336D01*
X25147Y03336D02*
X25147Y03063D01*
X25147Y03063D02*
X25103Y03025D01*
X25103Y03025D02*
X24884Y03025D01*
X24884Y03025D02*
X24840Y03063D01*
X25595Y03025D02*
X25288Y03025D01*
X25288Y03025D02*
X25288Y03141D01*
X25288Y03141D02*
X25332Y03180D01*
X25332Y03180D02*
X25551Y03180D01*
X25551Y03180D02*
X25595Y03219D01*
X25595Y03219D02*
X25595Y03336D01*
X25595Y03336D02*
X25551Y03375D01*
X25551Y03375D02*
X25332Y03375D01*
X25332Y03375D02*
X25288Y03336D01*
G54D56*
X23857Y01363D02*
X23900Y01412D01*
X23900Y01412D02*
X23900Y01656D01*
X23900Y01656D02*
X23857Y01705D01*
X23857Y01705D02*
X23727Y01705D01*
X23727Y01705D02*
X23684Y01656D01*
X23684Y01656D02*
X23684Y01412D01*
X23684Y01412D02*
X23640Y01363D01*
X23640Y01363D02*
X23554Y01363D01*
X23554Y01363D02*
X23510Y01412D01*
X23510Y01412D02*
X23510Y01656D01*
X23510Y01656D02*
X23554Y01705D01*
X23510Y01831D02*
X23900Y01831D01*
X23900Y01831D02*
X23900Y02221D01*
X23510Y02299D02*
X23510Y02641D01*
X23510Y02641D02*
X23554Y02641D01*
X23554Y02641D02*
X23684Y02446D01*
X23684Y02446D02*
X23684Y02592D01*
X23684Y02592D02*
X23727Y02641D01*
X23727Y02641D02*
X23857Y02641D01*
X23857Y02641D02*
X23900Y02592D01*
X23900Y02592D02*
X23900Y02348D01*
X23900Y02348D02*
X23857Y02299D01*
X24087Y02559D02*
X24525Y03059D01*
X24087Y03059D02*
X24525Y02559D01*
X24677Y03059D02*
X25177Y03059D01*
X24927Y03059D02*
X24927Y02559D01*
X23220Y-00110D02*
X23532Y00112D01*
X23532Y00112D02*
X23220Y00390D01*
X23747Y00390D02*
X23997Y-00110D01*
X23997Y-00110D02*
X24247Y00390D01*
X24337Y-00110D02*
X24337Y00278D01*
X24337Y00278D02*
X24462Y00390D01*
X24462Y00390D02*
X24650Y00390D01*
X24650Y00390D02*
X24775Y00278D01*
X24775Y00278D02*
X24775Y-00110D01*
X24337Y00167D02*
X24775Y00167D01*
X24927Y00390D02*
X24927Y-00110D01*
X24927Y-00110D02*
X25427Y-00110D01*
X25517Y00390D02*
X25517Y-00055D01*
X25517Y-00055D02*
X25580Y-00110D01*
X25580Y-00110D02*
X25892Y-00110D01*
X25892Y-00110D02*
X25955Y-00055D01*
X25955Y-00055D02*
X25955Y00390D01*
X26545Y-00110D02*
X26107Y-00110D01*
X26107Y-00110D02*
X26107Y00390D01*
X26107Y00390D02*
X26545Y00390D01*
X26107Y00167D02*
X26357Y00167D01*
X11550Y15400D02*
X11550Y15900D01*
X11487Y15900D02*
X11862Y15900D01*
X11862Y15900D02*
X11925Y15844D01*
X11925Y15844D02*
X11925Y15455D01*
X11925Y15455D02*
X11862Y15400D01*
X11862Y15400D02*
X11487Y15400D01*
X12390Y15400D02*
X12390Y15900D01*
X12390Y15900D02*
X12077Y15511D01*
X12077Y15511D02*
X12515Y15511D01*
X08492Y13400D02*
X08992Y13400D01*
X08742Y13400D02*
X08742Y12900D01*
X09082Y12900D02*
X09082Y13400D01*
X09082Y13400D02*
X09457Y13400D01*
X09457Y13400D02*
X09520Y13344D01*
X09520Y13344D02*
X09520Y13177D01*
X09520Y13177D02*
X09457Y13122D01*
X09457Y13122D02*
X09082Y13122D01*
X09270Y13122D02*
X09520Y12900D01*
X09672Y12900D02*
X09672Y13288D01*
X09672Y13288D02*
X09797Y13400D01*
X09797Y13400D02*
X09985Y13400D01*
X09985Y13400D02*
X10110Y13288D01*
X10110Y13288D02*
X10110Y12900D01*
X09672Y13177D02*
X10110Y13177D01*
X10262Y12900D02*
X10262Y13400D01*
X10262Y13400D02*
X10700Y12900D01*
X10700Y12900D02*
X10700Y13400D01*
X10852Y12955D02*
X10915Y12900D01*
X10915Y12900D02*
X11227Y12900D01*
X11227Y12900D02*
X11290Y12955D01*
X11290Y12955D02*
X11290Y13122D01*
X11290Y13122D02*
X11227Y13177D01*
X11227Y13177D02*
X10915Y13177D01*
X10915Y13177D02*
X10852Y13233D01*
X10852Y13233D02*
X10852Y13344D01*
X10852Y13344D02*
X10915Y13400D01*
X10915Y13400D02*
X11227Y13400D01*
X11227Y13400D02*
X11290Y13344D01*
X11442Y13400D02*
X11880Y13400D01*
X11880Y13400D02*
X11442Y12900D01*
X11442Y12900D02*
X11880Y12900D01*
X12095Y12900D02*
X12032Y12955D01*
X12032Y12955D02*
X12032Y13344D01*
X12032Y13344D02*
X12095Y13400D01*
X12095Y13400D02*
X12407Y13400D01*
X12407Y13400D02*
X12470Y13344D01*
X12470Y13344D02*
X12470Y12955D01*
X12470Y12955D02*
X12407Y12900D01*
X12407Y12900D02*
X12095Y12900D01*
X12622Y12900D02*
X12622Y13400D01*
X12622Y13400D02*
X12997Y13400D01*
X12997Y13400D02*
X13060Y13344D01*
X13060Y13344D02*
X13060Y13177D01*
X13060Y13177D02*
X12997Y13122D01*
X12997Y13122D02*
X12622Y13122D01*
X12810Y13122D02*
X13060Y12900D01*
X13212Y12900D02*
X13212Y13400D01*
X13212Y13400D02*
X13587Y13400D01*
X13587Y13400D02*
X13650Y13344D01*
X13650Y13344D02*
X13650Y13233D01*
X13650Y13233D02*
X13587Y13177D01*
X13587Y13177D02*
X13212Y13177D01*
X13587Y13177D02*
X13650Y13066D01*
X13650Y13066D02*
X13650Y12955D01*
X13650Y12955D02*
X13587Y12900D01*
X13587Y12900D02*
X13212Y12900D01*
X13802Y12900D02*
X14240Y12900D01*
X14392Y12955D02*
X14455Y12900D01*
X14455Y12900D02*
X14767Y12900D01*
X14767Y12900D02*
X14830Y12955D01*
X14830Y12955D02*
X14830Y13122D01*
X14830Y13122D02*
X14767Y13177D01*
X14767Y13177D02*
X14455Y13177D01*
X14455Y13177D02*
X14392Y13233D01*
X14392Y13233D02*
X14392Y13344D01*
X14392Y13344D02*
X14455Y13400D01*
X14455Y13400D02*
X14767Y13400D01*
X14767Y13400D02*
X14830Y13344D01*
X14982Y12900D02*
X14982Y13400D01*
X14982Y13400D02*
X15232Y13177D01*
X15232Y13177D02*
X15482Y13400D01*
X15482Y13400D02*
X15482Y12900D01*
X15635Y12900D02*
X15635Y13400D01*
X15572Y13400D02*
X15947Y13400D01*
X15947Y13400D02*
X16010Y13344D01*
X16010Y13344D02*
X16010Y12955D01*
X16010Y12955D02*
X15947Y12900D01*
X15947Y12900D02*
X15572Y12900D01*
G54D33*
X04698Y04059D02*
X04725Y04027D01*
X04725Y04027D02*
X04725Y03871D01*
X04725Y03871D02*
X04698Y03840D01*
X04698Y03840D02*
X04503Y03840D01*
X04503Y03840D02*
X04475Y03871D01*
X04475Y03871D02*
X04475Y04027D01*
X04475Y04027D02*
X04503Y04059D01*
X04503Y04386D02*
X04475Y04354D01*
X04475Y04354D02*
X04475Y04198D01*
X04475Y04198D02*
X04503Y04167D01*
X04503Y04167D02*
X04698Y04167D01*
X04698Y04167D02*
X04725Y04198D01*
X04725Y04198D02*
X04725Y04354D01*
X04725Y04354D02*
X04698Y04386D01*
X04698Y04386D02*
X04614Y04386D01*
X04614Y04386D02*
X04587Y04354D01*
X04587Y04354D02*
X04587Y04198D01*
X04587Y04198D02*
X04614Y04167D01*
X05359Y07802D02*
X05327Y07775D01*
X05327Y07775D02*
X05171Y07775D01*
X05171Y07775D02*
X05140Y07802D01*
X05140Y07802D02*
X05140Y07997D01*
X05140Y07997D02*
X05171Y08025D01*
X05171Y08025D02*
X05327Y08025D01*
X05327Y08025D02*
X05359Y07997D01*
X05467Y07830D02*
X05467Y07802D01*
X05467Y07802D02*
X05498Y07775D01*
X05498Y07775D02*
X05654Y07775D01*
X05654Y07775D02*
X05686Y07802D01*
X05686Y07802D02*
X05686Y07886D01*
X05686Y07886D02*
X05623Y07941D01*
X05623Y07941D02*
X05467Y07941D01*
X05467Y07941D02*
X05467Y08025D01*
X05467Y08025D02*
X05686Y08025D01*
G54D51*
X05150Y01007D02*
X04850Y01007D01*
X04850Y00969D02*
X04850Y01194D01*
X04850Y01194D02*
X04884Y01232D01*
X04884Y01232D02*
X05117Y01232D01*
X05117Y01232D02*
X05150Y01194D01*
X05150Y01194D02*
X05150Y00969D01*
X05084Y01382D02*
X05117Y01382D01*
X05117Y01382D02*
X05150Y01420D01*
X05150Y01420D02*
X05150Y01607D01*
X05150Y01607D02*
X05117Y01645D01*
X05117Y01645D02*
X05017Y01645D01*
X05017Y01645D02*
X04950Y01570D01*
X04950Y01570D02*
X04950Y01382D01*
X04950Y01382D02*
X04850Y01382D01*
X04850Y01382D02*
X04850Y01645D01*
G54D33*
X07040Y17475D02*
X07040Y17725D01*
X07040Y17725D02*
X07227Y17725D01*
X07227Y17725D02*
X07259Y17697D01*
X07259Y17697D02*
X07259Y17613D01*
X07259Y17613D02*
X07227Y17586D01*
X07227Y17586D02*
X07040Y17586D01*
X07134Y17586D02*
X07259Y17475D01*
X07367Y17725D02*
X07586Y17725D01*
X07586Y17725D02*
X07367Y17475D01*
X05390Y18825D02*
X05390Y19075D01*
X05390Y19075D02*
X05577Y19075D01*
X05577Y19075D02*
X05609Y19047D01*
X05609Y19047D02*
X05609Y18963D01*
X05609Y18963D02*
X05577Y18936D01*
X05577Y18936D02*
X05390Y18936D01*
X05484Y18936D02*
X05609Y18825D01*
X05936Y19047D02*
X05904Y19075D01*
X05904Y19075D02*
X05748Y19075D01*
X05748Y19075D02*
X05717Y19047D01*
X05717Y19047D02*
X05717Y18852D01*
X05717Y18852D02*
X05748Y18825D01*
X05748Y18825D02*
X05904Y18825D01*
X05904Y18825D02*
X05936Y18852D01*
X05936Y18852D02*
X05936Y18936D01*
X05936Y18936D02*
X05904Y18963D01*
X05904Y18963D02*
X05748Y18963D01*
X05748Y18963D02*
X05717Y18936D01*
X07259Y16752D02*
X07227Y16725D01*
X07227Y16725D02*
X07071Y16725D01*
X07071Y16725D02*
X07040Y16752D01*
X07040Y16752D02*
X07040Y16947D01*
X07040Y16947D02*
X07071Y16975D01*
X07071Y16975D02*
X07227Y16975D01*
X07227Y16975D02*
X07259Y16947D01*
X07367Y16975D02*
X07586Y16975D01*
X07586Y16975D02*
X07367Y16725D01*
X03425Y05440D02*
X03175Y05440D01*
X03175Y05440D02*
X03175Y05627D01*
X03175Y05627D02*
X03203Y05659D01*
X03203Y05659D02*
X03287Y05659D01*
X03287Y05659D02*
X03314Y05627D01*
X03314Y05627D02*
X03314Y05440D01*
X03314Y05534D02*
X03425Y05659D01*
X03425Y05829D02*
X03425Y05954D01*
X03425Y05892D02*
X03175Y05892D01*
X03203Y05892D02*
X03259Y05829D01*
X03440Y04375D02*
X03440Y04625D01*
X03440Y04625D02*
X03627Y04625D01*
X03627Y04625D02*
X03659Y04597D01*
X03659Y04597D02*
X03659Y04513D01*
X03659Y04513D02*
X03627Y04486D01*
X03627Y04486D02*
X03440Y04486D01*
X03534Y04486D02*
X03659Y04375D01*
X03986Y04375D02*
X03767Y04375D01*
X03767Y04375D02*
X03767Y04458D01*
X03767Y04458D02*
X03798Y04486D01*
X03798Y04486D02*
X03954Y04486D01*
X03954Y04486D02*
X03986Y04513D01*
X03986Y04513D02*
X03986Y04597D01*
X03986Y04597D02*
X03954Y04625D01*
X03954Y04625D02*
X03798Y04625D01*
X03798Y04625D02*
X03767Y04597D01*
X23940Y08025D02*
X23940Y08275D01*
X23940Y08275D02*
X24127Y08275D01*
X24127Y08275D02*
X24159Y08247D01*
X24159Y08247D02*
X24159Y08163D01*
X24159Y08163D02*
X24127Y08136D01*
X24127Y08136D02*
X23940Y08136D01*
X24034Y08136D02*
X24159Y08025D01*
X24298Y08025D02*
X24267Y08052D01*
X24267Y08052D02*
X24267Y08136D01*
X24267Y08136D02*
X24298Y08163D01*
X24298Y08163D02*
X24454Y08163D01*
X24454Y08163D02*
X24486Y08191D01*
X24486Y08191D02*
X24486Y08247D01*
X24486Y08247D02*
X24454Y08275D01*
X24454Y08275D02*
X24298Y08275D01*
X24298Y08275D02*
X24267Y08247D01*
X24267Y08247D02*
X24267Y08191D01*
X24267Y08191D02*
X24298Y08163D01*
X24454Y08163D02*
X24486Y08136D01*
X24486Y08136D02*
X24486Y08052D01*
X24486Y08052D02*
X24454Y08025D01*
X24454Y08025D02*
X24298Y08025D01*
G54D56*
X11950Y17200D02*
X11450Y17200D01*
X11450Y17137D02*
X11450Y17512D01*
X11450Y17512D02*
X11506Y17575D01*
X11506Y17575D02*
X11895Y17575D01*
X11895Y17575D02*
X11950Y17512D01*
X11950Y17512D02*
X11950Y17137D01*
X11950Y18165D02*
X11950Y17727D01*
X11950Y17727D02*
X11784Y17727D01*
X11784Y17727D02*
X11728Y17790D01*
X11728Y17790D02*
X11728Y18102D01*
X11728Y18102D02*
X11673Y18165D01*
X11673Y18165D02*
X11506Y18165D01*
X11506Y18165D02*
X11450Y18102D01*
X11450Y18102D02*
X11450Y17790D01*
X11450Y17790D02*
X11506Y17727D01*
X14050Y17332D02*
X14050Y17582D01*
X14050Y17457D02*
X13550Y17457D01*
X13606Y17457D02*
X13717Y17332D01*
X14050Y17797D02*
X13550Y17797D01*
X13550Y17797D02*
X14050Y18235D01*
X14050Y18235D02*
X13550Y18235D01*
X13939Y18387D02*
X13995Y18387D01*
X13995Y18387D02*
X14050Y18450D01*
X14050Y18450D02*
X14050Y18762D01*
X14050Y18762D02*
X13995Y18825D01*
X13995Y18825D02*
X13828Y18825D01*
X13828Y18825D02*
X13717Y18700D01*
X13717Y18700D02*
X13717Y18387D01*
X13717Y18387D02*
X13550Y18387D01*
X13550Y18387D02*
X13550Y18825D01*
X14050Y19290D02*
X13550Y19290D01*
X13550Y19290D02*
X13939Y18977D01*
X13939Y18977D02*
X13939Y19415D01*
X14050Y19567D02*
X13550Y20005D01*
X13995Y19567D02*
X13606Y19567D01*
X13606Y19567D02*
X13550Y19630D01*
X13550Y19630D02*
X13550Y19942D01*
X13550Y19942D02*
X13606Y20005D01*
X13606Y20005D02*
X13995Y20005D01*
X13995Y20005D02*
X14050Y19942D01*
X14050Y19942D02*
X14050Y19630D01*
X14050Y19630D02*
X13995Y19567D01*
X14050Y20220D02*
X13995Y20157D01*
X13995Y20157D02*
X13828Y20157D01*
X13828Y20157D02*
X13773Y20220D01*
X13773Y20220D02*
X13773Y20532D01*
X13773Y20532D02*
X13717Y20595D01*
X13717Y20595D02*
X13606Y20595D01*
X13606Y20595D02*
X13550Y20532D01*
X13550Y20532D02*
X13550Y20220D01*
X13550Y20220D02*
X13606Y20157D01*
X13606Y20157D02*
X13717Y20157D01*
X13717Y20157D02*
X13773Y20220D01*
X13773Y20532D02*
X13828Y20595D01*
X13828Y20595D02*
X13995Y20595D01*
X13995Y20595D02*
X14050Y20532D01*
X14050Y20532D02*
X14050Y20220D01*
G54D51*
X09683Y18167D02*
X09640Y18101D01*
X09640Y18101D02*
X09428Y18101D01*
X09428Y18101D02*
X09385Y18167D01*
X09385Y18167D02*
X09385Y18634D01*
X09385Y18634D02*
X09428Y18701D01*
X09428Y18701D02*
X09640Y18701D01*
X09640Y18701D02*
X09683Y18634D01*
X10055Y18101D02*
X10055Y18701D01*
X10055Y18701D02*
X09842Y18234D01*
X09842Y18234D02*
X10140Y18234D01*
X08898Y19150D02*
X08548Y19150D01*
X08548Y19150D02*
X08548Y19316D01*
X08548Y19316D02*
X08598Y19372D01*
X08598Y19372D02*
X08848Y19372D01*
X08848Y19372D02*
X08898Y19427D01*
X08898Y19427D02*
X08898Y19594D01*
X08898Y19594D02*
X08848Y19650D01*
X08848Y19650D02*
X08598Y19650D01*
X08598Y19650D02*
X08548Y19594D01*
X09422Y19150D02*
X09072Y19150D01*
X09072Y19150D02*
X09072Y19316D01*
X09072Y19316D02*
X09122Y19372D01*
X09122Y19372D02*
X09372Y19372D01*
X09372Y19372D02*
X09422Y19427D01*
X09422Y19427D02*
X09422Y19594D01*
X09422Y19594D02*
X09372Y19650D01*
X09372Y19650D02*
X09122Y19650D01*
X09122Y19650D02*
X09072Y19594D01*
X09596Y19150D02*
X09946Y19650D01*
X09596Y19205D02*
X09596Y19594D01*
X09596Y19594D02*
X09646Y19650D01*
X09646Y19650D02*
X09896Y19650D01*
X09896Y19650D02*
X09946Y19594D01*
X09946Y19594D02*
X09946Y19205D01*
X09946Y19205D02*
X09896Y19150D01*
X09896Y19150D02*
X09646Y19150D01*
X09646Y19150D02*
X09596Y19205D01*
X10120Y19483D02*
X10120Y19261D01*
X10120Y19261D02*
X10220Y19150D01*
X10220Y19150D02*
X10370Y19150D01*
X10370Y19150D02*
X10470Y19261D01*
X10470Y19261D02*
X10470Y19483D01*
X10644Y19150D02*
X10644Y19650D01*
X10644Y19650D02*
X10994Y19650D01*
X10644Y19427D02*
X10844Y19427D01*
G54D49*
X07834Y18069D02*
X07834Y18519D01*
X08034Y18294D02*
X07634Y18294D01*
M02*
